{
  "schema": "pitch-timeline/v1-export",
  "project": {
    "id": "id_gfhyycr9dmnqeg8gc",
    "title": "inference-1.4",
    "tempoBpm": 160,
    "timeSignature": {
      "numerator": 3,
      "denominator": 4
    },
    "ppq": 480,
    "bendRangeCents": 2400,
    "totalBars": 307,
    "durationTicks": 442080,
    "durationSeconds": 345.375,
    "instruments": [
      {
        "name": "Instrument 1",
        "color": "#4fc3f7",
        "voice": "triangle"
      },
      {
        "name": "Instrument 2",
        "color": "#60f0a6",
        "voice": "waf-cello"
      }
    ]
  },
  "notes": [
    {
      "id": "id_g4clz6f9lmnv3kmns",
      "pitch": 44,
      "pitchName": "G#2",
      "frequencyHz": 103.826174,
      "startTick": 0,
      "durationTicks": 2400,
      "endTick": 2400,
      "startSeconds": 0,
      "durationSeconds": 1.875,
      "endSeconds": 1.875,
      "velocity": 0.8,
      "bendActive": true,
      "instrument": 0
    },
    {
      "id": "id_2cklmr6l3mnv3kmnt",
      "pitch": 66,
      "pitchName": "F#4",
      "frequencyHz": 369.994423,
      "startTick": 0,
      "durationTicks": 2880,
      "endTick": 2880,
      "startSeconds": 0,
      "durationSeconds": 2.25,
      "endSeconds": 2.25,
      "velocity": 0.32,
      "bendActive": true,
      "instrument": 1
    },
    {
      "id": "id_qr7ih3aapmnv3kmnt",
      "pitch": 59,
      "pitchName": "B3",
      "frequencyHz": 246.941651,
      "startTick": 2880,
      "durationTicks": 2400,
      "endTick": 5280,
      "startSeconds": 2.25,
      "durationSeconds": 1.875,
      "endSeconds": 4.125,
      "velocity": 0.8,
      "bendActive": true,
      "instrument": 0
    },
    {
      "id": "id_6hd0t73hfmnv3kmnt",
      "pitch": 66,
      "pitchName": "F#4",
      "frequencyHz": 369.994423,
      "startTick": 2880,
      "durationTicks": 2880,
      "endTick": 5760,
      "startSeconds": 2.25,
      "durationSeconds": 2.25,
      "endSeconds": 4.5,
      "velocity": 0.32,
      "bendActive": true,
      "instrument": 1
    },
    {
      "id": "id_s42xn76aemnv3kmnt",
      "pitch": 44,
      "pitchName": "G#2",
      "frequencyHz": 103.826174,
      "startTick": 5760,
      "durationTicks": 2400,
      "endTick": 8160,
      "startSeconds": 4.5,
      "durationSeconds": 1.875,
      "endSeconds": 6.375,
      "velocity": 0.8,
      "bendActive": true,
      "instrument": 0
    },
    {
      "id": "id_j3tptt7fnmnv3kmnt",
      "pitch": 66,
      "pitchName": "F#4",
      "frequencyHz": 369.994423,
      "startTick": 5760,
      "durationTicks": 2880,
      "endTick": 8640,
      "startSeconds": 4.5,
      "durationSeconds": 2.25,
      "endSeconds": 6.75,
      "velocity": 0.32,
      "bendActive": true,
      "instrument": 1
    },
    {
      "id": "id_54p9in2oemnv3kmnt",
      "pitch": 61,
      "pitchName": "C#4",
      "frequencyHz": 277.182631,
      "startTick": 8640,
      "durationTicks": 2400,
      "endTick": 11040,
      "startSeconds": 6.75,
      "durationSeconds": 1.875,
      "endSeconds": 8.625,
      "velocity": 0.8,
      "bendActive": true,
      "instrument": 0
    },
    {
      "id": "id_plhmtdk1qmnv3kmnt",
      "pitch": 68,
      "pitchName": "G#4",
      "frequencyHz": 415.304698,
      "startTick": 8640,
      "durationTicks": 2880,
      "endTick": 11520,
      "startSeconds": 6.75,
      "durationSeconds": 2.25,
      "endSeconds": 9,
      "velocity": 0.32,
      "bendActive": true,
      "instrument": 1
    },
    {
      "id": "id_7q8kalu45mnv3kmnt",
      "pitch": 37,
      "pitchName": "C#2",
      "frequencyHz": 69.295658,
      "startTick": 11520,
      "durationTicks": 1440,
      "endTick": 12960,
      "startSeconds": 9,
      "durationSeconds": 1.125,
      "endSeconds": 10.125,
      "velocity": 0.8,
      "bendActive": true,
      "instrument": 0
    },
    {
      "id": "id_wp6bucj8dmnv3kmnt",
      "pitch": 52,
      "pitchName": "E3",
      "frequencyHz": 164.813778,
      "startTick": 11520,
      "durationTicks": 1440,
      "endTick": 12960,
      "startSeconds": 9,
      "durationSeconds": 1.125,
      "endSeconds": 10.125,
      "velocity": 0.32,
      "bendActive": true,
      "instrument": 1
    },
    {
      "id": "id_kpoeg5vedmnv3kmnt",
      "pitch": 49,
      "pitchName": "C#3",
      "frequencyHz": 138.591315,
      "startTick": 12960,
      "durationTicks": 480,
      "endTick": 13440,
      "startSeconds": 10.125,
      "durationSeconds": 0.375,
      "endSeconds": 10.5,
      "velocity": 0.8,
      "bendActive": true,
      "instrument": 0
    },
    {
      "id": "id_gzs6guneumnv3kmnt",
      "pitch": 59,
      "pitchName": "B3",
      "frequencyHz": 246.941651,
      "startTick": 12960,
      "durationTicks": 480,
      "endTick": 13440,
      "startSeconds": 10.125,
      "durationSeconds": 0.375,
      "endSeconds": 10.5,
      "velocity": 0.8,
      "bendActive": true,
      "instrument": 0
    },
    {
      "id": "id_3cb6tlz8umnv3kmnt",
      "pitch": 64,
      "pitchName": "E4",
      "frequencyHz": 329.627557,
      "startTick": 12960,
      "durationTicks": 480,
      "endTick": 13440,
      "startSeconds": 10.125,
      "durationSeconds": 0.375,
      "endSeconds": 10.5,
      "velocity": 0.32,
      "bendActive": true,
      "instrument": 1
    },
    {
      "id": "id_oz8v8rmyvmnv3kmnt",
      "pitch": 58,
      "pitchName": "A#3",
      "frequencyHz": 233.081881,
      "startTick": 13440,
      "durationTicks": 480,
      "endTick": 13920,
      "startSeconds": 10.5,
      "durationSeconds": 0.375,
      "endSeconds": 10.875,
      "velocity": 0.8,
      "bendActive": true,
      "instrument": 0
    },
    {
      "id": "id_jdfpnegijmnv3kmnt",
      "pitch": 63,
      "pitchName": "D#4",
      "frequencyHz": 311.126984,
      "startTick": 13440,
      "durationTicks": 480,
      "endTick": 13920,
      "startSeconds": 10.5,
      "durationSeconds": 0.375,
      "endSeconds": 10.875,
      "velocity": 0.32,
      "bendActive": true,
      "instrument": 1
    },
    {
      "id": "id_ylak1ugdrmnv3kmnt",
      "pitch": 56,
      "pitchName": "G#3",
      "frequencyHz": 207.652349,
      "startTick": 13920,
      "durationTicks": 480,
      "endTick": 14400,
      "startSeconds": 10.875,
      "durationSeconds": 0.375,
      "endSeconds": 11.25,
      "velocity": 0.8,
      "bendActive": true,
      "instrument": 0
    },
    {
      "id": "id_08p9fed8ymnv3kmnt",
      "pitch": 61,
      "pitchName": "C#4",
      "frequencyHz": 277.182631,
      "startTick": 13920,
      "durationTicks": 480,
      "endTick": 14400,
      "startSeconds": 10.875,
      "durationSeconds": 0.375,
      "endSeconds": 11.25,
      "velocity": 0.32,
      "bendActive": true,
      "instrument": 1
    },
    {
      "id": "id_naz417rermnv3kmnt",
      "pitch": 40,
      "pitchName": "E2",
      "frequencyHz": 82.406889,
      "startTick": 14400,
      "durationTicks": 960,
      "endTick": 15360,
      "startSeconds": 11.25,
      "durationSeconds": 0.75,
      "endSeconds": 12,
      "velocity": 0.8,
      "bendActive": true,
      "instrument": 0
    },
    {
      "id": "id_uvuvlcd5omnv3kmnt",
      "pitch": 47,
      "pitchName": "B2",
      "frequencyHz": 123.470825,
      "startTick": 14400,
      "durationTicks": 960,
      "endTick": 15360,
      "startSeconds": 11.25,
      "durationSeconds": 0.75,
      "endSeconds": 12,
      "velocity": 0.8,
      "bendActive": true,
      "instrument": 0
    },
    {
      "id": "id_2v3829dximnv3kmnt",
      "pitch": 59,
      "pitchName": "B3",
      "frequencyHz": 246.941651,
      "startTick": 14400,
      "durationTicks": 1440,
      "endTick": 15840,
      "startSeconds": 11.25,
      "durationSeconds": 1.125,
      "endSeconds": 12.375,
      "velocity": 0.32,
      "bendActive": true,
      "instrument": 1
    },
    {
      "id": "id_q0xqg4g15mnv3kmnt",
      "pitch": 42,
      "pitchName": "F#2",
      "frequencyHz": 92.498606,
      "startTick": 15840,
      "durationTicks": 960,
      "endTick": 16800,
      "startSeconds": 12.375,
      "durationSeconds": 0.75,
      "endSeconds": 13.125,
      "velocity": 0.8,
      "bendActive": true,
      "instrument": 0
    },
    {
      "id": "id_l4w8u3a3lmnv3kmnt",
      "pitch": 58,
      "pitchName": "A#3",
      "frequencyHz": 233.081881,
      "startTick": 15840,
      "durationTicks": 480,
      "endTick": 16320,
      "startSeconds": 12.375,
      "durationSeconds": 0.375,
      "endSeconds": 12.75,
      "velocity": 0.8,
      "bendActive": true,
      "instrument": 0
    },
    {
      "id": "id_twevf1bvqmnv3kmnt",
      "pitch": 64,
      "pitchName": "E4",
      "frequencyHz": 329.627557,
      "startTick": 15840,
      "durationTicks": 480,
      "endTick": 16320,
      "startSeconds": 12.375,
      "durationSeconds": 0.375,
      "endSeconds": 12.75,
      "velocity": 0.32,
      "bendActive": true,
      "instrument": 1
    },
    {
      "id": "id_g1m01tn88mnv3kmnt",
      "pitch": 56,
      "pitchName": "G#3",
      "frequencyHz": 207.652349,
      "startTick": 16320,
      "durationTicks": 480,
      "endTick": 16800,
      "startSeconds": 12.75,
      "durationSeconds": 0.375,
      "endSeconds": 13.125,
      "velocity": 0.8,
      "bendActive": true,
      "instrument": 0
    },
    {
      "id": "id_ccbh49delmnv3kmnt",
      "pitch": 63,
      "pitchName": "D#4",
      "frequencyHz": 311.126984,
      "startTick": 16320,
      "durationTicks": 480,
      "endTick": 16800,
      "startSeconds": 12.75,
      "durationSeconds": 0.375,
      "endSeconds": 13.125,
      "velocity": 0.32,
      "bendActive": true,
      "instrument": 1
    },
    {
      "id": "id_6b7td0my8mnv3kmnt",
      "pitch": 51,
      "pitchName": "D#3",
      "frequencyHz": 155.563492,
      "startTick": 16800,
      "durationTicks": 480,
      "endTick": 17280,
      "startSeconds": 13.125,
      "durationSeconds": 0.375,
      "endSeconds": 13.5,
      "velocity": 0.8,
      "bendActive": false,
      "instrument": 0
    },
    {
      "id": "id_979bw8jcgmnv3kmnt",
      "pitch": 61,
      "pitchName": "C#4",
      "frequencyHz": 277.182631,
      "startTick": 16800,
      "durationTicks": 2880,
      "endTick": 19680,
      "startSeconds": 13.125,
      "durationSeconds": 2.25,
      "endSeconds": 15.375,
      "velocity": 0.32,
      "bendActive": true,
      "instrument": 1
    },
    {
      "id": "id_0afw6hjrvmnv3kmnt",
      "pitch": 44,
      "pitchName": "G#2",
      "frequencyHz": 103.826174,
      "startTick": 17280,
      "durationTicks": 2400,
      "endTick": 19680,
      "startSeconds": 13.5,
      "durationSeconds": 1.875,
      "endSeconds": 15.375,
      "velocity": 0.8,
      "bendActive": false,
      "instrument": 0
    },
    {
      "id": "id_a2fnh4q5amnv3kmnt",
      "pitch": 61,
      "pitchName": "C#4",
      "frequencyHz": 277.182631,
      "startTick": 20160,
      "durationTicks": 960,
      "endTick": 21120,
      "startSeconds": 15.75,
      "durationSeconds": 0.75,
      "endSeconds": 16.5,
      "velocity": 0.8,
      "bendActive": true,
      "instrument": 0
    },
    {
      "id": "id_orrvgmg6jmnv3kmnt",
      "pitch": 54,
      "pitchName": "F#3",
      "frequencyHz": 184.997211,
      "startTick": 21120,
      "durationTicks": 480,
      "endTick": 21600,
      "startSeconds": 16.5,
      "durationSeconds": 0.375,
      "endSeconds": 16.875,
      "velocity": 0.8,
      "bendActive": true,
      "instrument": 0
    },
    {
      "id": "id_cgl33iya0mnv3kmnt",
      "pitch": 58,
      "pitchName": "A#3",
      "frequencyHz": 233.081881,
      "startTick": 21600,
      "durationTicks": 960,
      "endTick": 22560,
      "startSeconds": 16.875,
      "durationSeconds": 0.75,
      "endSeconds": 17.625,
      "velocity": 0.8,
      "bendActive": true,
      "instrument": 0
    },
    {
      "id": "id_dnwmse9xymnv3kmnt",
      "pitch": 49,
      "pitchName": "C#3",
      "frequencyHz": 138.591315,
      "startTick": 22560,
      "durationTicks": 480,
      "endTick": 23040,
      "startSeconds": 17.625,
      "durationSeconds": 0.375,
      "endSeconds": 18,
      "velocity": 0.8,
      "bendActive": true,
      "instrument": 0
    },
    {
      "id": "id_yukzg218pmnv3kmnt",
      "pitch": 44,
      "pitchName": "G#2",
      "frequencyHz": 103.826174,
      "startTick": 23040,
      "durationTicks": 2400,
      "endTick": 25440,
      "startSeconds": 18,
      "durationSeconds": 1.875,
      "endSeconds": 19.875,
      "velocity": 0.8,
      "bendActive": true,
      "instrument": 0
    },
    {
      "id": "id_eurhcnk7dmnv3kmnt",
      "pitch": 51,
      "pitchName": "D#3",
      "frequencyHz": 155.563492,
      "startTick": 23040,
      "durationTicks": 2400,
      "endTick": 25440,
      "startSeconds": 18,
      "durationSeconds": 1.875,
      "endSeconds": 19.875,
      "velocity": 0.8,
      "bendActive": true,
      "instrument": 0
    },
    {
      "id": "id_jt7hqu38ymnv3kmnt",
      "pitch": 66,
      "pitchName": "F#4",
      "frequencyHz": 369.994423,
      "startTick": 23040,
      "durationTicks": 2880,
      "endTick": 25920,
      "startSeconds": 18,
      "durationSeconds": 2.25,
      "endSeconds": 20.25,
      "velocity": 0.32,
      "bendActive": true,
      "instrument": 1
    },
    {
      "id": "id_qr5ex81srmnv3kmnt",
      "pitch": 59,
      "pitchName": "B3",
      "frequencyHz": 246.941651,
      "startTick": 25920,
      "durationTicks": 2400,
      "endTick": 28320,
      "startSeconds": 20.25,
      "durationSeconds": 1.875,
      "endSeconds": 22.125,
      "velocity": 0.8,
      "bendActive": true,
      "instrument": 0
    },
    {
      "id": "id_2rytxx7vymnv3kmnt",
      "pitch": 66,
      "pitchName": "F#4",
      "frequencyHz": 369.994423,
      "startTick": 25920,
      "durationTicks": 2880,
      "endTick": 28800,
      "startSeconds": 20.25,
      "durationSeconds": 2.25,
      "endSeconds": 22.5,
      "velocity": 0.32,
      "bendActive": true,
      "instrument": 1
    },
    {
      "id": "id_lrkfey8f2mnv3kmnt",
      "pitch": 66,
      "pitchName": "F#4",
      "frequencyHz": 369.994423,
      "startTick": 25920,
      "durationTicks": 2400,
      "endTick": 28320,
      "startSeconds": 20.25,
      "durationSeconds": 1.875,
      "endSeconds": 22.125,
      "velocity": 0.8,
      "bendActive": true,
      "instrument": 0
    },
    {
      "id": "id_w04p69mmpmnv3kmnt",
      "pitch": 44,
      "pitchName": "G#2",
      "frequencyHz": 103.826174,
      "startTick": 28800,
      "durationTicks": 2400,
      "endTick": 31200,
      "startSeconds": 22.5,
      "durationSeconds": 1.875,
      "endSeconds": 24.375,
      "velocity": 0.8,
      "bendActive": true,
      "instrument": 0
    },
    {
      "id": "id_44bf64nhmmnv3kmnt",
      "pitch": 51,
      "pitchName": "D#3",
      "frequencyHz": 155.563492,
      "startTick": 28800,
      "durationTicks": 2400,
      "endTick": 31200,
      "startSeconds": 22.5,
      "durationSeconds": 1.875,
      "endSeconds": 24.375,
      "velocity": 0.8,
      "bendActive": true,
      "instrument": 0
    },
    {
      "id": "id_x3sylwc5ymnv3kmnt",
      "pitch": 66,
      "pitchName": "F#4",
      "frequencyHz": 369.994423,
      "startTick": 28800,
      "durationTicks": 2880,
      "endTick": 31680,
      "startSeconds": 22.5,
      "durationSeconds": 2.25,
      "endSeconds": 24.75,
      "velocity": 0.32,
      "bendActive": true,
      "instrument": 1
    },
    {
      "id": "id_v17jg03f1mnv3kmnt",
      "pitch": 61,
      "pitchName": "C#4",
      "frequencyHz": 277.182631,
      "startTick": 31680,
      "durationTicks": 2400,
      "endTick": 34080,
      "startSeconds": 24.75,
      "durationSeconds": 1.875,
      "endSeconds": 26.625,
      "velocity": 0.8,
      "bendActive": true,
      "instrument": 0
    },
    {
      "id": "id_wsrejnkxamnv3kmnt",
      "pitch": 68,
      "pitchName": "G#4",
      "frequencyHz": 415.304698,
      "startTick": 31680,
      "durationTicks": 2880,
      "endTick": 34560,
      "startSeconds": 24.75,
      "durationSeconds": 2.25,
      "endSeconds": 27,
      "velocity": 0.32,
      "bendActive": true,
      "instrument": 1
    },
    {
      "id": "id_b92bcaaoumnv3kmnt",
      "pitch": 68,
      "pitchName": "G#4",
      "frequencyHz": 415.304698,
      "startTick": 31680,
      "durationTicks": 2400,
      "endTick": 34080,
      "startSeconds": 24.75,
      "durationSeconds": 1.875,
      "endSeconds": 26.625,
      "velocity": 0.8,
      "bendActive": true,
      "instrument": 0
    },
    {
      "id": "id_60w2s64nhmnv3kmnt",
      "pitch": 37,
      "pitchName": "C#2",
      "frequencyHz": 69.295658,
      "startTick": 34560,
      "durationTicks": 1440,
      "endTick": 36000,
      "startSeconds": 27,
      "durationSeconds": 1.125,
      "endSeconds": 28.125,
      "velocity": 0.8,
      "bendActive": true,
      "instrument": 0
    },
    {
      "id": "id_7x3y6b38xmnv3kmnt",
      "pitch": 64,
      "pitchName": "E4",
      "frequencyHz": 329.627557,
      "startTick": 34560,
      "durationTicks": 1440,
      "endTick": 36000,
      "startSeconds": 27,
      "durationSeconds": 1.125,
      "endSeconds": 28.125,
      "velocity": 0.8,
      "bendActive": true,
      "instrument": 0
    },
    {
      "id": "id_dlvpi8fqgmnv3kmnt",
      "pitch": 71,
      "pitchName": "B4",
      "frequencyHz": 493.883301,
      "startTick": 34560,
      "durationTicks": 1440,
      "endTick": 36000,
      "startSeconds": 27,
      "durationSeconds": 1.125,
      "endSeconds": 28.125,
      "velocity": 0.8,
      "bendActive": true,
      "instrument": 0
    },
    {
      "id": "id_6777njgq3mnv3kmnt",
      "pitch": 71,
      "pitchName": "B4",
      "frequencyHz": 493.883301,
      "startTick": 34560,
      "durationTicks": 1440,
      "endTick": 36000,
      "startSeconds": 27,
      "durationSeconds": 1.125,
      "endSeconds": 28.125,
      "velocity": 0.32,
      "bendActive": true,
      "instrument": 1
    },
    {
      "id": "id_6eh5g55bhmnv3kmnt",
      "pitch": 59,
      "pitchName": "B3",
      "frequencyHz": 246.941651,
      "startTick": 36000,
      "durationTicks": 480,
      "endTick": 36480,
      "startSeconds": 28.125,
      "durationSeconds": 0.375,
      "endSeconds": 28.5,
      "velocity": 0.8,
      "bendActive": true,
      "instrument": 0
    },
    {
      "id": "id_4hx0omgeamnv3kmnt",
      "pitch": 66,
      "pitchName": "F#4",
      "frequencyHz": 369.994423,
      "startTick": 36000,
      "durationTicks": 480,
      "endTick": 36480,
      "startSeconds": 28.125,
      "durationSeconds": 0.375,
      "endSeconds": 28.5,
      "velocity": 0.32,
      "bendActive": true,
      "instrument": 1
    },
    {
      "id": "id_5z8s18dz3mnv3kmnt",
      "pitch": 66,
      "pitchName": "F#4",
      "frequencyHz": 369.994423,
      "startTick": 36000,
      "durationTicks": 480,
      "endTick": 36480,
      "startSeconds": 28.125,
      "durationSeconds": 0.375,
      "endSeconds": 28.5,
      "velocity": 0.8,
      "bendActive": true,
      "instrument": 0
    },
    {
      "id": "id_azptrkth9mnv3kmnt",
      "pitch": 56,
      "pitchName": "G#3",
      "frequencyHz": 207.652349,
      "startTick": 36480,
      "durationTicks": 480,
      "endTick": 36960,
      "startSeconds": 28.5,
      "durationSeconds": 0.375,
      "endSeconds": 28.875,
      "velocity": 0.8,
      "bendActive": true,
      "instrument": 0
    },
    {
      "id": "id_rwenuir99mnv3kmnt",
      "pitch": 64,
      "pitchName": "E4",
      "frequencyHz": 329.627557,
      "startTick": 36480,
      "durationTicks": 480,
      "endTick": 36960,
      "startSeconds": 28.5,
      "durationSeconds": 0.375,
      "endSeconds": 28.875,
      "velocity": 0.32,
      "bendActive": true,
      "instrument": 1
    },
    {
      "id": "id_rx7yf60e5mnv3kmnt",
      "pitch": 64,
      "pitchName": "E4",
      "frequencyHz": 329.627557,
      "startTick": 36480,
      "durationTicks": 480,
      "endTick": 36960,
      "startSeconds": 28.5,
      "durationSeconds": 0.375,
      "endSeconds": 28.875,
      "velocity": 0.8,
      "bendActive": true,
      "instrument": 0
    },
    {
      "id": "id_tftyjt59ymnv3kmnt",
      "pitch": 54,
      "pitchName": "F#3",
      "frequencyHz": 184.997211,
      "startTick": 36960,
      "durationTicks": 480,
      "endTick": 37440,
      "startSeconds": 28.875,
      "durationSeconds": 0.375,
      "endSeconds": 29.25,
      "velocity": 0.8,
      "bendActive": true,
      "instrument": 0
    },
    {
      "id": "id_82wy89x4wmnv3kmnt",
      "pitch": 63,
      "pitchName": "D#4",
      "frequencyHz": 311.126984,
      "startTick": 36960,
      "durationTicks": 480,
      "endTick": 37440,
      "startSeconds": 28.875,
      "durationSeconds": 0.375,
      "endSeconds": 29.25,
      "velocity": 0.32,
      "bendActive": true,
      "instrument": 1
    },
    {
      "id": "id_2wuhbdabwmnv3kmnt",
      "pitch": 63,
      "pitchName": "D#4",
      "frequencyHz": 311.126984,
      "startTick": 36960,
      "durationTicks": 480,
      "endTick": 37440,
      "startSeconds": 28.875,
      "durationSeconds": 0.375,
      "endSeconds": 29.25,
      "velocity": 0.8,
      "bendActive": true,
      "instrument": 0
    },
    {
      "id": "id_n6hrse0gfmnv3kmnt",
      "pitch": 40,
      "pitchName": "E2",
      "frequencyHz": 82.406889,
      "startTick": 37440,
      "durationTicks": 1200,
      "endTick": 38640,
      "startSeconds": 29.25,
      "durationSeconds": 0.938,
      "endSeconds": 30.188,
      "velocity": 0.8,
      "bendActive": true,
      "instrument": 0
    },
    {
      "id": "id_j66t9gzfpmnv3kmnt",
      "pitch": 47,
      "pitchName": "B2",
      "frequencyHz": 123.470825,
      "startTick": 37440,
      "durationTicks": 1200,
      "endTick": 38640,
      "startSeconds": 29.25,
      "durationSeconds": 0.938,
      "endSeconds": 30.188,
      "velocity": 0.8,
      "bendActive": true,
      "instrument": 0
    },
    {
      "id": "id_3rvqrm0inmnv3kmnt",
      "pitch": 56,
      "pitchName": "G#3",
      "frequencyHz": 207.652349,
      "startTick": 37440,
      "durationTicks": 1200,
      "endTick": 38640,
      "startSeconds": 29.25,
      "durationSeconds": 0.938,
      "endSeconds": 30.188,
      "velocity": 0.8,
      "bendActive": true,
      "instrument": 0
    },
    {
      "id": "id_dwjnee74lmnv3kmnt",
      "pitch": 59,
      "pitchName": "B3",
      "frequencyHz": 246.941651,
      "startTick": 37440,
      "durationTicks": 1440,
      "endTick": 38880,
      "startSeconds": 29.25,
      "durationSeconds": 1.125,
      "endSeconds": 30.375,
      "velocity": 0.32,
      "bendActive": true,
      "instrument": 1
    },
    {
      "id": "id_u0byfx7pymnv3kmnt",
      "pitch": 42,
      "pitchName": "F#2",
      "frequencyHz": 92.498606,
      "startTick": 38880,
      "durationTicks": 960,
      "endTick": 39840,
      "startSeconds": 30.375,
      "durationSeconds": 0.75,
      "endSeconds": 31.125,
      "velocity": 0.8,
      "bendActive": true,
      "instrument": 0
    },
    {
      "id": "id_5y2ggablwmnv3kmnt",
      "pitch": 58,
      "pitchName": "A#3",
      "frequencyHz": 233.081881,
      "startTick": 38880,
      "durationTicks": 480,
      "endTick": 39360,
      "startSeconds": 30.375,
      "durationSeconds": 0.375,
      "endSeconds": 30.75,
      "velocity": 0.8,
      "bendActive": true,
      "instrument": 0
    },
    {
      "id": "id_geqptrw80mnv3kmnt",
      "pitch": 64,
      "pitchName": "E4",
      "frequencyHz": 329.627557,
      "startTick": 38880,
      "durationTicks": 480,
      "endTick": 39360,
      "startSeconds": 30.375,
      "durationSeconds": 0.375,
      "endSeconds": 30.75,
      "velocity": 0.8,
      "bendActive": true,
      "instrument": 0
    },
    {
      "id": "id_f4dipbqigmnv3kmnt",
      "pitch": 64,
      "pitchName": "E4",
      "frequencyHz": 329.627557,
      "startTick": 38880,
      "durationTicks": 480,
      "endTick": 39360,
      "startSeconds": 30.375,
      "durationSeconds": 0.375,
      "endSeconds": 30.75,
      "velocity": 0.32,
      "bendActive": true,
      "instrument": 1
    },
    {
      "id": "id_krlzod31emnv3kmnt",
      "pitch": 56,
      "pitchName": "G#3",
      "frequencyHz": 207.652349,
      "startTick": 39360,
      "durationTicks": 480,
      "endTick": 39840,
      "startSeconds": 30.75,
      "durationSeconds": 0.375,
      "endSeconds": 31.125,
      "velocity": 0.8,
      "bendActive": true,
      "instrument": 0
    },
    {
      "id": "id_xh9aive1hmnv3kmnt",
      "pitch": 63,
      "pitchName": "D#4",
      "frequencyHz": 311.126984,
      "startTick": 39360,
      "durationTicks": 480,
      "endTick": 39840,
      "startSeconds": 30.75,
      "durationSeconds": 0.375,
      "endSeconds": 31.125,
      "velocity": 0.8,
      "bendActive": true,
      "instrument": 0
    },
    {
      "id": "id_btrwkli3pmnv3kmnt",
      "pitch": 63,
      "pitchName": "D#4",
      "frequencyHz": 311.126984,
      "startTick": 39360,
      "durationTicks": 480,
      "endTick": 39840,
      "startSeconds": 30.75,
      "durationSeconds": 0.375,
      "endSeconds": 31.125,
      "velocity": 0.32,
      "bendActive": true,
      "instrument": 1
    },
    {
      "id": "id_jjvxpy8tdmnv3kmnt",
      "pitch": 51,
      "pitchName": "D#3",
      "frequencyHz": 155.563492,
      "startTick": 39840,
      "durationTicks": 480,
      "endTick": 40320,
      "startSeconds": 31.125,
      "durationSeconds": 0.375,
      "endSeconds": 31.5,
      "velocity": 0.8,
      "bendActive": true,
      "instrument": 0
    },
    {
      "id": "id_t0csn7l3cmnv3kmnt",
      "pitch": 59,
      "pitchName": "B3",
      "frequencyHz": 246.941651,
      "startTick": 39840,
      "durationTicks": 480,
      "endTick": 40320,
      "startSeconds": 31.125,
      "durationSeconds": 0.375,
      "endSeconds": 31.5,
      "velocity": 0.8,
      "bendActive": true,
      "instrument": 0
    },
    {
      "id": "id_5148yy1xzmnv3kmnt",
      "pitch": 71,
      "pitchName": "B4",
      "frequencyHz": 493.883301,
      "startTick": 39840,
      "durationTicks": 480,
      "endTick": 40320,
      "startSeconds": 31.125,
      "durationSeconds": 0.375,
      "endSeconds": 31.5,
      "velocity": 0.32,
      "bendActive": true,
      "instrument": 1
    },
    {
      "id": "id_s48qvll6wmnv3kmnt",
      "pitch": 44,
      "pitchName": "G#2",
      "frequencyHz": 103.826174,
      "startTick": 40320,
      "durationTicks": 2640,
      "endTick": 42960,
      "startSeconds": 31.5,
      "durationSeconds": 2.063,
      "endSeconds": 33.563,
      "velocity": 0.8,
      "bendActive": true,
      "instrument": 0
    },
    {
      "id": "id_c9wrpo4rymnv3kmnt",
      "pitch": 51,
      "pitchName": "D#3",
      "frequencyHz": 155.563492,
      "startTick": 40320,
      "durationTicks": 2640,
      "endTick": 42960,
      "startSeconds": 31.5,
      "durationSeconds": 2.063,
      "endSeconds": 33.563,
      "velocity": 0.8,
      "bendActive": true,
      "instrument": 0
    },
    {
      "id": "id_1zhhe4lu2mnv3kmnt",
      "pitch": 56,
      "pitchName": "G#3",
      "frequencyHz": 207.652349,
      "startTick": 40320,
      "durationTicks": 2640,
      "endTick": 42960,
      "startSeconds": 31.5,
      "durationSeconds": 2.063,
      "endSeconds": 33.563,
      "velocity": 0.8,
      "bendActive": true,
      "instrument": 0
    },
    {
      "id": "id_y0g5rg5xnmnv3kmnt",
      "pitch": 75,
      "pitchName": "D#5",
      "frequencyHz": 622.253967,
      "startTick": 40320,
      "durationTicks": 3840,
      "endTick": 44160,
      "startSeconds": 31.5,
      "durationSeconds": 3,
      "endSeconds": 34.5,
      "velocity": 0.32,
      "bendActive": true,
      "instrument": 1
    },
    {
      "id": "id_4itgkfjrtmnv3kmnt",
      "pitch": 61,
      "pitchName": "C#4",
      "frequencyHz": 277.182631,
      "startTick": 43200,
      "durationTicks": 960,
      "endTick": 44160,
      "startSeconds": 33.75,
      "durationSeconds": 0.75,
      "endSeconds": 34.5,
      "velocity": 0.8,
      "bendActive": true,
      "instrument": 0
    },
    {
      "id": "id_leb7uq31amnv3kmnt",
      "pitch": 54,
      "pitchName": "F#3",
      "frequencyHz": 184.997211,
      "startTick": 44160,
      "durationTicks": 480,
      "endTick": 44640,
      "startSeconds": 34.5,
      "durationSeconds": 0.375,
      "endSeconds": 34.875,
      "velocity": 0.8,
      "bendActive": true,
      "instrument": 0
    },
    {
      "id": "id_gr2v50ousmnv3kmnt",
      "pitch": 73,
      "pitchName": "C#5",
      "frequencyHz": 554.365262,
      "startTick": 44160,
      "durationTicks": 480,
      "endTick": 44640,
      "startSeconds": 34.5,
      "durationSeconds": 0.375,
      "endSeconds": 34.875,
      "velocity": 0.32,
      "bendActive": true,
      "instrument": 1
    },
    {
      "id": "id_hh8hhkrzpmnv3kmnt",
      "pitch": 58,
      "pitchName": "A#3",
      "frequencyHz": 233.081881,
      "startTick": 44640,
      "durationTicks": 960,
      "endTick": 45600,
      "startSeconds": 34.875,
      "durationSeconds": 0.75,
      "endSeconds": 35.625,
      "velocity": 0.8,
      "bendActive": true,
      "instrument": 0
    },
    {
      "id": "id_1chl2wduamnv3kmnt",
      "pitch": 75,
      "pitchName": "D#5",
      "frequencyHz": 622.253967,
      "startTick": 44640,
      "durationTicks": 1440,
      "endTick": 46080,
      "startSeconds": 34.875,
      "durationSeconds": 1.125,
      "endSeconds": 36,
      "velocity": 0.32,
      "bendActive": true,
      "instrument": 1
    },
    {
      "id": "id_owmrekkuvmnv3kmnt",
      "pitch": 49,
      "pitchName": "C#3",
      "frequencyHz": 138.591315,
      "startTick": 45600,
      "durationTicks": 480,
      "endTick": 46080,
      "startSeconds": 35.625,
      "durationSeconds": 0.375,
      "endSeconds": 36,
      "velocity": 0.8,
      "bendActive": true,
      "instrument": 0
    },
    {
      "id": "id_kc71e238tmnv3kmnt",
      "pitch": 40,
      "pitchName": "E2",
      "frequencyHz": 82.406889,
      "startTick": 46080,
      "durationTicks": 1440,
      "endTick": 47520,
      "startSeconds": 36,
      "durationSeconds": 1.125,
      "endSeconds": 37.125,
      "velocity": 0.8,
      "bendActive": true,
      "instrument": 0
    },
    {
      "id": "id_xb12klujimnv3kmnt",
      "pitch": 56,
      "pitchName": "G#3",
      "frequencyHz": 207.652349,
      "startTick": 46080,
      "durationTicks": 1440,
      "endTick": 47520,
      "startSeconds": 36,
      "durationSeconds": 1.125,
      "endSeconds": 37.125,
      "velocity": 0.8,
      "bendActive": true,
      "instrument": 0
    },
    {
      "id": "id_83f0eowcmmnv3kmnt",
      "pitch": 71,
      "pitchName": "B4",
      "frequencyHz": 493.883301,
      "startTick": 46080,
      "durationTicks": 1440,
      "endTick": 47520,
      "startSeconds": 36,
      "durationSeconds": 1.125,
      "endSeconds": 37.125,
      "velocity": 0.32,
      "bendActive": true,
      "instrument": 1
    },
    {
      "id": "id_o8z49zu05mnv3kmnt",
      "pitch": 58,
      "pitchName": "A#3",
      "frequencyHz": 233.081881,
      "startTick": 47520,
      "durationTicks": 960,
      "endTick": 48480,
      "startSeconds": 37.125,
      "durationSeconds": 0.75,
      "endSeconds": 37.875,
      "velocity": 0.8,
      "bendActive": true,
      "instrument": 0
    },
    {
      "id": "id_bbfrbzy7kmnv3kmnt",
      "pitch": 73,
      "pitchName": "C#5",
      "frequencyHz": 554.365262,
      "startTick": 47520,
      "durationTicks": 480,
      "endTick": 48000,
      "startSeconds": 37.125,
      "durationSeconds": 0.375,
      "endSeconds": 37.5,
      "velocity": 0.32,
      "bendActive": true,
      "instrument": 1
    },
    {
      "id": "id_bwwr8kq1imnv3kmnt",
      "pitch": 74,
      "pitchName": "D5",
      "frequencyHz": 587.329536,
      "startTick": 48000,
      "durationTicks": 480,
      "endTick": 48480,
      "startSeconds": 37.5,
      "durationSeconds": 0.375,
      "endSeconds": 37.875,
      "velocity": 0.32,
      "bendActive": true,
      "instrument": 1
    },
    {
      "id": "id_zxx6rfbnhmnv3kmnt",
      "pitch": 49,
      "pitchName": "C#3",
      "frequencyHz": 138.591315,
      "startTick": 48480,
      "durationTicks": 480,
      "endTick": 48960,
      "startSeconds": 37.875,
      "durationSeconds": 0.375,
      "endSeconds": 38.25,
      "velocity": 0.8,
      "bendActive": true,
      "instrument": 0
    },
    {
      "id": "id_2x9hl4ypemnv3kmnt",
      "pitch": 68,
      "pitchName": "G#4",
      "frequencyHz": 415.304698,
      "startTick": 48480,
      "durationTicks": 480,
      "endTick": 48960,
      "startSeconds": 37.875,
      "durationSeconds": 0.375,
      "endSeconds": 38.25,
      "velocity": 0.32,
      "bendActive": true,
      "instrument": 1
    },
    {
      "id": "id_v84n43o2mmnv3kmnt",
      "pitch": 40,
      "pitchName": "E2",
      "frequencyHz": 82.406889,
      "startTick": 48960,
      "durationTicks": 1440,
      "endTick": 50400,
      "startSeconds": 38.25,
      "durationSeconds": 1.125,
      "endSeconds": 39.375,
      "velocity": 0.8,
      "bendActive": true,
      "instrument": 0
    },
    {
      "id": "id_5nsvz5iwmmnv3kmnt",
      "pitch": 56,
      "pitchName": "G#3",
      "frequencyHz": 207.652349,
      "startTick": 48960,
      "durationTicks": 1440,
      "endTick": 50400,
      "startSeconds": 38.25,
      "durationSeconds": 1.125,
      "endSeconds": 39.375,
      "velocity": 0.8,
      "bendActive": true,
      "instrument": 0
    },
    {
      "id": "id_r69evc6tmmnv3kmnt",
      "pitch": 71,
      "pitchName": "B4",
      "frequencyHz": 493.883301,
      "startTick": 48960,
      "durationTicks": 1440,
      "endTick": 50400,
      "startSeconds": 38.25,
      "durationSeconds": 1.125,
      "endSeconds": 39.375,
      "velocity": 0.32,
      "bendActive": true,
      "instrument": 1
    },
    {
      "id": "id_mp1ypsq7emnv3kmnt",
      "pitch": 39,
      "pitchName": "D#2",
      "frequencyHz": 77.781746,
      "startTick": 50400,
      "durationTicks": 1440,
      "endTick": 51840,
      "startSeconds": 39.375,
      "durationSeconds": 1.125,
      "endSeconds": 40.5,
      "velocity": 0.8,
      "bendActive": true,
      "instrument": 0
    },
    {
      "id": "id_v152co6dhmnv3kmnt",
      "pitch": 58,
      "pitchName": "A#3",
      "frequencyHz": 233.081881,
      "startTick": 50400,
      "durationTicks": 960,
      "endTick": 51360,
      "startSeconds": 39.375,
      "durationSeconds": 0.75,
      "endSeconds": 40.125,
      "velocity": 0.8,
      "bendActive": true,
      "instrument": 0
    },
    {
      "id": "id_4niwuhqfpmnv3kmnt",
      "pitch": 73,
      "pitchName": "C#5",
      "frequencyHz": 554.365262,
      "startTick": 50400,
      "durationTicks": 480,
      "endTick": 50880,
      "startSeconds": 39.375,
      "durationSeconds": 0.375,
      "endSeconds": 39.75,
      "velocity": 0.32,
      "bendActive": true,
      "instrument": 1
    },
    {
      "id": "id_fnhyasxwamnv3kmnt",
      "pitch": 74,
      "pitchName": "D5",
      "frequencyHz": 587.329536,
      "startTick": 50880,
      "durationTicks": 480,
      "endTick": 51360,
      "startSeconds": 39.75,
      "durationSeconds": 0.375,
      "endSeconds": 40.125,
      "velocity": 0.32,
      "bendActive": true,
      "instrument": 1
    },
    {
      "id": "id_3586h51hmmnv3kmnt",
      "pitch": 54,
      "pitchName": "F#3",
      "frequencyHz": 184.997211,
      "startTick": 51360,
      "durationTicks": 480,
      "endTick": 51840,
      "startSeconds": 40.125,
      "durationSeconds": 0.375,
      "endSeconds": 40.5,
      "velocity": 0.8,
      "bendActive": true,
      "instrument": 0
    },
    {
      "id": "id_354awrrlzmnv3kmnt",
      "pitch": 70,
      "pitchName": "A#4",
      "frequencyHz": 466.163762,
      "startTick": 51360,
      "durationTicks": 480,
      "endTick": 51840,
      "startSeconds": 40.125,
      "durationSeconds": 0.375,
      "endSeconds": 40.5,
      "velocity": 0.32,
      "bendActive": true,
      "instrument": 1
    },
    {
      "id": "id_w0s5b9va2mnv3kmnt",
      "pitch": 44,
      "pitchName": "G#2",
      "frequencyHz": 103.826174,
      "startTick": 51840,
      "durationTicks": 1440,
      "endTick": 53280,
      "startSeconds": 40.5,
      "durationSeconds": 1.125,
      "endSeconds": 41.625,
      "velocity": 0.8,
      "bendActive": true,
      "instrument": 0
    },
    {
      "id": "id_u15ld05tgmnv3kmnt",
      "pitch": 51,
      "pitchName": "D#3",
      "frequencyHz": 155.563492,
      "startTick": 51840,
      "durationTicks": 1440,
      "endTick": 53280,
      "startSeconds": 40.5,
      "durationSeconds": 1.125,
      "endSeconds": 41.625,
      "velocity": 0.8,
      "bendActive": true,
      "instrument": 0
    },
    {
      "id": "id_qjc9dozcjmnv3kmnt",
      "pitch": 66,
      "pitchName": "F#4",
      "frequencyHz": 369.994423,
      "startTick": 51840,
      "durationTicks": 1440,
      "endTick": 53280,
      "startSeconds": 40.5,
      "durationSeconds": 1.125,
      "endSeconds": 41.625,
      "velocity": 0.32,
      "bendActive": true,
      "instrument": 1
    },
    {
      "id": "id_ulf46gi0smnv3kmnt",
      "pitch": 63,
      "pitchName": "D#4",
      "frequencyHz": 311.126984,
      "startTick": 53280,
      "durationTicks": 1440,
      "endTick": 54720,
      "startSeconds": 41.625,
      "durationSeconds": 1.125,
      "endSeconds": 42.75,
      "velocity": 0.8,
      "bendActive": true,
      "instrument": 0
    },
    {
      "id": "id_o3t217fu7mnv3kmnt",
      "pitch": 72,
      "pitchName": "C5",
      "frequencyHz": 523.251131,
      "startTick": 53280,
      "durationTicks": 1440,
      "endTick": 54720,
      "startSeconds": 41.625,
      "durationSeconds": 1.125,
      "endSeconds": 42.75,
      "velocity": 0.32,
      "bendActive": true,
      "instrument": 1
    },
    {
      "id": "id_1trz71we0mnv3kmnt",
      "pitch": 61,
      "pitchName": "C#4",
      "frequencyHz": 277.182631,
      "startTick": 54720,
      "durationTicks": 1440,
      "endTick": 56160,
      "startSeconds": 42.75,
      "durationSeconds": 1.125,
      "endSeconds": 43.875,
      "velocity": 0.8,
      "bendActive": true,
      "instrument": 0
    },
    {
      "id": "id_v36z1ymlwmnv3kmnt",
      "pitch": 69,
      "pitchName": "A4",
      "frequencyHz": 440,
      "startTick": 54720,
      "durationTicks": 1440,
      "endTick": 56160,
      "startSeconds": 42.75,
      "durationSeconds": 1.125,
      "endSeconds": 43.875,
      "velocity": 0.32,
      "bendActive": true,
      "instrument": 1
    },
    {
      "id": "id_09ke8t3vtmnv3kmnt",
      "pitch": 58,
      "pitchName": "A#3",
      "frequencyHz": 233.081881,
      "startTick": 56160,
      "durationTicks": 960,
      "endTick": 57120,
      "startSeconds": 43.875,
      "durationSeconds": 0.75,
      "endSeconds": 44.625,
      "velocity": 0.8,
      "bendActive": true,
      "instrument": 0
    },
    {
      "id": "id_3rmi96u7rmnv3kmnt",
      "pitch": 73,
      "pitchName": "C#5",
      "frequencyHz": 554.365262,
      "startTick": 56160,
      "durationTicks": 480,
      "endTick": 56640,
      "startSeconds": 43.875,
      "durationSeconds": 0.375,
      "endSeconds": 44.25,
      "velocity": 0.32,
      "bendActive": true,
      "instrument": 1
    },
    {
      "id": "id_v17i0im0hmnv3kmnt",
      "pitch": 74,
      "pitchName": "D5",
      "frequencyHz": 587.329536,
      "startTick": 56640,
      "durationTicks": 480,
      "endTick": 57120,
      "startSeconds": 44.25,
      "durationSeconds": 0.375,
      "endSeconds": 44.625,
      "velocity": 0.32,
      "bendActive": true,
      "instrument": 1
    },
    {
      "id": "id_p8j6u97d1mnv3kmnt",
      "pitch": 49,
      "pitchName": "C#3",
      "frequencyHz": 138.591315,
      "startTick": 57120,
      "durationTicks": 480,
      "endTick": 57600,
      "startSeconds": 44.625,
      "durationSeconds": 0.375,
      "endSeconds": 45,
      "velocity": 0.8,
      "bendActive": true,
      "instrument": 0
    },
    {
      "id": "id_5mxfaf16tmnv3kmnt",
      "pitch": 68,
      "pitchName": "G#4",
      "frequencyHz": 415.304698,
      "startTick": 57120,
      "durationTicks": 480,
      "endTick": 57600,
      "startSeconds": 44.625,
      "durationSeconds": 0.375,
      "endSeconds": 45,
      "velocity": 0.32,
      "bendActive": true,
      "instrument": 1
    },
    {
      "id": "id_3vi9ycsu5mnv3kmnt",
      "pitch": 40,
      "pitchName": "E2",
      "frequencyHz": 82.406889,
      "startTick": 57600,
      "durationTicks": 1440,
      "endTick": 59040,
      "startSeconds": 45,
      "durationSeconds": 1.125,
      "endSeconds": 46.125,
      "velocity": 0.8,
      "bendActive": true,
      "instrument": 0
    },
    {
      "id": "id_xo98l4iq2mnv3kmnt",
      "pitch": 56,
      "pitchName": "G#3",
      "frequencyHz": 207.652349,
      "startTick": 57600,
      "durationTicks": 1440,
      "endTick": 59040,
      "startSeconds": 45,
      "durationSeconds": 1.125,
      "endSeconds": 46.125,
      "velocity": 0.8,
      "bendActive": true,
      "instrument": 0
    },
    {
      "id": "id_530b2k4pfmnv3kmnt",
      "pitch": 71,
      "pitchName": "B4",
      "frequencyHz": 493.883301,
      "startTick": 57600,
      "durationTicks": 1440,
      "endTick": 59040,
      "startSeconds": 45,
      "durationSeconds": 1.125,
      "endSeconds": 46.125,
      "velocity": 0.32,
      "bendActive": true,
      "instrument": 1
    },
    {
      "id": "id_dcy31rhtamnv3kmnt",
      "pitch": 58,
      "pitchName": "A#3",
      "frequencyHz": 233.081881,
      "startTick": 59040,
      "durationTicks": 960,
      "endTick": 60000,
      "startSeconds": 46.125,
      "durationSeconds": 0.75,
      "endSeconds": 46.875,
      "velocity": 0.8,
      "bendActive": true,
      "instrument": 0
    },
    {
      "id": "id_f3h3bqra1mnv3kmnt",
      "pitch": 73,
      "pitchName": "C#5",
      "frequencyHz": 554.365262,
      "startTick": 59040,
      "durationTicks": 480,
      "endTick": 59520,
      "startSeconds": 46.125,
      "durationSeconds": 0.375,
      "endSeconds": 46.5,
      "velocity": 0.32,
      "bendActive": true,
      "instrument": 1
    },
    {
      "id": "id_fft445s4omnv3kmnt",
      "pitch": 74,
      "pitchName": "D5",
      "frequencyHz": 587.329536,
      "startTick": 59520,
      "durationTicks": 480,
      "endTick": 60000,
      "startSeconds": 46.5,
      "durationSeconds": 0.375,
      "endSeconds": 46.875,
      "velocity": 0.32,
      "bendActive": true,
      "instrument": 1
    },
    {
      "id": "id_xpk4wk9grmnv3kmnt",
      "pitch": 49,
      "pitchName": "C#3",
      "frequencyHz": 138.591315,
      "startTick": 60000,
      "durationTicks": 480,
      "endTick": 60480,
      "startSeconds": 46.875,
      "durationSeconds": 0.375,
      "endSeconds": 47.25,
      "velocity": 0.8,
      "bendActive": true,
      "instrument": 0
    },
    {
      "id": "id_g3pim28n5mnv3kmnt",
      "pitch": 68,
      "pitchName": "G#4",
      "frequencyHz": 415.304698,
      "startTick": 60000,
      "durationTicks": 480,
      "endTick": 60480,
      "startSeconds": 46.875,
      "durationSeconds": 0.375,
      "endSeconds": 47.25,
      "velocity": 0.32,
      "bendActive": true,
      "instrument": 1
    },
    {
      "id": "id_trttnqz06mnv3kmnt",
      "pitch": 40,
      "pitchName": "E2",
      "frequencyHz": 82.406889,
      "startTick": 60480,
      "durationTicks": 1440,
      "endTick": 61920,
      "startSeconds": 47.25,
      "durationSeconds": 1.125,
      "endSeconds": 48.375,
      "velocity": 0.8,
      "bendActive": true,
      "instrument": 0
    },
    {
      "id": "id_zcnmln9kkmnv3kmnt",
      "pitch": 56,
      "pitchName": "G#3",
      "frequencyHz": 207.652349,
      "startTick": 60480,
      "durationTicks": 1440,
      "endTick": 61920,
      "startSeconds": 47.25,
      "durationSeconds": 1.125,
      "endSeconds": 48.375,
      "velocity": 0.8,
      "bendActive": true,
      "instrument": 0
    },
    {
      "id": "id_p6gfs8rsemnv3kmnt",
      "pitch": 71,
      "pitchName": "B4",
      "frequencyHz": 493.883301,
      "startTick": 60480,
      "durationTicks": 1440,
      "endTick": 61920,
      "startSeconds": 47.25,
      "durationSeconds": 1.125,
      "endSeconds": 48.375,
      "velocity": 0.32,
      "bendActive": true,
      "instrument": 1
    },
    {
      "id": "id_5szwjci36mnv3kmnt",
      "pitch": 39,
      "pitchName": "D#2",
      "frequencyHz": 77.781746,
      "startTick": 61920,
      "durationTicks": 1440,
      "endTick": 63360,
      "startSeconds": 48.375,
      "durationSeconds": 1.125,
      "endSeconds": 49.5,
      "velocity": 0.8,
      "bendActive": true,
      "instrument": 0
    },
    {
      "id": "id_pymwmss0vmnv3kmnt",
      "pitch": 58,
      "pitchName": "A#3",
      "frequencyHz": 233.081881,
      "startTick": 61920,
      "durationTicks": 960,
      "endTick": 62880,
      "startSeconds": 48.375,
      "durationSeconds": 0.75,
      "endSeconds": 49.125,
      "velocity": 0.8,
      "bendActive": true,
      "instrument": 0
    },
    {
      "id": "id_hoscf98yjmnv3kmnt",
      "pitch": 66,
      "pitchName": "F#4",
      "frequencyHz": 369.994423,
      "startTick": 61920,
      "durationTicks": 960,
      "endTick": 62880,
      "startSeconds": 48.375,
      "durationSeconds": 0.75,
      "endSeconds": 49.125,
      "velocity": 0.32,
      "bendActive": true,
      "instrument": 1
    },
    {
      "id": "id_nvnh7e7qtmnv3kmnt",
      "pitch": 54,
      "pitchName": "F#3",
      "frequencyHz": 184.997211,
      "startTick": 62880,
      "durationTicks": 1920,
      "endTick": 64800,
      "startSeconds": 49.125,
      "durationSeconds": 1.5,
      "endSeconds": 50.625,
      "velocity": 0.8,
      "bendActive": true,
      "instrument": 0
    },
    {
      "id": "id_gkjtxepjtmnv3kmnt",
      "pitch": 63,
      "pitchName": "D#4",
      "frequencyHz": 311.126984,
      "startTick": 62880,
      "durationTicks": 600,
      "endTick": 63480,
      "startSeconds": 49.125,
      "durationSeconds": 0.469,
      "endSeconds": 49.594,
      "velocity": 0.32,
      "bendActive": true,
      "instrument": 1
    },
    {
      "id": "id_vyvy3abwkmnv3kmnt",
      "pitch": 35,
      "pitchName": "B1",
      "frequencyHz": 61.735413,
      "startTick": 63360,
      "durationTicks": 1440,
      "endTick": 64800,
      "startSeconds": 49.5,
      "durationSeconds": 1.125,
      "endSeconds": 50.625,
      "velocity": 0.8,
      "bendActive": true,
      "instrument": 0
    },
    {
      "id": "id_f5pgmtyy5mnv3kmnt",
      "pitch": 62,
      "pitchName": "D4",
      "frequencyHz": 293.664768,
      "startTick": 63480,
      "durationTicks": 1320,
      "endTick": 64800,
      "startSeconds": 49.594,
      "durationSeconds": 1.031,
      "endSeconds": 50.625,
      "velocity": 0.32,
      "bendActive": true,
      "instrument": 1
    },
    {
      "id": "id_sz2oqseqamnv3kmnt",
      "pitch": 47,
      "pitchName": "B2",
      "frequencyHz": 123.470825,
      "startTick": 64800,
      "durationTicks": 1440,
      "endTick": 66240,
      "startSeconds": 50.625,
      "durationSeconds": 1.125,
      "endSeconds": 51.75,
      "velocity": 0.8,
      "bendActive": true,
      "instrument": 0
    },
    {
      "id": "id_4hrczxbi7mnv3kmnt",
      "pitch": 66,
      "pitchName": "F#4",
      "frequencyHz": 369.994423,
      "startTick": 64800,
      "durationTicks": 1440,
      "endTick": 66240,
      "startSeconds": 50.625,
      "durationSeconds": 1.125,
      "endSeconds": 51.75,
      "velocity": 0.8,
      "bendActive": true,
      "instrument": 0
    },
    {
      "id": "id_19kkbik29mnv3kmnt",
      "pitch": 71,
      "pitchName": "B4",
      "frequencyHz": 493.883301,
      "startTick": 64800,
      "durationTicks": 960,
      "endTick": 65760,
      "startSeconds": 50.625,
      "durationSeconds": 0.75,
      "endSeconds": 51.375,
      "velocity": 0.32,
      "bendActive": true,
      "instrument": 1
    },
    {
      "id": "id_u48xp9xbumnv3kmnt",
      "pitch": 74,
      "pitchName": "D5",
      "frequencyHz": 587.329536,
      "startTick": 65760,
      "durationTicks": 480,
      "endTick": 66240,
      "startSeconds": 51.375,
      "durationSeconds": 0.375,
      "endSeconds": 51.75,
      "velocity": 0.32,
      "bendActive": true,
      "instrument": 1
    },
    {
      "id": "id_eustwkvummnv3kmnt",
      "pitch": 42,
      "pitchName": "F#2",
      "frequencyHz": 92.498606,
      "startTick": 66240,
      "durationTicks": 1440,
      "endTick": 67680,
      "startSeconds": 51.75,
      "durationSeconds": 1.125,
      "endSeconds": 52.875,
      "velocity": 0.8,
      "bendActive": true,
      "instrument": 0
    },
    {
      "id": "id_lmmdj57jzmnv3kmnt",
      "pitch": 58,
      "pitchName": "A#3",
      "frequencyHz": 233.081881,
      "startTick": 66240,
      "durationTicks": 1440,
      "endTick": 67680,
      "startSeconds": 51.75,
      "durationSeconds": 1.125,
      "endSeconds": 52.875,
      "velocity": 0.8,
      "bendActive": true,
      "instrument": 0
    },
    {
      "id": "id_k0hhtll6gmnv3kmnt",
      "pitch": 63,
      "pitchName": "D#4",
      "frequencyHz": 311.126984,
      "startTick": 66240,
      "durationTicks": 1440,
      "endTick": 67680,
      "startSeconds": 51.75,
      "durationSeconds": 1.125,
      "endSeconds": 52.875,
      "velocity": 0.8,
      "bendActive": true,
      "instrument": 0
    },
    {
      "id": "id_enz59v9vkmnv3kmnt",
      "pitch": 70,
      "pitchName": "A#4",
      "frequencyHz": 466.163762,
      "startTick": 66240,
      "durationTicks": 1440,
      "endTick": 67680,
      "startSeconds": 51.75,
      "durationSeconds": 1.125,
      "endSeconds": 52.875,
      "velocity": 0.32,
      "bendActive": true,
      "instrument": 1
    },
    {
      "id": "id_nh9aounjrmnv3kmnt",
      "pitch": 46,
      "pitchName": "A#2",
      "frequencyHz": 116.54094,
      "startTick": 67680,
      "durationTicks": 1440,
      "endTick": 69120,
      "startSeconds": 52.875,
      "durationSeconds": 1.125,
      "endSeconds": 54,
      "velocity": 0.8,
      "bendActive": true,
      "instrument": 0
    },
    {
      "id": "id_61ek9ig89mnv3kmnt",
      "pitch": 54,
      "pitchName": "F#3",
      "frequencyHz": 184.997211,
      "startTick": 67680,
      "durationTicks": 1440,
      "endTick": 69120,
      "startSeconds": 52.875,
      "durationSeconds": 1.125,
      "endSeconds": 54,
      "velocity": 0.8,
      "bendActive": true,
      "instrument": 0
    },
    {
      "id": "id_x2sdl7ptfmnv3kmnt",
      "pitch": 61,
      "pitchName": "C#4",
      "frequencyHz": 277.182631,
      "startTick": 67680,
      "durationTicks": 1440,
      "endTick": 69120,
      "startSeconds": 52.875,
      "durationSeconds": 1.125,
      "endSeconds": 54,
      "velocity": 0.8,
      "bendActive": true,
      "instrument": 0
    },
    {
      "id": "id_pw8cmzvsmmnv3kmnt",
      "pitch": 73,
      "pitchName": "C#5",
      "frequencyHz": 554.365262,
      "startTick": 67680,
      "durationTicks": 960,
      "endTick": 68640,
      "startSeconds": 52.875,
      "durationSeconds": 0.75,
      "endSeconds": 53.625,
      "velocity": 0.32,
      "bendActive": true,
      "instrument": 1
    },
    {
      "id": "id_deezh0pbamnv3kmnt",
      "pitch": 75,
      "pitchName": "D#5",
      "frequencyHz": 622.253967,
      "startTick": 68640,
      "durationTicks": 480,
      "endTick": 69120,
      "startSeconds": 53.625,
      "durationSeconds": 0.375,
      "endSeconds": 54,
      "velocity": 0.32,
      "bendActive": true,
      "instrument": 1
    },
    {
      "id": "id_ustn7hutemnv3kmnt",
      "pitch": 40,
      "pitchName": "E2",
      "frequencyHz": 82.406889,
      "startTick": 69120,
      "durationTicks": 1440,
      "endTick": 70560,
      "startSeconds": 54,
      "durationSeconds": 1.125,
      "endSeconds": 55.125,
      "velocity": 0.8,
      "bendActive": true,
      "instrument": 0
    },
    {
      "id": "id_zgwh6o9o2mnv3kmnt",
      "pitch": 47,
      "pitchName": "B2",
      "frequencyHz": 123.470825,
      "startTick": 69120,
      "durationTicks": 1440,
      "endTick": 70560,
      "startSeconds": 54,
      "durationSeconds": 1.125,
      "endSeconds": 55.125,
      "velocity": 0.8,
      "bendActive": true,
      "instrument": 0
    },
    {
      "id": "id_8g9dx59h8mnv3kmnt",
      "pitch": 56,
      "pitchName": "G#3",
      "frequencyHz": 207.652349,
      "startTick": 69120,
      "durationTicks": 1440,
      "endTick": 70560,
      "startSeconds": 54,
      "durationSeconds": 1.125,
      "endSeconds": 55.125,
      "velocity": 0.8,
      "bendActive": true,
      "instrument": 0
    },
    {
      "id": "id_ow7t1keggmnv3kmnt",
      "pitch": 71,
      "pitchName": "B4",
      "frequencyHz": 493.883301,
      "startTick": 69120,
      "durationTicks": 1440,
      "endTick": 70560,
      "startSeconds": 54,
      "durationSeconds": 1.125,
      "endSeconds": 55.125,
      "velocity": 0.32,
      "bendActive": true,
      "instrument": 1
    },
    {
      "id": "id_7i6k6mte9mnv3kmnt",
      "pitch": 58,
      "pitchName": "A#3",
      "frequencyHz": 233.081881,
      "startTick": 70560,
      "durationTicks": 960,
      "endTick": 71520,
      "startSeconds": 55.125,
      "durationSeconds": 0.75,
      "endSeconds": 55.875,
      "velocity": 0.8,
      "bendActive": true,
      "instrument": 0
    },
    {
      "id": "id_62gknqtjgmnv3kmnt",
      "pitch": 73,
      "pitchName": "C#5",
      "frequencyHz": 554.365262,
      "startTick": 70560,
      "durationTicks": 480,
      "endTick": 71040,
      "startSeconds": 55.125,
      "durationSeconds": 0.375,
      "endSeconds": 55.5,
      "velocity": 0.32,
      "bendActive": true,
      "instrument": 1
    },
    {
      "id": "id_tghsevxcfmnv3kmnt",
      "pitch": 74,
      "pitchName": "D5",
      "frequencyHz": 587.329536,
      "startTick": 71040,
      "durationTicks": 480,
      "endTick": 71520,
      "startSeconds": 55.5,
      "durationSeconds": 0.375,
      "endSeconds": 55.875,
      "velocity": 0.32,
      "bendActive": true,
      "instrument": 1
    },
    {
      "id": "id_iygxb7j7pmnv3kmnt",
      "pitch": 49,
      "pitchName": "C#3",
      "frequencyHz": 138.591315,
      "startTick": 71520,
      "durationTicks": 480,
      "endTick": 72000,
      "startSeconds": 55.875,
      "durationSeconds": 0.375,
      "endSeconds": 56.25,
      "velocity": 0.8,
      "bendActive": true,
      "instrument": 0
    },
    {
      "id": "id_t9677zh9omnv3kmnt",
      "pitch": 78,
      "pitchName": "F#5",
      "frequencyHz": 739.988845,
      "startTick": 71520,
      "durationTicks": 480,
      "endTick": 72000,
      "startSeconds": 55.875,
      "durationSeconds": 0.375,
      "endSeconds": 56.25,
      "velocity": 0.32,
      "bendActive": true,
      "instrument": 1
    },
    {
      "id": "id_o5jm40b0ymnv3kmnt",
      "pitch": 40,
      "pitchName": "E2",
      "frequencyHz": 82.406889,
      "startTick": 72000,
      "durationTicks": 1440,
      "endTick": 73440,
      "startSeconds": 56.25,
      "durationSeconds": 1.125,
      "endSeconds": 57.375,
      "velocity": 0.8,
      "bendActive": true,
      "instrument": 0
    },
    {
      "id": "id_q8ztuymjrmnv3kmnt",
      "pitch": 56,
      "pitchName": "G#3",
      "frequencyHz": 207.652349,
      "startTick": 72000,
      "durationTicks": 1440,
      "endTick": 73440,
      "startSeconds": 56.25,
      "durationSeconds": 1.125,
      "endSeconds": 57.375,
      "velocity": 0.8,
      "bendActive": true,
      "instrument": 0
    },
    {
      "id": "id_0nxq7hd64mnv3kmnt",
      "pitch": 71,
      "pitchName": "B4",
      "frequencyHz": 493.883301,
      "startTick": 72000,
      "durationTicks": 1440,
      "endTick": 73440,
      "startSeconds": 56.25,
      "durationSeconds": 1.125,
      "endSeconds": 57.375,
      "velocity": 0.32,
      "bendActive": true,
      "instrument": 1
    },
    {
      "id": "id_qkqgl9jfymnv3kmnt",
      "pitch": 39,
      "pitchName": "D#2",
      "frequencyHz": 77.781746,
      "startTick": 73440,
      "durationTicks": 1440,
      "endTick": 74880,
      "startSeconds": 57.375,
      "durationSeconds": 1.125,
      "endSeconds": 58.5,
      "velocity": 0.8,
      "bendActive": true,
      "instrument": 0
    },
    {
      "id": "id_4qhdf28xcmnv3kmnt",
      "pitch": 58,
      "pitchName": "A#3",
      "frequencyHz": 233.081881,
      "startTick": 73440,
      "durationTicks": 960,
      "endTick": 74400,
      "startSeconds": 57.375,
      "durationSeconds": 0.75,
      "endSeconds": 58.125,
      "velocity": 0.8,
      "bendActive": true,
      "instrument": 0
    },
    {
      "id": "id_rncoerfe3mnv3kmnt",
      "pitch": 73,
      "pitchName": "C#5",
      "frequencyHz": 554.365262,
      "startTick": 73440,
      "durationTicks": 480,
      "endTick": 73920,
      "startSeconds": 57.375,
      "durationSeconds": 0.375,
      "endSeconds": 57.75,
      "velocity": 0.32,
      "bendActive": true,
      "instrument": 1
    },
    {
      "id": "id_hxh71ghtmmnv3kmnt",
      "pitch": 74,
      "pitchName": "D5",
      "frequencyHz": 587.329536,
      "startTick": 73920,
      "durationTicks": 480,
      "endTick": 74400,
      "startSeconds": 57.75,
      "durationSeconds": 0.375,
      "endSeconds": 58.125,
      "velocity": 0.32,
      "bendActive": true,
      "instrument": 1
    },
    {
      "id": "id_zq62z9igtmnv3kmnt",
      "pitch": 61,
      "pitchName": "C#4",
      "frequencyHz": 277.182631,
      "startTick": 74400,
      "durationTicks": 480,
      "endTick": 74880,
      "startSeconds": 58.125,
      "durationSeconds": 0.375,
      "endSeconds": 58.5,
      "velocity": 0.8,
      "bendActive": true,
      "instrument": 0
    },
    {
      "id": "id_25c6xpe7fmnv3kmnt",
      "pitch": 78,
      "pitchName": "F#5",
      "frequencyHz": 739.988845,
      "startTick": 74400,
      "durationTicks": 480,
      "endTick": 74880,
      "startSeconds": 58.125,
      "durationSeconds": 0.375,
      "endSeconds": 58.5,
      "velocity": 0.32,
      "bendActive": true,
      "instrument": 1
    },
    {
      "id": "id_syuz0yb3imnv3kmnt",
      "pitch": 36,
      "pitchName": "C2",
      "frequencyHz": 65.406391,
      "startTick": 74880,
      "durationTicks": 1440,
      "endTick": 76320,
      "startSeconds": 58.5,
      "durationSeconds": 1.125,
      "endSeconds": 59.625,
      "velocity": 0.8,
      "bendActive": true,
      "instrument": 0
    },
    {
      "id": "id_fywcpay2ymnv3kmnt",
      "pitch": 48,
      "pitchName": "C3",
      "frequencyHz": 130.812783,
      "startTick": 74880,
      "durationTicks": 1440,
      "endTick": 76320,
      "startSeconds": 58.5,
      "durationSeconds": 1.125,
      "endSeconds": 59.625,
      "velocity": 0.8,
      "bendActive": true,
      "instrument": 0
    },
    {
      "id": "id_fk90zouygmnv3kmnt",
      "pitch": 63,
      "pitchName": "D#4",
      "frequencyHz": 311.126984,
      "startTick": 74880,
      "durationTicks": 1440,
      "endTick": 76320,
      "startSeconds": 58.5,
      "durationSeconds": 1.125,
      "endSeconds": 59.625,
      "velocity": 0.8,
      "bendActive": true,
      "instrument": 0
    },
    {
      "id": "id_15yichqcbmnv3kmnt",
      "pitch": 71,
      "pitchName": "B4",
      "frequencyHz": 493.883301,
      "startTick": 74880,
      "durationTicks": 480,
      "endTick": 75360,
      "startSeconds": 58.5,
      "durationSeconds": 0.375,
      "endSeconds": 58.875,
      "velocity": 0.32,
      "bendActive": true,
      "instrument": 1
    },
    {
      "id": "id_dhiwxta7xmnv3kmnt",
      "pitch": 72,
      "pitchName": "C5",
      "frequencyHz": 523.251131,
      "startTick": 75360,
      "durationTicks": 960,
      "endTick": 76320,
      "startSeconds": 58.875,
      "durationSeconds": 0.75,
      "endSeconds": 59.625,
      "velocity": 0.32,
      "bendActive": true,
      "instrument": 1
    },
    {
      "id": "id_r7zp5cnwxmnv3kmnt",
      "pitch": 56,
      "pitchName": "G#3",
      "frequencyHz": 207.652349,
      "startTick": 76320,
      "durationTicks": 1440,
      "endTick": 77760,
      "startSeconds": 59.625,
      "durationSeconds": 1.125,
      "endSeconds": 60.75,
      "velocity": 0.8,
      "bendActive": true,
      "instrument": 0
    },
    {
      "id": "id_bvqecdu8rmnv3kmnt",
      "pitch": 73,
      "pitchName": "C#5",
      "frequencyHz": 554.365262,
      "startTick": 76320,
      "durationTicks": 2880,
      "endTick": 79200,
      "startSeconds": 59.625,
      "durationSeconds": 2.25,
      "endSeconds": 61.875,
      "velocity": 0.32,
      "bendActive": true,
      "instrument": 1
    },
    {
      "id": "id_p08gh4cxxmnv3kmnt",
      "pitch": 42,
      "pitchName": "F#2",
      "frequencyHz": 92.498606,
      "startTick": 77760,
      "durationTicks": 1440,
      "endTick": 79200,
      "startSeconds": 60.75,
      "durationSeconds": 1.125,
      "endSeconds": 61.875,
      "velocity": 0.8,
      "bendActive": true,
      "instrument": 0
    },
    {
      "id": "id_5xbpvxkm2mnv3kmnt",
      "pitch": 49,
      "pitchName": "C#3",
      "frequencyHz": 138.591315,
      "startTick": 77760,
      "durationTicks": 1440,
      "endTick": 79200,
      "startSeconds": 60.75,
      "durationSeconds": 1.125,
      "endSeconds": 61.875,
      "velocity": 0.8,
      "bendActive": true,
      "instrument": 0
    },
    {
      "id": "id_iw75370l4mnv3kmnt",
      "pitch": 58,
      "pitchName": "A#3",
      "frequencyHz": 233.081881,
      "startTick": 77760,
      "durationTicks": 1440,
      "endTick": 79200,
      "startSeconds": 60.75,
      "durationSeconds": 1.125,
      "endSeconds": 61.875,
      "velocity": 0.8,
      "bendActive": true,
      "instrument": 0
    },
    {
      "id": "id_b6zchzeummnv3kmnt",
      "pitch": 47,
      "pitchName": "B2",
      "frequencyHz": 123.470825,
      "startTick": 79200,
      "durationTicks": 1440,
      "endTick": 80640,
      "startSeconds": 61.875,
      "durationSeconds": 1.125,
      "endSeconds": 63,
      "velocity": 0.8,
      "bendActive": true,
      "instrument": 0
    },
    {
      "id": "id_b0tayedahmnv3kmnt",
      "pitch": 51,
      "pitchName": "D#3",
      "frequencyHz": 155.563492,
      "startTick": 79200,
      "durationTicks": 1440,
      "endTick": 80640,
      "startSeconds": 61.875,
      "durationSeconds": 1.125,
      "endSeconds": 63,
      "velocity": 0.8,
      "bendActive": true,
      "instrument": 0
    },
    {
      "id": "id_0rv55f49rmnv3kmnt",
      "pitch": 66,
      "pitchName": "F#4",
      "frequencyHz": 369.994423,
      "startTick": 79200,
      "durationTicks": 1440,
      "endTick": 80640,
      "startSeconds": 61.875,
      "durationSeconds": 1.125,
      "endSeconds": 63,
      "velocity": 0.8,
      "bendActive": true,
      "instrument": 0
    },
    {
      "id": "id_47bp4j35fmnv3kmnt",
      "pitch": 73,
      "pitchName": "C#5",
      "frequencyHz": 554.365262,
      "startTick": 79200,
      "durationTicks": 480,
      "endTick": 79680,
      "startSeconds": 61.875,
      "durationSeconds": 0.375,
      "endSeconds": 62.25,
      "velocity": 0.32,
      "bendActive": true,
      "instrument": 1
    },
    {
      "id": "id_8hs0hifs1mnv3kmnt",
      "pitch": 75,
      "pitchName": "D#5",
      "frequencyHz": 622.253967,
      "startTick": 79680,
      "durationTicks": 480,
      "endTick": 80160,
      "startSeconds": 62.25,
      "durationSeconds": 0.375,
      "endSeconds": 62.625,
      "velocity": 0.32,
      "bendActive": true,
      "instrument": 1
    },
    {
      "id": "id_3r7tg4tu7mnv3kmnt",
      "pitch": 78,
      "pitchName": "F#5",
      "frequencyHz": 739.988845,
      "startTick": 80160,
      "durationTicks": 480,
      "endTick": 80640,
      "startSeconds": 62.625,
      "durationSeconds": 0.375,
      "endSeconds": 63,
      "velocity": 0.32,
      "bendActive": true,
      "instrument": 1
    },
    {
      "id": "id_gqleckvnvmnv3kmnt",
      "pitch": 37,
      "pitchName": "C#2",
      "frequencyHz": 69.295658,
      "startTick": 80640,
      "durationTicks": 2880,
      "endTick": 83520,
      "startSeconds": 63,
      "durationSeconds": 2.25,
      "endSeconds": 65.25,
      "velocity": 0.8,
      "bendActive": true,
      "instrument": 0
    },
    {
      "id": "id_71129zza1mnv3kmnt",
      "pitch": 52,
      "pitchName": "E3",
      "frequencyHz": 164.813778,
      "startTick": 80640,
      "durationTicks": 2880,
      "endTick": 83520,
      "startSeconds": 63,
      "durationSeconds": 2.25,
      "endSeconds": 65.25,
      "velocity": 0.8,
      "bendActive": true,
      "instrument": 0
    },
    {
      "id": "id_glyp6xn7vmnv3kmnt",
      "pitch": 71,
      "pitchName": "B4",
      "frequencyHz": 493.883301,
      "startTick": 80640,
      "durationTicks": 2880,
      "endTick": 83520,
      "startSeconds": 63,
      "durationSeconds": 2.25,
      "endSeconds": 65.25,
      "velocity": 0.32,
      "bendActive": true,
      "instrument": 1
    },
    {
      "id": "id_sfnel9phumnv3kmnt",
      "pitch": 58,
      "pitchName": "A#3",
      "frequencyHz": 233.081881,
      "startTick": 83520,
      "durationTicks": 480,
      "endTick": 84000,
      "startSeconds": 65.25,
      "durationSeconds": 0.375,
      "endSeconds": 65.625,
      "velocity": 0.8,
      "bendActive": true,
      "instrument": 0
    },
    {
      "id": "id_eqlmoie4amnv3kmnt",
      "pitch": 75,
      "pitchName": "D#5",
      "frequencyHz": 622.253967,
      "startTick": 83520,
      "durationTicks": 480,
      "endTick": 84000,
      "startSeconds": 65.25,
      "durationSeconds": 0.375,
      "endSeconds": 65.625,
      "velocity": 0.32,
      "bendActive": true,
      "instrument": 1
    },
    {
      "id": "id_w8m7nlz1mmnv3kmnt",
      "pitch": 56,
      "pitchName": "G#3",
      "frequencyHz": 207.652349,
      "startTick": 84000,
      "durationTicks": 480,
      "endTick": 84480,
      "startSeconds": 65.625,
      "durationSeconds": 0.375,
      "endSeconds": 66,
      "velocity": 0.8,
      "bendActive": true,
      "instrument": 0
    },
    {
      "id": "id_udgm0lmzgmnv3kmnt",
      "pitch": 73,
      "pitchName": "C#5",
      "frequencyHz": 554.365262,
      "startTick": 84000,
      "durationTicks": 480,
      "endTick": 84480,
      "startSeconds": 65.625,
      "durationSeconds": 0.375,
      "endSeconds": 66,
      "velocity": 0.32,
      "bendActive": true,
      "instrument": 1
    },
    {
      "id": "id_3n773z9f0mnv3kmnt",
      "pitch": 54,
      "pitchName": "F#3",
      "frequencyHz": 184.997211,
      "startTick": 84480,
      "durationTicks": 480,
      "endTick": 84960,
      "startSeconds": 66,
      "durationSeconds": 0.375,
      "endSeconds": 66.375,
      "velocity": 0.8,
      "bendActive": true,
      "instrument": 0
    },
    {
      "id": "id_hml8ghcf4mnv3kmnt",
      "pitch": 71,
      "pitchName": "B4",
      "frequencyHz": 493.883301,
      "startTick": 84480,
      "durationTicks": 480,
      "endTick": 84960,
      "startSeconds": 66,
      "durationSeconds": 0.375,
      "endSeconds": 66.375,
      "velocity": 0.32,
      "bendActive": true,
      "instrument": 1
    },
    {
      "id": "id_kpigg9g6dmnv3kmnt",
      "pitch": 58,
      "pitchName": "A#3",
      "frequencyHz": 233.081881,
      "startTick": 84960,
      "durationTicks": 960,
      "endTick": 85920,
      "startSeconds": 66.375,
      "durationSeconds": 0.75,
      "endSeconds": 67.125,
      "velocity": 0.8,
      "bendActive": true,
      "instrument": 0
    },
    {
      "id": "id_9qp7d4jt3mnv3kmnt",
      "pitch": 75,
      "pitchName": "D#5",
      "frequencyHz": 622.253967,
      "startTick": 84960,
      "durationTicks": 960,
      "endTick": 85920,
      "startSeconds": 66.375,
      "durationSeconds": 0.75,
      "endSeconds": 67.125,
      "velocity": 0.32,
      "bendActive": true,
      "instrument": 1
    },
    {
      "id": "id_wyv27qhw5mnv3kmnt",
      "pitch": 54,
      "pitchName": "F#3",
      "frequencyHz": 184.997211,
      "startTick": 85920,
      "durationTicks": 480,
      "endTick": 86400,
      "startSeconds": 67.125,
      "durationSeconds": 0.375,
      "endSeconds": 67.5,
      "velocity": 0.8,
      "bendActive": true,
      "instrument": 0
    },
    {
      "id": "id_91o7xhuq2mnv3kmnt",
      "pitch": 71,
      "pitchName": "B4",
      "frequencyHz": 493.883301,
      "startTick": 85920,
      "durationTicks": 480,
      "endTick": 86400,
      "startSeconds": 67.125,
      "durationSeconds": 0.375,
      "endSeconds": 67.5,
      "velocity": 0.32,
      "bendActive": true,
      "instrument": 1
    },
    {
      "id": "id_n49ia6gfsmnv3kmnt",
      "pitch": 40,
      "pitchName": "E2",
      "frequencyHz": 82.406889,
      "startTick": 86400,
      "durationTicks": 1320,
      "endTick": 87720,
      "startSeconds": 67.5,
      "durationSeconds": 1.031,
      "endSeconds": 68.531,
      "velocity": 0.8,
      "bendActive": true,
      "instrument": 0
    },
    {
      "id": "id_6p07vanpfmnv3kmnt",
      "pitch": 47,
      "pitchName": "B2",
      "frequencyHz": 123.470825,
      "startTick": 86400,
      "durationTicks": 1440,
      "endTick": 87840,
      "startSeconds": 67.5,
      "durationSeconds": 1.125,
      "endSeconds": 68.625,
      "velocity": 0.8,
      "bendActive": true,
      "instrument": 0
    },
    {
      "id": "id_ozycs7kohmnv3kmnt",
      "pitch": 68,
      "pitchName": "G#4",
      "frequencyHz": 415.304698,
      "startTick": 86400,
      "durationTicks": 1440,
      "endTick": 87840,
      "startSeconds": 67.5,
      "durationSeconds": 1.125,
      "endSeconds": 68.625,
      "velocity": 0.32,
      "bendActive": true,
      "instrument": 1
    },
    {
      "id": "id_ps1ges3d5mnv3kmnt",
      "pitch": 58,
      "pitchName": "A#3",
      "frequencyHz": 233.081881,
      "startTick": 87840,
      "durationTicks": 960,
      "endTick": 88800,
      "startSeconds": 68.625,
      "durationSeconds": 0.75,
      "endSeconds": 69.375,
      "velocity": 0.8,
      "bendActive": true,
      "instrument": 0
    },
    {
      "id": "id_pbgi2hi89mnv3kmnt",
      "pitch": 75,
      "pitchName": "D#5",
      "frequencyHz": 622.253967,
      "startTick": 87840,
      "durationTicks": 960,
      "endTick": 88800,
      "startSeconds": 68.625,
      "durationSeconds": 0.75,
      "endSeconds": 69.375,
      "velocity": 0.32,
      "bendActive": true,
      "instrument": 1
    },
    {
      "id": "id_bsrjmfljhmnv3kmnt",
      "pitch": 54,
      "pitchName": "F#3",
      "frequencyHz": 184.997211,
      "startTick": 88800,
      "durationTicks": 480,
      "endTick": 89280,
      "startSeconds": 69.375,
      "durationSeconds": 0.375,
      "endSeconds": 69.75,
      "velocity": 0.8,
      "bendActive": true,
      "instrument": 0
    },
    {
      "id": "id_tsgslffe3mnv3kmnt",
      "pitch": 71,
      "pitchName": "B4",
      "frequencyHz": 493.883301,
      "startTick": 88800,
      "durationTicks": 480,
      "endTick": 89280,
      "startSeconds": 69.375,
      "durationSeconds": 0.375,
      "endSeconds": 69.75,
      "velocity": 0.32,
      "bendActive": true,
      "instrument": 1
    },
    {
      "id": "id_4q493g149mnv3kmnt",
      "pitch": 42,
      "pitchName": "F#2",
      "frequencyHz": 92.498606,
      "startTick": 89280,
      "durationTicks": 1440,
      "endTick": 90720,
      "startSeconds": 69.75,
      "durationSeconds": 1.125,
      "endSeconds": 70.875,
      "velocity": 0.8,
      "bendActive": true,
      "instrument": 0
    },
    {
      "id": "id_uh4pni3u7mnv3kmnt",
      "pitch": 49,
      "pitchName": "C#3",
      "frequencyHz": 138.591315,
      "startTick": 89280,
      "durationTicks": 1440,
      "endTick": 90720,
      "startSeconds": 69.75,
      "durationSeconds": 1.125,
      "endSeconds": 70.875,
      "velocity": 0.8,
      "bendActive": true,
      "instrument": 0
    },
    {
      "id": "id_srqwq7exxmnv3kmnt",
      "pitch": 70,
      "pitchName": "A#4",
      "frequencyHz": 466.163762,
      "startTick": 89280,
      "durationTicks": 1440,
      "endTick": 90720,
      "startSeconds": 69.75,
      "durationSeconds": 1.125,
      "endSeconds": 70.875,
      "velocity": 0.32,
      "bendActive": true,
      "instrument": 1
    },
    {
      "id": "id_s8c2sg01mmnv3kmnt",
      "pitch": 39,
      "pitchName": "D#2",
      "frequencyHz": 77.781746,
      "startTick": 90720,
      "durationTicks": 1440,
      "endTick": 92160,
      "startSeconds": 70.875,
      "durationSeconds": 1.125,
      "endSeconds": 72,
      "velocity": 0.8,
      "bendActive": true,
      "instrument": 0
    },
    {
      "id": "id_kaprqhxzamnv3kmnt",
      "pitch": 58,
      "pitchName": "A#3",
      "frequencyHz": 233.081881,
      "startTick": 90720,
      "durationTicks": 480,
      "endTick": 91200,
      "startSeconds": 70.875,
      "durationSeconds": 0.375,
      "endSeconds": 71.25,
      "velocity": 0.8,
      "bendActive": true,
      "instrument": 0
    },
    {
      "id": "id_0xfnpztjrmnv3kmnt",
      "pitch": 68,
      "pitchName": "G#4",
      "frequencyHz": 415.304698,
      "startTick": 90720,
      "durationTicks": 480,
      "endTick": 91200,
      "startSeconds": 70.875,
      "durationSeconds": 0.375,
      "endSeconds": 71.25,
      "velocity": 0.32,
      "bendActive": true,
      "instrument": 1
    },
    {
      "id": "id_7ucz57ptbmnv3kmnt",
      "pitch": 56,
      "pitchName": "G#3",
      "frequencyHz": 207.652349,
      "startTick": 91200,
      "durationTicks": 480,
      "endTick": 91680,
      "startSeconds": 71.25,
      "durationSeconds": 0.375,
      "endSeconds": 71.625,
      "velocity": 0.8,
      "bendActive": true,
      "instrument": 0
    },
    {
      "id": "id_5cs8e6lirmnv3kmnt",
      "pitch": 66,
      "pitchName": "F#4",
      "frequencyHz": 369.994423,
      "startTick": 91200,
      "durationTicks": 480,
      "endTick": 91680,
      "startSeconds": 71.25,
      "durationSeconds": 0.375,
      "endSeconds": 71.625,
      "velocity": 0.32,
      "bendActive": true,
      "instrument": 1
    },
    {
      "id": "id_7gg89c5rbmnv3kmnt",
      "pitch": 51,
      "pitchName": "D#3",
      "frequencyHz": 155.563492,
      "startTick": 91680,
      "durationTicks": 480,
      "endTick": 92160,
      "startSeconds": 71.625,
      "durationSeconds": 0.375,
      "endSeconds": 72,
      "velocity": 0.8,
      "bendActive": true,
      "instrument": 0
    },
    {
      "id": "id_uj9svjtw2mnv3kmnt",
      "pitch": 63,
      "pitchName": "D#4",
      "frequencyHz": 311.126984,
      "startTick": 91680,
      "durationTicks": 480,
      "endTick": 92160,
      "startSeconds": 71.625,
      "durationSeconds": 0.375,
      "endSeconds": 72,
      "velocity": 0.32,
      "bendActive": true,
      "instrument": 1
    },
    {
      "id": "id_pf9vbhxnemnv3kmnt",
      "pitch": 34,
      "pitchName": "A#1",
      "frequencyHz": 58.27047,
      "startTick": 92160,
      "durationTicks": 1440,
      "endTick": 93600,
      "startSeconds": 72,
      "durationSeconds": 1.125,
      "endSeconds": 73.125,
      "velocity": 0.8,
      "bendActive": true,
      "instrument": 0
    },
    {
      "id": "id_d7bgagyyhmnv3kmnt",
      "pitch": 49,
      "pitchName": "C#3",
      "frequencyHz": 138.591315,
      "startTick": 92160,
      "durationTicks": 1440,
      "endTick": 93600,
      "startSeconds": 72,
      "durationSeconds": 1.125,
      "endSeconds": 73.125,
      "velocity": 0.8,
      "bendActive": true,
      "instrument": 0
    },
    {
      "id": "id_4nhgiuud8mnv3kmnt",
      "pitch": 61,
      "pitchName": "C#4",
      "frequencyHz": 277.182631,
      "startTick": 92160,
      "durationTicks": 2880,
      "endTick": 95040,
      "startSeconds": 72,
      "durationSeconds": 2.25,
      "endSeconds": 74.25,
      "velocity": 0.32,
      "bendActive": true,
      "instrument": 1
    },
    {
      "id": "id_o0spkikj1mnv3kmnt",
      "pitch": 42,
      "pitchName": "F#2",
      "frequencyHz": 92.498606,
      "startTick": 93600,
      "durationTicks": 1320,
      "endTick": 94920,
      "startSeconds": 73.125,
      "durationSeconds": 1.031,
      "endSeconds": 74.156,
      "velocity": 0.8,
      "bendActive": true,
      "instrument": 0
    },
    {
      "id": "id_zuaqrhnlemnv3kmnt",
      "pitch": 58,
      "pitchName": "A#3",
      "frequencyHz": 233.081881,
      "startTick": 93600,
      "durationTicks": 1320,
      "endTick": 94920,
      "startSeconds": 73.125,
      "durationSeconds": 1.031,
      "endSeconds": 74.156,
      "velocity": 0.8,
      "bendActive": true,
      "instrument": 0
    },
    {
      "id": "id_7ptsxpa9cmnv3kmnt",
      "pitch": 40,
      "pitchName": "E2",
      "frequencyHz": 82.406889,
      "startTick": 95040,
      "durationTicks": 1320,
      "endTick": 96360,
      "startSeconds": 74.25,
      "durationSeconds": 1.031,
      "endSeconds": 75.281,
      "velocity": 0.8,
      "bendActive": true,
      "instrument": 0
    },
    {
      "id": "id_gahfxeibdmnv3kmnt",
      "pitch": 61,
      "pitchName": "C#4",
      "frequencyHz": 277.182631,
      "startTick": 95040,
      "durationTicks": 960,
      "endTick": 96000,
      "startSeconds": 74.25,
      "durationSeconds": 0.75,
      "endSeconds": 75,
      "velocity": 0.8,
      "bendActive": true,
      "instrument": 0
    },
    {
      "id": "id_gcdxltd6jmnv3kmnt",
      "pitch": 66,
      "pitchName": "F#4",
      "frequencyHz": 369.994423,
      "startTick": 95040,
      "durationTicks": 960,
      "endTick": 96000,
      "startSeconds": 74.25,
      "durationSeconds": 0.75,
      "endSeconds": 75,
      "velocity": 0.32,
      "bendActive": true,
      "instrument": 1
    },
    {
      "id": "id_x2ix8ep8nmnv3kmnt",
      "pitch": 54,
      "pitchName": "F#3",
      "frequencyHz": 184.997211,
      "startTick": 96000,
      "durationTicks": 480,
      "endTick": 96480,
      "startSeconds": 75,
      "durationSeconds": 0.375,
      "endSeconds": 75.375,
      "velocity": 0.8,
      "bendActive": true,
      "instrument": 0
    },
    {
      "id": "id_3fvutcqkcmnv3kmnt",
      "pitch": 63,
      "pitchName": "D#4",
      "frequencyHz": 311.126984,
      "startTick": 96000,
      "durationTicks": 480,
      "endTick": 96480,
      "startSeconds": 75,
      "durationSeconds": 0.375,
      "endSeconds": 75.375,
      "velocity": 0.32,
      "bendActive": true,
      "instrument": 1
    },
    {
      "id": "id_q32rrhioumnv3kmnt",
      "pitch": 39,
      "pitchName": "D#2",
      "frequencyHz": 77.781746,
      "startTick": 96480,
      "durationTicks": 1320,
      "endTick": 97800,
      "startSeconds": 75.375,
      "durationSeconds": 1.031,
      "endSeconds": 76.406,
      "velocity": 0.8,
      "bendActive": true,
      "instrument": 0
    },
    {
      "id": "id_et2my8lqfmnv3kmnt",
      "pitch": 58,
      "pitchName": "A#3",
      "frequencyHz": 233.081881,
      "startTick": 96480,
      "durationTicks": 960,
      "endTick": 97440,
      "startSeconds": 75.375,
      "durationSeconds": 0.75,
      "endSeconds": 76.125,
      "velocity": 0.8,
      "bendActive": true,
      "instrument": 0
    },
    {
      "id": "id_hfonyqavfmnv3kmnt",
      "pitch": 61,
      "pitchName": "C#4",
      "frequencyHz": 277.182631,
      "startTick": 96480,
      "durationTicks": 480,
      "endTick": 96960,
      "startSeconds": 75.375,
      "durationSeconds": 0.375,
      "endSeconds": 75.75,
      "velocity": 0.32,
      "bendActive": true,
      "instrument": 1
    },
    {
      "id": "id_crckdxx47mnv3kmnt",
      "pitch": 62,
      "pitchName": "D4",
      "frequencyHz": 293.664768,
      "startTick": 96960,
      "durationTicks": 480,
      "endTick": 97440,
      "startSeconds": 75.75,
      "durationSeconds": 0.375,
      "endSeconds": 76.125,
      "velocity": 0.32,
      "bendActive": true,
      "instrument": 1
    },
    {
      "id": "id_pscjylq6pmnv3kmnt",
      "pitch": 49,
      "pitchName": "C#3",
      "frequencyHz": 138.591315,
      "startTick": 97440,
      "durationTicks": 480,
      "endTick": 97920,
      "startSeconds": 76.125,
      "durationSeconds": 0.375,
      "endSeconds": 76.5,
      "velocity": 0.8,
      "bendActive": true,
      "instrument": 0
    },
    {
      "id": "id_s15zchg7umnv3kmnt",
      "pitch": 56,
      "pitchName": "G#3",
      "frequencyHz": 207.652349,
      "startTick": 97440,
      "durationTicks": 480,
      "endTick": 97920,
      "startSeconds": 76.125,
      "durationSeconds": 0.375,
      "endSeconds": 76.5,
      "velocity": 0.32,
      "bendActive": true,
      "instrument": 1
    },
    {
      "id": "id_aeznlb0j9mnv3kmnt",
      "pitch": 44,
      "pitchName": "G#2",
      "frequencyHz": 103.826174,
      "startTick": 97920,
      "durationTicks": 2880,
      "endTick": 100800,
      "startSeconds": 76.5,
      "durationSeconds": 2.25,
      "endSeconds": 78.75,
      "velocity": 0.8,
      "bendActive": true,
      "instrument": 0
    },
    {
      "id": "id_x5vaf1mvumnv3kmnt",
      "pitch": 51,
      "pitchName": "D#3",
      "frequencyHz": 155.563492,
      "startTick": 97920,
      "durationTicks": 2880,
      "endTick": 100800,
      "startSeconds": 76.5,
      "durationSeconds": 2.25,
      "endSeconds": 78.75,
      "velocity": 0.8,
      "bendActive": true,
      "instrument": 0
    },
    {
      "id": "id_wlxsj4nr6mnv3kmnt",
      "pitch": 59,
      "pitchName": "B3",
      "frequencyHz": 246.941651,
      "startTick": 97920,
      "durationTicks": 2880,
      "endTick": 100800,
      "startSeconds": 76.5,
      "durationSeconds": 2.25,
      "endSeconds": 78.75,
      "velocity": 0.32,
      "bendActive": true,
      "instrument": 1
    },
    {
      "id": "id_apnaf92v1mnv3kmnt",
      "pitch": 44,
      "pitchName": "G#2",
      "frequencyHz": 103.826174,
      "startTick": 100800,
      "durationTicks": 240,
      "endTick": 101040,
      "startSeconds": 78.75,
      "durationSeconds": 0.188,
      "endSeconds": 78.938,
      "velocity": 0.8,
      "bendActive": true,
      "instrument": 0
    },
    {
      "id": "id_wka01ze91mnv3kmnt",
      "pitch": 51,
      "pitchName": "D#3",
      "frequencyHz": 155.563492,
      "startTick": 100800,
      "durationTicks": 240,
      "endTick": 101040,
      "startSeconds": 78.75,
      "durationSeconds": 0.188,
      "endSeconds": 78.938,
      "velocity": 0.8,
      "bendActive": true,
      "instrument": 0
    },
    {
      "id": "id_ygi3j6uc8mnv3nn8f",
      "pitch": 59,
      "pitchName": "B3",
      "frequencyHz": 246.941651,
      "startTick": 100800,
      "durationTicks": 240,
      "endTick": 101040,
      "startSeconds": 78.75,
      "durationSeconds": 0.188,
      "endSeconds": 78.938,
      "velocity": 0.32,
      "bendActive": true,
      "instrument": 1
    },
    {
      "id": "id_b4yxqsfm1mnv3kmnt",
      "pitch": 63,
      "pitchName": "D#4",
      "frequencyHz": 311.126984,
      "startTick": 100800,
      "durationTicks": 240,
      "endTick": 101040,
      "startSeconds": 78.75,
      "durationSeconds": 0.188,
      "endSeconds": 78.938,
      "velocity": 0.32,
      "bendActive": true,
      "instrument": 1
    },
    {
      "id": "id_vupj2uwsumnv3kmnt",
      "pitch": 44,
      "pitchName": "G#2",
      "frequencyHz": 103.826174,
      "startTick": 101040,
      "durationTicks": 120,
      "endTick": 101160,
      "startSeconds": 78.938,
      "durationSeconds": 0.094,
      "endSeconds": 79.031,
      "velocity": 0.8,
      "bendActive": true,
      "instrument": 0
    },
    {
      "id": "id_pzlp9g5eumnv3kmnt",
      "pitch": 51,
      "pitchName": "D#3",
      "frequencyHz": 155.563492,
      "startTick": 101040,
      "durationTicks": 120,
      "endTick": 101160,
      "startSeconds": 78.938,
      "durationSeconds": 0.094,
      "endSeconds": 79.031,
      "velocity": 0.8,
      "bendActive": true,
      "instrument": 0
    },
    {
      "id": "id_iz17yv76dmnv3nn8f",
      "pitch": 59,
      "pitchName": "B3",
      "frequencyHz": 246.941651,
      "startTick": 101040,
      "durationTicks": 120,
      "endTick": 101160,
      "startSeconds": 78.938,
      "durationSeconds": 0.094,
      "endSeconds": 79.031,
      "velocity": 0.32,
      "bendActive": true,
      "instrument": 1
    },
    {
      "id": "id_pk3x2pnzsmnv3kmnt",
      "pitch": 63,
      "pitchName": "D#4",
      "frequencyHz": 311.126984,
      "startTick": 101040,
      "durationTicks": 120,
      "endTick": 101160,
      "startSeconds": 78.938,
      "durationSeconds": 0.094,
      "endSeconds": 79.031,
      "velocity": 0.32,
      "bendActive": true,
      "instrument": 1
    },
    {
      "id": "id_nf2xeznx9mnv3kmnt",
      "pitch": 44,
      "pitchName": "G#2",
      "frequencyHz": 103.826174,
      "startTick": 101280,
      "durationTicks": 120,
      "endTick": 101400,
      "startSeconds": 79.125,
      "durationSeconds": 0.094,
      "endSeconds": 79.219,
      "velocity": 0.8,
      "bendActive": true,
      "instrument": 0
    },
    {
      "id": "id_g0kqp2w2bmnv3kmnt",
      "pitch": 51,
      "pitchName": "D#3",
      "frequencyHz": 155.563492,
      "startTick": 101280,
      "durationTicks": 120,
      "endTick": 101400,
      "startSeconds": 79.125,
      "durationSeconds": 0.094,
      "endSeconds": 79.219,
      "velocity": 0.8,
      "bendActive": true,
      "instrument": 0
    },
    {
      "id": "id_737jddbwumnv3nn8f",
      "pitch": 59,
      "pitchName": "B3",
      "frequencyHz": 246.941651,
      "startTick": 101280,
      "durationTicks": 120,
      "endTick": 101400,
      "startSeconds": 79.125,
      "durationSeconds": 0.094,
      "endSeconds": 79.219,
      "velocity": 0.32,
      "bendActive": true,
      "instrument": 1
    },
    {
      "id": "id_m677j0jkkmnv3kmnt",
      "pitch": 63,
      "pitchName": "D#4",
      "frequencyHz": 311.126984,
      "startTick": 101280,
      "durationTicks": 120,
      "endTick": 101400,
      "startSeconds": 79.125,
      "durationSeconds": 0.094,
      "endSeconds": 79.219,
      "velocity": 0.32,
      "bendActive": true,
      "instrument": 1
    },
    {
      "id": "id_nhpt41ndpmnv3kmnt",
      "pitch": 44,
      "pitchName": "G#2",
      "frequencyHz": 103.826174,
      "startTick": 101520,
      "durationTicks": 240,
      "endTick": 101760,
      "startSeconds": 79.313,
      "durationSeconds": 0.188,
      "endSeconds": 79.5,
      "velocity": 0.8,
      "bendActive": true,
      "instrument": 0
    },
    {
      "id": "id_t2ej46aucmnv3kmnt",
      "pitch": 51,
      "pitchName": "D#3",
      "frequencyHz": 155.563492,
      "startTick": 101520,
      "durationTicks": 240,
      "endTick": 101760,
      "startSeconds": 79.313,
      "durationSeconds": 0.188,
      "endSeconds": 79.5,
      "velocity": 0.8,
      "bendActive": true,
      "instrument": 0
    },
    {
      "id": "id_p78uttwdemnv3nn8f",
      "pitch": 59,
      "pitchName": "B3",
      "frequencyHz": 246.941651,
      "startTick": 101520,
      "durationTicks": 240,
      "endTick": 101760,
      "startSeconds": 79.313,
      "durationSeconds": 0.188,
      "endSeconds": 79.5,
      "velocity": 0.32,
      "bendActive": true,
      "instrument": 1
    },
    {
      "id": "id_wlipm7p28mnv3kmnt",
      "pitch": 63,
      "pitchName": "D#4",
      "frequencyHz": 311.126984,
      "startTick": 101520,
      "durationTicks": 240,
      "endTick": 101760,
      "startSeconds": 79.313,
      "durationSeconds": 0.188,
      "endSeconds": 79.5,
      "velocity": 0.32,
      "bendActive": true,
      "instrument": 1
    },
    {
      "id": "id_hune8zfpymnv3kmnt",
      "pitch": 44,
      "pitchName": "G#2",
      "frequencyHz": 103.826174,
      "startTick": 101760,
      "durationTicks": 120,
      "endTick": 101880,
      "startSeconds": 79.5,
      "durationSeconds": 0.094,
      "endSeconds": 79.594,
      "velocity": 0.8,
      "bendActive": true,
      "instrument": 0
    },
    {
      "id": "id_bxebplrs3mnv3kmnt",
      "pitch": 51,
      "pitchName": "D#3",
      "frequencyHz": 155.563492,
      "startTick": 101760,
      "durationTicks": 120,
      "endTick": 101880,
      "startSeconds": 79.5,
      "durationSeconds": 0.094,
      "endSeconds": 79.594,
      "velocity": 0.8,
      "bendActive": true,
      "instrument": 0
    },
    {
      "id": "id_33ymf9yexmnv3nn8f",
      "pitch": 59,
      "pitchName": "B3",
      "frequencyHz": 246.941651,
      "startTick": 101760,
      "durationTicks": 120,
      "endTick": 101880,
      "startSeconds": 79.5,
      "durationSeconds": 0.094,
      "endSeconds": 79.594,
      "velocity": 0.32,
      "bendActive": true,
      "instrument": 1
    },
    {
      "id": "id_uypdzwjjvmnv3kmnt",
      "pitch": 63,
      "pitchName": "D#4",
      "frequencyHz": 311.126984,
      "startTick": 101760,
      "durationTicks": 120,
      "endTick": 101880,
      "startSeconds": 79.5,
      "durationSeconds": 0.094,
      "endSeconds": 79.594,
      "velocity": 0.32,
      "bendActive": true,
      "instrument": 1
    },
    {
      "id": "id_984y7l0c2mnv3kmnt",
      "pitch": 44,
      "pitchName": "G#2",
      "frequencyHz": 103.826174,
      "startTick": 102000,
      "durationTicks": 120,
      "endTick": 102120,
      "startSeconds": 79.688,
      "durationSeconds": 0.094,
      "endSeconds": 79.781,
      "velocity": 0.8,
      "bendActive": true,
      "instrument": 0
    },
    {
      "id": "id_b1qpiaa12mnv3kmnt",
      "pitch": 51,
      "pitchName": "D#3",
      "frequencyHz": 155.563492,
      "startTick": 102000,
      "durationTicks": 120,
      "endTick": 102120,
      "startSeconds": 79.688,
      "durationSeconds": 0.094,
      "endSeconds": 79.781,
      "velocity": 0.8,
      "bendActive": true,
      "instrument": 0
    },
    {
      "id": "id_a716v0lnwmnv3nn8f",
      "pitch": 59,
      "pitchName": "B3",
      "frequencyHz": 246.941651,
      "startTick": 102000,
      "durationTicks": 120,
      "endTick": 102120,
      "startSeconds": 79.688,
      "durationSeconds": 0.094,
      "endSeconds": 79.781,
      "velocity": 0.32,
      "bendActive": true,
      "instrument": 1
    },
    {
      "id": "id_l8ne6hbb9mnv3kmnt",
      "pitch": 63,
      "pitchName": "D#4",
      "frequencyHz": 311.126984,
      "startTick": 102000,
      "durationTicks": 120,
      "endTick": 102120,
      "startSeconds": 79.688,
      "durationSeconds": 0.094,
      "endSeconds": 79.781,
      "velocity": 0.32,
      "bendActive": true,
      "instrument": 1
    },
    {
      "id": "id_4vhicx4ermnv3kmnt",
      "pitch": 44,
      "pitchName": "G#2",
      "frequencyHz": 103.826174,
      "startTick": 102240,
      "durationTicks": 240,
      "endTick": 102480,
      "startSeconds": 79.875,
      "durationSeconds": 0.188,
      "endSeconds": 80.063,
      "velocity": 0.8,
      "bendActive": true,
      "instrument": 0
    },
    {
      "id": "id_lunn2d6tdmnv3kmnt",
      "pitch": 51,
      "pitchName": "D#3",
      "frequencyHz": 155.563492,
      "startTick": 102240,
      "durationTicks": 240,
      "endTick": 102480,
      "startSeconds": 79.875,
      "durationSeconds": 0.188,
      "endSeconds": 80.063,
      "velocity": 0.8,
      "bendActive": true,
      "instrument": 0
    },
    {
      "id": "id_p4r6g4wq0mnv3kmnt",
      "pitch": 59,
      "pitchName": "B3",
      "frequencyHz": 246.941651,
      "startTick": 102240,
      "durationTicks": 240,
      "endTick": 102480,
      "startSeconds": 79.875,
      "durationSeconds": 0.188,
      "endSeconds": 80.063,
      "velocity": 0.32,
      "bendActive": true,
      "instrument": 1
    },
    {
      "id": "id_wwzuop8vamnv3nprr",
      "pitch": 63,
      "pitchName": "D#4",
      "frequencyHz": 311.126984,
      "startTick": 102240,
      "durationTicks": 240,
      "endTick": 102480,
      "startSeconds": 79.875,
      "durationSeconds": 0.188,
      "endSeconds": 80.063,
      "velocity": 0.8,
      "bendActive": true,
      "instrument": 1
    },
    {
      "id": "id_7rk8o3h6lmnv3kmnt",
      "pitch": 44,
      "pitchName": "G#2",
      "frequencyHz": 103.826174,
      "startTick": 102480,
      "durationTicks": 120,
      "endTick": 102600,
      "startSeconds": 80.063,
      "durationSeconds": 0.094,
      "endSeconds": 80.156,
      "velocity": 0.8,
      "bendActive": true,
      "instrument": 0
    },
    {
      "id": "id_wc5m7ch8vmnv3kmnt",
      "pitch": 51,
      "pitchName": "D#3",
      "frequencyHz": 155.563492,
      "startTick": 102480,
      "durationTicks": 120,
      "endTick": 102600,
      "startSeconds": 80.063,
      "durationSeconds": 0.094,
      "endSeconds": 80.156,
      "velocity": 0.8,
      "bendActive": true,
      "instrument": 0
    },
    {
      "id": "id_pe4mlub76mnv3kmnt",
      "pitch": 59,
      "pitchName": "B3",
      "frequencyHz": 246.941651,
      "startTick": 102480,
      "durationTicks": 120,
      "endTick": 102600,
      "startSeconds": 80.063,
      "durationSeconds": 0.094,
      "endSeconds": 80.156,
      "velocity": 0.25,
      "bendActive": true,
      "instrument": 1
    },
    {
      "id": "id_gbxog5bjgmnv3kmnt",
      "pitch": 63,
      "pitchName": "D#4",
      "frequencyHz": 311.126984,
      "startTick": 102480,
      "durationTicks": 120,
      "endTick": 102600,
      "startSeconds": 80.063,
      "durationSeconds": 0.094,
      "endSeconds": 80.156,
      "velocity": 0.25,
      "bendActive": true,
      "instrument": 1
    },
    {
      "id": "id_6ydg664d6mnv3kmnt",
      "pitch": 44,
      "pitchName": "G#2",
      "frequencyHz": 103.826174,
      "startTick": 102720,
      "durationTicks": 240,
      "endTick": 102960,
      "startSeconds": 80.25,
      "durationSeconds": 0.188,
      "endSeconds": 80.438,
      "velocity": 0.8,
      "bendActive": true,
      "instrument": 0
    },
    {
      "id": "id_iuqzorftzmnv3kmnt",
      "pitch": 51,
      "pitchName": "D#3",
      "frequencyHz": 155.563492,
      "startTick": 102720,
      "durationTicks": 240,
      "endTick": 102960,
      "startSeconds": 80.25,
      "durationSeconds": 0.188,
      "endSeconds": 80.438,
      "velocity": 0.8,
      "bendActive": true,
      "instrument": 0
    },
    {
      "id": "id_ur30juenimnv3kmnt",
      "pitch": 59,
      "pitchName": "B3",
      "frequencyHz": 246.941651,
      "startTick": 102720,
      "durationTicks": 240,
      "endTick": 102960,
      "startSeconds": 80.25,
      "durationSeconds": 0.188,
      "endSeconds": 80.438,
      "velocity": 0.25,
      "bendActive": true,
      "instrument": 1
    },
    {
      "id": "id_3sbw17uemmnv3kmnt",
      "pitch": 63,
      "pitchName": "D#4",
      "frequencyHz": 311.126984,
      "startTick": 102720,
      "durationTicks": 240,
      "endTick": 102960,
      "startSeconds": 80.25,
      "durationSeconds": 0.188,
      "endSeconds": 80.438,
      "velocity": 0.25,
      "bendActive": true,
      "instrument": 1
    },
    {
      "id": "id_oa7nee7q2mnv3kmnt",
      "pitch": 44,
      "pitchName": "G#2",
      "frequencyHz": 103.826174,
      "startTick": 102960,
      "durationTicks": 240,
      "endTick": 103200,
      "startSeconds": 80.438,
      "durationSeconds": 0.188,
      "endSeconds": 80.625,
      "velocity": 0.8,
      "bendActive": true,
      "instrument": 0
    },
    {
      "id": "id_uk4ycfvy9mnv3kmnt",
      "pitch": 51,
      "pitchName": "D#3",
      "frequencyHz": 155.563492,
      "startTick": 102960,
      "durationTicks": 240,
      "endTick": 103200,
      "startSeconds": 80.438,
      "durationSeconds": 0.188,
      "endSeconds": 80.625,
      "velocity": 0.8,
      "bendActive": true,
      "instrument": 0
    },
    {
      "id": "id_xmfjz4idhmnv3kmnt",
      "pitch": 59,
      "pitchName": "B3",
      "frequencyHz": 246.941651,
      "startTick": 102960,
      "durationTicks": 240,
      "endTick": 103200,
      "startSeconds": 80.438,
      "durationSeconds": 0.188,
      "endSeconds": 80.625,
      "velocity": 0.25,
      "bendActive": true,
      "instrument": 1
    },
    {
      "id": "id_y88kmhdzgmnv3kmnt",
      "pitch": 63,
      "pitchName": "D#4",
      "frequencyHz": 311.126984,
      "startTick": 102960,
      "durationTicks": 240,
      "endTick": 103200,
      "startSeconds": 80.438,
      "durationSeconds": 0.188,
      "endSeconds": 80.625,
      "velocity": 0.25,
      "bendActive": true,
      "instrument": 1
    },
    {
      "id": "id_95h7r6ntamnv3kmnt",
      "pitch": 44,
      "pitchName": "G#2",
      "frequencyHz": 103.826174,
      "startTick": 103200,
      "durationTicks": 120,
      "endTick": 103320,
      "startSeconds": 80.625,
      "durationSeconds": 0.094,
      "endSeconds": 80.719,
      "velocity": 0.8,
      "bendActive": true,
      "instrument": 0
    },
    {
      "id": "id_91kcaolhrmnv3kmnt",
      "pitch": 51,
      "pitchName": "D#3",
      "frequencyHz": 155.563492,
      "startTick": 103200,
      "durationTicks": 120,
      "endTick": 103320,
      "startSeconds": 80.625,
      "durationSeconds": 0.094,
      "endSeconds": 80.719,
      "velocity": 0.8,
      "bendActive": true,
      "instrument": 0
    },
    {
      "id": "id_0ggn9dlwkmnv3kmnt",
      "pitch": 59,
      "pitchName": "B3",
      "frequencyHz": 246.941651,
      "startTick": 103200,
      "durationTicks": 120,
      "endTick": 103320,
      "startSeconds": 80.625,
      "durationSeconds": 0.094,
      "endSeconds": 80.719,
      "velocity": 0.25,
      "bendActive": true,
      "instrument": 1
    },
    {
      "id": "id_56gzhvnr9mnv3kmnt",
      "pitch": 63,
      "pitchName": "D#4",
      "frequencyHz": 311.126984,
      "startTick": 103200,
      "durationTicks": 120,
      "endTick": 103320,
      "startSeconds": 80.625,
      "durationSeconds": 0.094,
      "endSeconds": 80.719,
      "velocity": 0.25,
      "bendActive": true,
      "instrument": 1
    },
    {
      "id": "id_p3mri9yqcmnv3kmnt",
      "pitch": 44,
      "pitchName": "G#2",
      "frequencyHz": 103.826174,
      "startTick": 103440,
      "durationTicks": 240,
      "endTick": 103680,
      "startSeconds": 80.813,
      "durationSeconds": 0.188,
      "endSeconds": 81,
      "velocity": 0.8,
      "bendActive": true,
      "instrument": 0
    },
    {
      "id": "id_du2k0cut1mnv3kmnt",
      "pitch": 51,
      "pitchName": "D#3",
      "frequencyHz": 155.563492,
      "startTick": 103440,
      "durationTicks": 240,
      "endTick": 103680,
      "startSeconds": 80.813,
      "durationSeconds": 0.188,
      "endSeconds": 81,
      "velocity": 0.8,
      "bendActive": true,
      "instrument": 0
    },
    {
      "id": "id_3j4wemrrnmnv3kmnt",
      "pitch": 59,
      "pitchName": "B3",
      "frequencyHz": 246.941651,
      "startTick": 103440,
      "durationTicks": 240,
      "endTick": 103680,
      "startSeconds": 80.813,
      "durationSeconds": 0.188,
      "endSeconds": 81,
      "velocity": 0.25,
      "bendActive": true,
      "instrument": 1
    },
    {
      "id": "id_6nckjznw0mnv3kmnt",
      "pitch": 63,
      "pitchName": "D#4",
      "frequencyHz": 311.126984,
      "startTick": 103440,
      "durationTicks": 240,
      "endTick": 103680,
      "startSeconds": 80.813,
      "durationSeconds": 0.188,
      "endSeconds": 81,
      "velocity": 0.25,
      "bendActive": true,
      "instrument": 1
    },
    {
      "id": "id_ec4y7ssbamnv3kmnt",
      "pitch": 44,
      "pitchName": "G#2",
      "frequencyHz": 103.826174,
      "startTick": 103680,
      "durationTicks": 240,
      "endTick": 103920,
      "startSeconds": 81,
      "durationSeconds": 0.188,
      "endSeconds": 81.188,
      "velocity": 0.8,
      "bendActive": true,
      "instrument": 0
    },
    {
      "id": "id_nar54dxxmnv3kmnt",
      "pitch": 51,
      "pitchName": "D#3",
      "frequencyHz": 155.563492,
      "startTick": 103680,
      "durationTicks": 240,
      "endTick": 103920,
      "startSeconds": 81,
      "durationSeconds": 0.188,
      "endSeconds": 81.188,
      "velocity": 0.8,
      "bendActive": true,
      "instrument": 0
    },
    {
      "id": "id_orue0w99hmnv3kmnt",
      "pitch": 59,
      "pitchName": "B3",
      "frequencyHz": 246.941651,
      "startTick": 103680,
      "durationTicks": 240,
      "endTick": 103920,
      "startSeconds": 81,
      "durationSeconds": 0.188,
      "endSeconds": 81.188,
      "velocity": 0.25,
      "bendActive": true,
      "instrument": 1
    },
    {
      "id": "id_pr4dqndqcmnv3kmnt",
      "pitch": 63,
      "pitchName": "D#4",
      "frequencyHz": 311.126984,
      "startTick": 103680,
      "durationTicks": 240,
      "endTick": 103920,
      "startSeconds": 81,
      "durationSeconds": 0.188,
      "endSeconds": 81.188,
      "velocity": 0.25,
      "bendActive": true,
      "instrument": 1
    },
    {
      "id": "id_0ddt5lpjamnv3kmnt",
      "pitch": 44,
      "pitchName": "G#2",
      "frequencyHz": 103.826174,
      "startTick": 103920,
      "durationTicks": 120,
      "endTick": 104040,
      "startSeconds": 81.188,
      "durationSeconds": 0.094,
      "endSeconds": 81.281,
      "velocity": 0.8,
      "bendActive": true,
      "instrument": 0
    },
    {
      "id": "id_l1w2633ukmnv3kmnt",
      "pitch": 51,
      "pitchName": "D#3",
      "frequencyHz": 155.563492,
      "startTick": 103920,
      "durationTicks": 120,
      "endTick": 104040,
      "startSeconds": 81.188,
      "durationSeconds": 0.094,
      "endSeconds": 81.281,
      "velocity": 0.8,
      "bendActive": true,
      "instrument": 0
    },
    {
      "id": "id_8wqdcwgremnv3kmnt",
      "pitch": 59,
      "pitchName": "B3",
      "frequencyHz": 246.941651,
      "startTick": 103920,
      "durationTicks": 120,
      "endTick": 104040,
      "startSeconds": 81.188,
      "durationSeconds": 0.094,
      "endSeconds": 81.281,
      "velocity": 0.25,
      "bendActive": true,
      "instrument": 1
    },
    {
      "id": "id_u22srp8kpmnv3kmnt",
      "pitch": 63,
      "pitchName": "D#4",
      "frequencyHz": 311.126984,
      "startTick": 103920,
      "durationTicks": 120,
      "endTick": 104040,
      "startSeconds": 81.188,
      "durationSeconds": 0.094,
      "endSeconds": 81.281,
      "velocity": 0.25,
      "bendActive": true,
      "instrument": 1
    },
    {
      "id": "id_dl1s7jf7emnv3kmnt",
      "pitch": 44,
      "pitchName": "G#2",
      "frequencyHz": 103.826174,
      "startTick": 104160,
      "durationTicks": 120,
      "endTick": 104280,
      "startSeconds": 81.375,
      "durationSeconds": 0.094,
      "endSeconds": 81.469,
      "velocity": 0.8,
      "bendActive": true,
      "instrument": 0
    },
    {
      "id": "id_d91t3frujmnv3kmnt",
      "pitch": 51,
      "pitchName": "D#3",
      "frequencyHz": 155.563492,
      "startTick": 104160,
      "durationTicks": 120,
      "endTick": 104280,
      "startSeconds": 81.375,
      "durationSeconds": 0.094,
      "endSeconds": 81.469,
      "velocity": 0.8,
      "bendActive": true,
      "instrument": 0
    },
    {
      "id": "id_du7jrjdxumnv3kmnt",
      "pitch": 59,
      "pitchName": "B3",
      "frequencyHz": 246.941651,
      "startTick": 104160,
      "durationTicks": 120,
      "endTick": 104280,
      "startSeconds": 81.375,
      "durationSeconds": 0.094,
      "endSeconds": 81.469,
      "velocity": 0.25,
      "bendActive": true,
      "instrument": 1
    },
    {
      "id": "id_ryggmcjadmnv3kmnt",
      "pitch": 63,
      "pitchName": "D#4",
      "frequencyHz": 311.126984,
      "startTick": 104160,
      "durationTicks": 120,
      "endTick": 104280,
      "startSeconds": 81.375,
      "durationSeconds": 0.094,
      "endSeconds": 81.469,
      "velocity": 0.25,
      "bendActive": true,
      "instrument": 1
    },
    {
      "id": "id_clnrxcdwamnv3kmnt",
      "pitch": 44,
      "pitchName": "G#2",
      "frequencyHz": 103.826174,
      "startTick": 104400,
      "durationTicks": 240,
      "endTick": 104640,
      "startSeconds": 81.563,
      "durationSeconds": 0.188,
      "endSeconds": 81.75,
      "velocity": 0.8,
      "bendActive": true,
      "instrument": 0
    },
    {
      "id": "id_ks7x87o5xmnv3kmnt",
      "pitch": 51,
      "pitchName": "D#3",
      "frequencyHz": 155.563492,
      "startTick": 104400,
      "durationTicks": 240,
      "endTick": 104640,
      "startSeconds": 81.563,
      "durationSeconds": 0.188,
      "endSeconds": 81.75,
      "velocity": 0.8,
      "bendActive": true,
      "instrument": 0
    },
    {
      "id": "id_eeirzuh7zmnv3kmnt",
      "pitch": 59,
      "pitchName": "B3",
      "frequencyHz": 246.941651,
      "startTick": 104400,
      "durationTicks": 240,
      "endTick": 104640,
      "startSeconds": 81.563,
      "durationSeconds": 0.188,
      "endSeconds": 81.75,
      "velocity": 0.25,
      "bendActive": true,
      "instrument": 1
    },
    {
      "id": "id_kz3plr7o5mnv3kmnt",
      "pitch": 63,
      "pitchName": "D#4",
      "frequencyHz": 311.126984,
      "startTick": 104400,
      "durationTicks": 240,
      "endTick": 104640,
      "startSeconds": 81.563,
      "durationSeconds": 0.188,
      "endSeconds": 81.75,
      "velocity": 0.25,
      "bendActive": true,
      "instrument": 1
    },
    {
      "id": "id_qkf61ex65mnv3kmnt",
      "pitch": 44,
      "pitchName": "G#2",
      "frequencyHz": 103.826174,
      "startTick": 104640,
      "durationTicks": 120,
      "endTick": 104760,
      "startSeconds": 81.75,
      "durationSeconds": 0.094,
      "endSeconds": 81.844,
      "velocity": 0.8,
      "bendActive": true,
      "instrument": 0
    },
    {
      "id": "id_yyihijn33mnv3kmnt",
      "pitch": 51,
      "pitchName": "D#3",
      "frequencyHz": 155.563492,
      "startTick": 104640,
      "durationTicks": 120,
      "endTick": 104760,
      "startSeconds": 81.75,
      "durationSeconds": 0.094,
      "endSeconds": 81.844,
      "velocity": 0.8,
      "bendActive": true,
      "instrument": 0
    },
    {
      "id": "id_8olmjak7hmnv3kmnt",
      "pitch": 59,
      "pitchName": "B3",
      "frequencyHz": 246.941651,
      "startTick": 104640,
      "durationTicks": 120,
      "endTick": 104760,
      "startSeconds": 81.75,
      "durationSeconds": 0.094,
      "endSeconds": 81.844,
      "velocity": 0.25,
      "bendActive": true,
      "instrument": 1
    },
    {
      "id": "id_uxo9gwfvnmnv3kmnt",
      "pitch": 63,
      "pitchName": "D#4",
      "frequencyHz": 311.126984,
      "startTick": 104640,
      "durationTicks": 120,
      "endTick": 104760,
      "startSeconds": 81.75,
      "durationSeconds": 0.094,
      "endSeconds": 81.844,
      "velocity": 0.25,
      "bendActive": true,
      "instrument": 1
    },
    {
      "id": "id_dnpzlsms6mnv3kmnt",
      "pitch": 44,
      "pitchName": "G#2",
      "frequencyHz": 103.826174,
      "startTick": 104880,
      "durationTicks": 120,
      "endTick": 105000,
      "startSeconds": 81.938,
      "durationSeconds": 0.094,
      "endSeconds": 82.031,
      "velocity": 0.8,
      "bendActive": true,
      "instrument": 0
    },
    {
      "id": "id_g84zev53dmnv3kmnt",
      "pitch": 51,
      "pitchName": "D#3",
      "frequencyHz": 155.563492,
      "startTick": 104880,
      "durationTicks": 120,
      "endTick": 105000,
      "startSeconds": 81.938,
      "durationSeconds": 0.094,
      "endSeconds": 82.031,
      "velocity": 0.8,
      "bendActive": true,
      "instrument": 0
    },
    {
      "id": "id_mv3rd6v4jmnv3kmnt",
      "pitch": 59,
      "pitchName": "B3",
      "frequencyHz": 246.941651,
      "startTick": 104880,
      "durationTicks": 120,
      "endTick": 105000,
      "startSeconds": 81.938,
      "durationSeconds": 0.094,
      "endSeconds": 82.031,
      "velocity": 0.25,
      "bendActive": true,
      "instrument": 1
    },
    {
      "id": "id_8v54oqefqmnv3kmnt",
      "pitch": 63,
      "pitchName": "D#4",
      "frequencyHz": 311.126984,
      "startTick": 104880,
      "durationTicks": 120,
      "endTick": 105000,
      "startSeconds": 81.938,
      "durationSeconds": 0.094,
      "endSeconds": 82.031,
      "velocity": 0.25,
      "bendActive": true,
      "instrument": 1
    },
    {
      "id": "id_e721dsvr4mnv3kmnt",
      "pitch": 44,
      "pitchName": "G#2",
      "frequencyHz": 103.826174,
      "startTick": 105120,
      "durationTicks": 240,
      "endTick": 105360,
      "startSeconds": 82.125,
      "durationSeconds": 0.188,
      "endSeconds": 82.313,
      "velocity": 0.8,
      "bendActive": true,
      "instrument": 0
    },
    {
      "id": "id_9u7hkws9vmnv3kmnt",
      "pitch": 51,
      "pitchName": "D#3",
      "frequencyHz": 155.563492,
      "startTick": 105120,
      "durationTicks": 240,
      "endTick": 105360,
      "startSeconds": 82.125,
      "durationSeconds": 0.188,
      "endSeconds": 82.313,
      "velocity": 0.8,
      "bendActive": true,
      "instrument": 0
    },
    {
      "id": "id_0csho61qamnv3kmnt",
      "pitch": 59,
      "pitchName": "B3",
      "frequencyHz": 246.941651,
      "startTick": 105120,
      "durationTicks": 240,
      "endTick": 105360,
      "startSeconds": 82.125,
      "durationSeconds": 0.188,
      "endSeconds": 82.313,
      "velocity": 0.25,
      "bendActive": true,
      "instrument": 1
    },
    {
      "id": "id_9szohdnvwmnv3kmnt",
      "pitch": 63,
      "pitchName": "D#4",
      "frequencyHz": 311.126984,
      "startTick": 105120,
      "durationTicks": 240,
      "endTick": 105360,
      "startSeconds": 82.125,
      "durationSeconds": 0.188,
      "endSeconds": 82.313,
      "velocity": 0.25,
      "bendActive": true,
      "instrument": 1
    },
    {
      "id": "id_xiok00gbfmnv3kmnt",
      "pitch": 44,
      "pitchName": "G#2",
      "frequencyHz": 103.826174,
      "startTick": 105360,
      "durationTicks": 120,
      "endTick": 105480,
      "startSeconds": 82.313,
      "durationSeconds": 0.094,
      "endSeconds": 82.406,
      "velocity": 0.8,
      "bendActive": true,
      "instrument": 0
    },
    {
      "id": "id_6rxn99gsomnv3kmnt",
      "pitch": 51,
      "pitchName": "D#3",
      "frequencyHz": 155.563492,
      "startTick": 105360,
      "durationTicks": 120,
      "endTick": 105480,
      "startSeconds": 82.313,
      "durationSeconds": 0.094,
      "endSeconds": 82.406,
      "velocity": 0.8,
      "bendActive": true,
      "instrument": 0
    },
    {
      "id": "id_6up976et2mnv3kmnt",
      "pitch": 59,
      "pitchName": "B3",
      "frequencyHz": 246.941651,
      "startTick": 105360,
      "durationTicks": 120,
      "endTick": 105480,
      "startSeconds": 82.313,
      "durationSeconds": 0.094,
      "endSeconds": 82.406,
      "velocity": 0.25,
      "bendActive": true,
      "instrument": 1
    },
    {
      "id": "id_hbxg49nhumnv3kmnt",
      "pitch": 63,
      "pitchName": "D#4",
      "frequencyHz": 311.126984,
      "startTick": 105360,
      "durationTicks": 120,
      "endTick": 105480,
      "startSeconds": 82.313,
      "durationSeconds": 0.094,
      "endSeconds": 82.406,
      "velocity": 0.25,
      "bendActive": true,
      "instrument": 1
    },
    {
      "id": "id_k3k2lia7cmnv3kmnt",
      "pitch": 44,
      "pitchName": "G#2",
      "frequencyHz": 103.826174,
      "startTick": 105600,
      "durationTicks": 240,
      "endTick": 105840,
      "startSeconds": 82.5,
      "durationSeconds": 0.188,
      "endSeconds": 82.688,
      "velocity": 0.8,
      "bendActive": true,
      "instrument": 0
    },
    {
      "id": "id_fzpf033q1mnv3kmnt",
      "pitch": 51,
      "pitchName": "D#3",
      "frequencyHz": 155.563492,
      "startTick": 105600,
      "durationTicks": 240,
      "endTick": 105840,
      "startSeconds": 82.5,
      "durationSeconds": 0.188,
      "endSeconds": 82.688,
      "velocity": 0.8,
      "bendActive": true,
      "instrument": 0
    },
    {
      "id": "id_3bss1ls6vmnv3kmnt",
      "pitch": 59,
      "pitchName": "B3",
      "frequencyHz": 246.941651,
      "startTick": 105600,
      "durationTicks": 240,
      "endTick": 105840,
      "startSeconds": 82.5,
      "durationSeconds": 0.188,
      "endSeconds": 82.688,
      "velocity": 0.25,
      "bendActive": true,
      "instrument": 1
    },
    {
      "id": "id_61gfyimjvmnv3kmnt",
      "pitch": 63,
      "pitchName": "D#4",
      "frequencyHz": 311.126984,
      "startTick": 105600,
      "durationTicks": 240,
      "endTick": 105840,
      "startSeconds": 82.5,
      "durationSeconds": 0.188,
      "endSeconds": 82.688,
      "velocity": 0.25,
      "bendActive": true,
      "instrument": 1
    },
    {
      "id": "id_3qe9noidvmnv3kmnt",
      "pitch": 44,
      "pitchName": "G#2",
      "frequencyHz": 103.826174,
      "startTick": 105840,
      "durationTicks": 240,
      "endTick": 106080,
      "startSeconds": 82.688,
      "durationSeconds": 0.188,
      "endSeconds": 82.875,
      "velocity": 0.8,
      "bendActive": true,
      "instrument": 0
    },
    {
      "id": "id_0aopsdtpdmnv3kmnt",
      "pitch": 51,
      "pitchName": "D#3",
      "frequencyHz": 155.563492,
      "startTick": 105840,
      "durationTicks": 240,
      "endTick": 106080,
      "startSeconds": 82.688,
      "durationSeconds": 0.188,
      "endSeconds": 82.875,
      "velocity": 0.8,
      "bendActive": true,
      "instrument": 0
    },
    {
      "id": "id_ofzyz2qnemnv3kmnt",
      "pitch": 59,
      "pitchName": "B3",
      "frequencyHz": 246.941651,
      "startTick": 105840,
      "durationTicks": 240,
      "endTick": 106080,
      "startSeconds": 82.688,
      "durationSeconds": 0.188,
      "endSeconds": 82.875,
      "velocity": 0.25,
      "bendActive": true,
      "instrument": 1
    },
    {
      "id": "id_zog3zaunomnv3kmnt",
      "pitch": 63,
      "pitchName": "D#4",
      "frequencyHz": 311.126984,
      "startTick": 105840,
      "durationTicks": 240,
      "endTick": 106080,
      "startSeconds": 82.688,
      "durationSeconds": 0.188,
      "endSeconds": 82.875,
      "velocity": 0.25,
      "bendActive": true,
      "instrument": 1
    },
    {
      "id": "id_av06xw9blmnv3kmnt",
      "pitch": 44,
      "pitchName": "G#2",
      "frequencyHz": 103.826174,
      "startTick": 106080,
      "durationTicks": 120,
      "endTick": 106200,
      "startSeconds": 82.875,
      "durationSeconds": 0.094,
      "endSeconds": 82.969,
      "velocity": 0.8,
      "bendActive": true,
      "instrument": 0
    },
    {
      "id": "id_26lamntsmmnv3kmnt",
      "pitch": 51,
      "pitchName": "D#3",
      "frequencyHz": 155.563492,
      "startTick": 106080,
      "durationTicks": 120,
      "endTick": 106200,
      "startSeconds": 82.875,
      "durationSeconds": 0.094,
      "endSeconds": 82.969,
      "velocity": 0.8,
      "bendActive": true,
      "instrument": 0
    },
    {
      "id": "id_ml2nx41wimnv3kmnt",
      "pitch": 59,
      "pitchName": "B3",
      "frequencyHz": 246.941651,
      "startTick": 106080,
      "durationTicks": 120,
      "endTick": 106200,
      "startSeconds": 82.875,
      "durationSeconds": 0.094,
      "endSeconds": 82.969,
      "velocity": 0.25,
      "bendActive": true,
      "instrument": 1
    },
    {
      "id": "id_bzh1nefj5mnv3kmnt",
      "pitch": 63,
      "pitchName": "D#4",
      "frequencyHz": 311.126984,
      "startTick": 106080,
      "durationTicks": 120,
      "endTick": 106200,
      "startSeconds": 82.875,
      "durationSeconds": 0.094,
      "endSeconds": 82.969,
      "velocity": 0.25,
      "bendActive": true,
      "instrument": 1
    },
    {
      "id": "id_bz8hs5q5amnv3kmnt",
      "pitch": 44,
      "pitchName": "G#2",
      "frequencyHz": 103.826174,
      "startTick": 106320,
      "durationTicks": 240,
      "endTick": 106560,
      "startSeconds": 83.063,
      "durationSeconds": 0.188,
      "endSeconds": 83.25,
      "velocity": 0.8,
      "bendActive": true,
      "instrument": 0
    },
    {
      "id": "id_oyd9m6yoomnv3kmnt",
      "pitch": 51,
      "pitchName": "D#3",
      "frequencyHz": 155.563492,
      "startTick": 106320,
      "durationTicks": 240,
      "endTick": 106560,
      "startSeconds": 83.063,
      "durationSeconds": 0.188,
      "endSeconds": 83.25,
      "velocity": 0.8,
      "bendActive": true,
      "instrument": 0
    },
    {
      "id": "id_ysykgk538mnv3kmnt",
      "pitch": 59,
      "pitchName": "B3",
      "frequencyHz": 246.941651,
      "startTick": 106320,
      "durationTicks": 240,
      "endTick": 106560,
      "startSeconds": 83.063,
      "durationSeconds": 0.188,
      "endSeconds": 83.25,
      "velocity": 0.25,
      "bendActive": true,
      "instrument": 1
    },
    {
      "id": "id_h8mvufoommnv3kmnt",
      "pitch": 63,
      "pitchName": "D#4",
      "frequencyHz": 311.126984,
      "startTick": 106320,
      "durationTicks": 240,
      "endTick": 106560,
      "startSeconds": 83.063,
      "durationSeconds": 0.188,
      "endSeconds": 83.25,
      "velocity": 0.25,
      "bendActive": true,
      "instrument": 1
    },
    {
      "id": "id_fz4doy5remnv3kmnt",
      "pitch": 59,
      "pitchName": "B3",
      "frequencyHz": 246.941651,
      "startTick": 106560,
      "durationTicks": 240,
      "endTick": 106800,
      "startSeconds": 83.25,
      "durationSeconds": 0.188,
      "endSeconds": 83.438,
      "velocity": 0.8,
      "bendActive": true,
      "instrument": 0
    },
    {
      "id": "id_nwip7v7jzmnv4gcro",
      "pitch": 62,
      "pitchName": "D4",
      "frequencyHz": 293.664768,
      "startTick": 106560,
      "durationTicks": 240,
      "endTick": 106800,
      "startSeconds": 83.25,
      "durationSeconds": 0.188,
      "endSeconds": 83.438,
      "velocity": 0.25,
      "bendActive": true,
      "instrument": 1
    },
    {
      "id": "id_r5n7zuwzqmnv3kmnt",
      "pitch": 66,
      "pitchName": "F#4",
      "frequencyHz": 369.994423,
      "startTick": 106560,
      "durationTicks": 240,
      "endTick": 106800,
      "startSeconds": 83.25,
      "durationSeconds": 0.188,
      "endSeconds": 83.438,
      "velocity": 0.8,
      "bendActive": true,
      "instrument": 0
    },
    {
      "id": "id_sdfy1v54dmnv3olom",
      "pitch": 71,
      "pitchName": "B4",
      "frequencyHz": 493.883301,
      "startTick": 106560,
      "durationTicks": 240,
      "endTick": 106800,
      "startSeconds": 83.25,
      "durationSeconds": 0.188,
      "endSeconds": 83.438,
      "velocity": 0.25,
      "bendActive": true,
      "instrument": 1
    },
    {
      "id": "id_2rdcwd3fxmnv3kmnt",
      "pitch": 59,
      "pitchName": "B3",
      "frequencyHz": 246.941651,
      "startTick": 106800,
      "durationTicks": 120,
      "endTick": 106920,
      "startSeconds": 83.438,
      "durationSeconds": 0.094,
      "endSeconds": 83.531,
      "velocity": 0.8,
      "bendActive": true,
      "instrument": 0
    },
    {
      "id": "id_8vfh4effjmnv4gcro",
      "pitch": 62,
      "pitchName": "D4",
      "frequencyHz": 293.664768,
      "startTick": 106800,
      "durationTicks": 120,
      "endTick": 106920,
      "startSeconds": 83.438,
      "durationSeconds": 0.094,
      "endSeconds": 83.531,
      "velocity": 0.25,
      "bendActive": true,
      "instrument": 1
    },
    {
      "id": "id_f4ys7amwwmnv3kmnt",
      "pitch": 66,
      "pitchName": "F#4",
      "frequencyHz": 369.994423,
      "startTick": 106800,
      "durationTicks": 120,
      "endTick": 106920,
      "startSeconds": 83.438,
      "durationSeconds": 0.094,
      "endSeconds": 83.531,
      "velocity": 0.8,
      "bendActive": true,
      "instrument": 0
    },
    {
      "id": "id_81nwpls3dmnv3olom",
      "pitch": 71,
      "pitchName": "B4",
      "frequencyHz": 493.883301,
      "startTick": 106800,
      "durationTicks": 120,
      "endTick": 106920,
      "startSeconds": 83.438,
      "durationSeconds": 0.094,
      "endSeconds": 83.531,
      "velocity": 0.25,
      "bendActive": true,
      "instrument": 1
    },
    {
      "id": "id_8qrdqlpxwmnv3kmnt",
      "pitch": 59,
      "pitchName": "B3",
      "frequencyHz": 246.941651,
      "startTick": 107040,
      "durationTicks": 120,
      "endTick": 107160,
      "startSeconds": 83.625,
      "durationSeconds": 0.094,
      "endSeconds": 83.719,
      "velocity": 0.8,
      "bendActive": true,
      "instrument": 0
    },
    {
      "id": "id_wh3z9c3aumnv4gcro",
      "pitch": 62,
      "pitchName": "D4",
      "frequencyHz": 293.664768,
      "startTick": 107040,
      "durationTicks": 120,
      "endTick": 107160,
      "startSeconds": 83.625,
      "durationSeconds": 0.094,
      "endSeconds": 83.719,
      "velocity": 0.25,
      "bendActive": true,
      "instrument": 1
    },
    {
      "id": "id_sluvhl1mrmnv3kmnt",
      "pitch": 66,
      "pitchName": "F#4",
      "frequencyHz": 369.994423,
      "startTick": 107040,
      "durationTicks": 120,
      "endTick": 107160,
      "startSeconds": 83.625,
      "durationSeconds": 0.094,
      "endSeconds": 83.719,
      "velocity": 0.8,
      "bendActive": true,
      "instrument": 0
    },
    {
      "id": "id_l1sq9w637mnv3olom",
      "pitch": 71,
      "pitchName": "B4",
      "frequencyHz": 493.883301,
      "startTick": 107040,
      "durationTicks": 120,
      "endTick": 107160,
      "startSeconds": 83.625,
      "durationSeconds": 0.094,
      "endSeconds": 83.719,
      "velocity": 0.25,
      "bendActive": true,
      "instrument": 1
    },
    {
      "id": "id_gwwvqz8v2mnv3kmnt",
      "pitch": 59,
      "pitchName": "B3",
      "frequencyHz": 246.941651,
      "startTick": 107280,
      "durationTicks": 240,
      "endTick": 107520,
      "startSeconds": 83.813,
      "durationSeconds": 0.188,
      "endSeconds": 84,
      "velocity": 0.8,
      "bendActive": true,
      "instrument": 0
    },
    {
      "id": "id_pudas96c0mnv4gcro",
      "pitch": 62,
      "pitchName": "D4",
      "frequencyHz": 293.664768,
      "startTick": 107280,
      "durationTicks": 240,
      "endTick": 107520,
      "startSeconds": 83.813,
      "durationSeconds": 0.188,
      "endSeconds": 84,
      "velocity": 0.25,
      "bendActive": true,
      "instrument": 1
    },
    {
      "id": "id_72rk209s4mnv3kmnt",
      "pitch": 66,
      "pitchName": "F#4",
      "frequencyHz": 369.994423,
      "startTick": 107280,
      "durationTicks": 240,
      "endTick": 107520,
      "startSeconds": 83.813,
      "durationSeconds": 0.188,
      "endSeconds": 84,
      "velocity": 0.8,
      "bendActive": true,
      "instrument": 0
    },
    {
      "id": "id_gctaejlw4mnv3olom",
      "pitch": 71,
      "pitchName": "B4",
      "frequencyHz": 493.883301,
      "startTick": 107280,
      "durationTicks": 240,
      "endTick": 107520,
      "startSeconds": 83.813,
      "durationSeconds": 0.188,
      "endSeconds": 84,
      "velocity": 0.25,
      "bendActive": true,
      "instrument": 1
    },
    {
      "id": "id_xo78o7smsmnv3kmnt",
      "pitch": 59,
      "pitchName": "B3",
      "frequencyHz": 246.941651,
      "startTick": 107520,
      "durationTicks": 120,
      "endTick": 107640,
      "startSeconds": 84,
      "durationSeconds": 0.094,
      "endSeconds": 84.094,
      "velocity": 0.8,
      "bendActive": true,
      "instrument": 0
    },
    {
      "id": "id_zm4vgfh1hmnv4gcro",
      "pitch": 62,
      "pitchName": "D4",
      "frequencyHz": 293.664768,
      "startTick": 107520,
      "durationTicks": 120,
      "endTick": 107640,
      "startSeconds": 84,
      "durationSeconds": 0.094,
      "endSeconds": 84.094,
      "velocity": 0.25,
      "bendActive": true,
      "instrument": 1
    },
    {
      "id": "id_t15hiu0i0mnv3kmnt",
      "pitch": 66,
      "pitchName": "F#4",
      "frequencyHz": 369.994423,
      "startTick": 107520,
      "durationTicks": 120,
      "endTick": 107640,
      "startSeconds": 84,
      "durationSeconds": 0.094,
      "endSeconds": 84.094,
      "velocity": 0.8,
      "bendActive": true,
      "instrument": 0
    },
    {
      "id": "id_kaajj94pymnv3olom",
      "pitch": 71,
      "pitchName": "B4",
      "frequencyHz": 493.883301,
      "startTick": 107520,
      "durationTicks": 120,
      "endTick": 107640,
      "startSeconds": 84,
      "durationSeconds": 0.094,
      "endSeconds": 84.094,
      "velocity": 0.25,
      "bendActive": true,
      "instrument": 1
    },
    {
      "id": "id_zq9ndmjjzmnv3kmnt",
      "pitch": 59,
      "pitchName": "B3",
      "frequencyHz": 246.941651,
      "startTick": 107760,
      "durationTicks": 120,
      "endTick": 107880,
      "startSeconds": 84.188,
      "durationSeconds": 0.094,
      "endSeconds": 84.281,
      "velocity": 0.8,
      "bendActive": true,
      "instrument": 0
    },
    {
      "id": "id_9t0shppjimnv4gcro",
      "pitch": 62,
      "pitchName": "D4",
      "frequencyHz": 293.664768,
      "startTick": 107760,
      "durationTicks": 120,
      "endTick": 107880,
      "startSeconds": 84.188,
      "durationSeconds": 0.094,
      "endSeconds": 84.281,
      "velocity": 0.25,
      "bendActive": true,
      "instrument": 1
    },
    {
      "id": "id_pf7xu8d0lmnv3kmnt",
      "pitch": 66,
      "pitchName": "F#4",
      "frequencyHz": 369.994423,
      "startTick": 107760,
      "durationTicks": 120,
      "endTick": 107880,
      "startSeconds": 84.188,
      "durationSeconds": 0.094,
      "endSeconds": 84.281,
      "velocity": 0.8,
      "bendActive": true,
      "instrument": 0
    },
    {
      "id": "id_v3vprx5mxmnv3olom",
      "pitch": 71,
      "pitchName": "B4",
      "frequencyHz": 493.883301,
      "startTick": 107760,
      "durationTicks": 120,
      "endTick": 107880,
      "startSeconds": 84.188,
      "durationSeconds": 0.094,
      "endSeconds": 84.281,
      "velocity": 0.25,
      "bendActive": true,
      "instrument": 1
    },
    {
      "id": "id_vab50oqkxmnv3kmnt",
      "pitch": 59,
      "pitchName": "B3",
      "frequencyHz": 246.941651,
      "startTick": 108000,
      "durationTicks": 240,
      "endTick": 108240,
      "startSeconds": 84.375,
      "durationSeconds": 0.188,
      "endSeconds": 84.563,
      "velocity": 0.8,
      "bendActive": true,
      "instrument": 0
    },
    {
      "id": "id_qj95ev90qmnv4gcro",
      "pitch": 62,
      "pitchName": "D4",
      "frequencyHz": 293.664768,
      "startTick": 108000,
      "durationTicks": 240,
      "endTick": 108240,
      "startSeconds": 84.375,
      "durationSeconds": 0.188,
      "endSeconds": 84.563,
      "velocity": 0.25,
      "bendActive": true,
      "instrument": 1
    },
    {
      "id": "id_133piq0bsmnv3kmnt",
      "pitch": 66,
      "pitchName": "F#4",
      "frequencyHz": 369.994423,
      "startTick": 108000,
      "durationTicks": 240,
      "endTick": 108240,
      "startSeconds": 84.375,
      "durationSeconds": 0.188,
      "endSeconds": 84.563,
      "velocity": 0.8,
      "bendActive": true,
      "instrument": 0
    },
    {
      "id": "id_siu1rey4cmnv3olom",
      "pitch": 71,
      "pitchName": "B4",
      "frequencyHz": 493.883301,
      "startTick": 108000,
      "durationTicks": 240,
      "endTick": 108240,
      "startSeconds": 84.375,
      "durationSeconds": 0.188,
      "endSeconds": 84.563,
      "velocity": 0.25,
      "bendActive": true,
      "instrument": 1
    },
    {
      "id": "id_h3ghh3k2vmnv3kmnt",
      "pitch": 59,
      "pitchName": "B3",
      "frequencyHz": 246.941651,
      "startTick": 108240,
      "durationTicks": 240,
      "endTick": 108480,
      "startSeconds": 84.563,
      "durationSeconds": 0.188,
      "endSeconds": 84.75,
      "velocity": 0.8,
      "bendActive": true,
      "instrument": 0
    },
    {
      "id": "id_o8myerkf3mnv4gcro",
      "pitch": 62,
      "pitchName": "D4",
      "frequencyHz": 293.664768,
      "startTick": 108240,
      "durationTicks": 240,
      "endTick": 108480,
      "startSeconds": 84.563,
      "durationSeconds": 0.188,
      "endSeconds": 84.75,
      "velocity": 0.25,
      "bendActive": true,
      "instrument": 1
    },
    {
      "id": "id_k0own6ak6mnv3kmnt",
      "pitch": 66,
      "pitchName": "F#4",
      "frequencyHz": 369.994423,
      "startTick": 108240,
      "durationTicks": 240,
      "endTick": 108480,
      "startSeconds": 84.563,
      "durationSeconds": 0.188,
      "endSeconds": 84.75,
      "velocity": 0.8,
      "bendActive": true,
      "instrument": 0
    },
    {
      "id": "id_8vzi6zyglmnv3olom",
      "pitch": 71,
      "pitchName": "B4",
      "frequencyHz": 493.883301,
      "startTick": 108240,
      "durationTicks": 240,
      "endTick": 108480,
      "startSeconds": 84.563,
      "durationSeconds": 0.188,
      "endSeconds": 84.75,
      "velocity": 0.25,
      "bendActive": true,
      "instrument": 1
    },
    {
      "id": "id_n0wcebgg4mnv3kmnt",
      "pitch": 59,
      "pitchName": "B3",
      "frequencyHz": 246.941651,
      "startTick": 108480,
      "durationTicks": 120,
      "endTick": 108600,
      "startSeconds": 84.75,
      "durationSeconds": 0.094,
      "endSeconds": 84.844,
      "velocity": 0.8,
      "bendActive": true,
      "instrument": 0
    },
    {
      "id": "id_ylhorb6wcmnv4gcro",
      "pitch": 62,
      "pitchName": "D4",
      "frequencyHz": 293.664768,
      "startTick": 108480,
      "durationTicks": 120,
      "endTick": 108600,
      "startSeconds": 84.75,
      "durationSeconds": 0.094,
      "endSeconds": 84.844,
      "velocity": 0.25,
      "bendActive": true,
      "instrument": 1
    },
    {
      "id": "id_xrzqdjdgamnv3kmnt",
      "pitch": 66,
      "pitchName": "F#4",
      "frequencyHz": 369.994423,
      "startTick": 108480,
      "durationTicks": 120,
      "endTick": 108600,
      "startSeconds": 84.75,
      "durationSeconds": 0.094,
      "endSeconds": 84.844,
      "velocity": 0.8,
      "bendActive": true,
      "instrument": 0
    },
    {
      "id": "id_9em7aziw7mnv3olom",
      "pitch": 71,
      "pitchName": "B4",
      "frequencyHz": 493.883301,
      "startTick": 108480,
      "durationTicks": 120,
      "endTick": 108600,
      "startSeconds": 84.75,
      "durationSeconds": 0.094,
      "endSeconds": 84.844,
      "velocity": 0.25,
      "bendActive": true,
      "instrument": 1
    },
    {
      "id": "id_wh1way8xwmnv3kmnt",
      "pitch": 59,
      "pitchName": "B3",
      "frequencyHz": 246.941651,
      "startTick": 108720,
      "durationTicks": 240,
      "endTick": 108960,
      "startSeconds": 84.938,
      "durationSeconds": 0.188,
      "endSeconds": 85.125,
      "velocity": 0.8,
      "bendActive": true,
      "instrument": 0
    },
    {
      "id": "id_1tv74nxfomnv4gcro",
      "pitch": 62,
      "pitchName": "D4",
      "frequencyHz": 293.664768,
      "startTick": 108720,
      "durationTicks": 240,
      "endTick": 108960,
      "startSeconds": 84.938,
      "durationSeconds": 0.188,
      "endSeconds": 85.125,
      "velocity": 0.25,
      "bendActive": true,
      "instrument": 1
    },
    {
      "id": "id_qrh2pkuu2mnv3kmnt",
      "pitch": 66,
      "pitchName": "F#4",
      "frequencyHz": 369.994423,
      "startTick": 108720,
      "durationTicks": 240,
      "endTick": 108960,
      "startSeconds": 84.938,
      "durationSeconds": 0.188,
      "endSeconds": 85.125,
      "velocity": 0.8,
      "bendActive": true,
      "instrument": 0
    },
    {
      "id": "id_q0slaklcomnv3olom",
      "pitch": 71,
      "pitchName": "B4",
      "frequencyHz": 493.883301,
      "startTick": 108720,
      "durationTicks": 240,
      "endTick": 108960,
      "startSeconds": 84.938,
      "durationSeconds": 0.188,
      "endSeconds": 85.125,
      "velocity": 0.25,
      "bendActive": true,
      "instrument": 1
    },
    {
      "id": "id_wbimlx0xpmnv3kmnt",
      "pitch": 59,
      "pitchName": "B3",
      "frequencyHz": 246.941651,
      "startTick": 108960,
      "durationTicks": 120,
      "endTick": 109080,
      "startSeconds": 85.125,
      "durationSeconds": 0.094,
      "endSeconds": 85.219,
      "velocity": 0.8,
      "bendActive": true,
      "instrument": 0
    },
    {
      "id": "id_w2d0mbohzmnv4gcro",
      "pitch": 62,
      "pitchName": "D4",
      "frequencyHz": 293.664768,
      "startTick": 108960,
      "durationTicks": 120,
      "endTick": 109080,
      "startSeconds": 85.125,
      "durationSeconds": 0.094,
      "endSeconds": 85.219,
      "velocity": 0.25,
      "bendActive": true,
      "instrument": 1
    },
    {
      "id": "id_v1j1gt6q1mnv3kmnt",
      "pitch": 66,
      "pitchName": "F#4",
      "frequencyHz": 369.994423,
      "startTick": 108960,
      "durationTicks": 120,
      "endTick": 109080,
      "startSeconds": 85.125,
      "durationSeconds": 0.094,
      "endSeconds": 85.219,
      "velocity": 0.8,
      "bendActive": true,
      "instrument": 0
    },
    {
      "id": "id_4f671ofoumnv3olom",
      "pitch": 71,
      "pitchName": "B4",
      "frequencyHz": 493.883301,
      "startTick": 108960,
      "durationTicks": 120,
      "endTick": 109080,
      "startSeconds": 85.125,
      "durationSeconds": 0.094,
      "endSeconds": 85.219,
      "velocity": 0.25,
      "bendActive": true,
      "instrument": 1
    },
    {
      "id": "id_nqbtxo7kmmnv3kmnt",
      "pitch": 59,
      "pitchName": "B3",
      "frequencyHz": 246.941651,
      "startTick": 109200,
      "durationTicks": 240,
      "endTick": 109440,
      "startSeconds": 85.313,
      "durationSeconds": 0.188,
      "endSeconds": 85.5,
      "velocity": 0.8,
      "bendActive": true,
      "instrument": 0
    },
    {
      "id": "id_s6ra349y4mnv4gcro",
      "pitch": 62,
      "pitchName": "D4",
      "frequencyHz": 293.664768,
      "startTick": 109200,
      "durationTicks": 240,
      "endTick": 109440,
      "startSeconds": 85.313,
      "durationSeconds": 0.188,
      "endSeconds": 85.5,
      "velocity": 0.25,
      "bendActive": true,
      "instrument": 1
    },
    {
      "id": "id_ztp8jqu2vmnv3kmnt",
      "pitch": 66,
      "pitchName": "F#4",
      "frequencyHz": 369.994423,
      "startTick": 109200,
      "durationTicks": 240,
      "endTick": 109440,
      "startSeconds": 85.313,
      "durationSeconds": 0.188,
      "endSeconds": 85.5,
      "velocity": 0.8,
      "bendActive": true,
      "instrument": 0
    },
    {
      "id": "id_crd1h0s6nmnv3olom",
      "pitch": 71,
      "pitchName": "B4",
      "frequencyHz": 493.883301,
      "startTick": 109200,
      "durationTicks": 240,
      "endTick": 109440,
      "startSeconds": 85.313,
      "durationSeconds": 0.188,
      "endSeconds": 85.5,
      "velocity": 0.25,
      "bendActive": true,
      "instrument": 1
    },
    {
      "id": "id_5o643td6vmnv3kmnt",
      "pitch": 44,
      "pitchName": "G#2",
      "frequencyHz": 103.826174,
      "startTick": 109440,
      "durationTicks": 240,
      "endTick": 109680,
      "startSeconds": 85.5,
      "durationSeconds": 0.188,
      "endSeconds": 85.688,
      "velocity": 0.8,
      "bendActive": true,
      "instrument": 0
    },
    {
      "id": "id_a1je3ew34mnv3kmnt",
      "pitch": 51,
      "pitchName": "D#3",
      "frequencyHz": 155.563492,
      "startTick": 109440,
      "durationTicks": 240,
      "endTick": 109680,
      "startSeconds": 85.5,
      "durationSeconds": 0.188,
      "endSeconds": 85.688,
      "velocity": 0.8,
      "bendActive": true,
      "instrument": 0
    },
    {
      "id": "id_8hsruxstemnv3kmnt",
      "pitch": 59,
      "pitchName": "B3",
      "frequencyHz": 246.941651,
      "startTick": 109440,
      "durationTicks": 240,
      "endTick": 109680,
      "startSeconds": 85.5,
      "durationSeconds": 0.188,
      "endSeconds": 85.688,
      "velocity": 0.25,
      "bendActive": true,
      "instrument": 1
    },
    {
      "id": "id_yckwcepjtmnv3kmnt",
      "pitch": 63,
      "pitchName": "D#4",
      "frequencyHz": 311.126984,
      "startTick": 109440,
      "durationTicks": 240,
      "endTick": 109680,
      "startSeconds": 85.5,
      "durationSeconds": 0.188,
      "endSeconds": 85.688,
      "velocity": 0.25,
      "bendActive": true,
      "instrument": 1
    },
    {
      "id": "id_axrmv4012mnv3kmnt",
      "pitch": 44,
      "pitchName": "G#2",
      "frequencyHz": 103.826174,
      "startTick": 109680,
      "durationTicks": 120,
      "endTick": 109800,
      "startSeconds": 85.688,
      "durationSeconds": 0.094,
      "endSeconds": 85.781,
      "velocity": 0.8,
      "bendActive": true,
      "instrument": 0
    },
    {
      "id": "id_q3khgwpe1mnv3kmnt",
      "pitch": 51,
      "pitchName": "D#3",
      "frequencyHz": 155.563492,
      "startTick": 109680,
      "durationTicks": 120,
      "endTick": 109800,
      "startSeconds": 85.688,
      "durationSeconds": 0.094,
      "endSeconds": 85.781,
      "velocity": 0.8,
      "bendActive": true,
      "instrument": 0
    },
    {
      "id": "id_wqf9ugv0ymnv3kmnt",
      "pitch": 59,
      "pitchName": "B3",
      "frequencyHz": 246.941651,
      "startTick": 109680,
      "durationTicks": 120,
      "endTick": 109800,
      "startSeconds": 85.688,
      "durationSeconds": 0.094,
      "endSeconds": 85.781,
      "velocity": 0.25,
      "bendActive": true,
      "instrument": 1
    },
    {
      "id": "id_9eq0cba0fmnv3kmnt",
      "pitch": 63,
      "pitchName": "D#4",
      "frequencyHz": 311.126984,
      "startTick": 109680,
      "durationTicks": 120,
      "endTick": 109800,
      "startSeconds": 85.688,
      "durationSeconds": 0.094,
      "endSeconds": 85.781,
      "velocity": 0.25,
      "bendActive": true,
      "instrument": 1
    },
    {
      "id": "id_qsod0m7fgmnv3kmnt",
      "pitch": 44,
      "pitchName": "G#2",
      "frequencyHz": 103.826174,
      "startTick": 109920,
      "durationTicks": 120,
      "endTick": 110040,
      "startSeconds": 85.875,
      "durationSeconds": 0.094,
      "endSeconds": 85.969,
      "velocity": 0.8,
      "bendActive": true,
      "instrument": 0
    },
    {
      "id": "id_mvatisueomnv3kmnt",
      "pitch": 51,
      "pitchName": "D#3",
      "frequencyHz": 155.563492,
      "startTick": 109920,
      "durationTicks": 120,
      "endTick": 110040,
      "startSeconds": 85.875,
      "durationSeconds": 0.094,
      "endSeconds": 85.969,
      "velocity": 0.8,
      "bendActive": true,
      "instrument": 0
    },
    {
      "id": "id_nip5znu4dmnv3kmnt",
      "pitch": 59,
      "pitchName": "B3",
      "frequencyHz": 246.941651,
      "startTick": 109920,
      "durationTicks": 120,
      "endTick": 110040,
      "startSeconds": 85.875,
      "durationSeconds": 0.094,
      "endSeconds": 85.969,
      "velocity": 0.25,
      "bendActive": true,
      "instrument": 1
    },
    {
      "id": "id_zisp1pyncmnv3kmnt",
      "pitch": 63,
      "pitchName": "D#4",
      "frequencyHz": 311.126984,
      "startTick": 109920,
      "durationTicks": 120,
      "endTick": 110040,
      "startSeconds": 85.875,
      "durationSeconds": 0.094,
      "endSeconds": 85.969,
      "velocity": 0.25,
      "bendActive": true,
      "instrument": 1
    },
    {
      "id": "id_58bsx6dewmnv3kmnt",
      "pitch": 44,
      "pitchName": "G#2",
      "frequencyHz": 103.826174,
      "startTick": 110160,
      "durationTicks": 240,
      "endTick": 110400,
      "startSeconds": 86.063,
      "durationSeconds": 0.188,
      "endSeconds": 86.25,
      "velocity": 0.8,
      "bendActive": true,
      "instrument": 0
    },
    {
      "id": "id_lxn1c326gmnv3kmnt",
      "pitch": 51,
      "pitchName": "D#3",
      "frequencyHz": 155.563492,
      "startTick": 110160,
      "durationTicks": 240,
      "endTick": 110400,
      "startSeconds": 86.063,
      "durationSeconds": 0.188,
      "endSeconds": 86.25,
      "velocity": 0.8,
      "bendActive": true,
      "instrument": 0
    },
    {
      "id": "id_6t89bit48mnv3kmnt",
      "pitch": 59,
      "pitchName": "B3",
      "frequencyHz": 246.941651,
      "startTick": 110160,
      "durationTicks": 240,
      "endTick": 110400,
      "startSeconds": 86.063,
      "durationSeconds": 0.188,
      "endSeconds": 86.25,
      "velocity": 0.25,
      "bendActive": true,
      "instrument": 1
    },
    {
      "id": "id_nb5yucvkumnv3kmnt",
      "pitch": 63,
      "pitchName": "D#4",
      "frequencyHz": 311.126984,
      "startTick": 110160,
      "durationTicks": 240,
      "endTick": 110400,
      "startSeconds": 86.063,
      "durationSeconds": 0.188,
      "endSeconds": 86.25,
      "velocity": 0.25,
      "bendActive": true,
      "instrument": 1
    },
    {
      "id": "id_907ca3t64mnv3kmnt",
      "pitch": 44,
      "pitchName": "G#2",
      "frequencyHz": 103.826174,
      "startTick": 110400,
      "durationTicks": 120,
      "endTick": 110520,
      "startSeconds": 86.25,
      "durationSeconds": 0.094,
      "endSeconds": 86.344,
      "velocity": 0.8,
      "bendActive": true,
      "instrument": 0
    },
    {
      "id": "id_50h5wf2b3mnv3kmnt",
      "pitch": 51,
      "pitchName": "D#3",
      "frequencyHz": 155.563492,
      "startTick": 110400,
      "durationTicks": 120,
      "endTick": 110520,
      "startSeconds": 86.25,
      "durationSeconds": 0.094,
      "endSeconds": 86.344,
      "velocity": 0.8,
      "bendActive": true,
      "instrument": 0
    },
    {
      "id": "id_zyd5j5y4imnv3kmnt",
      "pitch": 59,
      "pitchName": "B3",
      "frequencyHz": 246.941651,
      "startTick": 110400,
      "durationTicks": 120,
      "endTick": 110520,
      "startSeconds": 86.25,
      "durationSeconds": 0.094,
      "endSeconds": 86.344,
      "velocity": 0.25,
      "bendActive": true,
      "instrument": 1
    },
    {
      "id": "id_mxs8ptdlcmnv3kmnt",
      "pitch": 63,
      "pitchName": "D#4",
      "frequencyHz": 311.126984,
      "startTick": 110400,
      "durationTicks": 120,
      "endTick": 110520,
      "startSeconds": 86.25,
      "durationSeconds": 0.094,
      "endSeconds": 86.344,
      "velocity": 0.25,
      "bendActive": true,
      "instrument": 1
    },
    {
      "id": "id_2qu9jgglrmnv3kmnt",
      "pitch": 44,
      "pitchName": "G#2",
      "frequencyHz": 103.826174,
      "startTick": 110640,
      "durationTicks": 120,
      "endTick": 110760,
      "startSeconds": 86.438,
      "durationSeconds": 0.094,
      "endSeconds": 86.531,
      "velocity": 0.8,
      "bendActive": true,
      "instrument": 0
    },
    {
      "id": "id_vfxenwjlqmnv3kmnt",
      "pitch": 51,
      "pitchName": "D#3",
      "frequencyHz": 155.563492,
      "startTick": 110640,
      "durationTicks": 120,
      "endTick": 110760,
      "startSeconds": 86.438,
      "durationSeconds": 0.094,
      "endSeconds": 86.531,
      "velocity": 0.8,
      "bendActive": true,
      "instrument": 0
    },
    {
      "id": "id_a2lkvpky0mnv3kmnt",
      "pitch": 59,
      "pitchName": "B3",
      "frequencyHz": 246.941651,
      "startTick": 110640,
      "durationTicks": 120,
      "endTick": 110760,
      "startSeconds": 86.438,
      "durationSeconds": 0.094,
      "endSeconds": 86.531,
      "velocity": 0.25,
      "bendActive": true,
      "instrument": 1
    },
    {
      "id": "id_xew26fn3pmnv3kmnt",
      "pitch": 63,
      "pitchName": "D#4",
      "frequencyHz": 311.126984,
      "startTick": 110640,
      "durationTicks": 120,
      "endTick": 110760,
      "startSeconds": 86.438,
      "durationSeconds": 0.094,
      "endSeconds": 86.531,
      "velocity": 0.25,
      "bendActive": true,
      "instrument": 1
    },
    {
      "id": "id_a8s66mj8ymnv3kmnt",
      "pitch": 44,
      "pitchName": "G#2",
      "frequencyHz": 103.826174,
      "startTick": 110880,
      "durationTicks": 240,
      "endTick": 111120,
      "startSeconds": 86.625,
      "durationSeconds": 0.188,
      "endSeconds": 86.813,
      "velocity": 0.8,
      "bendActive": true,
      "instrument": 0
    },
    {
      "id": "id_30jr9dutvmnv3kmnt",
      "pitch": 51,
      "pitchName": "D#3",
      "frequencyHz": 155.563492,
      "startTick": 110880,
      "durationTicks": 240,
      "endTick": 111120,
      "startSeconds": 86.625,
      "durationSeconds": 0.188,
      "endSeconds": 86.813,
      "velocity": 0.8,
      "bendActive": true,
      "instrument": 0
    },
    {
      "id": "id_ak53d1pf8mnv3kmnt",
      "pitch": 59,
      "pitchName": "B3",
      "frequencyHz": 246.941651,
      "startTick": 110880,
      "durationTicks": 240,
      "endTick": 111120,
      "startSeconds": 86.625,
      "durationSeconds": 0.188,
      "endSeconds": 86.813,
      "velocity": 0.25,
      "bendActive": true,
      "instrument": 1
    },
    {
      "id": "id_ofi0sljxamnv3kmnt",
      "pitch": 63,
      "pitchName": "D#4",
      "frequencyHz": 311.126984,
      "startTick": 110880,
      "durationTicks": 240,
      "endTick": 111120,
      "startSeconds": 86.625,
      "durationSeconds": 0.188,
      "endSeconds": 86.813,
      "velocity": 0.25,
      "bendActive": true,
      "instrument": 1
    },
    {
      "id": "id_81n6cvfl2mnv3kmnt",
      "pitch": 44,
      "pitchName": "G#2",
      "frequencyHz": 103.826174,
      "startTick": 111120,
      "durationTicks": 120,
      "endTick": 111240,
      "startSeconds": 86.813,
      "durationSeconds": 0.094,
      "endSeconds": 86.906,
      "velocity": 0.8,
      "bendActive": true,
      "instrument": 0
    },
    {
      "id": "id_hknlsaprgmnv3kmnt",
      "pitch": 51,
      "pitchName": "D#3",
      "frequencyHz": 155.563492,
      "startTick": 111120,
      "durationTicks": 120,
      "endTick": 111240,
      "startSeconds": 86.813,
      "durationSeconds": 0.094,
      "endSeconds": 86.906,
      "velocity": 0.8,
      "bendActive": true,
      "instrument": 0
    },
    {
      "id": "id_id0qzd0ssmnv3kmnt",
      "pitch": 59,
      "pitchName": "B3",
      "frequencyHz": 246.941651,
      "startTick": 111120,
      "durationTicks": 120,
      "endTick": 111240,
      "startSeconds": 86.813,
      "durationSeconds": 0.094,
      "endSeconds": 86.906,
      "velocity": 0.25,
      "bendActive": true,
      "instrument": 1
    },
    {
      "id": "id_2b5n56ncjmnv3kmnt",
      "pitch": 63,
      "pitchName": "D#4",
      "frequencyHz": 311.126984,
      "startTick": 111120,
      "durationTicks": 120,
      "endTick": 111240,
      "startSeconds": 86.813,
      "durationSeconds": 0.094,
      "endSeconds": 86.906,
      "velocity": 0.25,
      "bendActive": true,
      "instrument": 1
    },
    {
      "id": "id_nw06gze4mmnv3kmnt",
      "pitch": 44,
      "pitchName": "G#2",
      "frequencyHz": 103.826174,
      "startTick": 111360,
      "durationTicks": 240,
      "endTick": 111600,
      "startSeconds": 87,
      "durationSeconds": 0.188,
      "endSeconds": 87.188,
      "velocity": 0.8,
      "bendActive": true,
      "instrument": 0
    },
    {
      "id": "id_8k9i4g021mnv3kmnt",
      "pitch": 51,
      "pitchName": "D#3",
      "frequencyHz": 155.563492,
      "startTick": 111360,
      "durationTicks": 240,
      "endTick": 111600,
      "startSeconds": 87,
      "durationSeconds": 0.188,
      "endSeconds": 87.188,
      "velocity": 0.8,
      "bendActive": true,
      "instrument": 0
    },
    {
      "id": "id_a3shwpy8cmnv3kmnt",
      "pitch": 59,
      "pitchName": "B3",
      "frequencyHz": 246.941651,
      "startTick": 111360,
      "durationTicks": 240,
      "endTick": 111600,
      "startSeconds": 87,
      "durationSeconds": 0.188,
      "endSeconds": 87.188,
      "velocity": 0.25,
      "bendActive": true,
      "instrument": 1
    },
    {
      "id": "id_cclwy6j11mnv3kmnt",
      "pitch": 63,
      "pitchName": "D#4",
      "frequencyHz": 311.126984,
      "startTick": 111360,
      "durationTicks": 240,
      "endTick": 111600,
      "startSeconds": 87,
      "durationSeconds": 0.188,
      "endSeconds": 87.188,
      "velocity": 0.25,
      "bendActive": true,
      "instrument": 1
    },
    {
      "id": "id_mh9mo00tamnv3kmnt",
      "pitch": 44,
      "pitchName": "G#2",
      "frequencyHz": 103.826174,
      "startTick": 111600,
      "durationTicks": 240,
      "endTick": 111840,
      "startSeconds": 87.188,
      "durationSeconds": 0.188,
      "endSeconds": 87.375,
      "velocity": 0.8,
      "bendActive": true,
      "instrument": 0
    },
    {
      "id": "id_at5shrlm3mnv3kmnt",
      "pitch": 51,
      "pitchName": "D#3",
      "frequencyHz": 155.563492,
      "startTick": 111600,
      "durationTicks": 240,
      "endTick": 111840,
      "startSeconds": 87.188,
      "durationSeconds": 0.188,
      "endSeconds": 87.375,
      "velocity": 0.8,
      "bendActive": true,
      "instrument": 0
    },
    {
      "id": "id_obapui9pjmnv3kmnt",
      "pitch": 59,
      "pitchName": "B3",
      "frequencyHz": 246.941651,
      "startTick": 111600,
      "durationTicks": 240,
      "endTick": 111840,
      "startSeconds": 87.188,
      "durationSeconds": 0.188,
      "endSeconds": 87.375,
      "velocity": 0.25,
      "bendActive": true,
      "instrument": 1
    },
    {
      "id": "id_imzodfwa2mnv3kmnt",
      "pitch": 63,
      "pitchName": "D#4",
      "frequencyHz": 311.126984,
      "startTick": 111600,
      "durationTicks": 240,
      "endTick": 111840,
      "startSeconds": 87.188,
      "durationSeconds": 0.188,
      "endSeconds": 87.375,
      "velocity": 0.25,
      "bendActive": true,
      "instrument": 1
    },
    {
      "id": "id_uwh8c6ijpmnv3kmnt",
      "pitch": 44,
      "pitchName": "G#2",
      "frequencyHz": 103.826174,
      "startTick": 111840,
      "durationTicks": 120,
      "endTick": 111960,
      "startSeconds": 87.375,
      "durationSeconds": 0.094,
      "endSeconds": 87.469,
      "velocity": 0.8,
      "bendActive": true,
      "instrument": 0
    },
    {
      "id": "id_b79k29rf9mnv3kmnt",
      "pitch": 51,
      "pitchName": "D#3",
      "frequencyHz": 155.563492,
      "startTick": 111840,
      "durationTicks": 120,
      "endTick": 111960,
      "startSeconds": 87.375,
      "durationSeconds": 0.094,
      "endSeconds": 87.469,
      "velocity": 0.8,
      "bendActive": true,
      "instrument": 0
    },
    {
      "id": "id_t5cvj0z24mnv3kmnt",
      "pitch": 59,
      "pitchName": "B3",
      "frequencyHz": 246.941651,
      "startTick": 111840,
      "durationTicks": 120,
      "endTick": 111960,
      "startSeconds": 87.375,
      "durationSeconds": 0.094,
      "endSeconds": 87.469,
      "velocity": 0.25,
      "bendActive": true,
      "instrument": 1
    },
    {
      "id": "id_ruxqnz75cmnv3kmnt",
      "pitch": 63,
      "pitchName": "D#4",
      "frequencyHz": 311.126984,
      "startTick": 111840,
      "durationTicks": 120,
      "endTick": 111960,
      "startSeconds": 87.375,
      "durationSeconds": 0.094,
      "endSeconds": 87.469,
      "velocity": 0.25,
      "bendActive": true,
      "instrument": 1
    },
    {
      "id": "id_sai63qwy8mnv3kmnt",
      "pitch": 44,
      "pitchName": "G#2",
      "frequencyHz": 103.826174,
      "startTick": 112080,
      "durationTicks": 240,
      "endTick": 112320,
      "startSeconds": 87.563,
      "durationSeconds": 0.188,
      "endSeconds": 87.75,
      "velocity": 0.8,
      "bendActive": true,
      "instrument": 0
    },
    {
      "id": "id_aptqfhcmxmnv3kmnt",
      "pitch": 51,
      "pitchName": "D#3",
      "frequencyHz": 155.563492,
      "startTick": 112080,
      "durationTicks": 240,
      "endTick": 112320,
      "startSeconds": 87.563,
      "durationSeconds": 0.188,
      "endSeconds": 87.75,
      "velocity": 0.8,
      "bendActive": true,
      "instrument": 0
    },
    {
      "id": "id_biimhi21vmnv3kmnt",
      "pitch": 59,
      "pitchName": "B3",
      "frequencyHz": 246.941651,
      "startTick": 112080,
      "durationTicks": 240,
      "endTick": 112320,
      "startSeconds": 87.563,
      "durationSeconds": 0.188,
      "endSeconds": 87.75,
      "velocity": 0.25,
      "bendActive": true,
      "instrument": 1
    },
    {
      "id": "id_zc9ab1koqmnv3kmnt",
      "pitch": 63,
      "pitchName": "D#4",
      "frequencyHz": 311.126984,
      "startTick": 112080,
      "durationTicks": 240,
      "endTick": 112320,
      "startSeconds": 87.563,
      "durationSeconds": 0.188,
      "endSeconds": 87.75,
      "velocity": 0.25,
      "bendActive": true,
      "instrument": 1
    },
    {
      "id": "id_b9p5whk50mnv3kmnt",
      "pitch": 61,
      "pitchName": "C#4",
      "frequencyHz": 277.182631,
      "startTick": 112320,
      "durationTicks": 240,
      "endTick": 112560,
      "startSeconds": 87.75,
      "durationSeconds": 0.188,
      "endSeconds": 87.938,
      "velocity": 0.8,
      "bendActive": true,
      "instrument": 0
    },
    {
      "id": "id_2y6asqclnmnv3p0uo",
      "pitch": 64,
      "pitchName": "E4",
      "frequencyHz": 329.627557,
      "startTick": 112320,
      "durationTicks": 240,
      "endTick": 112560,
      "startSeconds": 87.75,
      "durationSeconds": 0.188,
      "endSeconds": 87.938,
      "velocity": 0.25,
      "bendActive": true,
      "instrument": 1
    },
    {
      "id": "id_veujw6m3wmnv3kmnt",
      "pitch": 68,
      "pitchName": "G#4",
      "frequencyHz": 415.304698,
      "startTick": 112320,
      "durationTicks": 240,
      "endTick": 112560,
      "startSeconds": 87.75,
      "durationSeconds": 0.188,
      "endSeconds": 87.938,
      "velocity": 0.8,
      "bendActive": true,
      "instrument": 0
    },
    {
      "id": "id_oqt0584crmnv3kmnt",
      "pitch": 73,
      "pitchName": "C#5",
      "frequencyHz": 554.365262,
      "startTick": 112320,
      "durationTicks": 240,
      "endTick": 112560,
      "startSeconds": 87.75,
      "durationSeconds": 0.188,
      "endSeconds": 87.938,
      "velocity": 0.25,
      "bendActive": true,
      "instrument": 1
    },
    {
      "id": "id_pjf31bpf7mnv3kmnt",
      "pitch": 61,
      "pitchName": "C#4",
      "frequencyHz": 277.182631,
      "startTick": 112560,
      "durationTicks": 120,
      "endTick": 112680,
      "startSeconds": 87.938,
      "durationSeconds": 0.094,
      "endSeconds": 88.031,
      "velocity": 0.8,
      "bendActive": true,
      "instrument": 0
    },
    {
      "id": "id_mtx47amwumnv3p0uo",
      "pitch": 64,
      "pitchName": "E4",
      "frequencyHz": 329.627557,
      "startTick": 112560,
      "durationTicks": 120,
      "endTick": 112680,
      "startSeconds": 87.938,
      "durationSeconds": 0.094,
      "endSeconds": 88.031,
      "velocity": 0.25,
      "bendActive": true,
      "instrument": 1
    },
    {
      "id": "id_85dkvqn4pmnv3kmnt",
      "pitch": 68,
      "pitchName": "G#4",
      "frequencyHz": 415.304698,
      "startTick": 112560,
      "durationTicks": 120,
      "endTick": 112680,
      "startSeconds": 87.938,
      "durationSeconds": 0.094,
      "endSeconds": 88.031,
      "velocity": 0.8,
      "bendActive": true,
      "instrument": 0
    },
    {
      "id": "id_pv7r3zsrqmnv3kmnt",
      "pitch": 73,
      "pitchName": "C#5",
      "frequencyHz": 554.365262,
      "startTick": 112560,
      "durationTicks": 120,
      "endTick": 112680,
      "startSeconds": 87.938,
      "durationSeconds": 0.094,
      "endSeconds": 88.031,
      "velocity": 0.25,
      "bendActive": true,
      "instrument": 1
    },
    {
      "id": "id_t2eq2wnn9mnv3kmnt",
      "pitch": 61,
      "pitchName": "C#4",
      "frequencyHz": 277.182631,
      "startTick": 112800,
      "durationTicks": 120,
      "endTick": 112920,
      "startSeconds": 88.125,
      "durationSeconds": 0.094,
      "endSeconds": 88.219,
      "velocity": 0.8,
      "bendActive": true,
      "instrument": 0
    },
    {
      "id": "id_bbry7ilxwmnv3p0uo",
      "pitch": 64,
      "pitchName": "E4",
      "frequencyHz": 329.627557,
      "startTick": 112800,
      "durationTicks": 120,
      "endTick": 112920,
      "startSeconds": 88.125,
      "durationSeconds": 0.094,
      "endSeconds": 88.219,
      "velocity": 0.25,
      "bendActive": true,
      "instrument": 1
    },
    {
      "id": "id_ylemuaeaqmnv3kmnt",
      "pitch": 68,
      "pitchName": "G#4",
      "frequencyHz": 415.304698,
      "startTick": 112800,
      "durationTicks": 120,
      "endTick": 112920,
      "startSeconds": 88.125,
      "durationSeconds": 0.094,
      "endSeconds": 88.219,
      "velocity": 0.8,
      "bendActive": true,
      "instrument": 0
    },
    {
      "id": "id_sidtfppkcmnv3kmnt",
      "pitch": 73,
      "pitchName": "C#5",
      "frequencyHz": 554.365262,
      "startTick": 112800,
      "durationTicks": 120,
      "endTick": 112920,
      "startSeconds": 88.125,
      "durationSeconds": 0.094,
      "endSeconds": 88.219,
      "velocity": 0.25,
      "bendActive": true,
      "instrument": 1
    },
    {
      "id": "id_3nboqvbojmnv3kmnt",
      "pitch": 61,
      "pitchName": "C#4",
      "frequencyHz": 277.182631,
      "startTick": 113040,
      "durationTicks": 240,
      "endTick": 113280,
      "startSeconds": 88.313,
      "durationSeconds": 0.188,
      "endSeconds": 88.5,
      "velocity": 0.8,
      "bendActive": true,
      "instrument": 0
    },
    {
      "id": "id_3foz9vehvmnv3p0uo",
      "pitch": 64,
      "pitchName": "E4",
      "frequencyHz": 329.627557,
      "startTick": 113040,
      "durationTicks": 240,
      "endTick": 113280,
      "startSeconds": 88.313,
      "durationSeconds": 0.188,
      "endSeconds": 88.5,
      "velocity": 0.25,
      "bendActive": true,
      "instrument": 1
    },
    {
      "id": "id_0g26lewhmmnv3kmnt",
      "pitch": 68,
      "pitchName": "G#4",
      "frequencyHz": 415.304698,
      "startTick": 113040,
      "durationTicks": 240,
      "endTick": 113280,
      "startSeconds": 88.313,
      "durationSeconds": 0.188,
      "endSeconds": 88.5,
      "velocity": 0.8,
      "bendActive": true,
      "instrument": 0
    },
    {
      "id": "id_n744lym1xmnv3kmnt",
      "pitch": 73,
      "pitchName": "C#5",
      "frequencyHz": 554.365262,
      "startTick": 113040,
      "durationTicks": 240,
      "endTick": 113280,
      "startSeconds": 88.313,
      "durationSeconds": 0.188,
      "endSeconds": 88.5,
      "velocity": 0.25,
      "bendActive": true,
      "instrument": 1
    },
    {
      "id": "id_huav8vlslmnv3kmnt",
      "pitch": 61,
      "pitchName": "C#4",
      "frequencyHz": 277.182631,
      "startTick": 113280,
      "durationTicks": 120,
      "endTick": 113400,
      "startSeconds": 88.5,
      "durationSeconds": 0.094,
      "endSeconds": 88.594,
      "velocity": 0.8,
      "bendActive": true,
      "instrument": 0
    },
    {
      "id": "id_lkvuk14rbmnv3p0uo",
      "pitch": 64,
      "pitchName": "E4",
      "frequencyHz": 329.627557,
      "startTick": 113280,
      "durationTicks": 120,
      "endTick": 113400,
      "startSeconds": 88.5,
      "durationSeconds": 0.094,
      "endSeconds": 88.594,
      "velocity": 0.25,
      "bendActive": true,
      "instrument": 1
    },
    {
      "id": "id_907rvx0mcmnv3kmnt",
      "pitch": 68,
      "pitchName": "G#4",
      "frequencyHz": 415.304698,
      "startTick": 113280,
      "durationTicks": 120,
      "endTick": 113400,
      "startSeconds": 88.5,
      "durationSeconds": 0.094,
      "endSeconds": 88.594,
      "velocity": 0.8,
      "bendActive": true,
      "instrument": 0
    },
    {
      "id": "id_wn9r8s1j3mnv3kmnt",
      "pitch": 73,
      "pitchName": "C#5",
      "frequencyHz": 554.365262,
      "startTick": 113280,
      "durationTicks": 120,
      "endTick": 113400,
      "startSeconds": 88.5,
      "durationSeconds": 0.094,
      "endSeconds": 88.594,
      "velocity": 0.25,
      "bendActive": true,
      "instrument": 1
    },
    {
      "id": "id_tclx6ighrmnv3kmnt",
      "pitch": 61,
      "pitchName": "C#4",
      "frequencyHz": 277.182631,
      "startTick": 113520,
      "durationTicks": 120,
      "endTick": 113640,
      "startSeconds": 88.688,
      "durationSeconds": 0.094,
      "endSeconds": 88.781,
      "velocity": 0.8,
      "bendActive": true,
      "instrument": 0
    },
    {
      "id": "id_68ryhve6amnv3p0uo",
      "pitch": 64,
      "pitchName": "E4",
      "frequencyHz": 329.627557,
      "startTick": 113520,
      "durationTicks": 120,
      "endTick": 113640,
      "startSeconds": 88.688,
      "durationSeconds": 0.094,
      "endSeconds": 88.781,
      "velocity": 0.25,
      "bendActive": true,
      "instrument": 1
    },
    {
      "id": "id_76mmlbhtvmnv3kmnt",
      "pitch": 68,
      "pitchName": "G#4",
      "frequencyHz": 415.304698,
      "startTick": 113520,
      "durationTicks": 120,
      "endTick": 113640,
      "startSeconds": 88.688,
      "durationSeconds": 0.094,
      "endSeconds": 88.781,
      "velocity": 0.8,
      "bendActive": true,
      "instrument": 0
    },
    {
      "id": "id_8zd8ta0a6mnv3kmnt",
      "pitch": 73,
      "pitchName": "C#5",
      "frequencyHz": 554.365262,
      "startTick": 113520,
      "durationTicks": 120,
      "endTick": 113640,
      "startSeconds": 88.688,
      "durationSeconds": 0.094,
      "endSeconds": 88.781,
      "velocity": 0.25,
      "bendActive": true,
      "instrument": 1
    },
    {
      "id": "id_wm4m24uokmnv3kmnt",
      "pitch": 61,
      "pitchName": "C#4",
      "frequencyHz": 277.182631,
      "startTick": 113760,
      "durationTicks": 240,
      "endTick": 114000,
      "startSeconds": 88.875,
      "durationSeconds": 0.188,
      "endSeconds": 89.063,
      "velocity": 0.8,
      "bendActive": true,
      "instrument": 0
    },
    {
      "id": "id_7km1tbb4lmnv3p0uo",
      "pitch": 64,
      "pitchName": "E4",
      "frequencyHz": 329.627557,
      "startTick": 113760,
      "durationTicks": 240,
      "endTick": 114000,
      "startSeconds": 88.875,
      "durationSeconds": 0.188,
      "endSeconds": 89.063,
      "velocity": 0.25,
      "bendActive": true,
      "instrument": 1
    },
    {
      "id": "id_fx36w28elmnv3kmnt",
      "pitch": 68,
      "pitchName": "G#4",
      "frequencyHz": 415.304698,
      "startTick": 113760,
      "durationTicks": 240,
      "endTick": 114000,
      "startSeconds": 88.875,
      "durationSeconds": 0.188,
      "endSeconds": 89.063,
      "velocity": 0.8,
      "bendActive": true,
      "instrument": 0
    },
    {
      "id": "id_fciskt9r2mnv3kmnt",
      "pitch": 73,
      "pitchName": "C#5",
      "frequencyHz": 554.365262,
      "startTick": 113760,
      "durationTicks": 240,
      "endTick": 114000,
      "startSeconds": 88.875,
      "durationSeconds": 0.188,
      "endSeconds": 89.063,
      "velocity": 0.25,
      "bendActive": true,
      "instrument": 1
    },
    {
      "id": "id_ufzwmmtpzmnv3kmnt",
      "pitch": 61,
      "pitchName": "C#4",
      "frequencyHz": 277.182631,
      "startTick": 114000,
      "durationTicks": 240,
      "endTick": 114240,
      "startSeconds": 89.063,
      "durationSeconds": 0.188,
      "endSeconds": 89.25,
      "velocity": 0.8,
      "bendActive": true,
      "instrument": 0
    },
    {
      "id": "id_6dcvoq36vmnv3p0uo",
      "pitch": 64,
      "pitchName": "E4",
      "frequencyHz": 329.627557,
      "startTick": 114000,
      "durationTicks": 240,
      "endTick": 114240,
      "startSeconds": 89.063,
      "durationSeconds": 0.188,
      "endSeconds": 89.25,
      "velocity": 0.25,
      "bendActive": true,
      "instrument": 1
    },
    {
      "id": "id_cuyd5w444mnv3kmnt",
      "pitch": 68,
      "pitchName": "G#4",
      "frequencyHz": 415.304698,
      "startTick": 114000,
      "durationTicks": 240,
      "endTick": 114240,
      "startSeconds": 89.063,
      "durationSeconds": 0.188,
      "endSeconds": 89.25,
      "velocity": 0.8,
      "bendActive": true,
      "instrument": 0
    },
    {
      "id": "id_gcdiu0dhlmnv3kmnt",
      "pitch": 73,
      "pitchName": "C#5",
      "frequencyHz": 554.365262,
      "startTick": 114000,
      "durationTicks": 240,
      "endTick": 114240,
      "startSeconds": 89.063,
      "durationSeconds": 0.188,
      "endSeconds": 89.25,
      "velocity": 0.25,
      "bendActive": true,
      "instrument": 1
    },
    {
      "id": "id_we9icv8womnv3kmnt",
      "pitch": 61,
      "pitchName": "C#4",
      "frequencyHz": 277.182631,
      "startTick": 114240,
      "durationTicks": 120,
      "endTick": 114360,
      "startSeconds": 89.25,
      "durationSeconds": 0.094,
      "endSeconds": 89.344,
      "velocity": 0.8,
      "bendActive": true,
      "instrument": 0
    },
    {
      "id": "id_shsh6wh25mnv3p0uo",
      "pitch": 64,
      "pitchName": "E4",
      "frequencyHz": 329.627557,
      "startTick": 114240,
      "durationTicks": 120,
      "endTick": 114360,
      "startSeconds": 89.25,
      "durationSeconds": 0.094,
      "endSeconds": 89.344,
      "velocity": 0.25,
      "bendActive": true,
      "instrument": 1
    },
    {
      "id": "id_l3asqoumdmnv3kmnt",
      "pitch": 68,
      "pitchName": "G#4",
      "frequencyHz": 415.304698,
      "startTick": 114240,
      "durationTicks": 120,
      "endTick": 114360,
      "startSeconds": 89.25,
      "durationSeconds": 0.094,
      "endSeconds": 89.344,
      "velocity": 0.8,
      "bendActive": true,
      "instrument": 0
    },
    {
      "id": "id_84h54tl72mnv3kmnt",
      "pitch": 73,
      "pitchName": "C#5",
      "frequencyHz": 554.365262,
      "startTick": 114240,
      "durationTicks": 120,
      "endTick": 114360,
      "startSeconds": 89.25,
      "durationSeconds": 0.094,
      "endSeconds": 89.344,
      "velocity": 0.25,
      "bendActive": true,
      "instrument": 1
    },
    {
      "id": "id_y0fy3s0w6mnv3kmnt",
      "pitch": 61,
      "pitchName": "C#4",
      "frequencyHz": 277.182631,
      "startTick": 114480,
      "durationTicks": 240,
      "endTick": 114720,
      "startSeconds": 89.438,
      "durationSeconds": 0.188,
      "endSeconds": 89.625,
      "velocity": 0.8,
      "bendActive": true,
      "instrument": 0
    },
    {
      "id": "id_avhe122vrmnv3p0uo",
      "pitch": 64,
      "pitchName": "E4",
      "frequencyHz": 329.627557,
      "startTick": 114480,
      "durationTicks": 240,
      "endTick": 114720,
      "startSeconds": 89.438,
      "durationSeconds": 0.188,
      "endSeconds": 89.625,
      "velocity": 0.25,
      "bendActive": true,
      "instrument": 1
    },
    {
      "id": "id_fohzkoa30mnv3kmnt",
      "pitch": 68,
      "pitchName": "G#4",
      "frequencyHz": 415.304698,
      "startTick": 114480,
      "durationTicks": 240,
      "endTick": 114720,
      "startSeconds": 89.438,
      "durationSeconds": 0.188,
      "endSeconds": 89.625,
      "velocity": 0.8,
      "bendActive": true,
      "instrument": 0
    },
    {
      "id": "id_hdwkq761emnv3kmnt",
      "pitch": 73,
      "pitchName": "C#5",
      "frequencyHz": 554.365262,
      "startTick": 114480,
      "durationTicks": 240,
      "endTick": 114720,
      "startSeconds": 89.438,
      "durationSeconds": 0.188,
      "endSeconds": 89.625,
      "velocity": 0.25,
      "bendActive": true,
      "instrument": 1
    },
    {
      "id": "id_3efkxny3xmnv3kmnt",
      "pitch": 61,
      "pitchName": "C#4",
      "frequencyHz": 277.182631,
      "startTick": 114720,
      "durationTicks": 120,
      "endTick": 114840,
      "startSeconds": 89.625,
      "durationSeconds": 0.094,
      "endSeconds": 89.719,
      "velocity": 0.8,
      "bendActive": true,
      "instrument": 0
    },
    {
      "id": "id_srt9y0k8omnv3p0uo",
      "pitch": 64,
      "pitchName": "E4",
      "frequencyHz": 329.627557,
      "startTick": 114720,
      "durationTicks": 120,
      "endTick": 114840,
      "startSeconds": 89.625,
      "durationSeconds": 0.094,
      "endSeconds": 89.719,
      "velocity": 0.25,
      "bendActive": true,
      "instrument": 1
    },
    {
      "id": "id_tinllfnghmnv3kmnt",
      "pitch": 68,
      "pitchName": "G#4",
      "frequencyHz": 415.304698,
      "startTick": 114720,
      "durationTicks": 120,
      "endTick": 114840,
      "startSeconds": 89.625,
      "durationSeconds": 0.094,
      "endSeconds": 89.719,
      "velocity": 0.8,
      "bendActive": true,
      "instrument": 0
    },
    {
      "id": "id_fywci0vqnmnv3kmnt",
      "pitch": 73,
      "pitchName": "C#5",
      "frequencyHz": 554.365262,
      "startTick": 114720,
      "durationTicks": 120,
      "endTick": 114840,
      "startSeconds": 89.625,
      "durationSeconds": 0.094,
      "endSeconds": 89.719,
      "velocity": 0.25,
      "bendActive": true,
      "instrument": 1
    },
    {
      "id": "id_uvupqc5ljmnv3kmnt",
      "pitch": 61,
      "pitchName": "C#4",
      "frequencyHz": 277.182631,
      "startTick": 114960,
      "durationTicks": 240,
      "endTick": 115200,
      "startSeconds": 89.813,
      "durationSeconds": 0.188,
      "endSeconds": 90,
      "velocity": 0.8,
      "bendActive": true,
      "instrument": 0
    },
    {
      "id": "id_bkw455ltnmnv3p0uo",
      "pitch": 64,
      "pitchName": "E4",
      "frequencyHz": 329.627557,
      "startTick": 114960,
      "durationTicks": 240,
      "endTick": 115200,
      "startSeconds": 89.813,
      "durationSeconds": 0.188,
      "endSeconds": 90,
      "velocity": 0.25,
      "bendActive": true,
      "instrument": 1
    },
    {
      "id": "id_156x1vtcnmnv3kmnt",
      "pitch": 68,
      "pitchName": "G#4",
      "frequencyHz": 415.304698,
      "startTick": 114960,
      "durationTicks": 240,
      "endTick": 115200,
      "startSeconds": 89.813,
      "durationSeconds": 0.188,
      "endSeconds": 90,
      "velocity": 0.8,
      "bendActive": true,
      "instrument": 0
    },
    {
      "id": "id_ccl8rjyfemnv3kmnt",
      "pitch": 73,
      "pitchName": "C#5",
      "frequencyHz": 554.365262,
      "startTick": 114960,
      "durationTicks": 240,
      "endTick": 115200,
      "startSeconds": 89.813,
      "durationSeconds": 0.188,
      "endSeconds": 90,
      "velocity": 0.25,
      "bendActive": true,
      "instrument": 1
    },
    {
      "id": "id_vh5j78b0smnv3kmnt",
      "pitch": 37,
      "pitchName": "C#2",
      "frequencyHz": 69.295658,
      "startTick": 115200,
      "durationTicks": 240,
      "endTick": 115440,
      "startSeconds": 90,
      "durationSeconds": 0.188,
      "endSeconds": 90.188,
      "velocity": 0.8,
      "bendActive": true,
      "instrument": 0
    },
    {
      "id": "id_3aobjdfkomnv3kmnt",
      "pitch": 64,
      "pitchName": "E4",
      "frequencyHz": 329.627557,
      "startTick": 115200,
      "durationTicks": 240,
      "endTick": 115440,
      "startSeconds": 90,
      "durationSeconds": 0.188,
      "endSeconds": 90.188,
      "velocity": 0.8,
      "bendActive": true,
      "instrument": 0
    },
    {
      "id": "id_syh9fjvrfmnv3qdvx",
      "pitch": 68,
      "pitchName": "G#4",
      "frequencyHz": 415.304698,
      "startTick": 115200,
      "durationTicks": 240,
      "endTick": 115440,
      "startSeconds": 90,
      "durationSeconds": 0.188,
      "endSeconds": 90.188,
      "velocity": 0.25,
      "bendActive": true,
      "instrument": 1
    },
    {
      "id": "id_pde5wsq22mnv3kmnt",
      "pitch": 73,
      "pitchName": "C#5",
      "frequencyHz": 554.365262,
      "startTick": 115200,
      "durationTicks": 240,
      "endTick": 115440,
      "startSeconds": 90,
      "durationSeconds": 0.188,
      "endSeconds": 90.188,
      "velocity": 0.25,
      "bendActive": true,
      "instrument": 1
    },
    {
      "id": "id_xgoat5ye8mnv3kmnt",
      "pitch": 37,
      "pitchName": "C#2",
      "frequencyHz": 69.295658,
      "startTick": 115440,
      "durationTicks": 120,
      "endTick": 115560,
      "startSeconds": 90.188,
      "durationSeconds": 0.094,
      "endSeconds": 90.281,
      "velocity": 0.8,
      "bendActive": true,
      "instrument": 0
    },
    {
      "id": "id_b6tcccgwgmnv3kmnt",
      "pitch": 64,
      "pitchName": "E4",
      "frequencyHz": 329.627557,
      "startTick": 115440,
      "durationTicks": 120,
      "endTick": 115560,
      "startSeconds": 90.188,
      "durationSeconds": 0.094,
      "endSeconds": 90.281,
      "velocity": 0.8,
      "bendActive": true,
      "instrument": 0
    },
    {
      "id": "id_v0dcmxep1mnv3qdvx",
      "pitch": 68,
      "pitchName": "G#4",
      "frequencyHz": 415.304698,
      "startTick": 115440,
      "durationTicks": 120,
      "endTick": 115560,
      "startSeconds": 90.188,
      "durationSeconds": 0.094,
      "endSeconds": 90.281,
      "velocity": 0.25,
      "bendActive": true,
      "instrument": 1
    },
    {
      "id": "id_2ltnapqg7mnv3kmnt",
      "pitch": 73,
      "pitchName": "C#5",
      "frequencyHz": 554.365262,
      "startTick": 115440,
      "durationTicks": 120,
      "endTick": 115560,
      "startSeconds": 90.188,
      "durationSeconds": 0.094,
      "endSeconds": 90.281,
      "velocity": 0.25,
      "bendActive": true,
      "instrument": 1
    },
    {
      "id": "id_zjs3uaaowmnv3kmnt",
      "pitch": 37,
      "pitchName": "C#2",
      "frequencyHz": 69.295658,
      "startTick": 115680,
      "durationTicks": 120,
      "endTick": 115800,
      "startSeconds": 90.375,
      "durationSeconds": 0.094,
      "endSeconds": 90.469,
      "velocity": 0.8,
      "bendActive": true,
      "instrument": 0
    },
    {
      "id": "id_26uxcbrnfmnv3kmnt",
      "pitch": 64,
      "pitchName": "E4",
      "frequencyHz": 329.627557,
      "startTick": 115680,
      "durationTicks": 120,
      "endTick": 115800,
      "startSeconds": 90.375,
      "durationSeconds": 0.094,
      "endSeconds": 90.469,
      "velocity": 0.8,
      "bendActive": true,
      "instrument": 0
    },
    {
      "id": "id_4mvcnmkmcmnv3qdvx",
      "pitch": 68,
      "pitchName": "G#4",
      "frequencyHz": 415.304698,
      "startTick": 115680,
      "durationTicks": 120,
      "endTick": 115800,
      "startSeconds": 90.375,
      "durationSeconds": 0.094,
      "endSeconds": 90.469,
      "velocity": 0.25,
      "bendActive": true,
      "instrument": 1
    },
    {
      "id": "id_ljrvpfbqkmnv3kmnt",
      "pitch": 73,
      "pitchName": "C#5",
      "frequencyHz": 554.365262,
      "startTick": 115680,
      "durationTicks": 120,
      "endTick": 115800,
      "startSeconds": 90.375,
      "durationSeconds": 0.094,
      "endSeconds": 90.469,
      "velocity": 0.25,
      "bendActive": true,
      "instrument": 1
    },
    {
      "id": "id_n6himqc3omnv3kmnt",
      "pitch": 37,
      "pitchName": "C#2",
      "frequencyHz": 69.295658,
      "startTick": 115920,
      "durationTicks": 240,
      "endTick": 116160,
      "startSeconds": 90.563,
      "durationSeconds": 0.188,
      "endSeconds": 90.75,
      "velocity": 0.8,
      "bendActive": true,
      "instrument": 0
    },
    {
      "id": "id_1b3u73m8gmnv3kmnt",
      "pitch": 64,
      "pitchName": "E4",
      "frequencyHz": 329.627557,
      "startTick": 115920,
      "durationTicks": 240,
      "endTick": 116160,
      "startSeconds": 90.563,
      "durationSeconds": 0.188,
      "endSeconds": 90.75,
      "velocity": 0.8,
      "bendActive": true,
      "instrument": 0
    },
    {
      "id": "id_qmqv4t4vhmnv3qdvx",
      "pitch": 68,
      "pitchName": "G#4",
      "frequencyHz": 415.304698,
      "startTick": 115920,
      "durationTicks": 240,
      "endTick": 116160,
      "startSeconds": 90.563,
      "durationSeconds": 0.188,
      "endSeconds": 90.75,
      "velocity": 0.25,
      "bendActive": true,
      "instrument": 1
    },
    {
      "id": "id_wu7ctxziumnv3kmnt",
      "pitch": 73,
      "pitchName": "C#5",
      "frequencyHz": 554.365262,
      "startTick": 115920,
      "durationTicks": 240,
      "endTick": 116160,
      "startSeconds": 90.563,
      "durationSeconds": 0.188,
      "endSeconds": 90.75,
      "velocity": 0.25,
      "bendActive": true,
      "instrument": 1
    },
    {
      "id": "id_lk2doxte9mnv3kmnt",
      "pitch": 37,
      "pitchName": "C#2",
      "frequencyHz": 69.295658,
      "startTick": 116160,
      "durationTicks": 120,
      "endTick": 116280,
      "startSeconds": 90.75,
      "durationSeconds": 0.094,
      "endSeconds": 90.844,
      "velocity": 0.8,
      "bendActive": true,
      "instrument": 0
    },
    {
      "id": "id_t78t6z754mnv3kmnt",
      "pitch": 64,
      "pitchName": "E4",
      "frequencyHz": 329.627557,
      "startTick": 116160,
      "durationTicks": 120,
      "endTick": 116280,
      "startSeconds": 90.75,
      "durationSeconds": 0.094,
      "endSeconds": 90.844,
      "velocity": 0.8,
      "bendActive": true,
      "instrument": 0
    },
    {
      "id": "id_df5ee0tbmmnv3qdvx",
      "pitch": 68,
      "pitchName": "G#4",
      "frequencyHz": 415.304698,
      "startTick": 116160,
      "durationTicks": 120,
      "endTick": 116280,
      "startSeconds": 90.75,
      "durationSeconds": 0.094,
      "endSeconds": 90.844,
      "velocity": 0.25,
      "bendActive": true,
      "instrument": 1
    },
    {
      "id": "id_n7kvtkvpmmnv3kmnt",
      "pitch": 73,
      "pitchName": "C#5",
      "frequencyHz": 554.365262,
      "startTick": 116160,
      "durationTicks": 120,
      "endTick": 116280,
      "startSeconds": 90.75,
      "durationSeconds": 0.094,
      "endSeconds": 90.844,
      "velocity": 0.25,
      "bendActive": true,
      "instrument": 1
    },
    {
      "id": "id_na1pi02gumnv3kmnt",
      "pitch": 37,
      "pitchName": "C#2",
      "frequencyHz": 69.295658,
      "startTick": 116400,
      "durationTicks": 120,
      "endTick": 116520,
      "startSeconds": 90.938,
      "durationSeconds": 0.094,
      "endSeconds": 91.031,
      "velocity": 0.8,
      "bendActive": true,
      "instrument": 0
    },
    {
      "id": "id_qn8t1isbgmnv3kmnt",
      "pitch": 64,
      "pitchName": "E4",
      "frequencyHz": 329.627557,
      "startTick": 116400,
      "durationTicks": 120,
      "endTick": 116520,
      "startSeconds": 90.938,
      "durationSeconds": 0.094,
      "endSeconds": 91.031,
      "velocity": 0.8,
      "bendActive": true,
      "instrument": 0
    },
    {
      "id": "id_h7w5p3r1lmnv3qdvx",
      "pitch": 68,
      "pitchName": "G#4",
      "frequencyHz": 415.304698,
      "startTick": 116400,
      "durationTicks": 120,
      "endTick": 116520,
      "startSeconds": 90.938,
      "durationSeconds": 0.094,
      "endSeconds": 91.031,
      "velocity": 0.25,
      "bendActive": true,
      "instrument": 1
    },
    {
      "id": "id_y8i5t5mrnmnv3kmnt",
      "pitch": 73,
      "pitchName": "C#5",
      "frequencyHz": 554.365262,
      "startTick": 116400,
      "durationTicks": 120,
      "endTick": 116520,
      "startSeconds": 90.938,
      "durationSeconds": 0.094,
      "endSeconds": 91.031,
      "velocity": 0.25,
      "bendActive": true,
      "instrument": 1
    },
    {
      "id": "id_po3cae717mnv3kmnt",
      "pitch": 58,
      "pitchName": "A#3",
      "frequencyHz": 233.081881,
      "startTick": 116640,
      "durationTicks": 240,
      "endTick": 116880,
      "startSeconds": 91.125,
      "durationSeconds": 0.188,
      "endSeconds": 91.313,
      "velocity": 0.8,
      "bendActive": true,
      "instrument": 0
    },
    {
      "id": "id_cq932omkzmnv3kmnt",
      "pitch": 61,
      "pitchName": "C#4",
      "frequencyHz": 277.182631,
      "startTick": 116640,
      "durationTicks": 240,
      "endTick": 116880,
      "startSeconds": 91.125,
      "durationSeconds": 0.188,
      "endSeconds": 91.313,
      "velocity": 0.25,
      "bendActive": true,
      "instrument": 1
    },
    {
      "id": "id_wqmgufhrfmnv3kmnt",
      "pitch": 66,
      "pitchName": "F#4",
      "frequencyHz": 369.994423,
      "startTick": 116640,
      "durationTicks": 240,
      "endTick": 116880,
      "startSeconds": 91.125,
      "durationSeconds": 0.188,
      "endSeconds": 91.313,
      "velocity": 0.8,
      "bendActive": true,
      "instrument": 0
    },
    {
      "id": "id_42vr0d4zjmnv3kmnt",
      "pitch": 68,
      "pitchName": "G#4",
      "frequencyHz": 415.304698,
      "startTick": 116640,
      "durationTicks": 240,
      "endTick": 116880,
      "startSeconds": 91.125,
      "durationSeconds": 0.188,
      "endSeconds": 91.313,
      "velocity": 0.25,
      "bendActive": true,
      "instrument": 1
    },
    {
      "id": "id_3wfujqm7ymnv3kmnt",
      "pitch": 58,
      "pitchName": "A#3",
      "frequencyHz": 233.081881,
      "startTick": 116880,
      "durationTicks": 240,
      "endTick": 117120,
      "startSeconds": 91.313,
      "durationSeconds": 0.188,
      "endSeconds": 91.5,
      "velocity": 0.8,
      "bendActive": true,
      "instrument": 0
    },
    {
      "id": "id_sfh9roui5mnv3kmnt",
      "pitch": 61,
      "pitchName": "C#4",
      "frequencyHz": 277.182631,
      "startTick": 116880,
      "durationTicks": 240,
      "endTick": 117120,
      "startSeconds": 91.313,
      "durationSeconds": 0.188,
      "endSeconds": 91.5,
      "velocity": 0.25,
      "bendActive": true,
      "instrument": 1
    },
    {
      "id": "id_jiwgjkhz6mnv3kmnt",
      "pitch": 66,
      "pitchName": "F#4",
      "frequencyHz": 369.994423,
      "startTick": 116880,
      "durationTicks": 240,
      "endTick": 117120,
      "startSeconds": 91.313,
      "durationSeconds": 0.188,
      "endSeconds": 91.5,
      "velocity": 0.8,
      "bendActive": true,
      "instrument": 0
    },
    {
      "id": "id_que17m7wlmnv3kmnt",
      "pitch": 68,
      "pitchName": "G#4",
      "frequencyHz": 415.304698,
      "startTick": 116880,
      "durationTicks": 240,
      "endTick": 117120,
      "startSeconds": 91.313,
      "durationSeconds": 0.188,
      "endSeconds": 91.5,
      "velocity": 0.25,
      "bendActive": true,
      "instrument": 1
    },
    {
      "id": "id_cppoy1kp4mnv3kmnt",
      "pitch": 56,
      "pitchName": "G#3",
      "frequencyHz": 207.652349,
      "startTick": 117120,
      "durationTicks": 120,
      "endTick": 117240,
      "startSeconds": 91.5,
      "durationSeconds": 0.094,
      "endSeconds": 91.594,
      "velocity": 0.8,
      "bendActive": true,
      "instrument": 0
    },
    {
      "id": "id_g3jp2f1iymnv3kmnt",
      "pitch": 59,
      "pitchName": "B3",
      "frequencyHz": 246.941651,
      "startTick": 117120,
      "durationTicks": 120,
      "endTick": 117240,
      "startSeconds": 91.5,
      "durationSeconds": 0.094,
      "endSeconds": 91.594,
      "velocity": 0.25,
      "bendActive": true,
      "instrument": 1
    },
    {
      "id": "id_hrsf09rermnv3kmnt",
      "pitch": 64,
      "pitchName": "E4",
      "frequencyHz": 329.627557,
      "startTick": 117120,
      "durationTicks": 120,
      "endTick": 117240,
      "startSeconds": 91.5,
      "durationSeconds": 0.094,
      "endSeconds": 91.594,
      "velocity": 0.8,
      "bendActive": true,
      "instrument": 0
    },
    {
      "id": "id_kwueqe8aimnv3voq8",
      "pitch": 68,
      "pitchName": "G#4",
      "frequencyHz": 415.304698,
      "startTick": 117120,
      "durationTicks": 120,
      "endTick": 117240,
      "startSeconds": 91.5,
      "durationSeconds": 0.094,
      "endSeconds": 91.594,
      "velocity": 0.8,
      "bendActive": true,
      "instrument": 1
    },
    {
      "id": "id_00z8x9ndfmnv3kmnt",
      "pitch": 56,
      "pitchName": "G#3",
      "frequencyHz": 207.652349,
      "startTick": 117360,
      "durationTicks": 240,
      "endTick": 117600,
      "startSeconds": 91.688,
      "durationSeconds": 0.188,
      "endSeconds": 91.875,
      "velocity": 0.8,
      "bendActive": true,
      "instrument": 0
    },
    {
      "id": "id_3ein06oc6mnv3kmnt",
      "pitch": 59,
      "pitchName": "B3",
      "frequencyHz": 246.941651,
      "startTick": 117360,
      "durationTicks": 240,
      "endTick": 117600,
      "startSeconds": 91.688,
      "durationSeconds": 0.188,
      "endSeconds": 91.875,
      "velocity": 0.25,
      "bendActive": true,
      "instrument": 1
    },
    {
      "id": "id_g5bfvnsezmnv3kmnt",
      "pitch": 64,
      "pitchName": "E4",
      "frequencyHz": 329.627557,
      "startTick": 117360,
      "durationTicks": 240,
      "endTick": 117600,
      "startSeconds": 91.688,
      "durationSeconds": 0.188,
      "endSeconds": 91.875,
      "velocity": 0.8,
      "bendActive": true,
      "instrument": 0
    },
    {
      "id": "id_ptkktuw1imnv3vpgo",
      "pitch": 68,
      "pitchName": "G#4",
      "frequencyHz": 415.304698,
      "startTick": 117360,
      "durationTicks": 240,
      "endTick": 117600,
      "startSeconds": 91.688,
      "durationSeconds": 0.188,
      "endSeconds": 91.875,
      "velocity": 0.8,
      "bendActive": true,
      "instrument": 1
    },
    {
      "id": "id_vufyn24ppmnv3kmnt",
      "pitch": 54,
      "pitchName": "F#3",
      "frequencyHz": 184.997211,
      "startTick": 117600,
      "durationTicks": 240,
      "endTick": 117840,
      "startSeconds": 91.875,
      "durationSeconds": 0.188,
      "endSeconds": 92.063,
      "velocity": 0.8,
      "bendActive": true,
      "instrument": 0
    },
    {
      "id": "id_5g0875xmwmnv3kmnt",
      "pitch": 61,
      "pitchName": "C#4",
      "frequencyHz": 277.182631,
      "startTick": 117600,
      "durationTicks": 240,
      "endTick": 117840,
      "startSeconds": 91.875,
      "durationSeconds": 0.188,
      "endSeconds": 92.063,
      "velocity": 0.25,
      "bendActive": true,
      "instrument": 1
    },
    {
      "id": "id_qo7pn4vsbmnv3kmnt",
      "pitch": 63,
      "pitchName": "D#4",
      "frequencyHz": 311.126984,
      "startTick": 117600,
      "durationTicks": 240,
      "endTick": 117840,
      "startSeconds": 91.875,
      "durationSeconds": 0.188,
      "endSeconds": 92.063,
      "velocity": 0.8,
      "bendActive": true,
      "instrument": 0
    },
    {
      "id": "id_2wpgs8e3hmnv3kmnt",
      "pitch": 70,
      "pitchName": "A#4",
      "frequencyHz": 466.163762,
      "startTick": 117600,
      "durationTicks": 240,
      "endTick": 117840,
      "startSeconds": 91.875,
      "durationSeconds": 0.188,
      "endSeconds": 92.063,
      "velocity": 0.25,
      "bendActive": true,
      "instrument": 1
    },
    {
      "id": "id_gldd49ys7mnv3kmnt",
      "pitch": 54,
      "pitchName": "F#3",
      "frequencyHz": 184.997211,
      "startTick": 117840,
      "durationTicks": 120,
      "endTick": 117960,
      "startSeconds": 92.063,
      "durationSeconds": 0.094,
      "endSeconds": 92.156,
      "velocity": 0.8,
      "bendActive": true,
      "instrument": 0
    },
    {
      "id": "id_ib2mnqaddmnv3rqic",
      "pitch": 61,
      "pitchName": "C#4",
      "frequencyHz": 277.182631,
      "startTick": 117840,
      "durationTicks": 120,
      "endTick": 117960,
      "startSeconds": 92.063,
      "durationSeconds": 0.094,
      "endSeconds": 92.156,
      "velocity": 0.8,
      "bendActive": true,
      "instrument": 1
    },
    {
      "id": "id_cy8vxpt5umnv3kmnt",
      "pitch": 63,
      "pitchName": "D#4",
      "frequencyHz": 311.126984,
      "startTick": 117840,
      "durationTicks": 120,
      "endTick": 117960,
      "startSeconds": 92.063,
      "durationSeconds": 0.094,
      "endSeconds": 92.156,
      "velocity": 0.8,
      "bendActive": true,
      "instrument": 0
    },
    {
      "id": "id_d9s2coqn2mnv4i54y",
      "pitch": 70,
      "pitchName": "A#4",
      "frequencyHz": 466.163762,
      "startTick": 117840,
      "durationTicks": 120,
      "endTick": 117960,
      "startSeconds": 92.063,
      "durationSeconds": 0.094,
      "endSeconds": 92.156,
      "velocity": 0.8,
      "bendActive": true,
      "instrument": 1
    },
    {
      "id": "id_sne5yd0khmnv3kmnt",
      "pitch": 40,
      "pitchName": "E2",
      "frequencyHz": 82.406889,
      "startTick": 118080,
      "durationTicks": 240,
      "endTick": 118320,
      "startSeconds": 92.25,
      "durationSeconds": 0.188,
      "endSeconds": 92.438,
      "velocity": 0.8,
      "bendActive": true,
      "instrument": 0
    },
    {
      "id": "id_p3pq4kturmnv3kmnt",
      "pitch": 47,
      "pitchName": "B2",
      "frequencyHz": 123.470825,
      "startTick": 118080,
      "durationTicks": 240,
      "endTick": 118320,
      "startSeconds": 92.25,
      "durationSeconds": 0.188,
      "endSeconds": 92.438,
      "velocity": 0.8,
      "bendActive": true,
      "instrument": 0
    },
    {
      "id": "id_z23g3uz46mnv3kmnt",
      "pitch": 56,
      "pitchName": "G#3",
      "frequencyHz": 207.652349,
      "startTick": 118080,
      "durationTicks": 240,
      "endTick": 118320,
      "startSeconds": 92.25,
      "durationSeconds": 0.188,
      "endSeconds": 92.438,
      "velocity": 0.8,
      "bendActive": true,
      "instrument": 0
    },
    {
      "id": "id_5ct7271prmnv3kmnt",
      "pitch": 59,
      "pitchName": "B3",
      "frequencyHz": 246.941651,
      "startTick": 118080,
      "durationTicks": 240,
      "endTick": 118320,
      "startSeconds": 92.25,
      "durationSeconds": 0.188,
      "endSeconds": 92.438,
      "velocity": 0.25,
      "bendActive": true,
      "instrument": 1
    },
    {
      "id": "id_10a4lygtgmnv3kmnt",
      "pitch": 68,
      "pitchName": "G#4",
      "frequencyHz": 415.304698,
      "startTick": 118080,
      "durationTicks": 240,
      "endTick": 118320,
      "startSeconds": 92.25,
      "durationSeconds": 0.188,
      "endSeconds": 92.438,
      "velocity": 0.25,
      "bendActive": true,
      "instrument": 1
    },
    {
      "id": "id_n3zytcec2mnv3kmnt",
      "pitch": 40,
      "pitchName": "E2",
      "frequencyHz": 82.406889,
      "startTick": 118320,
      "durationTicks": 120,
      "endTick": 118440,
      "startSeconds": 92.438,
      "durationSeconds": 0.094,
      "endSeconds": 92.531,
      "velocity": 0.8,
      "bendActive": true,
      "instrument": 0
    },
    {
      "id": "id_7jhcnfzrymnv3kmnt",
      "pitch": 47,
      "pitchName": "B2",
      "frequencyHz": 123.470825,
      "startTick": 118320,
      "durationTicks": 120,
      "endTick": 118440,
      "startSeconds": 92.438,
      "durationSeconds": 0.094,
      "endSeconds": 92.531,
      "velocity": 0.8,
      "bendActive": true,
      "instrument": 0
    },
    {
      "id": "id_fko7vgw0rmnv3kmnt",
      "pitch": 56,
      "pitchName": "G#3",
      "frequencyHz": 207.652349,
      "startTick": 118320,
      "durationTicks": 120,
      "endTick": 118440,
      "startSeconds": 92.438,
      "durationSeconds": 0.094,
      "endSeconds": 92.531,
      "velocity": 0.8,
      "bendActive": true,
      "instrument": 0
    },
    {
      "id": "id_al8d2ltzomnv3kmnt",
      "pitch": 59,
      "pitchName": "B3",
      "frequencyHz": 246.941651,
      "startTick": 118320,
      "durationTicks": 120,
      "endTick": 118440,
      "startSeconds": 92.438,
      "durationSeconds": 0.094,
      "endSeconds": 92.531,
      "velocity": 0.25,
      "bendActive": true,
      "instrument": 1
    },
    {
      "id": "id_lw2o3lg6xmnv3kmnt",
      "pitch": 68,
      "pitchName": "G#4",
      "frequencyHz": 415.304698,
      "startTick": 118320,
      "durationTicks": 120,
      "endTick": 118440,
      "startSeconds": 92.438,
      "durationSeconds": 0.094,
      "endSeconds": 92.531,
      "velocity": 0.25,
      "bendActive": true,
      "instrument": 1
    },
    {
      "id": "id_bn549qyopmnv3kmnt",
      "pitch": 40,
      "pitchName": "E2",
      "frequencyHz": 82.406889,
      "startTick": 118560,
      "durationTicks": 120,
      "endTick": 118680,
      "startSeconds": 92.625,
      "durationSeconds": 0.094,
      "endSeconds": 92.719,
      "velocity": 0.8,
      "bendActive": true,
      "instrument": 0
    },
    {
      "id": "id_n465tx2svmnv3kmnt",
      "pitch": 47,
      "pitchName": "B2",
      "frequencyHz": 123.470825,
      "startTick": 118560,
      "durationTicks": 120,
      "endTick": 118680,
      "startSeconds": 92.625,
      "durationSeconds": 0.094,
      "endSeconds": 92.719,
      "velocity": 0.8,
      "bendActive": true,
      "instrument": 0
    },
    {
      "id": "id_vykdwothemnv3kmnt",
      "pitch": 56,
      "pitchName": "G#3",
      "frequencyHz": 207.652349,
      "startTick": 118560,
      "durationTicks": 120,
      "endTick": 118680,
      "startSeconds": 92.625,
      "durationSeconds": 0.094,
      "endSeconds": 92.719,
      "velocity": 0.8,
      "bendActive": true,
      "instrument": 0
    },
    {
      "id": "id_32n9pr5mwmnv3kmnt",
      "pitch": 59,
      "pitchName": "B3",
      "frequencyHz": 246.941651,
      "startTick": 118560,
      "durationTicks": 120,
      "endTick": 118680,
      "startSeconds": 92.625,
      "durationSeconds": 0.094,
      "endSeconds": 92.719,
      "velocity": 0.25,
      "bendActive": true,
      "instrument": 1
    },
    {
      "id": "id_8bqxctgg2mnv3kmnt",
      "pitch": 68,
      "pitchName": "G#4",
      "frequencyHz": 415.304698,
      "startTick": 118560,
      "durationTicks": 120,
      "endTick": 118680,
      "startSeconds": 92.625,
      "durationSeconds": 0.094,
      "endSeconds": 92.719,
      "velocity": 0.25,
      "bendActive": true,
      "instrument": 1
    },
    {
      "id": "id_0f04cv3g9mnv3kmnt",
      "pitch": 40,
      "pitchName": "E2",
      "frequencyHz": 82.406889,
      "startTick": 118800,
      "durationTicks": 240,
      "endTick": 119040,
      "startSeconds": 92.813,
      "durationSeconds": 0.188,
      "endSeconds": 93,
      "velocity": 0.8,
      "bendActive": true,
      "instrument": 0
    },
    {
      "id": "id_n4rjwhyzgmnv3kmnt",
      "pitch": 47,
      "pitchName": "B2",
      "frequencyHz": 123.470825,
      "startTick": 118800,
      "durationTicks": 240,
      "endTick": 119040,
      "startSeconds": 92.813,
      "durationSeconds": 0.188,
      "endSeconds": 93,
      "velocity": 0.8,
      "bendActive": true,
      "instrument": 0
    },
    {
      "id": "id_nw4fvg18pmnv3kmnt",
      "pitch": 56,
      "pitchName": "G#3",
      "frequencyHz": 207.652349,
      "startTick": 118800,
      "durationTicks": 240,
      "endTick": 119040,
      "startSeconds": 92.813,
      "durationSeconds": 0.188,
      "endSeconds": 93,
      "velocity": 0.8,
      "bendActive": true,
      "instrument": 0
    },
    {
      "id": "id_vrch1bjafmnv3kmnt",
      "pitch": 59,
      "pitchName": "B3",
      "frequencyHz": 246.941651,
      "startTick": 118800,
      "durationTicks": 240,
      "endTick": 119040,
      "startSeconds": 92.813,
      "durationSeconds": 0.188,
      "endSeconds": 93,
      "velocity": 0.25,
      "bendActive": true,
      "instrument": 1
    },
    {
      "id": "id_xtkus1y3emnv3kmnt",
      "pitch": 68,
      "pitchName": "G#4",
      "frequencyHz": 415.304698,
      "startTick": 118800,
      "durationTicks": 240,
      "endTick": 119040,
      "startSeconds": 92.813,
      "durationSeconds": 0.188,
      "endSeconds": 93,
      "velocity": 0.25,
      "bendActive": true,
      "instrument": 1
    },
    {
      "id": "id_m5e0ktpcnmnv3kmnt",
      "pitch": 40,
      "pitchName": "E2",
      "frequencyHz": 82.406889,
      "startTick": 119040,
      "durationTicks": 120,
      "endTick": 119160,
      "startSeconds": 93,
      "durationSeconds": 0.094,
      "endSeconds": 93.094,
      "velocity": 0.8,
      "bendActive": true,
      "instrument": 0
    },
    {
      "id": "id_ox1u1ctyxmnv3kmnt",
      "pitch": 47,
      "pitchName": "B2",
      "frequencyHz": 123.470825,
      "startTick": 119040,
      "durationTicks": 120,
      "endTick": 119160,
      "startSeconds": 93,
      "durationSeconds": 0.094,
      "endSeconds": 93.094,
      "velocity": 0.8,
      "bendActive": true,
      "instrument": 0
    },
    {
      "id": "id_klc7qjj8imnv3kmnt",
      "pitch": 56,
      "pitchName": "G#3",
      "frequencyHz": 207.652349,
      "startTick": 119040,
      "durationTicks": 120,
      "endTick": 119160,
      "startSeconds": 93,
      "durationSeconds": 0.094,
      "endSeconds": 93.094,
      "velocity": 0.8,
      "bendActive": true,
      "instrument": 0
    },
    {
      "id": "id_lcbwxq6zamnv3kmnt",
      "pitch": 59,
      "pitchName": "B3",
      "frequencyHz": 246.941651,
      "startTick": 119040,
      "durationTicks": 120,
      "endTick": 119160,
      "startSeconds": 93,
      "durationSeconds": 0.094,
      "endSeconds": 93.094,
      "velocity": 0.25,
      "bendActive": true,
      "instrument": 1
    },
    {
      "id": "id_nxr3ygztimnv3kmnt",
      "pitch": 68,
      "pitchName": "G#4",
      "frequencyHz": 415.304698,
      "startTick": 119040,
      "durationTicks": 120,
      "endTick": 119160,
      "startSeconds": 93,
      "durationSeconds": 0.094,
      "endSeconds": 93.094,
      "velocity": 0.25,
      "bendActive": true,
      "instrument": 1
    },
    {
      "id": "id_l1bmaxyt9mnv3kmnt",
      "pitch": 40,
      "pitchName": "E2",
      "frequencyHz": 82.406889,
      "startTick": 119280,
      "durationTicks": 120,
      "endTick": 119400,
      "startSeconds": 93.188,
      "durationSeconds": 0.094,
      "endSeconds": 93.281,
      "velocity": 0.8,
      "bendActive": true,
      "instrument": 0
    },
    {
      "id": "id_vp99lm726mnv3kmnt",
      "pitch": 47,
      "pitchName": "B2",
      "frequencyHz": 123.470825,
      "startTick": 119280,
      "durationTicks": 120,
      "endTick": 119400,
      "startSeconds": 93.188,
      "durationSeconds": 0.094,
      "endSeconds": 93.281,
      "velocity": 0.8,
      "bendActive": true,
      "instrument": 0
    },
    {
      "id": "id_f6ovae0vxmnv3kmnt",
      "pitch": 56,
      "pitchName": "G#3",
      "frequencyHz": 207.652349,
      "startTick": 119280,
      "durationTicks": 120,
      "endTick": 119400,
      "startSeconds": 93.188,
      "durationSeconds": 0.094,
      "endSeconds": 93.281,
      "velocity": 0.8,
      "bendActive": true,
      "instrument": 0
    },
    {
      "id": "id_l30on0sq5mnv3kmnt",
      "pitch": 59,
      "pitchName": "B3",
      "frequencyHz": 246.941651,
      "startTick": 119280,
      "durationTicks": 120,
      "endTick": 119400,
      "startSeconds": 93.188,
      "durationSeconds": 0.094,
      "endSeconds": 93.281,
      "velocity": 0.25,
      "bendActive": true,
      "instrument": 1
    },
    {
      "id": "id_31lb9lg18mnv3kmnt",
      "pitch": 68,
      "pitchName": "G#4",
      "frequencyHz": 415.304698,
      "startTick": 119280,
      "durationTicks": 120,
      "endTick": 119400,
      "startSeconds": 93.188,
      "durationSeconds": 0.094,
      "endSeconds": 93.281,
      "velocity": 0.25,
      "bendActive": true,
      "instrument": 1
    },
    {
      "id": "id_m3636jok9mnv3kmnt",
      "pitch": 42,
      "pitchName": "F#2",
      "frequencyHz": 92.498606,
      "startTick": 119520,
      "durationTicks": 240,
      "endTick": 119760,
      "startSeconds": 93.375,
      "durationSeconds": 0.188,
      "endSeconds": 93.563,
      "velocity": 0.8,
      "bendActive": true,
      "instrument": 0
    },
    {
      "id": "id_5fxtkgalwmnv3kmnt",
      "pitch": 58,
      "pitchName": "A#3",
      "frequencyHz": 233.081881,
      "startTick": 119520,
      "durationTicks": 240,
      "endTick": 119760,
      "startSeconds": 93.375,
      "durationSeconds": 0.188,
      "endSeconds": 93.563,
      "velocity": 0.8,
      "bendActive": true,
      "instrument": 0
    },
    {
      "id": "id_q9urzs1u1mnv3kmnt",
      "pitch": 61,
      "pitchName": "C#4",
      "frequencyHz": 277.182631,
      "startTick": 119520,
      "durationTicks": 240,
      "endTick": 119760,
      "startSeconds": 93.375,
      "durationSeconds": 0.188,
      "endSeconds": 93.563,
      "velocity": 0.25,
      "bendActive": true,
      "instrument": 1
    },
    {
      "id": "id_ktn1rq6usmnv3kmnt",
      "pitch": 64,
      "pitchName": "E4",
      "frequencyHz": 329.627557,
      "startTick": 119520,
      "durationTicks": 240,
      "endTick": 119760,
      "startSeconds": 93.375,
      "durationSeconds": 0.188,
      "endSeconds": 93.563,
      "velocity": 0.8,
      "bendActive": true,
      "instrument": 0
    },
    {
      "id": "id_h4em7gvf8mnv3kmnt",
      "pitch": 70,
      "pitchName": "A#4",
      "frequencyHz": 466.163762,
      "startTick": 119520,
      "durationTicks": 240,
      "endTick": 119760,
      "startSeconds": 93.375,
      "durationSeconds": 0.188,
      "endSeconds": 93.563,
      "velocity": 0.25,
      "bendActive": true,
      "instrument": 1
    },
    {
      "id": "id_2rvacznaumnv3kmnt",
      "pitch": 42,
      "pitchName": "F#2",
      "frequencyHz": 92.498606,
      "startTick": 119760,
      "durationTicks": 240,
      "endTick": 120000,
      "startSeconds": 93.563,
      "durationSeconds": 0.188,
      "endSeconds": 93.75,
      "velocity": 0.8,
      "bendActive": true,
      "instrument": 0
    },
    {
      "id": "id_o7pzgjvo3mnv3kmnt",
      "pitch": 58,
      "pitchName": "A#3",
      "frequencyHz": 233.081881,
      "startTick": 119760,
      "durationTicks": 240,
      "endTick": 120000,
      "startSeconds": 93.563,
      "durationSeconds": 0.188,
      "endSeconds": 93.75,
      "velocity": 0.8,
      "bendActive": true,
      "instrument": 0
    },
    {
      "id": "id_9w39rvz1gmnv3kmnt",
      "pitch": 61,
      "pitchName": "C#4",
      "frequencyHz": 277.182631,
      "startTick": 119760,
      "durationTicks": 240,
      "endTick": 120000,
      "startSeconds": 93.563,
      "durationSeconds": 0.188,
      "endSeconds": 93.75,
      "velocity": 0.25,
      "bendActive": true,
      "instrument": 1
    },
    {
      "id": "id_xs3bim098mnv3kmnt",
      "pitch": 64,
      "pitchName": "E4",
      "frequencyHz": 329.627557,
      "startTick": 119760,
      "durationTicks": 240,
      "endTick": 120000,
      "startSeconds": 93.563,
      "durationSeconds": 0.188,
      "endSeconds": 93.75,
      "velocity": 0.8,
      "bendActive": true,
      "instrument": 0
    },
    {
      "id": "id_tmmd2rov2mnv3kmnt",
      "pitch": 70,
      "pitchName": "A#4",
      "frequencyHz": 466.163762,
      "startTick": 119760,
      "durationTicks": 240,
      "endTick": 120000,
      "startSeconds": 93.563,
      "durationSeconds": 0.188,
      "endSeconds": 93.75,
      "velocity": 0.25,
      "bendActive": true,
      "instrument": 1
    },
    {
      "id": "id_p95sd2ms6mnv3kmnt",
      "pitch": 42,
      "pitchName": "F#2",
      "frequencyHz": 92.498606,
      "startTick": 120000,
      "durationTicks": 120,
      "endTick": 120120,
      "startSeconds": 93.75,
      "durationSeconds": 0.094,
      "endSeconds": 93.844,
      "velocity": 0.8,
      "bendActive": true,
      "instrument": 0
    },
    {
      "id": "id_ht6q0fc25mnv3kmnt",
      "pitch": 56,
      "pitchName": "G#3",
      "frequencyHz": 207.652349,
      "startTick": 120000,
      "durationTicks": 120,
      "endTick": 120120,
      "startSeconds": 93.75,
      "durationSeconds": 0.094,
      "endSeconds": 93.844,
      "velocity": 0.8,
      "bendActive": true,
      "instrument": 0
    },
    {
      "id": "id_q9fls7trvmnv3kmnt",
      "pitch": 61,
      "pitchName": "C#4",
      "frequencyHz": 277.182631,
      "startTick": 120000,
      "durationTicks": 120,
      "endTick": 120120,
      "startSeconds": 93.75,
      "durationSeconds": 0.094,
      "endSeconds": 93.844,
      "velocity": 0.25,
      "bendActive": true,
      "instrument": 1
    },
    {
      "id": "id_l3jh1hahtmnv3kmnt",
      "pitch": 63,
      "pitchName": "D#4",
      "frequencyHz": 311.126984,
      "startTick": 120000,
      "durationTicks": 120,
      "endTick": 120120,
      "startSeconds": 93.75,
      "durationSeconds": 0.094,
      "endSeconds": 93.844,
      "velocity": 0.8,
      "bendActive": true,
      "instrument": 0
    },
    {
      "id": "id_6m5p8t7aamnv3kmnt",
      "pitch": 70,
      "pitchName": "A#4",
      "frequencyHz": 466.163762,
      "startTick": 120000,
      "durationTicks": 120,
      "endTick": 120120,
      "startSeconds": 93.75,
      "durationSeconds": 0.094,
      "endSeconds": 93.844,
      "velocity": 0.25,
      "bendActive": true,
      "instrument": 1
    },
    {
      "id": "id_vnr6dfkwymnv3kmnt",
      "pitch": 42,
      "pitchName": "F#2",
      "frequencyHz": 92.498606,
      "startTick": 120240,
      "durationTicks": 240,
      "endTick": 120480,
      "startSeconds": 93.938,
      "durationSeconds": 0.188,
      "endSeconds": 94.125,
      "velocity": 0.8,
      "bendActive": true,
      "instrument": 0
    },
    {
      "id": "id_cveukj5cvmnv3kmnt",
      "pitch": 56,
      "pitchName": "G#3",
      "frequencyHz": 207.652349,
      "startTick": 120240,
      "durationTicks": 240,
      "endTick": 120480,
      "startSeconds": 93.938,
      "durationSeconds": 0.188,
      "endSeconds": 94.125,
      "velocity": 0.8,
      "bendActive": true,
      "instrument": 0
    },
    {
      "id": "id_hahzp66rrmnv3kmnt",
      "pitch": 61,
      "pitchName": "C#4",
      "frequencyHz": 277.182631,
      "startTick": 120240,
      "durationTicks": 240,
      "endTick": 120480,
      "startSeconds": 93.938,
      "durationSeconds": 0.188,
      "endSeconds": 94.125,
      "velocity": 0.25,
      "bendActive": true,
      "instrument": 1
    },
    {
      "id": "id_cs6tmyp2vmnv3kmnt",
      "pitch": 63,
      "pitchName": "D#4",
      "frequencyHz": 311.126984,
      "startTick": 120240,
      "durationTicks": 240,
      "endTick": 120480,
      "startSeconds": 93.938,
      "durationSeconds": 0.188,
      "endSeconds": 94.125,
      "velocity": 0.8,
      "bendActive": true,
      "instrument": 0
    },
    {
      "id": "id_yciox3a50mnv3kmnt",
      "pitch": 70,
      "pitchName": "A#4",
      "frequencyHz": 466.163762,
      "startTick": 120240,
      "durationTicks": 240,
      "endTick": 120480,
      "startSeconds": 93.938,
      "durationSeconds": 0.188,
      "endSeconds": 94.125,
      "velocity": 0.25,
      "bendActive": true,
      "instrument": 1
    },
    {
      "id": "id_srg7vvcsvmnv3kmnt",
      "pitch": 51,
      "pitchName": "D#3",
      "frequencyHz": 155.563492,
      "startTick": 120480,
      "durationTicks": 240,
      "endTick": 120720,
      "startSeconds": 94.125,
      "durationSeconds": 0.188,
      "endSeconds": 94.313,
      "velocity": 0.8,
      "bendActive": true,
      "instrument": 0
    },
    {
      "id": "id_ddqihg7a3mnv3kmnt",
      "pitch": 58,
      "pitchName": "A#3",
      "frequencyHz": 233.081881,
      "startTick": 120480,
      "durationTicks": 240,
      "endTick": 120720,
      "startSeconds": 94.125,
      "durationSeconds": 0.188,
      "endSeconds": 94.313,
      "velocity": 0.25,
      "bendActive": true,
      "instrument": 1
    },
    {
      "id": "id_vndni17lqmnv3kmnt",
      "pitch": 59,
      "pitchName": "B3",
      "frequencyHz": 246.941651,
      "startTick": 120480,
      "durationTicks": 240,
      "endTick": 120720,
      "startSeconds": 94.125,
      "durationSeconds": 0.188,
      "endSeconds": 94.313,
      "velocity": 0.8,
      "bendActive": true,
      "instrument": 0
    },
    {
      "id": "id_i6j1jju3amnv3kmnt",
      "pitch": 66,
      "pitchName": "F#4",
      "frequencyHz": 369.994423,
      "startTick": 120480,
      "durationTicks": 240,
      "endTick": 120720,
      "startSeconds": 94.125,
      "durationSeconds": 0.188,
      "endSeconds": 94.313,
      "velocity": 0.25,
      "bendActive": true,
      "instrument": 1
    },
    {
      "id": "id_7kk0hldmxmnv3kmnt",
      "pitch": 51,
      "pitchName": "D#3",
      "frequencyHz": 155.563492,
      "startTick": 120720,
      "durationTicks": 240,
      "endTick": 120960,
      "startSeconds": 94.313,
      "durationSeconds": 0.188,
      "endSeconds": 94.5,
      "velocity": 0.8,
      "bendActive": true,
      "instrument": 0
    },
    {
      "id": "id_dkkl8s074mnv3kmnt",
      "pitch": 58,
      "pitchName": "A#3",
      "frequencyHz": 233.081881,
      "startTick": 120720,
      "durationTicks": 240,
      "endTick": 120960,
      "startSeconds": 94.313,
      "durationSeconds": 0.188,
      "endSeconds": 94.5,
      "velocity": 0.25,
      "bendActive": true,
      "instrument": 1
    },
    {
      "id": "id_kveufdukymnv3kmnt",
      "pitch": 59,
      "pitchName": "B3",
      "frequencyHz": 246.941651,
      "startTick": 120720,
      "durationTicks": 240,
      "endTick": 120960,
      "startSeconds": 94.313,
      "durationSeconds": 0.188,
      "endSeconds": 94.5,
      "velocity": 0.8,
      "bendActive": true,
      "instrument": 0
    },
    {
      "id": "id_z9ieor5osmnv3kmnt",
      "pitch": 66,
      "pitchName": "F#4",
      "frequencyHz": 369.994423,
      "startTick": 120720,
      "durationTicks": 240,
      "endTick": 120960,
      "startSeconds": 94.313,
      "durationSeconds": 0.188,
      "endSeconds": 94.5,
      "velocity": 0.25,
      "bendActive": true,
      "instrument": 1
    },
    {
      "id": "id_wjxmr06cmmnv3kmnt",
      "pitch": 68,
      "pitchName": "G#4",
      "frequencyHz": 415.304698,
      "startTick": 120720,
      "durationTicks": 240,
      "endTick": 120960,
      "startSeconds": 94.313,
      "durationSeconds": 0.188,
      "endSeconds": 94.5,
      "velocity": 0.8,
      "bendActive": true,
      "instrument": 0
    },
    {
      "id": "id_cag09w3x3mnv3kmnt",
      "pitch": 51,
      "pitchName": "D#3",
      "frequencyHz": 155.563492,
      "startTick": 120840,
      "durationTicks": 120,
      "endTick": 120960,
      "startSeconds": 94.406,
      "durationSeconds": 0.094,
      "endSeconds": 94.5,
      "velocity": 0.8,
      "bendActive": true,
      "instrument": 0
    },
    {
      "id": "id_cxre14uxkmnv3kmnt",
      "pitch": 58,
      "pitchName": "A#3",
      "frequencyHz": 233.081881,
      "startTick": 120840,
      "durationTicks": 120,
      "endTick": 120960,
      "startSeconds": 94.406,
      "durationSeconds": 0.094,
      "endSeconds": 94.5,
      "velocity": 0.25,
      "bendActive": true,
      "instrument": 1
    },
    {
      "id": "id_tcwgwespjmnv3kmnt",
      "pitch": 66,
      "pitchName": "F#4",
      "frequencyHz": 369.994423,
      "startTick": 120840,
      "durationTicks": 120,
      "endTick": 120960,
      "startSeconds": 94.406,
      "durationSeconds": 0.094,
      "endSeconds": 94.5,
      "velocity": 0.25,
      "bendActive": true,
      "instrument": 1
    },
    {
      "id": "id_sio4zv4m4mnv3kmnt",
      "pitch": 44,
      "pitchName": "G#2",
      "frequencyHz": 103.826174,
      "startTick": 120960,
      "durationTicks": 240,
      "endTick": 121200,
      "startSeconds": 94.5,
      "durationSeconds": 0.188,
      "endSeconds": 94.688,
      "velocity": 0.8,
      "bendActive": true,
      "instrument": 0
    },
    {
      "id": "id_ngchua26mmnv3kmnt",
      "pitch": 51,
      "pitchName": "D#3",
      "frequencyHz": 155.563492,
      "startTick": 120960,
      "durationTicks": 240,
      "endTick": 121200,
      "startSeconds": 94.5,
      "durationSeconds": 0.188,
      "endSeconds": 94.688,
      "velocity": 0.8,
      "bendActive": true,
      "instrument": 0
    },
    {
      "id": "id_z2lkunw1ymnv3kmnt",
      "pitch": 56,
      "pitchName": "G#3",
      "frequencyHz": 207.652349,
      "startTick": 120960,
      "durationTicks": 240,
      "endTick": 121200,
      "startSeconds": 94.5,
      "durationSeconds": 0.188,
      "endSeconds": 94.688,
      "velocity": 0.8,
      "bendActive": true,
      "instrument": 0
    },
    {
      "id": "id_04owtvwjumnv3kmnt",
      "pitch": 63,
      "pitchName": "D#4",
      "frequencyHz": 311.126984,
      "startTick": 120960,
      "durationTicks": 240,
      "endTick": 121200,
      "startSeconds": 94.5,
      "durationSeconds": 0.188,
      "endSeconds": 94.688,
      "velocity": 0.25,
      "bendActive": true,
      "instrument": 1
    },
    {
      "id": "id_5cnj8vwubmnv3kmnt",
      "pitch": 70,
      "pitchName": "A#4",
      "frequencyHz": 466.163762,
      "startTick": 120960,
      "durationTicks": 240,
      "endTick": 121200,
      "startSeconds": 94.5,
      "durationSeconds": 0.188,
      "endSeconds": 94.688,
      "velocity": 0.25,
      "bendActive": true,
      "instrument": 1
    },
    {
      "id": "id_s4v5ci4aqmnv3kmnt",
      "pitch": 44,
      "pitchName": "G#2",
      "frequencyHz": 103.826174,
      "startTick": 121200,
      "durationTicks": 240,
      "endTick": 121440,
      "startSeconds": 94.688,
      "durationSeconds": 0.188,
      "endSeconds": 94.875,
      "velocity": 0.8,
      "bendActive": true,
      "instrument": 0
    },
    {
      "id": "id_vzo4w7pvgmnv3kmnt",
      "pitch": 51,
      "pitchName": "D#3",
      "frequencyHz": 155.563492,
      "startTick": 121200,
      "durationTicks": 240,
      "endTick": 121440,
      "startSeconds": 94.688,
      "durationSeconds": 0.188,
      "endSeconds": 94.875,
      "velocity": 0.8,
      "bendActive": true,
      "instrument": 0
    },
    {
      "id": "id_973tefuqhmnv3kmnt",
      "pitch": 56,
      "pitchName": "G#3",
      "frequencyHz": 207.652349,
      "startTick": 121200,
      "durationTicks": 240,
      "endTick": 121440,
      "startSeconds": 94.688,
      "durationSeconds": 0.188,
      "endSeconds": 94.875,
      "velocity": 0.8,
      "bendActive": true,
      "instrument": 0
    },
    {
      "id": "id_au5zeg6ijmnv3kmnt",
      "pitch": 63,
      "pitchName": "D#4",
      "frequencyHz": 311.126984,
      "startTick": 121200,
      "durationTicks": 240,
      "endTick": 121440,
      "startSeconds": 94.688,
      "durationSeconds": 0.188,
      "endSeconds": 94.875,
      "velocity": 0.25,
      "bendActive": true,
      "instrument": 1
    },
    {
      "id": "id_z7z2t99hmmnv3kmnt",
      "pitch": 70,
      "pitchName": "A#4",
      "frequencyHz": 466.163762,
      "startTick": 121200,
      "durationTicks": 240,
      "endTick": 121440,
      "startSeconds": 94.688,
      "durationSeconds": 0.188,
      "endSeconds": 94.875,
      "velocity": 0.25,
      "bendActive": true,
      "instrument": 1
    },
    {
      "id": "id_x1c406goymnv3kmnt",
      "pitch": 44,
      "pitchName": "G#2",
      "frequencyHz": 103.826174,
      "startTick": 121440,
      "durationTicks": 240,
      "endTick": 121680,
      "startSeconds": 94.875,
      "durationSeconds": 0.188,
      "endSeconds": 95.063,
      "velocity": 0.8,
      "bendActive": true,
      "instrument": 0
    },
    {
      "id": "id_k6lxhqxzgmnv3kmnt",
      "pitch": 51,
      "pitchName": "D#3",
      "frequencyHz": 155.563492,
      "startTick": 121440,
      "durationTicks": 240,
      "endTick": 121680,
      "startSeconds": 94.875,
      "durationSeconds": 0.188,
      "endSeconds": 95.063,
      "velocity": 0.8,
      "bendActive": true,
      "instrument": 0
    },
    {
      "id": "id_lyscq08d7mnv3kmnt",
      "pitch": 56,
      "pitchName": "G#3",
      "frequencyHz": 207.652349,
      "startTick": 121440,
      "durationTicks": 240,
      "endTick": 121680,
      "startSeconds": 94.875,
      "durationSeconds": 0.188,
      "endSeconds": 95.063,
      "velocity": 0.8,
      "bendActive": true,
      "instrument": 0
    },
    {
      "id": "id_kfcolufywmnv3kmnt",
      "pitch": 63,
      "pitchName": "D#4",
      "frequencyHz": 311.126984,
      "startTick": 121440,
      "durationTicks": 240,
      "endTick": 121680,
      "startSeconds": 94.875,
      "durationSeconds": 0.188,
      "endSeconds": 95.063,
      "velocity": 0.25,
      "bendActive": true,
      "instrument": 1
    },
    {
      "id": "id_pzv71xxhbmnv3kmnt",
      "pitch": 70,
      "pitchName": "A#4",
      "frequencyHz": 466.163762,
      "startTick": 121440,
      "durationTicks": 240,
      "endTick": 121680,
      "startSeconds": 94.875,
      "durationSeconds": 0.188,
      "endSeconds": 95.063,
      "velocity": 0.25,
      "bendActive": true,
      "instrument": 1
    },
    {
      "id": "id_khlcbfl06mnv3kmnt",
      "pitch": 44,
      "pitchName": "G#2",
      "frequencyHz": 103.826174,
      "startTick": 121680,
      "durationTicks": 240,
      "endTick": 121920,
      "startSeconds": 95.063,
      "durationSeconds": 0.188,
      "endSeconds": 95.25,
      "velocity": 0.8,
      "bendActive": true,
      "instrument": 0
    },
    {
      "id": "id_vw886axarmnv3kmnt",
      "pitch": 51,
      "pitchName": "D#3",
      "frequencyHz": 155.563492,
      "startTick": 121680,
      "durationTicks": 240,
      "endTick": 121920,
      "startSeconds": 95.063,
      "durationSeconds": 0.188,
      "endSeconds": 95.25,
      "velocity": 0.8,
      "bendActive": true,
      "instrument": 0
    },
    {
      "id": "id_vmbtd3pxrmnv3kmnt",
      "pitch": 56,
      "pitchName": "G#3",
      "frequencyHz": 207.652349,
      "startTick": 121680,
      "durationTicks": 240,
      "endTick": 121920,
      "startSeconds": 95.063,
      "durationSeconds": 0.188,
      "endSeconds": 95.25,
      "velocity": 0.8,
      "bendActive": true,
      "instrument": 0
    },
    {
      "id": "id_v00sr6p7hmnv3kmnt",
      "pitch": 63,
      "pitchName": "D#4",
      "frequencyHz": 311.126984,
      "startTick": 121680,
      "durationTicks": 240,
      "endTick": 121920,
      "startSeconds": 95.063,
      "durationSeconds": 0.188,
      "endSeconds": 95.25,
      "velocity": 0.25,
      "bendActive": true,
      "instrument": 1
    },
    {
      "id": "id_lhz465jegmnv3kmnt",
      "pitch": 70,
      "pitchName": "A#4",
      "frequencyHz": 466.163762,
      "startTick": 121680,
      "durationTicks": 240,
      "endTick": 121920,
      "startSeconds": 95.063,
      "durationSeconds": 0.188,
      "endSeconds": 95.25,
      "velocity": 0.25,
      "bendActive": true,
      "instrument": 1
    },
    {
      "id": "id_kv001lw5smnv3kmnt",
      "pitch": 44,
      "pitchName": "G#2",
      "frequencyHz": 103.826174,
      "startTick": 121920,
      "durationTicks": 480,
      "endTick": 122400,
      "startSeconds": 95.25,
      "durationSeconds": 0.375,
      "endSeconds": 95.625,
      "velocity": 0.8,
      "bendActive": true,
      "instrument": 0
    },
    {
      "id": "id_9nggzxfl3mnv3kmnt",
      "pitch": 51,
      "pitchName": "D#3",
      "frequencyHz": 155.563492,
      "startTick": 121920,
      "durationTicks": 480,
      "endTick": 122400,
      "startSeconds": 95.25,
      "durationSeconds": 0.375,
      "endSeconds": 95.625,
      "velocity": 0.8,
      "bendActive": true,
      "instrument": 0
    },
    {
      "id": "id_xai7qjs3gmnv3kmnt",
      "pitch": 56,
      "pitchName": "G#3",
      "frequencyHz": 207.652349,
      "startTick": 121920,
      "durationTicks": 480,
      "endTick": 122400,
      "startSeconds": 95.25,
      "durationSeconds": 0.375,
      "endSeconds": 95.625,
      "velocity": 0.8,
      "bendActive": true,
      "instrument": 0
    },
    {
      "id": "id_g1oe081xdmnv3kmnt",
      "pitch": 63,
      "pitchName": "D#4",
      "frequencyHz": 311.126984,
      "startTick": 121920,
      "durationTicks": 480,
      "endTick": 122400,
      "startSeconds": 95.25,
      "durationSeconds": 0.375,
      "endSeconds": 95.625,
      "velocity": 0.25,
      "bendActive": true,
      "instrument": 1
    },
    {
      "id": "id_des70uxmcmnv3kmnt",
      "pitch": 70,
      "pitchName": "A#4",
      "frequencyHz": 466.163762,
      "startTick": 121920,
      "durationTicks": 480,
      "endTick": 122400,
      "startSeconds": 95.25,
      "durationSeconds": 0.375,
      "endSeconds": 95.625,
      "velocity": 0.25,
      "bendActive": true,
      "instrument": 1
    },
    {
      "id": "id_w1tettrxwmnv3kmnt",
      "pitch": 44,
      "pitchName": "G#2",
      "frequencyHz": 103.826174,
      "startTick": 122400,
      "durationTicks": 240,
      "endTick": 122640,
      "startSeconds": 95.625,
      "durationSeconds": 0.188,
      "endSeconds": 95.813,
      "velocity": 0.8,
      "bendActive": true,
      "instrument": 0
    },
    {
      "id": "id_phecc1zo1mnv3kmnt",
      "pitch": 51,
      "pitchName": "D#3",
      "frequencyHz": 155.563492,
      "startTick": 122400,
      "durationTicks": 240,
      "endTick": 122640,
      "startSeconds": 95.625,
      "durationSeconds": 0.188,
      "endSeconds": 95.813,
      "velocity": 0.8,
      "bendActive": true,
      "instrument": 0
    },
    {
      "id": "id_gw039zfy6mnv3kmnt",
      "pitch": 56,
      "pitchName": "G#3",
      "frequencyHz": 207.652349,
      "startTick": 122400,
      "durationTicks": 240,
      "endTick": 122640,
      "startSeconds": 95.625,
      "durationSeconds": 0.188,
      "endSeconds": 95.813,
      "velocity": 0.8,
      "bendActive": true,
      "instrument": 0
    },
    {
      "id": "id_hucfpbdpsmnv3kmnt",
      "pitch": 63,
      "pitchName": "D#4",
      "frequencyHz": 311.126984,
      "startTick": 122400,
      "durationTicks": 240,
      "endTick": 122640,
      "startSeconds": 95.625,
      "durationSeconds": 0.188,
      "endSeconds": 95.813,
      "velocity": 0.25,
      "bendActive": true,
      "instrument": 1
    },
    {
      "id": "id_6jwaquokxmnv3kmnt",
      "pitch": 70,
      "pitchName": "A#4",
      "frequencyHz": 466.163762,
      "startTick": 122400,
      "durationTicks": 240,
      "endTick": 122640,
      "startSeconds": 95.625,
      "durationSeconds": 0.188,
      "endSeconds": 95.813,
      "velocity": 0.25,
      "bendActive": true,
      "instrument": 1
    },
    {
      "id": "id_eapt5pn66mnv3kmnt",
      "pitch": 44,
      "pitchName": "G#2",
      "frequencyHz": 103.826174,
      "startTick": 122640,
      "durationTicks": 240,
      "endTick": 122880,
      "startSeconds": 95.813,
      "durationSeconds": 0.188,
      "endSeconds": 96,
      "velocity": 0.8,
      "bendActive": true,
      "instrument": 0
    },
    {
      "id": "id_xnihlnby9mnv3kmnt",
      "pitch": 51,
      "pitchName": "D#3",
      "frequencyHz": 155.563492,
      "startTick": 122640,
      "durationTicks": 240,
      "endTick": 122880,
      "startSeconds": 95.813,
      "durationSeconds": 0.188,
      "endSeconds": 96,
      "velocity": 0.8,
      "bendActive": true,
      "instrument": 0
    },
    {
      "id": "id_3v4540axjmnv3kmnt",
      "pitch": 56,
      "pitchName": "G#3",
      "frequencyHz": 207.652349,
      "startTick": 122640,
      "durationTicks": 240,
      "endTick": 122880,
      "startSeconds": 95.813,
      "durationSeconds": 0.188,
      "endSeconds": 96,
      "velocity": 0.8,
      "bendActive": true,
      "instrument": 0
    },
    {
      "id": "id_rqcsr322rmnv3kmnt",
      "pitch": 63,
      "pitchName": "D#4",
      "frequencyHz": 311.126984,
      "startTick": 122640,
      "durationTicks": 240,
      "endTick": 122880,
      "startSeconds": 95.813,
      "durationSeconds": 0.188,
      "endSeconds": 96,
      "velocity": 0.25,
      "bendActive": true,
      "instrument": 1
    },
    {
      "id": "id_67434q4ucmnv3kmnt",
      "pitch": 70,
      "pitchName": "A#4",
      "frequencyHz": 466.163762,
      "startTick": 122640,
      "durationTicks": 240,
      "endTick": 122880,
      "startSeconds": 95.813,
      "durationSeconds": 0.188,
      "endSeconds": 96,
      "velocity": 0.25,
      "bendActive": true,
      "instrument": 1
    },
    {
      "id": "id_vrlz2v5mqmnv3kmnt",
      "pitch": 44,
      "pitchName": "G#2",
      "frequencyHz": 103.826174,
      "startTick": 122880,
      "durationTicks": 240,
      "endTick": 123120,
      "startSeconds": 96,
      "durationSeconds": 0.188,
      "endSeconds": 96.188,
      "velocity": 0.8,
      "bendActive": true,
      "instrument": 0
    },
    {
      "id": "id_hwlsm3mx5mnv3kmnt",
      "pitch": 51,
      "pitchName": "D#3",
      "frequencyHz": 155.563492,
      "startTick": 122880,
      "durationTicks": 240,
      "endTick": 123120,
      "startSeconds": 96,
      "durationSeconds": 0.188,
      "endSeconds": 96.188,
      "velocity": 0.8,
      "bendActive": true,
      "instrument": 0
    },
    {
      "id": "id_nbem6uf6cmnv3kmnt",
      "pitch": 56,
      "pitchName": "G#3",
      "frequencyHz": 207.652349,
      "startTick": 122880,
      "durationTicks": 240,
      "endTick": 123120,
      "startSeconds": 96,
      "durationSeconds": 0.188,
      "endSeconds": 96.188,
      "velocity": 0.8,
      "bendActive": true,
      "instrument": 0
    },
    {
      "id": "id_4omb8fab7mnv3kmnt",
      "pitch": 63,
      "pitchName": "D#4",
      "frequencyHz": 311.126984,
      "startTick": 122880,
      "durationTicks": 240,
      "endTick": 123120,
      "startSeconds": 96,
      "durationSeconds": 0.188,
      "endSeconds": 96.188,
      "velocity": 0.25,
      "bendActive": true,
      "instrument": 1
    },
    {
      "id": "id_zm84wo0gpmnv3kmnt",
      "pitch": 70,
      "pitchName": "A#4",
      "frequencyHz": 466.163762,
      "startTick": 122880,
      "durationTicks": 240,
      "endTick": 123120,
      "startSeconds": 96,
      "durationSeconds": 0.188,
      "endSeconds": 96.188,
      "velocity": 0.25,
      "bendActive": true,
      "instrument": 1
    },
    {
      "id": "id_hsuc2en4fmnv3kmnt",
      "pitch": 44,
      "pitchName": "G#2",
      "frequencyHz": 103.826174,
      "startTick": 123120,
      "durationTicks": 240,
      "endTick": 123360,
      "startSeconds": 96.188,
      "durationSeconds": 0.188,
      "endSeconds": 96.375,
      "velocity": 0.8,
      "bendActive": true,
      "instrument": 0
    },
    {
      "id": "id_mpqz9vyc3mnv3kmnt",
      "pitch": 51,
      "pitchName": "D#3",
      "frequencyHz": 155.563492,
      "startTick": 123120,
      "durationTicks": 240,
      "endTick": 123360,
      "startSeconds": 96.188,
      "durationSeconds": 0.188,
      "endSeconds": 96.375,
      "velocity": 0.8,
      "bendActive": true,
      "instrument": 0
    },
    {
      "id": "id_6157g7m82mnv3kmnt",
      "pitch": 56,
      "pitchName": "G#3",
      "frequencyHz": 207.652349,
      "startTick": 123120,
      "durationTicks": 240,
      "endTick": 123360,
      "startSeconds": 96.188,
      "durationSeconds": 0.188,
      "endSeconds": 96.375,
      "velocity": 0.8,
      "bendActive": true,
      "instrument": 0
    },
    {
      "id": "id_qfyzrbslomnv3kmnt",
      "pitch": 63,
      "pitchName": "D#4",
      "frequencyHz": 311.126984,
      "startTick": 123120,
      "durationTicks": 240,
      "endTick": 123360,
      "startSeconds": 96.188,
      "durationSeconds": 0.188,
      "endSeconds": 96.375,
      "velocity": 0.25,
      "bendActive": true,
      "instrument": 1
    },
    {
      "id": "id_uqyxr6zummnv3kmnt",
      "pitch": 70,
      "pitchName": "A#4",
      "frequencyHz": 466.163762,
      "startTick": 123120,
      "durationTicks": 240,
      "endTick": 123360,
      "startSeconds": 96.188,
      "durationSeconds": 0.188,
      "endSeconds": 96.375,
      "velocity": 0.25,
      "bendActive": true,
      "instrument": 1
    },
    {
      "id": "id_ks2kg04smmnv3kmnt",
      "pitch": 44,
      "pitchName": "G#2",
      "frequencyHz": 103.826174,
      "startTick": 123360,
      "durationTicks": 240,
      "endTick": 123600,
      "startSeconds": 96.375,
      "durationSeconds": 0.188,
      "endSeconds": 96.563,
      "velocity": 0.8,
      "bendActive": true,
      "instrument": 0
    },
    {
      "id": "id_tlk765tnimnv3kmnt",
      "pitch": 51,
      "pitchName": "D#3",
      "frequencyHz": 155.563492,
      "startTick": 123360,
      "durationTicks": 240,
      "endTick": 123600,
      "startSeconds": 96.375,
      "durationSeconds": 0.188,
      "endSeconds": 96.563,
      "velocity": 0.8,
      "bendActive": true,
      "instrument": 0
    },
    {
      "id": "id_at859h6rwmnv3kmnt",
      "pitch": 56,
      "pitchName": "G#3",
      "frequencyHz": 207.652349,
      "startTick": 123360,
      "durationTicks": 240,
      "endTick": 123600,
      "startSeconds": 96.375,
      "durationSeconds": 0.188,
      "endSeconds": 96.563,
      "velocity": 0.8,
      "bendActive": true,
      "instrument": 0
    },
    {
      "id": "id_u60ispt88mnv3kmnt",
      "pitch": 63,
      "pitchName": "D#4",
      "frequencyHz": 311.126984,
      "startTick": 123360,
      "durationTicks": 240,
      "endTick": 123600,
      "startSeconds": 96.375,
      "durationSeconds": 0.188,
      "endSeconds": 96.563,
      "velocity": 0.25,
      "bendActive": true,
      "instrument": 1
    },
    {
      "id": "id_y0mtkqxcymnv3kmnt",
      "pitch": 70,
      "pitchName": "A#4",
      "frequencyHz": 466.163762,
      "startTick": 123360,
      "durationTicks": 240,
      "endTick": 123600,
      "startSeconds": 96.375,
      "durationSeconds": 0.188,
      "endSeconds": 96.563,
      "velocity": 0.25,
      "bendActive": true,
      "instrument": 1
    },
    {
      "id": "id_nu7q8b1zimnv3kmnt",
      "pitch": 44,
      "pitchName": "G#2",
      "frequencyHz": 103.826174,
      "startTick": 123600,
      "durationTicks": 120,
      "endTick": 123720,
      "startSeconds": 96.563,
      "durationSeconds": 0.094,
      "endSeconds": 96.656,
      "velocity": 0.8,
      "bendActive": true,
      "instrument": 0
    },
    {
      "id": "id_3sdopgcv7mnv3kmnt",
      "pitch": 51,
      "pitchName": "D#3",
      "frequencyHz": 155.563492,
      "startTick": 123600,
      "durationTicks": 120,
      "endTick": 123720,
      "startSeconds": 96.563,
      "durationSeconds": 0.094,
      "endSeconds": 96.656,
      "velocity": 0.8,
      "bendActive": true,
      "instrument": 0
    },
    {
      "id": "id_4b0hf7r4amnv3kmnt",
      "pitch": 56,
      "pitchName": "G#3",
      "frequencyHz": 207.652349,
      "startTick": 123600,
      "durationTicks": 120,
      "endTick": 123720,
      "startSeconds": 96.563,
      "durationSeconds": 0.094,
      "endSeconds": 96.656,
      "velocity": 0.8,
      "bendActive": true,
      "instrument": 0
    },
    {
      "id": "id_wyw46uo4umnv3kmnt",
      "pitch": 63,
      "pitchName": "D#4",
      "frequencyHz": 311.126984,
      "startTick": 123600,
      "durationTicks": 120,
      "endTick": 123720,
      "startSeconds": 96.563,
      "durationSeconds": 0.094,
      "endSeconds": 96.656,
      "velocity": 0.25,
      "bendActive": true,
      "instrument": 1
    },
    {
      "id": "id_k5v13qnqbmnv3kmnt",
      "pitch": 70,
      "pitchName": "A#4",
      "frequencyHz": 466.163762,
      "startTick": 123600,
      "durationTicks": 120,
      "endTick": 123720,
      "startSeconds": 96.563,
      "durationSeconds": 0.094,
      "endSeconds": 96.656,
      "velocity": 0.25,
      "bendActive": true,
      "instrument": 1
    },
    {
      "id": "id_49braqjsemnv3kmnt",
      "pitch": 44,
      "pitchName": "G#2",
      "frequencyHz": 103.826174,
      "startTick": 123840,
      "durationTicks": 240,
      "endTick": 124080,
      "startSeconds": 96.75,
      "durationSeconds": 0.188,
      "endSeconds": 96.938,
      "velocity": 0.8,
      "bendActive": true,
      "instrument": 0
    },
    {
      "id": "id_txl69k1etmnv3kmnt",
      "pitch": 51,
      "pitchName": "D#3",
      "frequencyHz": 155.563492,
      "startTick": 123840,
      "durationTicks": 240,
      "endTick": 124080,
      "startSeconds": 96.75,
      "durationSeconds": 0.188,
      "endSeconds": 96.938,
      "velocity": 0.8,
      "bendActive": true,
      "instrument": 0
    },
    {
      "id": "id_k32wshn41mnv3kmnt",
      "pitch": 56,
      "pitchName": "G#3",
      "frequencyHz": 207.652349,
      "startTick": 123840,
      "durationTicks": 240,
      "endTick": 124080,
      "startSeconds": 96.75,
      "durationSeconds": 0.188,
      "endSeconds": 96.938,
      "velocity": 0.8,
      "bendActive": true,
      "instrument": 0
    },
    {
      "id": "id_vwichw01xmnv3kmnt",
      "pitch": 63,
      "pitchName": "D#4",
      "frequencyHz": 311.126984,
      "startTick": 123840,
      "durationTicks": 240,
      "endTick": 124080,
      "startSeconds": 96.75,
      "durationSeconds": 0.188,
      "endSeconds": 96.938,
      "velocity": 0.25,
      "bendActive": true,
      "instrument": 1
    },
    {
      "id": "id_vs9gcfc1hmnv3kmnt",
      "pitch": 70,
      "pitchName": "A#4",
      "frequencyHz": 466.163762,
      "startTick": 123840,
      "durationTicks": 240,
      "endTick": 124080,
      "startSeconds": 96.75,
      "durationSeconds": 0.188,
      "endSeconds": 96.938,
      "velocity": 0.25,
      "bendActive": true,
      "instrument": 1
    },
    {
      "id": "id_emf1qtm1smnv3kmnt",
      "pitch": 44,
      "pitchName": "G#2",
      "frequencyHz": 103.826174,
      "startTick": 124080,
      "durationTicks": 240,
      "endTick": 124320,
      "startSeconds": 96.938,
      "durationSeconds": 0.188,
      "endSeconds": 97.125,
      "velocity": 0.8,
      "bendActive": true,
      "instrument": 0
    },
    {
      "id": "id_4y3ughcdtmnv3kmnt",
      "pitch": 51,
      "pitchName": "D#3",
      "frequencyHz": 155.563492,
      "startTick": 124080,
      "durationTicks": 240,
      "endTick": 124320,
      "startSeconds": 96.938,
      "durationSeconds": 0.188,
      "endSeconds": 97.125,
      "velocity": 0.8,
      "bendActive": true,
      "instrument": 0
    },
    {
      "id": "id_l3ucif185mnv3kmnt",
      "pitch": 56,
      "pitchName": "G#3",
      "frequencyHz": 207.652349,
      "startTick": 124080,
      "durationTicks": 240,
      "endTick": 124320,
      "startSeconds": 96.938,
      "durationSeconds": 0.188,
      "endSeconds": 97.125,
      "velocity": 0.8,
      "bendActive": true,
      "instrument": 0
    },
    {
      "id": "id_qkavdfka5mnv3kmnt",
      "pitch": 63,
      "pitchName": "D#4",
      "frequencyHz": 311.126984,
      "startTick": 124080,
      "durationTicks": 240,
      "endTick": 124320,
      "startSeconds": 96.938,
      "durationSeconds": 0.188,
      "endSeconds": 97.125,
      "velocity": 0.25,
      "bendActive": true,
      "instrument": 1
    },
    {
      "id": "id_n1e3hco6jmnv3kmnt",
      "pitch": 70,
      "pitchName": "A#4",
      "frequencyHz": 466.163762,
      "startTick": 124080,
      "durationTicks": 240,
      "endTick": 124320,
      "startSeconds": 96.938,
      "durationSeconds": 0.188,
      "endSeconds": 97.125,
      "velocity": 0.25,
      "bendActive": true,
      "instrument": 1
    },
    {
      "id": "id_gmvgu2xklmnv3kmnt",
      "pitch": 44,
      "pitchName": "G#2",
      "frequencyHz": 103.826174,
      "startTick": 124320,
      "durationTicks": 240,
      "endTick": 124560,
      "startSeconds": 97.125,
      "durationSeconds": 0.188,
      "endSeconds": 97.313,
      "velocity": 0.8,
      "bendActive": true,
      "instrument": 0
    },
    {
      "id": "id_sr41nzsljmnv3kmnt",
      "pitch": 51,
      "pitchName": "D#3",
      "frequencyHz": 155.563492,
      "startTick": 124320,
      "durationTicks": 240,
      "endTick": 124560,
      "startSeconds": 97.125,
      "durationSeconds": 0.188,
      "endSeconds": 97.313,
      "velocity": 0.8,
      "bendActive": true,
      "instrument": 0
    },
    {
      "id": "id_j3kh774ifmnv3kmnt",
      "pitch": 56,
      "pitchName": "G#3",
      "frequencyHz": 207.652349,
      "startTick": 124320,
      "durationTicks": 240,
      "endTick": 124560,
      "startSeconds": 97.125,
      "durationSeconds": 0.188,
      "endSeconds": 97.313,
      "velocity": 0.8,
      "bendActive": true,
      "instrument": 0
    },
    {
      "id": "id_jr2u0bya0mnv3kmnt",
      "pitch": 63,
      "pitchName": "D#4",
      "frequencyHz": 311.126984,
      "startTick": 124320,
      "durationTicks": 240,
      "endTick": 124560,
      "startSeconds": 97.125,
      "durationSeconds": 0.188,
      "endSeconds": 97.313,
      "velocity": 0.25,
      "bendActive": true,
      "instrument": 1
    },
    {
      "id": "id_40d9y9pwhmnv3kmnt",
      "pitch": 70,
      "pitchName": "A#4",
      "frequencyHz": 466.163762,
      "startTick": 124320,
      "durationTicks": 240,
      "endTick": 124560,
      "startSeconds": 97.125,
      "durationSeconds": 0.188,
      "endSeconds": 97.313,
      "velocity": 0.25,
      "bendActive": true,
      "instrument": 1
    },
    {
      "id": "id_b3chm1wdzmnv3kmnt",
      "pitch": 44,
      "pitchName": "G#2",
      "frequencyHz": 103.826174,
      "startTick": 124560,
      "durationTicks": 240,
      "endTick": 124800,
      "startSeconds": 97.313,
      "durationSeconds": 0.188,
      "endSeconds": 97.5,
      "velocity": 0.8,
      "bendActive": true,
      "instrument": 0
    },
    {
      "id": "id_bcld64oi5mnv3kmnt",
      "pitch": 51,
      "pitchName": "D#3",
      "frequencyHz": 155.563492,
      "startTick": 124560,
      "durationTicks": 240,
      "endTick": 124800,
      "startSeconds": 97.313,
      "durationSeconds": 0.188,
      "endSeconds": 97.5,
      "velocity": 0.8,
      "bendActive": true,
      "instrument": 0
    },
    {
      "id": "id_l1lg3ylzvmnv3kmnt",
      "pitch": 56,
      "pitchName": "G#3",
      "frequencyHz": 207.652349,
      "startTick": 124560,
      "durationTicks": 240,
      "endTick": 124800,
      "startSeconds": 97.313,
      "durationSeconds": 0.188,
      "endSeconds": 97.5,
      "velocity": 0.8,
      "bendActive": true,
      "instrument": 0
    },
    {
      "id": "id_wugjh0p8nmnv3kmnt",
      "pitch": 63,
      "pitchName": "D#4",
      "frequencyHz": 311.126984,
      "startTick": 124560,
      "durationTicks": 240,
      "endTick": 124800,
      "startSeconds": 97.313,
      "durationSeconds": 0.188,
      "endSeconds": 97.5,
      "velocity": 0.25,
      "bendActive": true,
      "instrument": 1
    },
    {
      "id": "id_b9gj2vhc5mnv3kmnt",
      "pitch": 70,
      "pitchName": "A#4",
      "frequencyHz": 466.163762,
      "startTick": 124560,
      "durationTicks": 240,
      "endTick": 124800,
      "startSeconds": 97.313,
      "durationSeconds": 0.188,
      "endSeconds": 97.5,
      "velocity": 0.25,
      "bendActive": true,
      "instrument": 1
    },
    {
      "id": "id_dng3eztbamnv3kmnt",
      "pitch": 44,
      "pitchName": "G#2",
      "frequencyHz": 103.826174,
      "startTick": 124800,
      "durationTicks": 480,
      "endTick": 125280,
      "startSeconds": 97.5,
      "durationSeconds": 0.375,
      "endSeconds": 97.875,
      "velocity": 0.8,
      "bendActive": true,
      "instrument": 0
    },
    {
      "id": "id_sga67fytvmnv3kmnt",
      "pitch": 51,
      "pitchName": "D#3",
      "frequencyHz": 155.563492,
      "startTick": 124800,
      "durationTicks": 480,
      "endTick": 125280,
      "startSeconds": 97.5,
      "durationSeconds": 0.375,
      "endSeconds": 97.875,
      "velocity": 0.8,
      "bendActive": true,
      "instrument": 0
    },
    {
      "id": "id_vszmcublkmnv3kmnt",
      "pitch": 56,
      "pitchName": "G#3",
      "frequencyHz": 207.652349,
      "startTick": 124800,
      "durationTicks": 480,
      "endTick": 125280,
      "startSeconds": 97.5,
      "durationSeconds": 0.375,
      "endSeconds": 97.875,
      "velocity": 0.8,
      "bendActive": true,
      "instrument": 0
    },
    {
      "id": "id_4u11q46jnmnv3kmnt",
      "pitch": 63,
      "pitchName": "D#4",
      "frequencyHz": 311.126984,
      "startTick": 124800,
      "durationTicks": 480,
      "endTick": 125280,
      "startSeconds": 97.5,
      "durationSeconds": 0.375,
      "endSeconds": 97.875,
      "velocity": 0.25,
      "bendActive": true,
      "instrument": 1
    },
    {
      "id": "id_8sdf9ohsumnv3kmnt",
      "pitch": 70,
      "pitchName": "A#4",
      "frequencyHz": 466.163762,
      "startTick": 124800,
      "durationTicks": 480,
      "endTick": 125280,
      "startSeconds": 97.5,
      "durationSeconds": 0.375,
      "endSeconds": 97.875,
      "velocity": 0.25,
      "bendActive": true,
      "instrument": 1
    },
    {
      "id": "id_zzewyrna9mnv3kmnt",
      "pitch": 44,
      "pitchName": "G#2",
      "frequencyHz": 103.826174,
      "startTick": 125280,
      "durationTicks": 240,
      "endTick": 125520,
      "startSeconds": 97.875,
      "durationSeconds": 0.188,
      "endSeconds": 98.063,
      "velocity": 0.8,
      "bendActive": true,
      "instrument": 0
    },
    {
      "id": "id_828t6sfedmnv3kmnt",
      "pitch": 51,
      "pitchName": "D#3",
      "frequencyHz": 155.563492,
      "startTick": 125280,
      "durationTicks": 240,
      "endTick": 125520,
      "startSeconds": 97.875,
      "durationSeconds": 0.188,
      "endSeconds": 98.063,
      "velocity": 0.8,
      "bendActive": true,
      "instrument": 0
    },
    {
      "id": "id_m6lo2nhvamnv3kmnt",
      "pitch": 56,
      "pitchName": "G#3",
      "frequencyHz": 207.652349,
      "startTick": 125280,
      "durationTicks": 240,
      "endTick": 125520,
      "startSeconds": 97.875,
      "durationSeconds": 0.188,
      "endSeconds": 98.063,
      "velocity": 0.8,
      "bendActive": true,
      "instrument": 0
    },
    {
      "id": "id_eqirbt6zcmnv3kmnt",
      "pitch": 63,
      "pitchName": "D#4",
      "frequencyHz": 311.126984,
      "startTick": 125280,
      "durationTicks": 240,
      "endTick": 125520,
      "startSeconds": 97.875,
      "durationSeconds": 0.188,
      "endSeconds": 98.063,
      "velocity": 0.25,
      "bendActive": true,
      "instrument": 1
    },
    {
      "id": "id_rp74phomamnv3kmnt",
      "pitch": 70,
      "pitchName": "A#4",
      "frequencyHz": 466.163762,
      "startTick": 125280,
      "durationTicks": 240,
      "endTick": 125520,
      "startSeconds": 97.875,
      "durationSeconds": 0.188,
      "endSeconds": 98.063,
      "velocity": 0.25,
      "bendActive": true,
      "instrument": 1
    },
    {
      "id": "id_b22g7795cmnv3kmnt",
      "pitch": 44,
      "pitchName": "G#2",
      "frequencyHz": 103.826174,
      "startTick": 125520,
      "durationTicks": 240,
      "endTick": 125760,
      "startSeconds": 98.063,
      "durationSeconds": 0.188,
      "endSeconds": 98.25,
      "velocity": 0.8,
      "bendActive": true,
      "instrument": 0
    },
    {
      "id": "id_yvo51gk5kmnv3kmnt",
      "pitch": 51,
      "pitchName": "D#3",
      "frequencyHz": 155.563492,
      "startTick": 125520,
      "durationTicks": 240,
      "endTick": 125760,
      "startSeconds": 98.063,
      "durationSeconds": 0.188,
      "endSeconds": 98.25,
      "velocity": 0.8,
      "bendActive": true,
      "instrument": 0
    },
    {
      "id": "id_r9i5b6qaemnv3kmnt",
      "pitch": 56,
      "pitchName": "G#3",
      "frequencyHz": 207.652349,
      "startTick": 125520,
      "durationTicks": 240,
      "endTick": 125760,
      "startSeconds": 98.063,
      "durationSeconds": 0.188,
      "endSeconds": 98.25,
      "velocity": 0.8,
      "bendActive": true,
      "instrument": 0
    },
    {
      "id": "id_m4tmtqcuvmnv3kmnt",
      "pitch": 63,
      "pitchName": "D#4",
      "frequencyHz": 311.126984,
      "startTick": 125520,
      "durationTicks": 240,
      "endTick": 125760,
      "startSeconds": 98.063,
      "durationSeconds": 0.188,
      "endSeconds": 98.25,
      "velocity": 0.25,
      "bendActive": true,
      "instrument": 1
    },
    {
      "id": "id_73c0k58gamnv3kmnt",
      "pitch": 70,
      "pitchName": "A#4",
      "frequencyHz": 466.163762,
      "startTick": 125520,
      "durationTicks": 240,
      "endTick": 125760,
      "startSeconds": 98.063,
      "durationSeconds": 0.188,
      "endSeconds": 98.25,
      "velocity": 0.25,
      "bendActive": true,
      "instrument": 1
    },
    {
      "id": "id_kb4nj9vwhmnv3kmnt",
      "pitch": 44,
      "pitchName": "G#2",
      "frequencyHz": 103.826174,
      "startTick": 125760,
      "durationTicks": 240,
      "endTick": 126000,
      "startSeconds": 98.25,
      "durationSeconds": 0.188,
      "endSeconds": 98.438,
      "velocity": 0.8,
      "bendActive": true,
      "instrument": 0
    },
    {
      "id": "id_grnuhkcqimnv3kmnt",
      "pitch": 51,
      "pitchName": "D#3",
      "frequencyHz": 155.563492,
      "startTick": 125760,
      "durationTicks": 240,
      "endTick": 126000,
      "startSeconds": 98.25,
      "durationSeconds": 0.188,
      "endSeconds": 98.438,
      "velocity": 0.8,
      "bendActive": true,
      "instrument": 0
    },
    {
      "id": "id_cpsro2dhpmnv3kmnt",
      "pitch": 56,
      "pitchName": "G#3",
      "frequencyHz": 207.652349,
      "startTick": 125760,
      "durationTicks": 240,
      "endTick": 126000,
      "startSeconds": 98.25,
      "durationSeconds": 0.188,
      "endSeconds": 98.438,
      "velocity": 0.8,
      "bendActive": true,
      "instrument": 0
    },
    {
      "id": "id_u8aadmiifmnv3kmnt",
      "pitch": 63,
      "pitchName": "D#4",
      "frequencyHz": 311.126984,
      "startTick": 125760,
      "durationTicks": 240,
      "endTick": 126000,
      "startSeconds": 98.25,
      "durationSeconds": 0.188,
      "endSeconds": 98.438,
      "velocity": 0.25,
      "bendActive": true,
      "instrument": 1
    },
    {
      "id": "id_6hyzgkj8nmnv3kmnt",
      "pitch": 70,
      "pitchName": "A#4",
      "frequencyHz": 466.163762,
      "startTick": 125760,
      "durationTicks": 240,
      "endTick": 126000,
      "startSeconds": 98.25,
      "durationSeconds": 0.188,
      "endSeconds": 98.438,
      "velocity": 0.25,
      "bendActive": true,
      "instrument": 1
    },
    {
      "id": "id_wtuj5w2zfmnv3kmnt",
      "pitch": 44,
      "pitchName": "G#2",
      "frequencyHz": 103.826174,
      "startTick": 126000,
      "durationTicks": 240,
      "endTick": 126240,
      "startSeconds": 98.438,
      "durationSeconds": 0.188,
      "endSeconds": 98.625,
      "velocity": 0.8,
      "bendActive": true,
      "instrument": 0
    },
    {
      "id": "id_cvgovw9m3mnv3kmnt",
      "pitch": 51,
      "pitchName": "D#3",
      "frequencyHz": 155.563492,
      "startTick": 126000,
      "durationTicks": 240,
      "endTick": 126240,
      "startSeconds": 98.438,
      "durationSeconds": 0.188,
      "endSeconds": 98.625,
      "velocity": 0.8,
      "bendActive": true,
      "instrument": 0
    },
    {
      "id": "id_2jfos1xbrmnv3kmnt",
      "pitch": 56,
      "pitchName": "G#3",
      "frequencyHz": 207.652349,
      "startTick": 126000,
      "durationTicks": 240,
      "endTick": 126240,
      "startSeconds": 98.438,
      "durationSeconds": 0.188,
      "endSeconds": 98.625,
      "velocity": 0.8,
      "bendActive": true,
      "instrument": 0
    },
    {
      "id": "id_ca43459dtmnv3kmnt",
      "pitch": 63,
      "pitchName": "D#4",
      "frequencyHz": 311.126984,
      "startTick": 126000,
      "durationTicks": 240,
      "endTick": 126240,
      "startSeconds": 98.438,
      "durationSeconds": 0.188,
      "endSeconds": 98.625,
      "velocity": 0.25,
      "bendActive": true,
      "instrument": 1
    },
    {
      "id": "id_9p3ly7kbjmnv3kmnt",
      "pitch": 70,
      "pitchName": "A#4",
      "frequencyHz": 466.163762,
      "startTick": 126000,
      "durationTicks": 240,
      "endTick": 126240,
      "startSeconds": 98.438,
      "durationSeconds": 0.188,
      "endSeconds": 98.625,
      "velocity": 0.25,
      "bendActive": true,
      "instrument": 1
    },
    {
      "id": "id_zf05lbsd7mnv3kmnt",
      "pitch": 44,
      "pitchName": "G#2",
      "frequencyHz": 103.826174,
      "startTick": 126240,
      "durationTicks": 240,
      "endTick": 126480,
      "startSeconds": 98.625,
      "durationSeconds": 0.188,
      "endSeconds": 98.813,
      "velocity": 0.8,
      "bendActive": true,
      "instrument": 0
    },
    {
      "id": "id_e2qx6ex8hmnv3kmnt",
      "pitch": 51,
      "pitchName": "D#3",
      "frequencyHz": 155.563492,
      "startTick": 126240,
      "durationTicks": 240,
      "endTick": 126480,
      "startSeconds": 98.625,
      "durationSeconds": 0.188,
      "endSeconds": 98.813,
      "velocity": 0.8,
      "bendActive": true,
      "instrument": 0
    },
    {
      "id": "id_41obofkgtmnv3kmnt",
      "pitch": 56,
      "pitchName": "G#3",
      "frequencyHz": 207.652349,
      "startTick": 126240,
      "durationTicks": 240,
      "endTick": 126480,
      "startSeconds": 98.625,
      "durationSeconds": 0.188,
      "endSeconds": 98.813,
      "velocity": 0.8,
      "bendActive": true,
      "instrument": 0
    },
    {
      "id": "id_9m1fubkzfmnv3kmnt",
      "pitch": 63,
      "pitchName": "D#4",
      "frequencyHz": 311.126984,
      "startTick": 126240,
      "durationTicks": 240,
      "endTick": 126480,
      "startSeconds": 98.625,
      "durationSeconds": 0.188,
      "endSeconds": 98.813,
      "velocity": 0.25,
      "bendActive": true,
      "instrument": 1
    },
    {
      "id": "id_hwtcseznvmnv3kmnt",
      "pitch": 70,
      "pitchName": "A#4",
      "frequencyHz": 466.163762,
      "startTick": 126240,
      "durationTicks": 240,
      "endTick": 126480,
      "startSeconds": 98.625,
      "durationSeconds": 0.188,
      "endSeconds": 98.813,
      "velocity": 0.25,
      "bendActive": true,
      "instrument": 1
    },
    {
      "id": "id_5j87n2wmemnv3kmnt",
      "pitch": 44,
      "pitchName": "G#2",
      "frequencyHz": 103.826174,
      "startTick": 126480,
      "durationTicks": 120,
      "endTick": 126600,
      "startSeconds": 98.813,
      "durationSeconds": 0.094,
      "endSeconds": 98.906,
      "velocity": 0.8,
      "bendActive": true,
      "instrument": 0
    },
    {
      "id": "id_rerqkdn7hmnv3kmnt",
      "pitch": 51,
      "pitchName": "D#3",
      "frequencyHz": 155.563492,
      "startTick": 126480,
      "durationTicks": 120,
      "endTick": 126600,
      "startSeconds": 98.813,
      "durationSeconds": 0.094,
      "endSeconds": 98.906,
      "velocity": 0.8,
      "bendActive": true,
      "instrument": 0
    },
    {
      "id": "id_2xw3hpp6imnv3kmnt",
      "pitch": 56,
      "pitchName": "G#3",
      "frequencyHz": 207.652349,
      "startTick": 126480,
      "durationTicks": 120,
      "endTick": 126600,
      "startSeconds": 98.813,
      "durationSeconds": 0.094,
      "endSeconds": 98.906,
      "velocity": 0.8,
      "bendActive": true,
      "instrument": 0
    },
    {
      "id": "id_w4x09uhbtmnv3kmnt",
      "pitch": 63,
      "pitchName": "D#4",
      "frequencyHz": 311.126984,
      "startTick": 126480,
      "durationTicks": 120,
      "endTick": 126600,
      "startSeconds": 98.813,
      "durationSeconds": 0.094,
      "endSeconds": 98.906,
      "velocity": 0.25,
      "bendActive": true,
      "instrument": 1
    },
    {
      "id": "id_3gup93w4ymnv3kmnt",
      "pitch": 70,
      "pitchName": "A#4",
      "frequencyHz": 466.163762,
      "startTick": 126480,
      "durationTicks": 120,
      "endTick": 126600,
      "startSeconds": 98.813,
      "durationSeconds": 0.094,
      "endSeconds": 98.906,
      "velocity": 0.25,
      "bendActive": true,
      "instrument": 1
    },
    {
      "id": "id_l4n1u2fltmnv3kmnt",
      "pitch": 44,
      "pitchName": "G#2",
      "frequencyHz": 103.826174,
      "startTick": 126720,
      "durationTicks": 240,
      "endTick": 126960,
      "startSeconds": 99,
      "durationSeconds": 0.188,
      "endSeconds": 99.188,
      "velocity": 0.8,
      "bendActive": true,
      "instrument": 0
    },
    {
      "id": "id_t3nntzax1mnv3kmnt",
      "pitch": 51,
      "pitchName": "D#3",
      "frequencyHz": 155.563492,
      "startTick": 126720,
      "durationTicks": 240,
      "endTick": 126960,
      "startSeconds": 99,
      "durationSeconds": 0.188,
      "endSeconds": 99.188,
      "velocity": 0.8,
      "bendActive": true,
      "instrument": 0
    },
    {
      "id": "id_dqxasgh58mnv3kmnt",
      "pitch": 59,
      "pitchName": "B3",
      "frequencyHz": 246.941651,
      "startTick": 126720,
      "durationTicks": 240,
      "endTick": 126960,
      "startSeconds": 99,
      "durationSeconds": 0.188,
      "endSeconds": 99.188,
      "velocity": 0.8,
      "bendActive": true,
      "instrument": 0
    },
    {
      "id": "id_v8hadgtd4mnv3tyc9",
      "pitch": 63,
      "pitchName": "D#4",
      "frequencyHz": 311.126984,
      "startTick": 126720,
      "durationTicks": 240,
      "endTick": 126960,
      "startSeconds": 99,
      "durationSeconds": 0.188,
      "endSeconds": 99.188,
      "velocity": 0.25,
      "bendActive": true,
      "instrument": 1
    },
    {
      "id": "id_3zcgul68emnv3wqx5",
      "pitch": 71,
      "pitchName": "B4",
      "frequencyHz": 493.883301,
      "startTick": 126720,
      "durationTicks": 240,
      "endTick": 126960,
      "startSeconds": 99,
      "durationSeconds": 0.188,
      "endSeconds": 99.188,
      "velocity": 0.25,
      "bendActive": true,
      "instrument": 1
    },
    {
      "id": "id_qxdd3wi6xmnv3kmnt",
      "pitch": 44,
      "pitchName": "G#2",
      "frequencyHz": 103.826174,
      "startTick": 126960,
      "durationTicks": 120,
      "endTick": 127080,
      "startSeconds": 99.188,
      "durationSeconds": 0.094,
      "endSeconds": 99.281,
      "velocity": 0.8,
      "bendActive": true,
      "instrument": 0
    },
    {
      "id": "id_xm2adbq4hmnv3kmnt",
      "pitch": 51,
      "pitchName": "D#3",
      "frequencyHz": 155.563492,
      "startTick": 126960,
      "durationTicks": 120,
      "endTick": 127080,
      "startSeconds": 99.188,
      "durationSeconds": 0.094,
      "endSeconds": 99.281,
      "velocity": 0.8,
      "bendActive": true,
      "instrument": 0
    },
    {
      "id": "id_cxqg6xxz0mnv3kmnt",
      "pitch": 59,
      "pitchName": "B3",
      "frequencyHz": 246.941651,
      "startTick": 126960,
      "durationTicks": 120,
      "endTick": 127080,
      "startSeconds": 99.188,
      "durationSeconds": 0.094,
      "endSeconds": 99.281,
      "velocity": 0.8,
      "bendActive": true,
      "instrument": 0
    },
    {
      "id": "id_lpjgqn0agmnv3tyc9",
      "pitch": 63,
      "pitchName": "D#4",
      "frequencyHz": 311.126984,
      "startTick": 126960,
      "durationTicks": 120,
      "endTick": 127080,
      "startSeconds": 99.188,
      "durationSeconds": 0.094,
      "endSeconds": 99.281,
      "velocity": 0.25,
      "bendActive": true,
      "instrument": 1
    },
    {
      "id": "id_mnr4ngq46mnv3wqx5",
      "pitch": 71,
      "pitchName": "B4",
      "frequencyHz": 493.883301,
      "startTick": 126960,
      "durationTicks": 120,
      "endTick": 127080,
      "startSeconds": 99.188,
      "durationSeconds": 0.094,
      "endSeconds": 99.281,
      "velocity": 0.25,
      "bendActive": true,
      "instrument": 1
    },
    {
      "id": "id_dg4fr4dpcmnv3kmnt",
      "pitch": 44,
      "pitchName": "G#2",
      "frequencyHz": 103.826174,
      "startTick": 127200,
      "durationTicks": 120,
      "endTick": 127320,
      "startSeconds": 99.375,
      "durationSeconds": 0.094,
      "endSeconds": 99.469,
      "velocity": 0.8,
      "bendActive": true,
      "instrument": 0
    },
    {
      "id": "id_o770jp06hmnv3kmnt",
      "pitch": 51,
      "pitchName": "D#3",
      "frequencyHz": 155.563492,
      "startTick": 127200,
      "durationTicks": 120,
      "endTick": 127320,
      "startSeconds": 99.375,
      "durationSeconds": 0.094,
      "endSeconds": 99.469,
      "velocity": 0.8,
      "bendActive": true,
      "instrument": 0
    },
    {
      "id": "id_w94arcdctmnv3kmnt",
      "pitch": 59,
      "pitchName": "B3",
      "frequencyHz": 246.941651,
      "startTick": 127200,
      "durationTicks": 120,
      "endTick": 127320,
      "startSeconds": 99.375,
      "durationSeconds": 0.094,
      "endSeconds": 99.469,
      "velocity": 0.8,
      "bendActive": true,
      "instrument": 0
    },
    {
      "id": "id_f21a1ovuqmnv3tyc9",
      "pitch": 63,
      "pitchName": "D#4",
      "frequencyHz": 311.126984,
      "startTick": 127200,
      "durationTicks": 120,
      "endTick": 127320,
      "startSeconds": 99.375,
      "durationSeconds": 0.094,
      "endSeconds": 99.469,
      "velocity": 0.25,
      "bendActive": true,
      "instrument": 1
    },
    {
      "id": "id_7vuts1vrtmnv3wqx5",
      "pitch": 71,
      "pitchName": "B4",
      "frequencyHz": 493.883301,
      "startTick": 127200,
      "durationTicks": 120,
      "endTick": 127320,
      "startSeconds": 99.375,
      "durationSeconds": 0.094,
      "endSeconds": 99.469,
      "velocity": 0.25,
      "bendActive": true,
      "instrument": 1
    },
    {
      "id": "id_yyvxlieb1mnv3kmnt",
      "pitch": 44,
      "pitchName": "G#2",
      "frequencyHz": 103.826174,
      "startTick": 127440,
      "durationTicks": 240,
      "endTick": 127680,
      "startSeconds": 99.563,
      "durationSeconds": 0.188,
      "endSeconds": 99.75,
      "velocity": 0.8,
      "bendActive": true,
      "instrument": 0
    },
    {
      "id": "id_56dc64n3cmnv3kmnt",
      "pitch": 51,
      "pitchName": "D#3",
      "frequencyHz": 155.563492,
      "startTick": 127440,
      "durationTicks": 240,
      "endTick": 127680,
      "startSeconds": 99.563,
      "durationSeconds": 0.188,
      "endSeconds": 99.75,
      "velocity": 0.8,
      "bendActive": true,
      "instrument": 0
    },
    {
      "id": "id_onf8nvhslmnv3kmnt",
      "pitch": 59,
      "pitchName": "B3",
      "frequencyHz": 246.941651,
      "startTick": 127440,
      "durationTicks": 240,
      "endTick": 127680,
      "startSeconds": 99.563,
      "durationSeconds": 0.188,
      "endSeconds": 99.75,
      "velocity": 0.8,
      "bendActive": true,
      "instrument": 0
    },
    {
      "id": "id_fvny56sddmnv3tyc9",
      "pitch": 63,
      "pitchName": "D#4",
      "frequencyHz": 311.126984,
      "startTick": 127440,
      "durationTicks": 240,
      "endTick": 127680,
      "startSeconds": 99.563,
      "durationSeconds": 0.188,
      "endSeconds": 99.75,
      "velocity": 0.25,
      "bendActive": true,
      "instrument": 1
    },
    {
      "id": "id_eoymc1qobmnv3wqx5",
      "pitch": 71,
      "pitchName": "B4",
      "frequencyHz": 493.883301,
      "startTick": 127440,
      "durationTicks": 240,
      "endTick": 127680,
      "startSeconds": 99.563,
      "durationSeconds": 0.188,
      "endSeconds": 99.75,
      "velocity": 0.25,
      "bendActive": true,
      "instrument": 1
    },
    {
      "id": "id_qq0mlwj36mnv3kmnt",
      "pitch": 44,
      "pitchName": "G#2",
      "frequencyHz": 103.826174,
      "startTick": 127680,
      "durationTicks": 120,
      "endTick": 127800,
      "startSeconds": 99.75,
      "durationSeconds": 0.094,
      "endSeconds": 99.844,
      "velocity": 0.8,
      "bendActive": true,
      "instrument": 0
    },
    {
      "id": "id_n8a3ndyu4mnv3kmnt",
      "pitch": 51,
      "pitchName": "D#3",
      "frequencyHz": 155.563492,
      "startTick": 127680,
      "durationTicks": 120,
      "endTick": 127800,
      "startSeconds": 99.75,
      "durationSeconds": 0.094,
      "endSeconds": 99.844,
      "velocity": 0.8,
      "bendActive": true,
      "instrument": 0
    },
    {
      "id": "id_t3es1ahd9mnv3kmnt",
      "pitch": 59,
      "pitchName": "B3",
      "frequencyHz": 246.941651,
      "startTick": 127680,
      "durationTicks": 120,
      "endTick": 127800,
      "startSeconds": 99.75,
      "durationSeconds": 0.094,
      "endSeconds": 99.844,
      "velocity": 0.8,
      "bendActive": true,
      "instrument": 0
    },
    {
      "id": "id_n4cozva74mnv3tyc9",
      "pitch": 63,
      "pitchName": "D#4",
      "frequencyHz": 311.126984,
      "startTick": 127680,
      "durationTicks": 120,
      "endTick": 127800,
      "startSeconds": 99.75,
      "durationSeconds": 0.094,
      "endSeconds": 99.844,
      "velocity": 0.25,
      "bendActive": true,
      "instrument": 1
    },
    {
      "id": "id_kba4nqygmmnv3wqx5",
      "pitch": 71,
      "pitchName": "B4",
      "frequencyHz": 493.883301,
      "startTick": 127680,
      "durationTicks": 120,
      "endTick": 127800,
      "startSeconds": 99.75,
      "durationSeconds": 0.094,
      "endSeconds": 99.844,
      "velocity": 0.25,
      "bendActive": true,
      "instrument": 1
    },
    {
      "id": "id_q8k9cbltmmnv3kmnt",
      "pitch": 44,
      "pitchName": "G#2",
      "frequencyHz": 103.826174,
      "startTick": 127920,
      "durationTicks": 120,
      "endTick": 128040,
      "startSeconds": 99.938,
      "durationSeconds": 0.094,
      "endSeconds": 100.031,
      "velocity": 0.8,
      "bendActive": true,
      "instrument": 0
    },
    {
      "id": "id_rpwt3tp68mnv3kmnt",
      "pitch": 51,
      "pitchName": "D#3",
      "frequencyHz": 155.563492,
      "startTick": 127920,
      "durationTicks": 120,
      "endTick": 128040,
      "startSeconds": 99.938,
      "durationSeconds": 0.094,
      "endSeconds": 100.031,
      "velocity": 0.8,
      "bendActive": true,
      "instrument": 0
    },
    {
      "id": "id_q9b1ioodimnv3kmnt",
      "pitch": 59,
      "pitchName": "B3",
      "frequencyHz": 246.941651,
      "startTick": 127920,
      "durationTicks": 120,
      "endTick": 128040,
      "startSeconds": 99.938,
      "durationSeconds": 0.094,
      "endSeconds": 100.031,
      "velocity": 0.8,
      "bendActive": true,
      "instrument": 0
    },
    {
      "id": "id_ljhlj3uzumnv3tyc9",
      "pitch": 63,
      "pitchName": "D#4",
      "frequencyHz": 311.126984,
      "startTick": 127920,
      "durationTicks": 120,
      "endTick": 128040,
      "startSeconds": 99.938,
      "durationSeconds": 0.094,
      "endSeconds": 100.031,
      "velocity": 0.25,
      "bendActive": true,
      "instrument": 1
    },
    {
      "id": "id_05th334awmnv3wqx5",
      "pitch": 71,
      "pitchName": "B4",
      "frequencyHz": 493.883301,
      "startTick": 127920,
      "durationTicks": 120,
      "endTick": 128040,
      "startSeconds": 99.938,
      "durationSeconds": 0.094,
      "endSeconds": 100.031,
      "velocity": 0.25,
      "bendActive": true,
      "instrument": 1
    },
    {
      "id": "id_ndbilpij0mnv3kmnt",
      "pitch": 44,
      "pitchName": "G#2",
      "frequencyHz": 103.826174,
      "startTick": 128160,
      "durationTicks": 240,
      "endTick": 128400,
      "startSeconds": 100.125,
      "durationSeconds": 0.188,
      "endSeconds": 100.313,
      "velocity": 0.8,
      "bendActive": true,
      "instrument": 0
    },
    {
      "id": "id_b176jr78wmnv3kmnt",
      "pitch": 51,
      "pitchName": "D#3",
      "frequencyHz": 155.563492,
      "startTick": 128160,
      "durationTicks": 240,
      "endTick": 128400,
      "startSeconds": 100.125,
      "durationSeconds": 0.188,
      "endSeconds": 100.313,
      "velocity": 0.8,
      "bendActive": true,
      "instrument": 0
    },
    {
      "id": "id_edtvgbagqmnv3kmnt",
      "pitch": 59,
      "pitchName": "B3",
      "frequencyHz": 246.941651,
      "startTick": 128160,
      "durationTicks": 240,
      "endTick": 128400,
      "startSeconds": 100.125,
      "durationSeconds": 0.188,
      "endSeconds": 100.313,
      "velocity": 0.8,
      "bendActive": true,
      "instrument": 0
    },
    {
      "id": "id_b41qxgvwmmnv3tyc9",
      "pitch": 63,
      "pitchName": "D#4",
      "frequencyHz": 311.126984,
      "startTick": 128160,
      "durationTicks": 240,
      "endTick": 128400,
      "startSeconds": 100.125,
      "durationSeconds": 0.188,
      "endSeconds": 100.313,
      "velocity": 0.25,
      "bendActive": true,
      "instrument": 1
    },
    {
      "id": "id_4b22ikyiemnv3wqx5",
      "pitch": 71,
      "pitchName": "B4",
      "frequencyHz": 493.883301,
      "startTick": 128160,
      "durationTicks": 240,
      "endTick": 128400,
      "startSeconds": 100.125,
      "durationSeconds": 0.188,
      "endSeconds": 100.313,
      "velocity": 0.25,
      "bendActive": true,
      "instrument": 1
    },
    {
      "id": "id_d7byrz20bmnv3kmnt",
      "pitch": 44,
      "pitchName": "G#2",
      "frequencyHz": 103.826174,
      "startTick": 128400,
      "durationTicks": 120,
      "endTick": 128520,
      "startSeconds": 100.313,
      "durationSeconds": 0.094,
      "endSeconds": 100.406,
      "velocity": 0.8,
      "bendActive": true,
      "instrument": 0
    },
    {
      "id": "id_7ft1t611rmnv3kmnt",
      "pitch": 51,
      "pitchName": "D#3",
      "frequencyHz": 155.563492,
      "startTick": 128400,
      "durationTicks": 120,
      "endTick": 128520,
      "startSeconds": 100.313,
      "durationSeconds": 0.094,
      "endSeconds": 100.406,
      "velocity": 0.8,
      "bendActive": true,
      "instrument": 0
    },
    {
      "id": "id_o1t1pqtfxmnv3kmnt",
      "pitch": 59,
      "pitchName": "B3",
      "frequencyHz": 246.941651,
      "startTick": 128400,
      "durationTicks": 120,
      "endTick": 128520,
      "startSeconds": 100.313,
      "durationSeconds": 0.094,
      "endSeconds": 100.406,
      "velocity": 0.8,
      "bendActive": true,
      "instrument": 0
    },
    {
      "id": "id_jce3p8zr5mnv3tyc9",
      "pitch": 63,
      "pitchName": "D#4",
      "frequencyHz": 311.126984,
      "startTick": 128400,
      "durationTicks": 120,
      "endTick": 128520,
      "startSeconds": 100.313,
      "durationSeconds": 0.094,
      "endSeconds": 100.406,
      "velocity": 0.25,
      "bendActive": true,
      "instrument": 1
    },
    {
      "id": "id_bfmpk37idmnv3wqx5",
      "pitch": 71,
      "pitchName": "B4",
      "frequencyHz": 493.883301,
      "startTick": 128400,
      "durationTicks": 120,
      "endTick": 128520,
      "startSeconds": 100.313,
      "durationSeconds": 0.094,
      "endSeconds": 100.406,
      "velocity": 0.25,
      "bendActive": true,
      "instrument": 1
    },
    {
      "id": "id_dnf5m4f9cmnv3kmnt",
      "pitch": 44,
      "pitchName": "G#2",
      "frequencyHz": 103.826174,
      "startTick": 128640,
      "durationTicks": 240,
      "endTick": 128880,
      "startSeconds": 100.5,
      "durationSeconds": 0.188,
      "endSeconds": 100.688,
      "velocity": 0.8,
      "bendActive": true,
      "instrument": 0
    },
    {
      "id": "id_zb2kzkg8mmnv3kmnt",
      "pitch": 51,
      "pitchName": "D#3",
      "frequencyHz": 155.563492,
      "startTick": 128640,
      "durationTicks": 240,
      "endTick": 128880,
      "startSeconds": 100.5,
      "durationSeconds": 0.188,
      "endSeconds": 100.688,
      "velocity": 0.8,
      "bendActive": true,
      "instrument": 0
    },
    {
      "id": "id_ns5ngeklqmnv3kmnt",
      "pitch": 59,
      "pitchName": "B3",
      "frequencyHz": 246.941651,
      "startTick": 128640,
      "durationTicks": 240,
      "endTick": 128880,
      "startSeconds": 100.5,
      "durationSeconds": 0.188,
      "endSeconds": 100.688,
      "velocity": 0.8,
      "bendActive": true,
      "instrument": 0
    },
    {
      "id": "id_udn8j04l0mnv3tyc9",
      "pitch": 63,
      "pitchName": "D#4",
      "frequencyHz": 311.126984,
      "startTick": 128640,
      "durationTicks": 240,
      "endTick": 128880,
      "startSeconds": 100.5,
      "durationSeconds": 0.188,
      "endSeconds": 100.688,
      "velocity": 0.25,
      "bendActive": true,
      "instrument": 1
    },
    {
      "id": "id_217062r1smnv3wqx5",
      "pitch": 71,
      "pitchName": "B4",
      "frequencyHz": 493.883301,
      "startTick": 128640,
      "durationTicks": 240,
      "endTick": 128880,
      "startSeconds": 100.5,
      "durationSeconds": 0.188,
      "endSeconds": 100.688,
      "velocity": 0.25,
      "bendActive": true,
      "instrument": 1
    },
    {
      "id": "id_euf4l2m1amnv3kmnt",
      "pitch": 44,
      "pitchName": "G#2",
      "frequencyHz": 103.826174,
      "startTick": 128880,
      "durationTicks": 240,
      "endTick": 129120,
      "startSeconds": 100.688,
      "durationSeconds": 0.188,
      "endSeconds": 100.875,
      "velocity": 0.8,
      "bendActive": true,
      "instrument": 0
    },
    {
      "id": "id_99igr3j31mnv3kmnt",
      "pitch": 51,
      "pitchName": "D#3",
      "frequencyHz": 155.563492,
      "startTick": 128880,
      "durationTicks": 240,
      "endTick": 129120,
      "startSeconds": 100.688,
      "durationSeconds": 0.188,
      "endSeconds": 100.875,
      "velocity": 0.8,
      "bendActive": true,
      "instrument": 0
    },
    {
      "id": "id_figvt9dramnv3kmnt",
      "pitch": 59,
      "pitchName": "B3",
      "frequencyHz": 246.941651,
      "startTick": 128880,
      "durationTicks": 240,
      "endTick": 129120,
      "startSeconds": 100.688,
      "durationSeconds": 0.188,
      "endSeconds": 100.875,
      "velocity": 0.8,
      "bendActive": true,
      "instrument": 0
    },
    {
      "id": "id_nt6znggg2mnv3tyc9",
      "pitch": 63,
      "pitchName": "D#4",
      "frequencyHz": 311.126984,
      "startTick": 128880,
      "durationTicks": 240,
      "endTick": 129120,
      "startSeconds": 100.688,
      "durationSeconds": 0.188,
      "endSeconds": 100.875,
      "velocity": 0.25,
      "bendActive": true,
      "instrument": 1
    },
    {
      "id": "id_vmifteq8imnv3wqx5",
      "pitch": 71,
      "pitchName": "B4",
      "frequencyHz": 493.883301,
      "startTick": 128880,
      "durationTicks": 240,
      "endTick": 129120,
      "startSeconds": 100.688,
      "durationSeconds": 0.188,
      "endSeconds": 100.875,
      "velocity": 0.25,
      "bendActive": true,
      "instrument": 1
    },
    {
      "id": "id_h4bi5h4jzmnv3kmnt",
      "pitch": 44,
      "pitchName": "G#2",
      "frequencyHz": 103.826174,
      "startTick": 129120,
      "durationTicks": 120,
      "endTick": 129240,
      "startSeconds": 100.875,
      "durationSeconds": 0.094,
      "endSeconds": 100.969,
      "velocity": 0.8,
      "bendActive": true,
      "instrument": 0
    },
    {
      "id": "id_57f2de8kbmnv3kmnt",
      "pitch": 51,
      "pitchName": "D#3",
      "frequencyHz": 155.563492,
      "startTick": 129120,
      "durationTicks": 120,
      "endTick": 129240,
      "startSeconds": 100.875,
      "durationSeconds": 0.094,
      "endSeconds": 100.969,
      "velocity": 0.8,
      "bendActive": true,
      "instrument": 0
    },
    {
      "id": "id_dtr37zjzjmnv3kmnt",
      "pitch": 59,
      "pitchName": "B3",
      "frequencyHz": 246.941651,
      "startTick": 129120,
      "durationTicks": 120,
      "endTick": 129240,
      "startSeconds": 100.875,
      "durationSeconds": 0.094,
      "endSeconds": 100.969,
      "velocity": 0.8,
      "bendActive": true,
      "instrument": 0
    },
    {
      "id": "id_d3c3vpvk1mnv3tyc9",
      "pitch": 63,
      "pitchName": "D#4",
      "frequencyHz": 311.126984,
      "startTick": 129120,
      "durationTicks": 120,
      "endTick": 129240,
      "startSeconds": 100.875,
      "durationSeconds": 0.094,
      "endSeconds": 100.969,
      "velocity": 0.25,
      "bendActive": true,
      "instrument": 1
    },
    {
      "id": "id_hi4ij2y89mnv3wqx5",
      "pitch": 71,
      "pitchName": "B4",
      "frequencyHz": 493.883301,
      "startTick": 129120,
      "durationTicks": 120,
      "endTick": 129240,
      "startSeconds": 100.875,
      "durationSeconds": 0.094,
      "endSeconds": 100.969,
      "velocity": 0.25,
      "bendActive": true,
      "instrument": 1
    },
    {
      "id": "id_jtsdrjb7zmnv3kmnt",
      "pitch": 44,
      "pitchName": "G#2",
      "frequencyHz": 103.826174,
      "startTick": 129360,
      "durationTicks": 240,
      "endTick": 129600,
      "startSeconds": 101.063,
      "durationSeconds": 0.188,
      "endSeconds": 101.25,
      "velocity": 0.8,
      "bendActive": true,
      "instrument": 0
    },
    {
      "id": "id_e7ytp6t6nmnv3kmnt",
      "pitch": 51,
      "pitchName": "D#3",
      "frequencyHz": 155.563492,
      "startTick": 129360,
      "durationTicks": 240,
      "endTick": 129600,
      "startSeconds": 101.063,
      "durationSeconds": 0.188,
      "endSeconds": 101.25,
      "velocity": 0.8,
      "bendActive": true,
      "instrument": 0
    },
    {
      "id": "id_f1zgutjwymnv3kmnt",
      "pitch": 59,
      "pitchName": "B3",
      "frequencyHz": 246.941651,
      "startTick": 129360,
      "durationTicks": 240,
      "endTick": 129600,
      "startSeconds": 101.063,
      "durationSeconds": 0.188,
      "endSeconds": 101.25,
      "velocity": 0.8,
      "bendActive": true,
      "instrument": 0
    },
    {
      "id": "id_637rjier1mnv3tyc9",
      "pitch": 63,
      "pitchName": "D#4",
      "frequencyHz": 311.126984,
      "startTick": 129360,
      "durationTicks": 240,
      "endTick": 129600,
      "startSeconds": 101.063,
      "durationSeconds": 0.188,
      "endSeconds": 101.25,
      "velocity": 0.25,
      "bendActive": true,
      "instrument": 1
    },
    {
      "id": "id_oinpl9tiimnv3wqx5",
      "pitch": 71,
      "pitchName": "B4",
      "frequencyHz": 493.883301,
      "startTick": 129360,
      "durationTicks": 240,
      "endTick": 129600,
      "startSeconds": 101.063,
      "durationSeconds": 0.188,
      "endSeconds": 101.25,
      "velocity": 0.25,
      "bendActive": true,
      "instrument": 1
    },
    {
      "id": "id_4tzj3japbmnv3kmnt",
      "pitch": 59,
      "pitchName": "B3",
      "frequencyHz": 246.941651,
      "startTick": 129600,
      "durationTicks": 240,
      "endTick": 129840,
      "startSeconds": 101.25,
      "durationSeconds": 0.188,
      "endSeconds": 101.438,
      "velocity": 0.8,
      "bendActive": true,
      "instrument": 0
    },
    {
      "id": "id_vukwvlxodmnv3kmnt",
      "pitch": 62,
      "pitchName": "D4",
      "frequencyHz": 293.664768,
      "startTick": 129600,
      "durationTicks": 240,
      "endTick": 129840,
      "startSeconds": 101.25,
      "durationSeconds": 0.188,
      "endSeconds": 101.438,
      "velocity": 0.25,
      "bendActive": true,
      "instrument": 1
    },
    {
      "id": "id_o8in8fo0omnv3kmnt",
      "pitch": 66,
      "pitchName": "F#4",
      "frequencyHz": 369.994423,
      "startTick": 129600,
      "durationTicks": 240,
      "endTick": 129840,
      "startSeconds": 101.25,
      "durationSeconds": 0.188,
      "endSeconds": 101.438,
      "velocity": 0.8,
      "bendActive": true,
      "instrument": 0
    },
    {
      "id": "id_fhk9y0s87mnv3kmnt",
      "pitch": 71,
      "pitchName": "B4",
      "frequencyHz": 493.883301,
      "startTick": 129600,
      "durationTicks": 240,
      "endTick": 129840,
      "startSeconds": 101.25,
      "durationSeconds": 0.188,
      "endSeconds": 101.438,
      "velocity": 0.8,
      "bendActive": true,
      "instrument": 0
    },
    {
      "id": "id_b8ztpwp9qmnv3yjly",
      "pitch": 74,
      "pitchName": "D5",
      "frequencyHz": 587.329536,
      "startTick": 129600,
      "durationTicks": 240,
      "endTick": 129840,
      "startSeconds": 101.25,
      "durationSeconds": 0.188,
      "endSeconds": 101.438,
      "velocity": 0.25,
      "bendActive": true,
      "instrument": 1
    },
    {
      "id": "id_jqvukcowsmnv3kmnt",
      "pitch": 59,
      "pitchName": "B3",
      "frequencyHz": 246.941651,
      "startTick": 129840,
      "durationTicks": 120,
      "endTick": 129960,
      "startSeconds": 101.438,
      "durationSeconds": 0.094,
      "endSeconds": 101.531,
      "velocity": 0.8,
      "bendActive": true,
      "instrument": 0
    },
    {
      "id": "id_8013zd1jqmnv3kmnt",
      "pitch": 62,
      "pitchName": "D4",
      "frequencyHz": 293.664768,
      "startTick": 129840,
      "durationTicks": 120,
      "endTick": 129960,
      "startSeconds": 101.438,
      "durationSeconds": 0.094,
      "endSeconds": 101.531,
      "velocity": 0.25,
      "bendActive": true,
      "instrument": 1
    },
    {
      "id": "id_zsxbzt2a1mnv3kmnt",
      "pitch": 66,
      "pitchName": "F#4",
      "frequencyHz": 369.994423,
      "startTick": 129840,
      "durationTicks": 120,
      "endTick": 129960,
      "startSeconds": 101.438,
      "durationSeconds": 0.094,
      "endSeconds": 101.531,
      "velocity": 0.8,
      "bendActive": true,
      "instrument": 0
    },
    {
      "id": "id_z4rbzq9vfmnv3kmnt",
      "pitch": 71,
      "pitchName": "B4",
      "frequencyHz": 493.883301,
      "startTick": 129840,
      "durationTicks": 120,
      "endTick": 129960,
      "startSeconds": 101.438,
      "durationSeconds": 0.094,
      "endSeconds": 101.531,
      "velocity": 0.8,
      "bendActive": true,
      "instrument": 0
    },
    {
      "id": "id_1y1v8jk1gmnv3yjly",
      "pitch": 74,
      "pitchName": "D5",
      "frequencyHz": 587.329536,
      "startTick": 129840,
      "durationTicks": 120,
      "endTick": 129960,
      "startSeconds": 101.438,
      "durationSeconds": 0.094,
      "endSeconds": 101.531,
      "velocity": 0.25,
      "bendActive": true,
      "instrument": 1
    },
    {
      "id": "id_ba4tdmda5mnv3kmnt",
      "pitch": 59,
      "pitchName": "B3",
      "frequencyHz": 246.941651,
      "startTick": 130080,
      "durationTicks": 120,
      "endTick": 130200,
      "startSeconds": 101.625,
      "durationSeconds": 0.094,
      "endSeconds": 101.719,
      "velocity": 0.8,
      "bendActive": true,
      "instrument": 0
    },
    {
      "id": "id_3fff6yddbmnv3kmnt",
      "pitch": 62,
      "pitchName": "D4",
      "frequencyHz": 293.664768,
      "startTick": 130080,
      "durationTicks": 120,
      "endTick": 130200,
      "startSeconds": 101.625,
      "durationSeconds": 0.094,
      "endSeconds": 101.719,
      "velocity": 0.25,
      "bendActive": true,
      "instrument": 1
    },
    {
      "id": "id_w4ewdesafmnv3kmnt",
      "pitch": 66,
      "pitchName": "F#4",
      "frequencyHz": 369.994423,
      "startTick": 130080,
      "durationTicks": 120,
      "endTick": 130200,
      "startSeconds": 101.625,
      "durationSeconds": 0.094,
      "endSeconds": 101.719,
      "velocity": 0.8,
      "bendActive": true,
      "instrument": 0
    },
    {
      "id": "id_vgk9y4eoqmnv3kmnt",
      "pitch": 71,
      "pitchName": "B4",
      "frequencyHz": 493.883301,
      "startTick": 130080,
      "durationTicks": 120,
      "endTick": 130200,
      "startSeconds": 101.625,
      "durationSeconds": 0.094,
      "endSeconds": 101.719,
      "velocity": 0.8,
      "bendActive": true,
      "instrument": 0
    },
    {
      "id": "id_hu4lvaab2mnv3yjly",
      "pitch": 74,
      "pitchName": "D5",
      "frequencyHz": 587.329536,
      "startTick": 130080,
      "durationTicks": 120,
      "endTick": 130200,
      "startSeconds": 101.625,
      "durationSeconds": 0.094,
      "endSeconds": 101.719,
      "velocity": 0.25,
      "bendActive": true,
      "instrument": 1
    },
    {
      "id": "id_mq986xkecmnv3kmnt",
      "pitch": 59,
      "pitchName": "B3",
      "frequencyHz": 246.941651,
      "startTick": 130320,
      "durationTicks": 240,
      "endTick": 130560,
      "startSeconds": 101.813,
      "durationSeconds": 0.188,
      "endSeconds": 102,
      "velocity": 0.8,
      "bendActive": true,
      "instrument": 0
    },
    {
      "id": "id_f9pryiujzmnv3kmnt",
      "pitch": 62,
      "pitchName": "D4",
      "frequencyHz": 293.664768,
      "startTick": 130320,
      "durationTicks": 240,
      "endTick": 130560,
      "startSeconds": 101.813,
      "durationSeconds": 0.188,
      "endSeconds": 102,
      "velocity": 0.25,
      "bendActive": true,
      "instrument": 1
    },
    {
      "id": "id_qieibubasmnv3kmnt",
      "pitch": 66,
      "pitchName": "F#4",
      "frequencyHz": 369.994423,
      "startTick": 130320,
      "durationTicks": 240,
      "endTick": 130560,
      "startSeconds": 101.813,
      "durationSeconds": 0.188,
      "endSeconds": 102,
      "velocity": 0.8,
      "bendActive": true,
      "instrument": 0
    },
    {
      "id": "id_i4dd7rwskmnv3kmnt",
      "pitch": 71,
      "pitchName": "B4",
      "frequencyHz": 493.883301,
      "startTick": 130320,
      "durationTicks": 240,
      "endTick": 130560,
      "startSeconds": 101.813,
      "durationSeconds": 0.188,
      "endSeconds": 102,
      "velocity": 0.8,
      "bendActive": true,
      "instrument": 0
    },
    {
      "id": "id_fu67n0i5omnv3yjly",
      "pitch": 74,
      "pitchName": "D5",
      "frequencyHz": 587.329536,
      "startTick": 130320,
      "durationTicks": 240,
      "endTick": 130560,
      "startSeconds": 101.813,
      "durationSeconds": 0.188,
      "endSeconds": 102,
      "velocity": 0.25,
      "bendActive": true,
      "instrument": 1
    },
    {
      "id": "id_nwgc653dgmnv3kmnt",
      "pitch": 59,
      "pitchName": "B3",
      "frequencyHz": 246.941651,
      "startTick": 130560,
      "durationTicks": 120,
      "endTick": 130680,
      "startSeconds": 102,
      "durationSeconds": 0.094,
      "endSeconds": 102.094,
      "velocity": 0.8,
      "bendActive": true,
      "instrument": 0
    },
    {
      "id": "id_atuvvq19rmnv3kmnt",
      "pitch": 62,
      "pitchName": "D4",
      "frequencyHz": 293.664768,
      "startTick": 130560,
      "durationTicks": 120,
      "endTick": 130680,
      "startSeconds": 102,
      "durationSeconds": 0.094,
      "endSeconds": 102.094,
      "velocity": 0.25,
      "bendActive": true,
      "instrument": 1
    },
    {
      "id": "id_01zv7uw73mnv3kmnt",
      "pitch": 66,
      "pitchName": "F#4",
      "frequencyHz": 369.994423,
      "startTick": 130560,
      "durationTicks": 120,
      "endTick": 130680,
      "startSeconds": 102,
      "durationSeconds": 0.094,
      "endSeconds": 102.094,
      "velocity": 0.8,
      "bendActive": true,
      "instrument": 0
    },
    {
      "id": "id_539k7ybdcmnv3kmnt",
      "pitch": 71,
      "pitchName": "B4",
      "frequencyHz": 493.883301,
      "startTick": 130560,
      "durationTicks": 120,
      "endTick": 130680,
      "startSeconds": 102,
      "durationSeconds": 0.094,
      "endSeconds": 102.094,
      "velocity": 0.8,
      "bendActive": true,
      "instrument": 0
    },
    {
      "id": "id_flclfxagqmnv3yjly",
      "pitch": 74,
      "pitchName": "D5",
      "frequencyHz": 587.329536,
      "startTick": 130560,
      "durationTicks": 120,
      "endTick": 130680,
      "startSeconds": 102,
      "durationSeconds": 0.094,
      "endSeconds": 102.094,
      "velocity": 0.25,
      "bendActive": true,
      "instrument": 1
    },
    {
      "id": "id_vt4470c6pmnv3kmnt",
      "pitch": 59,
      "pitchName": "B3",
      "frequencyHz": 246.941651,
      "startTick": 130800,
      "durationTicks": 120,
      "endTick": 130920,
      "startSeconds": 102.188,
      "durationSeconds": 0.094,
      "endSeconds": 102.281,
      "velocity": 0.8,
      "bendActive": true,
      "instrument": 0
    },
    {
      "id": "id_ip5nnqzpzmnv3kmnt",
      "pitch": 62,
      "pitchName": "D4",
      "frequencyHz": 293.664768,
      "startTick": 130800,
      "durationTicks": 120,
      "endTick": 130920,
      "startSeconds": 102.188,
      "durationSeconds": 0.094,
      "endSeconds": 102.281,
      "velocity": 0.25,
      "bendActive": true,
      "instrument": 1
    },
    {
      "id": "id_2mvbpodgtmnv3kmnt",
      "pitch": 66,
      "pitchName": "F#4",
      "frequencyHz": 369.994423,
      "startTick": 130800,
      "durationTicks": 120,
      "endTick": 130920,
      "startSeconds": 102.188,
      "durationSeconds": 0.094,
      "endSeconds": 102.281,
      "velocity": 0.8,
      "bendActive": true,
      "instrument": 0
    },
    {
      "id": "id_liey5pedjmnv3kmnt",
      "pitch": 71,
      "pitchName": "B4",
      "frequencyHz": 493.883301,
      "startTick": 130800,
      "durationTicks": 120,
      "endTick": 130920,
      "startSeconds": 102.188,
      "durationSeconds": 0.094,
      "endSeconds": 102.281,
      "velocity": 0.8,
      "bendActive": true,
      "instrument": 0
    },
    {
      "id": "id_00yjsypowmnv3yjly",
      "pitch": 74,
      "pitchName": "D5",
      "frequencyHz": 587.329536,
      "startTick": 130800,
      "durationTicks": 120,
      "endTick": 130920,
      "startSeconds": 102.188,
      "durationSeconds": 0.094,
      "endSeconds": 102.281,
      "velocity": 0.25,
      "bendActive": true,
      "instrument": 1
    },
    {
      "id": "id_am7u5nax1mnv3kmnt",
      "pitch": 59,
      "pitchName": "B3",
      "frequencyHz": 246.941651,
      "startTick": 131040,
      "durationTicks": 240,
      "endTick": 131280,
      "startSeconds": 102.375,
      "durationSeconds": 0.188,
      "endSeconds": 102.563,
      "velocity": 0.8,
      "bendActive": true,
      "instrument": 0
    },
    {
      "id": "id_wwz5oy7cxmnv3kmnt",
      "pitch": 62,
      "pitchName": "D4",
      "frequencyHz": 293.664768,
      "startTick": 131040,
      "durationTicks": 240,
      "endTick": 131280,
      "startSeconds": 102.375,
      "durationSeconds": 0.188,
      "endSeconds": 102.563,
      "velocity": 0.25,
      "bendActive": true,
      "instrument": 1
    },
    {
      "id": "id_um9aatmzbmnv3kmnt",
      "pitch": 66,
      "pitchName": "F#4",
      "frequencyHz": 369.994423,
      "startTick": 131040,
      "durationTicks": 240,
      "endTick": 131280,
      "startSeconds": 102.375,
      "durationSeconds": 0.188,
      "endSeconds": 102.563,
      "velocity": 0.8,
      "bendActive": true,
      "instrument": 0
    },
    {
      "id": "id_zw1jr6ufumnv3kmnt",
      "pitch": 71,
      "pitchName": "B4",
      "frequencyHz": 493.883301,
      "startTick": 131040,
      "durationTicks": 240,
      "endTick": 131280,
      "startSeconds": 102.375,
      "durationSeconds": 0.188,
      "endSeconds": 102.563,
      "velocity": 0.8,
      "bendActive": true,
      "instrument": 0
    },
    {
      "id": "id_tcpps5j2nmnv3yjly",
      "pitch": 74,
      "pitchName": "D5",
      "frequencyHz": 587.329536,
      "startTick": 131040,
      "durationTicks": 240,
      "endTick": 131280,
      "startSeconds": 102.375,
      "durationSeconds": 0.188,
      "endSeconds": 102.563,
      "velocity": 0.25,
      "bendActive": true,
      "instrument": 1
    },
    {
      "id": "id_oeoyi6d6dmnv3kmnt",
      "pitch": 59,
      "pitchName": "B3",
      "frequencyHz": 246.941651,
      "startTick": 131280,
      "durationTicks": 240,
      "endTick": 131520,
      "startSeconds": 102.563,
      "durationSeconds": 0.188,
      "endSeconds": 102.75,
      "velocity": 0.8,
      "bendActive": true,
      "instrument": 0
    },
    {
      "id": "id_i0ttmq4bgmnv3kmnt",
      "pitch": 62,
      "pitchName": "D4",
      "frequencyHz": 293.664768,
      "startTick": 131280,
      "durationTicks": 240,
      "endTick": 131520,
      "startSeconds": 102.563,
      "durationSeconds": 0.188,
      "endSeconds": 102.75,
      "velocity": 0.25,
      "bendActive": true,
      "instrument": 1
    },
    {
      "id": "id_nekhffxl1mnv3kmnt",
      "pitch": 66,
      "pitchName": "F#4",
      "frequencyHz": 369.994423,
      "startTick": 131280,
      "durationTicks": 240,
      "endTick": 131520,
      "startSeconds": 102.563,
      "durationSeconds": 0.188,
      "endSeconds": 102.75,
      "velocity": 0.8,
      "bendActive": true,
      "instrument": 0
    },
    {
      "id": "id_vgkk3fhyfmnv3kmnt",
      "pitch": 71,
      "pitchName": "B4",
      "frequencyHz": 493.883301,
      "startTick": 131280,
      "durationTicks": 240,
      "endTick": 131520,
      "startSeconds": 102.563,
      "durationSeconds": 0.188,
      "endSeconds": 102.75,
      "velocity": 0.8,
      "bendActive": true,
      "instrument": 0
    },
    {
      "id": "id_ea837qhh0mnv3yjly",
      "pitch": 74,
      "pitchName": "D5",
      "frequencyHz": 587.329536,
      "startTick": 131280,
      "durationTicks": 240,
      "endTick": 131520,
      "startSeconds": 102.563,
      "durationSeconds": 0.188,
      "endSeconds": 102.75,
      "velocity": 0.25,
      "bendActive": true,
      "instrument": 1
    },
    {
      "id": "id_1dmw8pyvamnv3kmnt",
      "pitch": 59,
      "pitchName": "B3",
      "frequencyHz": 246.941651,
      "startTick": 131520,
      "durationTicks": 120,
      "endTick": 131640,
      "startSeconds": 102.75,
      "durationSeconds": 0.094,
      "endSeconds": 102.844,
      "velocity": 0.8,
      "bendActive": true,
      "instrument": 0
    },
    {
      "id": "id_3znjgvocxmnv3kmnt",
      "pitch": 62,
      "pitchName": "D4",
      "frequencyHz": 293.664768,
      "startTick": 131520,
      "durationTicks": 120,
      "endTick": 131640,
      "startSeconds": 102.75,
      "durationSeconds": 0.094,
      "endSeconds": 102.844,
      "velocity": 0.25,
      "bendActive": true,
      "instrument": 1
    },
    {
      "id": "id_erspwfutmmnv3kmnt",
      "pitch": 66,
      "pitchName": "F#4",
      "frequencyHz": 369.994423,
      "startTick": 131520,
      "durationTicks": 120,
      "endTick": 131640,
      "startSeconds": 102.75,
      "durationSeconds": 0.094,
      "endSeconds": 102.844,
      "velocity": 0.8,
      "bendActive": true,
      "instrument": 0
    },
    {
      "id": "id_ff7zft8kwmnv3kmnt",
      "pitch": 71,
      "pitchName": "B4",
      "frequencyHz": 493.883301,
      "startTick": 131520,
      "durationTicks": 120,
      "endTick": 131640,
      "startSeconds": 102.75,
      "durationSeconds": 0.094,
      "endSeconds": 102.844,
      "velocity": 0.8,
      "bendActive": true,
      "instrument": 0
    },
    {
      "id": "id_v1ip94p4rmnv3yjly",
      "pitch": 74,
      "pitchName": "D5",
      "frequencyHz": 587.329536,
      "startTick": 131520,
      "durationTicks": 120,
      "endTick": 131640,
      "startSeconds": 102.75,
      "durationSeconds": 0.094,
      "endSeconds": 102.844,
      "velocity": 0.25,
      "bendActive": true,
      "instrument": 1
    },
    {
      "id": "id_2zcmj3isomnv3kmnt",
      "pitch": 59,
      "pitchName": "B3",
      "frequencyHz": 246.941651,
      "startTick": 131760,
      "durationTicks": 240,
      "endTick": 132000,
      "startSeconds": 102.938,
      "durationSeconds": 0.188,
      "endSeconds": 103.125,
      "velocity": 0.8,
      "bendActive": true,
      "instrument": 0
    },
    {
      "id": "id_89dwb3ymsmnv3kmnt",
      "pitch": 62,
      "pitchName": "D4",
      "frequencyHz": 293.664768,
      "startTick": 131760,
      "durationTicks": 240,
      "endTick": 132000,
      "startSeconds": 102.938,
      "durationSeconds": 0.188,
      "endSeconds": 103.125,
      "velocity": 0.25,
      "bendActive": true,
      "instrument": 1
    },
    {
      "id": "id_bn75o6j3hmnv3kmnt",
      "pitch": 66,
      "pitchName": "F#4",
      "frequencyHz": 369.994423,
      "startTick": 131760,
      "durationTicks": 240,
      "endTick": 132000,
      "startSeconds": 102.938,
      "durationSeconds": 0.188,
      "endSeconds": 103.125,
      "velocity": 0.8,
      "bendActive": true,
      "instrument": 0
    },
    {
      "id": "id_h7y50hmvhmnv3kmnt",
      "pitch": 71,
      "pitchName": "B4",
      "frequencyHz": 493.883301,
      "startTick": 131760,
      "durationTicks": 240,
      "endTick": 132000,
      "startSeconds": 102.938,
      "durationSeconds": 0.188,
      "endSeconds": 103.125,
      "velocity": 0.8,
      "bendActive": true,
      "instrument": 0
    },
    {
      "id": "id_5ymsrwbzjmnv3yjly",
      "pitch": 74,
      "pitchName": "D5",
      "frequencyHz": 587.329536,
      "startTick": 131760,
      "durationTicks": 240,
      "endTick": 132000,
      "startSeconds": 102.938,
      "durationSeconds": 0.188,
      "endSeconds": 103.125,
      "velocity": 0.25,
      "bendActive": true,
      "instrument": 1
    },
    {
      "id": "id_7jdy93ehomnv3kmnt",
      "pitch": 59,
      "pitchName": "B3",
      "frequencyHz": 246.941651,
      "startTick": 132000,
      "durationTicks": 120,
      "endTick": 132120,
      "startSeconds": 103.125,
      "durationSeconds": 0.094,
      "endSeconds": 103.219,
      "velocity": 0.8,
      "bendActive": true,
      "instrument": 0
    },
    {
      "id": "id_xofrt9xdamnv3kmnt",
      "pitch": 62,
      "pitchName": "D4",
      "frequencyHz": 293.664768,
      "startTick": 132000,
      "durationTicks": 120,
      "endTick": 132120,
      "startSeconds": 103.125,
      "durationSeconds": 0.094,
      "endSeconds": 103.219,
      "velocity": 0.25,
      "bendActive": true,
      "instrument": 1
    },
    {
      "id": "id_mp86bsd2omnv3kmnt",
      "pitch": 66,
      "pitchName": "F#4",
      "frequencyHz": 369.994423,
      "startTick": 132000,
      "durationTicks": 120,
      "endTick": 132120,
      "startSeconds": 103.125,
      "durationSeconds": 0.094,
      "endSeconds": 103.219,
      "velocity": 0.8,
      "bendActive": true,
      "instrument": 0
    },
    {
      "id": "id_hqwnjd9wwmnv3kmnt",
      "pitch": 71,
      "pitchName": "B4",
      "frequencyHz": 493.883301,
      "startTick": 132000,
      "durationTicks": 120,
      "endTick": 132120,
      "startSeconds": 103.125,
      "durationSeconds": 0.094,
      "endSeconds": 103.219,
      "velocity": 0.8,
      "bendActive": true,
      "instrument": 0
    },
    {
      "id": "id_6s9dtce9omnv3yjly",
      "pitch": 74,
      "pitchName": "D5",
      "frequencyHz": 587.329536,
      "startTick": 132000,
      "durationTicks": 120,
      "endTick": 132120,
      "startSeconds": 103.125,
      "durationSeconds": 0.094,
      "endSeconds": 103.219,
      "velocity": 0.25,
      "bendActive": true,
      "instrument": 1
    },
    {
      "id": "id_jcd6cyxq8mnv3kmnt",
      "pitch": 59,
      "pitchName": "B3",
      "frequencyHz": 246.941651,
      "startTick": 132240,
      "durationTicks": 240,
      "endTick": 132480,
      "startSeconds": 103.313,
      "durationSeconds": 0.188,
      "endSeconds": 103.5,
      "velocity": 0.8,
      "bendActive": true,
      "instrument": 0
    },
    {
      "id": "id_onyrl6np4mnv3kmnt",
      "pitch": 62,
      "pitchName": "D4",
      "frequencyHz": 293.664768,
      "startTick": 132240,
      "durationTicks": 240,
      "endTick": 132480,
      "startSeconds": 103.313,
      "durationSeconds": 0.188,
      "endSeconds": 103.5,
      "velocity": 0.25,
      "bendActive": true,
      "instrument": 1
    },
    {
      "id": "id_3zpfl757lmnv3kmnt",
      "pitch": 66,
      "pitchName": "F#4",
      "frequencyHz": 369.994423,
      "startTick": 132240,
      "durationTicks": 240,
      "endTick": 132480,
      "startSeconds": 103.313,
      "durationSeconds": 0.188,
      "endSeconds": 103.5,
      "velocity": 0.8,
      "bendActive": true,
      "instrument": 0
    },
    {
      "id": "id_u7ds80nkjmnv3kmnt",
      "pitch": 71,
      "pitchName": "B4",
      "frequencyHz": 493.883301,
      "startTick": 132240,
      "durationTicks": 240,
      "endTick": 132480,
      "startSeconds": 103.313,
      "durationSeconds": 0.188,
      "endSeconds": 103.5,
      "velocity": 0.8,
      "bendActive": true,
      "instrument": 0
    },
    {
      "id": "id_e2qdk2a2zmnv3yjly",
      "pitch": 74,
      "pitchName": "D5",
      "frequencyHz": 587.329536,
      "startTick": 132240,
      "durationTicks": 240,
      "endTick": 132480,
      "startSeconds": 103.313,
      "durationSeconds": 0.188,
      "endSeconds": 103.5,
      "velocity": 0.25,
      "bendActive": true,
      "instrument": 1
    },
    {
      "id": "id_8dk7hy95nmnv3kmnt",
      "pitch": 44,
      "pitchName": "G#2",
      "frequencyHz": 103.826174,
      "startTick": 132480,
      "durationTicks": 240,
      "endTick": 132720,
      "startSeconds": 103.5,
      "durationSeconds": 0.188,
      "endSeconds": 103.688,
      "velocity": 0.8,
      "bendActive": true,
      "instrument": 0
    },
    {
      "id": "id_zcsteo0qqmnv3kmnt",
      "pitch": 51,
      "pitchName": "D#3",
      "frequencyHz": 155.563492,
      "startTick": 132480,
      "durationTicks": 240,
      "endTick": 132720,
      "startSeconds": 103.5,
      "durationSeconds": 0.188,
      "endSeconds": 103.688,
      "velocity": 0.8,
      "bendActive": true,
      "instrument": 0
    },
    {
      "id": "id_xxyx0uq1imnv3kmnt",
      "pitch": 59,
      "pitchName": "B3",
      "frequencyHz": 246.941651,
      "startTick": 132480,
      "durationTicks": 240,
      "endTick": 132720,
      "startSeconds": 103.5,
      "durationSeconds": 0.188,
      "endSeconds": 103.688,
      "velocity": 0.8,
      "bendActive": true,
      "instrument": 0
    },
    {
      "id": "id_d5fbhkip9mnv3kmnt",
      "pitch": 63,
      "pitchName": "D#4",
      "frequencyHz": 311.126984,
      "startTick": 132480,
      "durationTicks": 240,
      "endTick": 132720,
      "startSeconds": 103.5,
      "durationSeconds": 0.188,
      "endSeconds": 103.688,
      "velocity": 0.25,
      "bendActive": true,
      "instrument": 1
    },
    {
      "id": "id_p9sk2v6u6mnv3z9ap",
      "pitch": 71,
      "pitchName": "B4",
      "frequencyHz": 493.883301,
      "startTick": 132480,
      "durationTicks": 240,
      "endTick": 132720,
      "startSeconds": 103.5,
      "durationSeconds": 0.188,
      "endSeconds": 103.688,
      "velocity": 0.25,
      "bendActive": true,
      "instrument": 1
    },
    {
      "id": "id_rc9vknbadmnv3kmnt",
      "pitch": 59,
      "pitchName": "B3",
      "frequencyHz": 246.941651,
      "startTick": 132600,
      "durationTicks": 120,
      "endTick": 132720,
      "startSeconds": 103.594,
      "durationSeconds": 0.094,
      "endSeconds": 103.688,
      "velocity": 0.8,
      "bendActive": true,
      "instrument": 0
    },
    {
      "id": "id_yqmxb9kt6mnv3kmnt",
      "pitch": 44,
      "pitchName": "G#2",
      "frequencyHz": 103.826174,
      "startTick": 132720,
      "durationTicks": 120,
      "endTick": 132840,
      "startSeconds": 103.688,
      "durationSeconds": 0.094,
      "endSeconds": 103.781,
      "velocity": 0.8,
      "bendActive": true,
      "instrument": 0
    },
    {
      "id": "id_zmk10kbeumnv3kmnt",
      "pitch": 51,
      "pitchName": "D#3",
      "frequencyHz": 155.563492,
      "startTick": 132720,
      "durationTicks": 120,
      "endTick": 132840,
      "startSeconds": 103.688,
      "durationSeconds": 0.094,
      "endSeconds": 103.781,
      "velocity": 0.8,
      "bendActive": true,
      "instrument": 0
    },
    {
      "id": "id_1094zu8a3mnv3kmnt",
      "pitch": 59,
      "pitchName": "B3",
      "frequencyHz": 246.941651,
      "startTick": 132720,
      "durationTicks": 120,
      "endTick": 132840,
      "startSeconds": 103.688,
      "durationSeconds": 0.094,
      "endSeconds": 103.781,
      "velocity": 0.8,
      "bendActive": true,
      "instrument": 0
    },
    {
      "id": "id_g24j6i0xjmnv3kmnt",
      "pitch": 63,
      "pitchName": "D#4",
      "frequencyHz": 311.126984,
      "startTick": 132720,
      "durationTicks": 120,
      "endTick": 132840,
      "startSeconds": 103.688,
      "durationSeconds": 0.094,
      "endSeconds": 103.781,
      "velocity": 0.25,
      "bendActive": true,
      "instrument": 1
    },
    {
      "id": "id_jadnq749qmnv3z9ap",
      "pitch": 71,
      "pitchName": "B4",
      "frequencyHz": 493.883301,
      "startTick": 132720,
      "durationTicks": 120,
      "endTick": 132840,
      "startSeconds": 103.688,
      "durationSeconds": 0.094,
      "endSeconds": 103.781,
      "velocity": 0.25,
      "bendActive": true,
      "instrument": 1
    },
    {
      "id": "id_90d678q4hmnv3kmnt",
      "pitch": 44,
      "pitchName": "G#2",
      "frequencyHz": 103.826174,
      "startTick": 132960,
      "durationTicks": 120,
      "endTick": 133080,
      "startSeconds": 103.875,
      "durationSeconds": 0.094,
      "endSeconds": 103.969,
      "velocity": 0.8,
      "bendActive": true,
      "instrument": 0
    },
    {
      "id": "id_vc8t2nuz4mnv3kmnt",
      "pitch": 51,
      "pitchName": "D#3",
      "frequencyHz": 155.563492,
      "startTick": 132960,
      "durationTicks": 120,
      "endTick": 133080,
      "startSeconds": 103.875,
      "durationSeconds": 0.094,
      "endSeconds": 103.969,
      "velocity": 0.8,
      "bendActive": true,
      "instrument": 0
    },
    {
      "id": "id_uin4v40n5mnv3kmnt",
      "pitch": 59,
      "pitchName": "B3",
      "frequencyHz": 246.941651,
      "startTick": 132960,
      "durationTicks": 120,
      "endTick": 133080,
      "startSeconds": 103.875,
      "durationSeconds": 0.094,
      "endSeconds": 103.969,
      "velocity": 0.8,
      "bendActive": true,
      "instrument": 0
    },
    {
      "id": "id_68qz8igp5mnv3kmnt",
      "pitch": 63,
      "pitchName": "D#4",
      "frequencyHz": 311.126984,
      "startTick": 132960,
      "durationTicks": 120,
      "endTick": 133080,
      "startSeconds": 103.875,
      "durationSeconds": 0.094,
      "endSeconds": 103.969,
      "velocity": 0.25,
      "bendActive": true,
      "instrument": 1
    },
    {
      "id": "id_b128owg33mnv3z9ap",
      "pitch": 71,
      "pitchName": "B4",
      "frequencyHz": 493.883301,
      "startTick": 132960,
      "durationTicks": 120,
      "endTick": 133080,
      "startSeconds": 103.875,
      "durationSeconds": 0.094,
      "endSeconds": 103.969,
      "velocity": 0.25,
      "bendActive": true,
      "instrument": 1
    },
    {
      "id": "id_g85jp6potmnv3kmnt",
      "pitch": 44,
      "pitchName": "G#2",
      "frequencyHz": 103.826174,
      "startTick": 133200,
      "durationTicks": 240,
      "endTick": 133440,
      "startSeconds": 104.063,
      "durationSeconds": 0.188,
      "endSeconds": 104.25,
      "velocity": 0.8,
      "bendActive": true,
      "instrument": 0
    },
    {
      "id": "id_i93wgmgzvmnv3kmnt",
      "pitch": 51,
      "pitchName": "D#3",
      "frequencyHz": 155.563492,
      "startTick": 133200,
      "durationTicks": 240,
      "endTick": 133440,
      "startSeconds": 104.063,
      "durationSeconds": 0.188,
      "endSeconds": 104.25,
      "velocity": 0.8,
      "bendActive": true,
      "instrument": 0
    },
    {
      "id": "id_h8i97fw9mmnv3kmnt",
      "pitch": 59,
      "pitchName": "B3",
      "frequencyHz": 246.941651,
      "startTick": 133200,
      "durationTicks": 240,
      "endTick": 133440,
      "startSeconds": 104.063,
      "durationSeconds": 0.188,
      "endSeconds": 104.25,
      "velocity": 0.8,
      "bendActive": true,
      "instrument": 0
    },
    {
      "id": "id_3o6p18lw7mnv3kmnt",
      "pitch": 63,
      "pitchName": "D#4",
      "frequencyHz": 311.126984,
      "startTick": 133200,
      "durationTicks": 240,
      "endTick": 133440,
      "startSeconds": 104.063,
      "durationSeconds": 0.188,
      "endSeconds": 104.25,
      "velocity": 0.25,
      "bendActive": true,
      "instrument": 1
    },
    {
      "id": "id_d4771oj0lmnv3z9ap",
      "pitch": 71,
      "pitchName": "B4",
      "frequencyHz": 493.883301,
      "startTick": 133200,
      "durationTicks": 240,
      "endTick": 133440,
      "startSeconds": 104.063,
      "durationSeconds": 0.188,
      "endSeconds": 104.25,
      "velocity": 0.25,
      "bendActive": true,
      "instrument": 1
    },
    {
      "id": "id_jw8k4hlssmnv3kmnt",
      "pitch": 44,
      "pitchName": "G#2",
      "frequencyHz": 103.826174,
      "startTick": 133440,
      "durationTicks": 120,
      "endTick": 133560,
      "startSeconds": 104.25,
      "durationSeconds": 0.094,
      "endSeconds": 104.344,
      "velocity": 0.8,
      "bendActive": true,
      "instrument": 0
    },
    {
      "id": "id_1tms16jeumnv3kmnt",
      "pitch": 51,
      "pitchName": "D#3",
      "frequencyHz": 155.563492,
      "startTick": 133440,
      "durationTicks": 120,
      "endTick": 133560,
      "startSeconds": 104.25,
      "durationSeconds": 0.094,
      "endSeconds": 104.344,
      "velocity": 0.8,
      "bendActive": true,
      "instrument": 0
    },
    {
      "id": "id_d9eu3gja3mnv3kmnt",
      "pitch": 59,
      "pitchName": "B3",
      "frequencyHz": 246.941651,
      "startTick": 133440,
      "durationTicks": 120,
      "endTick": 133560,
      "startSeconds": 104.25,
      "durationSeconds": 0.094,
      "endSeconds": 104.344,
      "velocity": 0.8,
      "bendActive": true,
      "instrument": 0
    },
    {
      "id": "id_h7ifsilahmnv3kmnt",
      "pitch": 63,
      "pitchName": "D#4",
      "frequencyHz": 311.126984,
      "startTick": 133440,
      "durationTicks": 120,
      "endTick": 133560,
      "startSeconds": 104.25,
      "durationSeconds": 0.094,
      "endSeconds": 104.344,
      "velocity": 0.25,
      "bendActive": true,
      "instrument": 1
    },
    {
      "id": "id_6kosar9sdmnv3z9ap",
      "pitch": 71,
      "pitchName": "B4",
      "frequencyHz": 493.883301,
      "startTick": 133440,
      "durationTicks": 120,
      "endTick": 133560,
      "startSeconds": 104.25,
      "durationSeconds": 0.094,
      "endSeconds": 104.344,
      "velocity": 0.25,
      "bendActive": true,
      "instrument": 1
    },
    {
      "id": "id_8ewvyagd2mnv3kmnt",
      "pitch": 44,
      "pitchName": "G#2",
      "frequencyHz": 103.826174,
      "startTick": 133680,
      "durationTicks": 120,
      "endTick": 133800,
      "startSeconds": 104.438,
      "durationSeconds": 0.094,
      "endSeconds": 104.531,
      "velocity": 0.8,
      "bendActive": true,
      "instrument": 0
    },
    {
      "id": "id_5z0vfaubhmnv3kmnt",
      "pitch": 51,
      "pitchName": "D#3",
      "frequencyHz": 155.563492,
      "startTick": 133680,
      "durationTicks": 120,
      "endTick": 133800,
      "startSeconds": 104.438,
      "durationSeconds": 0.094,
      "endSeconds": 104.531,
      "velocity": 0.8,
      "bendActive": true,
      "instrument": 0
    },
    {
      "id": "id_y8wnrlucnmnv3kmnt",
      "pitch": 59,
      "pitchName": "B3",
      "frequencyHz": 246.941651,
      "startTick": 133680,
      "durationTicks": 120,
      "endTick": 133800,
      "startSeconds": 104.438,
      "durationSeconds": 0.094,
      "endSeconds": 104.531,
      "velocity": 0.8,
      "bendActive": true,
      "instrument": 0
    },
    {
      "id": "id_s6jfzcimumnv3kmnt",
      "pitch": 63,
      "pitchName": "D#4",
      "frequencyHz": 311.126984,
      "startTick": 133680,
      "durationTicks": 120,
      "endTick": 133800,
      "startSeconds": 104.438,
      "durationSeconds": 0.094,
      "endSeconds": 104.531,
      "velocity": 0.25,
      "bendActive": true,
      "instrument": 1
    },
    {
      "id": "id_cwr0gjn3lmnv3z9ap",
      "pitch": 71,
      "pitchName": "B4",
      "frequencyHz": 493.883301,
      "startTick": 133680,
      "durationTicks": 120,
      "endTick": 133800,
      "startSeconds": 104.438,
      "durationSeconds": 0.094,
      "endSeconds": 104.531,
      "velocity": 0.25,
      "bendActive": true,
      "instrument": 1
    },
    {
      "id": "id_qcrxa62sxmnv3kmnt",
      "pitch": 44,
      "pitchName": "G#2",
      "frequencyHz": 103.826174,
      "startTick": 133920,
      "durationTicks": 240,
      "endTick": 134160,
      "startSeconds": 104.625,
      "durationSeconds": 0.188,
      "endSeconds": 104.813,
      "velocity": 0.8,
      "bendActive": true,
      "instrument": 0
    },
    {
      "id": "id_pbi1468rlmnv3kmnt",
      "pitch": 51,
      "pitchName": "D#3",
      "frequencyHz": 155.563492,
      "startTick": 133920,
      "durationTicks": 240,
      "endTick": 134160,
      "startSeconds": 104.625,
      "durationSeconds": 0.188,
      "endSeconds": 104.813,
      "velocity": 0.8,
      "bendActive": true,
      "instrument": 0
    },
    {
      "id": "id_1mzpe9s17mnv3kmnt",
      "pitch": 59,
      "pitchName": "B3",
      "frequencyHz": 246.941651,
      "startTick": 133920,
      "durationTicks": 240,
      "endTick": 134160,
      "startSeconds": 104.625,
      "durationSeconds": 0.188,
      "endSeconds": 104.813,
      "velocity": 0.8,
      "bendActive": true,
      "instrument": 0
    },
    {
      "id": "id_simfxqvpumnv3kmnt",
      "pitch": 63,
      "pitchName": "D#4",
      "frequencyHz": 311.126984,
      "startTick": 133920,
      "durationTicks": 240,
      "endTick": 134160,
      "startSeconds": 104.625,
      "durationSeconds": 0.188,
      "endSeconds": 104.813,
      "velocity": 0.25,
      "bendActive": true,
      "instrument": 1
    },
    {
      "id": "id_kqjlbcyfvmnv3z9ap",
      "pitch": 71,
      "pitchName": "B4",
      "frequencyHz": 493.883301,
      "startTick": 133920,
      "durationTicks": 240,
      "endTick": 134160,
      "startSeconds": 104.625,
      "durationSeconds": 0.188,
      "endSeconds": 104.813,
      "velocity": 0.25,
      "bendActive": true,
      "instrument": 1
    },
    {
      "id": "id_zu6sr91famnv3kmnt",
      "pitch": 44,
      "pitchName": "G#2",
      "frequencyHz": 103.826174,
      "startTick": 134160,
      "durationTicks": 120,
      "endTick": 134280,
      "startSeconds": 104.813,
      "durationSeconds": 0.094,
      "endSeconds": 104.906,
      "velocity": 0.8,
      "bendActive": true,
      "instrument": 0
    },
    {
      "id": "id_lchdmwmw1mnv3kmnt",
      "pitch": 51,
      "pitchName": "D#3",
      "frequencyHz": 155.563492,
      "startTick": 134160,
      "durationTicks": 120,
      "endTick": 134280,
      "startSeconds": 104.813,
      "durationSeconds": 0.094,
      "endSeconds": 104.906,
      "velocity": 0.8,
      "bendActive": true,
      "instrument": 0
    },
    {
      "id": "id_69avsje7tmnv3kmnt",
      "pitch": 59,
      "pitchName": "B3",
      "frequencyHz": 246.941651,
      "startTick": 134160,
      "durationTicks": 120,
      "endTick": 134280,
      "startSeconds": 104.813,
      "durationSeconds": 0.094,
      "endSeconds": 104.906,
      "velocity": 0.8,
      "bendActive": true,
      "instrument": 0
    },
    {
      "id": "id_nvw4xbheamnv3kmnt",
      "pitch": 63,
      "pitchName": "D#4",
      "frequencyHz": 311.126984,
      "startTick": 134160,
      "durationTicks": 120,
      "endTick": 134280,
      "startSeconds": 104.813,
      "durationSeconds": 0.094,
      "endSeconds": 104.906,
      "velocity": 0.25,
      "bendActive": true,
      "instrument": 1
    },
    {
      "id": "id_ky6uhvt26mnv3z9ap",
      "pitch": 71,
      "pitchName": "B4",
      "frequencyHz": 493.883301,
      "startTick": 134160,
      "durationTicks": 120,
      "endTick": 134280,
      "startSeconds": 104.813,
      "durationSeconds": 0.094,
      "endSeconds": 104.906,
      "velocity": 0.25,
      "bendActive": true,
      "instrument": 1
    },
    {
      "id": "id_ahxnwez2lmnv3kmnt",
      "pitch": 44,
      "pitchName": "G#2",
      "frequencyHz": 103.826174,
      "startTick": 134400,
      "durationTicks": 240,
      "endTick": 134640,
      "startSeconds": 105,
      "durationSeconds": 0.188,
      "endSeconds": 105.188,
      "velocity": 0.8,
      "bendActive": true,
      "instrument": 0
    },
    {
      "id": "id_b90tzz5b1mnv3kmnt",
      "pitch": 51,
      "pitchName": "D#3",
      "frequencyHz": 155.563492,
      "startTick": 134400,
      "durationTicks": 240,
      "endTick": 134640,
      "startSeconds": 105,
      "durationSeconds": 0.188,
      "endSeconds": 105.188,
      "velocity": 0.8,
      "bendActive": true,
      "instrument": 0
    },
    {
      "id": "id_88iyh3dlgmnv3kmnt",
      "pitch": 59,
      "pitchName": "B3",
      "frequencyHz": 246.941651,
      "startTick": 134400,
      "durationTicks": 240,
      "endTick": 134640,
      "startSeconds": 105,
      "durationSeconds": 0.188,
      "endSeconds": 105.188,
      "velocity": 0.8,
      "bendActive": true,
      "instrument": 0
    },
    {
      "id": "id_vh2yob1o2mnv3kmnt",
      "pitch": 63,
      "pitchName": "D#4",
      "frequencyHz": 311.126984,
      "startTick": 134400,
      "durationTicks": 240,
      "endTick": 134640,
      "startSeconds": 105,
      "durationSeconds": 0.188,
      "endSeconds": 105.188,
      "velocity": 0.25,
      "bendActive": true,
      "instrument": 1
    },
    {
      "id": "id_twwzqaekgmnv3z9ap",
      "pitch": 71,
      "pitchName": "B4",
      "frequencyHz": 493.883301,
      "startTick": 134400,
      "durationTicks": 240,
      "endTick": 134640,
      "startSeconds": 105,
      "durationSeconds": 0.188,
      "endSeconds": 105.188,
      "velocity": 0.25,
      "bendActive": true,
      "instrument": 1
    },
    {
      "id": "id_9l4h7c6hsmnv3kmnt",
      "pitch": 44,
      "pitchName": "G#2",
      "frequencyHz": 103.826174,
      "startTick": 134640,
      "durationTicks": 240,
      "endTick": 134880,
      "startSeconds": 105.188,
      "durationSeconds": 0.188,
      "endSeconds": 105.375,
      "velocity": 0.8,
      "bendActive": true,
      "instrument": 0
    },
    {
      "id": "id_v3fe3r7btmnv3kmnt",
      "pitch": 51,
      "pitchName": "D#3",
      "frequencyHz": 155.563492,
      "startTick": 134640,
      "durationTicks": 240,
      "endTick": 134880,
      "startSeconds": 105.188,
      "durationSeconds": 0.188,
      "endSeconds": 105.375,
      "velocity": 0.8,
      "bendActive": true,
      "instrument": 0
    },
    {
      "id": "id_idtms9srwmnv3kmnt",
      "pitch": 59,
      "pitchName": "B3",
      "frequencyHz": 246.941651,
      "startTick": 134640,
      "durationTicks": 240,
      "endTick": 134880,
      "startSeconds": 105.188,
      "durationSeconds": 0.188,
      "endSeconds": 105.375,
      "velocity": 0.8,
      "bendActive": true,
      "instrument": 0
    },
    {
      "id": "id_c2nzfcycamnv3kmnt",
      "pitch": 63,
      "pitchName": "D#4",
      "frequencyHz": 311.126984,
      "startTick": 134640,
      "durationTicks": 240,
      "endTick": 134880,
      "startSeconds": 105.188,
      "durationSeconds": 0.188,
      "endSeconds": 105.375,
      "velocity": 0.25,
      "bendActive": true,
      "instrument": 1
    },
    {
      "id": "id_d05sg2kabmnv3z9ap",
      "pitch": 71,
      "pitchName": "B4",
      "frequencyHz": 493.883301,
      "startTick": 134640,
      "durationTicks": 240,
      "endTick": 134880,
      "startSeconds": 105.188,
      "durationSeconds": 0.188,
      "endSeconds": 105.375,
      "velocity": 0.25,
      "bendActive": true,
      "instrument": 1
    },
    {
      "id": "id_lpg1pqv76mnv3kmnt",
      "pitch": 44,
      "pitchName": "G#2",
      "frequencyHz": 103.826174,
      "startTick": 134880,
      "durationTicks": 120,
      "endTick": 135000,
      "startSeconds": 105.375,
      "durationSeconds": 0.094,
      "endSeconds": 105.469,
      "velocity": 0.8,
      "bendActive": true,
      "instrument": 0
    },
    {
      "id": "id_05auwh02nmnv3kmnt",
      "pitch": 51,
      "pitchName": "D#3",
      "frequencyHz": 155.563492,
      "startTick": 134880,
      "durationTicks": 120,
      "endTick": 135000,
      "startSeconds": 105.375,
      "durationSeconds": 0.094,
      "endSeconds": 105.469,
      "velocity": 0.8,
      "bendActive": true,
      "instrument": 0
    },
    {
      "id": "id_c2xzzd9ixmnv3kmnt",
      "pitch": 59,
      "pitchName": "B3",
      "frequencyHz": 246.941651,
      "startTick": 134880,
      "durationTicks": 120,
      "endTick": 135000,
      "startSeconds": 105.375,
      "durationSeconds": 0.094,
      "endSeconds": 105.469,
      "velocity": 0.8,
      "bendActive": true,
      "instrument": 0
    },
    {
      "id": "id_hmn2pbuhumnv3kmnt",
      "pitch": 63,
      "pitchName": "D#4",
      "frequencyHz": 311.126984,
      "startTick": 134880,
      "durationTicks": 120,
      "endTick": 135000,
      "startSeconds": 105.375,
      "durationSeconds": 0.094,
      "endSeconds": 105.469,
      "velocity": 0.25,
      "bendActive": true,
      "instrument": 1
    },
    {
      "id": "id_yx8ng7ovimnv3z9ap",
      "pitch": 71,
      "pitchName": "B4",
      "frequencyHz": 493.883301,
      "startTick": 134880,
      "durationTicks": 120,
      "endTick": 135000,
      "startSeconds": 105.375,
      "durationSeconds": 0.094,
      "endSeconds": 105.469,
      "velocity": 0.25,
      "bendActive": true,
      "instrument": 1
    },
    {
      "id": "id_5uu1z7h23mnv3kmnt",
      "pitch": 44,
      "pitchName": "G#2",
      "frequencyHz": 103.826174,
      "startTick": 135120,
      "durationTicks": 240,
      "endTick": 135360,
      "startSeconds": 105.563,
      "durationSeconds": 0.188,
      "endSeconds": 105.75,
      "velocity": 0.8,
      "bendActive": true,
      "instrument": 0
    },
    {
      "id": "id_88qqv9ai1mnv3kmnt",
      "pitch": 51,
      "pitchName": "D#3",
      "frequencyHz": 155.563492,
      "startTick": 135120,
      "durationTicks": 240,
      "endTick": 135360,
      "startSeconds": 105.563,
      "durationSeconds": 0.188,
      "endSeconds": 105.75,
      "velocity": 0.8,
      "bendActive": true,
      "instrument": 0
    },
    {
      "id": "id_nxzqgx3ormnv3kmnt",
      "pitch": 59,
      "pitchName": "B3",
      "frequencyHz": 246.941651,
      "startTick": 135120,
      "durationTicks": 240,
      "endTick": 135360,
      "startSeconds": 105.563,
      "durationSeconds": 0.188,
      "endSeconds": 105.75,
      "velocity": 0.8,
      "bendActive": true,
      "instrument": 0
    },
    {
      "id": "id_x8cg14vxkmnv3kmnt",
      "pitch": 63,
      "pitchName": "D#4",
      "frequencyHz": 311.126984,
      "startTick": 135120,
      "durationTicks": 240,
      "endTick": 135360,
      "startSeconds": 105.563,
      "durationSeconds": 0.188,
      "endSeconds": 105.75,
      "velocity": 0.25,
      "bendActive": true,
      "instrument": 1
    },
    {
      "id": "id_i54tj7864mnv3z9ap",
      "pitch": 71,
      "pitchName": "B4",
      "frequencyHz": 493.883301,
      "startTick": 135120,
      "durationTicks": 240,
      "endTick": 135360,
      "startSeconds": 105.563,
      "durationSeconds": 0.188,
      "endSeconds": 105.75,
      "velocity": 0.25,
      "bendActive": true,
      "instrument": 1
    },
    {
      "id": "id_naw44n7p5mnv3kmnt",
      "pitch": 61,
      "pitchName": "C#4",
      "frequencyHz": 277.182631,
      "startTick": 135360,
      "durationTicks": 240,
      "endTick": 135600,
      "startSeconds": 105.75,
      "durationSeconds": 0.188,
      "endSeconds": 105.938,
      "velocity": 0.8,
      "bendActive": true,
      "instrument": 0
    },
    {
      "id": "id_bq8finoijmnv3kmnt",
      "pitch": 64,
      "pitchName": "E4",
      "frequencyHz": 329.627557,
      "startTick": 135360,
      "durationTicks": 240,
      "endTick": 135600,
      "startSeconds": 105.75,
      "durationSeconds": 0.188,
      "endSeconds": 105.938,
      "velocity": 0.25,
      "bendActive": true,
      "instrument": 1
    },
    {
      "id": "id_j3i3pnv10mnv3kmnt",
      "pitch": 68,
      "pitchName": "G#4",
      "frequencyHz": 415.304698,
      "startTick": 135360,
      "durationTicks": 240,
      "endTick": 135600,
      "startSeconds": 105.75,
      "durationSeconds": 0.188,
      "endSeconds": 105.938,
      "velocity": 0.8,
      "bendActive": true,
      "instrument": 0
    },
    {
      "id": "id_zffezic1imnv3kmnt",
      "pitch": 73,
      "pitchName": "C#5",
      "frequencyHz": 554.365262,
      "startTick": 135360,
      "durationTicks": 240,
      "endTick": 135600,
      "startSeconds": 105.75,
      "durationSeconds": 0.188,
      "endSeconds": 105.938,
      "velocity": 0.8,
      "bendActive": true,
      "instrument": 0
    },
    {
      "id": "id_q8c64m52vmnv40fss",
      "pitch": 76,
      "pitchName": "E5",
      "frequencyHz": 659.255114,
      "startTick": 135360,
      "durationTicks": 240,
      "endTick": 135600,
      "startSeconds": 105.75,
      "durationSeconds": 0.188,
      "endSeconds": 105.938,
      "velocity": 0.25,
      "bendActive": true,
      "instrument": 1
    },
    {
      "id": "id_4itgnlu50mnv3kmnt",
      "pitch": 61,
      "pitchName": "C#4",
      "frequencyHz": 277.182631,
      "startTick": 135600,
      "durationTicks": 120,
      "endTick": 135720,
      "startSeconds": 105.938,
      "durationSeconds": 0.094,
      "endSeconds": 106.031,
      "velocity": 0.8,
      "bendActive": true,
      "instrument": 0
    },
    {
      "id": "id_rngkf0dxmmnv3kmnt",
      "pitch": 64,
      "pitchName": "E4",
      "frequencyHz": 329.627557,
      "startTick": 135600,
      "durationTicks": 120,
      "endTick": 135720,
      "startSeconds": 105.938,
      "durationSeconds": 0.094,
      "endSeconds": 106.031,
      "velocity": 0.25,
      "bendActive": true,
      "instrument": 1
    },
    {
      "id": "id_bmywdpa5qmnv3kmnt",
      "pitch": 68,
      "pitchName": "G#4",
      "frequencyHz": 415.304698,
      "startTick": 135600,
      "durationTicks": 120,
      "endTick": 135720,
      "startSeconds": 105.938,
      "durationSeconds": 0.094,
      "endSeconds": 106.031,
      "velocity": 0.8,
      "bendActive": true,
      "instrument": 0
    },
    {
      "id": "id_4cdr5bv60mnv3kmnt",
      "pitch": 73,
      "pitchName": "C#5",
      "frequencyHz": 554.365262,
      "startTick": 135600,
      "durationTicks": 120,
      "endTick": 135720,
      "startSeconds": 105.938,
      "durationSeconds": 0.094,
      "endSeconds": 106.031,
      "velocity": 0.8,
      "bendActive": true,
      "instrument": 0
    },
    {
      "id": "id_sn0jvtl9rmnv40fss",
      "pitch": 76,
      "pitchName": "E5",
      "frequencyHz": 659.255114,
      "startTick": 135600,
      "durationTicks": 120,
      "endTick": 135720,
      "startSeconds": 105.938,
      "durationSeconds": 0.094,
      "endSeconds": 106.031,
      "velocity": 0.25,
      "bendActive": true,
      "instrument": 1
    },
    {
      "id": "id_1oslij50jmnv3kmnt",
      "pitch": 61,
      "pitchName": "C#4",
      "frequencyHz": 277.182631,
      "startTick": 135840,
      "durationTicks": 120,
      "endTick": 135960,
      "startSeconds": 106.125,
      "durationSeconds": 0.094,
      "endSeconds": 106.219,
      "velocity": 0.8,
      "bendActive": true,
      "instrument": 0
    },
    {
      "id": "id_74boj9c2umnv3kmnt",
      "pitch": 64,
      "pitchName": "E4",
      "frequencyHz": 329.627557,
      "startTick": 135840,
      "durationTicks": 120,
      "endTick": 135960,
      "startSeconds": 106.125,
      "durationSeconds": 0.094,
      "endSeconds": 106.219,
      "velocity": 0.25,
      "bendActive": true,
      "instrument": 1
    },
    {
      "id": "id_u3jjzdqwomnv3kmnt",
      "pitch": 68,
      "pitchName": "G#4",
      "frequencyHz": 415.304698,
      "startTick": 135840,
      "durationTicks": 120,
      "endTick": 135960,
      "startSeconds": 106.125,
      "durationSeconds": 0.094,
      "endSeconds": 106.219,
      "velocity": 0.8,
      "bendActive": true,
      "instrument": 0
    },
    {
      "id": "id_w5s30bpgzmnv3kmnt",
      "pitch": 73,
      "pitchName": "C#5",
      "frequencyHz": 554.365262,
      "startTick": 135840,
      "durationTicks": 120,
      "endTick": 135960,
      "startSeconds": 106.125,
      "durationSeconds": 0.094,
      "endSeconds": 106.219,
      "velocity": 0.8,
      "bendActive": true,
      "instrument": 0
    },
    {
      "id": "id_f9rc2n63pmnv40fss",
      "pitch": 76,
      "pitchName": "E5",
      "frequencyHz": 659.255114,
      "startTick": 135840,
      "durationTicks": 120,
      "endTick": 135960,
      "startSeconds": 106.125,
      "durationSeconds": 0.094,
      "endSeconds": 106.219,
      "velocity": 0.25,
      "bendActive": true,
      "instrument": 1
    },
    {
      "id": "id_idmifk3nqmnv3kmnt",
      "pitch": 61,
      "pitchName": "C#4",
      "frequencyHz": 277.182631,
      "startTick": 136080,
      "durationTicks": 240,
      "endTick": 136320,
      "startSeconds": 106.313,
      "durationSeconds": 0.188,
      "endSeconds": 106.5,
      "velocity": 0.8,
      "bendActive": true,
      "instrument": 0
    },
    {
      "id": "id_m4i5h1l5smnv3kmnt",
      "pitch": 64,
      "pitchName": "E4",
      "frequencyHz": 329.627557,
      "startTick": 136080,
      "durationTicks": 240,
      "endTick": 136320,
      "startSeconds": 106.313,
      "durationSeconds": 0.188,
      "endSeconds": 106.5,
      "velocity": 0.25,
      "bendActive": true,
      "instrument": 1
    },
    {
      "id": "id_hnnu8qeulmnv3kmnt",
      "pitch": 68,
      "pitchName": "G#4",
      "frequencyHz": 415.304698,
      "startTick": 136080,
      "durationTicks": 240,
      "endTick": 136320,
      "startSeconds": 106.313,
      "durationSeconds": 0.188,
      "endSeconds": 106.5,
      "velocity": 0.8,
      "bendActive": true,
      "instrument": 0
    },
    {
      "id": "id_fid2glitxmnv3kmnt",
      "pitch": 73,
      "pitchName": "C#5",
      "frequencyHz": 554.365262,
      "startTick": 136080,
      "durationTicks": 240,
      "endTick": 136320,
      "startSeconds": 106.313,
      "durationSeconds": 0.188,
      "endSeconds": 106.5,
      "velocity": 0.8,
      "bendActive": true,
      "instrument": 0
    },
    {
      "id": "id_v6np634lomnv40fss",
      "pitch": 76,
      "pitchName": "E5",
      "frequencyHz": 659.255114,
      "startTick": 136080,
      "durationTicks": 240,
      "endTick": 136320,
      "startSeconds": 106.313,
      "durationSeconds": 0.188,
      "endSeconds": 106.5,
      "velocity": 0.25,
      "bendActive": true,
      "instrument": 1
    },
    {
      "id": "id_xg8n73uu4mnv3kmnt",
      "pitch": 73,
      "pitchName": "C#5",
      "frequencyHz": 554.365262,
      "startTick": 136200,
      "durationTicks": 120,
      "endTick": 136320,
      "startSeconds": 106.406,
      "durationSeconds": 0.094,
      "endSeconds": 106.5,
      "velocity": 0.8,
      "bendActive": true,
      "instrument": 0
    },
    {
      "id": "id_06rrs2focmnv3kmnt",
      "pitch": 61,
      "pitchName": "C#4",
      "frequencyHz": 277.182631,
      "startTick": 136320,
      "durationTicks": 120,
      "endTick": 136440,
      "startSeconds": 106.5,
      "durationSeconds": 0.094,
      "endSeconds": 106.594,
      "velocity": 0.8,
      "bendActive": true,
      "instrument": 0
    },
    {
      "id": "id_lyk9e1fkamnv3kmnt",
      "pitch": 64,
      "pitchName": "E4",
      "frequencyHz": 329.627557,
      "startTick": 136320,
      "durationTicks": 120,
      "endTick": 136440,
      "startSeconds": 106.5,
      "durationSeconds": 0.094,
      "endSeconds": 106.594,
      "velocity": 0.25,
      "bendActive": true,
      "instrument": 1
    },
    {
      "id": "id_fj1fcratomnv3kmnt",
      "pitch": 68,
      "pitchName": "G#4",
      "frequencyHz": 415.304698,
      "startTick": 136320,
      "durationTicks": 120,
      "endTick": 136440,
      "startSeconds": 106.5,
      "durationSeconds": 0.094,
      "endSeconds": 106.594,
      "velocity": 0.8,
      "bendActive": true,
      "instrument": 0
    },
    {
      "id": "id_66lx42zmemnv3kmnt",
      "pitch": 73,
      "pitchName": "C#5",
      "frequencyHz": 554.365262,
      "startTick": 136320,
      "durationTicks": 120,
      "endTick": 136440,
      "startSeconds": 106.5,
      "durationSeconds": 0.094,
      "endSeconds": 106.594,
      "velocity": 0.8,
      "bendActive": true,
      "instrument": 0
    },
    {
      "id": "id_xj3vk3kkrmnv40fss",
      "pitch": 76,
      "pitchName": "E5",
      "frequencyHz": 659.255114,
      "startTick": 136320,
      "durationTicks": 120,
      "endTick": 136440,
      "startSeconds": 106.5,
      "durationSeconds": 0.094,
      "endSeconds": 106.594,
      "velocity": 0.25,
      "bendActive": true,
      "instrument": 1
    },
    {
      "id": "id_vuu4uaqi4mnv3kmnt",
      "pitch": 61,
      "pitchName": "C#4",
      "frequencyHz": 277.182631,
      "startTick": 136560,
      "durationTicks": 120,
      "endTick": 136680,
      "startSeconds": 106.688,
      "durationSeconds": 0.094,
      "endSeconds": 106.781,
      "velocity": 0.8,
      "bendActive": true,
      "instrument": 0
    },
    {
      "id": "id_uhqzu3qf8mnv3kmnt",
      "pitch": 64,
      "pitchName": "E4",
      "frequencyHz": 329.627557,
      "startTick": 136560,
      "durationTicks": 120,
      "endTick": 136680,
      "startSeconds": 106.688,
      "durationSeconds": 0.094,
      "endSeconds": 106.781,
      "velocity": 0.25,
      "bendActive": true,
      "instrument": 1
    },
    {
      "id": "id_dyb9qapg7mnv3kmnt",
      "pitch": 68,
      "pitchName": "G#4",
      "frequencyHz": 415.304698,
      "startTick": 136560,
      "durationTicks": 120,
      "endTick": 136680,
      "startSeconds": 106.688,
      "durationSeconds": 0.094,
      "endSeconds": 106.781,
      "velocity": 0.8,
      "bendActive": true,
      "instrument": 0
    },
    {
      "id": "id_0aylhns7umnv3kmnt",
      "pitch": 73,
      "pitchName": "C#5",
      "frequencyHz": 554.365262,
      "startTick": 136560,
      "durationTicks": 120,
      "endTick": 136680,
      "startSeconds": 106.688,
      "durationSeconds": 0.094,
      "endSeconds": 106.781,
      "velocity": 0.8,
      "bendActive": true,
      "instrument": 0
    },
    {
      "id": "id_o50w3in6bmnv40fss",
      "pitch": 76,
      "pitchName": "E5",
      "frequencyHz": 659.255114,
      "startTick": 136560,
      "durationTicks": 120,
      "endTick": 136680,
      "startSeconds": 106.688,
      "durationSeconds": 0.094,
      "endSeconds": 106.781,
      "velocity": 0.25,
      "bendActive": true,
      "instrument": 1
    },
    {
      "id": "id_j3gvbq3i8mnv3kmnt",
      "pitch": 61,
      "pitchName": "C#4",
      "frequencyHz": 277.182631,
      "startTick": 136800,
      "durationTicks": 240,
      "endTick": 137040,
      "startSeconds": 106.875,
      "durationSeconds": 0.188,
      "endSeconds": 107.063,
      "velocity": 0.8,
      "bendActive": true,
      "instrument": 0
    },
    {
      "id": "id_4qaztgl3qmnv3kmnt",
      "pitch": 64,
      "pitchName": "E4",
      "frequencyHz": 329.627557,
      "startTick": 136800,
      "durationTicks": 240,
      "endTick": 137040,
      "startSeconds": 106.875,
      "durationSeconds": 0.188,
      "endSeconds": 107.063,
      "velocity": 0.25,
      "bendActive": true,
      "instrument": 1
    },
    {
      "id": "id_djakbzyanmnv3kmnt",
      "pitch": 68,
      "pitchName": "G#4",
      "frequencyHz": 415.304698,
      "startTick": 136800,
      "durationTicks": 240,
      "endTick": 137040,
      "startSeconds": 106.875,
      "durationSeconds": 0.188,
      "endSeconds": 107.063,
      "velocity": 0.8,
      "bendActive": true,
      "instrument": 0
    },
    {
      "id": "id_0p1tbhhtpmnv3kmnt",
      "pitch": 73,
      "pitchName": "C#5",
      "frequencyHz": 554.365262,
      "startTick": 136800,
      "durationTicks": 240,
      "endTick": 137040,
      "startSeconds": 106.875,
      "durationSeconds": 0.188,
      "endSeconds": 107.063,
      "velocity": 0.8,
      "bendActive": true,
      "instrument": 0
    },
    {
      "id": "id_3v71qigr4mnv40fss",
      "pitch": 76,
      "pitchName": "E5",
      "frequencyHz": 659.255114,
      "startTick": 136800,
      "durationTicks": 240,
      "endTick": 137040,
      "startSeconds": 106.875,
      "durationSeconds": 0.188,
      "endSeconds": 107.063,
      "velocity": 0.25,
      "bendActive": true,
      "instrument": 1
    },
    {
      "id": "id_us39a3ujemnv3kmnt",
      "pitch": 61,
      "pitchName": "C#4",
      "frequencyHz": 277.182631,
      "startTick": 137040,
      "durationTicks": 240,
      "endTick": 137280,
      "startSeconds": 107.063,
      "durationSeconds": 0.188,
      "endSeconds": 107.25,
      "velocity": 0.8,
      "bendActive": true,
      "instrument": 0
    },
    {
      "id": "id_fcch5cp6ymnv3kmnt",
      "pitch": 64,
      "pitchName": "E4",
      "frequencyHz": 329.627557,
      "startTick": 137040,
      "durationTicks": 240,
      "endTick": 137280,
      "startSeconds": 107.063,
      "durationSeconds": 0.188,
      "endSeconds": 107.25,
      "velocity": 0.25,
      "bendActive": true,
      "instrument": 1
    },
    {
      "id": "id_e262xxn4pmnv3kmnt",
      "pitch": 68,
      "pitchName": "G#4",
      "frequencyHz": 415.304698,
      "startTick": 137040,
      "durationTicks": 240,
      "endTick": 137280,
      "startSeconds": 107.063,
      "durationSeconds": 0.188,
      "endSeconds": 107.25,
      "velocity": 0.8,
      "bendActive": true,
      "instrument": 0
    },
    {
      "id": "id_oxv52r8k4mnv3kmnt",
      "pitch": 73,
      "pitchName": "C#5",
      "frequencyHz": 554.365262,
      "startTick": 137040,
      "durationTicks": 240,
      "endTick": 137280,
      "startSeconds": 107.063,
      "durationSeconds": 0.188,
      "endSeconds": 107.25,
      "velocity": 0.8,
      "bendActive": true,
      "instrument": 0
    },
    {
      "id": "id_6ywb3ayg9mnv40fss",
      "pitch": 76,
      "pitchName": "E5",
      "frequencyHz": 659.255114,
      "startTick": 137040,
      "durationTicks": 240,
      "endTick": 137280,
      "startSeconds": 107.063,
      "durationSeconds": 0.188,
      "endSeconds": 107.25,
      "velocity": 0.25,
      "bendActive": true,
      "instrument": 1
    },
    {
      "id": "id_na2fwpz2lmnv3kmnt",
      "pitch": 61,
      "pitchName": "C#4",
      "frequencyHz": 277.182631,
      "startTick": 137280,
      "durationTicks": 120,
      "endTick": 137400,
      "startSeconds": 107.25,
      "durationSeconds": 0.094,
      "endSeconds": 107.344,
      "velocity": 0.8,
      "bendActive": true,
      "instrument": 0
    },
    {
      "id": "id_sdm23m0okmnv3kmnt",
      "pitch": 64,
      "pitchName": "E4",
      "frequencyHz": 329.627557,
      "startTick": 137280,
      "durationTicks": 120,
      "endTick": 137400,
      "startSeconds": 107.25,
      "durationSeconds": 0.094,
      "endSeconds": 107.344,
      "velocity": 0.25,
      "bendActive": true,
      "instrument": 1
    },
    {
      "id": "id_0wcqvb4mymnv3kmnt",
      "pitch": 68,
      "pitchName": "G#4",
      "frequencyHz": 415.304698,
      "startTick": 137280,
      "durationTicks": 120,
      "endTick": 137400,
      "startSeconds": 107.25,
      "durationSeconds": 0.094,
      "endSeconds": 107.344,
      "velocity": 0.8,
      "bendActive": true,
      "instrument": 0
    },
    {
      "id": "id_8jz6s2ua6mnv3kmnt",
      "pitch": 73,
      "pitchName": "C#5",
      "frequencyHz": 554.365262,
      "startTick": 137280,
      "durationTicks": 120,
      "endTick": 137400,
      "startSeconds": 107.25,
      "durationSeconds": 0.094,
      "endSeconds": 107.344,
      "velocity": 0.8,
      "bendActive": true,
      "instrument": 0
    },
    {
      "id": "id_3fvaa5m9mmnv40fss",
      "pitch": 76,
      "pitchName": "E5",
      "frequencyHz": 659.255114,
      "startTick": 137280,
      "durationTicks": 120,
      "endTick": 137400,
      "startSeconds": 107.25,
      "durationSeconds": 0.094,
      "endSeconds": 107.344,
      "velocity": 0.25,
      "bendActive": true,
      "instrument": 1
    },
    {
      "id": "id_hid1yj7nimnv3kmnt",
      "pitch": 61,
      "pitchName": "C#4",
      "frequencyHz": 277.182631,
      "startTick": 137520,
      "durationTicks": 240,
      "endTick": 137760,
      "startSeconds": 107.438,
      "durationSeconds": 0.188,
      "endSeconds": 107.625,
      "velocity": 0.8,
      "bendActive": true,
      "instrument": 0
    },
    {
      "id": "id_zm8lqbak0mnv3kmnt",
      "pitch": 64,
      "pitchName": "E4",
      "frequencyHz": 329.627557,
      "startTick": 137520,
      "durationTicks": 240,
      "endTick": 137760,
      "startSeconds": 107.438,
      "durationSeconds": 0.188,
      "endSeconds": 107.625,
      "velocity": 0.25,
      "bendActive": true,
      "instrument": 1
    },
    {
      "id": "id_e6mdem4rjmnv3kmnt",
      "pitch": 68,
      "pitchName": "G#4",
      "frequencyHz": 415.304698,
      "startTick": 137520,
      "durationTicks": 240,
      "endTick": 137760,
      "startSeconds": 107.438,
      "durationSeconds": 0.188,
      "endSeconds": 107.625,
      "velocity": 0.8,
      "bendActive": true,
      "instrument": 0
    },
    {
      "id": "id_8eviadn2lmnv3kmnt",
      "pitch": 73,
      "pitchName": "C#5",
      "frequencyHz": 554.365262,
      "startTick": 137520,
      "durationTicks": 240,
      "endTick": 137760,
      "startSeconds": 107.438,
      "durationSeconds": 0.188,
      "endSeconds": 107.625,
      "velocity": 0.8,
      "bendActive": true,
      "instrument": 0
    },
    {
      "id": "id_353t3b856mnv40fss",
      "pitch": 76,
      "pitchName": "E5",
      "frequencyHz": 659.255114,
      "startTick": 137520,
      "durationTicks": 240,
      "endTick": 137760,
      "startSeconds": 107.438,
      "durationSeconds": 0.188,
      "endSeconds": 107.625,
      "velocity": 0.25,
      "bendActive": true,
      "instrument": 1
    },
    {
      "id": "id_4fc6r3yfhmnv3kmnt",
      "pitch": 61,
      "pitchName": "C#4",
      "frequencyHz": 277.182631,
      "startTick": 137760,
      "durationTicks": 120,
      "endTick": 137880,
      "startSeconds": 107.625,
      "durationSeconds": 0.094,
      "endSeconds": 107.719,
      "velocity": 0.8,
      "bendActive": true,
      "instrument": 0
    },
    {
      "id": "id_tcha3ntqumnv3kmnt",
      "pitch": 64,
      "pitchName": "E4",
      "frequencyHz": 329.627557,
      "startTick": 137760,
      "durationTicks": 120,
      "endTick": 137880,
      "startSeconds": 107.625,
      "durationSeconds": 0.094,
      "endSeconds": 107.719,
      "velocity": 0.25,
      "bendActive": true,
      "instrument": 1
    },
    {
      "id": "id_530ufto7fmnv3kmnt",
      "pitch": 68,
      "pitchName": "G#4",
      "frequencyHz": 415.304698,
      "startTick": 137760,
      "durationTicks": 120,
      "endTick": 137880,
      "startSeconds": 107.625,
      "durationSeconds": 0.094,
      "endSeconds": 107.719,
      "velocity": 0.8,
      "bendActive": true,
      "instrument": 0
    },
    {
      "id": "id_ishqoniiqmnv3kmnt",
      "pitch": 73,
      "pitchName": "C#5",
      "frequencyHz": 554.365262,
      "startTick": 137760,
      "durationTicks": 120,
      "endTick": 137880,
      "startSeconds": 107.625,
      "durationSeconds": 0.094,
      "endSeconds": 107.719,
      "velocity": 0.8,
      "bendActive": true,
      "instrument": 0
    },
    {
      "id": "id_tz22cuo4bmnv40fss",
      "pitch": 76,
      "pitchName": "E5",
      "frequencyHz": 659.255114,
      "startTick": 137760,
      "durationTicks": 120,
      "endTick": 137880,
      "startSeconds": 107.625,
      "durationSeconds": 0.094,
      "endSeconds": 107.719,
      "velocity": 0.25,
      "bendActive": true,
      "instrument": 1
    },
    {
      "id": "id_b6oveo43gmnv3kmnt",
      "pitch": 61,
      "pitchName": "C#4",
      "frequencyHz": 277.182631,
      "startTick": 138000,
      "durationTicks": 240,
      "endTick": 138240,
      "startSeconds": 107.813,
      "durationSeconds": 0.188,
      "endSeconds": 108,
      "velocity": 0.8,
      "bendActive": true,
      "instrument": 0
    },
    {
      "id": "id_2ia91gl4cmnv3kmnt",
      "pitch": 64,
      "pitchName": "E4",
      "frequencyHz": 329.627557,
      "startTick": 138000,
      "durationTicks": 240,
      "endTick": 138240,
      "startSeconds": 107.813,
      "durationSeconds": 0.188,
      "endSeconds": 108,
      "velocity": 0.25,
      "bendActive": true,
      "instrument": 1
    },
    {
      "id": "id_6pgfmtcizmnv3kmnt",
      "pitch": 68,
      "pitchName": "G#4",
      "frequencyHz": 415.304698,
      "startTick": 138000,
      "durationTicks": 240,
      "endTick": 138240,
      "startSeconds": 107.813,
      "durationSeconds": 0.188,
      "endSeconds": 108,
      "velocity": 0.8,
      "bendActive": true,
      "instrument": 0
    },
    {
      "id": "id_ddk2yfpb6mnv3kmnt",
      "pitch": 73,
      "pitchName": "C#5",
      "frequencyHz": 554.365262,
      "startTick": 138000,
      "durationTicks": 240,
      "endTick": 138240,
      "startSeconds": 107.813,
      "durationSeconds": 0.188,
      "endSeconds": 108,
      "velocity": 0.8,
      "bendActive": true,
      "instrument": 0
    },
    {
      "id": "id_q6cp9l8u7mnv40fss",
      "pitch": 76,
      "pitchName": "E5",
      "frequencyHz": 659.255114,
      "startTick": 138000,
      "durationTicks": 240,
      "endTick": 138240,
      "startSeconds": 107.813,
      "durationSeconds": 0.188,
      "endSeconds": 108,
      "velocity": 0.25,
      "bendActive": true,
      "instrument": 1
    },
    {
      "id": "id_1w59398trmnv3kmnt",
      "pitch": 37,
      "pitchName": "C#2",
      "frequencyHz": 69.295658,
      "startTick": 138240,
      "durationTicks": 240,
      "endTick": 138480,
      "startSeconds": 108,
      "durationSeconds": 0.188,
      "endSeconds": 108.188,
      "velocity": 0.8,
      "bendActive": true,
      "instrument": 0
    },
    {
      "id": "id_t866y53idmnv3kmnt",
      "pitch": 64,
      "pitchName": "E4",
      "frequencyHz": 329.627557,
      "startTick": 138240,
      "durationTicks": 240,
      "endTick": 138480,
      "startSeconds": 108,
      "durationSeconds": 0.188,
      "endSeconds": 108.188,
      "velocity": 0.8,
      "bendActive": true,
      "instrument": 0
    },
    {
      "id": "id_j6a3tr1elmnv3kmnt",
      "pitch": 68,
      "pitchName": "G#4",
      "frequencyHz": 415.304698,
      "startTick": 138240,
      "durationTicks": 240,
      "endTick": 138480,
      "startSeconds": 108,
      "durationSeconds": 0.188,
      "endSeconds": 108.188,
      "velocity": 0.25,
      "bendActive": true,
      "instrument": 1
    },
    {
      "id": "id_o8n8e3fnsmnv3kmnt",
      "pitch": 73,
      "pitchName": "C#5",
      "frequencyHz": 554.365262,
      "startTick": 138240,
      "durationTicks": 240,
      "endTick": 138480,
      "startSeconds": 108,
      "durationSeconds": 0.188,
      "endSeconds": 108.188,
      "velocity": 0.8,
      "bendActive": true,
      "instrument": 0
    },
    {
      "id": "id_8qiv7bufpmnv3kmnt",
      "pitch": 37,
      "pitchName": "C#2",
      "frequencyHz": 69.295658,
      "startTick": 138480,
      "durationTicks": 120,
      "endTick": 138600,
      "startSeconds": 108.188,
      "durationSeconds": 0.094,
      "endSeconds": 108.281,
      "velocity": 0.8,
      "bendActive": true,
      "instrument": 0
    },
    {
      "id": "id_2son6neqemnv3kmnt",
      "pitch": 64,
      "pitchName": "E4",
      "frequencyHz": 329.627557,
      "startTick": 138480,
      "durationTicks": 120,
      "endTick": 138600,
      "startSeconds": 108.188,
      "durationSeconds": 0.094,
      "endSeconds": 108.281,
      "velocity": 0.8,
      "bendActive": true,
      "instrument": 0
    },
    {
      "id": "id_dl32934qhmnv3kmnt",
      "pitch": 68,
      "pitchName": "G#4",
      "frequencyHz": 415.304698,
      "startTick": 138480,
      "durationTicks": 120,
      "endTick": 138600,
      "startSeconds": 108.188,
      "durationSeconds": 0.094,
      "endSeconds": 108.281,
      "velocity": 0.25,
      "bendActive": true,
      "instrument": 1
    },
    {
      "id": "id_h29q2dpdjmnv3kmnt",
      "pitch": 73,
      "pitchName": "C#5",
      "frequencyHz": 554.365262,
      "startTick": 138480,
      "durationTicks": 120,
      "endTick": 138600,
      "startSeconds": 108.188,
      "durationSeconds": 0.094,
      "endSeconds": 108.281,
      "velocity": 0.8,
      "bendActive": true,
      "instrument": 0
    },
    {
      "id": "id_ogxkftopbmnv3kmnt",
      "pitch": 37,
      "pitchName": "C#2",
      "frequencyHz": 69.295658,
      "startTick": 138720,
      "durationTicks": 120,
      "endTick": 138840,
      "startSeconds": 108.375,
      "durationSeconds": 0.094,
      "endSeconds": 108.469,
      "velocity": 0.8,
      "bendActive": true,
      "instrument": 0
    },
    {
      "id": "id_avwzjvrtfmnv3kmnt",
      "pitch": 64,
      "pitchName": "E4",
      "frequencyHz": 329.627557,
      "startTick": 138720,
      "durationTicks": 120,
      "endTick": 138840,
      "startSeconds": 108.375,
      "durationSeconds": 0.094,
      "endSeconds": 108.469,
      "velocity": 0.8,
      "bendActive": true,
      "instrument": 0
    },
    {
      "id": "id_4ebkeub6fmnv3kmnt",
      "pitch": 68,
      "pitchName": "G#4",
      "frequencyHz": 415.304698,
      "startTick": 138720,
      "durationTicks": 120,
      "endTick": 138840,
      "startSeconds": 108.375,
      "durationSeconds": 0.094,
      "endSeconds": 108.469,
      "velocity": 0.25,
      "bendActive": true,
      "instrument": 1
    },
    {
      "id": "id_m05o04z5jmnv3kmnt",
      "pitch": 73,
      "pitchName": "C#5",
      "frequencyHz": 554.365262,
      "startTick": 138720,
      "durationTicks": 120,
      "endTick": 138840,
      "startSeconds": 108.375,
      "durationSeconds": 0.094,
      "endSeconds": 108.469,
      "velocity": 0.8,
      "bendActive": true,
      "instrument": 0
    },
    {
      "id": "id_4byn9f0zdmnv3kmnt",
      "pitch": 37,
      "pitchName": "C#2",
      "frequencyHz": 69.295658,
      "startTick": 138960,
      "durationTicks": 240,
      "endTick": 139200,
      "startSeconds": 108.563,
      "durationSeconds": 0.188,
      "endSeconds": 108.75,
      "velocity": 0.8,
      "bendActive": true,
      "instrument": 0
    },
    {
      "id": "id_23l3e3q6dmnv3kmnt",
      "pitch": 64,
      "pitchName": "E4",
      "frequencyHz": 329.627557,
      "startTick": 138960,
      "durationTicks": 240,
      "endTick": 139200,
      "startSeconds": 108.563,
      "durationSeconds": 0.188,
      "endSeconds": 108.75,
      "velocity": 0.8,
      "bendActive": true,
      "instrument": 0
    },
    {
      "id": "id_9zjhss343mnv3kmnt",
      "pitch": 68,
      "pitchName": "G#4",
      "frequencyHz": 415.304698,
      "startTick": 138960,
      "durationTicks": 240,
      "endTick": 139200,
      "startSeconds": 108.563,
      "durationSeconds": 0.188,
      "endSeconds": 108.75,
      "velocity": 0.25,
      "bendActive": true,
      "instrument": 1
    },
    {
      "id": "id_007t8xw28mnv3kmnt",
      "pitch": 73,
      "pitchName": "C#5",
      "frequencyHz": 554.365262,
      "startTick": 138960,
      "durationTicks": 240,
      "endTick": 139200,
      "startSeconds": 108.563,
      "durationSeconds": 0.188,
      "endSeconds": 108.75,
      "velocity": 0.8,
      "bendActive": true,
      "instrument": 0
    },
    {
      "id": "id_605zj4fdnmnv3kmnt",
      "pitch": 37,
      "pitchName": "C#2",
      "frequencyHz": 69.295658,
      "startTick": 139200,
      "durationTicks": 120,
      "endTick": 139320,
      "startSeconds": 108.75,
      "durationSeconds": 0.094,
      "endSeconds": 108.844,
      "velocity": 0.8,
      "bendActive": true,
      "instrument": 0
    },
    {
      "id": "id_68whinz0dmnv3kmnt",
      "pitch": 64,
      "pitchName": "E4",
      "frequencyHz": 329.627557,
      "startTick": 139200,
      "durationTicks": 120,
      "endTick": 139320,
      "startSeconds": 108.75,
      "durationSeconds": 0.094,
      "endSeconds": 108.844,
      "velocity": 0.8,
      "bendActive": true,
      "instrument": 0
    },
    {
      "id": "id_hdv09zqkxmnv3kmnt",
      "pitch": 68,
      "pitchName": "G#4",
      "frequencyHz": 415.304698,
      "startTick": 139200,
      "durationTicks": 120,
      "endTick": 139320,
      "startSeconds": 108.75,
      "durationSeconds": 0.094,
      "endSeconds": 108.844,
      "velocity": 0.25,
      "bendActive": true,
      "instrument": 1
    },
    {
      "id": "id_zzb7twufmmnv3kmnt",
      "pitch": 73,
      "pitchName": "C#5",
      "frequencyHz": 554.365262,
      "startTick": 139200,
      "durationTicks": 120,
      "endTick": 139320,
      "startSeconds": 108.75,
      "durationSeconds": 0.094,
      "endSeconds": 108.844,
      "velocity": 0.8,
      "bendActive": true,
      "instrument": 0
    },
    {
      "id": "id_39cohffn6mnv3kmnt",
      "pitch": 37,
      "pitchName": "C#2",
      "frequencyHz": 69.295658,
      "startTick": 139440,
      "durationTicks": 120,
      "endTick": 139560,
      "startSeconds": 108.938,
      "durationSeconds": 0.094,
      "endSeconds": 109.031,
      "velocity": 0.8,
      "bendActive": true,
      "instrument": 0
    },
    {
      "id": "id_58qba8niamnv3kmnt",
      "pitch": 64,
      "pitchName": "E4",
      "frequencyHz": 329.627557,
      "startTick": 139440,
      "durationTicks": 120,
      "endTick": 139560,
      "startSeconds": 108.938,
      "durationSeconds": 0.094,
      "endSeconds": 109.031,
      "velocity": 0.8,
      "bendActive": true,
      "instrument": 0
    },
    {
      "id": "id_5yq0suxtpmnv3kmnt",
      "pitch": 68,
      "pitchName": "G#4",
      "frequencyHz": 415.304698,
      "startTick": 139440,
      "durationTicks": 120,
      "endTick": 139560,
      "startSeconds": 108.938,
      "durationSeconds": 0.094,
      "endSeconds": 109.031,
      "velocity": 0.25,
      "bendActive": true,
      "instrument": 1
    },
    {
      "id": "id_2183vir05mnv3kmnt",
      "pitch": 73,
      "pitchName": "C#5",
      "frequencyHz": 554.365262,
      "startTick": 139440,
      "durationTicks": 120,
      "endTick": 139560,
      "startSeconds": 108.938,
      "durationSeconds": 0.094,
      "endSeconds": 109.031,
      "velocity": 0.8,
      "bendActive": true,
      "instrument": 0
    },
    {
      "id": "id_311hy69b8mnv3kmnt",
      "pitch": 58,
      "pitchName": "A#3",
      "frequencyHz": 233.081881,
      "startTick": 139680,
      "durationTicks": 240,
      "endTick": 139920,
      "startSeconds": 109.125,
      "durationSeconds": 0.188,
      "endSeconds": 109.313,
      "velocity": 0.8,
      "bendActive": true,
      "instrument": 0
    },
    {
      "id": "id_1wc4ajyjjmnv3kmnt",
      "pitch": 63,
      "pitchName": "D#4",
      "frequencyHz": 311.126984,
      "startTick": 139680,
      "durationTicks": 240,
      "endTick": 139920,
      "startSeconds": 109.125,
      "durationSeconds": 0.188,
      "endSeconds": 109.313,
      "velocity": 0.25,
      "bendActive": true,
      "instrument": 1
    },
    {
      "id": "id_amtkxyo4mmnv3kmnt",
      "pitch": 66,
      "pitchName": "F#4",
      "frequencyHz": 369.994423,
      "startTick": 139680,
      "durationTicks": 240,
      "endTick": 139920,
      "startSeconds": 109.125,
      "durationSeconds": 0.188,
      "endSeconds": 109.313,
      "velocity": 0.8,
      "bendActive": true,
      "instrument": 0
    },
    {
      "id": "id_1gzegkf4rmnv3kmnt",
      "pitch": 71,
      "pitchName": "B4",
      "frequencyHz": 493.883301,
      "startTick": 139680,
      "durationTicks": 240,
      "endTick": 139920,
      "startSeconds": 109.125,
      "durationSeconds": 0.188,
      "endSeconds": 109.313,
      "velocity": 0.25,
      "bendActive": true,
      "instrument": 1
    },
    {
      "id": "id_kd9hamaybmnv3kmnt",
      "pitch": 75,
      "pitchName": "D#5",
      "frequencyHz": 622.253967,
      "startTick": 139680,
      "durationTicks": 240,
      "endTick": 139920,
      "startSeconds": 109.125,
      "durationSeconds": 0.188,
      "endSeconds": 109.313,
      "velocity": 0.8,
      "bendActive": true,
      "instrument": 0
    },
    {
      "id": "id_k0zkui9zxmnv3kmnt",
      "pitch": 58,
      "pitchName": "A#3",
      "frequencyHz": 233.081881,
      "startTick": 139920,
      "durationTicks": 240,
      "endTick": 140160,
      "startSeconds": 109.313,
      "durationSeconds": 0.188,
      "endSeconds": 109.5,
      "velocity": 0.8,
      "bendActive": true,
      "instrument": 0
    },
    {
      "id": "id_g6lkvuesgmnv3kmnt",
      "pitch": 63,
      "pitchName": "D#4",
      "frequencyHz": 311.126984,
      "startTick": 139920,
      "durationTicks": 240,
      "endTick": 140160,
      "startSeconds": 109.313,
      "durationSeconds": 0.188,
      "endSeconds": 109.5,
      "velocity": 0.25,
      "bendActive": true,
      "instrument": 1
    },
    {
      "id": "id_6zoxmve8hmnv3kmnt",
      "pitch": 66,
      "pitchName": "F#4",
      "frequencyHz": 369.994423,
      "startTick": 139920,
      "durationTicks": 240,
      "endTick": 140160,
      "startSeconds": 109.313,
      "durationSeconds": 0.188,
      "endSeconds": 109.5,
      "velocity": 0.8,
      "bendActive": true,
      "instrument": 0
    },
    {
      "id": "id_rab5hwb6mmnv3kmnt",
      "pitch": 71,
      "pitchName": "B4",
      "frequencyHz": 493.883301,
      "startTick": 139920,
      "durationTicks": 240,
      "endTick": 140160,
      "startSeconds": 109.313,
      "durationSeconds": 0.188,
      "endSeconds": 109.5,
      "velocity": 0.25,
      "bendActive": true,
      "instrument": 1
    },
    {
      "id": "id_091lfmt3mmnv3kmnt",
      "pitch": 75,
      "pitchName": "D#5",
      "frequencyHz": 622.253967,
      "startTick": 139920,
      "durationTicks": 240,
      "endTick": 140160,
      "startSeconds": 109.313,
      "durationSeconds": 0.188,
      "endSeconds": 109.5,
      "velocity": 0.8,
      "bendActive": true,
      "instrument": 0
    },
    {
      "id": "id_nm54picocmnv3kmnt",
      "pitch": 56,
      "pitchName": "G#3",
      "frequencyHz": 207.652349,
      "startTick": 140160,
      "durationTicks": 120,
      "endTick": 140280,
      "startSeconds": 109.5,
      "durationSeconds": 0.094,
      "endSeconds": 109.594,
      "velocity": 0.8,
      "bendActive": true,
      "instrument": 0
    },
    {
      "id": "id_wk7nissuvmnv41wsp",
      "pitch": 61,
      "pitchName": "C#4",
      "frequencyHz": 277.182631,
      "startTick": 140160,
      "durationTicks": 120,
      "endTick": 140280,
      "startSeconds": 109.5,
      "durationSeconds": 0.094,
      "endSeconds": 109.594,
      "velocity": 0.25,
      "bendActive": true,
      "instrument": 1
    },
    {
      "id": "id_m8t7v1uuymnv3kmnt",
      "pitch": 64,
      "pitchName": "E4",
      "frequencyHz": 329.627557,
      "startTick": 140160,
      "durationTicks": 120,
      "endTick": 140280,
      "startSeconds": 109.5,
      "durationSeconds": 0.094,
      "endSeconds": 109.594,
      "velocity": 0.8,
      "bendActive": true,
      "instrument": 0
    },
    {
      "id": "id_6fhgis5c9mnv45m49",
      "pitch": 70,
      "pitchName": "A#4",
      "frequencyHz": 466.163762,
      "startTick": 140160,
      "durationTicks": 120,
      "endTick": 140280,
      "startSeconds": 109.5,
      "durationSeconds": 0.094,
      "endSeconds": 109.594,
      "velocity": 0.35,
      "bendActive": true,
      "instrument": 1
    },
    {
      "id": "id_qvv0637w1mnv3kmnt",
      "pitch": 73,
      "pitchName": "C#5",
      "frequencyHz": 554.365262,
      "startTick": 140160,
      "durationTicks": 120,
      "endTick": 140280,
      "startSeconds": 109.5,
      "durationSeconds": 0.094,
      "endSeconds": 109.594,
      "velocity": 0.8,
      "bendActive": true,
      "instrument": 0
    },
    {
      "id": "id_cigiaye73mnv3kmnt",
      "pitch": 56,
      "pitchName": "G#3",
      "frequencyHz": 207.652349,
      "startTick": 140400,
      "durationTicks": 240,
      "endTick": 140640,
      "startSeconds": 109.688,
      "durationSeconds": 0.188,
      "endSeconds": 109.875,
      "velocity": 0.8,
      "bendActive": true,
      "instrument": 0
    },
    {
      "id": "id_i82upvoufmnv41xl9",
      "pitch": 61,
      "pitchName": "C#4",
      "frequencyHz": 277.182631,
      "startTick": 140400,
      "durationTicks": 240,
      "endTick": 140640,
      "startSeconds": 109.688,
      "durationSeconds": 0.188,
      "endSeconds": 109.875,
      "velocity": 0.25,
      "bendActive": true,
      "instrument": 1
    },
    {
      "id": "id_715o0vbejmnv3kmnt",
      "pitch": 64,
      "pitchName": "E4",
      "frequencyHz": 329.627557,
      "startTick": 140400,
      "durationTicks": 240,
      "endTick": 140640,
      "startSeconds": 109.688,
      "durationSeconds": 0.188,
      "endSeconds": 109.875,
      "velocity": 0.8,
      "bendActive": true,
      "instrument": 0
    },
    {
      "id": "id_xll7yok9pmnv45f6w",
      "pitch": 70,
      "pitchName": "A#4",
      "frequencyHz": 466.163762,
      "startTick": 140400,
      "durationTicks": 240,
      "endTick": 140640,
      "startSeconds": 109.688,
      "durationSeconds": 0.188,
      "endSeconds": 109.875,
      "velocity": 0.25,
      "bendActive": true,
      "instrument": 1
    },
    {
      "id": "id_7h268wcdymnv3kmnt",
      "pitch": 73,
      "pitchName": "C#5",
      "frequencyHz": 554.365262,
      "startTick": 140400,
      "durationTicks": 240,
      "endTick": 140640,
      "startSeconds": 109.688,
      "durationSeconds": 0.188,
      "endSeconds": 109.875,
      "velocity": 0.8,
      "bendActive": true,
      "instrument": 0
    },
    {
      "id": "id_ivpifivsxmnv3kmnt",
      "pitch": 54,
      "pitchName": "F#3",
      "frequencyHz": 184.997211,
      "startTick": 140640,
      "durationTicks": 240,
      "endTick": 140880,
      "startSeconds": 109.875,
      "durationSeconds": 0.188,
      "endSeconds": 110.063,
      "velocity": 0.8,
      "bendActive": true,
      "instrument": 0
    },
    {
      "id": "id_pb9s220y6mnv43ryq",
      "pitch": 59,
      "pitchName": "B3",
      "frequencyHz": 246.941651,
      "startTick": 140640,
      "durationTicks": 240,
      "endTick": 140880,
      "startSeconds": 109.875,
      "durationSeconds": 0.188,
      "endSeconds": 110.063,
      "velocity": 0.3,
      "bendActive": true,
      "instrument": 1
    },
    {
      "id": "id_igh0kfan5mnv3kmnt",
      "pitch": 63,
      "pitchName": "D#4",
      "frequencyHz": 311.126984,
      "startTick": 140640,
      "durationTicks": 240,
      "endTick": 140880,
      "startSeconds": 109.875,
      "durationSeconds": 0.188,
      "endSeconds": 110.063,
      "velocity": 0.8,
      "bendActive": true,
      "instrument": 0
    },
    {
      "id": "id_yi7c7077ymnv43ome",
      "pitch": 66,
      "pitchName": "F#4",
      "frequencyHz": 369.994423,
      "startTick": 140640,
      "durationTicks": 240,
      "endTick": 140880,
      "startSeconds": 109.875,
      "durationSeconds": 0.188,
      "endSeconds": 110.063,
      "velocity": 0.25,
      "bendActive": true,
      "instrument": 1
    },
    {
      "id": "id_mud487qd0mnv3kmnt",
      "pitch": 71,
      "pitchName": "B4",
      "frequencyHz": 493.883301,
      "startTick": 140640,
      "durationTicks": 240,
      "endTick": 140880,
      "startSeconds": 109.875,
      "durationSeconds": 0.188,
      "endSeconds": 110.063,
      "velocity": 0.8,
      "bendActive": true,
      "instrument": 0
    },
    {
      "id": "id_cscmytmcbmnv3kmnt",
      "pitch": 54,
      "pitchName": "F#3",
      "frequencyHz": 184.997211,
      "startTick": 140880,
      "durationTicks": 120,
      "endTick": 141000,
      "startSeconds": 110.063,
      "durationSeconds": 0.094,
      "endSeconds": 110.156,
      "velocity": 0.8,
      "bendActive": true,
      "instrument": 0
    },
    {
      "id": "id_ztrl4yricmnv43tv9",
      "pitch": 59,
      "pitchName": "B3",
      "frequencyHz": 246.941651,
      "startTick": 140880,
      "durationTicks": 120,
      "endTick": 141000,
      "startSeconds": 110.063,
      "durationSeconds": 0.094,
      "endSeconds": 110.156,
      "velocity": 0.25,
      "bendActive": true,
      "instrument": 1
    },
    {
      "id": "id_tdx9rprkzmnv3kmnt",
      "pitch": 63,
      "pitchName": "D#4",
      "frequencyHz": 311.126984,
      "startTick": 140880,
      "durationTicks": 120,
      "endTick": 141000,
      "startSeconds": 110.063,
      "durationSeconds": 0.094,
      "endSeconds": 110.156,
      "velocity": 0.8,
      "bendActive": true,
      "instrument": 0
    },
    {
      "id": "id_4s5zi1whkmnv43kor",
      "pitch": 66,
      "pitchName": "F#4",
      "frequencyHz": 369.994423,
      "startTick": 140880,
      "durationTicks": 120,
      "endTick": 141000,
      "startSeconds": 110.063,
      "durationSeconds": 0.094,
      "endSeconds": 110.156,
      "velocity": 0.25,
      "bendActive": true,
      "instrument": 1
    },
    {
      "id": "id_ge3sii1p1mnv3kmnt",
      "pitch": 71,
      "pitchName": "B4",
      "frequencyHz": 493.883301,
      "startTick": 140880,
      "durationTicks": 120,
      "endTick": 141000,
      "startSeconds": 110.063,
      "durationSeconds": 0.094,
      "endSeconds": 110.156,
      "velocity": 0.8,
      "bendActive": true,
      "instrument": 0
    },
    {
      "id": "id_1h7udmbmemnv3kmnt",
      "pitch": 40,
      "pitchName": "E2",
      "frequencyHz": 82.406889,
      "startTick": 141120,
      "durationTicks": 240,
      "endTick": 141360,
      "startSeconds": 110.25,
      "durationSeconds": 0.188,
      "endSeconds": 110.438,
      "velocity": 0.8,
      "bendActive": true,
      "instrument": 0
    },
    {
      "id": "id_4b6xjzccgmnv3kmnt",
      "pitch": 47,
      "pitchName": "B2",
      "frequencyHz": 123.470825,
      "startTick": 141120,
      "durationTicks": 240,
      "endTick": 141360,
      "startSeconds": 110.25,
      "durationSeconds": 0.188,
      "endSeconds": 110.438,
      "velocity": 0.8,
      "bendActive": true,
      "instrument": 0
    },
    {
      "id": "id_i8jwkob67mnv3kmnt",
      "pitch": 56,
      "pitchName": "G#3",
      "frequencyHz": 207.652349,
      "startTick": 141120,
      "durationTicks": 240,
      "endTick": 141360,
      "startSeconds": 110.25,
      "durationSeconds": 0.188,
      "endSeconds": 110.438,
      "velocity": 0.8,
      "bendActive": true,
      "instrument": 0
    },
    {
      "id": "id_6zhd1fpgamnv3kmnt",
      "pitch": 59,
      "pitchName": "B3",
      "frequencyHz": 246.941651,
      "startTick": 141120,
      "durationTicks": 240,
      "endTick": 141360,
      "startSeconds": 110.25,
      "durationSeconds": 0.188,
      "endSeconds": 110.438,
      "velocity": 0.25,
      "bendActive": true,
      "instrument": 1
    },
    {
      "id": "id_efaolsxx6mnv3kmnt",
      "pitch": 68,
      "pitchName": "G#4",
      "frequencyHz": 415.304698,
      "startTick": 141120,
      "durationTicks": 240,
      "endTick": 141360,
      "startSeconds": 110.25,
      "durationSeconds": 0.188,
      "endSeconds": 110.438,
      "velocity": 0.25,
      "bendActive": true,
      "instrument": 1
    },
    {
      "id": "id_j89x9c8t7mnv3kmnt",
      "pitch": 71,
      "pitchName": "B4",
      "frequencyHz": 493.883301,
      "startTick": 141120,
      "durationTicks": 240,
      "endTick": 141360,
      "startSeconds": 110.25,
      "durationSeconds": 0.188,
      "endSeconds": 110.438,
      "velocity": 0.8,
      "bendActive": true,
      "instrument": 0
    },
    {
      "id": "id_udlasyjnymnv3kmnt",
      "pitch": 40,
      "pitchName": "E2",
      "frequencyHz": 82.406889,
      "startTick": 141360,
      "durationTicks": 120,
      "endTick": 141480,
      "startSeconds": 110.438,
      "durationSeconds": 0.094,
      "endSeconds": 110.531,
      "velocity": 0.8,
      "bendActive": true,
      "instrument": 0
    },
    {
      "id": "id_iqbmq0f6vmnv3kmnt",
      "pitch": 47,
      "pitchName": "B2",
      "frequencyHz": 123.470825,
      "startTick": 141360,
      "durationTicks": 120,
      "endTick": 141480,
      "startSeconds": 110.438,
      "durationSeconds": 0.094,
      "endSeconds": 110.531,
      "velocity": 0.8,
      "bendActive": true,
      "instrument": 0
    },
    {
      "id": "id_k1rqnqayxmnv3kmnt",
      "pitch": 56,
      "pitchName": "G#3",
      "frequencyHz": 207.652349,
      "startTick": 141360,
      "durationTicks": 120,
      "endTick": 141480,
      "startSeconds": 110.438,
      "durationSeconds": 0.094,
      "endSeconds": 110.531,
      "velocity": 0.8,
      "bendActive": true,
      "instrument": 0
    },
    {
      "id": "id_x9zv46c1dmnv3kmnt",
      "pitch": 59,
      "pitchName": "B3",
      "frequencyHz": 246.941651,
      "startTick": 141360,
      "durationTicks": 120,
      "endTick": 141480,
      "startSeconds": 110.438,
      "durationSeconds": 0.094,
      "endSeconds": 110.531,
      "velocity": 0.25,
      "bendActive": true,
      "instrument": 1
    },
    {
      "id": "id_cn3lu2vnimnv3kmnt",
      "pitch": 68,
      "pitchName": "G#4",
      "frequencyHz": 415.304698,
      "startTick": 141360,
      "durationTicks": 120,
      "endTick": 141480,
      "startSeconds": 110.438,
      "durationSeconds": 0.094,
      "endSeconds": 110.531,
      "velocity": 0.25,
      "bendActive": true,
      "instrument": 1
    },
    {
      "id": "id_i2cdv6xy0mnv3kmnt",
      "pitch": 71,
      "pitchName": "B4",
      "frequencyHz": 493.883301,
      "startTick": 141360,
      "durationTicks": 120,
      "endTick": 141480,
      "startSeconds": 110.438,
      "durationSeconds": 0.094,
      "endSeconds": 110.531,
      "velocity": 0.8,
      "bendActive": true,
      "instrument": 0
    },
    {
      "id": "id_z61guaxicmnv3kmnt",
      "pitch": 40,
      "pitchName": "E2",
      "frequencyHz": 82.406889,
      "startTick": 141600,
      "durationTicks": 120,
      "endTick": 141720,
      "startSeconds": 110.625,
      "durationSeconds": 0.094,
      "endSeconds": 110.719,
      "velocity": 0.8,
      "bendActive": true,
      "instrument": 0
    },
    {
      "id": "id_k4og1tsgfmnv3kmnt",
      "pitch": 47,
      "pitchName": "B2",
      "frequencyHz": 123.470825,
      "startTick": 141600,
      "durationTicks": 120,
      "endTick": 141720,
      "startSeconds": 110.625,
      "durationSeconds": 0.094,
      "endSeconds": 110.719,
      "velocity": 0.8,
      "bendActive": true,
      "instrument": 0
    },
    {
      "id": "id_wo80dk577mnv3kmnt",
      "pitch": 56,
      "pitchName": "G#3",
      "frequencyHz": 207.652349,
      "startTick": 141600,
      "durationTicks": 120,
      "endTick": 141720,
      "startSeconds": 110.625,
      "durationSeconds": 0.094,
      "endSeconds": 110.719,
      "velocity": 0.8,
      "bendActive": true,
      "instrument": 0
    },
    {
      "id": "id_4sd1sybnimnv3kmnt",
      "pitch": 59,
      "pitchName": "B3",
      "frequencyHz": 246.941651,
      "startTick": 141600,
      "durationTicks": 120,
      "endTick": 141720,
      "startSeconds": 110.625,
      "durationSeconds": 0.094,
      "endSeconds": 110.719,
      "velocity": 0.25,
      "bendActive": true,
      "instrument": 1
    },
    {
      "id": "id_k0pu69yiemnv3kmnt",
      "pitch": 68,
      "pitchName": "G#4",
      "frequencyHz": 415.304698,
      "startTick": 141600,
      "durationTicks": 120,
      "endTick": 141720,
      "startSeconds": 110.625,
      "durationSeconds": 0.094,
      "endSeconds": 110.719,
      "velocity": 0.25,
      "bendActive": true,
      "instrument": 1
    },
    {
      "id": "id_9uc4kjgifmnv3kmnt",
      "pitch": 71,
      "pitchName": "B4",
      "frequencyHz": 493.883301,
      "startTick": 141600,
      "durationTicks": 120,
      "endTick": 141720,
      "startSeconds": 110.625,
      "durationSeconds": 0.094,
      "endSeconds": 110.719,
      "velocity": 0.8,
      "bendActive": true,
      "instrument": 0
    },
    {
      "id": "id_5u8m58si2mnv3kmnt",
      "pitch": 40,
      "pitchName": "E2",
      "frequencyHz": 82.406889,
      "startTick": 141840,
      "durationTicks": 240,
      "endTick": 142080,
      "startSeconds": 110.813,
      "durationSeconds": 0.188,
      "endSeconds": 111,
      "velocity": 0.8,
      "bendActive": true,
      "instrument": 0
    },
    {
      "id": "id_4h13j3bzlmnv3kmnt",
      "pitch": 47,
      "pitchName": "B2",
      "frequencyHz": 123.470825,
      "startTick": 141840,
      "durationTicks": 240,
      "endTick": 142080,
      "startSeconds": 110.813,
      "durationSeconds": 0.188,
      "endSeconds": 111,
      "velocity": 0.8,
      "bendActive": true,
      "instrument": 0
    },
    {
      "id": "id_hpwx5h1zkmnv3kmnt",
      "pitch": 56,
      "pitchName": "G#3",
      "frequencyHz": 207.652349,
      "startTick": 141840,
      "durationTicks": 240,
      "endTick": 142080,
      "startSeconds": 110.813,
      "durationSeconds": 0.188,
      "endSeconds": 111,
      "velocity": 0.8,
      "bendActive": true,
      "instrument": 0
    },
    {
      "id": "id_ucdcnodl8mnv3kmnt",
      "pitch": 59,
      "pitchName": "B3",
      "frequencyHz": 246.941651,
      "startTick": 141840,
      "durationTicks": 240,
      "endTick": 142080,
      "startSeconds": 110.813,
      "durationSeconds": 0.188,
      "endSeconds": 111,
      "velocity": 0.25,
      "bendActive": true,
      "instrument": 1
    },
    {
      "id": "id_cvizqzj8vmnv3kmnt",
      "pitch": 68,
      "pitchName": "G#4",
      "frequencyHz": 415.304698,
      "startTick": 141840,
      "durationTicks": 240,
      "endTick": 142080,
      "startSeconds": 110.813,
      "durationSeconds": 0.188,
      "endSeconds": 111,
      "velocity": 0.25,
      "bendActive": true,
      "instrument": 1
    },
    {
      "id": "id_j5mif6on9mnv3kmnt",
      "pitch": 71,
      "pitchName": "B4",
      "frequencyHz": 493.883301,
      "startTick": 141840,
      "durationTicks": 240,
      "endTick": 142080,
      "startSeconds": 110.813,
      "durationSeconds": 0.188,
      "endSeconds": 111,
      "velocity": 0.8,
      "bendActive": true,
      "instrument": 0
    },
    {
      "id": "id_ng3yjqwntmnv3kmnt",
      "pitch": 40,
      "pitchName": "E2",
      "frequencyHz": 82.406889,
      "startTick": 142080,
      "durationTicks": 120,
      "endTick": 142200,
      "startSeconds": 111,
      "durationSeconds": 0.094,
      "endSeconds": 111.094,
      "velocity": 0.8,
      "bendActive": true,
      "instrument": 0
    },
    {
      "id": "id_9nlj83brnmnv3kmnt",
      "pitch": 47,
      "pitchName": "B2",
      "frequencyHz": 123.470825,
      "startTick": 142080,
      "durationTicks": 120,
      "endTick": 142200,
      "startSeconds": 111,
      "durationSeconds": 0.094,
      "endSeconds": 111.094,
      "velocity": 0.8,
      "bendActive": true,
      "instrument": 0
    },
    {
      "id": "id_iwes3vrf8mnv3kmnt",
      "pitch": 56,
      "pitchName": "G#3",
      "frequencyHz": 207.652349,
      "startTick": 142080,
      "durationTicks": 120,
      "endTick": 142200,
      "startSeconds": 111,
      "durationSeconds": 0.094,
      "endSeconds": 111.094,
      "velocity": 0.8,
      "bendActive": true,
      "instrument": 0
    },
    {
      "id": "id_mdphnhkejmnv3kmnt",
      "pitch": 59,
      "pitchName": "B3",
      "frequencyHz": 246.941651,
      "startTick": 142080,
      "durationTicks": 120,
      "endTick": 142200,
      "startSeconds": 111,
      "durationSeconds": 0.094,
      "endSeconds": 111.094,
      "velocity": 0.25,
      "bendActive": true,
      "instrument": 1
    },
    {
      "id": "id_3mormlxvomnv3kmnt",
      "pitch": 68,
      "pitchName": "G#4",
      "frequencyHz": 415.304698,
      "startTick": 142080,
      "durationTicks": 120,
      "endTick": 142200,
      "startSeconds": 111,
      "durationSeconds": 0.094,
      "endSeconds": 111.094,
      "velocity": 0.25,
      "bendActive": true,
      "instrument": 1
    },
    {
      "id": "id_wc3gd32ktmnv3kmnt",
      "pitch": 71,
      "pitchName": "B4",
      "frequencyHz": 493.883301,
      "startTick": 142080,
      "durationTicks": 120,
      "endTick": 142200,
      "startSeconds": 111,
      "durationSeconds": 0.094,
      "endSeconds": 111.094,
      "velocity": 0.8,
      "bendActive": true,
      "instrument": 0
    },
    {
      "id": "id_brb62jbw7mnv3kmnt",
      "pitch": 40,
      "pitchName": "E2",
      "frequencyHz": 82.406889,
      "startTick": 142320,
      "durationTicks": 120,
      "endTick": 142440,
      "startSeconds": 111.188,
      "durationSeconds": 0.094,
      "endSeconds": 111.281,
      "velocity": 0.8,
      "bendActive": true,
      "instrument": 0
    },
    {
      "id": "id_ldhws5l2dmnv3kmnt",
      "pitch": 47,
      "pitchName": "B2",
      "frequencyHz": 123.470825,
      "startTick": 142320,
      "durationTicks": 120,
      "endTick": 142440,
      "startSeconds": 111.188,
      "durationSeconds": 0.094,
      "endSeconds": 111.281,
      "velocity": 0.8,
      "bendActive": true,
      "instrument": 0
    },
    {
      "id": "id_2wbvyqcpkmnv3kmnt",
      "pitch": 56,
      "pitchName": "G#3",
      "frequencyHz": 207.652349,
      "startTick": 142320,
      "durationTicks": 120,
      "endTick": 142440,
      "startSeconds": 111.188,
      "durationSeconds": 0.094,
      "endSeconds": 111.281,
      "velocity": 0.8,
      "bendActive": true,
      "instrument": 0
    },
    {
      "id": "id_4baovir4rmnv3kmnt",
      "pitch": 59,
      "pitchName": "B3",
      "frequencyHz": 246.941651,
      "startTick": 142320,
      "durationTicks": 120,
      "endTick": 142440,
      "startSeconds": 111.188,
      "durationSeconds": 0.094,
      "endSeconds": 111.281,
      "velocity": 0.25,
      "bendActive": true,
      "instrument": 1
    },
    {
      "id": "id_tkbx3urypmnv3kmnt",
      "pitch": 68,
      "pitchName": "G#4",
      "frequencyHz": 415.304698,
      "startTick": 142320,
      "durationTicks": 120,
      "endTick": 142440,
      "startSeconds": 111.188,
      "durationSeconds": 0.094,
      "endSeconds": 111.281,
      "velocity": 0.25,
      "bendActive": true,
      "instrument": 1
    },
    {
      "id": "id_6ozlri2o1mnv3kmnt",
      "pitch": 71,
      "pitchName": "B4",
      "frequencyHz": 493.883301,
      "startTick": 142320,
      "durationTicks": 120,
      "endTick": 142440,
      "startSeconds": 111.188,
      "durationSeconds": 0.094,
      "endSeconds": 111.281,
      "velocity": 0.8,
      "bendActive": true,
      "instrument": 0
    },
    {
      "id": "id_3gtcegh0gmnv3kmnt",
      "pitch": 42,
      "pitchName": "F#2",
      "frequencyHz": 92.498606,
      "startTick": 142560,
      "durationTicks": 240,
      "endTick": 142800,
      "startSeconds": 111.375,
      "durationSeconds": 0.188,
      "endSeconds": 111.563,
      "velocity": 0.8,
      "bendActive": true,
      "instrument": 0
    },
    {
      "id": "id_2ory6uwwbmnv3kmnt",
      "pitch": 54,
      "pitchName": "F#3",
      "frequencyHz": 184.997211,
      "startTick": 142560,
      "durationTicks": 240,
      "endTick": 142800,
      "startSeconds": 111.375,
      "durationSeconds": 0.188,
      "endSeconds": 111.563,
      "velocity": 0.25,
      "bendActive": true,
      "instrument": 1
    },
    {
      "id": "id_dtnoj8do0mnv3kmnt",
      "pitch": 58,
      "pitchName": "A#3",
      "frequencyHz": 233.081881,
      "startTick": 142560,
      "durationTicks": 240,
      "endTick": 142800,
      "startSeconds": 111.375,
      "durationSeconds": 0.188,
      "endSeconds": 111.563,
      "velocity": 0.8,
      "bendActive": true,
      "instrument": 0
    },
    {
      "id": "id_j579s6zezmnv3kmnt",
      "pitch": 61,
      "pitchName": "C#4",
      "frequencyHz": 277.182631,
      "startTick": 142560,
      "durationTicks": 240,
      "endTick": 142800,
      "startSeconds": 111.375,
      "durationSeconds": 0.188,
      "endSeconds": 111.563,
      "velocity": 0.25,
      "bendActive": true,
      "instrument": 1
    },
    {
      "id": "id_hiipbhmzwmnv3kmnt",
      "pitch": 64,
      "pitchName": "E4",
      "frequencyHz": 329.627557,
      "startTick": 142560,
      "durationTicks": 240,
      "endTick": 142800,
      "startSeconds": 111.375,
      "durationSeconds": 0.188,
      "endSeconds": 111.563,
      "velocity": 0.8,
      "bendActive": true,
      "instrument": 0
    },
    {
      "id": "id_s42775i85mnv3kmnt",
      "pitch": 73,
      "pitchName": "C#5",
      "frequencyHz": 554.365262,
      "startTick": 142560,
      "durationTicks": 240,
      "endTick": 142800,
      "startSeconds": 111.375,
      "durationSeconds": 0.188,
      "endSeconds": 111.563,
      "velocity": 0.8,
      "bendActive": true,
      "instrument": 0
    },
    {
      "id": "id_4shjjrebnmnv3kmnt",
      "pitch": 42,
      "pitchName": "F#2",
      "frequencyHz": 92.498606,
      "startTick": 142800,
      "durationTicks": 240,
      "endTick": 143040,
      "startSeconds": 111.563,
      "durationSeconds": 0.188,
      "endSeconds": 111.75,
      "velocity": 0.8,
      "bendActive": true,
      "instrument": 0
    },
    {
      "id": "id_lx1jf242qmnv3kmnt",
      "pitch": 54,
      "pitchName": "F#3",
      "frequencyHz": 184.997211,
      "startTick": 142800,
      "durationTicks": 240,
      "endTick": 143040,
      "startSeconds": 111.563,
      "durationSeconds": 0.188,
      "endSeconds": 111.75,
      "velocity": 0.25,
      "bendActive": true,
      "instrument": 1
    },
    {
      "id": "id_5rd29rxlymnv3kmnt",
      "pitch": 58,
      "pitchName": "A#3",
      "frequencyHz": 233.081881,
      "startTick": 142800,
      "durationTicks": 240,
      "endTick": 143040,
      "startSeconds": 111.563,
      "durationSeconds": 0.188,
      "endSeconds": 111.75,
      "velocity": 0.8,
      "bendActive": true,
      "instrument": 0
    },
    {
      "id": "id_wk73jplssmnv3kmnt",
      "pitch": 61,
      "pitchName": "C#4",
      "frequencyHz": 277.182631,
      "startTick": 142800,
      "durationTicks": 240,
      "endTick": 143040,
      "startSeconds": 111.563,
      "durationSeconds": 0.188,
      "endSeconds": 111.75,
      "velocity": 0.25,
      "bendActive": true,
      "instrument": 1
    },
    {
      "id": "id_oxfnsey6tmnv3kmnt",
      "pitch": 64,
      "pitchName": "E4",
      "frequencyHz": 329.627557,
      "startTick": 142800,
      "durationTicks": 240,
      "endTick": 143040,
      "startSeconds": 111.563,
      "durationSeconds": 0.188,
      "endSeconds": 111.75,
      "velocity": 0.8,
      "bendActive": true,
      "instrument": 0
    },
    {
      "id": "id_oqu5yd9zbmnv3kmnt",
      "pitch": 73,
      "pitchName": "C#5",
      "frequencyHz": 554.365262,
      "startTick": 142800,
      "durationTicks": 240,
      "endTick": 143040,
      "startSeconds": 111.563,
      "durationSeconds": 0.188,
      "endSeconds": 111.75,
      "velocity": 0.8,
      "bendActive": true,
      "instrument": 0
    },
    {
      "id": "id_v3suve2dfmnv3kmnt",
      "pitch": 42,
      "pitchName": "F#2",
      "frequencyHz": 92.498606,
      "startTick": 143040,
      "durationTicks": 120,
      "endTick": 143160,
      "startSeconds": 111.75,
      "durationSeconds": 0.094,
      "endSeconds": 111.844,
      "velocity": 0.8,
      "bendActive": true,
      "instrument": 0
    },
    {
      "id": "id_df47r3x5pmnv3kmnt",
      "pitch": 56,
      "pitchName": "G#3",
      "frequencyHz": 207.652349,
      "startTick": 143040,
      "durationTicks": 120,
      "endTick": 143160,
      "startSeconds": 111.75,
      "durationSeconds": 0.094,
      "endSeconds": 111.844,
      "velocity": 0.8,
      "bendActive": true,
      "instrument": 0
    },
    {
      "id": "id_qloc103cfmnv3kmnt",
      "pitch": 61,
      "pitchName": "C#4",
      "frequencyHz": 277.182631,
      "startTick": 143040,
      "durationTicks": 120,
      "endTick": 143160,
      "startSeconds": 111.75,
      "durationSeconds": 0.094,
      "endSeconds": 111.844,
      "velocity": 0.25,
      "bendActive": true,
      "instrument": 1
    },
    {
      "id": "id_worswbloqmnv3kmnt",
      "pitch": 63,
      "pitchName": "D#4",
      "frequencyHz": 311.126984,
      "startTick": 143040,
      "durationTicks": 120,
      "endTick": 143160,
      "startSeconds": 111.75,
      "durationSeconds": 0.094,
      "endSeconds": 111.844,
      "velocity": 0.8,
      "bendActive": true,
      "instrument": 0
    },
    {
      "id": "id_h21iizi89mnv3kmnt",
      "pitch": 71,
      "pitchName": "B4",
      "frequencyHz": 493.883301,
      "startTick": 143040,
      "durationTicks": 120,
      "endTick": 143160,
      "startSeconds": 111.75,
      "durationSeconds": 0.094,
      "endSeconds": 111.844,
      "velocity": 0.8,
      "bendActive": true,
      "instrument": 0
    },
    {
      "id": "id_oq65rgco4mnv3kmnt",
      "pitch": 42,
      "pitchName": "F#2",
      "frequencyHz": 92.498606,
      "startTick": 143280,
      "durationTicks": 240,
      "endTick": 143520,
      "startSeconds": 111.938,
      "durationSeconds": 0.188,
      "endSeconds": 112.125,
      "velocity": 0.8,
      "bendActive": true,
      "instrument": 0
    },
    {
      "id": "id_x0iw8gbgtmnv3kmnt",
      "pitch": 56,
      "pitchName": "G#3",
      "frequencyHz": 207.652349,
      "startTick": 143280,
      "durationTicks": 240,
      "endTick": 143520,
      "startSeconds": 111.938,
      "durationSeconds": 0.188,
      "endSeconds": 112.125,
      "velocity": 0.8,
      "bendActive": true,
      "instrument": 0
    },
    {
      "id": "id_ovhhndgwfmnv3kmnt",
      "pitch": 58,
      "pitchName": "A#3",
      "frequencyHz": 233.081881,
      "startTick": 143280,
      "durationTicks": 240,
      "endTick": 143520,
      "startSeconds": 111.938,
      "durationSeconds": 0.188,
      "endSeconds": 112.125,
      "velocity": 0.25,
      "bendActive": true,
      "instrument": 1
    },
    {
      "id": "id_5yooj8571mnv3kmnt",
      "pitch": 61,
      "pitchName": "C#4",
      "frequencyHz": 277.182631,
      "startTick": 143280,
      "durationTicks": 240,
      "endTick": 143520,
      "startSeconds": 111.938,
      "durationSeconds": 0.188,
      "endSeconds": 112.125,
      "velocity": 0.25,
      "bendActive": true,
      "instrument": 1
    },
    {
      "id": "id_h9lu0oyxsmnv3kmnt",
      "pitch": 63,
      "pitchName": "D#4",
      "frequencyHz": 311.126984,
      "startTick": 143280,
      "durationTicks": 240,
      "endTick": 143520,
      "startSeconds": 111.938,
      "durationSeconds": 0.188,
      "endSeconds": 112.125,
      "velocity": 0.8,
      "bendActive": true,
      "instrument": 0
    },
    {
      "id": "id_q5pl8dp1omnv3kmnt",
      "pitch": 71,
      "pitchName": "B4",
      "frequencyHz": 493.883301,
      "startTick": 143280,
      "durationTicks": 240,
      "endTick": 143520,
      "startSeconds": 111.938,
      "durationSeconds": 0.188,
      "endSeconds": 112.125,
      "velocity": 0.8,
      "bendActive": true,
      "instrument": 0
    },
    {
      "id": "id_88dmm6hr6mnv3kmnt",
      "pitch": 51,
      "pitchName": "D#3",
      "frequencyHz": 155.563492,
      "startTick": 143520,
      "durationTicks": 240,
      "endTick": 143760,
      "startSeconds": 112.125,
      "durationSeconds": 0.188,
      "endSeconds": 112.313,
      "velocity": 0.8,
      "bendActive": true,
      "instrument": 0
    },
    {
      "id": "id_3jfu5gdkbmnv3kmnt",
      "pitch": 54,
      "pitchName": "F#3",
      "frequencyHz": 184.997211,
      "startTick": 143520,
      "durationTicks": 240,
      "endTick": 143760,
      "startSeconds": 112.125,
      "durationSeconds": 0.188,
      "endSeconds": 112.313,
      "velocity": 0.25,
      "bendActive": true,
      "instrument": 1
    },
    {
      "id": "id_e3g521jn3mnv3kmnt",
      "pitch": 59,
      "pitchName": "B3",
      "frequencyHz": 246.941651,
      "startTick": 143520,
      "durationTicks": 240,
      "endTick": 143760,
      "startSeconds": 112.125,
      "durationSeconds": 0.188,
      "endSeconds": 112.313,
      "velocity": 0.8,
      "bendActive": true,
      "instrument": 0
    },
    {
      "id": "id_oy4oaivp9mnv3kmnt",
      "pitch": 66,
      "pitchName": "F#4",
      "frequencyHz": 369.994423,
      "startTick": 143520,
      "durationTicks": 240,
      "endTick": 143760,
      "startSeconds": 112.125,
      "durationSeconds": 0.188,
      "endSeconds": 112.313,
      "velocity": 0.25,
      "bendActive": true,
      "instrument": 1
    },
    {
      "id": "id_1nz6x738vmnv3kmnt",
      "pitch": 70,
      "pitchName": "A#4",
      "frequencyHz": 466.163762,
      "startTick": 143520,
      "durationTicks": 240,
      "endTick": 143760,
      "startSeconds": 112.125,
      "durationSeconds": 0.188,
      "endSeconds": 112.313,
      "velocity": 0.8,
      "bendActive": true,
      "instrument": 0
    },
    {
      "id": "id_svu9wkqo3mnv3kmnt",
      "pitch": 51,
      "pitchName": "D#3",
      "frequencyHz": 155.563492,
      "startTick": 143760,
      "durationTicks": 240,
      "endTick": 144000,
      "startSeconds": 112.313,
      "durationSeconds": 0.188,
      "endSeconds": 112.5,
      "velocity": 0.8,
      "bendActive": true,
      "instrument": 0
    },
    {
      "id": "id_y4gaejtkomnv46hvl",
      "pitch": 54,
      "pitchName": "F#3",
      "frequencyHz": 184.997211,
      "startTick": 143760,
      "durationTicks": 240,
      "endTick": 144000,
      "startSeconds": 112.313,
      "durationSeconds": 0.188,
      "endSeconds": 112.5,
      "velocity": 0.25,
      "bendActive": true,
      "instrument": 1
    },
    {
      "id": "id_nkwl9mwkqmnv3kmnt",
      "pitch": 59,
      "pitchName": "B3",
      "frequencyHz": 246.941651,
      "startTick": 143760,
      "durationTicks": 240,
      "endTick": 144000,
      "startSeconds": 112.313,
      "durationSeconds": 0.188,
      "endSeconds": 112.5,
      "velocity": 0.8,
      "bendActive": true,
      "instrument": 0
    },
    {
      "id": "id_c3xz7rekjmnv3kmnt",
      "pitch": 66,
      "pitchName": "F#4",
      "frequencyHz": 369.994423,
      "startTick": 143760,
      "durationTicks": 240,
      "endTick": 144000,
      "startSeconds": 112.313,
      "durationSeconds": 0.188,
      "endSeconds": 112.5,
      "velocity": 0.25,
      "bendActive": true,
      "instrument": 1
    },
    {
      "id": "id_g6ho86p51mnv3kmnt",
      "pitch": 70,
      "pitchName": "A#4",
      "frequencyHz": 466.163762,
      "startTick": 143760,
      "durationTicks": 240,
      "endTick": 144000,
      "startSeconds": 112.313,
      "durationSeconds": 0.188,
      "endSeconds": 112.5,
      "velocity": 0.8,
      "bendActive": true,
      "instrument": 0
    },
    {
      "id": "id_6pdrmiwuymnv3kmnt",
      "pitch": 51,
      "pitchName": "D#3",
      "frequencyHz": 155.563492,
      "startTick": 143880,
      "durationTicks": 120,
      "endTick": 144000,
      "startSeconds": 112.406,
      "durationSeconds": 0.094,
      "endSeconds": 112.5,
      "velocity": 0.8,
      "bendActive": true,
      "instrument": 0
    },
    {
      "id": "id_ekvahq46imnv3kmnt",
      "pitch": 44,
      "pitchName": "G#2",
      "frequencyHz": 103.826174,
      "startTick": 144000,
      "durationTicks": 240,
      "endTick": 144240,
      "startSeconds": 112.5,
      "durationSeconds": 0.188,
      "endSeconds": 112.688,
      "velocity": 0.8,
      "bendActive": true,
      "instrument": 0
    },
    {
      "id": "id_p328wwijumnv3kmnt",
      "pitch": 51,
      "pitchName": "D#3",
      "frequencyHz": 155.563492,
      "startTick": 144000,
      "durationTicks": 240,
      "endTick": 144240,
      "startSeconds": 112.5,
      "durationSeconds": 0.188,
      "endSeconds": 112.688,
      "velocity": 0.8,
      "bendActive": true,
      "instrument": 0
    },
    {
      "id": "id_km0n9c9cwmnv3kmnt",
      "pitch": 56,
      "pitchName": "G#3",
      "frequencyHz": 207.652349,
      "startTick": 144000,
      "durationTicks": 240,
      "endTick": 144240,
      "startSeconds": 112.5,
      "durationSeconds": 0.188,
      "endSeconds": 112.688,
      "velocity": 0.8,
      "bendActive": true,
      "instrument": 0
    },
    {
      "id": "id_145fw8vmjmnv3kmnt",
      "pitch": 59,
      "pitchName": "B3",
      "frequencyHz": 246.941651,
      "startTick": 144000,
      "durationTicks": 240,
      "endTick": 144240,
      "startSeconds": 112.5,
      "durationSeconds": 0.188,
      "endSeconds": 112.688,
      "velocity": 0.25,
      "bendActive": true,
      "instrument": 1
    },
    {
      "id": "id_usknikydnmnv3kmnt",
      "pitch": 63,
      "pitchName": "D#4",
      "frequencyHz": 311.126984,
      "startTick": 144000,
      "durationTicks": 240,
      "endTick": 144240,
      "startSeconds": 112.5,
      "durationSeconds": 0.188,
      "endSeconds": 112.688,
      "velocity": 0.25,
      "bendActive": true,
      "instrument": 1
    },
    {
      "id": "id_laa0mhs2ymnv3kmnt",
      "pitch": 70,
      "pitchName": "A#4",
      "frequencyHz": 466.163762,
      "startTick": 144000,
      "durationTicks": 240,
      "endTick": 144240,
      "startSeconds": 112.5,
      "durationSeconds": 0.188,
      "endSeconds": 112.688,
      "velocity": 0.8,
      "bendActive": true,
      "instrument": 0
    },
    {
      "id": "id_uf86y3jaomnv3kmnt",
      "pitch": 44,
      "pitchName": "G#2",
      "frequencyHz": 103.826174,
      "startTick": 144240,
      "durationTicks": 240,
      "endTick": 144480,
      "startSeconds": 112.688,
      "durationSeconds": 0.188,
      "endSeconds": 112.875,
      "velocity": 0.8,
      "bendActive": true,
      "instrument": 0
    },
    {
      "id": "id_a96phc012mnv3kmnt",
      "pitch": 51,
      "pitchName": "D#3",
      "frequencyHz": 155.563492,
      "startTick": 144240,
      "durationTicks": 240,
      "endTick": 144480,
      "startSeconds": 112.688,
      "durationSeconds": 0.188,
      "endSeconds": 112.875,
      "velocity": 0.8,
      "bendActive": true,
      "instrument": 0
    },
    {
      "id": "id_r5aee5e6rmnv3kmnt",
      "pitch": 56,
      "pitchName": "G#3",
      "frequencyHz": 207.652349,
      "startTick": 144240,
      "durationTicks": 240,
      "endTick": 144480,
      "startSeconds": 112.688,
      "durationSeconds": 0.188,
      "endSeconds": 112.875,
      "velocity": 0.8,
      "bendActive": true,
      "instrument": 0
    },
    {
      "id": "id_0r9hjbbg5mnv3kmnt",
      "pitch": 59,
      "pitchName": "B3",
      "frequencyHz": 246.941651,
      "startTick": 144240,
      "durationTicks": 240,
      "endTick": 144480,
      "startSeconds": 112.688,
      "durationSeconds": 0.188,
      "endSeconds": 112.875,
      "velocity": 0.25,
      "bendActive": true,
      "instrument": 1
    },
    {
      "id": "id_zke17x0r9mnv3kmnt",
      "pitch": 63,
      "pitchName": "D#4",
      "frequencyHz": 311.126984,
      "startTick": 144240,
      "durationTicks": 240,
      "endTick": 144480,
      "startSeconds": 112.688,
      "durationSeconds": 0.188,
      "endSeconds": 112.875,
      "velocity": 0.25,
      "bendActive": true,
      "instrument": 1
    },
    {
      "id": "id_5684yzk4kmnv3kmnt",
      "pitch": 70,
      "pitchName": "A#4",
      "frequencyHz": 466.163762,
      "startTick": 144240,
      "durationTicks": 240,
      "endTick": 144480,
      "startSeconds": 112.688,
      "durationSeconds": 0.188,
      "endSeconds": 112.875,
      "velocity": 0.8,
      "bendActive": true,
      "instrument": 0
    },
    {
      "id": "id_dy09nf95hmnv3kmnt",
      "pitch": 44,
      "pitchName": "G#2",
      "frequencyHz": 103.826174,
      "startTick": 144480,
      "durationTicks": 240,
      "endTick": 144720,
      "startSeconds": 112.875,
      "durationSeconds": 0.188,
      "endSeconds": 113.063,
      "velocity": 0.8,
      "bendActive": true,
      "instrument": 0
    },
    {
      "id": "id_bnywlmnllmnv3kmnt",
      "pitch": 51,
      "pitchName": "D#3",
      "frequencyHz": 155.563492,
      "startTick": 144480,
      "durationTicks": 240,
      "endTick": 144720,
      "startSeconds": 112.875,
      "durationSeconds": 0.188,
      "endSeconds": 113.063,
      "velocity": 0.8,
      "bendActive": true,
      "instrument": 0
    },
    {
      "id": "id_akvqezbt2mnv3kmnt",
      "pitch": 56,
      "pitchName": "G#3",
      "frequencyHz": 207.652349,
      "startTick": 144480,
      "durationTicks": 240,
      "endTick": 144720,
      "startSeconds": 112.875,
      "durationSeconds": 0.188,
      "endSeconds": 113.063,
      "velocity": 0.8,
      "bendActive": true,
      "instrument": 0
    },
    {
      "id": "id_r1w417wlhmnv3kmnt",
      "pitch": 59,
      "pitchName": "B3",
      "frequencyHz": 246.941651,
      "startTick": 144480,
      "durationTicks": 240,
      "endTick": 144720,
      "startSeconds": 112.875,
      "durationSeconds": 0.188,
      "endSeconds": 113.063,
      "velocity": 0.25,
      "bendActive": true,
      "instrument": 1
    },
    {
      "id": "id_vzx2b0dhfmnv3kmnt",
      "pitch": 63,
      "pitchName": "D#4",
      "frequencyHz": 311.126984,
      "startTick": 144480,
      "durationTicks": 240,
      "endTick": 144720,
      "startSeconds": 112.875,
      "durationSeconds": 0.188,
      "endSeconds": 113.063,
      "velocity": 0.25,
      "bendActive": true,
      "instrument": 1
    },
    {
      "id": "id_vjfsnf8pimnv3kmnt",
      "pitch": 70,
      "pitchName": "A#4",
      "frequencyHz": 466.163762,
      "startTick": 144480,
      "durationTicks": 240,
      "endTick": 144720,
      "startSeconds": 112.875,
      "durationSeconds": 0.188,
      "endSeconds": 113.063,
      "velocity": 0.8,
      "bendActive": true,
      "instrument": 0
    },
    {
      "id": "id_wfqthrazrmnv3kmnt",
      "pitch": 44,
      "pitchName": "G#2",
      "frequencyHz": 103.826174,
      "startTick": 144720,
      "durationTicks": 240,
      "endTick": 144960,
      "startSeconds": 113.063,
      "durationSeconds": 0.188,
      "endSeconds": 113.25,
      "velocity": 0.8,
      "bendActive": true,
      "instrument": 0
    },
    {
      "id": "id_qpx57oitfmnv3kmnt",
      "pitch": 51,
      "pitchName": "D#3",
      "frequencyHz": 155.563492,
      "startTick": 144720,
      "durationTicks": 240,
      "endTick": 144960,
      "startSeconds": 113.063,
      "durationSeconds": 0.188,
      "endSeconds": 113.25,
      "velocity": 0.8,
      "bendActive": true,
      "instrument": 0
    },
    {
      "id": "id_8iyzj7f2cmnv3kmnt",
      "pitch": 56,
      "pitchName": "G#3",
      "frequencyHz": 207.652349,
      "startTick": 144720,
      "durationTicks": 240,
      "endTick": 144960,
      "startSeconds": 113.063,
      "durationSeconds": 0.188,
      "endSeconds": 113.25,
      "velocity": 0.8,
      "bendActive": true,
      "instrument": 0
    },
    {
      "id": "id_2pxmfooq4mnv3kmnt",
      "pitch": 59,
      "pitchName": "B3",
      "frequencyHz": 246.941651,
      "startTick": 144720,
      "durationTicks": 240,
      "endTick": 144960,
      "startSeconds": 113.063,
      "durationSeconds": 0.188,
      "endSeconds": 113.25,
      "velocity": 0.25,
      "bendActive": true,
      "instrument": 1
    },
    {
      "id": "id_uasfu7phsmnv3kmnt",
      "pitch": 63,
      "pitchName": "D#4",
      "frequencyHz": 311.126984,
      "startTick": 144720,
      "durationTicks": 240,
      "endTick": 144960,
      "startSeconds": 113.063,
      "durationSeconds": 0.188,
      "endSeconds": 113.25,
      "velocity": 0.25,
      "bendActive": true,
      "instrument": 1
    },
    {
      "id": "id_14gnkwrnfmnv3kmnt",
      "pitch": 70,
      "pitchName": "A#4",
      "frequencyHz": 466.163762,
      "startTick": 144720,
      "durationTicks": 240,
      "endTick": 144960,
      "startSeconds": 113.063,
      "durationSeconds": 0.188,
      "endSeconds": 113.25,
      "velocity": 0.8,
      "bendActive": true,
      "instrument": 0
    },
    {
      "id": "id_96b6zz5bdmnv3kmnt",
      "pitch": 44,
      "pitchName": "G#2",
      "frequencyHz": 103.826174,
      "startTick": 144960,
      "durationTicks": 360,
      "endTick": 145320,
      "startSeconds": 113.25,
      "durationSeconds": 0.281,
      "endSeconds": 113.531,
      "velocity": 0.8,
      "bendActive": true,
      "instrument": 0
    },
    {
      "id": "id_ixf4ifu10mnv3kmnt",
      "pitch": 51,
      "pitchName": "D#3",
      "frequencyHz": 155.563492,
      "startTick": 144960,
      "durationTicks": 360,
      "endTick": 145320,
      "startSeconds": 113.25,
      "durationSeconds": 0.281,
      "endSeconds": 113.531,
      "velocity": 0.8,
      "bendActive": true,
      "instrument": 0
    },
    {
      "id": "id_t557ojp1dmnv3kmnt",
      "pitch": 56,
      "pitchName": "G#3",
      "frequencyHz": 207.652349,
      "startTick": 144960,
      "durationTicks": 360,
      "endTick": 145320,
      "startSeconds": 113.25,
      "durationSeconds": 0.281,
      "endSeconds": 113.531,
      "velocity": 0.8,
      "bendActive": true,
      "instrument": 0
    },
    {
      "id": "id_pfnuagaytmnv3kmnt",
      "pitch": 59,
      "pitchName": "B3",
      "frequencyHz": 246.941651,
      "startTick": 144960,
      "durationTicks": 360,
      "endTick": 145320,
      "startSeconds": 113.25,
      "durationSeconds": 0.281,
      "endSeconds": 113.531,
      "velocity": 0.25,
      "bendActive": true,
      "instrument": 1
    },
    {
      "id": "id_3txykpjexmnv3kmnt",
      "pitch": 63,
      "pitchName": "D#4",
      "frequencyHz": 311.126984,
      "startTick": 144960,
      "durationTicks": 360,
      "endTick": 145320,
      "startSeconds": 113.25,
      "durationSeconds": 0.281,
      "endSeconds": 113.531,
      "velocity": 0.25,
      "bendActive": true,
      "instrument": 1
    },
    {
      "id": "id_1rjlkcrcrmnv3kmnt",
      "pitch": 70,
      "pitchName": "A#4",
      "frequencyHz": 466.163762,
      "startTick": 144960,
      "durationTicks": 360,
      "endTick": 145320,
      "startSeconds": 113.25,
      "durationSeconds": 0.281,
      "endSeconds": 113.531,
      "velocity": 0.8,
      "bendActive": true,
      "instrument": 0
    },
    {
      "id": "id_qekax648fmnv3kmnt",
      "pitch": 44,
      "pitchName": "G#2",
      "frequencyHz": 103.826174,
      "startTick": 145440,
      "durationTicks": 240,
      "endTick": 145680,
      "startSeconds": 113.625,
      "durationSeconds": 0.188,
      "endSeconds": 113.813,
      "velocity": 0.8,
      "bendActive": true,
      "instrument": 0
    },
    {
      "id": "id_nai4i3ybcmnv3kmnt",
      "pitch": 51,
      "pitchName": "D#3",
      "frequencyHz": 155.563492,
      "startTick": 145440,
      "durationTicks": 240,
      "endTick": 145680,
      "startSeconds": 113.625,
      "durationSeconds": 0.188,
      "endSeconds": 113.813,
      "velocity": 0.8,
      "bendActive": true,
      "instrument": 0
    },
    {
      "id": "id_91ka5xbpdmnv3kmnt",
      "pitch": 56,
      "pitchName": "G#3",
      "frequencyHz": 207.652349,
      "startTick": 145440,
      "durationTicks": 240,
      "endTick": 145680,
      "startSeconds": 113.625,
      "durationSeconds": 0.188,
      "endSeconds": 113.813,
      "velocity": 0.8,
      "bendActive": true,
      "instrument": 0
    },
    {
      "id": "id_o5dvw2qzzmnv3kmnt",
      "pitch": 59,
      "pitchName": "B3",
      "frequencyHz": 246.941651,
      "startTick": 145440,
      "durationTicks": 240,
      "endTick": 145680,
      "startSeconds": 113.625,
      "durationSeconds": 0.188,
      "endSeconds": 113.813,
      "velocity": 0.25,
      "bendActive": true,
      "instrument": 1
    },
    {
      "id": "id_8mb95jbt9mnv3kmnt",
      "pitch": 63,
      "pitchName": "D#4",
      "frequencyHz": 311.126984,
      "startTick": 145440,
      "durationTicks": 240,
      "endTick": 145680,
      "startSeconds": 113.625,
      "durationSeconds": 0.188,
      "endSeconds": 113.813,
      "velocity": 0.25,
      "bendActive": true,
      "instrument": 1
    },
    {
      "id": "id_ax3lcok1imnv3kmnt",
      "pitch": 70,
      "pitchName": "A#4",
      "frequencyHz": 466.163762,
      "startTick": 145440,
      "durationTicks": 240,
      "endTick": 145680,
      "startSeconds": 113.625,
      "durationSeconds": 0.188,
      "endSeconds": 113.813,
      "velocity": 0.8,
      "bendActive": true,
      "instrument": 0
    },
    {
      "id": "id_tv0t088iqmnv3kmnt",
      "pitch": 44,
      "pitchName": "G#2",
      "frequencyHz": 103.826174,
      "startTick": 145680,
      "durationTicks": 240,
      "endTick": 145920,
      "startSeconds": 113.813,
      "durationSeconds": 0.188,
      "endSeconds": 114,
      "velocity": 0.8,
      "bendActive": true,
      "instrument": 0
    },
    {
      "id": "id_b7g5sdg58mnv3kmnt",
      "pitch": 51,
      "pitchName": "D#3",
      "frequencyHz": 155.563492,
      "startTick": 145680,
      "durationTicks": 240,
      "endTick": 145920,
      "startSeconds": 113.813,
      "durationSeconds": 0.188,
      "endSeconds": 114,
      "velocity": 0.8,
      "bendActive": true,
      "instrument": 0
    },
    {
      "id": "id_bbg75xxilmnv3kmnt",
      "pitch": 56,
      "pitchName": "G#3",
      "frequencyHz": 207.652349,
      "startTick": 145680,
      "durationTicks": 240,
      "endTick": 145920,
      "startSeconds": 113.813,
      "durationSeconds": 0.188,
      "endSeconds": 114,
      "velocity": 0.8,
      "bendActive": true,
      "instrument": 0
    },
    {
      "id": "id_kxpsd3cj1mnv3kmnt",
      "pitch": 59,
      "pitchName": "B3",
      "frequencyHz": 246.941651,
      "startTick": 145680,
      "durationTicks": 240,
      "endTick": 145920,
      "startSeconds": 113.813,
      "durationSeconds": 0.188,
      "endSeconds": 114,
      "velocity": 0.25,
      "bendActive": true,
      "instrument": 1
    },
    {
      "id": "id_kb0zf7xacmnv3kmnt",
      "pitch": 63,
      "pitchName": "D#4",
      "frequencyHz": 311.126984,
      "startTick": 145680,
      "durationTicks": 240,
      "endTick": 145920,
      "startSeconds": 113.813,
      "durationSeconds": 0.188,
      "endSeconds": 114,
      "velocity": 0.25,
      "bendActive": true,
      "instrument": 1
    },
    {
      "id": "id_buki6r8y3mnv3kmnt",
      "pitch": 70,
      "pitchName": "A#4",
      "frequencyHz": 466.163762,
      "startTick": 145680,
      "durationTicks": 240,
      "endTick": 145920,
      "startSeconds": 113.813,
      "durationSeconds": 0.188,
      "endSeconds": 114,
      "velocity": 0.8,
      "bendActive": true,
      "instrument": 0
    },
    {
      "id": "id_04fz1jasdmnv3kmnt",
      "pitch": 44,
      "pitchName": "G#2",
      "frequencyHz": 103.826174,
      "startTick": 145920,
      "durationTicks": 240,
      "endTick": 146160,
      "startSeconds": 114,
      "durationSeconds": 0.188,
      "endSeconds": 114.188,
      "velocity": 0.8,
      "bendActive": true,
      "instrument": 0
    },
    {
      "id": "id_3e8mlgxbkmnv3kmnt",
      "pitch": 51,
      "pitchName": "D#3",
      "frequencyHz": 155.563492,
      "startTick": 145920,
      "durationTicks": 240,
      "endTick": 146160,
      "startSeconds": 114,
      "durationSeconds": 0.188,
      "endSeconds": 114.188,
      "velocity": 0.8,
      "bendActive": true,
      "instrument": 0
    },
    {
      "id": "id_ta6ed4h4gmnv3kmnt",
      "pitch": 56,
      "pitchName": "G#3",
      "frequencyHz": 207.652349,
      "startTick": 145920,
      "durationTicks": 240,
      "endTick": 146160,
      "startSeconds": 114,
      "durationSeconds": 0.188,
      "endSeconds": 114.188,
      "velocity": 0.8,
      "bendActive": true,
      "instrument": 0
    },
    {
      "id": "id_2ymgph4zsmnv3kmnt",
      "pitch": 59,
      "pitchName": "B3",
      "frequencyHz": 246.941651,
      "startTick": 145920,
      "durationTicks": 240,
      "endTick": 146160,
      "startSeconds": 114,
      "durationSeconds": 0.188,
      "endSeconds": 114.188,
      "velocity": 0.25,
      "bendActive": true,
      "instrument": 1
    },
    {
      "id": "id_cwfthmk35mnv3kmnt",
      "pitch": 63,
      "pitchName": "D#4",
      "frequencyHz": 311.126984,
      "startTick": 145920,
      "durationTicks": 240,
      "endTick": 146160,
      "startSeconds": 114,
      "durationSeconds": 0.188,
      "endSeconds": 114.188,
      "velocity": 0.25,
      "bendActive": true,
      "instrument": 1
    },
    {
      "id": "id_dzx39idsqmnv3kmnt",
      "pitch": 70,
      "pitchName": "A#4",
      "frequencyHz": 466.163762,
      "startTick": 145920,
      "durationTicks": 240,
      "endTick": 146160,
      "startSeconds": 114,
      "durationSeconds": 0.188,
      "endSeconds": 114.188,
      "velocity": 0.8,
      "bendActive": true,
      "instrument": 0
    },
    {
      "id": "id_oog16nds8mnv3kmnt",
      "pitch": 44,
      "pitchName": "G#2",
      "frequencyHz": 103.826174,
      "startTick": 146160,
      "durationTicks": 240,
      "endTick": 146400,
      "startSeconds": 114.188,
      "durationSeconds": 0.188,
      "endSeconds": 114.375,
      "velocity": 0.8,
      "bendActive": true,
      "instrument": 0
    },
    {
      "id": "id_alpk5m58mmnv3kmnt",
      "pitch": 51,
      "pitchName": "D#3",
      "frequencyHz": 155.563492,
      "startTick": 146160,
      "durationTicks": 240,
      "endTick": 146400,
      "startSeconds": 114.188,
      "durationSeconds": 0.188,
      "endSeconds": 114.375,
      "velocity": 0.8,
      "bendActive": true,
      "instrument": 0
    },
    {
      "id": "id_2hqz3hdwkmnv3kmnt",
      "pitch": 56,
      "pitchName": "G#3",
      "frequencyHz": 207.652349,
      "startTick": 146160,
      "durationTicks": 240,
      "endTick": 146400,
      "startSeconds": 114.188,
      "durationSeconds": 0.188,
      "endSeconds": 114.375,
      "velocity": 0.8,
      "bendActive": true,
      "instrument": 0
    },
    {
      "id": "id_d7baq21wpmnv3kmnt",
      "pitch": 59,
      "pitchName": "B3",
      "frequencyHz": 246.941651,
      "startTick": 146160,
      "durationTicks": 240,
      "endTick": 146400,
      "startSeconds": 114.188,
      "durationSeconds": 0.188,
      "endSeconds": 114.375,
      "velocity": 0.25,
      "bendActive": true,
      "instrument": 1
    },
    {
      "id": "id_jg6p4oxfimnv3kmnt",
      "pitch": 63,
      "pitchName": "D#4",
      "frequencyHz": 311.126984,
      "startTick": 146160,
      "durationTicks": 240,
      "endTick": 146400,
      "startSeconds": 114.188,
      "durationSeconds": 0.188,
      "endSeconds": 114.375,
      "velocity": 0.25,
      "bendActive": true,
      "instrument": 1
    },
    {
      "id": "id_193cc25rkmnv3kmnt",
      "pitch": 70,
      "pitchName": "A#4",
      "frequencyHz": 466.163762,
      "startTick": 146160,
      "durationTicks": 240,
      "endTick": 146400,
      "startSeconds": 114.188,
      "durationSeconds": 0.188,
      "endSeconds": 114.375,
      "velocity": 0.8,
      "bendActive": true,
      "instrument": 0
    },
    {
      "id": "id_rbabuf42xmnv3kmnt",
      "pitch": 44,
      "pitchName": "G#2",
      "frequencyHz": 103.826174,
      "startTick": 146400,
      "durationTicks": 240,
      "endTick": 146640,
      "startSeconds": 114.375,
      "durationSeconds": 0.188,
      "endSeconds": 114.563,
      "velocity": 0.8,
      "bendActive": true,
      "instrument": 0
    },
    {
      "id": "id_m4shwxergmnv3kmnt",
      "pitch": 51,
      "pitchName": "D#3",
      "frequencyHz": 155.563492,
      "startTick": 146400,
      "durationTicks": 240,
      "endTick": 146640,
      "startSeconds": 114.375,
      "durationSeconds": 0.188,
      "endSeconds": 114.563,
      "velocity": 0.8,
      "bendActive": true,
      "instrument": 0
    },
    {
      "id": "id_z24r48dssmnv3kmnt",
      "pitch": 56,
      "pitchName": "G#3",
      "frequencyHz": 207.652349,
      "startTick": 146400,
      "durationTicks": 240,
      "endTick": 146640,
      "startSeconds": 114.375,
      "durationSeconds": 0.188,
      "endSeconds": 114.563,
      "velocity": 0.8,
      "bendActive": true,
      "instrument": 0
    },
    {
      "id": "id_d2yltimmcmnv3kmnt",
      "pitch": 59,
      "pitchName": "B3",
      "frequencyHz": 246.941651,
      "startTick": 146400,
      "durationTicks": 240,
      "endTick": 146640,
      "startSeconds": 114.375,
      "durationSeconds": 0.188,
      "endSeconds": 114.563,
      "velocity": 0.25,
      "bendActive": true,
      "instrument": 1
    },
    {
      "id": "id_cb5wln4qomnv3kmnt",
      "pitch": 63,
      "pitchName": "D#4",
      "frequencyHz": 311.126984,
      "startTick": 146400,
      "durationTicks": 240,
      "endTick": 146640,
      "startSeconds": 114.375,
      "durationSeconds": 0.188,
      "endSeconds": 114.563,
      "velocity": 0.25,
      "bendActive": true,
      "instrument": 1
    },
    {
      "id": "id_wngv0599xmnv3kmnt",
      "pitch": 70,
      "pitchName": "A#4",
      "frequencyHz": 466.163762,
      "startTick": 146400,
      "durationTicks": 240,
      "endTick": 146640,
      "startSeconds": 114.375,
      "durationSeconds": 0.188,
      "endSeconds": 114.563,
      "velocity": 0.8,
      "bendActive": true,
      "instrument": 0
    },
    {
      "id": "id_xnz597xdpmnv3kmnt",
      "pitch": 44,
      "pitchName": "G#2",
      "frequencyHz": 103.826174,
      "startTick": 146880,
      "durationTicks": 240,
      "endTick": 147120,
      "startSeconds": 114.75,
      "durationSeconds": 0.188,
      "endSeconds": 114.938,
      "velocity": 0.8,
      "bendActive": true,
      "instrument": 0
    },
    {
      "id": "id_b569unlwkmnv3kmnt",
      "pitch": 51,
      "pitchName": "D#3",
      "frequencyHz": 155.563492,
      "startTick": 146880,
      "durationTicks": 240,
      "endTick": 147120,
      "startSeconds": 114.75,
      "durationSeconds": 0.188,
      "endSeconds": 114.938,
      "velocity": 0.8,
      "bendActive": true,
      "instrument": 0
    },
    {
      "id": "id_cwbkwqsk9mnv3kmnt",
      "pitch": 56,
      "pitchName": "G#3",
      "frequencyHz": 207.652349,
      "startTick": 146880,
      "durationTicks": 240,
      "endTick": 147120,
      "startSeconds": 114.75,
      "durationSeconds": 0.188,
      "endSeconds": 114.938,
      "velocity": 0.8,
      "bendActive": true,
      "instrument": 0
    },
    {
      "id": "id_fr5iea5e8mnv3kmnt",
      "pitch": 59,
      "pitchName": "B3",
      "frequencyHz": 246.941651,
      "startTick": 146880,
      "durationTicks": 240,
      "endTick": 147120,
      "startSeconds": 114.75,
      "durationSeconds": 0.188,
      "endSeconds": 114.938,
      "velocity": 0.25,
      "bendActive": true,
      "instrument": 1
    },
    {
      "id": "id_plmx982o8mnv3kmnt",
      "pitch": 63,
      "pitchName": "D#4",
      "frequencyHz": 311.126984,
      "startTick": 146880,
      "durationTicks": 240,
      "endTick": 147120,
      "startSeconds": 114.75,
      "durationSeconds": 0.188,
      "endSeconds": 114.938,
      "velocity": 0.25,
      "bendActive": true,
      "instrument": 1
    },
    {
      "id": "id_c4wpi5634mnv3kmnt",
      "pitch": 71,
      "pitchName": "B4",
      "frequencyHz": 493.883301,
      "startTick": 146880,
      "durationTicks": 240,
      "endTick": 147120,
      "startSeconds": 114.75,
      "durationSeconds": 0.188,
      "endSeconds": 114.938,
      "velocity": 0.8,
      "bendActive": true,
      "instrument": 0
    },
    {
      "id": "id_tqj65yfxvmnv3kmnt",
      "pitch": 44,
      "pitchName": "G#2",
      "frequencyHz": 103.826174,
      "startTick": 147120,
      "durationTicks": 240,
      "endTick": 147360,
      "startSeconds": 114.938,
      "durationSeconds": 0.188,
      "endSeconds": 115.125,
      "velocity": 0.8,
      "bendActive": true,
      "instrument": 0
    },
    {
      "id": "id_ebm52zm1amnv3kmnt",
      "pitch": 51,
      "pitchName": "D#3",
      "frequencyHz": 155.563492,
      "startTick": 147120,
      "durationTicks": 240,
      "endTick": 147360,
      "startSeconds": 114.938,
      "durationSeconds": 0.188,
      "endSeconds": 115.125,
      "velocity": 0.8,
      "bendActive": true,
      "instrument": 0
    },
    {
      "id": "id_a5fxf09p1mnv3kmnt",
      "pitch": 56,
      "pitchName": "G#3",
      "frequencyHz": 207.652349,
      "startTick": 147120,
      "durationTicks": 240,
      "endTick": 147360,
      "startSeconds": 114.938,
      "durationSeconds": 0.188,
      "endSeconds": 115.125,
      "velocity": 0.8,
      "bendActive": true,
      "instrument": 0
    },
    {
      "id": "id_h928xy55gmnv3kmnt",
      "pitch": 59,
      "pitchName": "B3",
      "frequencyHz": 246.941651,
      "startTick": 147120,
      "durationTicks": 240,
      "endTick": 147360,
      "startSeconds": 114.938,
      "durationSeconds": 0.188,
      "endSeconds": 115.125,
      "velocity": 0.25,
      "bendActive": true,
      "instrument": 1
    },
    {
      "id": "id_byii1qgwfmnv3kmnt",
      "pitch": 63,
      "pitchName": "D#4",
      "frequencyHz": 311.126984,
      "startTick": 147120,
      "durationTicks": 240,
      "endTick": 147360,
      "startSeconds": 114.938,
      "durationSeconds": 0.188,
      "endSeconds": 115.125,
      "velocity": 0.25,
      "bendActive": true,
      "instrument": 1
    },
    {
      "id": "id_z56we20ivmnv3kmnt",
      "pitch": 71,
      "pitchName": "B4",
      "frequencyHz": 493.883301,
      "startTick": 147120,
      "durationTicks": 240,
      "endTick": 147360,
      "startSeconds": 114.938,
      "durationSeconds": 0.188,
      "endSeconds": 115.125,
      "velocity": 0.8,
      "bendActive": true,
      "instrument": 0
    },
    {
      "id": "id_beg6my1kvmnv3kmnt",
      "pitch": 44,
      "pitchName": "G#2",
      "frequencyHz": 103.826174,
      "startTick": 147360,
      "durationTicks": 240,
      "endTick": 147600,
      "startSeconds": 115.125,
      "durationSeconds": 0.188,
      "endSeconds": 115.313,
      "velocity": 0.8,
      "bendActive": true,
      "instrument": 0
    },
    {
      "id": "id_1wi8hrvywmnv3kmnt",
      "pitch": 51,
      "pitchName": "D#3",
      "frequencyHz": 155.563492,
      "startTick": 147360,
      "durationTicks": 240,
      "endTick": 147600,
      "startSeconds": 115.125,
      "durationSeconds": 0.188,
      "endSeconds": 115.313,
      "velocity": 0.8,
      "bendActive": true,
      "instrument": 0
    },
    {
      "id": "id_dp8kno8dhmnv3kmnt",
      "pitch": 56,
      "pitchName": "G#3",
      "frequencyHz": 207.652349,
      "startTick": 147360,
      "durationTicks": 240,
      "endTick": 147600,
      "startSeconds": 115.125,
      "durationSeconds": 0.188,
      "endSeconds": 115.313,
      "velocity": 0.8,
      "bendActive": true,
      "instrument": 0
    },
    {
      "id": "id_gzgc77aromnv3kmnt",
      "pitch": 59,
      "pitchName": "B3",
      "frequencyHz": 246.941651,
      "startTick": 147360,
      "durationTicks": 240,
      "endTick": 147600,
      "startSeconds": 115.125,
      "durationSeconds": 0.188,
      "endSeconds": 115.313,
      "velocity": 0.25,
      "bendActive": true,
      "instrument": 1
    },
    {
      "id": "id_e4dl26ccsmnv3kmnt",
      "pitch": 63,
      "pitchName": "D#4",
      "frequencyHz": 311.126984,
      "startTick": 147360,
      "durationTicks": 240,
      "endTick": 147600,
      "startSeconds": 115.125,
      "durationSeconds": 0.188,
      "endSeconds": 115.313,
      "velocity": 0.25,
      "bendActive": true,
      "instrument": 1
    },
    {
      "id": "id_s0b3cf0tmmnv3kmnt",
      "pitch": 71,
      "pitchName": "B4",
      "frequencyHz": 493.883301,
      "startTick": 147360,
      "durationTicks": 240,
      "endTick": 147600,
      "startSeconds": 115.125,
      "durationSeconds": 0.188,
      "endSeconds": 115.313,
      "velocity": 0.8,
      "bendActive": true,
      "instrument": 0
    },
    {
      "id": "id_pv7ea2krmmnv3kmnt",
      "pitch": 44,
      "pitchName": "G#2",
      "frequencyHz": 103.826174,
      "startTick": 147600,
      "durationTicks": 240,
      "endTick": 147840,
      "startSeconds": 115.313,
      "durationSeconds": 0.188,
      "endSeconds": 115.5,
      "velocity": 0.8,
      "bendActive": true,
      "instrument": 0
    },
    {
      "id": "id_8fawdibgdmnv3kmnt",
      "pitch": 51,
      "pitchName": "D#3",
      "frequencyHz": 155.563492,
      "startTick": 147600,
      "durationTicks": 240,
      "endTick": 147840,
      "startSeconds": 115.313,
      "durationSeconds": 0.188,
      "endSeconds": 115.5,
      "velocity": 0.8,
      "bendActive": true,
      "instrument": 0
    },
    {
      "id": "id_8c91fgk5bmnv3kmnt",
      "pitch": 56,
      "pitchName": "G#3",
      "frequencyHz": 207.652349,
      "startTick": 147600,
      "durationTicks": 240,
      "endTick": 147840,
      "startSeconds": 115.313,
      "durationSeconds": 0.188,
      "endSeconds": 115.5,
      "velocity": 0.8,
      "bendActive": true,
      "instrument": 0
    },
    {
      "id": "id_krrbespsfmnv3kmnt",
      "pitch": 59,
      "pitchName": "B3",
      "frequencyHz": 246.941651,
      "startTick": 147600,
      "durationTicks": 240,
      "endTick": 147840,
      "startSeconds": 115.313,
      "durationSeconds": 0.188,
      "endSeconds": 115.5,
      "velocity": 0.25,
      "bendActive": true,
      "instrument": 1
    },
    {
      "id": "id_w9woib0ydmnv3kmnt",
      "pitch": 63,
      "pitchName": "D#4",
      "frequencyHz": 311.126984,
      "startTick": 147600,
      "durationTicks": 240,
      "endTick": 147840,
      "startSeconds": 115.313,
      "durationSeconds": 0.188,
      "endSeconds": 115.5,
      "velocity": 0.25,
      "bendActive": true,
      "instrument": 1
    },
    {
      "id": "id_usgh3hdbsmnv3kmnt",
      "pitch": 71,
      "pitchName": "B4",
      "frequencyHz": 493.883301,
      "startTick": 147600,
      "durationTicks": 240,
      "endTick": 147840,
      "startSeconds": 115.313,
      "durationSeconds": 0.188,
      "endSeconds": 115.5,
      "velocity": 0.8,
      "bendActive": true,
      "instrument": 0
    },
    {
      "id": "id_ttjbzsby5mnv3kmnt",
      "pitch": 44,
      "pitchName": "G#2",
      "frequencyHz": 103.826174,
      "startTick": 147840,
      "durationTicks": 360,
      "endTick": 148200,
      "startSeconds": 115.5,
      "durationSeconds": 0.281,
      "endSeconds": 115.781,
      "velocity": 0.8,
      "bendActive": true,
      "instrument": 0
    },
    {
      "id": "id_h9dp6vctemnv3kmnt",
      "pitch": 51,
      "pitchName": "D#3",
      "frequencyHz": 155.563492,
      "startTick": 147840,
      "durationTicks": 360,
      "endTick": 148200,
      "startSeconds": 115.5,
      "durationSeconds": 0.281,
      "endSeconds": 115.781,
      "velocity": 0.8,
      "bendActive": true,
      "instrument": 0
    },
    {
      "id": "id_vrciesadhmnv3kmnt",
      "pitch": 56,
      "pitchName": "G#3",
      "frequencyHz": 207.652349,
      "startTick": 147840,
      "durationTicks": 360,
      "endTick": 148200,
      "startSeconds": 115.5,
      "durationSeconds": 0.281,
      "endSeconds": 115.781,
      "velocity": 0.8,
      "bendActive": true,
      "instrument": 0
    },
    {
      "id": "id_z1vg16jifmnv3kmnt",
      "pitch": 59,
      "pitchName": "B3",
      "frequencyHz": 246.941651,
      "startTick": 147840,
      "durationTicks": 360,
      "endTick": 148200,
      "startSeconds": 115.5,
      "durationSeconds": 0.281,
      "endSeconds": 115.781,
      "velocity": 0.25,
      "bendActive": true,
      "instrument": 1
    },
    {
      "id": "id_xjp4yikgzmnv3kmnt",
      "pitch": 63,
      "pitchName": "D#4",
      "frequencyHz": 311.126984,
      "startTick": 147840,
      "durationTicks": 360,
      "endTick": 148200,
      "startSeconds": 115.5,
      "durationSeconds": 0.281,
      "endSeconds": 115.781,
      "velocity": 0.25,
      "bendActive": true,
      "instrument": 1
    },
    {
      "id": "id_hwm8kmsw8mnv3kmnt",
      "pitch": 71,
      "pitchName": "B4",
      "frequencyHz": 493.883301,
      "startTick": 147840,
      "durationTicks": 360,
      "endTick": 148200,
      "startSeconds": 115.5,
      "durationSeconds": 0.281,
      "endSeconds": 115.781,
      "velocity": 0.8,
      "bendActive": true,
      "instrument": 0
    },
    {
      "id": "id_knneev00zmnv3kmnt",
      "pitch": 44,
      "pitchName": "G#2",
      "frequencyHz": 103.826174,
      "startTick": 148320,
      "durationTicks": 240,
      "endTick": 148560,
      "startSeconds": 115.875,
      "durationSeconds": 0.188,
      "endSeconds": 116.063,
      "velocity": 0.8,
      "bendActive": true,
      "instrument": 0
    },
    {
      "id": "id_3pnkz2tx8mnv3kmnt",
      "pitch": 51,
      "pitchName": "D#3",
      "frequencyHz": 155.563492,
      "startTick": 148320,
      "durationTicks": 240,
      "endTick": 148560,
      "startSeconds": 115.875,
      "durationSeconds": 0.188,
      "endSeconds": 116.063,
      "velocity": 0.8,
      "bendActive": true,
      "instrument": 0
    },
    {
      "id": "id_pe08uaqeumnv3kmnt",
      "pitch": 56,
      "pitchName": "G#3",
      "frequencyHz": 207.652349,
      "startTick": 148320,
      "durationTicks": 240,
      "endTick": 148560,
      "startSeconds": 115.875,
      "durationSeconds": 0.188,
      "endSeconds": 116.063,
      "velocity": 0.8,
      "bendActive": true,
      "instrument": 0
    },
    {
      "id": "id_6w6a2x4k0mnv3kmnt",
      "pitch": 60,
      "pitchName": "C4",
      "frequencyHz": 261.625565,
      "startTick": 148320,
      "durationTicks": 240,
      "endTick": 148560,
      "startSeconds": 115.875,
      "durationSeconds": 0.188,
      "endSeconds": 116.063,
      "velocity": 0.25,
      "bendActive": true,
      "instrument": 1
    },
    {
      "id": "id_wmxt4k9vsmnv3kmnt",
      "pitch": 63,
      "pitchName": "D#4",
      "frequencyHz": 311.126984,
      "startTick": 148320,
      "durationTicks": 240,
      "endTick": 148560,
      "startSeconds": 115.875,
      "durationSeconds": 0.188,
      "endSeconds": 116.063,
      "velocity": 0.25,
      "bendActive": true,
      "instrument": 1
    },
    {
      "id": "id_fiknbs65ymnv3kmnt",
      "pitch": 72,
      "pitchName": "C5",
      "frequencyHz": 523.251131,
      "startTick": 148320,
      "durationTicks": 240,
      "endTick": 148560,
      "startSeconds": 115.875,
      "durationSeconds": 0.188,
      "endSeconds": 116.063,
      "velocity": 0.8,
      "bendActive": true,
      "instrument": 0
    },
    {
      "id": "id_cct5usgmkmnv3kmnt",
      "pitch": 44,
      "pitchName": "G#2",
      "frequencyHz": 103.826174,
      "startTick": 148560,
      "durationTicks": 240,
      "endTick": 148800,
      "startSeconds": 116.063,
      "durationSeconds": 0.188,
      "endSeconds": 116.25,
      "velocity": 0.8,
      "bendActive": true,
      "instrument": 0
    },
    {
      "id": "id_vwbibnp78mnv3kmnt",
      "pitch": 51,
      "pitchName": "D#3",
      "frequencyHz": 155.563492,
      "startTick": 148560,
      "durationTicks": 240,
      "endTick": 148800,
      "startSeconds": 116.063,
      "durationSeconds": 0.188,
      "endSeconds": 116.25,
      "velocity": 0.8,
      "bendActive": true,
      "instrument": 0
    },
    {
      "id": "id_m9dudummdmnv3kmnt",
      "pitch": 56,
      "pitchName": "G#3",
      "frequencyHz": 207.652349,
      "startTick": 148560,
      "durationTicks": 240,
      "endTick": 148800,
      "startSeconds": 116.063,
      "durationSeconds": 0.188,
      "endSeconds": 116.25,
      "velocity": 0.8,
      "bendActive": true,
      "instrument": 0
    },
    {
      "id": "id_y46wvzjzxmnv3kmnt",
      "pitch": 60,
      "pitchName": "C4",
      "frequencyHz": 261.625565,
      "startTick": 148560,
      "durationTicks": 240,
      "endTick": 148800,
      "startSeconds": 116.063,
      "durationSeconds": 0.188,
      "endSeconds": 116.25,
      "velocity": 0.25,
      "bendActive": true,
      "instrument": 1
    },
    {
      "id": "id_wkahoqii1mnv3kmnt",
      "pitch": 63,
      "pitchName": "D#4",
      "frequencyHz": 311.126984,
      "startTick": 148560,
      "durationTicks": 240,
      "endTick": 148800,
      "startSeconds": 116.063,
      "durationSeconds": 0.188,
      "endSeconds": 116.25,
      "velocity": 0.25,
      "bendActive": true,
      "instrument": 1
    },
    {
      "id": "id_1iu15c9h0mnv3kmnt",
      "pitch": 72,
      "pitchName": "C5",
      "frequencyHz": 523.251131,
      "startTick": 148560,
      "durationTicks": 240,
      "endTick": 148800,
      "startSeconds": 116.063,
      "durationSeconds": 0.188,
      "endSeconds": 116.25,
      "velocity": 0.8,
      "bendActive": true,
      "instrument": 0
    },
    {
      "id": "id_yypsxz2xtmnv3kmnt",
      "pitch": 44,
      "pitchName": "G#2",
      "frequencyHz": 103.826174,
      "startTick": 148800,
      "durationTicks": 240,
      "endTick": 149040,
      "startSeconds": 116.25,
      "durationSeconds": 0.188,
      "endSeconds": 116.438,
      "velocity": 0.8,
      "bendActive": true,
      "instrument": 0
    },
    {
      "id": "id_n87y662lymnv3kmnt",
      "pitch": 51,
      "pitchName": "D#3",
      "frequencyHz": 155.563492,
      "startTick": 148800,
      "durationTicks": 240,
      "endTick": 149040,
      "startSeconds": 116.25,
      "durationSeconds": 0.188,
      "endSeconds": 116.438,
      "velocity": 0.8,
      "bendActive": true,
      "instrument": 0
    },
    {
      "id": "id_1aceznbw5mnv3kmnt",
      "pitch": 56,
      "pitchName": "G#3",
      "frequencyHz": 207.652349,
      "startTick": 148800,
      "durationTicks": 240,
      "endTick": 149040,
      "startSeconds": 116.25,
      "durationSeconds": 0.188,
      "endSeconds": 116.438,
      "velocity": 0.8,
      "bendActive": true,
      "instrument": 0
    },
    {
      "id": "id_5mugx4d0wmnv3kmnt",
      "pitch": 60,
      "pitchName": "C4",
      "frequencyHz": 261.625565,
      "startTick": 148800,
      "durationTicks": 240,
      "endTick": 149040,
      "startSeconds": 116.25,
      "durationSeconds": 0.188,
      "endSeconds": 116.438,
      "velocity": 0.25,
      "bendActive": true,
      "instrument": 1
    },
    {
      "id": "id_z13l7qqq2mnv3kmnt",
      "pitch": 63,
      "pitchName": "D#4",
      "frequencyHz": 311.126984,
      "startTick": 148800,
      "durationTicks": 240,
      "endTick": 149040,
      "startSeconds": 116.25,
      "durationSeconds": 0.188,
      "endSeconds": 116.438,
      "velocity": 0.25,
      "bendActive": true,
      "instrument": 1
    },
    {
      "id": "id_5hxigalk1mnv3kmnt",
      "pitch": 72,
      "pitchName": "C5",
      "frequencyHz": 523.251131,
      "startTick": 148800,
      "durationTicks": 240,
      "endTick": 149040,
      "startSeconds": 116.25,
      "durationSeconds": 0.188,
      "endSeconds": 116.438,
      "velocity": 0.8,
      "bendActive": true,
      "instrument": 0
    },
    {
      "id": "id_ny3cuj3txmnv3kmnt",
      "pitch": 44,
      "pitchName": "G#2",
      "frequencyHz": 103.826174,
      "startTick": 149040,
      "durationTicks": 240,
      "endTick": 149280,
      "startSeconds": 116.438,
      "durationSeconds": 0.188,
      "endSeconds": 116.625,
      "velocity": 0.8,
      "bendActive": true,
      "instrument": 0
    },
    {
      "id": "id_1a3w1zkrjmnv3kmnt",
      "pitch": 51,
      "pitchName": "D#3",
      "frequencyHz": 155.563492,
      "startTick": 149040,
      "durationTicks": 240,
      "endTick": 149280,
      "startSeconds": 116.438,
      "durationSeconds": 0.188,
      "endSeconds": 116.625,
      "velocity": 0.8,
      "bendActive": true,
      "instrument": 0
    },
    {
      "id": "id_dm6pbksgzmnv3kmnt",
      "pitch": 56,
      "pitchName": "G#3",
      "frequencyHz": 207.652349,
      "startTick": 149040,
      "durationTicks": 240,
      "endTick": 149280,
      "startSeconds": 116.438,
      "durationSeconds": 0.188,
      "endSeconds": 116.625,
      "velocity": 0.8,
      "bendActive": true,
      "instrument": 0
    },
    {
      "id": "id_1vyhw3b4qmnv3kmnt",
      "pitch": 60,
      "pitchName": "C4",
      "frequencyHz": 261.625565,
      "startTick": 149040,
      "durationTicks": 240,
      "endTick": 149280,
      "startSeconds": 116.438,
      "durationSeconds": 0.188,
      "endSeconds": 116.625,
      "velocity": 0.25,
      "bendActive": true,
      "instrument": 1
    },
    {
      "id": "id_1ic8cpzzumnv3kmnt",
      "pitch": 63,
      "pitchName": "D#4",
      "frequencyHz": 311.126984,
      "startTick": 149040,
      "durationTicks": 240,
      "endTick": 149280,
      "startSeconds": 116.438,
      "durationSeconds": 0.188,
      "endSeconds": 116.625,
      "velocity": 0.25,
      "bendActive": true,
      "instrument": 1
    },
    {
      "id": "id_6qkrkk8psmnv3kmnt",
      "pitch": 72,
      "pitchName": "C5",
      "frequencyHz": 523.251131,
      "startTick": 149040,
      "durationTicks": 240,
      "endTick": 149280,
      "startSeconds": 116.438,
      "durationSeconds": 0.188,
      "endSeconds": 116.625,
      "velocity": 0.8,
      "bendActive": true,
      "instrument": 0
    },
    {
      "id": "id_pccab3pz2mnv3kmnt",
      "pitch": 44,
      "pitchName": "G#2",
      "frequencyHz": 103.826174,
      "startTick": 149280,
      "durationTicks": 240,
      "endTick": 149520,
      "startSeconds": 116.625,
      "durationSeconds": 0.188,
      "endSeconds": 116.813,
      "velocity": 0.8,
      "bendActive": true,
      "instrument": 0
    },
    {
      "id": "id_46wmwo4eqmnv3kmnt",
      "pitch": 51,
      "pitchName": "D#3",
      "frequencyHz": 155.563492,
      "startTick": 149280,
      "durationTicks": 240,
      "endTick": 149520,
      "startSeconds": 116.625,
      "durationSeconds": 0.188,
      "endSeconds": 116.813,
      "velocity": 0.8,
      "bendActive": true,
      "instrument": 0
    },
    {
      "id": "id_bdmwn97ymmnv3kmnt",
      "pitch": 56,
      "pitchName": "G#3",
      "frequencyHz": 207.652349,
      "startTick": 149280,
      "durationTicks": 240,
      "endTick": 149520,
      "startSeconds": 116.625,
      "durationSeconds": 0.188,
      "endSeconds": 116.813,
      "velocity": 0.8,
      "bendActive": true,
      "instrument": 0
    },
    {
      "id": "id_j0nl0pm9amnv3kmnt",
      "pitch": 60,
      "pitchName": "C4",
      "frequencyHz": 261.625565,
      "startTick": 149280,
      "durationTicks": 240,
      "endTick": 149520,
      "startSeconds": 116.625,
      "durationSeconds": 0.188,
      "endSeconds": 116.813,
      "velocity": 0.25,
      "bendActive": true,
      "instrument": 1
    },
    {
      "id": "id_suzjs9kptmnv3kmnt",
      "pitch": 63,
      "pitchName": "D#4",
      "frequencyHz": 311.126984,
      "startTick": 149280,
      "durationTicks": 240,
      "endTick": 149520,
      "startSeconds": 116.625,
      "durationSeconds": 0.188,
      "endSeconds": 116.813,
      "velocity": 0.25,
      "bendActive": true,
      "instrument": 1
    },
    {
      "id": "id_wfyu4kc9wmnv3kmnt",
      "pitch": 72,
      "pitchName": "C5",
      "frequencyHz": 523.251131,
      "startTick": 149280,
      "durationTicks": 240,
      "endTick": 149520,
      "startSeconds": 116.625,
      "durationSeconds": 0.188,
      "endSeconds": 116.813,
      "velocity": 0.8,
      "bendActive": true,
      "instrument": 0
    },
    {
      "id": "id_84h8r04rhmnv3kmnt",
      "pitch": 44,
      "pitchName": "G#2",
      "frequencyHz": 103.826174,
      "startTick": 149520,
      "durationTicks": 120,
      "endTick": 149640,
      "startSeconds": 116.813,
      "durationSeconds": 0.094,
      "endSeconds": 116.906,
      "velocity": 0.8,
      "bendActive": true,
      "instrument": 0
    },
    {
      "id": "id_efdwervmjmnv3kmnt",
      "pitch": 51,
      "pitchName": "D#3",
      "frequencyHz": 155.563492,
      "startTick": 149520,
      "durationTicks": 120,
      "endTick": 149640,
      "startSeconds": 116.813,
      "durationSeconds": 0.094,
      "endSeconds": 116.906,
      "velocity": 0.8,
      "bendActive": true,
      "instrument": 0
    },
    {
      "id": "id_wjby1ffximnv3kmnt",
      "pitch": 56,
      "pitchName": "G#3",
      "frequencyHz": 207.652349,
      "startTick": 149520,
      "durationTicks": 120,
      "endTick": 149640,
      "startSeconds": 116.813,
      "durationSeconds": 0.094,
      "endSeconds": 116.906,
      "velocity": 0.8,
      "bendActive": true,
      "instrument": 0
    },
    {
      "id": "id_jv0ybcyfkmnv3kmnt",
      "pitch": 60,
      "pitchName": "C4",
      "frequencyHz": 261.625565,
      "startTick": 149520,
      "durationTicks": 120,
      "endTick": 149640,
      "startSeconds": 116.813,
      "durationSeconds": 0.094,
      "endSeconds": 116.906,
      "velocity": 0.25,
      "bendActive": true,
      "instrument": 1
    },
    {
      "id": "id_eylefkcd7mnv3kmnt",
      "pitch": 63,
      "pitchName": "D#4",
      "frequencyHz": 311.126984,
      "startTick": 149520,
      "durationTicks": 120,
      "endTick": 149640,
      "startSeconds": 116.813,
      "durationSeconds": 0.094,
      "endSeconds": 116.906,
      "velocity": 0.25,
      "bendActive": true,
      "instrument": 1
    },
    {
      "id": "id_yetgsarzmnv3kmnt",
      "pitch": 72,
      "pitchName": "C5",
      "frequencyHz": 523.251131,
      "startTick": 149520,
      "durationTicks": 120,
      "endTick": 149640,
      "startSeconds": 116.813,
      "durationSeconds": 0.094,
      "endSeconds": 116.906,
      "velocity": 0.8,
      "bendActive": true,
      "instrument": 0
    },
    {
      "id": "id_h4gtann7wmnv3kmnt",
      "pitch": 40,
      "pitchName": "E2",
      "frequencyHz": 82.406889,
      "startTick": 149760,
      "durationTicks": 240,
      "endTick": 150000,
      "startSeconds": 117,
      "durationSeconds": 0.188,
      "endSeconds": 117.188,
      "velocity": 0.8,
      "bendActive": true,
      "instrument": 0
    },
    {
      "id": "id_hnsccbvzymnv3kmnt",
      "pitch": 56,
      "pitchName": "G#3",
      "frequencyHz": 207.652349,
      "startTick": 149760,
      "durationTicks": 240,
      "endTick": 150000,
      "startSeconds": 117,
      "durationSeconds": 0.188,
      "endSeconds": 117.188,
      "velocity": 0.8,
      "bendActive": true,
      "instrument": 0
    },
    {
      "id": "id_82r8rf8bumnv3kmnt",
      "pitch": 59,
      "pitchName": "B3",
      "frequencyHz": 246.941651,
      "startTick": 149760,
      "durationTicks": 240,
      "endTick": 150000,
      "startSeconds": 117,
      "durationSeconds": 0.188,
      "endSeconds": 117.188,
      "velocity": 0.25,
      "bendActive": true,
      "instrument": 1
    },
    {
      "id": "id_gtffbwqahmnv3kmnt",
      "pitch": 64,
      "pitchName": "E4",
      "frequencyHz": 329.627557,
      "startTick": 149760,
      "durationTicks": 240,
      "endTick": 150000,
      "startSeconds": 117,
      "durationSeconds": 0.188,
      "endSeconds": 117.188,
      "velocity": 0.8,
      "bendActive": true,
      "instrument": 0
    },
    {
      "id": "id_977tcvqkwmnv3kmnt",
      "pitch": 68,
      "pitchName": "G#4",
      "frequencyHz": 415.304698,
      "startTick": 149760,
      "durationTicks": 240,
      "endTick": 150000,
      "startSeconds": 117,
      "durationSeconds": 0.188,
      "endSeconds": 117.188,
      "velocity": 0.25,
      "bendActive": true,
      "instrument": 1
    },
    {
      "id": "id_g6tyaz0slmnv3kmnt",
      "pitch": 75,
      "pitchName": "D#5",
      "frequencyHz": 622.253967,
      "startTick": 149760,
      "durationTicks": 240,
      "endTick": 150000,
      "startSeconds": 117,
      "durationSeconds": 0.188,
      "endSeconds": 117.188,
      "velocity": 0.8,
      "bendActive": true,
      "instrument": 0
    },
    {
      "id": "id_4ykj141i6mnv3kmnt",
      "pitch": 40,
      "pitchName": "E2",
      "frequencyHz": 82.406889,
      "startTick": 150000,
      "durationTicks": 240,
      "endTick": 150240,
      "startSeconds": 117.188,
      "durationSeconds": 0.188,
      "endSeconds": 117.375,
      "velocity": 0.8,
      "bendActive": true,
      "instrument": 0
    },
    {
      "id": "id_s6ql1h0abmnv3kmnt",
      "pitch": 56,
      "pitchName": "G#3",
      "frequencyHz": 207.652349,
      "startTick": 150000,
      "durationTicks": 240,
      "endTick": 150240,
      "startSeconds": 117.188,
      "durationSeconds": 0.188,
      "endSeconds": 117.375,
      "velocity": 0.8,
      "bendActive": true,
      "instrument": 0
    },
    {
      "id": "id_n4197km28mnv3kmnt",
      "pitch": 59,
      "pitchName": "B3",
      "frequencyHz": 246.941651,
      "startTick": 150000,
      "durationTicks": 240,
      "endTick": 150240,
      "startSeconds": 117.188,
      "durationSeconds": 0.188,
      "endSeconds": 117.375,
      "velocity": 0.25,
      "bendActive": true,
      "instrument": 1
    },
    {
      "id": "id_2x5hnr3opmnv3kmnt",
      "pitch": 64,
      "pitchName": "E4",
      "frequencyHz": 329.627557,
      "startTick": 150000,
      "durationTicks": 240,
      "endTick": 150240,
      "startSeconds": 117.188,
      "durationSeconds": 0.188,
      "endSeconds": 117.375,
      "velocity": 0.8,
      "bendActive": true,
      "instrument": 0
    },
    {
      "id": "id_uwbglpu6emnv3kmnt",
      "pitch": 68,
      "pitchName": "G#4",
      "frequencyHz": 415.304698,
      "startTick": 150000,
      "durationTicks": 240,
      "endTick": 150240,
      "startSeconds": 117.188,
      "durationSeconds": 0.188,
      "endSeconds": 117.375,
      "velocity": 0.25,
      "bendActive": true,
      "instrument": 1
    },
    {
      "id": "id_whxdc9iq0mnv3kmnt",
      "pitch": 75,
      "pitchName": "D#5",
      "frequencyHz": 622.253967,
      "startTick": 150000,
      "durationTicks": 240,
      "endTick": 150240,
      "startSeconds": 117.188,
      "durationSeconds": 0.188,
      "endSeconds": 117.375,
      "velocity": 0.8,
      "bendActive": true,
      "instrument": 0
    },
    {
      "id": "id_hb631hsoxmnv3kmnt",
      "pitch": 40,
      "pitchName": "E2",
      "frequencyHz": 82.406889,
      "startTick": 150240,
      "durationTicks": 240,
      "endTick": 150480,
      "startSeconds": 117.375,
      "durationSeconds": 0.188,
      "endSeconds": 117.563,
      "velocity": 0.8,
      "bendActive": true,
      "instrument": 0
    },
    {
      "id": "id_b252fkr2lmnv3kmnt",
      "pitch": 56,
      "pitchName": "G#3",
      "frequencyHz": 207.652349,
      "startTick": 150240,
      "durationTicks": 240,
      "endTick": 150480,
      "startSeconds": 117.375,
      "durationSeconds": 0.188,
      "endSeconds": 117.563,
      "velocity": 0.8,
      "bendActive": true,
      "instrument": 0
    },
    {
      "id": "id_xhtukljo6mnv3kmnt",
      "pitch": 59,
      "pitchName": "B3",
      "frequencyHz": 246.941651,
      "startTick": 150240,
      "durationTicks": 240,
      "endTick": 150480,
      "startSeconds": 117.375,
      "durationSeconds": 0.188,
      "endSeconds": 117.563,
      "velocity": 0.25,
      "bendActive": true,
      "instrument": 1
    },
    {
      "id": "id_gka85ro2wmnv3kmnt",
      "pitch": 64,
      "pitchName": "E4",
      "frequencyHz": 329.627557,
      "startTick": 150240,
      "durationTicks": 240,
      "endTick": 150480,
      "startSeconds": 117.375,
      "durationSeconds": 0.188,
      "endSeconds": 117.563,
      "velocity": 0.8,
      "bendActive": true,
      "instrument": 0
    },
    {
      "id": "id_zp4n79anwmnv3kmnt",
      "pitch": 68,
      "pitchName": "G#4",
      "frequencyHz": 415.304698,
      "startTick": 150240,
      "durationTicks": 240,
      "endTick": 150480,
      "startSeconds": 117.375,
      "durationSeconds": 0.188,
      "endSeconds": 117.563,
      "velocity": 0.25,
      "bendActive": true,
      "instrument": 1
    },
    {
      "id": "id_d81av5exumnv3kmnt",
      "pitch": 75,
      "pitchName": "D#5",
      "frequencyHz": 622.253967,
      "startTick": 150240,
      "durationTicks": 240,
      "endTick": 150480,
      "startSeconds": 117.375,
      "durationSeconds": 0.188,
      "endSeconds": 117.563,
      "velocity": 0.8,
      "bendActive": true,
      "instrument": 0
    },
    {
      "id": "id_gil6b1karmnv3kmnt",
      "pitch": 40,
      "pitchName": "E2",
      "frequencyHz": 82.406889,
      "startTick": 150480,
      "durationTicks": 240,
      "endTick": 150720,
      "startSeconds": 117.563,
      "durationSeconds": 0.188,
      "endSeconds": 117.75,
      "velocity": 0.8,
      "bendActive": true,
      "instrument": 0
    },
    {
      "id": "id_g4hgsfu2jmnv3kmnt",
      "pitch": 56,
      "pitchName": "G#3",
      "frequencyHz": 207.652349,
      "startTick": 150480,
      "durationTicks": 240,
      "endTick": 150720,
      "startSeconds": 117.563,
      "durationSeconds": 0.188,
      "endSeconds": 117.75,
      "velocity": 0.8,
      "bendActive": true,
      "instrument": 0
    },
    {
      "id": "id_h7diuyej4mnv3kmnt",
      "pitch": 59,
      "pitchName": "B3",
      "frequencyHz": 246.941651,
      "startTick": 150480,
      "durationTicks": 240,
      "endTick": 150720,
      "startSeconds": 117.563,
      "durationSeconds": 0.188,
      "endSeconds": 117.75,
      "velocity": 0.25,
      "bendActive": true,
      "instrument": 1
    },
    {
      "id": "id_do10qgcu2mnv3kmnt",
      "pitch": 64,
      "pitchName": "E4",
      "frequencyHz": 329.627557,
      "startTick": 150480,
      "durationTicks": 240,
      "endTick": 150720,
      "startSeconds": 117.563,
      "durationSeconds": 0.188,
      "endSeconds": 117.75,
      "velocity": 0.8,
      "bendActive": true,
      "instrument": 0
    },
    {
      "id": "id_09vr0mbe8mnv3kmnt",
      "pitch": 68,
      "pitchName": "G#4",
      "frequencyHz": 415.304698,
      "startTick": 150480,
      "durationTicks": 240,
      "endTick": 150720,
      "startSeconds": 117.563,
      "durationSeconds": 0.188,
      "endSeconds": 117.75,
      "velocity": 0.25,
      "bendActive": true,
      "instrument": 1
    },
    {
      "id": "id_4mz66eig6mnv3kmnt",
      "pitch": 75,
      "pitchName": "D#5",
      "frequencyHz": 622.253967,
      "startTick": 150480,
      "durationTicks": 240,
      "endTick": 150720,
      "startSeconds": 117.563,
      "durationSeconds": 0.188,
      "endSeconds": 117.75,
      "velocity": 0.8,
      "bendActive": true,
      "instrument": 0
    },
    {
      "id": "id_efr21iocdmnv3kmnt",
      "pitch": 40,
      "pitchName": "E2",
      "frequencyHz": 82.406889,
      "startTick": 150720,
      "durationTicks": 240,
      "endTick": 150960,
      "startSeconds": 117.75,
      "durationSeconds": 0.188,
      "endSeconds": 117.938,
      "velocity": 0.8,
      "bendActive": true,
      "instrument": 0
    },
    {
      "id": "id_wgdc2pxogmnv3kmnt",
      "pitch": 56,
      "pitchName": "G#3",
      "frequencyHz": 207.652349,
      "startTick": 150720,
      "durationTicks": 240,
      "endTick": 150960,
      "startSeconds": 117.75,
      "durationSeconds": 0.188,
      "endSeconds": 117.938,
      "velocity": 0.8,
      "bendActive": true,
      "instrument": 0
    },
    {
      "id": "id_nivku3gmdmnv3kmnt",
      "pitch": 59,
      "pitchName": "B3",
      "frequencyHz": 246.941651,
      "startTick": 150720,
      "durationTicks": 240,
      "endTick": 150960,
      "startSeconds": 117.75,
      "durationSeconds": 0.188,
      "endSeconds": 117.938,
      "velocity": 0.25,
      "bendActive": true,
      "instrument": 1
    },
    {
      "id": "id_yz48qd3ufmnv3kmnt",
      "pitch": 64,
      "pitchName": "E4",
      "frequencyHz": 329.627557,
      "startTick": 150720,
      "durationTicks": 240,
      "endTick": 150960,
      "startSeconds": 117.75,
      "durationSeconds": 0.188,
      "endSeconds": 117.938,
      "velocity": 0.8,
      "bendActive": true,
      "instrument": 0
    },
    {
      "id": "id_rx6osx10umnv3kmnt",
      "pitch": 68,
      "pitchName": "G#4",
      "frequencyHz": 415.304698,
      "startTick": 150720,
      "durationTicks": 240,
      "endTick": 150960,
      "startSeconds": 117.75,
      "durationSeconds": 0.188,
      "endSeconds": 117.938,
      "velocity": 0.25,
      "bendActive": true,
      "instrument": 1
    },
    {
      "id": "id_9f7ox9m1mmnv3kmnt",
      "pitch": 75,
      "pitchName": "D#5",
      "frequencyHz": 622.253967,
      "startTick": 150720,
      "durationTicks": 240,
      "endTick": 150960,
      "startSeconds": 117.75,
      "durationSeconds": 0.188,
      "endSeconds": 117.938,
      "velocity": 0.8,
      "bendActive": true,
      "instrument": 0
    },
    {
      "id": "id_bvb8jn33emnv3kmnt",
      "pitch": 46,
      "pitchName": "A#2",
      "frequencyHz": 116.54094,
      "startTick": 151200,
      "durationTicks": 240,
      "endTick": 151440,
      "startSeconds": 118.125,
      "durationSeconds": 0.188,
      "endSeconds": 118.313,
      "velocity": 0.8,
      "bendActive": true,
      "instrument": 0
    },
    {
      "id": "id_kn71qp9e6mnv3kmnt",
      "pitch": 54,
      "pitchName": "F#3",
      "frequencyHz": 184.997211,
      "startTick": 151200,
      "durationTicks": 240,
      "endTick": 151440,
      "startSeconds": 118.125,
      "durationSeconds": 0.188,
      "endSeconds": 118.313,
      "velocity": 0.25,
      "bendActive": true,
      "instrument": 1
    },
    {
      "id": "id_v9p4fad5amnv3kmnt",
      "pitch": 58,
      "pitchName": "A#3",
      "frequencyHz": 233.081881,
      "startTick": 151200,
      "durationTicks": 240,
      "endTick": 151440,
      "startSeconds": 118.125,
      "durationSeconds": 0.188,
      "endSeconds": 118.313,
      "velocity": 0.8,
      "bendActive": true,
      "instrument": 0
    },
    {
      "id": "id_wsle2b7fzmnv3kmnt",
      "pitch": 66,
      "pitchName": "F#4",
      "frequencyHz": 369.994423,
      "startTick": 151200,
      "durationTicks": 240,
      "endTick": 151440,
      "startSeconds": 118.125,
      "durationSeconds": 0.188,
      "endSeconds": 118.313,
      "velocity": 0.8,
      "bendActive": true,
      "instrument": 0
    },
    {
      "id": "id_o6fa49b2dmnv3kmnt",
      "pitch": 71,
      "pitchName": "B4",
      "frequencyHz": 493.883301,
      "startTick": 151200,
      "durationTicks": 240,
      "endTick": 151440,
      "startSeconds": 118.125,
      "durationSeconds": 0.188,
      "endSeconds": 118.313,
      "velocity": 0.25,
      "bendActive": true,
      "instrument": 1
    },
    {
      "id": "id_193drxo0amnv3kmnt",
      "pitch": 75,
      "pitchName": "D#5",
      "frequencyHz": 622.253967,
      "startTick": 151200,
      "durationTicks": 240,
      "endTick": 151440,
      "startSeconds": 118.125,
      "durationSeconds": 0.188,
      "endSeconds": 118.313,
      "velocity": 0.8,
      "bendActive": true,
      "instrument": 0
    },
    {
      "id": "id_6foza8qy2mnv3kmnt",
      "pitch": 46,
      "pitchName": "A#2",
      "frequencyHz": 116.54094,
      "startTick": 151440,
      "durationTicks": 240,
      "endTick": 151680,
      "startSeconds": 118.313,
      "durationSeconds": 0.188,
      "endSeconds": 118.5,
      "velocity": 0.8,
      "bendActive": true,
      "instrument": 0
    },
    {
      "id": "id_yjdnf7jl9mnv3kmnt",
      "pitch": 54,
      "pitchName": "F#3",
      "frequencyHz": 184.997211,
      "startTick": 151440,
      "durationTicks": 240,
      "endTick": 151680,
      "startSeconds": 118.313,
      "durationSeconds": 0.188,
      "endSeconds": 118.5,
      "velocity": 0.25,
      "bendActive": true,
      "instrument": 1
    },
    {
      "id": "id_dty87sxydmnv3kmnt",
      "pitch": 58,
      "pitchName": "A#3",
      "frequencyHz": 233.081881,
      "startTick": 151440,
      "durationTicks": 240,
      "endTick": 151680,
      "startSeconds": 118.313,
      "durationSeconds": 0.188,
      "endSeconds": 118.5,
      "velocity": 0.8,
      "bendActive": true,
      "instrument": 0
    },
    {
      "id": "id_vzit9o3emmnv3kmnt",
      "pitch": 66,
      "pitchName": "F#4",
      "frequencyHz": 369.994423,
      "startTick": 151440,
      "durationTicks": 240,
      "endTick": 151680,
      "startSeconds": 118.313,
      "durationSeconds": 0.188,
      "endSeconds": 118.5,
      "velocity": 0.8,
      "bendActive": true,
      "instrument": 0
    },
    {
      "id": "id_m9etg7eotmnv3kmnt",
      "pitch": 71,
      "pitchName": "B4",
      "frequencyHz": 493.883301,
      "startTick": 151440,
      "durationTicks": 240,
      "endTick": 151680,
      "startSeconds": 118.313,
      "durationSeconds": 0.188,
      "endSeconds": 118.5,
      "velocity": 0.25,
      "bendActive": true,
      "instrument": 1
    },
    {
      "id": "id_kgcz3joe6mnv3kmnt",
      "pitch": 75,
      "pitchName": "D#5",
      "frequencyHz": 622.253967,
      "startTick": 151440,
      "durationTicks": 240,
      "endTick": 151680,
      "startSeconds": 118.313,
      "durationSeconds": 0.188,
      "endSeconds": 118.5,
      "velocity": 0.8,
      "bendActive": true,
      "instrument": 0
    },
    {
      "id": "id_6luos0au1mnv3kmnt",
      "pitch": 46,
      "pitchName": "A#2",
      "frequencyHz": 116.54094,
      "startTick": 151680,
      "durationTicks": 240,
      "endTick": 151920,
      "startSeconds": 118.5,
      "durationSeconds": 0.188,
      "endSeconds": 118.688,
      "velocity": 0.8,
      "bendActive": true,
      "instrument": 0
    },
    {
      "id": "id_0vd0toy9gmnv3kmnt",
      "pitch": 54,
      "pitchName": "F#3",
      "frequencyHz": 184.997211,
      "startTick": 151680,
      "durationTicks": 240,
      "endTick": 151920,
      "startSeconds": 118.5,
      "durationSeconds": 0.188,
      "endSeconds": 118.688,
      "velocity": 0.25,
      "bendActive": true,
      "instrument": 1
    },
    {
      "id": "id_3vlbvivckmnv3kmnt",
      "pitch": 58,
      "pitchName": "A#3",
      "frequencyHz": 233.081881,
      "startTick": 151680,
      "durationTicks": 240,
      "endTick": 151920,
      "startSeconds": 118.5,
      "durationSeconds": 0.188,
      "endSeconds": 118.688,
      "velocity": 0.8,
      "bendActive": true,
      "instrument": 0
    },
    {
      "id": "id_ws2c6gc0xmnv3kmnt",
      "pitch": 67,
      "pitchName": "G4",
      "frequencyHz": 391.995436,
      "startTick": 151680,
      "durationTicks": 240,
      "endTick": 151920,
      "startSeconds": 118.5,
      "durationSeconds": 0.188,
      "endSeconds": 118.688,
      "velocity": 0.8,
      "bendActive": true,
      "instrument": 0
    },
    {
      "id": "id_yma6wthmlmnv3kmnt",
      "pitch": 72,
      "pitchName": "C5",
      "frequencyHz": 523.251131,
      "startTick": 151680,
      "durationTicks": 240,
      "endTick": 151920,
      "startSeconds": 118.5,
      "durationSeconds": 0.188,
      "endSeconds": 118.688,
      "velocity": 0.25,
      "bendActive": true,
      "instrument": 1
    },
    {
      "id": "id_99x3e2bssmnv3kmnt",
      "pitch": 75,
      "pitchName": "D#5",
      "frequencyHz": 622.253967,
      "startTick": 151680,
      "durationTicks": 240,
      "endTick": 151920,
      "startSeconds": 118.5,
      "durationSeconds": 0.188,
      "endSeconds": 118.688,
      "velocity": 0.8,
      "bendActive": true,
      "instrument": 0
    },
    {
      "id": "id_p14g14bpgmnv3kmnt",
      "pitch": 46,
      "pitchName": "A#2",
      "frequencyHz": 116.54094,
      "startTick": 151920,
      "durationTicks": 240,
      "endTick": 152160,
      "startSeconds": 118.688,
      "durationSeconds": 0.188,
      "endSeconds": 118.875,
      "velocity": 0.8,
      "bendActive": true,
      "instrument": 0
    },
    {
      "id": "id_m7fnhsvnfmnv3kmnt",
      "pitch": 54,
      "pitchName": "F#3",
      "frequencyHz": 184.997211,
      "startTick": 151920,
      "durationTicks": 240,
      "endTick": 152160,
      "startSeconds": 118.688,
      "durationSeconds": 0.188,
      "endSeconds": 118.875,
      "velocity": 0.25,
      "bendActive": true,
      "instrument": 1
    },
    {
      "id": "id_zxhfu39v5mnv3kmnt",
      "pitch": 58,
      "pitchName": "A#3",
      "frequencyHz": 233.081881,
      "startTick": 151920,
      "durationTicks": 240,
      "endTick": 152160,
      "startSeconds": 118.688,
      "durationSeconds": 0.188,
      "endSeconds": 118.875,
      "velocity": 0.8,
      "bendActive": true,
      "instrument": 0
    },
    {
      "id": "id_0720sbrq3mnv3kmnt",
      "pitch": 63,
      "pitchName": "D#4",
      "frequencyHz": 311.126984,
      "startTick": 151920,
      "durationTicks": 240,
      "endTick": 152160,
      "startSeconds": 118.688,
      "durationSeconds": 0.188,
      "endSeconds": 118.875,
      "velocity": 0.8,
      "bendActive": true,
      "instrument": 0
    },
    {
      "id": "id_4ag9m26g5mnv3kmnt",
      "pitch": 65,
      "pitchName": "F4",
      "frequencyHz": 349.228231,
      "startTick": 151920,
      "durationTicks": 240,
      "endTick": 152160,
      "startSeconds": 118.688,
      "durationSeconds": 0.188,
      "endSeconds": 118.875,
      "velocity": 0.25,
      "bendActive": true,
      "instrument": 1
    },
    {
      "id": "id_w88irbtxemnv481mr",
      "pitch": 72,
      "pitchName": "C5",
      "frequencyHz": 523.251131,
      "startTick": 151920,
      "durationTicks": 240,
      "endTick": 152160,
      "startSeconds": 118.688,
      "durationSeconds": 0.188,
      "endSeconds": 118.875,
      "velocity": 0.8,
      "bendActive": true,
      "instrument": 1
    },
    {
      "id": "id_dspee3gqomnv3kmnt",
      "pitch": 75,
      "pitchName": "D#5",
      "frequencyHz": 622.253967,
      "startTick": 151920,
      "durationTicks": 240,
      "endTick": 152160,
      "startSeconds": 118.688,
      "durationSeconds": 0.188,
      "endSeconds": 118.875,
      "velocity": 0.8,
      "bendActive": true,
      "instrument": 0
    },
    {
      "id": "id_bpwzpqjxwmnv3kmnt",
      "pitch": 46,
      "pitchName": "A#2",
      "frequencyHz": 116.54094,
      "startTick": 152160,
      "durationTicks": 120,
      "endTick": 152280,
      "startSeconds": 118.875,
      "durationSeconds": 0.094,
      "endSeconds": 118.969,
      "velocity": 0.8,
      "bendActive": true,
      "instrument": 0
    },
    {
      "id": "id_1kkbge1b9mnv3kmnt",
      "pitch": 54,
      "pitchName": "F#3",
      "frequencyHz": 184.997211,
      "startTick": 152160,
      "durationTicks": 120,
      "endTick": 152280,
      "startSeconds": 118.875,
      "durationSeconds": 0.094,
      "endSeconds": 118.969,
      "velocity": 0.25,
      "bendActive": true,
      "instrument": 1
    },
    {
      "id": "id_uzs652oaemnv3kmnt",
      "pitch": 64,
      "pitchName": "E4",
      "frequencyHz": 329.627557,
      "startTick": 152160,
      "durationTicks": 240,
      "endTick": 152400,
      "startSeconds": 118.875,
      "durationSeconds": 0.188,
      "endSeconds": 119.063,
      "velocity": 0.8,
      "bendActive": true,
      "instrument": 0
    },
    {
      "id": "id_10c29qfbpmnv48gze",
      "pitch": 64,
      "pitchName": "E4",
      "frequencyHz": 329.627557,
      "startTick": 152160,
      "durationTicks": 240,
      "endTick": 152400,
      "startSeconds": 118.875,
      "durationSeconds": 0.188,
      "endSeconds": 119.063,
      "velocity": 0.8,
      "bendActive": true,
      "instrument": 1
    },
    {
      "id": "id_lr7duh221mnv3kmnt",
      "pitch": 71,
      "pitchName": "B4",
      "frequencyHz": 493.883301,
      "startTick": 152160,
      "durationTicks": 240,
      "endTick": 152400,
      "startSeconds": 118.875,
      "durationSeconds": 0.188,
      "endSeconds": 119.063,
      "velocity": 0.8,
      "bendActive": true,
      "instrument": 0
    },
    {
      "id": "id_aa6ducdp7mnv3kmnt",
      "pitch": 64,
      "pitchName": "E4",
      "frequencyHz": 329.627557,
      "startTick": 152400,
      "durationTicks": 240,
      "endTick": 152640,
      "startSeconds": 119.063,
      "durationSeconds": 0.188,
      "endSeconds": 119.25,
      "velocity": 0.8,
      "bendActive": true,
      "instrument": 0
    },
    {
      "id": "id_o2r8kck85mnv3kmnt",
      "pitch": 64,
      "pitchName": "E4",
      "frequencyHz": 329.627557,
      "startTick": 152400,
      "durationTicks": 240,
      "endTick": 152640,
      "startSeconds": 119.063,
      "durationSeconds": 0.188,
      "endSeconds": 119.25,
      "velocity": 0.25,
      "bendActive": true,
      "instrument": 1
    },
    {
      "id": "id_8fg0b3ekimnv3kmnt",
      "pitch": 71,
      "pitchName": "B4",
      "frequencyHz": 493.883301,
      "startTick": 152400,
      "durationTicks": 240,
      "endTick": 152640,
      "startSeconds": 119.063,
      "durationSeconds": 0.188,
      "endSeconds": 119.25,
      "velocity": 0.8,
      "bendActive": true,
      "instrument": 0
    },
    {
      "id": "id_16i4mv2z8mnv3kmnt",
      "pitch": 42,
      "pitchName": "F#2",
      "frequencyHz": 92.498606,
      "startTick": 152640,
      "durationTicks": 240,
      "endTick": 152880,
      "startSeconds": 119.25,
      "durationSeconds": 0.188,
      "endSeconds": 119.438,
      "velocity": 0.8,
      "bendActive": true,
      "instrument": 0
    },
    {
      "id": "id_p5v4y76slmnv3kmnt",
      "pitch": 58,
      "pitchName": "A#3",
      "frequencyHz": 233.081881,
      "startTick": 152640,
      "durationTicks": 240,
      "endTick": 152880,
      "startSeconds": 119.25,
      "durationSeconds": 0.188,
      "endSeconds": 119.438,
      "velocity": 0.8,
      "bendActive": true,
      "instrument": 0
    },
    {
      "id": "id_f0no8vjz2mnv492na",
      "pitch": 66,
      "pitchName": "F#4",
      "frequencyHz": 369.994423,
      "startTick": 152640,
      "durationTicks": 240,
      "endTick": 152880,
      "startSeconds": 119.25,
      "durationSeconds": 0.188,
      "endSeconds": 119.438,
      "velocity": 0.25,
      "bendActive": true,
      "instrument": 1
    },
    {
      "id": "id_ilmulsnsamnv3kmnt",
      "pitch": 66,
      "pitchName": "F#4",
      "frequencyHz": 369.994423,
      "startTick": 152640,
      "durationTicks": 240,
      "endTick": 152880,
      "startSeconds": 119.25,
      "durationSeconds": 0.188,
      "endSeconds": 119.438,
      "velocity": 0.8,
      "bendActive": true,
      "instrument": 0
    },
    {
      "id": "id_01hmpp27tmnv48szd",
      "pitch": 73,
      "pitchName": "C#5",
      "frequencyHz": 554.365262,
      "startTick": 152640,
      "durationTicks": 240,
      "endTick": 152880,
      "startSeconds": 119.25,
      "durationSeconds": 0.188,
      "endSeconds": 119.438,
      "velocity": 0.25,
      "bendActive": true,
      "instrument": 1
    },
    {
      "id": "id_nsaf8wu5tmnv3kmnt",
      "pitch": 73,
      "pitchName": "C#5",
      "frequencyHz": 554.365262,
      "startTick": 152640,
      "durationTicks": 240,
      "endTick": 152880,
      "startSeconds": 119.25,
      "durationSeconds": 0.188,
      "endSeconds": 119.438,
      "velocity": 0.8,
      "bendActive": true,
      "instrument": 0
    },
    {
      "id": "id_pn33exgxbmnv3kmnt",
      "pitch": 42,
      "pitchName": "F#2",
      "frequencyHz": 92.498606,
      "startTick": 152880,
      "durationTicks": 120,
      "endTick": 153000,
      "startSeconds": 119.438,
      "durationSeconds": 0.094,
      "endSeconds": 119.531,
      "velocity": 0.8,
      "bendActive": true,
      "instrument": 0
    },
    {
      "id": "id_ct36k6b4xmnv3kmnt",
      "pitch": 58,
      "pitchName": "A#3",
      "frequencyHz": 233.081881,
      "startTick": 152880,
      "durationTicks": 120,
      "endTick": 153000,
      "startSeconds": 119.438,
      "durationSeconds": 0.094,
      "endSeconds": 119.531,
      "velocity": 0.8,
      "bendActive": true,
      "instrument": 0
    },
    {
      "id": "id_rmz0zai77mnv492na",
      "pitch": 66,
      "pitchName": "F#4",
      "frequencyHz": 369.994423,
      "startTick": 152880,
      "durationTicks": 120,
      "endTick": 153000,
      "startSeconds": 119.438,
      "durationSeconds": 0.094,
      "endSeconds": 119.531,
      "velocity": 0.25,
      "bendActive": true,
      "instrument": 1
    },
    {
      "id": "id_v9x3nb8oqmnv3kmnt",
      "pitch": 66,
      "pitchName": "F#4",
      "frequencyHz": 369.994423,
      "startTick": 152880,
      "durationTicks": 120,
      "endTick": 153000,
      "startSeconds": 119.438,
      "durationSeconds": 0.094,
      "endSeconds": 119.531,
      "velocity": 0.8,
      "bendActive": true,
      "instrument": 0
    },
    {
      "id": "id_efdxifoximnv48szd",
      "pitch": 73,
      "pitchName": "C#5",
      "frequencyHz": 554.365262,
      "startTick": 152880,
      "durationTicks": 120,
      "endTick": 153000,
      "startSeconds": 119.438,
      "durationSeconds": 0.094,
      "endSeconds": 119.531,
      "velocity": 0.25,
      "bendActive": true,
      "instrument": 1
    },
    {
      "id": "id_oy9vs7di0mnv3kmnt",
      "pitch": 73,
      "pitchName": "C#5",
      "frequencyHz": 554.365262,
      "startTick": 152880,
      "durationTicks": 120,
      "endTick": 153000,
      "startSeconds": 119.438,
      "durationSeconds": 0.094,
      "endSeconds": 119.531,
      "velocity": 0.8,
      "bendActive": true,
      "instrument": 0
    },
    {
      "id": "id_f0c4zdffzmnv3kmnt",
      "pitch": 42,
      "pitchName": "F#2",
      "frequencyHz": 92.498606,
      "startTick": 153120,
      "durationTicks": 120,
      "endTick": 153240,
      "startSeconds": 119.625,
      "durationSeconds": 0.094,
      "endSeconds": 119.719,
      "velocity": 0.8,
      "bendActive": true,
      "instrument": 0
    },
    {
      "id": "id_f9zkhzfo4mnv3kmnt",
      "pitch": 58,
      "pitchName": "A#3",
      "frequencyHz": 233.081881,
      "startTick": 153120,
      "durationTicks": 120,
      "endTick": 153240,
      "startSeconds": 119.625,
      "durationSeconds": 0.094,
      "endSeconds": 119.719,
      "velocity": 0.8,
      "bendActive": true,
      "instrument": 0
    },
    {
      "id": "id_a59jy5tnhmnv492na",
      "pitch": 66,
      "pitchName": "F#4",
      "frequencyHz": 369.994423,
      "startTick": 153120,
      "durationTicks": 120,
      "endTick": 153240,
      "startSeconds": 119.625,
      "durationSeconds": 0.094,
      "endSeconds": 119.719,
      "velocity": 0.25,
      "bendActive": true,
      "instrument": 1
    },
    {
      "id": "id_bsbdxay2omnv3kmnt",
      "pitch": 66,
      "pitchName": "F#4",
      "frequencyHz": 369.994423,
      "startTick": 153120,
      "durationTicks": 120,
      "endTick": 153240,
      "startSeconds": 119.625,
      "durationSeconds": 0.094,
      "endSeconds": 119.719,
      "velocity": 0.8,
      "bendActive": true,
      "instrument": 0
    },
    {
      "id": "id_15bfb44edmnv48szd",
      "pitch": 73,
      "pitchName": "C#5",
      "frequencyHz": 554.365262,
      "startTick": 153120,
      "durationTicks": 120,
      "endTick": 153240,
      "startSeconds": 119.625,
      "durationSeconds": 0.094,
      "endSeconds": 119.719,
      "velocity": 0.25,
      "bendActive": true,
      "instrument": 1
    },
    {
      "id": "id_x7hag1lzkmnv3kmnt",
      "pitch": 73,
      "pitchName": "C#5",
      "frequencyHz": 554.365262,
      "startTick": 153120,
      "durationTicks": 120,
      "endTick": 153240,
      "startSeconds": 119.625,
      "durationSeconds": 0.094,
      "endSeconds": 119.719,
      "velocity": 0.8,
      "bendActive": true,
      "instrument": 0
    },
    {
      "id": "id_217piixd2mnv3kmnt",
      "pitch": 42,
      "pitchName": "F#2",
      "frequencyHz": 92.498606,
      "startTick": 153360,
      "durationTicks": 240,
      "endTick": 153600,
      "startSeconds": 119.813,
      "durationSeconds": 0.188,
      "endSeconds": 120,
      "velocity": 0.8,
      "bendActive": true,
      "instrument": 0
    },
    {
      "id": "id_fewyt3flymnv3kmnt",
      "pitch": 58,
      "pitchName": "A#3",
      "frequencyHz": 233.081881,
      "startTick": 153360,
      "durationTicks": 240,
      "endTick": 153600,
      "startSeconds": 119.813,
      "durationSeconds": 0.188,
      "endSeconds": 120,
      "velocity": 0.8,
      "bendActive": true,
      "instrument": 0
    },
    {
      "id": "id_9t42wjj72mnv492na",
      "pitch": 66,
      "pitchName": "F#4",
      "frequencyHz": 369.994423,
      "startTick": 153360,
      "durationTicks": 240,
      "endTick": 153600,
      "startSeconds": 119.813,
      "durationSeconds": 0.188,
      "endSeconds": 120,
      "velocity": 0.25,
      "bendActive": true,
      "instrument": 1
    },
    {
      "id": "id_6e2mn43w4mnv3kmnt",
      "pitch": 66,
      "pitchName": "F#4",
      "frequencyHz": 369.994423,
      "startTick": 153360,
      "durationTicks": 240,
      "endTick": 153600,
      "startSeconds": 119.813,
      "durationSeconds": 0.188,
      "endSeconds": 120,
      "velocity": 0.8,
      "bendActive": true,
      "instrument": 0
    },
    {
      "id": "id_wbsiam1agmnv48szd",
      "pitch": 73,
      "pitchName": "C#5",
      "frequencyHz": 554.365262,
      "startTick": 153360,
      "durationTicks": 240,
      "endTick": 153600,
      "startSeconds": 119.813,
      "durationSeconds": 0.188,
      "endSeconds": 120,
      "velocity": 0.25,
      "bendActive": true,
      "instrument": 1
    },
    {
      "id": "id_km2b7i0femnv3kmnt",
      "pitch": 73,
      "pitchName": "C#5",
      "frequencyHz": 554.365262,
      "startTick": 153360,
      "durationTicks": 240,
      "endTick": 153600,
      "startSeconds": 119.813,
      "durationSeconds": 0.188,
      "endSeconds": 120,
      "velocity": 0.8,
      "bendActive": true,
      "instrument": 0
    },
    {
      "id": "id_iwizo4vsrmnv3kmnt",
      "pitch": 42,
      "pitchName": "F#2",
      "frequencyHz": 92.498606,
      "startTick": 153600,
      "durationTicks": 120,
      "endTick": 153720,
      "startSeconds": 120,
      "durationSeconds": 0.094,
      "endSeconds": 120.094,
      "velocity": 0.8,
      "bendActive": true,
      "instrument": 0
    },
    {
      "id": "id_nceu3cjhqmnv3kmnt",
      "pitch": 58,
      "pitchName": "A#3",
      "frequencyHz": 233.081881,
      "startTick": 153600,
      "durationTicks": 120,
      "endTick": 153720,
      "startSeconds": 120,
      "durationSeconds": 0.094,
      "endSeconds": 120.094,
      "velocity": 0.8,
      "bendActive": true,
      "instrument": 0
    },
    {
      "id": "id_87hfd7ywlmnv492na",
      "pitch": 66,
      "pitchName": "F#4",
      "frequencyHz": 369.994423,
      "startTick": 153600,
      "durationTicks": 120,
      "endTick": 153720,
      "startSeconds": 120,
      "durationSeconds": 0.094,
      "endSeconds": 120.094,
      "velocity": 0.25,
      "bendActive": true,
      "instrument": 1
    },
    {
      "id": "id_7y14fdgkmmnv3kmnt",
      "pitch": 66,
      "pitchName": "F#4",
      "frequencyHz": 369.994423,
      "startTick": 153600,
      "durationTicks": 120,
      "endTick": 153720,
      "startSeconds": 120,
      "durationSeconds": 0.094,
      "endSeconds": 120.094,
      "velocity": 0.8,
      "bendActive": true,
      "instrument": 0
    },
    {
      "id": "id_zfu9kous8mnv48szd",
      "pitch": 73,
      "pitchName": "C#5",
      "frequencyHz": 554.365262,
      "startTick": 153600,
      "durationTicks": 120,
      "endTick": 153720,
      "startSeconds": 120,
      "durationSeconds": 0.094,
      "endSeconds": 120.094,
      "velocity": 0.25,
      "bendActive": true,
      "instrument": 1
    },
    {
      "id": "id_ytbtv7casmnv3kmnt",
      "pitch": 73,
      "pitchName": "C#5",
      "frequencyHz": 554.365262,
      "startTick": 153600,
      "durationTicks": 120,
      "endTick": 153720,
      "startSeconds": 120,
      "durationSeconds": 0.094,
      "endSeconds": 120.094,
      "velocity": 0.8,
      "bendActive": true,
      "instrument": 0
    },
    {
      "id": "id_odamyfs2mmnv3kmnt",
      "pitch": 42,
      "pitchName": "F#2",
      "frequencyHz": 92.498606,
      "startTick": 153840,
      "durationTicks": 240,
      "endTick": 154080,
      "startSeconds": 120.188,
      "durationSeconds": 0.188,
      "endSeconds": 120.375,
      "velocity": 0.8,
      "bendActive": true,
      "instrument": 0
    },
    {
      "id": "id_cnbw6r0vnmnv3kmnt",
      "pitch": 58,
      "pitchName": "A#3",
      "frequencyHz": 233.081881,
      "startTick": 153840,
      "durationTicks": 240,
      "endTick": 154080,
      "startSeconds": 120.188,
      "durationSeconds": 0.188,
      "endSeconds": 120.375,
      "velocity": 0.8,
      "bendActive": true,
      "instrument": 0
    },
    {
      "id": "id_kg3d53nukmnv492na",
      "pitch": 66,
      "pitchName": "F#4",
      "frequencyHz": 369.994423,
      "startTick": 153840,
      "durationTicks": 240,
      "endTick": 154080,
      "startSeconds": 120.188,
      "durationSeconds": 0.188,
      "endSeconds": 120.375,
      "velocity": 0.25,
      "bendActive": true,
      "instrument": 1
    },
    {
      "id": "id_gddw99whqmnv3kmnt",
      "pitch": 66,
      "pitchName": "F#4",
      "frequencyHz": 369.994423,
      "startTick": 153840,
      "durationTicks": 240,
      "endTick": 154080,
      "startSeconds": 120.188,
      "durationSeconds": 0.188,
      "endSeconds": 120.375,
      "velocity": 0.8,
      "bendActive": true,
      "instrument": 0
    },
    {
      "id": "id_neh76oxm1mnv48szd",
      "pitch": 73,
      "pitchName": "C#5",
      "frequencyHz": 554.365262,
      "startTick": 153840,
      "durationTicks": 240,
      "endTick": 154080,
      "startSeconds": 120.188,
      "durationSeconds": 0.188,
      "endSeconds": 120.375,
      "velocity": 0.25,
      "bendActive": true,
      "instrument": 1
    },
    {
      "id": "id_k0nedsdgqmnv3kmnt",
      "pitch": 73,
      "pitchName": "C#5",
      "frequencyHz": 554.365262,
      "startTick": 153840,
      "durationTicks": 240,
      "endTick": 154080,
      "startSeconds": 120.188,
      "durationSeconds": 0.188,
      "endSeconds": 120.375,
      "velocity": 0.8,
      "bendActive": true,
      "instrument": 0
    },
    {
      "id": "id_rgsku9lvhmnv3kmnt",
      "pitch": 39,
      "pitchName": "D#2",
      "frequencyHz": 77.781746,
      "startTick": 154080,
      "durationTicks": 240,
      "endTick": 154320,
      "startSeconds": 120.375,
      "durationSeconds": 0.188,
      "endSeconds": 120.563,
      "velocity": 0.8,
      "bendActive": true,
      "instrument": 0
    },
    {
      "id": "id_q8n13z9vmmnv3kmnt",
      "pitch": 58,
      "pitchName": "A#3",
      "frequencyHz": 233.081881,
      "startTick": 154080,
      "durationTicks": 240,
      "endTick": 154320,
      "startSeconds": 120.375,
      "durationSeconds": 0.188,
      "endSeconds": 120.563,
      "velocity": 0.8,
      "bendActive": true,
      "instrument": 0
    },
    {
      "id": "id_q7w01prgymnv3kmnt",
      "pitch": 66,
      "pitchName": "F#4",
      "frequencyHz": 369.994423,
      "startTick": 154080,
      "durationTicks": 240,
      "endTick": 154320,
      "startSeconds": 120.375,
      "durationSeconds": 0.188,
      "endSeconds": 120.563,
      "velocity": 0.8,
      "bendActive": true,
      "instrument": 0
    },
    {
      "id": "id_p0jbahnahmnv3kmnt",
      "pitch": 74,
      "pitchName": "D5",
      "frequencyHz": 587.329536,
      "startTick": 154080,
      "durationTicks": 240,
      "endTick": 154320,
      "startSeconds": 120.375,
      "durationSeconds": 0.188,
      "endSeconds": 120.563,
      "velocity": 0.8,
      "bendActive": true,
      "instrument": 0
    },
    {
      "id": "id_vbiq25g6amnv3kmnt",
      "pitch": 39,
      "pitchName": "D#2",
      "frequencyHz": 77.781746,
      "startTick": 154320,
      "durationTicks": 120,
      "endTick": 154440,
      "startSeconds": 120.563,
      "durationSeconds": 0.094,
      "endSeconds": 120.656,
      "velocity": 0.8,
      "bendActive": true,
      "instrument": 0
    },
    {
      "id": "id_dke0cq69dmnv3kmnt",
      "pitch": 58,
      "pitchName": "A#3",
      "frequencyHz": 233.081881,
      "startTick": 154320,
      "durationTicks": 120,
      "endTick": 154440,
      "startSeconds": 120.563,
      "durationSeconds": 0.094,
      "endSeconds": 120.656,
      "velocity": 0.8,
      "bendActive": true,
      "instrument": 0
    },
    {
      "id": "id_2q10tqyjzmnv3kmnt",
      "pitch": 66,
      "pitchName": "F#4",
      "frequencyHz": 369.994423,
      "startTick": 154320,
      "durationTicks": 120,
      "endTick": 154440,
      "startSeconds": 120.563,
      "durationSeconds": 0.094,
      "endSeconds": 120.656,
      "velocity": 0.8,
      "bendActive": true,
      "instrument": 0
    },
    {
      "id": "id_5ewg239rtmnv3kmnt",
      "pitch": 74,
      "pitchName": "D5",
      "frequencyHz": 587.329536,
      "startTick": 154320,
      "durationTicks": 120,
      "endTick": 154440,
      "startSeconds": 120.563,
      "durationSeconds": 0.094,
      "endSeconds": 120.656,
      "velocity": 0.8,
      "bendActive": true,
      "instrument": 0
    },
    {
      "id": "id_9q2fg5qk3mnv3kmnt",
      "pitch": 39,
      "pitchName": "D#2",
      "frequencyHz": 77.781746,
      "startTick": 154560,
      "durationTicks": 240,
      "endTick": 154800,
      "startSeconds": 120.75,
      "durationSeconds": 0.188,
      "endSeconds": 120.938,
      "velocity": 0.8,
      "bendActive": true,
      "instrument": 0
    },
    {
      "id": "id_uzt53l4brmnv3kmnt",
      "pitch": 58,
      "pitchName": "A#3",
      "frequencyHz": 233.081881,
      "startTick": 154560,
      "durationTicks": 240,
      "endTick": 154800,
      "startSeconds": 120.75,
      "durationSeconds": 0.188,
      "endSeconds": 120.938,
      "velocity": 0.8,
      "bendActive": true,
      "instrument": 0
    },
    {
      "id": "id_62qfb3tlgmnv3kmnt",
      "pitch": 67,
      "pitchName": "G4",
      "frequencyHz": 391.995436,
      "startTick": 154560,
      "durationTicks": 240,
      "endTick": 154800,
      "startSeconds": 120.75,
      "durationSeconds": 0.188,
      "endSeconds": 120.938,
      "velocity": 0.25,
      "bendActive": true,
      "instrument": 1
    },
    {
      "id": "id_qmzgno54mmnv3kmnt",
      "pitch": 67,
      "pitchName": "G4",
      "frequencyHz": 391.995436,
      "startTick": 154560,
      "durationTicks": 240,
      "endTick": 154800,
      "startSeconds": 120.75,
      "durationSeconds": 0.188,
      "endSeconds": 120.938,
      "velocity": 0.8,
      "bendActive": true,
      "instrument": 0
    },
    {
      "id": "id_8byiq5elbmnv3kmnt",
      "pitch": 74,
      "pitchName": "D5",
      "frequencyHz": 587.329536,
      "startTick": 154560,
      "durationTicks": 240,
      "endTick": 154800,
      "startSeconds": 120.75,
      "durationSeconds": 0.188,
      "endSeconds": 120.938,
      "velocity": 0.8,
      "bendActive": true,
      "instrument": 0
    },
    {
      "id": "id_c25pd5r0zmnv3kmnt",
      "pitch": 39,
      "pitchName": "D#2",
      "frequencyHz": 77.781746,
      "startTick": 154800,
      "durationTicks": 240,
      "endTick": 155040,
      "startSeconds": 120.938,
      "durationSeconds": 0.188,
      "endSeconds": 121.125,
      "velocity": 0.8,
      "bendActive": true,
      "instrument": 0
    },
    {
      "id": "id_wh03flrxbmnv3kmnt",
      "pitch": 39,
      "pitchName": "D#2",
      "frequencyHz": 77.781746,
      "startTick": 155040,
      "durationTicks": 120,
      "endTick": 155160,
      "startSeconds": 121.125,
      "durationSeconds": 0.094,
      "endSeconds": 121.219,
      "velocity": 0.8,
      "bendActive": true,
      "instrument": 0
    },
    {
      "id": "id_r5sgofs67mnv3kmnt",
      "pitch": 56,
      "pitchName": "G#3",
      "frequencyHz": 207.652349,
      "startTick": 155040,
      "durationTicks": 240,
      "endTick": 155280,
      "startSeconds": 121.125,
      "durationSeconds": 0.188,
      "endSeconds": 121.313,
      "velocity": 0.8,
      "bendActive": true,
      "instrument": 0
    },
    {
      "id": "id_p5zsndp2tmnv3kmnt",
      "pitch": 58,
      "pitchName": "A#3",
      "frequencyHz": 233.081881,
      "startTick": 155040,
      "durationTicks": 120,
      "endTick": 155160,
      "startSeconds": 121.125,
      "durationSeconds": 0.094,
      "endSeconds": 121.219,
      "velocity": 0.25,
      "bendActive": true,
      "instrument": 1
    },
    {
      "id": "id_049fub4vsmnv3kmnt",
      "pitch": 64,
      "pitchName": "E4",
      "frequencyHz": 329.627557,
      "startTick": 155040,
      "durationTicks": 240,
      "endTick": 155280,
      "startSeconds": 121.125,
      "durationSeconds": 0.188,
      "endSeconds": 121.313,
      "velocity": 0.8,
      "bendActive": true,
      "instrument": 0
    },
    {
      "id": "id_v58e0wve0mnv3kmnt",
      "pitch": 66,
      "pitchName": "F#4",
      "frequencyHz": 369.994423,
      "startTick": 155040,
      "durationTicks": 120,
      "endTick": 155160,
      "startSeconds": 121.125,
      "durationSeconds": 0.094,
      "endSeconds": 121.219,
      "velocity": 0.25,
      "bendActive": true,
      "instrument": 1
    },
    {
      "id": "id_csc9lad73mnv3kmnt",
      "pitch": 71,
      "pitchName": "B4",
      "frequencyHz": 493.883301,
      "startTick": 155040,
      "durationTicks": 240,
      "endTick": 155280,
      "startSeconds": 121.125,
      "durationSeconds": 0.188,
      "endSeconds": 121.313,
      "velocity": 0.8,
      "bendActive": true,
      "instrument": 0
    },
    {
      "id": "id_mf3pw0j45mnv3kmnt",
      "pitch": 54,
      "pitchName": "F#3",
      "frequencyHz": 184.997211,
      "startTick": 155280,
      "durationTicks": 240,
      "endTick": 155520,
      "startSeconds": 121.313,
      "durationSeconds": 0.188,
      "endSeconds": 121.5,
      "velocity": 0.8,
      "bendActive": true,
      "instrument": 0
    },
    {
      "id": "id_awgrvceowmnv3kmnt",
      "pitch": 57,
      "pitchName": "A3",
      "frequencyHz": 220,
      "startTick": 155280,
      "durationTicks": 240,
      "endTick": 155520,
      "startSeconds": 121.313,
      "durationSeconds": 0.188,
      "endSeconds": 121.5,
      "velocity": 0.25,
      "bendActive": true,
      "instrument": 1
    },
    {
      "id": "id_bb1gxnph3mnv3kmnt",
      "pitch": 61,
      "pitchName": "C#4",
      "frequencyHz": 277.182631,
      "startTick": 155280,
      "durationTicks": 240,
      "endTick": 155520,
      "startSeconds": 121.313,
      "durationSeconds": 0.188,
      "endSeconds": 121.5,
      "velocity": 0.25,
      "bendActive": true,
      "instrument": 1
    },
    {
      "id": "id_p92ey01exmnv3kmnt",
      "pitch": 35,
      "pitchName": "B1",
      "frequencyHz": 61.735413,
      "startTick": 155520,
      "durationTicks": 240,
      "endTick": 155760,
      "startSeconds": 121.5,
      "durationSeconds": 0.188,
      "endSeconds": 121.688,
      "velocity": 0.8,
      "bendActive": true,
      "instrument": 0
    },
    {
      "id": "id_3ha5sjhoamnv3kmnt",
      "pitch": 54,
      "pitchName": "F#3",
      "frequencyHz": 184.997211,
      "startTick": 155520,
      "durationTicks": 240,
      "endTick": 155760,
      "startSeconds": 121.5,
      "durationSeconds": 0.188,
      "endSeconds": 121.688,
      "velocity": 0.8,
      "bendActive": true,
      "instrument": 0
    },
    {
      "id": "id_prii8s5zbmnv3kmnt",
      "pitch": 62,
      "pitchName": "D4",
      "frequencyHz": 293.664768,
      "startTick": 155520,
      "durationTicks": 240,
      "endTick": 155760,
      "startSeconds": 121.5,
      "durationSeconds": 0.188,
      "endSeconds": 121.688,
      "velocity": 0.8,
      "bendActive": true,
      "instrument": 0
    },
    {
      "id": "id_ylpu4airqmnv3kmnt",
      "pitch": 66,
      "pitchName": "F#4",
      "frequencyHz": 369.994423,
      "startTick": 155520,
      "durationTicks": 240,
      "endTick": 155760,
      "startSeconds": 121.5,
      "durationSeconds": 0.188,
      "endSeconds": 121.688,
      "velocity": 0.25,
      "bendActive": true,
      "instrument": 1
    },
    {
      "id": "id_1lsp40j8wmnv3kmnt",
      "pitch": 69,
      "pitchName": "A4",
      "frequencyHz": 440,
      "startTick": 155520,
      "durationTicks": 240,
      "endTick": 155760,
      "startSeconds": 121.5,
      "durationSeconds": 0.188,
      "endSeconds": 121.688,
      "velocity": 0.8,
      "bendActive": true,
      "instrument": 0
    },
    {
      "id": "id_raxy13rxrmnv3kmnt",
      "pitch": 35,
      "pitchName": "B1",
      "frequencyHz": 61.735413,
      "startTick": 155760,
      "durationTicks": 120,
      "endTick": 155880,
      "startSeconds": 121.688,
      "durationSeconds": 0.094,
      "endSeconds": 121.781,
      "velocity": 0.8,
      "bendActive": true,
      "instrument": 0
    },
    {
      "id": "id_obgg31r55mnv3kmnt",
      "pitch": 54,
      "pitchName": "F#3",
      "frequencyHz": 184.997211,
      "startTick": 155760,
      "durationTicks": 120,
      "endTick": 155880,
      "startSeconds": 121.688,
      "durationSeconds": 0.094,
      "endSeconds": 121.781,
      "velocity": 0.8,
      "bendActive": true,
      "instrument": 0
    },
    {
      "id": "id_r0n0hsskjmnv3kmnt",
      "pitch": 62,
      "pitchName": "D4",
      "frequencyHz": 293.664768,
      "startTick": 155760,
      "durationTicks": 120,
      "endTick": 155880,
      "startSeconds": 121.688,
      "durationSeconds": 0.094,
      "endSeconds": 121.781,
      "velocity": 0.8,
      "bendActive": true,
      "instrument": 0
    },
    {
      "id": "id_42akmt8zomnv3kmnt",
      "pitch": 66,
      "pitchName": "F#4",
      "frequencyHz": 369.994423,
      "startTick": 155760,
      "durationTicks": 120,
      "endTick": 155880,
      "startSeconds": 121.688,
      "durationSeconds": 0.094,
      "endSeconds": 121.781,
      "velocity": 0.25,
      "bendActive": true,
      "instrument": 1
    },
    {
      "id": "id_vyaigzpgsmnv3kmnt",
      "pitch": 69,
      "pitchName": "A4",
      "frequencyHz": 440,
      "startTick": 155760,
      "durationTicks": 120,
      "endTick": 155880,
      "startSeconds": 121.688,
      "durationSeconds": 0.094,
      "endSeconds": 121.781,
      "velocity": 0.8,
      "bendActive": true,
      "instrument": 0
    },
    {
      "id": "id_dbriytpfnmnv3kmnt",
      "pitch": 35,
      "pitchName": "B1",
      "frequencyHz": 61.735413,
      "startTick": 156000,
      "durationTicks": 120,
      "endTick": 156120,
      "startSeconds": 121.875,
      "durationSeconds": 0.094,
      "endSeconds": 121.969,
      "velocity": 0.8,
      "bendActive": true,
      "instrument": 0
    },
    {
      "id": "id_3paya112cmnv3kmnt",
      "pitch": 54,
      "pitchName": "F#3",
      "frequencyHz": 184.997211,
      "startTick": 156000,
      "durationTicks": 120,
      "endTick": 156120,
      "startSeconds": 121.875,
      "durationSeconds": 0.094,
      "endSeconds": 121.969,
      "velocity": 0.8,
      "bendActive": true,
      "instrument": 0
    },
    {
      "id": "id_qej6tkdhfmnv3kmnt",
      "pitch": 62,
      "pitchName": "D4",
      "frequencyHz": 293.664768,
      "startTick": 156000,
      "durationTicks": 120,
      "endTick": 156120,
      "startSeconds": 121.875,
      "durationSeconds": 0.094,
      "endSeconds": 121.969,
      "velocity": 0.8,
      "bendActive": true,
      "instrument": 0
    },
    {
      "id": "id_ct2kwr7vamnv3kmnt",
      "pitch": 66,
      "pitchName": "F#4",
      "frequencyHz": 369.994423,
      "startTick": 156000,
      "durationTicks": 120,
      "endTick": 156120,
      "startSeconds": 121.875,
      "durationSeconds": 0.094,
      "endSeconds": 121.969,
      "velocity": 0.25,
      "bendActive": true,
      "instrument": 1
    },
    {
      "id": "id_8psreyzezmnv3kmnt",
      "pitch": 69,
      "pitchName": "A4",
      "frequencyHz": 440,
      "startTick": 156000,
      "durationTicks": 120,
      "endTick": 156120,
      "startSeconds": 121.875,
      "durationSeconds": 0.094,
      "endSeconds": 121.969,
      "velocity": 0.8,
      "bendActive": true,
      "instrument": 0
    },
    {
      "id": "id_rftygtejwmnv3kmnt",
      "pitch": 35,
      "pitchName": "B1",
      "frequencyHz": 61.735413,
      "startTick": 156240,
      "durationTicks": 240,
      "endTick": 156480,
      "startSeconds": 122.063,
      "durationSeconds": 0.188,
      "endSeconds": 122.25,
      "velocity": 0.8,
      "bendActive": true,
      "instrument": 0
    },
    {
      "id": "id_d6hn3fes9mnv3kmnt",
      "pitch": 54,
      "pitchName": "F#3",
      "frequencyHz": 184.997211,
      "startTick": 156240,
      "durationTicks": 240,
      "endTick": 156480,
      "startSeconds": 122.063,
      "durationSeconds": 0.188,
      "endSeconds": 122.25,
      "velocity": 0.8,
      "bendActive": true,
      "instrument": 0
    },
    {
      "id": "id_d34xmaqfimnv3kmnt",
      "pitch": 62,
      "pitchName": "D4",
      "frequencyHz": 293.664768,
      "startTick": 156240,
      "durationTicks": 240,
      "endTick": 156480,
      "startSeconds": 122.063,
      "durationSeconds": 0.188,
      "endSeconds": 122.25,
      "velocity": 0.8,
      "bendActive": true,
      "instrument": 0
    },
    {
      "id": "id_g8j1by1mrmnv3kmnt",
      "pitch": 66,
      "pitchName": "F#4",
      "frequencyHz": 369.994423,
      "startTick": 156240,
      "durationTicks": 240,
      "endTick": 156480,
      "startSeconds": 122.063,
      "durationSeconds": 0.188,
      "endSeconds": 122.25,
      "velocity": 0.25,
      "bendActive": true,
      "instrument": 1
    },
    {
      "id": "id_tc8wle4fxmnv3kmnt",
      "pitch": 69,
      "pitchName": "A4",
      "frequencyHz": 440,
      "startTick": 156240,
      "durationTicks": 240,
      "endTick": 156480,
      "startSeconds": 122.063,
      "durationSeconds": 0.188,
      "endSeconds": 122.25,
      "velocity": 0.8,
      "bendActive": true,
      "instrument": 0
    },
    {
      "id": "id_kyoxpmlhgmnv3kmnt",
      "pitch": 35,
      "pitchName": "B1",
      "frequencyHz": 61.735413,
      "startTick": 156480,
      "durationTicks": 120,
      "endTick": 156600,
      "startSeconds": 122.25,
      "durationSeconds": 0.094,
      "endSeconds": 122.344,
      "velocity": 0.8,
      "bendActive": true,
      "instrument": 0
    },
    {
      "id": "id_t3rqrjlgomnv3kmnt",
      "pitch": 54,
      "pitchName": "F#3",
      "frequencyHz": 184.997211,
      "startTick": 156480,
      "durationTicks": 120,
      "endTick": 156600,
      "startSeconds": 122.25,
      "durationSeconds": 0.094,
      "endSeconds": 122.344,
      "velocity": 0.8,
      "bendActive": true,
      "instrument": 0
    },
    {
      "id": "id_r21qynvc2mnv3kmnt",
      "pitch": 62,
      "pitchName": "D4",
      "frequencyHz": 293.664768,
      "startTick": 156480,
      "durationTicks": 120,
      "endTick": 156600,
      "startSeconds": 122.25,
      "durationSeconds": 0.094,
      "endSeconds": 122.344,
      "velocity": 0.8,
      "bendActive": true,
      "instrument": 0
    },
    {
      "id": "id_d0bmo3w7dmnv3kmnt",
      "pitch": 66,
      "pitchName": "F#4",
      "frequencyHz": 369.994423,
      "startTick": 156480,
      "durationTicks": 120,
      "endTick": 156600,
      "startSeconds": 122.25,
      "durationSeconds": 0.094,
      "endSeconds": 122.344,
      "velocity": 0.25,
      "bendActive": true,
      "instrument": 1
    },
    {
      "id": "id_xmtdf1514mnv3kmnt",
      "pitch": 69,
      "pitchName": "A4",
      "frequencyHz": 440,
      "startTick": 156480,
      "durationTicks": 120,
      "endTick": 156600,
      "startSeconds": 122.25,
      "durationSeconds": 0.094,
      "endSeconds": 122.344,
      "velocity": 0.8,
      "bendActive": true,
      "instrument": 0
    },
    {
      "id": "id_sp8rh592wmnv3kmnt",
      "pitch": 35,
      "pitchName": "B1",
      "frequencyHz": 61.735413,
      "startTick": 156720,
      "durationTicks": 240,
      "endTick": 156960,
      "startSeconds": 122.438,
      "durationSeconds": 0.188,
      "endSeconds": 122.625,
      "velocity": 0.8,
      "bendActive": true,
      "instrument": 0
    },
    {
      "id": "id_8ah40l6l1mnv3kmnt",
      "pitch": 54,
      "pitchName": "F#3",
      "frequencyHz": 184.997211,
      "startTick": 156720,
      "durationTicks": 240,
      "endTick": 156960,
      "startSeconds": 122.438,
      "durationSeconds": 0.188,
      "endSeconds": 122.625,
      "velocity": 0.8,
      "bendActive": true,
      "instrument": 0
    },
    {
      "id": "id_1a5j186himnv3kmnt",
      "pitch": 62,
      "pitchName": "D4",
      "frequencyHz": 293.664768,
      "startTick": 156720,
      "durationTicks": 240,
      "endTick": 156960,
      "startSeconds": 122.438,
      "durationSeconds": 0.188,
      "endSeconds": 122.625,
      "velocity": 0.8,
      "bendActive": true,
      "instrument": 0
    },
    {
      "id": "id_f9z0u6yaymnv3kmnt",
      "pitch": 66,
      "pitchName": "F#4",
      "frequencyHz": 369.994423,
      "startTick": 156720,
      "durationTicks": 240,
      "endTick": 156960,
      "startSeconds": 122.438,
      "durationSeconds": 0.188,
      "endSeconds": 122.625,
      "velocity": 0.25,
      "bendActive": true,
      "instrument": 1
    },
    {
      "id": "id_6mqf6sqvpmnv3kmnt",
      "pitch": 69,
      "pitchName": "A4",
      "frequencyHz": 440,
      "startTick": 156720,
      "durationTicks": 240,
      "endTick": 156960,
      "startSeconds": 122.438,
      "durationSeconds": 0.188,
      "endSeconds": 122.625,
      "velocity": 0.8,
      "bendActive": true,
      "instrument": 0
    },
    {
      "id": "id_dcpy9gcbgmnv3kmnt",
      "pitch": 47,
      "pitchName": "B2",
      "frequencyHz": 123.470825,
      "startTick": 156960,
      "durationTicks": 240,
      "endTick": 157200,
      "startSeconds": 122.625,
      "durationSeconds": 0.188,
      "endSeconds": 122.813,
      "velocity": 0.8,
      "bendActive": true,
      "instrument": 0
    },
    {
      "id": "id_maez85bm7mnv3kmnt",
      "pitch": 59,
      "pitchName": "B3",
      "frequencyHz": 246.941651,
      "startTick": 156960,
      "durationTicks": 240,
      "endTick": 157200,
      "startSeconds": 122.625,
      "durationSeconds": 0.188,
      "endSeconds": 122.813,
      "velocity": 0.8,
      "bendActive": true,
      "instrument": 0
    },
    {
      "id": "id_tfk2q2aljmnv3kmnt",
      "pitch": 62,
      "pitchName": "D4",
      "frequencyHz": 293.664768,
      "startTick": 156960,
      "durationTicks": 240,
      "endTick": 157200,
      "startSeconds": 122.625,
      "durationSeconds": 0.188,
      "endSeconds": 122.813,
      "velocity": 0.25,
      "bendActive": true,
      "instrument": 1
    },
    {
      "id": "id_e3vdpfwzmmnv3kmnt",
      "pitch": 66,
      "pitchName": "F#4",
      "frequencyHz": 369.994423,
      "startTick": 156960,
      "durationTicks": 240,
      "endTick": 157200,
      "startSeconds": 122.625,
      "durationSeconds": 0.188,
      "endSeconds": 122.813,
      "velocity": 0.8,
      "bendActive": true,
      "instrument": 0
    },
    {
      "id": "id_rwwn9lsfkmnv3kmnt",
      "pitch": 47,
      "pitchName": "B2",
      "frequencyHz": 123.470825,
      "startTick": 157200,
      "durationTicks": 120,
      "endTick": 157320,
      "startSeconds": 122.813,
      "durationSeconds": 0.094,
      "endSeconds": 122.906,
      "velocity": 0.8,
      "bendActive": true,
      "instrument": 0
    },
    {
      "id": "id_rlb02e350mnv3kmnt",
      "pitch": 59,
      "pitchName": "B3",
      "frequencyHz": 246.941651,
      "startTick": 157200,
      "durationTicks": 120,
      "endTick": 157320,
      "startSeconds": 122.813,
      "durationSeconds": 0.094,
      "endSeconds": 122.906,
      "velocity": 0.8,
      "bendActive": true,
      "instrument": 0
    },
    {
      "id": "id_v2p59a44wmnv3kmnt",
      "pitch": 62,
      "pitchName": "D4",
      "frequencyHz": 293.664768,
      "startTick": 157200,
      "durationTicks": 120,
      "endTick": 157320,
      "startSeconds": 122.813,
      "durationSeconds": 0.094,
      "endSeconds": 122.906,
      "velocity": 0.25,
      "bendActive": true,
      "instrument": 1
    },
    {
      "id": "id_p7qj7m2d0mnv3kmnt",
      "pitch": 66,
      "pitchName": "F#4",
      "frequencyHz": 369.994423,
      "startTick": 157200,
      "durationTicks": 120,
      "endTick": 157320,
      "startSeconds": 122.813,
      "durationSeconds": 0.094,
      "endSeconds": 122.906,
      "velocity": 0.8,
      "bendActive": true,
      "instrument": 0
    },
    {
      "id": "id_reowbitwymnv3kmnt",
      "pitch": 47,
      "pitchName": "B2",
      "frequencyHz": 123.470825,
      "startTick": 157440,
      "durationTicks": 240,
      "endTick": 157680,
      "startSeconds": 123,
      "durationSeconds": 0.188,
      "endSeconds": 123.188,
      "velocity": 0.8,
      "bendActive": true,
      "instrument": 0
    },
    {
      "id": "id_2x8tn2cjemnv3kmnt",
      "pitch": 59,
      "pitchName": "B3",
      "frequencyHz": 246.941651,
      "startTick": 157440,
      "durationTicks": 240,
      "endTick": 157680,
      "startSeconds": 123,
      "durationSeconds": 0.188,
      "endSeconds": 123.188,
      "velocity": 0.8,
      "bendActive": true,
      "instrument": 0
    },
    {
      "id": "id_8ra4oecp4mnv3kmnt",
      "pitch": 62,
      "pitchName": "D4",
      "frequencyHz": 293.664768,
      "startTick": 157440,
      "durationTicks": 240,
      "endTick": 157680,
      "startSeconds": 123,
      "durationSeconds": 0.188,
      "endSeconds": 123.188,
      "velocity": 0.25,
      "bendActive": true,
      "instrument": 1
    },
    {
      "id": "id_2f5x6xpkimnv3kmnt",
      "pitch": 66,
      "pitchName": "F#4",
      "frequencyHz": 369.994423,
      "startTick": 157440,
      "durationTicks": 240,
      "endTick": 157680,
      "startSeconds": 123,
      "durationSeconds": 0.188,
      "endSeconds": 123.188,
      "velocity": 0.8,
      "bendActive": true,
      "instrument": 0
    },
    {
      "id": "id_drklwjmvmmnv3kmnt",
      "pitch": 47,
      "pitchName": "B2",
      "frequencyHz": 123.470825,
      "startTick": 157680,
      "durationTicks": 240,
      "endTick": 157920,
      "startSeconds": 123.188,
      "durationSeconds": 0.188,
      "endSeconds": 123.375,
      "velocity": 0.8,
      "bendActive": true,
      "instrument": 0
    },
    {
      "id": "id_8mo8lqok3mnv3kmnt",
      "pitch": 59,
      "pitchName": "B3",
      "frequencyHz": 246.941651,
      "startTick": 157680,
      "durationTicks": 240,
      "endTick": 157920,
      "startSeconds": 123.188,
      "durationSeconds": 0.188,
      "endSeconds": 123.375,
      "velocity": 0.8,
      "bendActive": true,
      "instrument": 0
    },
    {
      "id": "id_q28823s43mnv3kmnt",
      "pitch": 62,
      "pitchName": "D4",
      "frequencyHz": 293.664768,
      "startTick": 157680,
      "durationTicks": 240,
      "endTick": 157920,
      "startSeconds": 123.188,
      "durationSeconds": 0.188,
      "endSeconds": 123.375,
      "velocity": 0.25,
      "bendActive": true,
      "instrument": 1
    },
    {
      "id": "id_hffzcoywcmnv3kmnt",
      "pitch": 66,
      "pitchName": "F#4",
      "frequencyHz": 369.994423,
      "startTick": 157680,
      "durationTicks": 240,
      "endTick": 157920,
      "startSeconds": 123.188,
      "durationSeconds": 0.188,
      "endSeconds": 123.375,
      "velocity": 0.8,
      "bendActive": true,
      "instrument": 0
    },
    {
      "id": "id_p4xljycotmnv3kmnt",
      "pitch": 47,
      "pitchName": "B2",
      "frequencyHz": 123.470825,
      "startTick": 157920,
      "durationTicks": 120,
      "endTick": 158040,
      "startSeconds": 123.375,
      "durationSeconds": 0.094,
      "endSeconds": 123.469,
      "velocity": 0.8,
      "bendActive": true,
      "instrument": 0
    },
    {
      "id": "id_w22f9nvlumnv3kmnt",
      "pitch": 59,
      "pitchName": "B3",
      "frequencyHz": 246.941651,
      "startTick": 157920,
      "durationTicks": 120,
      "endTick": 158040,
      "startSeconds": 123.375,
      "durationSeconds": 0.094,
      "endSeconds": 123.469,
      "velocity": 0.8,
      "bendActive": true,
      "instrument": 0
    },
    {
      "id": "id_aug7xhtaimnv3kmnt",
      "pitch": 62,
      "pitchName": "D4",
      "frequencyHz": 293.664768,
      "startTick": 157920,
      "durationTicks": 120,
      "endTick": 158040,
      "startSeconds": 123.375,
      "durationSeconds": 0.094,
      "endSeconds": 123.469,
      "velocity": 0.25,
      "bendActive": true,
      "instrument": 1
    },
    {
      "id": "id_kfdjeza1vmnv3kmnt",
      "pitch": 66,
      "pitchName": "F#4",
      "frequencyHz": 369.994423,
      "startTick": 157920,
      "durationTicks": 120,
      "endTick": 158040,
      "startSeconds": 123.375,
      "durationSeconds": 0.094,
      "endSeconds": 123.469,
      "velocity": 0.8,
      "bendActive": true,
      "instrument": 0
    },
    {
      "id": "id_plarfama6mnv3kmnt",
      "pitch": 45,
      "pitchName": "A2",
      "frequencyHz": 110,
      "startTick": 158160,
      "durationTicks": 240,
      "endTick": 158400,
      "startSeconds": 123.563,
      "durationSeconds": 0.188,
      "endSeconds": 123.75,
      "velocity": 0.8,
      "bendActive": true,
      "instrument": 0
    },
    {
      "id": "id_ufl1314yhmnv3kmnt",
      "pitch": 54,
      "pitchName": "F#3",
      "frequencyHz": 184.997211,
      "startTick": 158160,
      "durationTicks": 240,
      "endTick": 158400,
      "startSeconds": 123.563,
      "durationSeconds": 0.188,
      "endSeconds": 123.75,
      "velocity": 0.8,
      "bendActive": true,
      "instrument": 0
    },
    {
      "id": "id_kxmquoj35mnv3kmnt",
      "pitch": 60,
      "pitchName": "C4",
      "frequencyHz": 261.625565,
      "startTick": 158160,
      "durationTicks": 240,
      "endTick": 158400,
      "startSeconds": 123.563,
      "durationSeconds": 0.188,
      "endSeconds": 123.75,
      "velocity": 0.25,
      "bendActive": true,
      "instrument": 1
    },
    {
      "id": "id_0hegzqa6bmnv3kmnt",
      "pitch": 64,
      "pitchName": "E4",
      "frequencyHz": 329.627557,
      "startTick": 158160,
      "durationTicks": 240,
      "endTick": 158400,
      "startSeconds": 123.563,
      "durationSeconds": 0.188,
      "endSeconds": 123.75,
      "velocity": 0.25,
      "bendActive": true,
      "instrument": 1
    },
    {
      "id": "id_hsdp907bpmnv3kmnt",
      "pitch": 66,
      "pitchName": "F#4",
      "frequencyHz": 369.994423,
      "startTick": 158160,
      "durationTicks": 240,
      "endTick": 158400,
      "startSeconds": 123.563,
      "durationSeconds": 0.188,
      "endSeconds": 123.75,
      "velocity": 0.8,
      "bendActive": true,
      "instrument": 0
    },
    {
      "id": "id_zko7ozfytmnv3kmnt",
      "pitch": 42,
      "pitchName": "F#2",
      "frequencyHz": 92.498606,
      "startTick": 158400,
      "durationTicks": 240,
      "endTick": 158640,
      "startSeconds": 123.75,
      "durationSeconds": 0.188,
      "endSeconds": 123.938,
      "velocity": 0.8,
      "bendActive": true,
      "instrument": 0
    },
    {
      "id": "id_tld27eafdmnv3kmnt",
      "pitch": 58,
      "pitchName": "A#3",
      "frequencyHz": 233.081881,
      "startTick": 158400,
      "durationTicks": 240,
      "endTick": 158640,
      "startSeconds": 123.75,
      "durationSeconds": 0.188,
      "endSeconds": 123.938,
      "velocity": 0.25,
      "bendActive": true,
      "instrument": 1
    },
    {
      "id": "id_492siljatmnv3kmnt",
      "pitch": 58,
      "pitchName": "A#3",
      "frequencyHz": 233.081881,
      "startTick": 158400,
      "durationTicks": 240,
      "endTick": 158640,
      "startSeconds": 123.75,
      "durationSeconds": 0.188,
      "endSeconds": 123.938,
      "velocity": 0.8,
      "bendActive": true,
      "instrument": 0
    },
    {
      "id": "id_pqalb24vhmnv3kmnt",
      "pitch": 63,
      "pitchName": "D#4",
      "frequencyHz": 311.126984,
      "startTick": 158400,
      "durationTicks": 240,
      "endTick": 158640,
      "startSeconds": 123.75,
      "durationSeconds": 0.188,
      "endSeconds": 123.938,
      "velocity": 0.25,
      "bendActive": true,
      "instrument": 1
    },
    {
      "id": "id_14pntq86zmnv3kmnt",
      "pitch": 63,
      "pitchName": "D#4",
      "frequencyHz": 311.126984,
      "startTick": 158400,
      "durationTicks": 240,
      "endTick": 158640,
      "startSeconds": 123.75,
      "durationSeconds": 0.188,
      "endSeconds": 123.938,
      "velocity": 0.8,
      "bendActive": true,
      "instrument": 0
    },
    {
      "id": "id_f3ag25bc9mnv3kmnt",
      "pitch": 42,
      "pitchName": "F#2",
      "frequencyHz": 92.498606,
      "startTick": 158640,
      "durationTicks": 120,
      "endTick": 158760,
      "startSeconds": 123.938,
      "durationSeconds": 0.094,
      "endSeconds": 124.031,
      "velocity": 0.8,
      "bendActive": true,
      "instrument": 0
    },
    {
      "id": "id_5fepfqa25mnv3kmnt",
      "pitch": 58,
      "pitchName": "A#3",
      "frequencyHz": 233.081881,
      "startTick": 158640,
      "durationTicks": 120,
      "endTick": 158760,
      "startSeconds": 123.938,
      "durationSeconds": 0.094,
      "endSeconds": 124.031,
      "velocity": 0.25,
      "bendActive": true,
      "instrument": 1
    },
    {
      "id": "id_tjbogj8kqmnv3kmnt",
      "pitch": 58,
      "pitchName": "A#3",
      "frequencyHz": 233.081881,
      "startTick": 158640,
      "durationTicks": 120,
      "endTick": 158760,
      "startSeconds": 123.938,
      "durationSeconds": 0.094,
      "endSeconds": 124.031,
      "velocity": 0.8,
      "bendActive": true,
      "instrument": 0
    },
    {
      "id": "id_59mi2q306mnv3kmnt",
      "pitch": 63,
      "pitchName": "D#4",
      "frequencyHz": 311.126984,
      "startTick": 158640,
      "durationTicks": 120,
      "endTick": 158760,
      "startSeconds": 123.938,
      "durationSeconds": 0.094,
      "endSeconds": 124.031,
      "velocity": 0.25,
      "bendActive": true,
      "instrument": 1
    },
    {
      "id": "id_f8r154x4hmnv3kmnt",
      "pitch": 63,
      "pitchName": "D#4",
      "frequencyHz": 311.126984,
      "startTick": 158640,
      "durationTicks": 120,
      "endTick": 158760,
      "startSeconds": 123.938,
      "durationSeconds": 0.094,
      "endSeconds": 124.031,
      "velocity": 0.8,
      "bendActive": true,
      "instrument": 0
    },
    {
      "id": "id_axim0sa0dmnv3kmnt",
      "pitch": 42,
      "pitchName": "F#2",
      "frequencyHz": 92.498606,
      "startTick": 158880,
      "durationTicks": 120,
      "endTick": 159000,
      "startSeconds": 124.125,
      "durationSeconds": 0.094,
      "endSeconds": 124.219,
      "velocity": 0.8,
      "bendActive": true,
      "instrument": 0
    },
    {
      "id": "id_i512fcn3nmnv3kmnt",
      "pitch": 58,
      "pitchName": "A#3",
      "frequencyHz": 233.081881,
      "startTick": 158880,
      "durationTicks": 120,
      "endTick": 159000,
      "startSeconds": 124.125,
      "durationSeconds": 0.094,
      "endSeconds": 124.219,
      "velocity": 0.25,
      "bendActive": true,
      "instrument": 1
    },
    {
      "id": "id_tos4y0rwmmnv3kmnt",
      "pitch": 58,
      "pitchName": "A#3",
      "frequencyHz": 233.081881,
      "startTick": 158880,
      "durationTicks": 120,
      "endTick": 159000,
      "startSeconds": 124.125,
      "durationSeconds": 0.094,
      "endSeconds": 124.219,
      "velocity": 0.8,
      "bendActive": true,
      "instrument": 0
    },
    {
      "id": "id_8q42c6lqkmnv3kmnt",
      "pitch": 63,
      "pitchName": "D#4",
      "frequencyHz": 311.126984,
      "startTick": 158880,
      "durationTicks": 120,
      "endTick": 159000,
      "startSeconds": 124.125,
      "durationSeconds": 0.094,
      "endSeconds": 124.219,
      "velocity": 0.25,
      "bendActive": true,
      "instrument": 1
    },
    {
      "id": "id_wz1x1sojtmnv3kmnt",
      "pitch": 63,
      "pitchName": "D#4",
      "frequencyHz": 311.126984,
      "startTick": 158880,
      "durationTicks": 120,
      "endTick": 159000,
      "startSeconds": 124.125,
      "durationSeconds": 0.094,
      "endSeconds": 124.219,
      "velocity": 0.8,
      "bendActive": true,
      "instrument": 0
    },
    {
      "id": "id_ts51lrooomnv3kmnt",
      "pitch": 42,
      "pitchName": "F#2",
      "frequencyHz": 92.498606,
      "startTick": 159120,
      "durationTicks": 240,
      "endTick": 159360,
      "startSeconds": 124.313,
      "durationSeconds": 0.188,
      "endSeconds": 124.5,
      "velocity": 0.8,
      "bendActive": true,
      "instrument": 0
    },
    {
      "id": "id_ttld5ds09mnv3kmnt",
      "pitch": 58,
      "pitchName": "A#3",
      "frequencyHz": 233.081881,
      "startTick": 159120,
      "durationTicks": 240,
      "endTick": 159360,
      "startSeconds": 124.313,
      "durationSeconds": 0.188,
      "endSeconds": 124.5,
      "velocity": 0.25,
      "bendActive": true,
      "instrument": 1
    },
    {
      "id": "id_439aq91hrmnv3kmnt",
      "pitch": 58,
      "pitchName": "A#3",
      "frequencyHz": 233.081881,
      "startTick": 159120,
      "durationTicks": 240,
      "endTick": 159360,
      "startSeconds": 124.313,
      "durationSeconds": 0.188,
      "endSeconds": 124.5,
      "velocity": 0.8,
      "bendActive": true,
      "instrument": 0
    },
    {
      "id": "id_lxysyg0bamnv3kmnt",
      "pitch": 63,
      "pitchName": "D#4",
      "frequencyHz": 311.126984,
      "startTick": 159120,
      "durationTicks": 240,
      "endTick": 159360,
      "startSeconds": 124.313,
      "durationSeconds": 0.188,
      "endSeconds": 124.5,
      "velocity": 0.25,
      "bendActive": true,
      "instrument": 1
    },
    {
      "id": "id_itvjv67yxmnv3kmnt",
      "pitch": 63,
      "pitchName": "D#4",
      "frequencyHz": 311.126984,
      "startTick": 159120,
      "durationTicks": 240,
      "endTick": 159360,
      "startSeconds": 124.313,
      "durationSeconds": 0.188,
      "endSeconds": 124.5,
      "velocity": 0.8,
      "bendActive": true,
      "instrument": 0
    },
    {
      "id": "id_49otsnh2xmnv3kmnt",
      "pitch": 42,
      "pitchName": "F#2",
      "frequencyHz": 92.498606,
      "startTick": 159360,
      "durationTicks": 120,
      "endTick": 159480,
      "startSeconds": 124.5,
      "durationSeconds": 0.094,
      "endSeconds": 124.594,
      "velocity": 0.8,
      "bendActive": true,
      "instrument": 0
    },
    {
      "id": "id_m7wbfitssmnv3kmnt",
      "pitch": 58,
      "pitchName": "A#3",
      "frequencyHz": 233.081881,
      "startTick": 159360,
      "durationTicks": 120,
      "endTick": 159480,
      "startSeconds": 124.5,
      "durationSeconds": 0.094,
      "endSeconds": 124.594,
      "velocity": 0.25,
      "bendActive": true,
      "instrument": 1
    },
    {
      "id": "id_6ycfung0gmnv3kmnt",
      "pitch": 58,
      "pitchName": "A#3",
      "frequencyHz": 233.081881,
      "startTick": 159360,
      "durationTicks": 120,
      "endTick": 159480,
      "startSeconds": 124.5,
      "durationSeconds": 0.094,
      "endSeconds": 124.594,
      "velocity": 0.8,
      "bendActive": true,
      "instrument": 0
    },
    {
      "id": "id_dz9e3cs09mnv3kmnt",
      "pitch": 63,
      "pitchName": "D#4",
      "frequencyHz": 311.126984,
      "startTick": 159360,
      "durationTicks": 120,
      "endTick": 159480,
      "startSeconds": 124.5,
      "durationSeconds": 0.094,
      "endSeconds": 124.594,
      "velocity": 0.25,
      "bendActive": true,
      "instrument": 1
    },
    {
      "id": "id_e7t5sam2mmnv3kmnt",
      "pitch": 63,
      "pitchName": "D#4",
      "frequencyHz": 311.126984,
      "startTick": 159360,
      "durationTicks": 120,
      "endTick": 159480,
      "startSeconds": 124.5,
      "durationSeconds": 0.094,
      "endSeconds": 124.594,
      "velocity": 0.8,
      "bendActive": true,
      "instrument": 0
    },
    {
      "id": "id_f3og1hlo1mnv3kmnt",
      "pitch": 44,
      "pitchName": "G#2",
      "frequencyHz": 103.826174,
      "startTick": 159600,
      "durationTicks": 120,
      "endTick": 159720,
      "startSeconds": 124.688,
      "durationSeconds": 0.094,
      "endSeconds": 124.781,
      "velocity": 0.8,
      "bendActive": true,
      "instrument": 0
    },
    {
      "id": "id_lf4pn7skemnv3kmnt",
      "pitch": 56,
      "pitchName": "G#3",
      "frequencyHz": 207.652349,
      "startTick": 159600,
      "durationTicks": 120,
      "endTick": 159720,
      "startSeconds": 124.688,
      "durationSeconds": 0.094,
      "endSeconds": 124.781,
      "velocity": 0.8,
      "bendActive": true,
      "instrument": 0
    },
    {
      "id": "id_58xnd54qsmnv3kmnt",
      "pitch": 59,
      "pitchName": "B3",
      "frequencyHz": 246.941651,
      "startTick": 159600,
      "durationTicks": 120,
      "endTick": 159720,
      "startSeconds": 124.688,
      "durationSeconds": 0.094,
      "endSeconds": 124.781,
      "velocity": 0.25,
      "bendActive": true,
      "instrument": 1
    },
    {
      "id": "id_3jnixg3ncmnv3kmnt",
      "pitch": 63,
      "pitchName": "D#4",
      "frequencyHz": 311.126984,
      "startTick": 159600,
      "durationTicks": 120,
      "endTick": 159720,
      "startSeconds": 124.688,
      "durationSeconds": 0.094,
      "endSeconds": 124.781,
      "velocity": 0.8,
      "bendActive": true,
      "instrument": 0
    },
    {
      "id": "id_slby3imx9mnv3kmnt",
      "pitch": 46,
      "pitchName": "A#2",
      "frequencyHz": 116.54094,
      "startTick": 159840,
      "durationTicks": 240,
      "endTick": 160080,
      "startSeconds": 124.875,
      "durationSeconds": 0.188,
      "endSeconds": 125.063,
      "velocity": 0.8,
      "bendActive": true,
      "instrument": 0
    },
    {
      "id": "id_qhcwdd0lomnv3kmnt",
      "pitch": 54,
      "pitchName": "F#3",
      "frequencyHz": 184.997211,
      "startTick": 159840,
      "durationTicks": 240,
      "endTick": 160080,
      "startSeconds": 124.875,
      "durationSeconds": 0.188,
      "endSeconds": 125.063,
      "velocity": 0.8,
      "bendActive": true,
      "instrument": 0
    },
    {
      "id": "id_ktv4nxnawmnv3kmnt",
      "pitch": 61,
      "pitchName": "C#4",
      "frequencyHz": 277.182631,
      "startTick": 159840,
      "durationTicks": 240,
      "endTick": 160080,
      "startSeconds": 124.875,
      "durationSeconds": 0.188,
      "endSeconds": 125.063,
      "velocity": 0.8,
      "bendActive": true,
      "instrument": 0
    },
    {
      "id": "id_c41rvxh6ymnv3kmnt",
      "pitch": 61,
      "pitchName": "C#4",
      "frequencyHz": 277.182631,
      "startTick": 159840,
      "durationTicks": 240,
      "endTick": 160080,
      "startSeconds": 124.875,
      "durationSeconds": 0.188,
      "endSeconds": 125.063,
      "velocity": 0.25,
      "bendActive": true,
      "instrument": 1
    },
    {
      "id": "id_mcn1jjig9mnv3kmnt",
      "pitch": 46,
      "pitchName": "A#2",
      "frequencyHz": 116.54094,
      "startTick": 160080,
      "durationTicks": 120,
      "endTick": 160200,
      "startSeconds": 125.063,
      "durationSeconds": 0.094,
      "endSeconds": 125.156,
      "velocity": 0.8,
      "bendActive": true,
      "instrument": 0
    },
    {
      "id": "id_26jyezkvfmnv3kmnt",
      "pitch": 54,
      "pitchName": "F#3",
      "frequencyHz": 184.997211,
      "startTick": 160080,
      "durationTicks": 120,
      "endTick": 160200,
      "startSeconds": 125.063,
      "durationSeconds": 0.094,
      "endSeconds": 125.156,
      "velocity": 0.8,
      "bendActive": true,
      "instrument": 0
    },
    {
      "id": "id_en0djvetumnv3kmnt",
      "pitch": 61,
      "pitchName": "C#4",
      "frequencyHz": 277.182631,
      "startTick": 160080,
      "durationTicks": 120,
      "endTick": 160200,
      "startSeconds": 125.063,
      "durationSeconds": 0.094,
      "endSeconds": 125.156,
      "velocity": 0.8,
      "bendActive": true,
      "instrument": 0
    },
    {
      "id": "id_gkn2pd1xwmnv3kmnt",
      "pitch": 61,
      "pitchName": "C#4",
      "frequencyHz": 277.182631,
      "startTick": 160080,
      "durationTicks": 120,
      "endTick": 160200,
      "startSeconds": 125.063,
      "durationSeconds": 0.094,
      "endSeconds": 125.156,
      "velocity": 0.25,
      "bendActive": true,
      "instrument": 1
    },
    {
      "id": "id_6386f5x5hmnv3kmnt",
      "pitch": 46,
      "pitchName": "A#2",
      "frequencyHz": 116.54094,
      "startTick": 160320,
      "durationTicks": 240,
      "endTick": 160560,
      "startSeconds": 125.25,
      "durationSeconds": 0.188,
      "endSeconds": 125.438,
      "velocity": 0.8,
      "bendActive": true,
      "instrument": 0
    },
    {
      "id": "id_eawl6sbvwmnv3kmnt",
      "pitch": 54,
      "pitchName": "F#3",
      "frequencyHz": 184.997211,
      "startTick": 160320,
      "durationTicks": 240,
      "endTick": 160560,
      "startSeconds": 125.25,
      "durationSeconds": 0.188,
      "endSeconds": 125.438,
      "velocity": 0.8,
      "bendActive": true,
      "instrument": 0
    },
    {
      "id": "id_ehnxfwabwmnv3kmnt",
      "pitch": 61,
      "pitchName": "C#4",
      "frequencyHz": 277.182631,
      "startTick": 160320,
      "durationTicks": 240,
      "endTick": 160560,
      "startSeconds": 125.25,
      "durationSeconds": 0.188,
      "endSeconds": 125.438,
      "velocity": 0.8,
      "bendActive": true,
      "instrument": 0
    },
    {
      "id": "id_902689yajmnv3kmnt",
      "pitch": 61,
      "pitchName": "C#4",
      "frequencyHz": 277.182631,
      "startTick": 160320,
      "durationTicks": 240,
      "endTick": 160560,
      "startSeconds": 125.25,
      "durationSeconds": 0.188,
      "endSeconds": 125.438,
      "velocity": 0.25,
      "bendActive": true,
      "instrument": 1
    },
    {
      "id": "id_2z6e487oumnv3kmnt",
      "pitch": 46,
      "pitchName": "A#2",
      "frequencyHz": 116.54094,
      "startTick": 160560,
      "durationTicks": 240,
      "endTick": 160800,
      "startSeconds": 125.438,
      "durationSeconds": 0.188,
      "endSeconds": 125.625,
      "velocity": 0.8,
      "bendActive": true,
      "instrument": 0
    },
    {
      "id": "id_x88nl0jpemnv3kmnt",
      "pitch": 54,
      "pitchName": "F#3",
      "frequencyHz": 184.997211,
      "startTick": 160560,
      "durationTicks": 240,
      "endTick": 160800,
      "startSeconds": 125.438,
      "durationSeconds": 0.188,
      "endSeconds": 125.625,
      "velocity": 0.8,
      "bendActive": true,
      "instrument": 0
    },
    {
      "id": "id_v1u8dok4mmnv3kmnt",
      "pitch": 61,
      "pitchName": "C#4",
      "frequencyHz": 277.182631,
      "startTick": 160560,
      "durationTicks": 240,
      "endTick": 160800,
      "startSeconds": 125.438,
      "durationSeconds": 0.188,
      "endSeconds": 125.625,
      "velocity": 0.8,
      "bendActive": true,
      "instrument": 0
    },
    {
      "id": "id_ujz3lf0ommnv3kmnt",
      "pitch": 61,
      "pitchName": "C#4",
      "frequencyHz": 277.182631,
      "startTick": 160560,
      "durationTicks": 240,
      "endTick": 160800,
      "startSeconds": 125.438,
      "durationSeconds": 0.188,
      "endSeconds": 125.625,
      "velocity": 0.25,
      "bendActive": true,
      "instrument": 1
    },
    {
      "id": "id_54vo0wfgemnv3kmnt",
      "pitch": 46,
      "pitchName": "A#2",
      "frequencyHz": 116.54094,
      "startTick": 160800,
      "durationTicks": 120,
      "endTick": 160920,
      "startSeconds": 125.625,
      "durationSeconds": 0.094,
      "endSeconds": 125.719,
      "velocity": 0.8,
      "bendActive": true,
      "instrument": 0
    },
    {
      "id": "id_oe9uh1wa8mnv3kmnt",
      "pitch": 54,
      "pitchName": "F#3",
      "frequencyHz": 184.997211,
      "startTick": 160800,
      "durationTicks": 120,
      "endTick": 160920,
      "startSeconds": 125.625,
      "durationSeconds": 0.094,
      "endSeconds": 125.719,
      "velocity": 0.8,
      "bendActive": true,
      "instrument": 0
    },
    {
      "id": "id_7ycpuvo0mmnv3kmnt",
      "pitch": 61,
      "pitchName": "C#4",
      "frequencyHz": 277.182631,
      "startTick": 160800,
      "durationTicks": 120,
      "endTick": 160920,
      "startSeconds": 125.625,
      "durationSeconds": 0.094,
      "endSeconds": 125.719,
      "velocity": 0.8,
      "bendActive": true,
      "instrument": 0
    },
    {
      "id": "id_jk53goyy5mnv3kmnt",
      "pitch": 61,
      "pitchName": "C#4",
      "frequencyHz": 277.182631,
      "startTick": 160800,
      "durationTicks": 120,
      "endTick": 160920,
      "startSeconds": 125.625,
      "durationSeconds": 0.094,
      "endSeconds": 125.719,
      "velocity": 0.25,
      "bendActive": true,
      "instrument": 1
    },
    {
      "id": "id_iv82s6drbmnv3kmnt",
      "pitch": 46,
      "pitchName": "A#2",
      "frequencyHz": 116.54094,
      "startTick": 161040,
      "durationTicks": 240,
      "endTick": 161280,
      "startSeconds": 125.813,
      "durationSeconds": 0.188,
      "endSeconds": 126,
      "velocity": 0.8,
      "bendActive": true,
      "instrument": 0
    },
    {
      "id": "id_x75uftlgxmnv3kmnt",
      "pitch": 54,
      "pitchName": "F#3",
      "frequencyHz": 184.997211,
      "startTick": 161040,
      "durationTicks": 240,
      "endTick": 161280,
      "startSeconds": 125.813,
      "durationSeconds": 0.188,
      "endSeconds": 126,
      "velocity": 0.8,
      "bendActive": true,
      "instrument": 0
    },
    {
      "id": "id_azwt3w6fmmnv3kmnt",
      "pitch": 61,
      "pitchName": "C#4",
      "frequencyHz": 277.182631,
      "startTick": 161040,
      "durationTicks": 240,
      "endTick": 161280,
      "startSeconds": 125.813,
      "durationSeconds": 0.188,
      "endSeconds": 126,
      "velocity": 0.8,
      "bendActive": true,
      "instrument": 0
    },
    {
      "id": "id_11c2v8e3ymnv3kmnt",
      "pitch": 61,
      "pitchName": "C#4",
      "frequencyHz": 277.182631,
      "startTick": 161040,
      "durationTicks": 240,
      "endTick": 161280,
      "startSeconds": 125.813,
      "durationSeconds": 0.188,
      "endSeconds": 126,
      "velocity": 0.25,
      "bendActive": true,
      "instrument": 1
    },
    {
      "id": "id_5hwdm4dcfmnv3kmnt",
      "pitch": 44,
      "pitchName": "G#2",
      "frequencyHz": 103.826174,
      "startTick": 161280,
      "durationTicks": 240,
      "endTick": 161520,
      "startSeconds": 126,
      "durationSeconds": 0.188,
      "endSeconds": 126.188,
      "velocity": 0.8,
      "bendActive": true,
      "instrument": 0
    },
    {
      "id": "id_sijs6cg9umnv3kmnt",
      "pitch": 51,
      "pitchName": "D#3",
      "frequencyHz": 155.563492,
      "startTick": 161280,
      "durationTicks": 240,
      "endTick": 161520,
      "startSeconds": 126,
      "durationSeconds": 0.188,
      "endSeconds": 126.188,
      "velocity": 0.8,
      "bendActive": true,
      "instrument": 0
    },
    {
      "id": "id_go9jsfhujmnv3kmnt",
      "pitch": 59,
      "pitchName": "B3",
      "frequencyHz": 246.941651,
      "startTick": 161280,
      "durationTicks": 240,
      "endTick": 161520,
      "startSeconds": 126,
      "durationSeconds": 0.188,
      "endSeconds": 126.188,
      "velocity": 0.8,
      "bendActive": true,
      "instrument": 0
    },
    {
      "id": "id_ih6uvgr26mnv4c0h3",
      "pitch": 63,
      "pitchName": "D#4",
      "frequencyHz": 311.126984,
      "startTick": 161280,
      "durationTicks": 240,
      "endTick": 161520,
      "startSeconds": 126,
      "durationSeconds": 0.188,
      "endSeconds": 126.188,
      "velocity": 0.25,
      "bendActive": true,
      "instrument": 1
    },
    {
      "id": "id_sawme2sxwmnv3kmnt",
      "pitch": 68,
      "pitchName": "G#4",
      "frequencyHz": 415.304698,
      "startTick": 161280,
      "durationTicks": 240,
      "endTick": 161520,
      "startSeconds": 126,
      "durationSeconds": 0.188,
      "endSeconds": 126.188,
      "velocity": 0.25,
      "bendActive": true,
      "instrument": 1
    },
    {
      "id": "id_vrjy0qp3omnv3kmnt",
      "pitch": 44,
      "pitchName": "G#2",
      "frequencyHz": 103.826174,
      "startTick": 161520,
      "durationTicks": 120,
      "endTick": 161640,
      "startSeconds": 126.188,
      "durationSeconds": 0.094,
      "endSeconds": 126.281,
      "velocity": 0.8,
      "bendActive": true,
      "instrument": 0
    },
    {
      "id": "id_k6qcter3zmnv3kmnt",
      "pitch": 51,
      "pitchName": "D#3",
      "frequencyHz": 155.563492,
      "startTick": 161520,
      "durationTicks": 120,
      "endTick": 161640,
      "startSeconds": 126.188,
      "durationSeconds": 0.094,
      "endSeconds": 126.281,
      "velocity": 0.8,
      "bendActive": true,
      "instrument": 0
    },
    {
      "id": "id_v6waia5mymnv3kmnt",
      "pitch": 59,
      "pitchName": "B3",
      "frequencyHz": 246.941651,
      "startTick": 161520,
      "durationTicks": 120,
      "endTick": 161640,
      "startSeconds": 126.188,
      "durationSeconds": 0.094,
      "endSeconds": 126.281,
      "velocity": 0.8,
      "bendActive": true,
      "instrument": 0
    },
    {
      "id": "id_9t8y2t39smnv4c0h3",
      "pitch": 63,
      "pitchName": "D#4",
      "frequencyHz": 311.126984,
      "startTick": 161520,
      "durationTicks": 120,
      "endTick": 161640,
      "startSeconds": 126.188,
      "durationSeconds": 0.094,
      "endSeconds": 126.281,
      "velocity": 0.25,
      "bendActive": true,
      "instrument": 1
    },
    {
      "id": "id_lwn6xcfn0mnv3kmnt",
      "pitch": 68,
      "pitchName": "G#4",
      "frequencyHz": 415.304698,
      "startTick": 161520,
      "durationTicks": 120,
      "endTick": 161640,
      "startSeconds": 126.188,
      "durationSeconds": 0.094,
      "endSeconds": 126.281,
      "velocity": 0.25,
      "bendActive": true,
      "instrument": 1
    },
    {
      "id": "id_bfcnrwoymmnv3kmnt",
      "pitch": 44,
      "pitchName": "G#2",
      "frequencyHz": 103.826174,
      "startTick": 161760,
      "durationTicks": 120,
      "endTick": 161880,
      "startSeconds": 126.375,
      "durationSeconds": 0.094,
      "endSeconds": 126.469,
      "velocity": 0.8,
      "bendActive": true,
      "instrument": 0
    },
    {
      "id": "id_5v737zvgumnv3kmnt",
      "pitch": 51,
      "pitchName": "D#3",
      "frequencyHz": 155.563492,
      "startTick": 161760,
      "durationTicks": 120,
      "endTick": 161880,
      "startSeconds": 126.375,
      "durationSeconds": 0.094,
      "endSeconds": 126.469,
      "velocity": 0.8,
      "bendActive": true,
      "instrument": 0
    },
    {
      "id": "id_23txe57cgmnv3kmnt",
      "pitch": 59,
      "pitchName": "B3",
      "frequencyHz": 246.941651,
      "startTick": 161760,
      "durationTicks": 120,
      "endTick": 161880,
      "startSeconds": 126.375,
      "durationSeconds": 0.094,
      "endSeconds": 126.469,
      "velocity": 0.8,
      "bendActive": true,
      "instrument": 0
    },
    {
      "id": "id_g9ltuzutlmnv4c0h3",
      "pitch": 63,
      "pitchName": "D#4",
      "frequencyHz": 311.126984,
      "startTick": 161760,
      "durationTicks": 120,
      "endTick": 161880,
      "startSeconds": 126.375,
      "durationSeconds": 0.094,
      "endSeconds": 126.469,
      "velocity": 0.25,
      "bendActive": true,
      "instrument": 1
    },
    {
      "id": "id_3liqiiatvmnv3kmnt",
      "pitch": 68,
      "pitchName": "G#4",
      "frequencyHz": 415.304698,
      "startTick": 161760,
      "durationTicks": 120,
      "endTick": 161880,
      "startSeconds": 126.375,
      "durationSeconds": 0.094,
      "endSeconds": 126.469,
      "velocity": 0.25,
      "bendActive": true,
      "instrument": 1
    },
    {
      "id": "id_cj976eor5mnv3kmnt",
      "pitch": 44,
      "pitchName": "G#2",
      "frequencyHz": 103.826174,
      "startTick": 162000,
      "durationTicks": 240,
      "endTick": 162240,
      "startSeconds": 126.563,
      "durationSeconds": 0.188,
      "endSeconds": 126.75,
      "velocity": 0.8,
      "bendActive": true,
      "instrument": 0
    },
    {
      "id": "id_gzxak96wfmnv3kmnt",
      "pitch": 51,
      "pitchName": "D#3",
      "frequencyHz": 155.563492,
      "startTick": 162000,
      "durationTicks": 240,
      "endTick": 162240,
      "startSeconds": 126.563,
      "durationSeconds": 0.188,
      "endSeconds": 126.75,
      "velocity": 0.8,
      "bendActive": true,
      "instrument": 0
    },
    {
      "id": "id_ya24pvptzmnv3kmnt",
      "pitch": 59,
      "pitchName": "B3",
      "frequencyHz": 246.941651,
      "startTick": 162000,
      "durationTicks": 240,
      "endTick": 162240,
      "startSeconds": 126.563,
      "durationSeconds": 0.188,
      "endSeconds": 126.75,
      "velocity": 0.8,
      "bendActive": true,
      "instrument": 0
    },
    {
      "id": "id_nendtxl4ymnv4c0h3",
      "pitch": 63,
      "pitchName": "D#4",
      "frequencyHz": 311.126984,
      "startTick": 162000,
      "durationTicks": 240,
      "endTick": 162240,
      "startSeconds": 126.563,
      "durationSeconds": 0.188,
      "endSeconds": 126.75,
      "velocity": 0.25,
      "bendActive": true,
      "instrument": 1
    },
    {
      "id": "id_r75ke9pp3mnv3kmnt",
      "pitch": 68,
      "pitchName": "G#4",
      "frequencyHz": 415.304698,
      "startTick": 162000,
      "durationTicks": 240,
      "endTick": 162240,
      "startSeconds": 126.563,
      "durationSeconds": 0.188,
      "endSeconds": 126.75,
      "velocity": 0.25,
      "bendActive": true,
      "instrument": 1
    },
    {
      "id": "id_vs7ii8mdsmnv3kmnt",
      "pitch": 44,
      "pitchName": "G#2",
      "frequencyHz": 103.826174,
      "startTick": 162240,
      "durationTicks": 120,
      "endTick": 162360,
      "startSeconds": 126.75,
      "durationSeconds": 0.094,
      "endSeconds": 126.844,
      "velocity": 0.8,
      "bendActive": true,
      "instrument": 0
    },
    {
      "id": "id_ziiotqf9smnv3kmnt",
      "pitch": 51,
      "pitchName": "D#3",
      "frequencyHz": 155.563492,
      "startTick": 162240,
      "durationTicks": 120,
      "endTick": 162360,
      "startSeconds": 126.75,
      "durationSeconds": 0.094,
      "endSeconds": 126.844,
      "velocity": 0.8,
      "bendActive": true,
      "instrument": 0
    },
    {
      "id": "id_dto57rmcnmnv3kmnt",
      "pitch": 59,
      "pitchName": "B3",
      "frequencyHz": 246.941651,
      "startTick": 162240,
      "durationTicks": 120,
      "endTick": 162360,
      "startSeconds": 126.75,
      "durationSeconds": 0.094,
      "endSeconds": 126.844,
      "velocity": 0.8,
      "bendActive": true,
      "instrument": 0
    },
    {
      "id": "id_t84gmu2yamnv4c0h3",
      "pitch": 63,
      "pitchName": "D#4",
      "frequencyHz": 311.126984,
      "startTick": 162240,
      "durationTicks": 120,
      "endTick": 162360,
      "startSeconds": 126.75,
      "durationSeconds": 0.094,
      "endSeconds": 126.844,
      "velocity": 0.25,
      "bendActive": true,
      "instrument": 1
    },
    {
      "id": "id_bzp9p087lmnv3kmnt",
      "pitch": 68,
      "pitchName": "G#4",
      "frequencyHz": 415.304698,
      "startTick": 162240,
      "durationTicks": 120,
      "endTick": 162360,
      "startSeconds": 126.75,
      "durationSeconds": 0.094,
      "endSeconds": 126.844,
      "velocity": 0.25,
      "bendActive": true,
      "instrument": 1
    },
    {
      "id": "id_6n0fetj48mnv3kmnt",
      "pitch": 44,
      "pitchName": "G#2",
      "frequencyHz": 103.826174,
      "startTick": 162480,
      "durationTicks": 120,
      "endTick": 162600,
      "startSeconds": 126.938,
      "durationSeconds": 0.094,
      "endSeconds": 127.031,
      "velocity": 0.8,
      "bendActive": true,
      "instrument": 0
    },
    {
      "id": "id_14k585h67mnv3kmnt",
      "pitch": 51,
      "pitchName": "D#3",
      "frequencyHz": 155.563492,
      "startTick": 162480,
      "durationTicks": 120,
      "endTick": 162600,
      "startSeconds": 126.938,
      "durationSeconds": 0.094,
      "endSeconds": 127.031,
      "velocity": 0.8,
      "bendActive": true,
      "instrument": 0
    },
    {
      "id": "id_wzbd5n3icmnv3kmnt",
      "pitch": 59,
      "pitchName": "B3",
      "frequencyHz": 246.941651,
      "startTick": 162480,
      "durationTicks": 120,
      "endTick": 162600,
      "startSeconds": 126.938,
      "durationSeconds": 0.094,
      "endSeconds": 127.031,
      "velocity": 0.8,
      "bendActive": true,
      "instrument": 0
    },
    {
      "id": "id_db43x1evjmnv4c0h3",
      "pitch": 63,
      "pitchName": "D#4",
      "frequencyHz": 311.126984,
      "startTick": 162480,
      "durationTicks": 120,
      "endTick": 162600,
      "startSeconds": 126.938,
      "durationSeconds": 0.094,
      "endSeconds": 127.031,
      "velocity": 0.25,
      "bendActive": true,
      "instrument": 1
    },
    {
      "id": "id_dmvxnkr8xmnv3kmnt",
      "pitch": 68,
      "pitchName": "G#4",
      "frequencyHz": 415.304698,
      "startTick": 162480,
      "durationTicks": 120,
      "endTick": 162600,
      "startSeconds": 126.938,
      "durationSeconds": 0.094,
      "endSeconds": 127.031,
      "velocity": 0.25,
      "bendActive": true,
      "instrument": 1
    },
    {
      "id": "id_xos328hnimnv3kmnt",
      "pitch": 44,
      "pitchName": "G#2",
      "frequencyHz": 103.826174,
      "startTick": 162720,
      "durationTicks": 240,
      "endTick": 162960,
      "startSeconds": 127.125,
      "durationSeconds": 0.188,
      "endSeconds": 127.313,
      "velocity": 0.8,
      "bendActive": true,
      "instrument": 0
    },
    {
      "id": "id_0a0vzrkpemnv3kmnt",
      "pitch": 51,
      "pitchName": "D#3",
      "frequencyHz": 155.563492,
      "startTick": 162720,
      "durationTicks": 240,
      "endTick": 162960,
      "startSeconds": 127.125,
      "durationSeconds": 0.188,
      "endSeconds": 127.313,
      "velocity": 0.8,
      "bendActive": true,
      "instrument": 0
    },
    {
      "id": "id_5ear72i24mnv3kmnt",
      "pitch": 59,
      "pitchName": "B3",
      "frequencyHz": 246.941651,
      "startTick": 162720,
      "durationTicks": 240,
      "endTick": 162960,
      "startSeconds": 127.125,
      "durationSeconds": 0.188,
      "endSeconds": 127.313,
      "velocity": 0.8,
      "bendActive": true,
      "instrument": 0
    },
    {
      "id": "id_zsimhygxhmnv4c0h3",
      "pitch": 63,
      "pitchName": "D#4",
      "frequencyHz": 311.126984,
      "startTick": 162720,
      "durationTicks": 240,
      "endTick": 162960,
      "startSeconds": 127.125,
      "durationSeconds": 0.188,
      "endSeconds": 127.313,
      "velocity": 0.25,
      "bendActive": true,
      "instrument": 1
    },
    {
      "id": "id_ky9h1gyutmnv3kmnt",
      "pitch": 68,
      "pitchName": "G#4",
      "frequencyHz": 415.304698,
      "startTick": 162720,
      "durationTicks": 240,
      "endTick": 162960,
      "startSeconds": 127.125,
      "durationSeconds": 0.188,
      "endSeconds": 127.313,
      "velocity": 0.25,
      "bendActive": true,
      "instrument": 1
    },
    {
      "id": "id_g2tywlh51mnv3kmnt",
      "pitch": 44,
      "pitchName": "G#2",
      "frequencyHz": 103.826174,
      "startTick": 162960,
      "durationTicks": 120,
      "endTick": 163080,
      "startSeconds": 127.313,
      "durationSeconds": 0.094,
      "endSeconds": 127.406,
      "velocity": 0.8,
      "bendActive": true,
      "instrument": 0
    },
    {
      "id": "id_rl5wd92yomnv3kmnt",
      "pitch": 51,
      "pitchName": "D#3",
      "frequencyHz": 155.563492,
      "startTick": 162960,
      "durationTicks": 120,
      "endTick": 163080,
      "startSeconds": 127.313,
      "durationSeconds": 0.094,
      "endSeconds": 127.406,
      "velocity": 0.8,
      "bendActive": true,
      "instrument": 0
    },
    {
      "id": "id_0jstwsinrmnv3kmnt",
      "pitch": 59,
      "pitchName": "B3",
      "frequencyHz": 246.941651,
      "startTick": 162960,
      "durationTicks": 120,
      "endTick": 163080,
      "startSeconds": 127.313,
      "durationSeconds": 0.094,
      "endSeconds": 127.406,
      "velocity": 0.8,
      "bendActive": true,
      "instrument": 0
    },
    {
      "id": "id_ahno5xw63mnv4c0h3",
      "pitch": 63,
      "pitchName": "D#4",
      "frequencyHz": 311.126984,
      "startTick": 162960,
      "durationTicks": 120,
      "endTick": 163080,
      "startSeconds": 127.313,
      "durationSeconds": 0.094,
      "endSeconds": 127.406,
      "velocity": 0.25,
      "bendActive": true,
      "instrument": 1
    },
    {
      "id": "id_a8qwew1g7mnv3kmnt",
      "pitch": 68,
      "pitchName": "G#4",
      "frequencyHz": 415.304698,
      "startTick": 162960,
      "durationTicks": 120,
      "endTick": 163080,
      "startSeconds": 127.313,
      "durationSeconds": 0.094,
      "endSeconds": 127.406,
      "velocity": 0.25,
      "bendActive": true,
      "instrument": 1
    },
    {
      "id": "id_oq9n8t5iimnv3kmnt",
      "pitch": 44,
      "pitchName": "G#2",
      "frequencyHz": 103.826174,
      "startTick": 163200,
      "durationTicks": 240,
      "endTick": 163440,
      "startSeconds": 127.5,
      "durationSeconds": 0.188,
      "endSeconds": 127.688,
      "velocity": 0.8,
      "bendActive": true,
      "instrument": 0
    },
    {
      "id": "id_r7watm1bmmnv3kmnt",
      "pitch": 51,
      "pitchName": "D#3",
      "frequencyHz": 155.563492,
      "startTick": 163200,
      "durationTicks": 240,
      "endTick": 163440,
      "startSeconds": 127.5,
      "durationSeconds": 0.188,
      "endSeconds": 127.688,
      "velocity": 0.8,
      "bendActive": true,
      "instrument": 0
    },
    {
      "id": "id_jsv2r91q4mnv3kmnt",
      "pitch": 59,
      "pitchName": "B3",
      "frequencyHz": 246.941651,
      "startTick": 163200,
      "durationTicks": 240,
      "endTick": 163440,
      "startSeconds": 127.5,
      "durationSeconds": 0.188,
      "endSeconds": 127.688,
      "velocity": 0.8,
      "bendActive": true,
      "instrument": 0
    },
    {
      "id": "id_w154oaum9mnv4c0h3",
      "pitch": 63,
      "pitchName": "D#4",
      "frequencyHz": 311.126984,
      "startTick": 163200,
      "durationTicks": 240,
      "endTick": 163440,
      "startSeconds": 127.5,
      "durationSeconds": 0.188,
      "endSeconds": 127.688,
      "velocity": 0.25,
      "bendActive": true,
      "instrument": 1
    },
    {
      "id": "id_2tz37waybmnv3kmnt",
      "pitch": 68,
      "pitchName": "G#4",
      "frequencyHz": 415.304698,
      "startTick": 163200,
      "durationTicks": 240,
      "endTick": 163440,
      "startSeconds": 127.5,
      "durationSeconds": 0.188,
      "endSeconds": 127.688,
      "velocity": 0.25,
      "bendActive": true,
      "instrument": 1
    },
    {
      "id": "id_1zi2812uhmnv3kmnt",
      "pitch": 44,
      "pitchName": "G#2",
      "frequencyHz": 103.826174,
      "startTick": 163440,
      "durationTicks": 240,
      "endTick": 163680,
      "startSeconds": 127.688,
      "durationSeconds": 0.188,
      "endSeconds": 127.875,
      "velocity": 0.8,
      "bendActive": true,
      "instrument": 0
    },
    {
      "id": "id_0sjaiz1psmnv3kmnt",
      "pitch": 51,
      "pitchName": "D#3",
      "frequencyHz": 155.563492,
      "startTick": 163440,
      "durationTicks": 240,
      "endTick": 163680,
      "startSeconds": 127.688,
      "durationSeconds": 0.188,
      "endSeconds": 127.875,
      "velocity": 0.8,
      "bendActive": true,
      "instrument": 0
    },
    {
      "id": "id_6zq2awmkemnv3kmnt",
      "pitch": 59,
      "pitchName": "B3",
      "frequencyHz": 246.941651,
      "startTick": 163440,
      "durationTicks": 240,
      "endTick": 163680,
      "startSeconds": 127.688,
      "durationSeconds": 0.188,
      "endSeconds": 127.875,
      "velocity": 0.8,
      "bendActive": true,
      "instrument": 0
    },
    {
      "id": "id_wt2gxsvxxmnv4c0h3",
      "pitch": 63,
      "pitchName": "D#4",
      "frequencyHz": 311.126984,
      "startTick": 163440,
      "durationTicks": 240,
      "endTick": 163680,
      "startSeconds": 127.688,
      "durationSeconds": 0.188,
      "endSeconds": 127.875,
      "velocity": 0.25,
      "bendActive": true,
      "instrument": 1
    },
    {
      "id": "id_lzmzh08ummnv3kmnt",
      "pitch": 68,
      "pitchName": "G#4",
      "frequencyHz": 415.304698,
      "startTick": 163440,
      "durationTicks": 240,
      "endTick": 163680,
      "startSeconds": 127.688,
      "durationSeconds": 0.188,
      "endSeconds": 127.875,
      "velocity": 0.25,
      "bendActive": true,
      "instrument": 1
    },
    {
      "id": "id_lbq4f5vl7mnv3kmnt",
      "pitch": 44,
      "pitchName": "G#2",
      "frequencyHz": 103.826174,
      "startTick": 163680,
      "durationTicks": 120,
      "endTick": 163800,
      "startSeconds": 127.875,
      "durationSeconds": 0.094,
      "endSeconds": 127.969,
      "velocity": 0.8,
      "bendActive": true,
      "instrument": 0
    },
    {
      "id": "id_dxkemvp8rmnv3kmnt",
      "pitch": 51,
      "pitchName": "D#3",
      "frequencyHz": 155.563492,
      "startTick": 163680,
      "durationTicks": 120,
      "endTick": 163800,
      "startSeconds": 127.875,
      "durationSeconds": 0.094,
      "endSeconds": 127.969,
      "velocity": 0.8,
      "bendActive": true,
      "instrument": 0
    },
    {
      "id": "id_2kixov6mmmnv3kmnt",
      "pitch": 59,
      "pitchName": "B3",
      "frequencyHz": 246.941651,
      "startTick": 163680,
      "durationTicks": 120,
      "endTick": 163800,
      "startSeconds": 127.875,
      "durationSeconds": 0.094,
      "endSeconds": 127.969,
      "velocity": 0.8,
      "bendActive": true,
      "instrument": 0
    },
    {
      "id": "id_qrcnzlqo0mnv4c0h3",
      "pitch": 63,
      "pitchName": "D#4",
      "frequencyHz": 311.126984,
      "startTick": 163680,
      "durationTicks": 120,
      "endTick": 163800,
      "startSeconds": 127.875,
      "durationSeconds": 0.094,
      "endSeconds": 127.969,
      "velocity": 0.25,
      "bendActive": true,
      "instrument": 1
    },
    {
      "id": "id_um7g5fmu5mnv3kmnt",
      "pitch": 68,
      "pitchName": "G#4",
      "frequencyHz": 415.304698,
      "startTick": 163680,
      "durationTicks": 120,
      "endTick": 163800,
      "startSeconds": 127.875,
      "durationSeconds": 0.094,
      "endSeconds": 127.969,
      "velocity": 0.25,
      "bendActive": true,
      "instrument": 1
    },
    {
      "id": "id_5r8hssc1emnv3kmnt",
      "pitch": 44,
      "pitchName": "G#2",
      "frequencyHz": 103.826174,
      "startTick": 163920,
      "durationTicks": 240,
      "endTick": 164160,
      "startSeconds": 128.063,
      "durationSeconds": 0.188,
      "endSeconds": 128.25,
      "velocity": 0.8,
      "bendActive": true,
      "instrument": 0
    },
    {
      "id": "id_l4o3nbfk8mnv3kmnt",
      "pitch": 51,
      "pitchName": "D#3",
      "frequencyHz": 155.563492,
      "startTick": 163920,
      "durationTicks": 240,
      "endTick": 164160,
      "startSeconds": 128.063,
      "durationSeconds": 0.188,
      "endSeconds": 128.25,
      "velocity": 0.8,
      "bendActive": true,
      "instrument": 0
    },
    {
      "id": "id_wrgf534zzmnv3kmnt",
      "pitch": 59,
      "pitchName": "B3",
      "frequencyHz": 246.941651,
      "startTick": 163920,
      "durationTicks": 240,
      "endTick": 164160,
      "startSeconds": 128.063,
      "durationSeconds": 0.188,
      "endSeconds": 128.25,
      "velocity": 0.8,
      "bendActive": true,
      "instrument": 0
    },
    {
      "id": "id_nt652ubgmmnv4c0h3",
      "pitch": 63,
      "pitchName": "D#4",
      "frequencyHz": 311.126984,
      "startTick": 163920,
      "durationTicks": 240,
      "endTick": 164160,
      "startSeconds": 128.063,
      "durationSeconds": 0.188,
      "endSeconds": 128.25,
      "velocity": 0.25,
      "bendActive": true,
      "instrument": 1
    },
    {
      "id": "id_xhgiky5hkmnv3kmnt",
      "pitch": 68,
      "pitchName": "G#4",
      "frequencyHz": 415.304698,
      "startTick": 163920,
      "durationTicks": 240,
      "endTick": 164160,
      "startSeconds": 128.063,
      "durationSeconds": 0.188,
      "endSeconds": 128.25,
      "velocity": 0.25,
      "bendActive": true,
      "instrument": 1
    },
    {
      "id": "id_qetpxjuqxmnv3kmnt",
      "pitch": 44,
      "pitchName": "G#2",
      "frequencyHz": 103.826174,
      "startTick": 164160,
      "durationTicks": 240,
      "endTick": 164400,
      "startSeconds": 128.25,
      "durationSeconds": 0.188,
      "endSeconds": 128.438,
      "velocity": 0.8,
      "bendActive": true,
      "instrument": 0
    },
    {
      "id": "id_f8s0xv38smnv3kmnt",
      "pitch": 51,
      "pitchName": "D#3",
      "frequencyHz": 155.563492,
      "startTick": 164160,
      "durationTicks": 240,
      "endTick": 164400,
      "startSeconds": 128.25,
      "durationSeconds": 0.188,
      "endSeconds": 128.438,
      "velocity": 0.8,
      "bendActive": true,
      "instrument": 0
    },
    {
      "id": "id_dokpv7hgdmnv3kmnt",
      "pitch": 59,
      "pitchName": "B3",
      "frequencyHz": 246.941651,
      "startTick": 164160,
      "durationTicks": 240,
      "endTick": 164400,
      "startSeconds": 128.25,
      "durationSeconds": 0.188,
      "endSeconds": 128.438,
      "velocity": 0.8,
      "bendActive": true,
      "instrument": 0
    },
    {
      "id": "id_6ggvqcwtrmnv4c0h3",
      "pitch": 63,
      "pitchName": "D#4",
      "frequencyHz": 311.126984,
      "startTick": 164160,
      "durationTicks": 240,
      "endTick": 164400,
      "startSeconds": 128.25,
      "durationSeconds": 0.188,
      "endSeconds": 128.438,
      "velocity": 0.25,
      "bendActive": true,
      "instrument": 1
    },
    {
      "id": "id_b92u33w71mnv3kmnt",
      "pitch": 68,
      "pitchName": "G#4",
      "frequencyHz": 415.304698,
      "startTick": 164160,
      "durationTicks": 240,
      "endTick": 164400,
      "startSeconds": 128.25,
      "durationSeconds": 0.188,
      "endSeconds": 128.438,
      "velocity": 0.25,
      "bendActive": true,
      "instrument": 1
    }
  ],
  "pitchBend": [
    {
      "id": "id_rkhue4ri2mnv3kmnu",
      "tick": 3000,
      "seconds": 2.344,
      "cents": 0
    },
    {
      "id": "id_w0qvwyefxmnv3kmnu",
      "tick": 3720,
      "seconds": 2.906,
      "cents": 200
    },
    {
      "id": "id_ewifkrxcomnv3kmnu",
      "tick": 5520,
      "seconds": 4.313,
      "cents": 200
    },
    {
      "id": "id_nx0xphsckmnv3kmnu",
      "tick": 5640,
      "seconds": 4.406,
      "cents": 0
    },
    {
      "id": "id_ghptv5e9cmnv3kmnu",
      "tick": 8760,
      "seconds": 6.844,
      "cents": 0
    },
    {
      "id": "id_73c2p86n7mnv3kmnu",
      "tick": 9480,
      "seconds": 7.406,
      "cents": 200
    },
    {
      "id": "id_ulrtwhzk3mnv3kmnu",
      "tick": 10560,
      "seconds": 8.25,
      "cents": 200
    },
    {
      "id": "id_fadvo2kdemnv3kmnu",
      "tick": 11280,
      "seconds": 8.813,
      "cents": 200
    },
    {
      "id": "id_cq36cu45dmnv3kmnu",
      "tick": 11520,
      "seconds": 9,
      "cents": 0
    },
    {
      "id": "id_tbzjxr1o5mnv3kmnu",
      "tick": 17160,
      "seconds": 13.406,
      "cents": 0
    },
    {
      "id": "id_92ez2n2l4mnv3kmnu",
      "tick": 17400,
      "seconds": 13.594,
      "cents": 200
    },
    {
      "id": "id_zc67gm3mkmnv3kmnu",
      "tick": 19200,
      "seconds": 15,
      "cents": 200
    },
    {
      "id": "id_zwb8rgm7kmnv3kmnu",
      "tick": 19680,
      "seconds": 15.375,
      "cents": -2400
    },
    {
      "id": "id_7lg3gsf1jmnv3kmnu",
      "tick": 19920,
      "seconds": 15.563,
      "cents": 0
    },
    {
      "id": "id_2qtam2swtmnv3kmnu",
      "tick": 20280,
      "seconds": 15.844,
      "cents": 0
    },
    {
      "id": "id_fzugugvl5mnv3kmnu",
      "tick": 20520,
      "seconds": 16.031,
      "cents": 0
    },
    {
      "id": "id_tctbjseezmnv3kmnu",
      "tick": 20760,
      "seconds": 16.219,
      "cents": 200
    },
    {
      "id": "id_h71cxm54amnv3kmnu",
      "tick": 21000,
      "seconds": 16.406,
      "cents": 200
    },
    {
      "id": "id_8j4qtjmmymnv3kmnu",
      "tick": 21120,
      "seconds": 16.5,
      "cents": 0
    },
    {
      "id": "id_tg2d44skpmnv3kmnu",
      "tick": 21960,
      "seconds": 17.156,
      "cents": 0
    },
    {
      "id": "id_5ewmeov2kmnv3kmnu",
      "tick": 22200,
      "seconds": 17.344,
      "cents": 100
    },
    {
      "id": "id_jomo64vvfmnv3kmnu",
      "tick": 22440,
      "seconds": 17.531,
      "cents": 100
    },
    {
      "id": "id_ll7y85ezlmnv3kmnu",
      "tick": 22560,
      "seconds": 17.625,
      "cents": 0
    },
    {
      "id": "id_7a9isfer1mnv3kmnu",
      "tick": 26040,
      "seconds": 20.344,
      "cents": 0
    },
    {
      "id": "id_ak5a9bbg0mnv3kmnu",
      "tick": 26760,
      "seconds": 20.906,
      "cents": 200
    },
    {
      "id": "id_rhd2jf9l7mnv3kmnu",
      "tick": 28560,
      "seconds": 22.313,
      "cents": 200
    },
    {
      "id": "id_kvpeyzwnlmnv3kmnu",
      "tick": 28680,
      "seconds": 22.406,
      "cents": 0
    },
    {
      "id": "id_7cant11gcmnv3kmnu",
      "tick": 31800,
      "seconds": 24.844,
      "cents": 0
    },
    {
      "id": "id_zntc0vdpqmnv3kmnu",
      "tick": 32520,
      "seconds": 25.406,
      "cents": 200
    },
    {
      "id": "id_d2k64e8femnv3kmnu",
      "tick": 33600,
      "seconds": 26.25,
      "cents": 200
    },
    {
      "id": "id_4gizzv0ommnv3kmnu",
      "tick": 34320,
      "seconds": 26.813,
      "cents": 200
    },
    {
      "id": "id_x8ujvvgy8mnv3kmnu",
      "tick": 34560,
      "seconds": 27,
      "cents": 0
    },
    {
      "id": "id_id4wyg2ddmnv3kmnu",
      "tick": 45000,
      "seconds": 35.156,
      "cents": 0
    },
    {
      "id": "id_xxftj82bsmnv3kmnu",
      "tick": 45240,
      "seconds": 35.344,
      "cents": 100
    },
    {
      "id": "id_ndpwicosamnv3kmnu",
      "tick": 45480,
      "seconds": 35.531,
      "cents": 100
    },
    {
      "id": "id_4hgnyfkhdmnv3kmnu",
      "tick": 45600,
      "seconds": 35.625,
      "cents": 0
    },
    {
      "id": "id_9w4wyqlf6mnv3kmnu",
      "tick": 47880,
      "seconds": 37.406,
      "cents": 0
    },
    {
      "id": "id_vgd0cieibmnv3kmnu",
      "tick": 48120,
      "seconds": 37.594,
      "cents": 100
    },
    {
      "id": "id_pt3xbtyn2mnv3kmnu",
      "tick": 48360,
      "seconds": 37.781,
      "cents": 100
    },
    {
      "id": "id_ubtp5g7iemnv3kmnu",
      "tick": 48480,
      "seconds": 37.875,
      "cents": 0
    },
    {
      "id": "id_azcwx5rl1mnv3kmnu",
      "tick": 50760,
      "seconds": 39.656,
      "cents": 0
    },
    {
      "id": "id_n8yrnmuzdmnv3kmnu",
      "tick": 50760,
      "seconds": 39.656,
      "cents": 0
    },
    {
      "id": "id_5i7sz5rbgmnv3kmnu",
      "tick": 51000,
      "seconds": 39.844,
      "cents": 100
    },
    {
      "id": "id_zm6xwxqm5mnv3kmnu",
      "tick": 51000,
      "seconds": 39.844,
      "cents": 100
    },
    {
      "id": "id_n8ot8uys8mnv3kmnu",
      "tick": 51240,
      "seconds": 40.031,
      "cents": 100
    },
    {
      "id": "id_4r92rnyb7mnv3kmnu",
      "tick": 51240,
      "seconds": 40.031,
      "cents": 100
    },
    {
      "id": "id_359369f1gmnv3kmnu",
      "tick": 51360,
      "seconds": 40.125,
      "cents": 0
    },
    {
      "id": "id_cn2rokv2dmnv3kmnu",
      "tick": 51360,
      "seconds": 40.125,
      "cents": 0
    },
    {
      "id": "id_q1tdsq66qmnv3kmnu",
      "tick": 53280,
      "seconds": 41.625,
      "cents": 0
    },
    {
      "id": "id_77rk94s0amnv3kmnu",
      "tick": 53400,
      "seconds": 41.719,
      "cents": 0
    },
    {
      "id": "id_a4atvaqghmnv3kmnu",
      "tick": 53520,
      "seconds": 41.813,
      "cents": 300
    },
    {
      "id": "id_xcyleam19mnv3kmnu",
      "tick": 54600,
      "seconds": 42.656,
      "cents": 300
    },
    {
      "id": "id_8tmj6tl32mnv3kmnu",
      "tick": 54720,
      "seconds": 42.75,
      "cents": 0
    },
    {
      "id": "id_l9lzygvo9mnv3kmnu",
      "tick": 54720,
      "seconds": 42.75,
      "cents": 0
    },
    {
      "id": "id_5hjkd5osumnv3kmnu",
      "tick": 54840,
      "seconds": 42.844,
      "cents": 0
    },
    {
      "id": "id_sk69tqlormnv3kmnu",
      "tick": 54960,
      "seconds": 42.938,
      "cents": 200
    },
    {
      "id": "id_ijhaeeeqbmnv3kmnu",
      "tick": 56040,
      "seconds": 43.781,
      "cents": 200
    },
    {
      "id": "id_bl5v255tjmnv3kmnu",
      "tick": 56160,
      "seconds": 43.875,
      "cents": 0
    },
    {
      "id": "id_287o3kc28mnv3kmnu",
      "tick": 56520,
      "seconds": 44.156,
      "cents": 0
    },
    {
      "id": "id_bw3oweho4mnv3kmnu",
      "tick": 56760,
      "seconds": 44.344,
      "cents": 100
    },
    {
      "id": "id_dl95dmk82mnv3kmnu",
      "tick": 57000,
      "seconds": 44.531,
      "cents": 100
    },
    {
      "id": "id_liflbiw6cmnv3kmnu",
      "tick": 57120,
      "seconds": 44.625,
      "cents": 0
    },
    {
      "id": "id_fmqwxu0r3mnv3kmnu",
      "tick": 57120,
      "seconds": 44.625,
      "cents": 0
    },
    {
      "id": "id_nqdki0vmbmnv3kmnu",
      "tick": 59400,
      "seconds": 46.406,
      "cents": 0
    },
    {
      "id": "id_p80tzf0ghmnv3kmnu",
      "tick": 59400,
      "seconds": 46.406,
      "cents": 0
    },
    {
      "id": "id_i7l6saa34mnv3kmnu",
      "tick": 59400,
      "seconds": 46.406,
      "cents": 0
    },
    {
      "id": "id_xsmhyadrrmnv3kmnu",
      "tick": 59640,
      "seconds": 46.594,
      "cents": 100
    },
    {
      "id": "id_zzb5q7jqtmnv3kmnu",
      "tick": 59640,
      "seconds": 46.594,
      "cents": 100
    },
    {
      "id": "id_41fk676vrmnv3kmnu",
      "tick": 59640,
      "seconds": 46.594,
      "cents": 100
    },
    {
      "id": "id_0zkhd2eoqmnv3kmnu",
      "tick": 59880,
      "seconds": 46.781,
      "cents": 100
    },
    {
      "id": "id_yqkwebbzemnv3kmnu",
      "tick": 59880,
      "seconds": 46.781,
      "cents": 100
    },
    {
      "id": "id_5e39pba61mnv3kmnu",
      "tick": 59880,
      "seconds": 46.781,
      "cents": 100
    },
    {
      "id": "id_nhqhr665vmnv3kmnu",
      "tick": 60000,
      "seconds": 46.875,
      "cents": 0
    },
    {
      "id": "id_0wzwxs7bimnv3kmnu",
      "tick": 60000,
      "seconds": 46.875,
      "cents": 0
    },
    {
      "id": "id_el0rn7gdfmnv3kmnu",
      "tick": 60000,
      "seconds": 46.875,
      "cents": 0
    },
    {
      "id": "id_wpjwyvbo9mnv3kmnu",
      "tick": 61920,
      "seconds": 48.375,
      "cents": 0
    },
    {
      "id": "id_bxxle4l3tmnv3kmnu",
      "tick": 62040,
      "seconds": 48.469,
      "cents": 0
    },
    {
      "id": "id_dfzkg61vxmnv3kmnu",
      "tick": 62160,
      "seconds": 48.563,
      "cents": 0
    },
    {
      "id": "id_z1ckt7t4rmnv3kmnu",
      "tick": 62280,
      "seconds": 48.656,
      "cents": 0
    },
    {
      "id": "id_4y7tm0ynpmnv3kmnu",
      "tick": 62520,
      "seconds": 48.844,
      "cents": 0
    },
    {
      "id": "id_5coujroo9mnv3kmnu",
      "tick": 62760,
      "seconds": 49.031,
      "cents": 0
    },
    {
      "id": "id_96d5qtsc6mnv3kmnu",
      "tick": 62880,
      "seconds": 49.125,
      "cents": 0
    },
    {
      "id": "id_qz30mrtctmnv3kmnu",
      "tick": 63240,
      "seconds": 49.406,
      "cents": 0
    },
    {
      "id": "id_yiou6q7qnmnv3kmnu",
      "tick": 63240,
      "seconds": 49.406,
      "cents": 0
    },
    {
      "id": "id_oi4r5myejmnv3kmnu",
      "tick": 63360,
      "seconds": 49.5,
      "cents": 0
    },
    {
      "id": "id_gh8vwvdmfmnv3kmnu",
      "tick": 63360,
      "seconds": 49.5,
      "cents": 0
    },
    {
      "id": "id_fdz3shi9pmnv3kmnu",
      "tick": 63360,
      "seconds": 49.5,
      "cents": 0
    },
    {
      "id": "id_nn2antayomnv3kmnu",
      "tick": 63480,
      "seconds": 49.594,
      "cents": 0
    },
    {
      "id": "id_0t2eurcq1mnv3kmnu",
      "tick": 63600,
      "seconds": 49.688,
      "cents": 200
    },
    {
      "id": "id_nbcvgwaw5mnv3kmnu",
      "tick": 64680,
      "seconds": 50.531,
      "cents": 200
    },
    {
      "id": "id_ga93sv23dmnv3kmnu",
      "tick": 64800,
      "seconds": 50.625,
      "cents": 0
    },
    {
      "id": "id_tqew9x0kemnv3kmnu",
      "tick": 65040,
      "seconds": 50.813,
      "cents": 0
    },
    {
      "id": "id_sjdedzmyqmnv3kmnu",
      "tick": 66000,
      "seconds": 51.563,
      "cents": 200
    },
    {
      "id": "id_genu1bt0amnv3kmnu",
      "tick": 66120,
      "seconds": 51.656,
      "cents": 200
    },
    {
      "id": "id_uf8bkisg7mnv3kmnu",
      "tick": 66120,
      "seconds": 51.656,
      "cents": 200
    },
    {
      "id": "id_pluwyuycsmnv3kmnu",
      "tick": 66240,
      "seconds": 51.75,
      "cents": 0
    },
    {
      "id": "id_f7f5hgvyymnv3kmnu",
      "tick": 70440,
      "seconds": 55.031,
      "cents": 0
    },
    {
      "id": "id_n1h719xjmmnv3kmnu",
      "tick": 70560,
      "seconds": 55.125,
      "cents": 0
    },
    {
      "id": "id_zr678okyemnv3kmnu",
      "tick": 70920,
      "seconds": 55.406,
      "cents": 0
    },
    {
      "id": "id_sxedcrmxgmnv3kmnu",
      "tick": 71160,
      "seconds": 55.594,
      "cents": 100
    },
    {
      "id": "id_revjc33ntmnv3kmnu",
      "tick": 71400,
      "seconds": 55.781,
      "cents": 100
    },
    {
      "id": "id_zms9a0mk9mnv3kmnu",
      "tick": 71520,
      "seconds": 55.875,
      "cents": 0
    },
    {
      "id": "id_abck0reiumnv3kmnu",
      "tick": 73440,
      "seconds": 57.375,
      "cents": 0
    },
    {
      "id": "id_jpzluzukzmnv3kmnu",
      "tick": 73800,
      "seconds": 57.656,
      "cents": 0
    },
    {
      "id": "id_s3pscuhnwmnv3kmnu",
      "tick": 73800,
      "seconds": 57.656,
      "cents": 0
    },
    {
      "id": "id_nei7e7vzcmnv3kmnu",
      "tick": 74040,
      "seconds": 57.844,
      "cents": 100
    },
    {
      "id": "id_bo65vnbb9mnv3kmnu",
      "tick": 74040,
      "seconds": 57.844,
      "cents": 100
    },
    {
      "id": "id_0sk3rymcbmnv3kmnu",
      "tick": 74280,
      "seconds": 58.031,
      "cents": 100
    },
    {
      "id": "id_uxo9gwof3mnv3kmnu",
      "tick": 74280,
      "seconds": 58.031,
      "cents": 100
    },
    {
      "id": "id_kzceuq797mnv3kmnu",
      "tick": 74400,
      "seconds": 58.125,
      "cents": 0
    },
    {
      "id": "id_jrxwqbwzwmnv3kmnu",
      "tick": 74400,
      "seconds": 58.125,
      "cents": 0
    },
    {
      "id": "id_cz4os7vw2mnv3kmnu",
      "tick": 74880,
      "seconds": 58.5,
      "cents": 0
    },
    {
      "id": "id_bjou4hf0fmnv3kmnu",
      "tick": 75240,
      "seconds": 58.781,
      "cents": 0
    },
    {
      "id": "id_qpinlhw83mnv3kmnu",
      "tick": 75840,
      "seconds": 59.25,
      "cents": 100
    },
    {
      "id": "id_8djvbov66mnv3kmnu",
      "tick": 76320,
      "seconds": 59.625,
      "cents": 100
    },
    {
      "id": "id_7xrzveu8amnv3kmnu",
      "tick": 76440,
      "seconds": 59.719,
      "cents": 0
    },
    {
      "id": "id_fnzy4gpqgmnv3kmnu",
      "tick": 85320,
      "seconds": 66.656,
      "cents": 0
    },
    {
      "id": "id_4sh7rg777mnv3kmnu",
      "tick": 85440,
      "seconds": 66.75,
      "cents": 100
    },
    {
      "id": "id_mmvqyb60amnv3kmnu",
      "tick": 85920,
      "seconds": 67.125,
      "cents": 100
    },
    {
      "id": "id_z2h9icifqmnv3kmnu",
      "tick": 86040,
      "seconds": 67.219,
      "cents": 0
    },
    {
      "id": "id_dgtyp5c56mnv3kmnu",
      "tick": 88200,
      "seconds": 68.906,
      "cents": 0
    },
    {
      "id": "id_6rdi38vw2mnv3kmnu",
      "tick": 88200,
      "seconds": 68.906,
      "cents": 0
    },
    {
      "id": "id_lz3behizfmnv3kmnu",
      "tick": 88320,
      "seconds": 69,
      "cents": 100
    },
    {
      "id": "id_90f286btcmnv3kmnu",
      "tick": 88320,
      "seconds": 69,
      "cents": 100
    },
    {
      "id": "id_ah5vdo7f2mnv3kmnu",
      "tick": 88800,
      "seconds": 69.375,
      "cents": 100
    },
    {
      "id": "id_suyrmp1twmnv3kmnu",
      "tick": 88800,
      "seconds": 69.375,
      "cents": 100
    },
    {
      "id": "id_9e8j5s0s8mnv3kmnu",
      "tick": 88920,
      "seconds": 69.469,
      "cents": 0
    },
    {
      "id": "id_0coq1il7kmnv3kmnu",
      "tick": 88920,
      "seconds": 69.469,
      "cents": 0
    },
    {
      "id": "id_1i827fw77mnv3kmnu",
      "tick": 91080,
      "seconds": 71.156,
      "cents": 0
    },
    {
      "id": "id_trimxd2wvmnv3kmnu",
      "tick": 91200,
      "seconds": 71.25,
      "cents": 0
    },
    {
      "id": "id_fzula15fxmnv3kmnu",
      "tick": 91680,
      "seconds": 71.625,
      "cents": 0
    },
    {
      "id": "id_c0b8rzc1amnv3kmnu",
      "tick": 92160,
      "seconds": 72,
      "cents": -200
    },
    {
      "id": "id_xbx1k4gs4mnv3kmnu",
      "tick": 94920,
      "seconds": 74.156,
      "cents": -200
    },
    {
      "id": "id_226pjjc4nmnv3kmnu",
      "tick": 95040,
      "seconds": 74.25,
      "cents": 0
    },
    {
      "id": "id_q254l874fmnv3kmnu",
      "tick": 95160,
      "seconds": 74.344,
      "cents": 0
    },
    {
      "id": "id_xdnljjs4mmnv3kmnu",
      "tick": 95400,
      "seconds": 74.531,
      "cents": 0
    },
    {
      "id": "id_pux5gffpfmnv3kmnu",
      "tick": 95640,
      "seconds": 74.719,
      "cents": 200
    },
    {
      "id": "id_t6vevwpu7mnv3kmnu",
      "tick": 95880,
      "seconds": 74.906,
      "cents": 200
    },
    {
      "id": "id_xj0g8cbx7mnv3kmnu",
      "tick": 96000,
      "seconds": 75,
      "cents": 0
    },
    {
      "id": "id_psb9ns7hpmnv3kmnu",
      "tick": 96840,
      "seconds": 75.656,
      "cents": 0
    },
    {
      "id": "id_f3mf3mtzqmnv3kmnu",
      "tick": 97080,
      "seconds": 75.844,
      "cents": 100
    },
    {
      "id": "id_9o6kerf6tmnv3kmnu",
      "tick": 97320,
      "seconds": 76.031,
      "cents": 100
    },
    {
      "id": "id_00jh7zqafmnv3kmnu",
      "tick": 97440,
      "seconds": 76.125,
      "cents": 0
    },
    {
      "id": "id_hygmbbx2hmnv4ezn2",
      "tick": 106680,
      "seconds": 83.344,
      "cents": 0
    },
    {
      "id": "id_pv2qwh8hwmnv4gcro",
      "tick": 106680,
      "seconds": 83.344,
      "cents": 0
    },
    {
      "id": "id_gvxz5jxvhmnv4f3n3",
      "tick": 107400,
      "seconds": 83.906,
      "cents": 200
    },
    {
      "id": "id_xyw34sypamnv4gcro",
      "tick": 107400,
      "seconds": 83.906,
      "cents": 200
    },
    {
      "id": "id_ce05nurglmnv4f7u0",
      "tick": 109200,
      "seconds": 85.313,
      "cents": 200
    },
    {
      "id": "id_2xpkchau3mnv4gcro",
      "tick": 109200,
      "seconds": 85.313,
      "cents": 200
    },
    {
      "id": "id_z31qnw7bfmnv4fa99",
      "tick": 109320,
      "seconds": 85.406,
      "cents": 0
    },
    {
      "id": "id_ptoxvx43omnv4gcro",
      "tick": 109320,
      "seconds": 85.406,
      "cents": 0
    },
    {
      "id": "id_4re2nk0bvmnv3kmnu",
      "tick": 112440,
      "seconds": 87.844,
      "cents": 0
    },
    {
      "id": "id_jujdxntr8mnv3kmnu",
      "tick": 112440,
      "seconds": 87.844,
      "cents": 0
    },
    {
      "id": "id_op92xmkkomnv3p0uo",
      "tick": 112440,
      "seconds": 87.844,
      "cents": 0
    },
    {
      "id": "id_bn2p6kqwwmnv3p0uo",
      "tick": 112440,
      "seconds": 87.844,
      "cents": 0
    },
    {
      "id": "id_h463uy6upmnv3kmnu",
      "tick": 113160,
      "seconds": 88.406,
      "cents": 200
    },
    {
      "id": "id_z5q3yecu5mnv3kmnu",
      "tick": 113160,
      "seconds": 88.406,
      "cents": 200
    },
    {
      "id": "id_d30m479dymnv3p0uo",
      "tick": 113160,
      "seconds": 88.406,
      "cents": 200
    },
    {
      "id": "id_tb107fhkvmnv3p0uo",
      "tick": 113160,
      "seconds": 88.406,
      "cents": 200
    },
    {
      "id": "id_btnag2lxymnv3kmnu",
      "tick": 114240,
      "seconds": 89.25,
      "cents": 200
    },
    {
      "id": "id_j8pug5brrmnv3p0uo",
      "tick": 114240,
      "seconds": 89.25,
      "cents": 200
    },
    {
      "id": "id_238oys4flmnv3kmnu",
      "tick": 114960,
      "seconds": 89.813,
      "cents": 200
    },
    {
      "id": "id_i1ajxr1qymnv3kmnu",
      "tick": 114960,
      "seconds": 89.813,
      "cents": 200
    },
    {
      "id": "id_2r9af0l7bmnv3p0uo",
      "tick": 114960,
      "seconds": 89.813,
      "cents": 200
    },
    {
      "id": "id_oyeefasf8mnv3p0uo",
      "tick": 114960,
      "seconds": 89.813,
      "cents": 200
    },
    {
      "id": "id_knfdntmgpmnv3kmnu",
      "tick": 115080,
      "seconds": 89.906,
      "cents": 0
    },
    {
      "id": "id_ai4pong2lmnv3p0uo",
      "tick": 115080,
      "seconds": 89.906,
      "cents": 0
    },
    {
      "id": "id_v13lk5zwsmnv3kmnu",
      "tick": 115200,
      "seconds": 90,
      "cents": 0
    },
    {
      "id": "id_pjo1mjnntmnv3kmnu",
      "tick": 115200,
      "seconds": 90,
      "cents": 0
    },
    {
      "id": "id_0y56zvueymnv3p0uo",
      "tick": 115200,
      "seconds": 90,
      "cents": 0
    },
    {
      "id": "id_14u4tzyr8mnv3p0uo",
      "tick": 115200,
      "seconds": 90,
      "cents": 0
    },
    {
      "id": "id_0a0mgiuzmmnv3qdvx",
      "tick": 115200,
      "seconds": 90,
      "cents": 0
    },
    {
      "id": "id_8u7os6og3mnv3qdvx",
      "tick": 115200,
      "seconds": 90,
      "cents": 0
    },
    {
      "id": "id_qjqoxnd1mmnv3qdvx",
      "tick": 115200,
      "seconds": 90,
      "cents": 0
    },
    {
      "id": "id_5w5v0be7jmnv3qdvx",
      "tick": 115200,
      "seconds": 90,
      "cents": 0
    },
    {
      "id": "id_kvztrktp2mnv3kmnu",
      "tick": 121920,
      "seconds": 95.25,
      "cents": 0
    },
    {
      "id": "id_09s7pkd11mnv3kmnu",
      "tick": 122400,
      "seconds": 95.625,
      "cents": -2400
    },
    {
      "id": "id_ajv02sbofmnv3kmnu",
      "tick": 122520,
      "seconds": 95.719,
      "cents": 0
    },
    {
      "id": "id_b3q63xmaxmnv3kmnu",
      "tick": 122760,
      "seconds": 95.906,
      "cents": 0
    },
    {
      "id": "id_7h3bq7j9lmnv3kmnu",
      "tick": 123360,
      "seconds": 96.375,
      "cents": 0
    },
    {
      "id": "id_om9hx66dzmnv3kmnu",
      "tick": 123960,
      "seconds": 96.844,
      "cents": 0
    },
    {
      "id": "id_e0ncx19x0mnv3kmnu",
      "tick": 123960,
      "seconds": 96.844,
      "cents": 0
    },
    {
      "id": "id_rg50l4v6amnv3kmnu",
      "tick": 123960,
      "seconds": 96.844,
      "cents": 0
    },
    {
      "id": "id_y320pjc7omnv3kmnu",
      "tick": 124200,
      "seconds": 97.031,
      "cents": 0
    },
    {
      "id": "id_wjsx441s8mnv3kmnu",
      "tick": 124200,
      "seconds": 97.031,
      "cents": 0
    },
    {
      "id": "id_w4z0rm9pmmnv3kmnu",
      "tick": 124200,
      "seconds": 97.031,
      "cents": 0
    },
    {
      "id": "id_4hfy5phavmnv3kmnu",
      "tick": 124800,
      "seconds": 97.5,
      "cents": 0
    },
    {
      "id": "id_01istkklumnv3kmnu",
      "tick": 124800,
      "seconds": 97.5,
      "cents": 0
    },
    {
      "id": "id_0ituhtjzxmnv3kmnu",
      "tick": 124800,
      "seconds": 97.5,
      "cents": 0
    },
    {
      "id": "id_gznajtd1amnv3kmnu",
      "tick": 125280,
      "seconds": 97.875,
      "cents": -2400
    },
    {
      "id": "id_f5jx8qhscmnv3kmnu",
      "tick": 125640,
      "seconds": 98.156,
      "cents": 200
    },
    {
      "id": "id_nmeiljglhmnv3kmnu",
      "tick": 126360,
      "seconds": 98.719,
      "cents": 300
    },
    {
      "id": "id_awv9a0ex5mnv3kmnu",
      "tick": 126600,
      "seconds": 98.906,
      "cents": 300
    },
    {
      "id": "id_hmb821lrvmnv3wqx5",
      "tick": 126720,
      "seconds": 99,
      "cents": 0
    },
    {
      "id": "id_20ney0cs3mnv3wqx5",
      "tick": 126720,
      "seconds": 99,
      "cents": 0
    },
    {
      "id": "id_xs8j2u7zpmnv3kmnu",
      "tick": 129600,
      "seconds": 101.25,
      "cents": 0
    },
    {
      "id": "id_gp0r0u5zpmnv3tyc9",
      "tick": 129600,
      "seconds": 101.25,
      "cents": 0
    },
    {
      "id": "id_na6ouzov4mnv3yjly",
      "tick": 129600,
      "seconds": 101.25,
      "cents": 0
    },
    {
      "id": "id_g2553ork0mnv3yjly",
      "tick": 129600,
      "seconds": 101.25,
      "cents": 0
    },
    {
      "id": "id_1bf8a2oqcmnv3xezu",
      "tick": 129720,
      "seconds": 101.344,
      "cents": 0
    },
    {
      "id": "id_4cys3pu7omnv3yjly",
      "tick": 129720,
      "seconds": 101.344,
      "cents": 0
    },
    {
      "id": "id_03sepitjmmnv3xi6j",
      "tick": 130440,
      "seconds": 101.906,
      "cents": 200
    },
    {
      "id": "id_bjpbd6dycmnv3yjly",
      "tick": 130440,
      "seconds": 101.906,
      "cents": 200
    },
    {
      "id": "id_y3tykdlbhmnv3xokr",
      "tick": 132240,
      "seconds": 103.313,
      "cents": 200
    },
    {
      "id": "id_skovkmxv9mnv3yjly",
      "tick": 132240,
      "seconds": 103.313,
      "cents": 200
    },
    {
      "id": "id_4ffkhm4y5mnv3xqws",
      "tick": 132360,
      "seconds": 103.406,
      "cents": 0
    },
    {
      "id": "id_7iy3syg5dmnv3yjly",
      "tick": 132360,
      "seconds": 103.406,
      "cents": 0
    },
    {
      "id": "id_0n3p2ur9ymnv3z9ap",
      "tick": 132480,
      "seconds": 103.5,
      "cents": 0
    },
    {
      "id": "id_9o0urrqo7mnv3z9ap",
      "tick": 132480,
      "seconds": 103.5,
      "cents": 0
    },
    {
      "id": "id_fr8zuublcmnv3z9ap",
      "tick": 135360,
      "seconds": 105.75,
      "cents": 0
    },
    {
      "id": "id_1vzsjd16jmnv3z9ap",
      "tick": 135360,
      "seconds": 105.75,
      "cents": 0
    },
    {
      "id": "id_st3gy0uehmnv3z9ap",
      "tick": 135360,
      "seconds": 105.75,
      "cents": 0
    },
    {
      "id": "id_oihui7h9ymnv3z9ap",
      "tick": 135360,
      "seconds": 105.75,
      "cents": 0
    },
    {
      "id": "id_zemb4q2pomnv40fss",
      "tick": 135360,
      "seconds": 105.75,
      "cents": 0
    },
    {
      "id": "id_owpz2qrf1mnv40fss",
      "tick": 135360,
      "seconds": 105.75,
      "cents": 0
    },
    {
      "id": "id_g1gvjx4wjmnv40fss",
      "tick": 135360,
      "seconds": 105.75,
      "cents": 0
    },
    {
      "id": "id_4tnv4e0qmmnv40fss",
      "tick": 135360,
      "seconds": 105.75,
      "cents": 0
    },
    {
      "id": "id_cz2535qf7mnv3kmnu",
      "tick": 135480,
      "seconds": 105.844,
      "cents": 0
    },
    {
      "id": "id_m1y6w8wvdmnv3kmnu",
      "tick": 135480,
      "seconds": 105.844,
      "cents": 0
    },
    {
      "id": "id_8zfzl3x7omnv3kmnu",
      "tick": 135480,
      "seconds": 105.844,
      "cents": 0
    },
    {
      "id": "id_kk4sjt3prmnv40fss",
      "tick": 135480,
      "seconds": 105.844,
      "cents": 0
    },
    {
      "id": "id_2tvk9h8j0mnv40fss",
      "tick": 135480,
      "seconds": 105.844,
      "cents": 0
    },
    {
      "id": "id_d2e2qlmmsmnv3kmnu",
      "tick": 136200,
      "seconds": 106.406,
      "cents": 200
    },
    {
      "id": "id_0qybd9hphmnv3kmnu",
      "tick": 136200,
      "seconds": 106.406,
      "cents": 200
    },
    {
      "id": "id_btksd4ldlmnv40fss",
      "tick": 136200,
      "seconds": 106.406,
      "cents": 200
    },
    {
      "id": "id_3tx3z1nzhmnv40fss",
      "tick": 136200,
      "seconds": 106.406,
      "cents": 200
    },
    {
      "id": "id_t75iuw2z3mnv3kmnu",
      "tick": 137280,
      "seconds": 107.25,
      "cents": 200
    },
    {
      "id": "id_0vjhcvr4emnv3kmnu",
      "tick": 138000,
      "seconds": 107.813,
      "cents": 200
    },
    {
      "id": "id_ctxlzyxqmmnv3kmnu",
      "tick": 138000,
      "seconds": 107.813,
      "cents": 200
    },
    {
      "id": "id_wge0aj08jmnv40fss",
      "tick": 138000,
      "seconds": 107.813,
      "cents": 200
    },
    {
      "id": "id_aqaprd35dmnv40fss",
      "tick": 138000,
      "seconds": 107.813,
      "cents": 200
    },
    {
      "id": "id_iy98vzz6vmnv3kmnu",
      "tick": 138120,
      "seconds": 107.906,
      "cents": 0
    },
    {
      "id": "id_qyrg7lrypmnv40fss",
      "tick": 138120,
      "seconds": 107.906,
      "cents": 0
    },
    {
      "id": "id_9iwudpzwrmnv40fss",
      "tick": 138120,
      "seconds": 107.906,
      "cents": 0
    },
    {
      "id": "id_np0vi8ry8mnv3kmnu",
      "tick": 144960,
      "seconds": 113.25,
      "cents": 0
    },
    {
      "id": "id_frhmkxpjwmnv3kmnu",
      "tick": 145440,
      "seconds": 113.625,
      "cents": -2400
    },
    {
      "id": "id_2u3j6gwezmnv3kmnu",
      "tick": 145560,
      "seconds": 113.719,
      "cents": 0
    },
    {
      "id": "id_u6iqj06y4mnv3kmnu",
      "tick": 145800,
      "seconds": 113.906,
      "cents": 0
    },
    {
      "id": "id_6x9g8fz42mnv3kmnu",
      "tick": 146400,
      "seconds": 114.375,
      "cents": 0
    },
    {
      "id": "id_s9ma66yzymnv3kmnu",
      "tick": 147000,
      "seconds": 114.844,
      "cents": 0
    },
    {
      "id": "id_obh8j8uu7mnv3kmnu",
      "tick": 147000,
      "seconds": 114.844,
      "cents": 0
    },
    {
      "id": "id_49hqf2qp2mnv3kmnu",
      "tick": 147000,
      "seconds": 114.844,
      "cents": 0
    },
    {
      "id": "id_xtnhkop1emnv3kmnu",
      "tick": 147240,
      "seconds": 115.031,
      "cents": 0
    },
    {
      "id": "id_pk1zue4cgmnv3kmnu",
      "tick": 147240,
      "seconds": 115.031,
      "cents": 0
    },
    {
      "id": "id_9r4dcebj2mnv3kmnu",
      "tick": 147240,
      "seconds": 115.031,
      "cents": 0
    },
    {
      "id": "id_xi11igutimnv3kmnu",
      "tick": 147840,
      "seconds": 115.5,
      "cents": 0
    },
    {
      "id": "id_20rc9wry5mnv3kmnu",
      "tick": 147840,
      "seconds": 115.5,
      "cents": 0
    },
    {
      "id": "id_imeetcab8mnv3kmnu",
      "tick": 147840,
      "seconds": 115.5,
      "cents": 0
    },
    {
      "id": "id_um40i5oyomnv3kmnu",
      "tick": 148320,
      "seconds": 115.875,
      "cents": -2400
    },
    {
      "id": "id_ef5uc1a5smnv3kmnu",
      "tick": 148440,
      "seconds": 115.969,
      "cents": 300
    },
    {
      "id": "id_0ukqiz0v6mnv3kmnu",
      "tick": 149400,
      "seconds": 116.719,
      "cents": 300
    },
    {
      "id": "id_4ma35phhtmnv3kmnu",
      "tick": 149640,
      "seconds": 116.906,
      "cents": 300
    },
    {
      "id": "id_8qlw3dzkkmnv3kmnu",
      "tick": 149760,
      "seconds": 117,
      "cents": 0
    },
    {
      "id": "id_p4w9i5n6bmnv3kmnu",
      "tick": 150240,
      "seconds": 117.375,
      "cents": 0
    },
    {
      "id": "id_5w53vov48mnv3kmnu",
      "tick": 150240,
      "seconds": 117.375,
      "cents": 0
    },
    {
      "id": "id_o2mp8kd5smnv3kmnu",
      "tick": 151560,
      "seconds": 118.406,
      "cents": 0
    },
    {
      "id": "id_7svu51j22mnv3kmnu",
      "tick": 151800,
      "seconds": 118.594,
      "cents": 100
    },
    {
      "id": "id_1psdm8fbxmnv3kmnu",
      "tick": 152040,
      "seconds": 118.781,
      "cents": 100
    },
    {
      "id": "id_b2i5l9xxdmnv3kmnu",
      "tick": 152160,
      "seconds": 118.875,
      "cents": 0
    },
    {
      "id": "id_28teaq5ddmnv3kmnu",
      "tick": 154440,
      "seconds": 120.656,
      "cents": 0
    },
    {
      "id": "id_6kxlf64lbmnv3kmnu",
      "tick": 154680,
      "seconds": 120.844,
      "cents": 100
    },
    {
      "id": "id_32d6wki1pmnv3kmnu",
      "tick": 154920,
      "seconds": 121.031,
      "cents": 100
    },
    {
      "id": "id_6kfg1u6yymnv3kmnu",
      "tick": 155040,
      "seconds": 121.125,
      "cents": 0
    },
    {
      "id": "id_5v3q1ebc1mnv3kmnu",
      "tick": 155280,
      "seconds": 121.313,
      "cents": 0
    },
    {
      "id": "id_p6frich4gmnv3kmnu",
      "tick": 155520,
      "seconds": 121.5,
      "cents": 200
    },
    {
      "id": "id_98v9bh6tjmnv3kmnu",
      "tick": 156840,
      "seconds": 122.531,
      "cents": 200
    },
    {
      "id": "id_d0ma12rz9mnv3kmnu",
      "tick": 156960,
      "seconds": 122.625,
      "cents": 0
    },
    {
      "id": "id_aak7mfm2lmnv3kmnu",
      "tick": 157200,
      "seconds": 122.813,
      "cents": 0
    },
    {
      "id": "id_eeq0qmx8jmnv3kmnu",
      "tick": 158160,
      "seconds": 123.563,
      "cents": 200
    },
    {
      "id": "id_w1tg865sgmnv3kmnu",
      "tick": 158280,
      "seconds": 123.656,
      "cents": 200
    },
    {
      "id": "id_scpq3b39fmnv3kmnu",
      "tick": 158280,
      "seconds": 123.656,
      "cents": 200
    },
    {
      "id": "id_5ge44at12mnv3kmnu",
      "tick": 158400,
      "seconds": 123.75,
      "cents": 0
    }
  ]
}