{
  "schema": "pitch-timeline/v1-export",
  "project": {
    "id": "id_jqp9s9kiemnqhlwwn",
    "title": "regression-transition-1.1",
    "tempoBpm": 138,
    "timeSignature": {
      "numerator": 3,
      "denominator": 4
    },
    "ppq": 480,
    "bendRangeCents": 2400,
    "totalBars": 620,
    "durationTicks": 892800,
    "durationSeconds": 808.696,
    "instruments": [
      {
        "name": "Instrument 1",
        "color": "#4fc3f7",
        "voice": "triangle"
      },
      {
        "name": "Cello",
        "color": "#f06292",
        "voice": "waf-violin"
      },
      {
        "name": "Chords",
        "color": "#aed581",
        "voice": "waf-strings"
      },
      {
        "name": "Instrument 4",
        "color": "#ffb74d",
        "voice": "waf-piano"
      }
    ]
  },
  "notes": [
    {
      "id": "id_h9d6vphn7mnwl0o96",
      "pitch": 32,
      "pitchName": "G#1",
      "frequencyHz": 51.913087,
      "startTick": 0,
      "durationTicks": 240,
      "endTick": 240,
      "startSeconds": 0,
      "durationSeconds": 0.217,
      "endSeconds": 0.217,
      "velocity": 0.8,
      "bendActive": true,
      "instrument": 0
    },
    {
      "id": "id_ic71wa7c8mnwl0o96",
      "pitch": 54,
      "pitchName": "F#3",
      "frequencyHz": 184.997211,
      "startTick": 0,
      "durationTicks": 240,
      "endTick": 240,
      "startSeconds": 0,
      "durationSeconds": 0.217,
      "endSeconds": 0.217,
      "velocity": 0.1,
      "bendActive": true,
      "instrument": 0
    },
    {
      "id": "id_v73xwuocvmnwl0o96",
      "pitch": 32,
      "pitchName": "G#1",
      "frequencyHz": 51.913087,
      "startTick": 240,
      "durationTicks": 240,
      "endTick": 480,
      "startSeconds": 0.217,
      "durationSeconds": 0.217,
      "endSeconds": 0.435,
      "velocity": 0.5,
      "bendActive": true,
      "instrument": 0
    },
    {
      "id": "id_h1ubhs1vvmnwl0o96",
      "pitch": 54,
      "pitchName": "F#3",
      "frequencyHz": 184.997211,
      "startTick": 240,
      "durationTicks": 240,
      "endTick": 480,
      "startSeconds": 0.217,
      "durationSeconds": 0.217,
      "endSeconds": 0.435,
      "velocity": 0.1,
      "bendActive": true,
      "instrument": 0
    },
    {
      "id": "id_6hg14dsgwmnwl0o96",
      "pitch": 32,
      "pitchName": "G#1",
      "frequencyHz": 51.913087,
      "startTick": 480,
      "durationTicks": 240,
      "endTick": 720,
      "startSeconds": 0.435,
      "durationSeconds": 0.217,
      "endSeconds": 0.652,
      "velocity": 0.4,
      "bendActive": true,
      "instrument": 0
    },
    {
      "id": "id_dq1bjm8v2mnwl0o96",
      "pitch": 59,
      "pitchName": "B3",
      "frequencyHz": 246.941651,
      "startTick": 480,
      "durationTicks": 240,
      "endTick": 720,
      "startSeconds": 0.435,
      "durationSeconds": 0.217,
      "endSeconds": 0.652,
      "velocity": 0.1,
      "bendActive": true,
      "instrument": 0
    },
    {
      "id": "id_1jifvspdemnwl0o96",
      "pitch": 32,
      "pitchName": "G#1",
      "frequencyHz": 51.913087,
      "startTick": 720,
      "durationTicks": 240,
      "endTick": 960,
      "startSeconds": 0.652,
      "durationSeconds": 0.217,
      "endSeconds": 0.87,
      "velocity": 0.8,
      "bendActive": true,
      "instrument": 0
    },
    {
      "id": "id_qjml2nh4umnwl0o96",
      "pitch": 51,
      "pitchName": "D#3",
      "frequencyHz": 155.563492,
      "startTick": 720,
      "durationTicks": 240,
      "endTick": 960,
      "startSeconds": 0.652,
      "durationSeconds": 0.217,
      "endSeconds": 0.87,
      "velocity": 0.1,
      "bendActive": true,
      "instrument": 0
    },
    {
      "id": "id_4mdwceytdmnwl0o96",
      "pitch": 32,
      "pitchName": "G#1",
      "frequencyHz": 51.913087,
      "startTick": 960,
      "durationTicks": 240,
      "endTick": 1200,
      "startSeconds": 0.87,
      "durationSeconds": 0.217,
      "endSeconds": 1.087,
      "velocity": 0.4,
      "bendActive": true,
      "instrument": 0
    },
    {
      "id": "id_x8znyvb4xmnwl0o96",
      "pitch": 54,
      "pitchName": "F#3",
      "frequencyHz": 184.997211,
      "startTick": 960,
      "durationTicks": 240,
      "endTick": 1200,
      "startSeconds": 0.87,
      "durationSeconds": 0.217,
      "endSeconds": 1.087,
      "velocity": 0.1,
      "bendActive": true,
      "instrument": 0
    },
    {
      "id": "id_c7jlzornimnwl0o96",
      "pitch": 32,
      "pitchName": "G#1",
      "frequencyHz": 51.913087,
      "startTick": 1200,
      "durationTicks": 120,
      "endTick": 1320,
      "startSeconds": 1.087,
      "durationSeconds": 0.109,
      "endSeconds": 1.196,
      "velocity": 0.5,
      "bendActive": true,
      "instrument": 0
    },
    {
      "id": "id_9kmmrtbl7mnwl0o96",
      "pitch": 47,
      "pitchName": "B2",
      "frequencyHz": 123.470825,
      "startTick": 1200,
      "durationTicks": 120,
      "endTick": 1320,
      "startSeconds": 1.087,
      "durationSeconds": 0.109,
      "endSeconds": 1.196,
      "velocity": 0.1,
      "bendActive": true,
      "instrument": 0
    },
    {
      "id": "id_z44nsqaj7mnwl0o96",
      "pitch": 47,
      "pitchName": "B2",
      "frequencyHz": 123.470825,
      "startTick": 1320,
      "durationTicks": 120,
      "endTick": 1440,
      "startSeconds": 1.196,
      "durationSeconds": 0.109,
      "endSeconds": 1.304,
      "velocity": 0.8,
      "bendActive": true,
      "instrument": 0
    },
    {
      "id": "id_o85zvzq97mnwl0o96",
      "pitch": 32,
      "pitchName": "G#1",
      "frequencyHz": 51.913087,
      "startTick": 1440,
      "durationTicks": 240,
      "endTick": 1680,
      "startSeconds": 1.304,
      "durationSeconds": 0.217,
      "endSeconds": 1.522,
      "velocity": 0.8,
      "bendActive": true,
      "instrument": 0
    },
    {
      "id": "id_b143b329jmnwl0o96",
      "pitch": 54,
      "pitchName": "F#3",
      "frequencyHz": 184.997211,
      "startTick": 1440,
      "durationTicks": 240,
      "endTick": 1680,
      "startSeconds": 1.304,
      "durationSeconds": 0.217,
      "endSeconds": 1.522,
      "velocity": 0.1,
      "bendActive": true,
      "instrument": 0
    },
    {
      "id": "id_cnn76nlahmnwl0o96",
      "pitch": 32,
      "pitchName": "G#1",
      "frequencyHz": 51.913087,
      "startTick": 1680,
      "durationTicks": 240,
      "endTick": 1920,
      "startSeconds": 1.522,
      "durationSeconds": 0.217,
      "endSeconds": 1.739,
      "velocity": 0.5,
      "bendActive": true,
      "instrument": 0
    },
    {
      "id": "id_t6jjntgjbmnwl0o96",
      "pitch": 54,
      "pitchName": "F#3",
      "frequencyHz": 184.997211,
      "startTick": 1680,
      "durationTicks": 240,
      "endTick": 1920,
      "startSeconds": 1.522,
      "durationSeconds": 0.217,
      "endSeconds": 1.739,
      "velocity": 0.1,
      "bendActive": true,
      "instrument": 0
    },
    {
      "id": "id_cl4oq3s86mnwl0o96",
      "pitch": 32,
      "pitchName": "G#1",
      "frequencyHz": 51.913087,
      "startTick": 1920,
      "durationTicks": 240,
      "endTick": 2160,
      "startSeconds": 1.739,
      "durationSeconds": 0.217,
      "endSeconds": 1.957,
      "velocity": 0.4,
      "bendActive": true,
      "instrument": 0
    },
    {
      "id": "id_v1mnqbeyfmnwl0o96",
      "pitch": 59,
      "pitchName": "B3",
      "frequencyHz": 246.941651,
      "startTick": 1920,
      "durationTicks": 240,
      "endTick": 2160,
      "startSeconds": 1.739,
      "durationSeconds": 0.217,
      "endSeconds": 1.957,
      "velocity": 0.1,
      "bendActive": true,
      "instrument": 0
    },
    {
      "id": "id_xqnqdyg5pmnwl0o96",
      "pitch": 32,
      "pitchName": "G#1",
      "frequencyHz": 51.913087,
      "startTick": 2160,
      "durationTicks": 240,
      "endTick": 2400,
      "startSeconds": 1.957,
      "durationSeconds": 0.217,
      "endSeconds": 2.174,
      "velocity": 0.8,
      "bendActive": true,
      "instrument": 0
    },
    {
      "id": "id_p27ogss46mnwl0o96",
      "pitch": 51,
      "pitchName": "D#3",
      "frequencyHz": 155.563492,
      "startTick": 2160,
      "durationTicks": 240,
      "endTick": 2400,
      "startSeconds": 1.957,
      "durationSeconds": 0.217,
      "endSeconds": 2.174,
      "velocity": 0.1,
      "bendActive": true,
      "instrument": 0
    },
    {
      "id": "id_nt770wzfjmnwl0o96",
      "pitch": 32,
      "pitchName": "G#1",
      "frequencyHz": 51.913087,
      "startTick": 2400,
      "durationTicks": 240,
      "endTick": 2640,
      "startSeconds": 2.174,
      "durationSeconds": 0.217,
      "endSeconds": 2.391,
      "velocity": 0.4,
      "bendActive": true,
      "instrument": 0
    },
    {
      "id": "id_xic8qwcrfmnwl0o96",
      "pitch": 54,
      "pitchName": "F#3",
      "frequencyHz": 184.997211,
      "startTick": 2400,
      "durationTicks": 240,
      "endTick": 2640,
      "startSeconds": 2.174,
      "durationSeconds": 0.217,
      "endSeconds": 2.391,
      "velocity": 0.1,
      "bendActive": true,
      "instrument": 0
    },
    {
      "id": "id_5mifm5abbmnwl0o96",
      "pitch": 32,
      "pitchName": "G#1",
      "frequencyHz": 51.913087,
      "startTick": 2640,
      "durationTicks": 120,
      "endTick": 2760,
      "startSeconds": 2.391,
      "durationSeconds": 0.109,
      "endSeconds": 2.5,
      "velocity": 0.5,
      "bendActive": true,
      "instrument": 0
    },
    {
      "id": "id_kjrmmbjkwmnwl0o96",
      "pitch": 47,
      "pitchName": "B2",
      "frequencyHz": 123.470825,
      "startTick": 2640,
      "durationTicks": 120,
      "endTick": 2760,
      "startSeconds": 2.391,
      "durationSeconds": 0.109,
      "endSeconds": 2.5,
      "velocity": 0.1,
      "bendActive": true,
      "instrument": 0
    },
    {
      "id": "id_ua85vj08bmnwl0o96",
      "pitch": 44,
      "pitchName": "G#2",
      "frequencyHz": 103.826174,
      "startTick": 2760,
      "durationTicks": 120,
      "endTick": 2880,
      "startSeconds": 2.5,
      "durationSeconds": 0.109,
      "endSeconds": 2.609,
      "velocity": 0.8,
      "bendActive": true,
      "instrument": 0
    },
    {
      "id": "id_d6x8q69hkmnwl0o96",
      "pitch": 32,
      "pitchName": "G#1",
      "frequencyHz": 51.913087,
      "startTick": 2880,
      "durationTicks": 240,
      "endTick": 3120,
      "startSeconds": 2.609,
      "durationSeconds": 0.217,
      "endSeconds": 2.826,
      "velocity": 0.8,
      "bendActive": true,
      "instrument": 0
    },
    {
      "id": "id_x1kscf1smmnwl0o96",
      "pitch": 54,
      "pitchName": "F#3",
      "frequencyHz": 184.997211,
      "startTick": 2880,
      "durationTicks": 240,
      "endTick": 3120,
      "startSeconds": 2.609,
      "durationSeconds": 0.217,
      "endSeconds": 2.826,
      "velocity": 0.1,
      "bendActive": true,
      "instrument": 0
    },
    {
      "id": "id_l0osogouimnwl0o96",
      "pitch": 32,
      "pitchName": "G#1",
      "frequencyHz": 51.913087,
      "startTick": 3120,
      "durationTicks": 240,
      "endTick": 3360,
      "startSeconds": 2.826,
      "durationSeconds": 0.217,
      "endSeconds": 3.043,
      "velocity": 0.5,
      "bendActive": true,
      "instrument": 0
    },
    {
      "id": "id_k2mk96vxcmnwl0o96",
      "pitch": 54,
      "pitchName": "F#3",
      "frequencyHz": 184.997211,
      "startTick": 3120,
      "durationTicks": 240,
      "endTick": 3360,
      "startSeconds": 2.826,
      "durationSeconds": 0.217,
      "endSeconds": 3.043,
      "velocity": 0.1,
      "bendActive": true,
      "instrument": 0
    },
    {
      "id": "id_4srj9vyknmnwl0o96",
      "pitch": 32,
      "pitchName": "G#1",
      "frequencyHz": 51.913087,
      "startTick": 3360,
      "durationTicks": 240,
      "endTick": 3600,
      "startSeconds": 3.043,
      "durationSeconds": 0.217,
      "endSeconds": 3.261,
      "velocity": 0.4,
      "bendActive": true,
      "instrument": 0
    },
    {
      "id": "id_ggw3esgd4mnwl0o96",
      "pitch": 59,
      "pitchName": "B3",
      "frequencyHz": 246.941651,
      "startTick": 3360,
      "durationTicks": 240,
      "endTick": 3600,
      "startSeconds": 3.043,
      "durationSeconds": 0.217,
      "endSeconds": 3.261,
      "velocity": 0.1,
      "bendActive": true,
      "instrument": 0
    },
    {
      "id": "id_lva7y8mrbmnwl0o96",
      "pitch": 32,
      "pitchName": "G#1",
      "frequencyHz": 51.913087,
      "startTick": 3600,
      "durationTicks": 240,
      "endTick": 3840,
      "startSeconds": 3.261,
      "durationSeconds": 0.217,
      "endSeconds": 3.478,
      "velocity": 0.8,
      "bendActive": true,
      "instrument": 0
    },
    {
      "id": "id_h1tqc3a8gmnwl0o96",
      "pitch": 51,
      "pitchName": "D#3",
      "frequencyHz": 155.563492,
      "startTick": 3600,
      "durationTicks": 240,
      "endTick": 3840,
      "startSeconds": 3.261,
      "durationSeconds": 0.217,
      "endSeconds": 3.478,
      "velocity": 0.1,
      "bendActive": true,
      "instrument": 0
    },
    {
      "id": "id_f6ahfuijjmnwl0o96",
      "pitch": 32,
      "pitchName": "G#1",
      "frequencyHz": 51.913087,
      "startTick": 3840,
      "durationTicks": 240,
      "endTick": 4080,
      "startSeconds": 3.478,
      "durationSeconds": 0.217,
      "endSeconds": 3.696,
      "velocity": 0.4,
      "bendActive": true,
      "instrument": 0
    },
    {
      "id": "id_eps03sjj9mnwl0o96",
      "pitch": 54,
      "pitchName": "F#3",
      "frequencyHz": 184.997211,
      "startTick": 3840,
      "durationTicks": 240,
      "endTick": 4080,
      "startSeconds": 3.478,
      "durationSeconds": 0.217,
      "endSeconds": 3.696,
      "velocity": 0.1,
      "bendActive": true,
      "instrument": 0
    },
    {
      "id": "id_hj4u8vljlmnwl0o96",
      "pitch": 32,
      "pitchName": "G#1",
      "frequencyHz": 51.913087,
      "startTick": 4080,
      "durationTicks": 120,
      "endTick": 4200,
      "startSeconds": 3.696,
      "durationSeconds": 0.109,
      "endSeconds": 3.804,
      "velocity": 0.5,
      "bendActive": true,
      "instrument": 0
    },
    {
      "id": "id_586u2ju8bmnwl0o96",
      "pitch": 47,
      "pitchName": "B2",
      "frequencyHz": 123.470825,
      "startTick": 4080,
      "durationTicks": 120,
      "endTick": 4200,
      "startSeconds": 3.696,
      "durationSeconds": 0.109,
      "endSeconds": 3.804,
      "velocity": 0.1,
      "bendActive": true,
      "instrument": 0
    },
    {
      "id": "id_tpqglc7qkmnwl0o96",
      "pitch": 47,
      "pitchName": "B2",
      "frequencyHz": 123.470825,
      "startTick": 4200,
      "durationTicks": 120,
      "endTick": 4320,
      "startSeconds": 3.804,
      "durationSeconds": 0.109,
      "endSeconds": 3.913,
      "velocity": 0.8,
      "bendActive": true,
      "instrument": 0
    },
    {
      "id": "id_mfq7tfsmemnwl0o96",
      "pitch": 32,
      "pitchName": "G#1",
      "frequencyHz": 51.913087,
      "startTick": 4320,
      "durationTicks": 240,
      "endTick": 4560,
      "startSeconds": 3.913,
      "durationSeconds": 0.217,
      "endSeconds": 4.13,
      "velocity": 0.8,
      "bendActive": true,
      "instrument": 0
    },
    {
      "id": "id_on5wf4bzgmnwl0o96",
      "pitch": 51,
      "pitchName": "D#3",
      "frequencyHz": 155.563492,
      "startTick": 4320,
      "durationTicks": 240,
      "endTick": 4560,
      "startSeconds": 3.913,
      "durationSeconds": 0.217,
      "endSeconds": 4.13,
      "velocity": 0.1,
      "bendActive": true,
      "instrument": 0
    },
    {
      "id": "id_zk14n51lemnwl0o96",
      "pitch": 32,
      "pitchName": "G#1",
      "frequencyHz": 51.913087,
      "startTick": 4560,
      "durationTicks": 240,
      "endTick": 4800,
      "startSeconds": 4.13,
      "durationSeconds": 0.217,
      "endSeconds": 4.348,
      "velocity": 0.5,
      "bendActive": true,
      "instrument": 0
    },
    {
      "id": "id_87lgbbt0rmnwl0o96",
      "pitch": 51,
      "pitchName": "D#3",
      "frequencyHz": 155.563492,
      "startTick": 4560,
      "durationTicks": 240,
      "endTick": 4800,
      "startSeconds": 4.13,
      "durationSeconds": 0.217,
      "endSeconds": 4.348,
      "velocity": 0.1,
      "bendActive": true,
      "instrument": 0
    },
    {
      "id": "id_hcvv26k0pmnwl0o96",
      "pitch": 32,
      "pitchName": "G#1",
      "frequencyHz": 51.913087,
      "startTick": 4800,
      "durationTicks": 240,
      "endTick": 5040,
      "startSeconds": 4.348,
      "durationSeconds": 0.217,
      "endSeconds": 4.565,
      "velocity": 0.4,
      "bendActive": true,
      "instrument": 0
    },
    {
      "id": "id_em82zb8vymnwl0o96",
      "pitch": 58,
      "pitchName": "A#3",
      "frequencyHz": 233.081881,
      "startTick": 4800,
      "durationTicks": 240,
      "endTick": 5040,
      "startSeconds": 4.348,
      "durationSeconds": 0.217,
      "endSeconds": 4.565,
      "velocity": 0.1,
      "bendActive": true,
      "instrument": 0
    },
    {
      "id": "id_xdgjt27n2mnwl0o96",
      "pitch": 32,
      "pitchName": "G#1",
      "frequencyHz": 51.913087,
      "startTick": 5040,
      "durationTicks": 240,
      "endTick": 5280,
      "startSeconds": 4.565,
      "durationSeconds": 0.217,
      "endSeconds": 4.783,
      "velocity": 0.8,
      "bendActive": true,
      "instrument": 0
    },
    {
      "id": "id_03ea1q5ommnwl0o96",
      "pitch": 56,
      "pitchName": "G#3",
      "frequencyHz": 207.652349,
      "startTick": 5040,
      "durationTicks": 240,
      "endTick": 5280,
      "startSeconds": 4.565,
      "durationSeconds": 0.217,
      "endSeconds": 4.783,
      "velocity": 0.1,
      "bendActive": true,
      "instrument": 0
    },
    {
      "id": "id_bhjc898ylmnwl0o96",
      "pitch": 32,
      "pitchName": "G#1",
      "frequencyHz": 51.913087,
      "startTick": 5280,
      "durationTicks": 240,
      "endTick": 5520,
      "startSeconds": 4.783,
      "durationSeconds": 0.217,
      "endSeconds": 5,
      "velocity": 0.4,
      "bendActive": true,
      "instrument": 0
    },
    {
      "id": "id_t8sb6p0ytmnwl0o96",
      "pitch": 47,
      "pitchName": "B2",
      "frequencyHz": 123.470825,
      "startTick": 5280,
      "durationTicks": 240,
      "endTick": 5520,
      "startSeconds": 4.783,
      "durationSeconds": 0.217,
      "endSeconds": 5,
      "velocity": 0.5,
      "bendActive": true,
      "instrument": 0
    },
    {
      "id": "id_7tw1z6q9imnwl0o96",
      "pitch": 54,
      "pitchName": "F#3",
      "frequencyHz": 184.997211,
      "startTick": 5520,
      "durationTicks": 120,
      "endTick": 5640,
      "startSeconds": 5,
      "durationSeconds": 0.109,
      "endSeconds": 5.109,
      "velocity": 0.8,
      "bendActive": true,
      "instrument": 0
    },
    {
      "id": "id_hwthioyq7mnwl0o96",
      "pitch": 42,
      "pitchName": "F#2",
      "frequencyHz": 92.498606,
      "startTick": 5640,
      "durationTicks": 120,
      "endTick": 5760,
      "startSeconds": 5.109,
      "durationSeconds": 0.109,
      "endSeconds": 5.217,
      "velocity": 0.8,
      "bendActive": true,
      "instrument": 0
    },
    {
      "id": "id_68rgyqrb3mnwl0o96",
      "pitch": 32,
      "pitchName": "G#1",
      "frequencyHz": 51.913087,
      "startTick": 5760,
      "durationTicks": 240,
      "endTick": 6000,
      "startSeconds": 5.217,
      "durationSeconds": 0.217,
      "endSeconds": 5.435,
      "velocity": 0.8,
      "bendActive": true,
      "instrument": 0
    },
    {
      "id": "id_hzdfg7hvwmnwl0o96",
      "pitch": 54,
      "pitchName": "F#3",
      "frequencyHz": 184.997211,
      "startTick": 5760,
      "durationTicks": 240,
      "endTick": 6000,
      "startSeconds": 5.217,
      "durationSeconds": 0.217,
      "endSeconds": 5.435,
      "velocity": 0.1,
      "bendActive": true,
      "instrument": 0
    },
    {
      "id": "id_h0zmlfdsrmnwl0o96",
      "pitch": 32,
      "pitchName": "G#1",
      "frequencyHz": 51.913087,
      "startTick": 6000,
      "durationTicks": 240,
      "endTick": 6240,
      "startSeconds": 5.435,
      "durationSeconds": 0.217,
      "endSeconds": 5.652,
      "velocity": 0.5,
      "bendActive": true,
      "instrument": 0
    },
    {
      "id": "id_o6f9zrvu3mnwl0o96",
      "pitch": 54,
      "pitchName": "F#3",
      "frequencyHz": 184.997211,
      "startTick": 6000,
      "durationTicks": 240,
      "endTick": 6240,
      "startSeconds": 5.435,
      "durationSeconds": 0.217,
      "endSeconds": 5.652,
      "velocity": 0.1,
      "bendActive": true,
      "instrument": 0
    },
    {
      "id": "id_mcgs09znomnwl0o96",
      "pitch": 32,
      "pitchName": "G#1",
      "frequencyHz": 51.913087,
      "startTick": 6240,
      "durationTicks": 240,
      "endTick": 6480,
      "startSeconds": 5.652,
      "durationSeconds": 0.217,
      "endSeconds": 5.87,
      "velocity": 0.4,
      "bendActive": true,
      "instrument": 0
    },
    {
      "id": "id_fxtfo507gmnwl0o96",
      "pitch": 59,
      "pitchName": "B3",
      "frequencyHz": 246.941651,
      "startTick": 6240,
      "durationTicks": 240,
      "endTick": 6480,
      "startSeconds": 5.652,
      "durationSeconds": 0.217,
      "endSeconds": 5.87,
      "velocity": 0.1,
      "bendActive": true,
      "instrument": 0
    },
    {
      "id": "id_0egqbxhzlmnwl0o96",
      "pitch": 32,
      "pitchName": "G#1",
      "frequencyHz": 51.913087,
      "startTick": 6480,
      "durationTicks": 240,
      "endTick": 6720,
      "startSeconds": 5.87,
      "durationSeconds": 0.217,
      "endSeconds": 6.087,
      "velocity": 0.8,
      "bendActive": true,
      "instrument": 0
    },
    {
      "id": "id_9s7op7766mnwl0o96",
      "pitch": 51,
      "pitchName": "D#3",
      "frequencyHz": 155.563492,
      "startTick": 6480,
      "durationTicks": 240,
      "endTick": 6720,
      "startSeconds": 5.87,
      "durationSeconds": 0.217,
      "endSeconds": 6.087,
      "velocity": 0.1,
      "bendActive": true,
      "instrument": 0
    },
    {
      "id": "id_i7i3m3wfomnwl0o96",
      "pitch": 32,
      "pitchName": "G#1",
      "frequencyHz": 51.913087,
      "startTick": 6720,
      "durationTicks": 240,
      "endTick": 6960,
      "startSeconds": 6.087,
      "durationSeconds": 0.217,
      "endSeconds": 6.304,
      "velocity": 0.4,
      "bendActive": true,
      "instrument": 0
    },
    {
      "id": "id_h01l707mfmnwl0o96",
      "pitch": 54,
      "pitchName": "F#3",
      "frequencyHz": 184.997211,
      "startTick": 6720,
      "durationTicks": 240,
      "endTick": 6960,
      "startSeconds": 6.087,
      "durationSeconds": 0.217,
      "endSeconds": 6.304,
      "velocity": 0.1,
      "bendActive": true,
      "instrument": 0
    },
    {
      "id": "id_6mkeaduaxmnwl0o96",
      "pitch": 32,
      "pitchName": "G#1",
      "frequencyHz": 51.913087,
      "startTick": 6960,
      "durationTicks": 120,
      "endTick": 7080,
      "startSeconds": 6.304,
      "durationSeconds": 0.109,
      "endSeconds": 6.413,
      "velocity": 0.5,
      "bendActive": true,
      "instrument": 0
    },
    {
      "id": "id_pt3q3iu18mnwl0o96",
      "pitch": 47,
      "pitchName": "B2",
      "frequencyHz": 123.470825,
      "startTick": 6960,
      "durationTicks": 120,
      "endTick": 7080,
      "startSeconds": 6.304,
      "durationSeconds": 0.109,
      "endSeconds": 6.413,
      "velocity": 0.1,
      "bendActive": true,
      "instrument": 0
    },
    {
      "id": "id_hcw1eibwemnwl0o96",
      "pitch": 47,
      "pitchName": "B2",
      "frequencyHz": 123.470825,
      "startTick": 7080,
      "durationTicks": 120,
      "endTick": 7200,
      "startSeconds": 6.413,
      "durationSeconds": 0.109,
      "endSeconds": 6.522,
      "velocity": 0.8,
      "bendActive": true,
      "instrument": 0
    },
    {
      "id": "id_iumnmexxumnwl0o96",
      "pitch": 32,
      "pitchName": "G#1",
      "frequencyHz": 51.913087,
      "startTick": 7200,
      "durationTicks": 240,
      "endTick": 7440,
      "startSeconds": 6.522,
      "durationSeconds": 0.217,
      "endSeconds": 6.739,
      "velocity": 0.8,
      "bendActive": true,
      "instrument": 0
    },
    {
      "id": "id_qp9cr9t4jmnwl0o96",
      "pitch": 54,
      "pitchName": "F#3",
      "frequencyHz": 184.997211,
      "startTick": 7200,
      "durationTicks": 240,
      "endTick": 7440,
      "startSeconds": 6.522,
      "durationSeconds": 0.217,
      "endSeconds": 6.739,
      "velocity": 0.1,
      "bendActive": true,
      "instrument": 0
    },
    {
      "id": "id_tuofysx0jmnwl0o96",
      "pitch": 32,
      "pitchName": "G#1",
      "frequencyHz": 51.913087,
      "startTick": 7440,
      "durationTicks": 240,
      "endTick": 7680,
      "startSeconds": 6.739,
      "durationSeconds": 0.217,
      "endSeconds": 6.957,
      "velocity": 0.5,
      "bendActive": true,
      "instrument": 0
    },
    {
      "id": "id_aw46lkuxtmnwl0o96",
      "pitch": 54,
      "pitchName": "F#3",
      "frequencyHz": 184.997211,
      "startTick": 7440,
      "durationTicks": 240,
      "endTick": 7680,
      "startSeconds": 6.739,
      "durationSeconds": 0.217,
      "endSeconds": 6.957,
      "velocity": 0.1,
      "bendActive": true,
      "instrument": 0
    },
    {
      "id": "id_gy9sg9yufmnwl0o96",
      "pitch": 32,
      "pitchName": "G#1",
      "frequencyHz": 51.913087,
      "startTick": 7680,
      "durationTicks": 240,
      "endTick": 7920,
      "startSeconds": 6.957,
      "durationSeconds": 0.217,
      "endSeconds": 7.174,
      "velocity": 0.4,
      "bendActive": true,
      "instrument": 0
    },
    {
      "id": "id_cxm9y1r1umnwl0o96",
      "pitch": 59,
      "pitchName": "B3",
      "frequencyHz": 246.941651,
      "startTick": 7680,
      "durationTicks": 240,
      "endTick": 7920,
      "startSeconds": 6.957,
      "durationSeconds": 0.217,
      "endSeconds": 7.174,
      "velocity": 0.1,
      "bendActive": true,
      "instrument": 0
    },
    {
      "id": "id_3y5iu1yvxmnwl0o96",
      "pitch": 32,
      "pitchName": "G#1",
      "frequencyHz": 51.913087,
      "startTick": 7920,
      "durationTicks": 240,
      "endTick": 8160,
      "startSeconds": 7.174,
      "durationSeconds": 0.217,
      "endSeconds": 7.391,
      "velocity": 0.8,
      "bendActive": true,
      "instrument": 0
    },
    {
      "id": "id_hnu10h0f7mnwl0o96",
      "pitch": 51,
      "pitchName": "D#3",
      "frequencyHz": 155.563492,
      "startTick": 7920,
      "durationTicks": 240,
      "endTick": 8160,
      "startSeconds": 7.174,
      "durationSeconds": 0.217,
      "endSeconds": 7.391,
      "velocity": 0.1,
      "bendActive": true,
      "instrument": 0
    },
    {
      "id": "id_cycvhvjv6mnwl0o96",
      "pitch": 32,
      "pitchName": "G#1",
      "frequencyHz": 51.913087,
      "startTick": 8160,
      "durationTicks": 240,
      "endTick": 8400,
      "startSeconds": 7.391,
      "durationSeconds": 0.217,
      "endSeconds": 7.609,
      "velocity": 0.4,
      "bendActive": true,
      "instrument": 0
    },
    {
      "id": "id_78juqu2krmnwl0o96",
      "pitch": 54,
      "pitchName": "F#3",
      "frequencyHz": 184.997211,
      "startTick": 8160,
      "durationTicks": 240,
      "endTick": 8400,
      "startSeconds": 7.391,
      "durationSeconds": 0.217,
      "endSeconds": 7.609,
      "velocity": 0.1,
      "bendActive": true,
      "instrument": 0
    },
    {
      "id": "id_m521uiuuomnwl0o96",
      "pitch": 32,
      "pitchName": "G#1",
      "frequencyHz": 51.913087,
      "startTick": 8400,
      "durationTicks": 120,
      "endTick": 8520,
      "startSeconds": 7.609,
      "durationSeconds": 0.109,
      "endSeconds": 7.717,
      "velocity": 0.5,
      "bendActive": true,
      "instrument": 0
    },
    {
      "id": "id_5e1ge6ulumnwl0o96",
      "pitch": 47,
      "pitchName": "B2",
      "frequencyHz": 123.470825,
      "startTick": 8400,
      "durationTicks": 120,
      "endTick": 8520,
      "startSeconds": 7.609,
      "durationSeconds": 0.109,
      "endSeconds": 7.717,
      "velocity": 0.1,
      "bendActive": true,
      "instrument": 0
    },
    {
      "id": "id_k1w6f97jdmnwl0o96",
      "pitch": 44,
      "pitchName": "G#2",
      "frequencyHz": 103.826174,
      "startTick": 8520,
      "durationTicks": 120,
      "endTick": 8640,
      "startSeconds": 7.717,
      "durationSeconds": 0.109,
      "endSeconds": 7.826,
      "velocity": 0.8,
      "bendActive": true,
      "instrument": 0
    },
    {
      "id": "id_pbo7kzo86mnwl0o96",
      "pitch": 32,
      "pitchName": "G#1",
      "frequencyHz": 51.913087,
      "startTick": 8640,
      "durationTicks": 240,
      "endTick": 8880,
      "startSeconds": 7.826,
      "durationSeconds": 0.217,
      "endSeconds": 8.043,
      "velocity": 0.8,
      "bendActive": true,
      "instrument": 0
    },
    {
      "id": "id_t549cwu4lmnwl0o96",
      "pitch": 54,
      "pitchName": "F#3",
      "frequencyHz": 184.997211,
      "startTick": 8640,
      "durationTicks": 240,
      "endTick": 8880,
      "startSeconds": 7.826,
      "durationSeconds": 0.217,
      "endSeconds": 8.043,
      "velocity": 0.1,
      "bendActive": true,
      "instrument": 0
    },
    {
      "id": "id_hfyv56570mnwl0o96",
      "pitch": 32,
      "pitchName": "G#1",
      "frequencyHz": 51.913087,
      "startTick": 8880,
      "durationTicks": 240,
      "endTick": 9120,
      "startSeconds": 8.043,
      "durationSeconds": 0.217,
      "endSeconds": 8.261,
      "velocity": 0.5,
      "bendActive": true,
      "instrument": 0
    },
    {
      "id": "id_wgz62p7ogmnwl0o96",
      "pitch": 54,
      "pitchName": "F#3",
      "frequencyHz": 184.997211,
      "startTick": 8880,
      "durationTicks": 240,
      "endTick": 9120,
      "startSeconds": 8.043,
      "durationSeconds": 0.217,
      "endSeconds": 8.261,
      "velocity": 0.1,
      "bendActive": true,
      "instrument": 0
    },
    {
      "id": "id_22vrbv44emnwl0o96",
      "pitch": 32,
      "pitchName": "G#1",
      "frequencyHz": 51.913087,
      "startTick": 9120,
      "durationTicks": 240,
      "endTick": 9360,
      "startSeconds": 8.261,
      "durationSeconds": 0.217,
      "endSeconds": 8.478,
      "velocity": 0.4,
      "bendActive": true,
      "instrument": 0
    },
    {
      "id": "id_l8nwtglm5mnwl0o96",
      "pitch": 59,
      "pitchName": "B3",
      "frequencyHz": 246.941651,
      "startTick": 9120,
      "durationTicks": 240,
      "endTick": 9360,
      "startSeconds": 8.261,
      "durationSeconds": 0.217,
      "endSeconds": 8.478,
      "velocity": 0.1,
      "bendActive": true,
      "instrument": 0
    },
    {
      "id": "id_jja7f258kmnwl0o96",
      "pitch": 32,
      "pitchName": "G#1",
      "frequencyHz": 51.913087,
      "startTick": 9360,
      "durationTicks": 240,
      "endTick": 9600,
      "startSeconds": 8.478,
      "durationSeconds": 0.217,
      "endSeconds": 8.696,
      "velocity": 0.8,
      "bendActive": true,
      "instrument": 0
    },
    {
      "id": "id_2dvebu5ijmnwl0o96",
      "pitch": 51,
      "pitchName": "D#3",
      "frequencyHz": 155.563492,
      "startTick": 9360,
      "durationTicks": 240,
      "endTick": 9600,
      "startSeconds": 8.478,
      "durationSeconds": 0.217,
      "endSeconds": 8.696,
      "velocity": 0.1,
      "bendActive": true,
      "instrument": 0
    },
    {
      "id": "id_qp7onwqf2mnwl0o96",
      "pitch": 32,
      "pitchName": "G#1",
      "frequencyHz": 51.913087,
      "startTick": 9600,
      "durationTicks": 240,
      "endTick": 9840,
      "startSeconds": 8.696,
      "durationSeconds": 0.217,
      "endSeconds": 8.913,
      "velocity": 0.4,
      "bendActive": true,
      "instrument": 0
    },
    {
      "id": "id_19th3gk4omnwl0o96",
      "pitch": 54,
      "pitchName": "F#3",
      "frequencyHz": 184.997211,
      "startTick": 9600,
      "durationTicks": 240,
      "endTick": 9840,
      "startSeconds": 8.696,
      "durationSeconds": 0.217,
      "endSeconds": 8.913,
      "velocity": 0.1,
      "bendActive": true,
      "instrument": 0
    },
    {
      "id": "id_b9kyg181cmnwl0o96",
      "pitch": 32,
      "pitchName": "G#1",
      "frequencyHz": 51.913087,
      "startTick": 9840,
      "durationTicks": 120,
      "endTick": 9960,
      "startSeconds": 8.913,
      "durationSeconds": 0.109,
      "endSeconds": 9.022,
      "velocity": 0.5,
      "bendActive": true,
      "instrument": 0
    },
    {
      "id": "id_ukb2ettiymnwl0o96",
      "pitch": 47,
      "pitchName": "B2",
      "frequencyHz": 123.470825,
      "startTick": 9840,
      "durationTicks": 120,
      "endTick": 9960,
      "startSeconds": 8.913,
      "durationSeconds": 0.109,
      "endSeconds": 9.022,
      "velocity": 0.1,
      "bendActive": true,
      "instrument": 0
    },
    {
      "id": "id_q0e15rogpmnwl0o96",
      "pitch": 47,
      "pitchName": "B2",
      "frequencyHz": 123.470825,
      "startTick": 9960,
      "durationTicks": 120,
      "endTick": 10080,
      "startSeconds": 9.022,
      "durationSeconds": 0.109,
      "endSeconds": 9.13,
      "velocity": 0.8,
      "bendActive": true,
      "instrument": 0
    },
    {
      "id": "id_aurgsjfyimnwl0o96",
      "pitch": 32,
      "pitchName": "G#1",
      "frequencyHz": 51.913087,
      "startTick": 10080,
      "durationTicks": 240,
      "endTick": 10320,
      "startSeconds": 9.13,
      "durationSeconds": 0.217,
      "endSeconds": 9.348,
      "velocity": 0.8,
      "bendActive": true,
      "instrument": 0
    },
    {
      "id": "id_do5vx3qg1mnwl0o96",
      "pitch": 51,
      "pitchName": "D#3",
      "frequencyHz": 155.563492,
      "startTick": 10080,
      "durationTicks": 240,
      "endTick": 10320,
      "startSeconds": 9.13,
      "durationSeconds": 0.217,
      "endSeconds": 9.348,
      "velocity": 0.1,
      "bendActive": true,
      "instrument": 0
    },
    {
      "id": "id_4o1i812kimnwl0o96",
      "pitch": 32,
      "pitchName": "G#1",
      "frequencyHz": 51.913087,
      "startTick": 10320,
      "durationTicks": 240,
      "endTick": 10560,
      "startSeconds": 9.348,
      "durationSeconds": 0.217,
      "endSeconds": 9.565,
      "velocity": 0.5,
      "bendActive": true,
      "instrument": 0
    },
    {
      "id": "id_nsrff7klzmnwl0o96",
      "pitch": 51,
      "pitchName": "D#3",
      "frequencyHz": 155.563492,
      "startTick": 10320,
      "durationTicks": 240,
      "endTick": 10560,
      "startSeconds": 9.348,
      "durationSeconds": 0.217,
      "endSeconds": 9.565,
      "velocity": 0.1,
      "bendActive": true,
      "instrument": 0
    },
    {
      "id": "id_29o5abiwymnwl0o96",
      "pitch": 32,
      "pitchName": "G#1",
      "frequencyHz": 51.913087,
      "startTick": 10560,
      "durationTicks": 240,
      "endTick": 10800,
      "startSeconds": 9.565,
      "durationSeconds": 0.217,
      "endSeconds": 9.783,
      "velocity": 0.4,
      "bendActive": true,
      "instrument": 0
    },
    {
      "id": "id_hlo3nsabfmnwl0o96",
      "pitch": 58,
      "pitchName": "A#3",
      "frequencyHz": 233.081881,
      "startTick": 10560,
      "durationTicks": 240,
      "endTick": 10800,
      "startSeconds": 9.565,
      "durationSeconds": 0.217,
      "endSeconds": 9.783,
      "velocity": 0.1,
      "bendActive": true,
      "instrument": 0
    },
    {
      "id": "id_69hauaxm8mnwl0o96",
      "pitch": 32,
      "pitchName": "G#1",
      "frequencyHz": 51.913087,
      "startTick": 10800,
      "durationTicks": 240,
      "endTick": 11040,
      "startSeconds": 9.783,
      "durationSeconds": 0.217,
      "endSeconds": 10,
      "velocity": 0.8,
      "bendActive": true,
      "instrument": 0
    },
    {
      "id": "id_jk1roerqqmnwl0o96",
      "pitch": 56,
      "pitchName": "G#3",
      "frequencyHz": 207.652349,
      "startTick": 10800,
      "durationTicks": 240,
      "endTick": 11040,
      "startSeconds": 9.783,
      "durationSeconds": 0.217,
      "endSeconds": 10,
      "velocity": 0.1,
      "bendActive": true,
      "instrument": 0
    },
    {
      "id": "id_ayelq63qsmnwl0o96",
      "pitch": 32,
      "pitchName": "G#1",
      "frequencyHz": 51.913087,
      "startTick": 11040,
      "durationTicks": 240,
      "endTick": 11280,
      "startSeconds": 10,
      "durationSeconds": 0.217,
      "endSeconds": 10.217,
      "velocity": 0.4,
      "bendActive": true,
      "instrument": 0
    },
    {
      "id": "id_hl0htjwsqmnwl0o96",
      "pitch": 47,
      "pitchName": "B2",
      "frequencyHz": 123.470825,
      "startTick": 11040,
      "durationTicks": 240,
      "endTick": 11280,
      "startSeconds": 10,
      "durationSeconds": 0.217,
      "endSeconds": 10.217,
      "velocity": 0.5,
      "bendActive": true,
      "instrument": 0
    },
    {
      "id": "id_q844q8pe1mnwl0o96",
      "pitch": 54,
      "pitchName": "F#3",
      "frequencyHz": 184.997211,
      "startTick": 11280,
      "durationTicks": 120,
      "endTick": 11400,
      "startSeconds": 10.217,
      "durationSeconds": 0.109,
      "endSeconds": 10.326,
      "velocity": 0.8,
      "bendActive": true,
      "instrument": 0
    },
    {
      "id": "id_ivkzmhgcnmnwl0o97",
      "pitch": 42,
      "pitchName": "F#2",
      "frequencyHz": 92.498606,
      "startTick": 11400,
      "durationTicks": 120,
      "endTick": 11520,
      "startSeconds": 10.326,
      "durationSeconds": 0.109,
      "endSeconds": 10.435,
      "velocity": 0.8,
      "bendActive": true,
      "instrument": 0
    },
    {
      "id": "id_f8gkdi5ivmnwl0o97",
      "pitch": 42,
      "pitchName": "F#2",
      "frequencyHz": 92.498606,
      "startTick": 11400,
      "durationTicks": 120,
      "endTick": 11520,
      "startSeconds": 10.326,
      "durationSeconds": 0.109,
      "endSeconds": 10.435,
      "velocity": 0.8,
      "bendActive": true,
      "instrument": 0
    },
    {
      "id": "id_via4lhubumnwl0o97",
      "pitch": 32,
      "pitchName": "G#1",
      "frequencyHz": 51.913087,
      "startTick": 11520,
      "durationTicks": 240,
      "endTick": 11760,
      "startSeconds": 10.435,
      "durationSeconds": 0.217,
      "endSeconds": 10.652,
      "velocity": 0.8,
      "bendActive": true,
      "instrument": 0
    },
    {
      "id": "id_ql6se4j1nmnwl0o97",
      "pitch": 54,
      "pitchName": "F#3",
      "frequencyHz": 184.997211,
      "startTick": 11520,
      "durationTicks": 240,
      "endTick": 11760,
      "startSeconds": 10.435,
      "durationSeconds": 0.217,
      "endSeconds": 10.652,
      "velocity": 0.1,
      "bendActive": true,
      "instrument": 0
    },
    {
      "id": "id_z42pba6wrmnwl0o97",
      "pitch": 32,
      "pitchName": "G#1",
      "frequencyHz": 51.913087,
      "startTick": 11760,
      "durationTicks": 240,
      "endTick": 12000,
      "startSeconds": 10.652,
      "durationSeconds": 0.217,
      "endSeconds": 10.87,
      "velocity": 0.5,
      "bendActive": true,
      "instrument": 0
    },
    {
      "id": "id_bolz782i8mnwl0o97",
      "pitch": 54,
      "pitchName": "F#3",
      "frequencyHz": 184.997211,
      "startTick": 11760,
      "durationTicks": 240,
      "endTick": 12000,
      "startSeconds": 10.652,
      "durationSeconds": 0.217,
      "endSeconds": 10.87,
      "velocity": 0.1,
      "bendActive": true,
      "instrument": 0
    },
    {
      "id": "id_p994r77nrmnwl0o97",
      "pitch": 32,
      "pitchName": "G#1",
      "frequencyHz": 51.913087,
      "startTick": 12000,
      "durationTicks": 240,
      "endTick": 12240,
      "startSeconds": 10.87,
      "durationSeconds": 0.217,
      "endSeconds": 11.087,
      "velocity": 0.4,
      "bendActive": true,
      "instrument": 0
    },
    {
      "id": "id_vs3s9xv2bmnwl0o97",
      "pitch": 59,
      "pitchName": "B3",
      "frequencyHz": 246.941651,
      "startTick": 12000,
      "durationTicks": 240,
      "endTick": 12240,
      "startSeconds": 10.87,
      "durationSeconds": 0.217,
      "endSeconds": 11.087,
      "velocity": 0.1,
      "bendActive": true,
      "instrument": 0
    },
    {
      "id": "id_hlab2x4s4mnwl0o97",
      "pitch": 32,
      "pitchName": "G#1",
      "frequencyHz": 51.913087,
      "startTick": 12240,
      "durationTicks": 240,
      "endTick": 12480,
      "startSeconds": 11.087,
      "durationSeconds": 0.217,
      "endSeconds": 11.304,
      "velocity": 0.8,
      "bendActive": true,
      "instrument": 0
    },
    {
      "id": "id_2g00c4qoymnwl0o97",
      "pitch": 51,
      "pitchName": "D#3",
      "frequencyHz": 155.563492,
      "startTick": 12240,
      "durationTicks": 240,
      "endTick": 12480,
      "startSeconds": 11.087,
      "durationSeconds": 0.217,
      "endSeconds": 11.304,
      "velocity": 0.1,
      "bendActive": true,
      "instrument": 0
    },
    {
      "id": "id_gp3azwqremnwl0o97",
      "pitch": 32,
      "pitchName": "G#1",
      "frequencyHz": 51.913087,
      "startTick": 12480,
      "durationTicks": 240,
      "endTick": 12720,
      "startSeconds": 11.304,
      "durationSeconds": 0.217,
      "endSeconds": 11.522,
      "velocity": 0.4,
      "bendActive": true,
      "instrument": 0
    },
    {
      "id": "id_jhbuhff9kmnwl0o97",
      "pitch": 54,
      "pitchName": "F#3",
      "frequencyHz": 184.997211,
      "startTick": 12480,
      "durationTicks": 240,
      "endTick": 12720,
      "startSeconds": 11.304,
      "durationSeconds": 0.217,
      "endSeconds": 11.522,
      "velocity": 0.1,
      "bendActive": true,
      "instrument": 0
    },
    {
      "id": "id_7qmfwccvsmnwl0o97",
      "pitch": 32,
      "pitchName": "G#1",
      "frequencyHz": 51.913087,
      "startTick": 12720,
      "durationTicks": 120,
      "endTick": 12840,
      "startSeconds": 11.522,
      "durationSeconds": 0.109,
      "endSeconds": 11.63,
      "velocity": 0.5,
      "bendActive": true,
      "instrument": 0
    },
    {
      "id": "id_611c5bvqtmnwl0o97",
      "pitch": 47,
      "pitchName": "B2",
      "frequencyHz": 123.470825,
      "startTick": 12720,
      "durationTicks": 120,
      "endTick": 12840,
      "startSeconds": 11.522,
      "durationSeconds": 0.109,
      "endSeconds": 11.63,
      "velocity": 0.1,
      "bendActive": true,
      "instrument": 0
    },
    {
      "id": "id_a7y1pf7bjmnwl0o97",
      "pitch": 47,
      "pitchName": "B2",
      "frequencyHz": 123.470825,
      "startTick": 12840,
      "durationTicks": 120,
      "endTick": 12960,
      "startSeconds": 11.63,
      "durationSeconds": 0.109,
      "endSeconds": 11.739,
      "velocity": 0.8,
      "bendActive": true,
      "instrument": 0
    },
    {
      "id": "id_1qp06frj9mnwl0o97",
      "pitch": 32,
      "pitchName": "G#1",
      "frequencyHz": 51.913087,
      "startTick": 12960,
      "durationTicks": 240,
      "endTick": 13200,
      "startSeconds": 11.739,
      "durationSeconds": 0.217,
      "endSeconds": 11.957,
      "velocity": 0.8,
      "bendActive": true,
      "instrument": 0
    },
    {
      "id": "id_ascfyw11lmnwl0o97",
      "pitch": 54,
      "pitchName": "F#3",
      "frequencyHz": 184.997211,
      "startTick": 12960,
      "durationTicks": 240,
      "endTick": 13200,
      "startSeconds": 11.739,
      "durationSeconds": 0.217,
      "endSeconds": 11.957,
      "velocity": 0.1,
      "bendActive": true,
      "instrument": 0
    },
    {
      "id": "id_9fiphcxvtmnwl0o97",
      "pitch": 32,
      "pitchName": "G#1",
      "frequencyHz": 51.913087,
      "startTick": 13200,
      "durationTicks": 240,
      "endTick": 13440,
      "startSeconds": 11.957,
      "durationSeconds": 0.217,
      "endSeconds": 12.174,
      "velocity": 0.5,
      "bendActive": true,
      "instrument": 0
    },
    {
      "id": "id_bs5hmeym8mnwl0o97",
      "pitch": 54,
      "pitchName": "F#3",
      "frequencyHz": 184.997211,
      "startTick": 13200,
      "durationTicks": 240,
      "endTick": 13440,
      "startSeconds": 11.957,
      "durationSeconds": 0.217,
      "endSeconds": 12.174,
      "velocity": 0.1,
      "bendActive": true,
      "instrument": 0
    },
    {
      "id": "id_idzx5ilbkmnwl0o97",
      "pitch": 32,
      "pitchName": "G#1",
      "frequencyHz": 51.913087,
      "startTick": 13440,
      "durationTicks": 240,
      "endTick": 13680,
      "startSeconds": 12.174,
      "durationSeconds": 0.217,
      "endSeconds": 12.391,
      "velocity": 0.4,
      "bendActive": true,
      "instrument": 0
    },
    {
      "id": "id_a48ym522bmnwl0o97",
      "pitch": 59,
      "pitchName": "B3",
      "frequencyHz": 246.941651,
      "startTick": 13440,
      "durationTicks": 240,
      "endTick": 13680,
      "startSeconds": 12.174,
      "durationSeconds": 0.217,
      "endSeconds": 12.391,
      "velocity": 0.1,
      "bendActive": true,
      "instrument": 0
    },
    {
      "id": "id_ihma3sjxbmnwl0o97",
      "pitch": 32,
      "pitchName": "G#1",
      "frequencyHz": 51.913087,
      "startTick": 13680,
      "durationTicks": 240,
      "endTick": 13920,
      "startSeconds": 12.391,
      "durationSeconds": 0.217,
      "endSeconds": 12.609,
      "velocity": 0.8,
      "bendActive": true,
      "instrument": 0
    },
    {
      "id": "id_bw2hwyphgmnwl0o97",
      "pitch": 51,
      "pitchName": "D#3",
      "frequencyHz": 155.563492,
      "startTick": 13680,
      "durationTicks": 240,
      "endTick": 13920,
      "startSeconds": 12.391,
      "durationSeconds": 0.217,
      "endSeconds": 12.609,
      "velocity": 0.1,
      "bendActive": true,
      "instrument": 0
    },
    {
      "id": "id_zeh8z72h2mnwl0o97",
      "pitch": 32,
      "pitchName": "G#1",
      "frequencyHz": 51.913087,
      "startTick": 13920,
      "durationTicks": 240,
      "endTick": 14160,
      "startSeconds": 12.609,
      "durationSeconds": 0.217,
      "endSeconds": 12.826,
      "velocity": 0.4,
      "bendActive": true,
      "instrument": 0
    },
    {
      "id": "id_8hw0t7b2tmnwl0o97",
      "pitch": 54,
      "pitchName": "F#3",
      "frequencyHz": 184.997211,
      "startTick": 13920,
      "durationTicks": 240,
      "endTick": 14160,
      "startSeconds": 12.609,
      "durationSeconds": 0.217,
      "endSeconds": 12.826,
      "velocity": 0.1,
      "bendActive": true,
      "instrument": 0
    },
    {
      "id": "id_vrjgmebw0mnwl0o97",
      "pitch": 32,
      "pitchName": "G#1",
      "frequencyHz": 51.913087,
      "startTick": 14160,
      "durationTicks": 120,
      "endTick": 14280,
      "startSeconds": 12.826,
      "durationSeconds": 0.109,
      "endSeconds": 12.935,
      "velocity": 0.5,
      "bendActive": true,
      "instrument": 0
    },
    {
      "id": "id_2mzkyiltmmnwl0o97",
      "pitch": 47,
      "pitchName": "B2",
      "frequencyHz": 123.470825,
      "startTick": 14160,
      "durationTicks": 120,
      "endTick": 14280,
      "startSeconds": 12.826,
      "durationSeconds": 0.109,
      "endSeconds": 12.935,
      "velocity": 0.1,
      "bendActive": true,
      "instrument": 0
    },
    {
      "id": "id_ia5lt3s9jmnwl0o97",
      "pitch": 44,
      "pitchName": "G#2",
      "frequencyHz": 103.826174,
      "startTick": 14280,
      "durationTicks": 120,
      "endTick": 14400,
      "startSeconds": 12.935,
      "durationSeconds": 0.109,
      "endSeconds": 13.043,
      "velocity": 0.8,
      "bendActive": true,
      "instrument": 0
    },
    {
      "id": "id_6hgboyjiymnwl0o97",
      "pitch": 32,
      "pitchName": "G#1",
      "frequencyHz": 51.913087,
      "startTick": 14400,
      "durationTicks": 240,
      "endTick": 14640,
      "startSeconds": 13.043,
      "durationSeconds": 0.217,
      "endSeconds": 13.261,
      "velocity": 0.8,
      "bendActive": true,
      "instrument": 0
    },
    {
      "id": "id_k5f9qqod4mnwl0o97",
      "pitch": 54,
      "pitchName": "F#3",
      "frequencyHz": 184.997211,
      "startTick": 14400,
      "durationTicks": 240,
      "endTick": 14640,
      "startSeconds": 13.043,
      "durationSeconds": 0.217,
      "endSeconds": 13.261,
      "velocity": 0.1,
      "bendActive": true,
      "instrument": 0
    },
    {
      "id": "id_hk4t6nlikmnwl0o97",
      "pitch": 32,
      "pitchName": "G#1",
      "frequencyHz": 51.913087,
      "startTick": 14640,
      "durationTicks": 240,
      "endTick": 14880,
      "startSeconds": 13.261,
      "durationSeconds": 0.217,
      "endSeconds": 13.478,
      "velocity": 0.5,
      "bendActive": true,
      "instrument": 0
    },
    {
      "id": "id_009h6bvr8mnwl0o97",
      "pitch": 54,
      "pitchName": "F#3",
      "frequencyHz": 184.997211,
      "startTick": 14640,
      "durationTicks": 240,
      "endTick": 14880,
      "startSeconds": 13.261,
      "durationSeconds": 0.217,
      "endSeconds": 13.478,
      "velocity": 0.1,
      "bendActive": true,
      "instrument": 0
    },
    {
      "id": "id_bvunft3xnmnwl0o97",
      "pitch": 32,
      "pitchName": "G#1",
      "frequencyHz": 51.913087,
      "startTick": 14880,
      "durationTicks": 240,
      "endTick": 15120,
      "startSeconds": 13.478,
      "durationSeconds": 0.217,
      "endSeconds": 13.696,
      "velocity": 0.4,
      "bendActive": true,
      "instrument": 0
    },
    {
      "id": "id_ij4c2hmofmnwl0o97",
      "pitch": 59,
      "pitchName": "B3",
      "frequencyHz": 246.941651,
      "startTick": 14880,
      "durationTicks": 240,
      "endTick": 15120,
      "startSeconds": 13.478,
      "durationSeconds": 0.217,
      "endSeconds": 13.696,
      "velocity": 0.1,
      "bendActive": true,
      "instrument": 0
    },
    {
      "id": "id_dz45srugsmnwl0o97",
      "pitch": 32,
      "pitchName": "G#1",
      "frequencyHz": 51.913087,
      "startTick": 15120,
      "durationTicks": 240,
      "endTick": 15360,
      "startSeconds": 13.696,
      "durationSeconds": 0.217,
      "endSeconds": 13.913,
      "velocity": 0.8,
      "bendActive": true,
      "instrument": 0
    },
    {
      "id": "id_quyl7it3smnwl0o97",
      "pitch": 51,
      "pitchName": "D#3",
      "frequencyHz": 155.563492,
      "startTick": 15120,
      "durationTicks": 240,
      "endTick": 15360,
      "startSeconds": 13.696,
      "durationSeconds": 0.217,
      "endSeconds": 13.913,
      "velocity": 0.1,
      "bendActive": true,
      "instrument": 0
    },
    {
      "id": "id_q799t6u9wmnwl0o97",
      "pitch": 32,
      "pitchName": "G#1",
      "frequencyHz": 51.913087,
      "startTick": 15360,
      "durationTicks": 240,
      "endTick": 15600,
      "startSeconds": 13.913,
      "durationSeconds": 0.217,
      "endSeconds": 14.13,
      "velocity": 0.4,
      "bendActive": true,
      "instrument": 0
    },
    {
      "id": "id_lf4ogi218mnwl0o97",
      "pitch": 54,
      "pitchName": "F#3",
      "frequencyHz": 184.997211,
      "startTick": 15360,
      "durationTicks": 240,
      "endTick": 15600,
      "startSeconds": 13.913,
      "durationSeconds": 0.217,
      "endSeconds": 14.13,
      "velocity": 0.1,
      "bendActive": true,
      "instrument": 0
    },
    {
      "id": "id_mcgrczo3lmnwl0o97",
      "pitch": 32,
      "pitchName": "G#1",
      "frequencyHz": 51.913087,
      "startTick": 15600,
      "durationTicks": 120,
      "endTick": 15720,
      "startSeconds": 14.13,
      "durationSeconds": 0.109,
      "endSeconds": 14.239,
      "velocity": 0.5,
      "bendActive": true,
      "instrument": 0
    },
    {
      "id": "id_5qsm3kk7zmnwl0o97",
      "pitch": 47,
      "pitchName": "B2",
      "frequencyHz": 123.470825,
      "startTick": 15600,
      "durationTicks": 120,
      "endTick": 15720,
      "startSeconds": 14.13,
      "durationSeconds": 0.109,
      "endSeconds": 14.239,
      "velocity": 0.1,
      "bendActive": true,
      "instrument": 0
    },
    {
      "id": "id_8ozqk1stdmnwl0o97",
      "pitch": 47,
      "pitchName": "B2",
      "frequencyHz": 123.470825,
      "startTick": 15720,
      "durationTicks": 120,
      "endTick": 15840,
      "startSeconds": 14.239,
      "durationSeconds": 0.109,
      "endSeconds": 14.348,
      "velocity": 0.8,
      "bendActive": true,
      "instrument": 0
    },
    {
      "id": "id_210nn2gg2mnwl0o97",
      "pitch": 32,
      "pitchName": "G#1",
      "frequencyHz": 51.913087,
      "startTick": 15840,
      "durationTicks": 240,
      "endTick": 16080,
      "startSeconds": 14.348,
      "durationSeconds": 0.217,
      "endSeconds": 14.565,
      "velocity": 0.8,
      "bendActive": true,
      "instrument": 0
    },
    {
      "id": "id_z8xuted1hmnwl0o97",
      "pitch": 51,
      "pitchName": "D#3",
      "frequencyHz": 155.563492,
      "startTick": 15840,
      "durationTicks": 240,
      "endTick": 16080,
      "startSeconds": 14.348,
      "durationSeconds": 0.217,
      "endSeconds": 14.565,
      "velocity": 0.1,
      "bendActive": true,
      "instrument": 0
    },
    {
      "id": "id_t9zl12chsmnwl0o97",
      "pitch": 32,
      "pitchName": "G#1",
      "frequencyHz": 51.913087,
      "startTick": 16080,
      "durationTicks": 240,
      "endTick": 16320,
      "startSeconds": 14.565,
      "durationSeconds": 0.217,
      "endSeconds": 14.783,
      "velocity": 0.5,
      "bendActive": true,
      "instrument": 0
    },
    {
      "id": "id_yhwl3pw96mnwl0o97",
      "pitch": 51,
      "pitchName": "D#3",
      "frequencyHz": 155.563492,
      "startTick": 16080,
      "durationTicks": 240,
      "endTick": 16320,
      "startSeconds": 14.565,
      "durationSeconds": 0.217,
      "endSeconds": 14.783,
      "velocity": 0.1,
      "bendActive": true,
      "instrument": 0
    },
    {
      "id": "id_k94z4vi3jmnwl0o97",
      "pitch": 32,
      "pitchName": "G#1",
      "frequencyHz": 51.913087,
      "startTick": 16320,
      "durationTicks": 240,
      "endTick": 16560,
      "startSeconds": 14.783,
      "durationSeconds": 0.217,
      "endSeconds": 15,
      "velocity": 0.4,
      "bendActive": true,
      "instrument": 0
    },
    {
      "id": "id_yfp66ldzimnwl0o97",
      "pitch": 58,
      "pitchName": "A#3",
      "frequencyHz": 233.081881,
      "startTick": 16320,
      "durationTicks": 240,
      "endTick": 16560,
      "startSeconds": 14.783,
      "durationSeconds": 0.217,
      "endSeconds": 15,
      "velocity": 0.1,
      "bendActive": true,
      "instrument": 0
    },
    {
      "id": "id_cdr0k0ibnmnwl0o97",
      "pitch": 32,
      "pitchName": "G#1",
      "frequencyHz": 51.913087,
      "startTick": 16560,
      "durationTicks": 240,
      "endTick": 16800,
      "startSeconds": 15,
      "durationSeconds": 0.217,
      "endSeconds": 15.217,
      "velocity": 0.8,
      "bendActive": true,
      "instrument": 0
    },
    {
      "id": "id_dfub1qddpmnwl0o97",
      "pitch": 56,
      "pitchName": "G#3",
      "frequencyHz": 207.652349,
      "startTick": 16560,
      "durationTicks": 240,
      "endTick": 16800,
      "startSeconds": 15,
      "durationSeconds": 0.217,
      "endSeconds": 15.217,
      "velocity": 0.1,
      "bendActive": true,
      "instrument": 0
    },
    {
      "id": "id_q803xp88gmnwl0o97",
      "pitch": 32,
      "pitchName": "G#1",
      "frequencyHz": 51.913087,
      "startTick": 16800,
      "durationTicks": 240,
      "endTick": 17040,
      "startSeconds": 15.217,
      "durationSeconds": 0.217,
      "endSeconds": 15.435,
      "velocity": 0.4,
      "bendActive": true,
      "instrument": 0
    },
    {
      "id": "id_rie2022r0mnwl0o97",
      "pitch": 47,
      "pitchName": "B2",
      "frequencyHz": 123.470825,
      "startTick": 16800,
      "durationTicks": 240,
      "endTick": 17040,
      "startSeconds": 15.217,
      "durationSeconds": 0.217,
      "endSeconds": 15.435,
      "velocity": 0.5,
      "bendActive": true,
      "instrument": 0
    },
    {
      "id": "id_v5h5icuavmnwl0o97",
      "pitch": 54,
      "pitchName": "F#3",
      "frequencyHz": 184.997211,
      "startTick": 17040,
      "durationTicks": 120,
      "endTick": 17160,
      "startSeconds": 15.435,
      "durationSeconds": 0.109,
      "endSeconds": 15.543,
      "velocity": 0.8,
      "bendActive": true,
      "instrument": 0
    },
    {
      "id": "id_cl10r62ffmnwl0o97",
      "pitch": 42,
      "pitchName": "F#2",
      "frequencyHz": 92.498606,
      "startTick": 17160,
      "durationTicks": 120,
      "endTick": 17280,
      "startSeconds": 15.543,
      "durationSeconds": 0.109,
      "endSeconds": 15.652,
      "velocity": 0.8,
      "bendActive": true,
      "instrument": 0
    },
    {
      "id": "id_15203q3otmnwl0o97",
      "pitch": 32,
      "pitchName": "G#1",
      "frequencyHz": 51.913087,
      "startTick": 17280,
      "durationTicks": 240,
      "endTick": 17520,
      "startSeconds": 15.652,
      "durationSeconds": 0.217,
      "endSeconds": 15.87,
      "velocity": 0.8,
      "bendActive": true,
      "instrument": 0
    },
    {
      "id": "id_b7q5m2aq4mnwl0o97",
      "pitch": 54,
      "pitchName": "F#3",
      "frequencyHz": 184.997211,
      "startTick": 17280,
      "durationTicks": 240,
      "endTick": 17520,
      "startSeconds": 15.652,
      "durationSeconds": 0.217,
      "endSeconds": 15.87,
      "velocity": 0.1,
      "bendActive": true,
      "instrument": 0
    },
    {
      "id": "id_8f18l5sptmnwl0o97",
      "pitch": 32,
      "pitchName": "G#1",
      "frequencyHz": 51.913087,
      "startTick": 17520,
      "durationTicks": 240,
      "endTick": 17760,
      "startSeconds": 15.87,
      "durationSeconds": 0.217,
      "endSeconds": 16.087,
      "velocity": 0.5,
      "bendActive": true,
      "instrument": 0
    },
    {
      "id": "id_aarm1490jmnwl0o97",
      "pitch": 54,
      "pitchName": "F#3",
      "frequencyHz": 184.997211,
      "startTick": 17520,
      "durationTicks": 240,
      "endTick": 17760,
      "startSeconds": 15.87,
      "durationSeconds": 0.217,
      "endSeconds": 16.087,
      "velocity": 0.1,
      "bendActive": true,
      "instrument": 0
    },
    {
      "id": "id_qfbr54ajqmnwl0o97",
      "pitch": 32,
      "pitchName": "G#1",
      "frequencyHz": 51.913087,
      "startTick": 17760,
      "durationTicks": 240,
      "endTick": 18000,
      "startSeconds": 16.087,
      "durationSeconds": 0.217,
      "endSeconds": 16.304,
      "velocity": 0.4,
      "bendActive": true,
      "instrument": 0
    },
    {
      "id": "id_1ps7shervmnwl0o97",
      "pitch": 59,
      "pitchName": "B3",
      "frequencyHz": 246.941651,
      "startTick": 17760,
      "durationTicks": 240,
      "endTick": 18000,
      "startSeconds": 16.087,
      "durationSeconds": 0.217,
      "endSeconds": 16.304,
      "velocity": 0.1,
      "bendActive": true,
      "instrument": 0
    },
    {
      "id": "id_lgz481vp2mnwl0o97",
      "pitch": 32,
      "pitchName": "G#1",
      "frequencyHz": 51.913087,
      "startTick": 18000,
      "durationTicks": 240,
      "endTick": 18240,
      "startSeconds": 16.304,
      "durationSeconds": 0.217,
      "endSeconds": 16.522,
      "velocity": 0.8,
      "bendActive": true,
      "instrument": 0
    },
    {
      "id": "id_yn8dnojasmnwl0o97",
      "pitch": 51,
      "pitchName": "D#3",
      "frequencyHz": 155.563492,
      "startTick": 18000,
      "durationTicks": 240,
      "endTick": 18240,
      "startSeconds": 16.304,
      "durationSeconds": 0.217,
      "endSeconds": 16.522,
      "velocity": 0.1,
      "bendActive": true,
      "instrument": 0
    },
    {
      "id": "id_s7bz4gabxmnwl0o97",
      "pitch": 32,
      "pitchName": "G#1",
      "frequencyHz": 51.913087,
      "startTick": 18240,
      "durationTicks": 240,
      "endTick": 18480,
      "startSeconds": 16.522,
      "durationSeconds": 0.217,
      "endSeconds": 16.739,
      "velocity": 0.4,
      "bendActive": true,
      "instrument": 0
    },
    {
      "id": "id_0fya6gwm4mnwl0o97",
      "pitch": 54,
      "pitchName": "F#3",
      "frequencyHz": 184.997211,
      "startTick": 18240,
      "durationTicks": 240,
      "endTick": 18480,
      "startSeconds": 16.522,
      "durationSeconds": 0.217,
      "endSeconds": 16.739,
      "velocity": 0.1,
      "bendActive": true,
      "instrument": 0
    },
    {
      "id": "id_rx5ryf004mnwl0o97",
      "pitch": 32,
      "pitchName": "G#1",
      "frequencyHz": 51.913087,
      "startTick": 18480,
      "durationTicks": 120,
      "endTick": 18600,
      "startSeconds": 16.739,
      "durationSeconds": 0.109,
      "endSeconds": 16.848,
      "velocity": 0.5,
      "bendActive": true,
      "instrument": 0
    },
    {
      "id": "id_b1a2tftyemnwl0o97",
      "pitch": 47,
      "pitchName": "B2",
      "frequencyHz": 123.470825,
      "startTick": 18480,
      "durationTicks": 120,
      "endTick": 18600,
      "startSeconds": 16.739,
      "durationSeconds": 0.109,
      "endSeconds": 16.848,
      "velocity": 0.1,
      "bendActive": true,
      "instrument": 0
    },
    {
      "id": "id_n9ciunau9mnwl0o97",
      "pitch": 47,
      "pitchName": "B2",
      "frequencyHz": 123.470825,
      "startTick": 18600,
      "durationTicks": 120,
      "endTick": 18720,
      "startSeconds": 16.848,
      "durationSeconds": 0.109,
      "endSeconds": 16.957,
      "velocity": 0.8,
      "bendActive": true,
      "instrument": 0
    },
    {
      "id": "id_u39fc2ofqmnwl0o97",
      "pitch": 32,
      "pitchName": "G#1",
      "frequencyHz": 51.913087,
      "startTick": 18720,
      "durationTicks": 240,
      "endTick": 18960,
      "startSeconds": 16.957,
      "durationSeconds": 0.217,
      "endSeconds": 17.174,
      "velocity": 0.8,
      "bendActive": true,
      "instrument": 0
    },
    {
      "id": "id_q45ecgll8mnwl0o97",
      "pitch": 54,
      "pitchName": "F#3",
      "frequencyHz": 184.997211,
      "startTick": 18720,
      "durationTicks": 240,
      "endTick": 18960,
      "startSeconds": 16.957,
      "durationSeconds": 0.217,
      "endSeconds": 17.174,
      "velocity": 0.1,
      "bendActive": true,
      "instrument": 0
    },
    {
      "id": "id_jfqjlsdtpmnwl0o97",
      "pitch": 32,
      "pitchName": "G#1",
      "frequencyHz": 51.913087,
      "startTick": 18960,
      "durationTicks": 240,
      "endTick": 19200,
      "startSeconds": 17.174,
      "durationSeconds": 0.217,
      "endSeconds": 17.391,
      "velocity": 0.5,
      "bendActive": true,
      "instrument": 0
    },
    {
      "id": "id_soi8nyud5mnwl0o97",
      "pitch": 54,
      "pitchName": "F#3",
      "frequencyHz": 184.997211,
      "startTick": 18960,
      "durationTicks": 240,
      "endTick": 19200,
      "startSeconds": 17.174,
      "durationSeconds": 0.217,
      "endSeconds": 17.391,
      "velocity": 0.1,
      "bendActive": true,
      "instrument": 0
    },
    {
      "id": "id_kwjbn92pumnwl0o97",
      "pitch": 32,
      "pitchName": "G#1",
      "frequencyHz": 51.913087,
      "startTick": 19200,
      "durationTicks": 240,
      "endTick": 19440,
      "startSeconds": 17.391,
      "durationSeconds": 0.217,
      "endSeconds": 17.609,
      "velocity": 0.4,
      "bendActive": true,
      "instrument": 0
    },
    {
      "id": "id_239vrw9zsmnwl0o97",
      "pitch": 59,
      "pitchName": "B3",
      "frequencyHz": 246.941651,
      "startTick": 19200,
      "durationTicks": 240,
      "endTick": 19440,
      "startSeconds": 17.391,
      "durationSeconds": 0.217,
      "endSeconds": 17.609,
      "velocity": 0.1,
      "bendActive": true,
      "instrument": 0
    },
    {
      "id": "id_7ifjiwbelmnwl0o97",
      "pitch": 32,
      "pitchName": "G#1",
      "frequencyHz": 51.913087,
      "startTick": 19440,
      "durationTicks": 240,
      "endTick": 19680,
      "startSeconds": 17.609,
      "durationSeconds": 0.217,
      "endSeconds": 17.826,
      "velocity": 0.8,
      "bendActive": true,
      "instrument": 0
    },
    {
      "id": "id_uchl9al39mnwl0o97",
      "pitch": 51,
      "pitchName": "D#3",
      "frequencyHz": 155.563492,
      "startTick": 19440,
      "durationTicks": 240,
      "endTick": 19680,
      "startSeconds": 17.609,
      "durationSeconds": 0.217,
      "endSeconds": 17.826,
      "velocity": 0.1,
      "bendActive": true,
      "instrument": 0
    },
    {
      "id": "id_ar9oblwlnmnwl0o97",
      "pitch": 32,
      "pitchName": "G#1",
      "frequencyHz": 51.913087,
      "startTick": 19680,
      "durationTicks": 240,
      "endTick": 19920,
      "startSeconds": 17.826,
      "durationSeconds": 0.217,
      "endSeconds": 18.043,
      "velocity": 0.4,
      "bendActive": true,
      "instrument": 0
    },
    {
      "id": "id_ezguc5j2wmnwl0o97",
      "pitch": 54,
      "pitchName": "F#3",
      "frequencyHz": 184.997211,
      "startTick": 19680,
      "durationTicks": 240,
      "endTick": 19920,
      "startSeconds": 17.826,
      "durationSeconds": 0.217,
      "endSeconds": 18.043,
      "velocity": 0.1,
      "bendActive": true,
      "instrument": 0
    },
    {
      "id": "id_5jnamgrw2mnwl0o97",
      "pitch": 32,
      "pitchName": "G#1",
      "frequencyHz": 51.913087,
      "startTick": 19920,
      "durationTicks": 120,
      "endTick": 20040,
      "startSeconds": 18.043,
      "durationSeconds": 0.109,
      "endSeconds": 18.152,
      "velocity": 0.5,
      "bendActive": true,
      "instrument": 0
    },
    {
      "id": "id_18n1qq8jamnwl0o97",
      "pitch": 47,
      "pitchName": "B2",
      "frequencyHz": 123.470825,
      "startTick": 19920,
      "durationTicks": 120,
      "endTick": 20040,
      "startSeconds": 18.043,
      "durationSeconds": 0.109,
      "endSeconds": 18.152,
      "velocity": 0.1,
      "bendActive": true,
      "instrument": 0
    },
    {
      "id": "id_zhnkyot85mnwl0o97",
      "pitch": 44,
      "pitchName": "G#2",
      "frequencyHz": 103.826174,
      "startTick": 20040,
      "durationTicks": 120,
      "endTick": 20160,
      "startSeconds": 18.152,
      "durationSeconds": 0.109,
      "endSeconds": 18.261,
      "velocity": 0.8,
      "bendActive": true,
      "instrument": 0
    },
    {
      "id": "id_1hdvm7ttrmnwl0o97",
      "pitch": 32,
      "pitchName": "G#1",
      "frequencyHz": 51.913087,
      "startTick": 20160,
      "durationTicks": 240,
      "endTick": 20400,
      "startSeconds": 18.261,
      "durationSeconds": 0.217,
      "endSeconds": 18.478,
      "velocity": 0.8,
      "bendActive": true,
      "instrument": 0
    },
    {
      "id": "id_efe3wyt32mnwl0o97",
      "pitch": 32,
      "pitchName": "G#1",
      "frequencyHz": 51.913087,
      "startTick": 20160,
      "durationTicks": 240,
      "endTick": 20400,
      "startSeconds": 18.261,
      "durationSeconds": 0.217,
      "endSeconds": 18.478,
      "velocity": 0.05,
      "bendActive": true,
      "instrument": 0
    },
    {
      "id": "id_ogdm8shkymnwl0o97",
      "pitch": 51,
      "pitchName": "D#3",
      "frequencyHz": 155.563492,
      "startTick": 20160,
      "durationTicks": 240,
      "endTick": 20400,
      "startSeconds": 18.261,
      "durationSeconds": 0.217,
      "endSeconds": 18.478,
      "velocity": 0.05,
      "bendActive": true,
      "instrument": 0
    },
    {
      "id": "id_a8m3t4kvfmnwl0o97",
      "pitch": 54,
      "pitchName": "F#3",
      "frequencyHz": 184.997211,
      "startTick": 20160,
      "durationTicks": 240,
      "endTick": 20400,
      "startSeconds": 18.261,
      "durationSeconds": 0.217,
      "endSeconds": 18.478,
      "velocity": 0.1,
      "bendActive": true,
      "instrument": 0
    },
    {
      "id": "id_6l4giy1kymnwl0o97",
      "pitch": 32,
      "pitchName": "G#1",
      "frequencyHz": 51.913087,
      "startTick": 20400,
      "durationTicks": 240,
      "endTick": 20640,
      "startSeconds": 18.478,
      "durationSeconds": 0.217,
      "endSeconds": 18.696,
      "velocity": 0.087,
      "bendActive": true,
      "instrument": 0
    },
    {
      "id": "id_crako49i5mnwl0o97",
      "pitch": 35,
      "pitchName": "B1",
      "frequencyHz": 61.735413,
      "startTick": 20400,
      "durationTicks": 120,
      "endTick": 20520,
      "startSeconds": 18.478,
      "durationSeconds": 0.109,
      "endSeconds": 18.587,
      "velocity": 0.8,
      "bendActive": true,
      "instrument": 0
    },
    {
      "id": "id_2mv8r23s9mnwl0o97",
      "pitch": 51,
      "pitchName": "D#3",
      "frequencyHz": 155.563492,
      "startTick": 20400,
      "durationTicks": 240,
      "endTick": 20640,
      "startSeconds": 18.478,
      "durationSeconds": 0.217,
      "endSeconds": 18.696,
      "velocity": 0.054,
      "bendActive": true,
      "instrument": 0
    },
    {
      "id": "id_afwmc0mbdmnwl0o97",
      "pitch": 54,
      "pitchName": "F#3",
      "frequencyHz": 184.997211,
      "startTick": 20400,
      "durationTicks": 240,
      "endTick": 20640,
      "startSeconds": 18.478,
      "durationSeconds": 0.217,
      "endSeconds": 18.696,
      "velocity": 0.1,
      "bendActive": true,
      "instrument": 0
    },
    {
      "id": "id_ek84qkv01mnwl0o97",
      "pitch": 32,
      "pitchName": "G#1",
      "frequencyHz": 51.913087,
      "startTick": 20520,
      "durationTicks": 240,
      "endTick": 20760,
      "startSeconds": 18.587,
      "durationSeconds": 0.217,
      "endSeconds": 18.804,
      "velocity": 0.8,
      "bendActive": true,
      "instrument": 0
    },
    {
      "id": "id_pqkqhwbbemnwl0o97",
      "pitch": 32,
      "pitchName": "G#1",
      "frequencyHz": 51.913087,
      "startTick": 20640,
      "durationTicks": 240,
      "endTick": 20880,
      "startSeconds": 18.696,
      "durationSeconds": 0.217,
      "endSeconds": 18.913,
      "velocity": 0.142,
      "bendActive": false,
      "instrument": 0
    },
    {
      "id": "id_bh7eso3v6mnwl0o97",
      "pitch": 51,
      "pitchName": "D#3",
      "frequencyHz": 155.563492,
      "startTick": 20640,
      "durationTicks": 240,
      "endTick": 20880,
      "startSeconds": 18.696,
      "durationSeconds": 0.217,
      "endSeconds": 18.913,
      "velocity": 0.058,
      "bendActive": false,
      "instrument": 0
    },
    {
      "id": "id_ykez209d6mnwl0o97",
      "pitch": 59,
      "pitchName": "B3",
      "frequencyHz": 246.941651,
      "startTick": 20640,
      "durationTicks": 240,
      "endTick": 20880,
      "startSeconds": 18.696,
      "durationSeconds": 0.217,
      "endSeconds": 18.913,
      "velocity": 0.1,
      "bendActive": true,
      "instrument": 0
    },
    {
      "id": "id_lnxwn5riemnwl0o97",
      "pitch": 44,
      "pitchName": "G#2",
      "frequencyHz": 103.826174,
      "startTick": 20760,
      "durationTicks": 120,
      "endTick": 20880,
      "startSeconds": 18.804,
      "durationSeconds": 0.109,
      "endSeconds": 18.913,
      "velocity": 0.8,
      "bendActive": true,
      "instrument": 0
    },
    {
      "id": "id_x1wqojfoimnwl0o97",
      "pitch": 32,
      "pitchName": "G#1",
      "frequencyHz": 51.913087,
      "startTick": 20880,
      "durationTicks": 240,
      "endTick": 21120,
      "startSeconds": 18.913,
      "durationSeconds": 0.217,
      "endSeconds": 19.13,
      "velocity": 0.8,
      "bendActive": true,
      "instrument": 0
    },
    {
      "id": "id_mf6e7wbbfmnwl0o97",
      "pitch": 32,
      "pitchName": "G#1",
      "frequencyHz": 51.913087,
      "startTick": 20880,
      "durationTicks": 240,
      "endTick": 21120,
      "startSeconds": 18.913,
      "durationSeconds": 0.217,
      "endSeconds": 19.13,
      "velocity": 0.237,
      "bendActive": false,
      "instrument": 0
    },
    {
      "id": "id_zc6emcq7omnwl0o97",
      "pitch": 51,
      "pitchName": "D#3",
      "frequencyHz": 155.563492,
      "startTick": 20880,
      "durationTicks": 240,
      "endTick": 21120,
      "startSeconds": 18.913,
      "durationSeconds": 0.217,
      "endSeconds": 19.13,
      "velocity": 0.1,
      "bendActive": true,
      "instrument": 0
    },
    {
      "id": "id_qmrkdt7avmnwl0o97",
      "pitch": 51,
      "pitchName": "D#3",
      "frequencyHz": 155.563492,
      "startTick": 20880,
      "durationTicks": 240,
      "endTick": 21120,
      "startSeconds": 18.913,
      "durationSeconds": 0.217,
      "endSeconds": 19.13,
      "velocity": 0.1,
      "bendActive": false,
      "instrument": 0
    },
    {
      "id": "id_n15v8it71mnwl0o97",
      "pitch": 32,
      "pitchName": "G#1",
      "frequencyHz": 51.913087,
      "startTick": 21120,
      "durationTicks": 240,
      "endTick": 21360,
      "startSeconds": 19.13,
      "durationSeconds": 0.217,
      "endSeconds": 19.348,
      "velocity": 0.2,
      "bendActive": false,
      "instrument": 0
    },
    {
      "id": "id_gqiur3qpvmnwl0o97",
      "pitch": 39,
      "pitchName": "D#2",
      "frequencyHz": 77.781746,
      "startTick": 21120,
      "durationTicks": 120,
      "endTick": 21240,
      "startSeconds": 19.13,
      "durationSeconds": 0.109,
      "endSeconds": 19.239,
      "velocity": 0.8,
      "bendActive": true,
      "instrument": 0
    },
    {
      "id": "id_8d5a1lgopmnwl0o97",
      "pitch": 51,
      "pitchName": "D#3",
      "frequencyHz": 155.563492,
      "startTick": 21120,
      "durationTicks": 240,
      "endTick": 21360,
      "startSeconds": 19.13,
      "durationSeconds": 0.217,
      "endSeconds": 19.348,
      "velocity": 0.15,
      "bendActive": false,
      "instrument": 0
    },
    {
      "id": "id_mjlg9mcq4mnwl0o97",
      "pitch": 54,
      "pitchName": "F#3",
      "frequencyHz": 184.997211,
      "startTick": 21120,
      "durationTicks": 240,
      "endTick": 21360,
      "startSeconds": 19.13,
      "durationSeconds": 0.217,
      "endSeconds": 19.348,
      "velocity": 0.1,
      "bendActive": true,
      "instrument": 0
    },
    {
      "id": "id_84b4m0c0jmnwl0o97",
      "pitch": 32,
      "pitchName": "G#1",
      "frequencyHz": 51.913087,
      "startTick": 21240,
      "durationTicks": 240,
      "endTick": 21480,
      "startSeconds": 19.239,
      "durationSeconds": 0.217,
      "endSeconds": 19.457,
      "velocity": 0.8,
      "bendActive": true,
      "instrument": 0
    },
    {
      "id": "id_o4bm2q3bamnwl0o97",
      "pitch": 32,
      "pitchName": "G#1",
      "frequencyHz": 51.913087,
      "startTick": 21360,
      "durationTicks": 240,
      "endTick": 21600,
      "startSeconds": 19.348,
      "durationSeconds": 0.217,
      "endSeconds": 19.565,
      "velocity": 0.279,
      "bendActive": false,
      "instrument": 0
    },
    {
      "id": "id_2xyw0wvz9mnwl0o97",
      "pitch": 47,
      "pitchName": "B2",
      "frequencyHz": 123.470825,
      "startTick": 21360,
      "durationTicks": 120,
      "endTick": 21480,
      "startSeconds": 19.348,
      "durationSeconds": 0.109,
      "endSeconds": 19.457,
      "velocity": 0.1,
      "bendActive": true,
      "instrument": 0
    },
    {
      "id": "id_70c5ls8bpmnwl0o97",
      "pitch": 51,
      "pitchName": "D#3",
      "frequencyHz": 155.563492,
      "startTick": 21360,
      "durationTicks": 240,
      "endTick": 21600,
      "startSeconds": 19.348,
      "durationSeconds": 0.217,
      "endSeconds": 19.565,
      "velocity": 0.279,
      "bendActive": false,
      "instrument": 0
    },
    {
      "id": "id_zm0es016cmnwl0o97",
      "pitch": 42,
      "pitchName": "F#2",
      "frequencyHz": 92.498606,
      "startTick": 21480,
      "durationTicks": 120,
      "endTick": 21600,
      "startSeconds": 19.457,
      "durationSeconds": 0.109,
      "endSeconds": 19.565,
      "velocity": 0.8,
      "bendActive": true,
      "instrument": 0
    },
    {
      "id": "id_fhj88owy0mnwl0o97",
      "pitch": 32,
      "pitchName": "G#1",
      "frequencyHz": 51.913087,
      "startTick": 21600,
      "durationTicks": 240,
      "endTick": 21840,
      "startSeconds": 19.565,
      "durationSeconds": 0.217,
      "endSeconds": 19.783,
      "velocity": 0.425,
      "bendActive": false,
      "instrument": 0
    },
    {
      "id": "id_5plllmj6vmnwl0o97",
      "pitch": 37,
      "pitchName": "C#2",
      "frequencyHz": 69.295658,
      "startTick": 21600,
      "durationTicks": 600,
      "endTick": 22200,
      "startSeconds": 19.565,
      "durationSeconds": 0.543,
      "endSeconds": 20.109,
      "velocity": 0.8,
      "bendActive": true,
      "instrument": 0
    },
    {
      "id": "id_u0y7p1o01mnwl0o97",
      "pitch": 51,
      "pitchName": "D#3",
      "frequencyHz": 155.563492,
      "startTick": 21600,
      "durationTicks": 240,
      "endTick": 21840,
      "startSeconds": 19.565,
      "durationSeconds": 0.217,
      "endSeconds": 19.783,
      "velocity": 0.375,
      "bendActive": false,
      "instrument": 0
    },
    {
      "id": "id_5ny0lophxmnwl0o97",
      "pitch": 56,
      "pitchName": "G#3",
      "frequencyHz": 207.652349,
      "startTick": 21600,
      "durationTicks": 240,
      "endTick": 21840,
      "startSeconds": 19.565,
      "durationSeconds": 0.217,
      "endSeconds": 19.783,
      "velocity": 0.1,
      "bendActive": true,
      "instrument": 0
    },
    {
      "id": "id_6fpoh12memnwl0o97",
      "pitch": 32,
      "pitchName": "G#1",
      "frequencyHz": 51.913087,
      "startTick": 21840,
      "durationTicks": 240,
      "endTick": 22080,
      "startSeconds": 19.783,
      "durationSeconds": 0.217,
      "endSeconds": 20,
      "velocity": 0.283,
      "bendActive": false,
      "instrument": 0
    },
    {
      "id": "id_ccy18zi53mnwl0o97",
      "pitch": 51,
      "pitchName": "D#3",
      "frequencyHz": 155.563492,
      "startTick": 21840,
      "durationTicks": 240,
      "endTick": 22080,
      "startSeconds": 19.783,
      "durationSeconds": 0.217,
      "endSeconds": 20,
      "velocity": 0.283,
      "bendActive": false,
      "instrument": 0
    },
    {
      "id": "id_oenhncmh7mnwl0o97",
      "pitch": 59,
      "pitchName": "B3",
      "frequencyHz": 246.941651,
      "startTick": 21840,
      "durationTicks": 240,
      "endTick": 22080,
      "startSeconds": 19.783,
      "durationSeconds": 0.217,
      "endSeconds": 20,
      "velocity": 0.1,
      "bendActive": true,
      "instrument": 0
    },
    {
      "id": "id_di7npwfxdmnwl0o97",
      "pitch": 32,
      "pitchName": "G#1",
      "frequencyHz": 51.913087,
      "startTick": 22080,
      "durationTicks": 240,
      "endTick": 22320,
      "startSeconds": 20,
      "durationSeconds": 0.217,
      "endSeconds": 20.217,
      "velocity": 0.417,
      "bendActive": false,
      "instrument": 0
    },
    {
      "id": "id_r86weuh8tmnwl0o97",
      "pitch": 51,
      "pitchName": "D#3",
      "frequencyHz": 155.563492,
      "startTick": 22080,
      "durationTicks": 240,
      "endTick": 22320,
      "startSeconds": 20,
      "durationSeconds": 0.217,
      "endSeconds": 20.217,
      "velocity": 0.417,
      "bendActive": false,
      "instrument": 0
    },
    {
      "id": "id_rnq3wnvammnwl0o97",
      "pitch": 66,
      "pitchName": "F#4",
      "frequencyHz": 369.994423,
      "startTick": 22080,
      "durationTicks": 240,
      "endTick": 22320,
      "startSeconds": 20,
      "durationSeconds": 0.217,
      "endSeconds": 20.217,
      "velocity": 0.1,
      "bendActive": true,
      "instrument": 0
    },
    {
      "id": "id_ak5mxwtzemnwl0o97",
      "pitch": 39,
      "pitchName": "D#2",
      "frequencyHz": 77.781746,
      "startTick": 22200,
      "durationTicks": 120,
      "endTick": 22320,
      "startSeconds": 20.109,
      "durationSeconds": 0.109,
      "endSeconds": 20.217,
      "velocity": 0.8,
      "bendActive": true,
      "instrument": 0
    },
    {
      "id": "id_f63pa6ivimnwl0o97",
      "pitch": 32,
      "pitchName": "G#1",
      "frequencyHz": 51.913087,
      "startTick": 22320,
      "durationTicks": 240,
      "endTick": 22560,
      "startSeconds": 20.217,
      "durationSeconds": 0.217,
      "endSeconds": 20.435,
      "velocity": 0.8,
      "bendActive": true,
      "instrument": 0
    },
    {
      "id": "id_ok7e5ffrmmnwl0o97",
      "pitch": 32,
      "pitchName": "G#1",
      "frequencyHz": 51.913087,
      "startTick": 22320,
      "durationTicks": 240,
      "endTick": 22560,
      "startSeconds": 20.217,
      "durationSeconds": 0.217,
      "endSeconds": 20.435,
      "velocity": 0.613,
      "bendActive": false,
      "instrument": 0
    },
    {
      "id": "id_pt3ze40f3mnwl0o97",
      "pitch": 51,
      "pitchName": "D#3",
      "frequencyHz": 155.563492,
      "startTick": 22320,
      "durationTicks": 240,
      "endTick": 22560,
      "startSeconds": 20.217,
      "durationSeconds": 0.217,
      "endSeconds": 20.435,
      "velocity": 0.613,
      "bendActive": false,
      "instrument": 0
    },
    {
      "id": "id_xyiht9rw6mnwl0o97",
      "pitch": 58,
      "pitchName": "A#3",
      "frequencyHz": 233.081881,
      "startTick": 22320,
      "durationTicks": 240,
      "endTick": 22560,
      "startSeconds": 20.217,
      "durationSeconds": 0.217,
      "endSeconds": 20.435,
      "velocity": 0.1,
      "bendActive": true,
      "instrument": 0
    },
    {
      "id": "id_vicw0k8uumnwl0o97",
      "pitch": 32,
      "pitchName": "G#1",
      "frequencyHz": 51.913087,
      "startTick": 22560,
      "durationTicks": 240,
      "endTick": 22800,
      "startSeconds": 20.435,
      "durationSeconds": 0.217,
      "endSeconds": 20.652,
      "velocity": 0.425,
      "bendActive": false,
      "instrument": 0
    },
    {
      "id": "id_84vihu48umnwl0o97",
      "pitch": 46,
      "pitchName": "A#2",
      "frequencyHz": 116.54094,
      "startTick": 22560,
      "durationTicks": 120,
      "endTick": 22680,
      "startSeconds": 20.435,
      "durationSeconds": 0.109,
      "endSeconds": 20.543,
      "velocity": 0.8,
      "bendActive": true,
      "instrument": 0
    },
    {
      "id": "id_loj9s01a6mnwl0o97",
      "pitch": 51,
      "pitchName": "D#3",
      "frequencyHz": 155.563492,
      "startTick": 22560,
      "durationTicks": 240,
      "endTick": 22800,
      "startSeconds": 20.435,
      "durationSeconds": 0.217,
      "endSeconds": 20.652,
      "velocity": 0.425,
      "bendActive": false,
      "instrument": 0
    },
    {
      "id": "id_czgraymzjmnwl0o97",
      "pitch": 35,
      "pitchName": "B1",
      "frequencyHz": 61.735413,
      "startTick": 22680,
      "durationTicks": 120,
      "endTick": 22800,
      "startSeconds": 20.543,
      "durationSeconds": 0.109,
      "endSeconds": 20.652,
      "velocity": 0.8,
      "bendActive": true,
      "instrument": 0
    },
    {
      "id": "id_b52wt9gqumnwl0o97",
      "pitch": 32,
      "pitchName": "G#1",
      "frequencyHz": 51.913087,
      "startTick": 22800,
      "durationTicks": 240,
      "endTick": 23040,
      "startSeconds": 20.652,
      "durationSeconds": 0.217,
      "endSeconds": 20.87,
      "velocity": 0.554,
      "bendActive": false,
      "instrument": 0
    },
    {
      "id": "id_6k2v4xrc7mnwl0o97",
      "pitch": 51,
      "pitchName": "D#3",
      "frequencyHz": 155.563492,
      "startTick": 22800,
      "durationTicks": 240,
      "endTick": 23040,
      "startSeconds": 20.652,
      "durationSeconds": 0.217,
      "endSeconds": 20.87,
      "velocity": 0.554,
      "bendActive": false,
      "instrument": 0
    },
    {
      "id": "id_w8a5f6sl4mnwl0o97",
      "pitch": 54,
      "pitchName": "F#3",
      "frequencyHz": 184.997211,
      "startTick": 22800,
      "durationTicks": 120,
      "endTick": 22920,
      "startSeconds": 20.652,
      "durationSeconds": 0.109,
      "endSeconds": 20.761,
      "velocity": 0.8,
      "bendActive": true,
      "instrument": 0
    },
    {
      "id": "id_jvllaw574mnwl0o97",
      "pitch": 54,
      "pitchName": "F#3",
      "frequencyHz": 184.997211,
      "startTick": 22800,
      "durationTicks": 120,
      "endTick": 22920,
      "startSeconds": 20.652,
      "durationSeconds": 0.109,
      "endSeconds": 20.761,
      "velocity": 0.8,
      "bendActive": true,
      "instrument": 0
    },
    {
      "id": "id_4fuhyuvkymnwl0o97",
      "pitch": 42,
      "pitchName": "F#2",
      "frequencyHz": 92.498606,
      "startTick": 22920,
      "durationTicks": 120,
      "endTick": 23040,
      "startSeconds": 20.761,
      "durationSeconds": 0.109,
      "endSeconds": 20.87,
      "velocity": 0.8,
      "bendActive": true,
      "instrument": 0
    },
    {
      "id": "id_9o1kzgv42mnwl0o97",
      "pitch": 32,
      "pitchName": "G#1",
      "frequencyHz": 51.913087,
      "startTick": 23040,
      "durationTicks": 240,
      "endTick": 23280,
      "startSeconds": 20.87,
      "durationSeconds": 0.217,
      "endSeconds": 21.087,
      "velocity": 0.8,
      "bendActive": true,
      "instrument": 0
    },
    {
      "id": "id_cnfvzv1qgmnwl0o97",
      "pitch": 51,
      "pitchName": "D#3",
      "frequencyHz": 155.563492,
      "startTick": 23040,
      "durationTicks": 240,
      "endTick": 23280,
      "startSeconds": 20.87,
      "durationSeconds": 0.217,
      "endSeconds": 21.087,
      "velocity": 0.1,
      "bendActive": true,
      "instrument": 0
    },
    {
      "id": "id_xloo4gawumnwl0o97",
      "pitch": 56,
      "pitchName": "G#3",
      "frequencyHz": 207.652349,
      "startTick": 23040,
      "durationTicks": 160,
      "endTick": 23200,
      "startSeconds": 20.87,
      "durationSeconds": 0.145,
      "endSeconds": 21.014,
      "velocity": 0.1,
      "bendActive": true,
      "instrument": 1
    },
    {
      "id": "id_ptsuvxtf3mnwl0o97",
      "pitch": 32,
      "pitchName": "G#1",
      "frequencyHz": 51.913087,
      "startTick": 23280,
      "durationTicks": 240,
      "endTick": 23520,
      "startSeconds": 21.087,
      "durationSeconds": 0.217,
      "endSeconds": 21.304,
      "velocity": 0.5,
      "bendActive": true,
      "instrument": 0
    },
    {
      "id": "id_argeuocw8mnwl0o97",
      "pitch": 51,
      "pitchName": "D#3",
      "frequencyHz": 155.563492,
      "startTick": 23280,
      "durationTicks": 240,
      "endTick": 23520,
      "startSeconds": 21.087,
      "durationSeconds": 0.217,
      "endSeconds": 21.304,
      "velocity": 0.1,
      "bendActive": true,
      "instrument": 0
    },
    {
      "id": "id_xl6db82l0mnwl0o97",
      "pitch": 56,
      "pitchName": "G#3",
      "frequencyHz": 207.652349,
      "startTick": 23280,
      "durationTicks": 160,
      "endTick": 23440,
      "startSeconds": 21.087,
      "durationSeconds": 0.145,
      "endSeconds": 21.232,
      "velocity": 0.1,
      "bendActive": true,
      "instrument": 1
    },
    {
      "id": "id_0rjojg09pmnwl0o97",
      "pitch": 32,
      "pitchName": "G#1",
      "frequencyHz": 51.913087,
      "startTick": 23520,
      "durationTicks": 240,
      "endTick": 23760,
      "startSeconds": 21.304,
      "durationSeconds": 0.217,
      "endSeconds": 21.522,
      "velocity": 0.6,
      "bendActive": false,
      "instrument": 0
    },
    {
      "id": "id_urs6xbgu2mnwl0o97",
      "pitch": 51,
      "pitchName": "D#3",
      "frequencyHz": 155.563492,
      "startTick": 23520,
      "durationTicks": 240,
      "endTick": 23760,
      "startSeconds": 21.304,
      "durationSeconds": 0.217,
      "endSeconds": 21.522,
      "velocity": 0.1,
      "bendActive": false,
      "instrument": 0
    },
    {
      "id": "id_nf06b2kpwmnwl0o97",
      "pitch": 56,
      "pitchName": "G#3",
      "frequencyHz": 207.652349,
      "startTick": 23520,
      "durationTicks": 160,
      "endTick": 23680,
      "startSeconds": 21.304,
      "durationSeconds": 0.145,
      "endSeconds": 21.449,
      "velocity": 0.1,
      "bendActive": false,
      "instrument": 1
    },
    {
      "id": "id_xtksu7lpjmnwl0o97",
      "pitch": 32,
      "pitchName": "G#1",
      "frequencyHz": 51.913087,
      "startTick": 23760,
      "durationTicks": 240,
      "endTick": 24000,
      "startSeconds": 21.522,
      "durationSeconds": 0.217,
      "endSeconds": 21.739,
      "velocity": 0.8,
      "bendActive": false,
      "instrument": 0
    },
    {
      "id": "id_sxk6z58smmnwl0o97",
      "pitch": 51,
      "pitchName": "D#3",
      "frequencyHz": 155.563492,
      "startTick": 23760,
      "durationTicks": 240,
      "endTick": 24000,
      "startSeconds": 21.522,
      "durationSeconds": 0.217,
      "endSeconds": 21.739,
      "velocity": 0.25,
      "bendActive": false,
      "instrument": 0
    },
    {
      "id": "id_85rwn32d5mnwl0o97",
      "pitch": 56,
      "pitchName": "G#3",
      "frequencyHz": 207.652349,
      "startTick": 23760,
      "durationTicks": 160,
      "endTick": 23920,
      "startSeconds": 21.522,
      "durationSeconds": 0.145,
      "endSeconds": 21.667,
      "velocity": 0.25,
      "bendActive": false,
      "instrument": 1
    },
    {
      "id": "id_rolptxqxdmnwl0o97",
      "pitch": 32,
      "pitchName": "G#1",
      "frequencyHz": 51.913087,
      "startTick": 24000,
      "durationTicks": 240,
      "endTick": 24240,
      "startSeconds": 21.739,
      "durationSeconds": 0.217,
      "endSeconds": 21.957,
      "velocity": 0.5,
      "bendActive": false,
      "instrument": 0
    },
    {
      "id": "id_6nk8unce7mnwl0o97",
      "pitch": 51,
      "pitchName": "D#3",
      "frequencyHz": 155.563492,
      "startTick": 24000,
      "durationTicks": 240,
      "endTick": 24240,
      "startSeconds": 21.739,
      "durationSeconds": 0.217,
      "endSeconds": 21.957,
      "velocity": 0.35,
      "bendActive": false,
      "instrument": 0
    },
    {
      "id": "id_8wdo2fq2umnwl0o97",
      "pitch": 56,
      "pitchName": "G#3",
      "frequencyHz": 207.652349,
      "startTick": 24000,
      "durationTicks": 160,
      "endTick": 24160,
      "startSeconds": 21.739,
      "durationSeconds": 0.145,
      "endSeconds": 21.884,
      "velocity": 0.35,
      "bendActive": false,
      "instrument": 1
    },
    {
      "id": "id_53lxvf9f3mnwl0o97",
      "pitch": 32,
      "pitchName": "G#1",
      "frequencyHz": 51.913087,
      "startTick": 24240,
      "durationTicks": 240,
      "endTick": 24480,
      "startSeconds": 21.957,
      "durationSeconds": 0.217,
      "endSeconds": 22.174,
      "velocity": 0.6,
      "bendActive": false,
      "instrument": 0
    },
    {
      "id": "id_5k60n73jwmnwl0o97",
      "pitch": 51,
      "pitchName": "D#3",
      "frequencyHz": 155.563492,
      "startTick": 24240,
      "durationTicks": 240,
      "endTick": 24480,
      "startSeconds": 21.957,
      "durationSeconds": 0.217,
      "endSeconds": 22.174,
      "velocity": 0.6,
      "bendActive": false,
      "instrument": 0
    },
    {
      "id": "id_eozsj22ijmnwl0o97",
      "pitch": 56,
      "pitchName": "G#3",
      "frequencyHz": 207.652349,
      "startTick": 24240,
      "durationTicks": 160,
      "endTick": 24400,
      "startSeconds": 21.957,
      "durationSeconds": 0.145,
      "endSeconds": 22.101,
      "velocity": 0.6,
      "bendActive": false,
      "instrument": 1
    },
    {
      "id": "id_ieoktajfkmnwl0o97",
      "pitch": 32,
      "pitchName": "G#1",
      "frequencyHz": 51.913087,
      "startTick": 24480,
      "durationTicks": 240,
      "endTick": 24720,
      "startSeconds": 22.174,
      "durationSeconds": 0.217,
      "endSeconds": 22.391,
      "velocity": 0.8,
      "bendActive": false,
      "instrument": 0
    },
    {
      "id": "id_v0oqqxulomnwl0o97",
      "pitch": 51,
      "pitchName": "D#3",
      "frequencyHz": 155.563492,
      "startTick": 24480,
      "durationTicks": 240,
      "endTick": 24720,
      "startSeconds": 22.174,
      "durationSeconds": 0.217,
      "endSeconds": 22.391,
      "velocity": 0.7,
      "bendActive": false,
      "instrument": 0
    },
    {
      "id": "id_cmjv14gn0mnwl0o97",
      "pitch": 56,
      "pitchName": "G#3",
      "frequencyHz": 207.652349,
      "startTick": 24480,
      "durationTicks": 160,
      "endTick": 24640,
      "startSeconds": 22.174,
      "durationSeconds": 0.145,
      "endSeconds": 22.319,
      "velocity": 0.7,
      "bendActive": false,
      "instrument": 1
    },
    {
      "id": "id_nh50kgy7qmnwl0o97",
      "pitch": 32,
      "pitchName": "G#1",
      "frequencyHz": 51.913087,
      "startTick": 24720,
      "durationTicks": 240,
      "endTick": 24960,
      "startSeconds": 22.391,
      "durationSeconds": 0.217,
      "endSeconds": 22.609,
      "velocity": 0.45,
      "bendActive": false,
      "instrument": 0
    },
    {
      "id": "id_5buip3y0gmnwl0o97",
      "pitch": 51,
      "pitchName": "D#3",
      "frequencyHz": 155.563492,
      "startTick": 24720,
      "durationTicks": 240,
      "endTick": 24960,
      "startSeconds": 22.391,
      "durationSeconds": 0.217,
      "endSeconds": 22.609,
      "velocity": 0.45,
      "bendActive": false,
      "instrument": 0
    },
    {
      "id": "id_34dayx52jmnwl0o97",
      "pitch": 56,
      "pitchName": "G#3",
      "frequencyHz": 207.652349,
      "startTick": 24720,
      "durationTicks": 160,
      "endTick": 24880,
      "startSeconds": 22.391,
      "durationSeconds": 0.145,
      "endSeconds": 22.536,
      "velocity": 0.45,
      "bendActive": false,
      "instrument": 1
    },
    {
      "id": "id_er5gaih6ymnwl0o97",
      "pitch": 32,
      "pitchName": "G#1",
      "frequencyHz": 51.913087,
      "startTick": 24960,
      "durationTicks": 240,
      "endTick": 25200,
      "startSeconds": 22.609,
      "durationSeconds": 0.217,
      "endSeconds": 22.826,
      "velocity": 0.6,
      "bendActive": false,
      "instrument": 0
    },
    {
      "id": "id_soj8kqjskmnwl0o97",
      "pitch": 51,
      "pitchName": "D#3",
      "frequencyHz": 155.563492,
      "startTick": 24960,
      "durationTicks": 240,
      "endTick": 25200,
      "startSeconds": 22.609,
      "durationSeconds": 0.217,
      "endSeconds": 22.826,
      "velocity": 0.6,
      "bendActive": false,
      "instrument": 0
    },
    {
      "id": "id_9qpnpx4wgmnwl0o97",
      "pitch": 56,
      "pitchName": "G#3",
      "frequencyHz": 207.652349,
      "startTick": 24960,
      "durationTicks": 160,
      "endTick": 25120,
      "startSeconds": 22.609,
      "durationSeconds": 0.145,
      "endSeconds": 22.754,
      "velocity": 0.6,
      "bendActive": false,
      "instrument": 1
    },
    {
      "id": "id_irsqxhnkzmnwl0o97",
      "pitch": 32,
      "pitchName": "G#1",
      "frequencyHz": 51.913087,
      "startTick": 25200,
      "durationTicks": 240,
      "endTick": 25440,
      "startSeconds": 22.826,
      "durationSeconds": 0.217,
      "endSeconds": 23.043,
      "velocity": 0.8,
      "bendActive": false,
      "instrument": 0
    },
    {
      "id": "id_e1adz03vdmnwl0o97",
      "pitch": 51,
      "pitchName": "D#3",
      "frequencyHz": 155.563492,
      "startTick": 25200,
      "durationTicks": 240,
      "endTick": 25440,
      "startSeconds": 22.826,
      "durationSeconds": 0.217,
      "endSeconds": 23.043,
      "velocity": 0.8,
      "bendActive": false,
      "instrument": 0
    },
    {
      "id": "id_415kduifjmnwl0o97",
      "pitch": 56,
      "pitchName": "G#3",
      "frequencyHz": 207.652349,
      "startTick": 25200,
      "durationTicks": 160,
      "endTick": 25360,
      "startSeconds": 22.826,
      "durationSeconds": 0.145,
      "endSeconds": 22.971,
      "velocity": 0.8,
      "bendActive": false,
      "instrument": 1
    },
    {
      "id": "id_csrrlh3vnmnwl0o97",
      "pitch": 32,
      "pitchName": "G#1",
      "frequencyHz": 51.913087,
      "startTick": 25440,
      "durationTicks": 240,
      "endTick": 25680,
      "startSeconds": 23.043,
      "durationSeconds": 0.217,
      "endSeconds": 23.261,
      "velocity": 0.5,
      "bendActive": false,
      "instrument": 0
    },
    {
      "id": "id_7zdahuvyxmnwl0o97",
      "pitch": 51,
      "pitchName": "D#3",
      "frequencyHz": 155.563492,
      "startTick": 25440,
      "durationTicks": 240,
      "endTick": 25680,
      "startSeconds": 23.043,
      "durationSeconds": 0.217,
      "endSeconds": 23.261,
      "velocity": 0.5,
      "bendActive": false,
      "instrument": 0
    },
    {
      "id": "id_fb7d2vmsqmnwl0o97",
      "pitch": 56,
      "pitchName": "G#3",
      "frequencyHz": 207.652349,
      "startTick": 25440,
      "durationTicks": 160,
      "endTick": 25600,
      "startSeconds": 23.043,
      "durationSeconds": 0.145,
      "endSeconds": 23.188,
      "velocity": 0.5,
      "bendActive": false,
      "instrument": 1
    },
    {
      "id": "id_6t942864rmnwl0o97",
      "pitch": 32,
      "pitchName": "G#1",
      "frequencyHz": 51.913087,
      "startTick": 25680,
      "durationTicks": 240,
      "endTick": 25920,
      "startSeconds": 23.261,
      "durationSeconds": 0.217,
      "endSeconds": 23.478,
      "velocity": 0.6,
      "bendActive": false,
      "instrument": 0
    },
    {
      "id": "id_5huh2lwg5mnwl0o97",
      "pitch": 51,
      "pitchName": "D#3",
      "frequencyHz": 155.563492,
      "startTick": 25680,
      "durationTicks": 240,
      "endTick": 25920,
      "startSeconds": 23.261,
      "durationSeconds": 0.217,
      "endSeconds": 23.478,
      "velocity": 0.6,
      "bendActive": false,
      "instrument": 0
    },
    {
      "id": "id_o97w5onfdmnwl0o97",
      "pitch": 56,
      "pitchName": "G#3",
      "frequencyHz": 207.652349,
      "startTick": 25680,
      "durationTicks": 160,
      "endTick": 25840,
      "startSeconds": 23.261,
      "durationSeconds": 0.145,
      "endSeconds": 23.406,
      "velocity": 0.6,
      "bendActive": false,
      "instrument": 1
    },
    {
      "id": "id_k0lfb2exrmnwl0o97",
      "pitch": 32,
      "pitchName": "G#1",
      "frequencyHz": 51.913087,
      "startTick": 25920,
      "durationTicks": 240,
      "endTick": 26160,
      "startSeconds": 23.478,
      "durationSeconds": 0.217,
      "endSeconds": 23.696,
      "velocity": 0.95,
      "bendActive": false,
      "instrument": 0
    },
    {
      "id": "id_s1nyme8iamnwl0o97",
      "pitch": 51,
      "pitchName": "D#3",
      "frequencyHz": 155.563492,
      "startTick": 25920,
      "durationTicks": 240,
      "endTick": 26160,
      "startSeconds": 23.478,
      "durationSeconds": 0.217,
      "endSeconds": 23.696,
      "velocity": 0.7,
      "bendActive": false,
      "instrument": 0
    },
    {
      "id": "id_3ej3mpythmnwl0o97",
      "pitch": 56,
      "pitchName": "G#3",
      "frequencyHz": 207.652349,
      "startTick": 25920,
      "durationTicks": 160,
      "endTick": 26080,
      "startSeconds": 23.478,
      "durationSeconds": 0.145,
      "endSeconds": 23.623,
      "velocity": 0.7,
      "bendActive": false,
      "instrument": 1
    },
    {
      "id": "id_l47n6l10cmnwl0o97",
      "pitch": 71,
      "pitchName": "B4",
      "frequencyHz": 493.883301,
      "startTick": 25920,
      "durationTicks": 2880,
      "endTick": 28800,
      "startSeconds": 23.478,
      "durationSeconds": 2.609,
      "endSeconds": 26.087,
      "velocity": 0.25,
      "bendActive": true,
      "instrument": 1
    },
    {
      "id": "id_3432r9j7umnwl0o97",
      "pitch": 32,
      "pitchName": "G#1",
      "frequencyHz": 51.913087,
      "startTick": 26160,
      "durationTicks": 240,
      "endTick": 26400,
      "startSeconds": 23.696,
      "durationSeconds": 0.217,
      "endSeconds": 23.913,
      "velocity": 0.45,
      "bendActive": false,
      "instrument": 0
    },
    {
      "id": "id_13554eg91mnwl0o97",
      "pitch": 51,
      "pitchName": "D#3",
      "frequencyHz": 155.563492,
      "startTick": 26160,
      "durationTicks": 240,
      "endTick": 26400,
      "startSeconds": 23.696,
      "durationSeconds": 0.217,
      "endSeconds": 23.913,
      "velocity": 0.45,
      "bendActive": false,
      "instrument": 0
    },
    {
      "id": "id_ddu1tptgdmnwl0o97",
      "pitch": 56,
      "pitchName": "G#3",
      "frequencyHz": 207.652349,
      "startTick": 26160,
      "durationTicks": 160,
      "endTick": 26320,
      "startSeconds": 23.696,
      "durationSeconds": 0.145,
      "endSeconds": 23.841,
      "velocity": 0.45,
      "bendActive": false,
      "instrument": 1
    },
    {
      "id": "id_z2trflbdmmnwl0o97",
      "pitch": 32,
      "pitchName": "G#1",
      "frequencyHz": 51.913087,
      "startTick": 26400,
      "durationTicks": 240,
      "endTick": 26640,
      "startSeconds": 23.913,
      "durationSeconds": 0.217,
      "endSeconds": 24.13,
      "velocity": 0.6,
      "bendActive": false,
      "instrument": 0
    },
    {
      "id": "id_pozm957g0mnwl0o97",
      "pitch": 51,
      "pitchName": "D#3",
      "frequencyHz": 155.563492,
      "startTick": 26400,
      "durationTicks": 240,
      "endTick": 26640,
      "startSeconds": 23.913,
      "durationSeconds": 0.217,
      "endSeconds": 24.13,
      "velocity": 0.6,
      "bendActive": false,
      "instrument": 0
    },
    {
      "id": "id_3277e8o5gmnwl0o97",
      "pitch": 56,
      "pitchName": "G#3",
      "frequencyHz": 207.652349,
      "startTick": 26400,
      "durationTicks": 160,
      "endTick": 26560,
      "startSeconds": 23.913,
      "durationSeconds": 0.145,
      "endSeconds": 24.058,
      "velocity": 0.6,
      "bendActive": false,
      "instrument": 1
    },
    {
      "id": "id_yhe3p062smnwl0o97",
      "pitch": 32,
      "pitchName": "G#1",
      "frequencyHz": 51.913087,
      "startTick": 26640,
      "durationTicks": 240,
      "endTick": 26880,
      "startSeconds": 24.13,
      "durationSeconds": 0.217,
      "endSeconds": 24.348,
      "velocity": 0.8,
      "bendActive": false,
      "instrument": 0
    },
    {
      "id": "id_agguepj0zmnwl0o97",
      "pitch": 51,
      "pitchName": "D#3",
      "frequencyHz": 155.563492,
      "startTick": 26640,
      "durationTicks": 240,
      "endTick": 26880,
      "startSeconds": 24.13,
      "durationSeconds": 0.217,
      "endSeconds": 24.348,
      "velocity": 0.8,
      "bendActive": false,
      "instrument": 0
    },
    {
      "id": "id_mrgtjsnudmnwl0o97",
      "pitch": 56,
      "pitchName": "G#3",
      "frequencyHz": 207.652349,
      "startTick": 26640,
      "durationTicks": 160,
      "endTick": 26800,
      "startSeconds": 24.13,
      "durationSeconds": 0.145,
      "endSeconds": 24.275,
      "velocity": 0.8,
      "bendActive": false,
      "instrument": 1
    },
    {
      "id": "id_mskf2u06smnwl0o97",
      "pitch": 32,
      "pitchName": "G#1",
      "frequencyHz": 51.913087,
      "startTick": 26880,
      "durationTicks": 240,
      "endTick": 27120,
      "startSeconds": 24.348,
      "durationSeconds": 0.217,
      "endSeconds": 24.565,
      "velocity": 0.5,
      "bendActive": false,
      "instrument": 0
    },
    {
      "id": "id_rf2ulc08ymnwl0o97",
      "pitch": 51,
      "pitchName": "D#3",
      "frequencyHz": 155.563492,
      "startTick": 26880,
      "durationTicks": 240,
      "endTick": 27120,
      "startSeconds": 24.348,
      "durationSeconds": 0.217,
      "endSeconds": 24.565,
      "velocity": 0.5,
      "bendActive": false,
      "instrument": 0
    },
    {
      "id": "id_bu1y8pauhmnwl0o97",
      "pitch": 56,
      "pitchName": "G#3",
      "frequencyHz": 207.652349,
      "startTick": 26880,
      "durationTicks": 160,
      "endTick": 27040,
      "startSeconds": 24.348,
      "durationSeconds": 0.145,
      "endSeconds": 24.493,
      "velocity": 0.5,
      "bendActive": false,
      "instrument": 1
    },
    {
      "id": "id_048kvvt76mnwl0o97",
      "pitch": 32,
      "pitchName": "G#1",
      "frequencyHz": 51.913087,
      "startTick": 27120,
      "durationTicks": 240,
      "endTick": 27360,
      "startSeconds": 24.565,
      "durationSeconds": 0.217,
      "endSeconds": 24.783,
      "velocity": 0.6,
      "bendActive": false,
      "instrument": 0
    },
    {
      "id": "id_9ufgykmtrmnwl0o97",
      "pitch": 51,
      "pitchName": "D#3",
      "frequencyHz": 155.563492,
      "startTick": 27120,
      "durationTicks": 240,
      "endTick": 27360,
      "startSeconds": 24.565,
      "durationSeconds": 0.217,
      "endSeconds": 24.783,
      "velocity": 0.6,
      "bendActive": false,
      "instrument": 0
    },
    {
      "id": "id_y1m8gk623mnwl0o97",
      "pitch": 56,
      "pitchName": "G#3",
      "frequencyHz": 207.652349,
      "startTick": 27120,
      "durationTicks": 160,
      "endTick": 27280,
      "startSeconds": 24.565,
      "durationSeconds": 0.145,
      "endSeconds": 24.71,
      "velocity": 0.6,
      "bendActive": false,
      "instrument": 1
    },
    {
      "id": "id_ec3h1ddvpmnwl0o97",
      "pitch": 32,
      "pitchName": "G#1",
      "frequencyHz": 51.913087,
      "startTick": 27360,
      "durationTicks": 240,
      "endTick": 27600,
      "startSeconds": 24.783,
      "durationSeconds": 0.217,
      "endSeconds": 25,
      "velocity": 0.8,
      "bendActive": false,
      "instrument": 0
    },
    {
      "id": "id_y0aywdlt1mnwl0o97",
      "pitch": 51,
      "pitchName": "D#3",
      "frequencyHz": 155.563492,
      "startTick": 27360,
      "durationTicks": 240,
      "endTick": 27600,
      "startSeconds": 24.783,
      "durationSeconds": 0.217,
      "endSeconds": 25,
      "velocity": 0.7,
      "bendActive": false,
      "instrument": 0
    },
    {
      "id": "id_wvoc4wqptmnwl0o97",
      "pitch": 56,
      "pitchName": "G#3",
      "frequencyHz": 207.652349,
      "startTick": 27360,
      "durationTicks": 160,
      "endTick": 27520,
      "startSeconds": 24.783,
      "durationSeconds": 0.145,
      "endSeconds": 24.928,
      "velocity": 0.7,
      "bendActive": false,
      "instrument": 1
    },
    {
      "id": "id_vl5bt656kmnwl0o97",
      "pitch": 32,
      "pitchName": "G#1",
      "frequencyHz": 51.913087,
      "startTick": 27600,
      "durationTicks": 240,
      "endTick": 27840,
      "startSeconds": 25,
      "durationSeconds": 0.217,
      "endSeconds": 25.217,
      "velocity": 0.45,
      "bendActive": false,
      "instrument": 0
    },
    {
      "id": "id_z8u5p65y9mnwl0o97",
      "pitch": 51,
      "pitchName": "D#3",
      "frequencyHz": 155.563492,
      "startTick": 27600,
      "durationTicks": 240,
      "endTick": 27840,
      "startSeconds": 25,
      "durationSeconds": 0.217,
      "endSeconds": 25.217,
      "velocity": 0.45,
      "bendActive": false,
      "instrument": 0
    },
    {
      "id": "id_glpq80a3pmnwl0o97",
      "pitch": 56,
      "pitchName": "G#3",
      "frequencyHz": 207.652349,
      "startTick": 27600,
      "durationTicks": 160,
      "endTick": 27760,
      "startSeconds": 25,
      "durationSeconds": 0.145,
      "endSeconds": 25.145,
      "velocity": 0.45,
      "bendActive": false,
      "instrument": 1
    },
    {
      "id": "id_ibst8972omnwl0o97",
      "pitch": 32,
      "pitchName": "G#1",
      "frequencyHz": 51.913087,
      "startTick": 27840,
      "durationTicks": 240,
      "endTick": 28080,
      "startSeconds": 25.217,
      "durationSeconds": 0.217,
      "endSeconds": 25.435,
      "velocity": 0.6,
      "bendActive": false,
      "instrument": 0
    },
    {
      "id": "id_htt9ugch4mnwl0o97",
      "pitch": 51,
      "pitchName": "D#3",
      "frequencyHz": 155.563492,
      "startTick": 27840,
      "durationTicks": 240,
      "endTick": 28080,
      "startSeconds": 25.217,
      "durationSeconds": 0.217,
      "endSeconds": 25.435,
      "velocity": 0.6,
      "bendActive": false,
      "instrument": 0
    },
    {
      "id": "id_i7k4y01vkmnwl0o97",
      "pitch": 56,
      "pitchName": "G#3",
      "frequencyHz": 207.652349,
      "startTick": 27840,
      "durationTicks": 160,
      "endTick": 28000,
      "startSeconds": 25.217,
      "durationSeconds": 0.145,
      "endSeconds": 25.362,
      "velocity": 0.6,
      "bendActive": false,
      "instrument": 1
    },
    {
      "id": "id_p64cd4eujmnwl0o97",
      "pitch": 32,
      "pitchName": "G#1",
      "frequencyHz": 51.913087,
      "startTick": 28080,
      "durationTicks": 240,
      "endTick": 28320,
      "startSeconds": 25.435,
      "durationSeconds": 0.217,
      "endSeconds": 25.652,
      "velocity": 0.8,
      "bendActive": false,
      "instrument": 0
    },
    {
      "id": "id_sj1054rlxmnwl0o97",
      "pitch": 51,
      "pitchName": "D#3",
      "frequencyHz": 155.563492,
      "startTick": 28080,
      "durationTicks": 240,
      "endTick": 28320,
      "startSeconds": 25.435,
      "durationSeconds": 0.217,
      "endSeconds": 25.652,
      "velocity": 0.8,
      "bendActive": false,
      "instrument": 0
    },
    {
      "id": "id_iqkxd56j8mnwl0o97",
      "pitch": 56,
      "pitchName": "G#3",
      "frequencyHz": 207.652349,
      "startTick": 28080,
      "durationTicks": 160,
      "endTick": 28240,
      "startSeconds": 25.435,
      "durationSeconds": 0.145,
      "endSeconds": 25.58,
      "velocity": 0.8,
      "bendActive": false,
      "instrument": 1
    },
    {
      "id": "id_2age28gn6mnwl0o97",
      "pitch": 32,
      "pitchName": "G#1",
      "frequencyHz": 51.913087,
      "startTick": 28320,
      "durationTicks": 240,
      "endTick": 28560,
      "startSeconds": 25.652,
      "durationSeconds": 0.217,
      "endSeconds": 25.87,
      "velocity": 0.5,
      "bendActive": false,
      "instrument": 0
    },
    {
      "id": "id_l2mkp5df6mnwl0o97",
      "pitch": 51,
      "pitchName": "D#3",
      "frequencyHz": 155.563492,
      "startTick": 28320,
      "durationTicks": 240,
      "endTick": 28560,
      "startSeconds": 25.652,
      "durationSeconds": 0.217,
      "endSeconds": 25.87,
      "velocity": 0.5,
      "bendActive": false,
      "instrument": 0
    },
    {
      "id": "id_xlegpa28cmnwl0o97",
      "pitch": 56,
      "pitchName": "G#3",
      "frequencyHz": 207.652349,
      "startTick": 28320,
      "durationTicks": 160,
      "endTick": 28480,
      "startSeconds": 25.652,
      "durationSeconds": 0.145,
      "endSeconds": 25.797,
      "velocity": 0.5,
      "bendActive": false,
      "instrument": 1
    },
    {
      "id": "id_ux7apa4xrmnwl0o97",
      "pitch": 32,
      "pitchName": "G#1",
      "frequencyHz": 51.913087,
      "startTick": 28560,
      "durationTicks": 240,
      "endTick": 28800,
      "startSeconds": 25.87,
      "durationSeconds": 0.217,
      "endSeconds": 26.087,
      "velocity": 0.6,
      "bendActive": false,
      "instrument": 0
    },
    {
      "id": "id_vzebn0eznmnwl0o97",
      "pitch": 51,
      "pitchName": "D#3",
      "frequencyHz": 155.563492,
      "startTick": 28560,
      "durationTicks": 240,
      "endTick": 28800,
      "startSeconds": 25.87,
      "durationSeconds": 0.217,
      "endSeconds": 26.087,
      "velocity": 0.6,
      "bendActive": false,
      "instrument": 0
    },
    {
      "id": "id_vddm7ni9hmnwl0o97",
      "pitch": 56,
      "pitchName": "G#3",
      "frequencyHz": 207.652349,
      "startTick": 28560,
      "durationTicks": 160,
      "endTick": 28720,
      "startSeconds": 25.87,
      "durationSeconds": 0.145,
      "endSeconds": 26.014,
      "velocity": 0.6,
      "bendActive": false,
      "instrument": 1
    },
    {
      "id": "id_nig7p1rktmnwl0o97",
      "pitch": 32,
      "pitchName": "G#1",
      "frequencyHz": 51.913087,
      "startTick": 28800,
      "durationTicks": 240,
      "endTick": 29040,
      "startSeconds": 26.087,
      "durationSeconds": 0.217,
      "endSeconds": 26.304,
      "velocity": 0.95,
      "bendActive": false,
      "instrument": 0
    },
    {
      "id": "id_cdfzfi8y4mnwl0o97",
      "pitch": 51,
      "pitchName": "D#3",
      "frequencyHz": 155.563492,
      "startTick": 28800,
      "durationTicks": 240,
      "endTick": 29040,
      "startSeconds": 26.087,
      "durationSeconds": 0.217,
      "endSeconds": 26.304,
      "velocity": 0.7,
      "bendActive": false,
      "instrument": 0
    },
    {
      "id": "id_5ij521osxmnwl0o97",
      "pitch": 56,
      "pitchName": "G#3",
      "frequencyHz": 207.652349,
      "startTick": 28800,
      "durationTicks": 160,
      "endTick": 28960,
      "startSeconds": 26.087,
      "durationSeconds": 0.145,
      "endSeconds": 26.232,
      "velocity": 0.7,
      "bendActive": false,
      "instrument": 1
    },
    {
      "id": "id_sqfwgxl4amnwl0o97",
      "pitch": 32,
      "pitchName": "G#1",
      "frequencyHz": 51.913087,
      "startTick": 29040,
      "durationTicks": 240,
      "endTick": 29280,
      "startSeconds": 26.304,
      "durationSeconds": 0.217,
      "endSeconds": 26.522,
      "velocity": 0.45,
      "bendActive": false,
      "instrument": 0
    },
    {
      "id": "id_x9wny34rnmnwl0o97",
      "pitch": 51,
      "pitchName": "D#3",
      "frequencyHz": 155.563492,
      "startTick": 29040,
      "durationTicks": 240,
      "endTick": 29280,
      "startSeconds": 26.304,
      "durationSeconds": 0.217,
      "endSeconds": 26.522,
      "velocity": 0.45,
      "bendActive": false,
      "instrument": 0
    },
    {
      "id": "id_jirp6furkmnwl0o97",
      "pitch": 56,
      "pitchName": "G#3",
      "frequencyHz": 207.652349,
      "startTick": 29040,
      "durationTicks": 160,
      "endTick": 29200,
      "startSeconds": 26.304,
      "durationSeconds": 0.145,
      "endSeconds": 26.449,
      "velocity": 0.45,
      "bendActive": false,
      "instrument": 1
    },
    {
      "id": "id_vo9g7fldwmnwl0o97",
      "pitch": 32,
      "pitchName": "G#1",
      "frequencyHz": 51.913087,
      "startTick": 29280,
      "durationTicks": 240,
      "endTick": 29520,
      "startSeconds": 26.522,
      "durationSeconds": 0.217,
      "endSeconds": 26.739,
      "velocity": 0.6,
      "bendActive": false,
      "instrument": 0
    },
    {
      "id": "id_1j2r5rz21mnwl0o97",
      "pitch": 51,
      "pitchName": "D#3",
      "frequencyHz": 155.563492,
      "startTick": 29280,
      "durationTicks": 240,
      "endTick": 29520,
      "startSeconds": 26.522,
      "durationSeconds": 0.217,
      "endSeconds": 26.739,
      "velocity": 0.6,
      "bendActive": false,
      "instrument": 0
    },
    {
      "id": "id_m6p5yzgpxmnwl0o97",
      "pitch": 56,
      "pitchName": "G#3",
      "frequencyHz": 207.652349,
      "startTick": 29280,
      "durationTicks": 160,
      "endTick": 29440,
      "startSeconds": 26.522,
      "durationSeconds": 0.145,
      "endSeconds": 26.667,
      "velocity": 0.6,
      "bendActive": false,
      "instrument": 1
    },
    {
      "id": "id_uzwo3lpmmmnwl0o97",
      "pitch": 32,
      "pitchName": "G#1",
      "frequencyHz": 51.913087,
      "startTick": 29520,
      "durationTicks": 240,
      "endTick": 29760,
      "startSeconds": 26.739,
      "durationSeconds": 0.217,
      "endSeconds": 26.957,
      "velocity": 0.8,
      "bendActive": false,
      "instrument": 0
    },
    {
      "id": "id_8mbisz5t9mnwl0o97",
      "pitch": 51,
      "pitchName": "D#3",
      "frequencyHz": 155.563492,
      "startTick": 29520,
      "durationTicks": 240,
      "endTick": 29760,
      "startSeconds": 26.739,
      "durationSeconds": 0.217,
      "endSeconds": 26.957,
      "velocity": 0.8,
      "bendActive": false,
      "instrument": 0
    },
    {
      "id": "id_c18r361cmmnwl0o97",
      "pitch": 56,
      "pitchName": "G#3",
      "frequencyHz": 207.652349,
      "startTick": 29520,
      "durationTicks": 160,
      "endTick": 29680,
      "startSeconds": 26.739,
      "durationSeconds": 0.145,
      "endSeconds": 26.884,
      "velocity": 0.8,
      "bendActive": false,
      "instrument": 1
    },
    {
      "id": "id_6dut05tmpmnwl0o97",
      "pitch": 32,
      "pitchName": "G#1",
      "frequencyHz": 51.913087,
      "startTick": 29760,
      "durationTicks": 240,
      "endTick": 30000,
      "startSeconds": 26.957,
      "durationSeconds": 0.217,
      "endSeconds": 27.174,
      "velocity": 0.5,
      "bendActive": false,
      "instrument": 0
    },
    {
      "id": "id_trv3dc2p0mnwl0o97",
      "pitch": 51,
      "pitchName": "D#3",
      "frequencyHz": 155.563492,
      "startTick": 29760,
      "durationTicks": 240,
      "endTick": 30000,
      "startSeconds": 26.957,
      "durationSeconds": 0.217,
      "endSeconds": 27.174,
      "velocity": 0.5,
      "bendActive": false,
      "instrument": 0
    },
    {
      "id": "id_rty400sz8mnwl0o97",
      "pitch": 56,
      "pitchName": "G#3",
      "frequencyHz": 207.652349,
      "startTick": 29760,
      "durationTicks": 160,
      "endTick": 29920,
      "startSeconds": 26.957,
      "durationSeconds": 0.145,
      "endSeconds": 27.101,
      "velocity": 0.5,
      "bendActive": false,
      "instrument": 1
    },
    {
      "id": "id_tduc7dew1mnwl0o97",
      "pitch": 32,
      "pitchName": "G#1",
      "frequencyHz": 51.913087,
      "startTick": 30000,
      "durationTicks": 240,
      "endTick": 30240,
      "startSeconds": 27.174,
      "durationSeconds": 0.217,
      "endSeconds": 27.391,
      "velocity": 0.6,
      "bendActive": false,
      "instrument": 0
    },
    {
      "id": "id_m2l4y3f4qmnwl0o97",
      "pitch": 51,
      "pitchName": "D#3",
      "frequencyHz": 155.563492,
      "startTick": 30000,
      "durationTicks": 240,
      "endTick": 30240,
      "startSeconds": 27.174,
      "durationSeconds": 0.217,
      "endSeconds": 27.391,
      "velocity": 0.6,
      "bendActive": false,
      "instrument": 0
    },
    {
      "id": "id_qelnhf1zumnwl0o97",
      "pitch": 56,
      "pitchName": "G#3",
      "frequencyHz": 207.652349,
      "startTick": 30000,
      "durationTicks": 160,
      "endTick": 30160,
      "startSeconds": 27.174,
      "durationSeconds": 0.145,
      "endSeconds": 27.319,
      "velocity": 0.6,
      "bendActive": false,
      "instrument": 1
    },
    {
      "id": "id_lmmqcvr9vmnwl0o97",
      "pitch": 32,
      "pitchName": "G#1",
      "frequencyHz": 51.913087,
      "startTick": 30240,
      "durationTicks": 240,
      "endTick": 30480,
      "startSeconds": 27.391,
      "durationSeconds": 0.217,
      "endSeconds": 27.609,
      "velocity": 0.8,
      "bendActive": false,
      "instrument": 0
    },
    {
      "id": "id_yx83hxmdlmnwl0o97",
      "pitch": 51,
      "pitchName": "D#3",
      "frequencyHz": 155.563492,
      "startTick": 30240,
      "durationTicks": 240,
      "endTick": 30480,
      "startSeconds": 27.391,
      "durationSeconds": 0.217,
      "endSeconds": 27.609,
      "velocity": 0.7,
      "bendActive": false,
      "instrument": 0
    },
    {
      "id": "id_n5j21unnbmnwl0o97",
      "pitch": 56,
      "pitchName": "G#3",
      "frequencyHz": 207.652349,
      "startTick": 30240,
      "durationTicks": 160,
      "endTick": 30400,
      "startSeconds": 27.391,
      "durationSeconds": 0.145,
      "endSeconds": 27.536,
      "velocity": 0.7,
      "bendActive": false,
      "instrument": 1
    },
    {
      "id": "id_5yrjp5mbumnwl0o97",
      "pitch": 32,
      "pitchName": "G#1",
      "frequencyHz": 51.913087,
      "startTick": 30480,
      "durationTicks": 240,
      "endTick": 30720,
      "startSeconds": 27.609,
      "durationSeconds": 0.217,
      "endSeconds": 27.826,
      "velocity": 0.45,
      "bendActive": false,
      "instrument": 0
    },
    {
      "id": "id_hev264s5jmnwl0o97",
      "pitch": 51,
      "pitchName": "D#3",
      "frequencyHz": 155.563492,
      "startTick": 30480,
      "durationTicks": 240,
      "endTick": 30720,
      "startSeconds": 27.609,
      "durationSeconds": 0.217,
      "endSeconds": 27.826,
      "velocity": 0.45,
      "bendActive": false,
      "instrument": 0
    },
    {
      "id": "id_o5pgfhbvamnwl0o97",
      "pitch": 56,
      "pitchName": "G#3",
      "frequencyHz": 207.652349,
      "startTick": 30480,
      "durationTicks": 160,
      "endTick": 30640,
      "startSeconds": 27.609,
      "durationSeconds": 0.145,
      "endSeconds": 27.754,
      "velocity": 0.45,
      "bendActive": false,
      "instrument": 1
    },
    {
      "id": "id_lpd987xxymnwl0o97",
      "pitch": 32,
      "pitchName": "G#1",
      "frequencyHz": 51.913087,
      "startTick": 30720,
      "durationTicks": 240,
      "endTick": 30960,
      "startSeconds": 27.826,
      "durationSeconds": 0.217,
      "endSeconds": 28.043,
      "velocity": 0.6,
      "bendActive": false,
      "instrument": 0
    },
    {
      "id": "id_bhh5vey5emnwl0o97",
      "pitch": 51,
      "pitchName": "D#3",
      "frequencyHz": 155.563492,
      "startTick": 30720,
      "durationTicks": 240,
      "endTick": 30960,
      "startSeconds": 27.826,
      "durationSeconds": 0.217,
      "endSeconds": 28.043,
      "velocity": 0.6,
      "bendActive": false,
      "instrument": 0
    },
    {
      "id": "id_qgg46tqjjmnwl0o97",
      "pitch": 56,
      "pitchName": "G#3",
      "frequencyHz": 207.652349,
      "startTick": 30720,
      "durationTicks": 160,
      "endTick": 30880,
      "startSeconds": 27.826,
      "durationSeconds": 0.145,
      "endSeconds": 27.971,
      "velocity": 0.6,
      "bendActive": false,
      "instrument": 1
    },
    {
      "id": "id_qer1krc33mnwl0o97",
      "pitch": 32,
      "pitchName": "G#1",
      "frequencyHz": 51.913087,
      "startTick": 30960,
      "durationTicks": 240,
      "endTick": 31200,
      "startSeconds": 28.043,
      "durationSeconds": 0.217,
      "endSeconds": 28.261,
      "velocity": 0.8,
      "bendActive": false,
      "instrument": 0
    },
    {
      "id": "id_6kl6hog20mnwl0o97",
      "pitch": 51,
      "pitchName": "D#3",
      "frequencyHz": 155.563492,
      "startTick": 30960,
      "durationTicks": 240,
      "endTick": 31200,
      "startSeconds": 28.043,
      "durationSeconds": 0.217,
      "endSeconds": 28.261,
      "velocity": 0.8,
      "bendActive": false,
      "instrument": 0
    },
    {
      "id": "id_1vln53z12mnwl0o97",
      "pitch": 56,
      "pitchName": "G#3",
      "frequencyHz": 207.652349,
      "startTick": 30960,
      "durationTicks": 160,
      "endTick": 31120,
      "startSeconds": 28.043,
      "durationSeconds": 0.145,
      "endSeconds": 28.188,
      "velocity": 0.8,
      "bendActive": false,
      "instrument": 1
    },
    {
      "id": "id_nky6kr52emnwl0o97",
      "pitch": 32,
      "pitchName": "G#1",
      "frequencyHz": 51.913087,
      "startTick": 31200,
      "durationTicks": 240,
      "endTick": 31440,
      "startSeconds": 28.261,
      "durationSeconds": 0.217,
      "endSeconds": 28.478,
      "velocity": 0.5,
      "bendActive": false,
      "instrument": 0
    },
    {
      "id": "id_t9c3fpug9mnwl0o97",
      "pitch": 51,
      "pitchName": "D#3",
      "frequencyHz": 155.563492,
      "startTick": 31200,
      "durationTicks": 240,
      "endTick": 31440,
      "startSeconds": 28.261,
      "durationSeconds": 0.217,
      "endSeconds": 28.478,
      "velocity": 0.5,
      "bendActive": false,
      "instrument": 0
    },
    {
      "id": "id_6he85lzpqmnwl0o97",
      "pitch": 56,
      "pitchName": "G#3",
      "frequencyHz": 207.652349,
      "startTick": 31200,
      "durationTicks": 160,
      "endTick": 31360,
      "startSeconds": 28.261,
      "durationSeconds": 0.145,
      "endSeconds": 28.406,
      "velocity": 0.5,
      "bendActive": false,
      "instrument": 1
    },
    {
      "id": "id_9t3gg5q8ymnwl0o97",
      "pitch": 32,
      "pitchName": "G#1",
      "frequencyHz": 51.913087,
      "startTick": 31440,
      "durationTicks": 240,
      "endTick": 31680,
      "startSeconds": 28.478,
      "durationSeconds": 0.217,
      "endSeconds": 28.696,
      "velocity": 0.6,
      "bendActive": false,
      "instrument": 0
    },
    {
      "id": "id_gt6ofwqx8mnwl0o97",
      "pitch": 51,
      "pitchName": "D#3",
      "frequencyHz": 155.563492,
      "startTick": 31440,
      "durationTicks": 240,
      "endTick": 31680,
      "startSeconds": 28.478,
      "durationSeconds": 0.217,
      "endSeconds": 28.696,
      "velocity": 0.6,
      "bendActive": false,
      "instrument": 0
    },
    {
      "id": "id_b8jo5wuakmnwl0o97",
      "pitch": 56,
      "pitchName": "G#3",
      "frequencyHz": 207.652349,
      "startTick": 31440,
      "durationTicks": 160,
      "endTick": 31600,
      "startSeconds": 28.478,
      "durationSeconds": 0.145,
      "endSeconds": 28.623,
      "velocity": 0.6,
      "bendActive": false,
      "instrument": 1
    },
    {
      "id": "id_747ojkv0vmnwl0o97",
      "pitch": 32,
      "pitchName": "G#1",
      "frequencyHz": 51.913087,
      "startTick": 31680,
      "durationTicks": 240,
      "endTick": 31920,
      "startSeconds": 28.696,
      "durationSeconds": 0.217,
      "endSeconds": 28.913,
      "velocity": 0.95,
      "bendActive": false,
      "instrument": 0
    },
    {
      "id": "id_y5modf0yimnwl0o97",
      "pitch": 51,
      "pitchName": "D#3",
      "frequencyHz": 155.563492,
      "startTick": 31680,
      "durationTicks": 240,
      "endTick": 31920,
      "startSeconds": 28.696,
      "durationSeconds": 0.217,
      "endSeconds": 28.913,
      "velocity": 0.7,
      "bendActive": false,
      "instrument": 0
    },
    {
      "id": "id_mk4eq6pfhmnwl0o97",
      "pitch": 56,
      "pitchName": "G#3",
      "frequencyHz": 207.652349,
      "startTick": 31680,
      "durationTicks": 160,
      "endTick": 31840,
      "startSeconds": 28.696,
      "durationSeconds": 0.145,
      "endSeconds": 28.841,
      "velocity": 0.7,
      "bendActive": false,
      "instrument": 1
    },
    {
      "id": "id_c8i19ce6tmnwl0o97",
      "pitch": 73,
      "pitchName": "C#5",
      "frequencyHz": 554.365262,
      "startTick": 31680,
      "durationTicks": 2880,
      "endTick": 34560,
      "startSeconds": 28.696,
      "durationSeconds": 2.609,
      "endSeconds": 31.304,
      "velocity": 0.25,
      "bendActive": true,
      "instrument": 1
    },
    {
      "id": "id_cp1mwynqwmnwl0o97",
      "pitch": 32,
      "pitchName": "G#1",
      "frequencyHz": 51.913087,
      "startTick": 31920,
      "durationTicks": 240,
      "endTick": 32160,
      "startSeconds": 28.913,
      "durationSeconds": 0.217,
      "endSeconds": 29.13,
      "velocity": 0.45,
      "bendActive": false,
      "instrument": 0
    },
    {
      "id": "id_806eecgkimnwl0o97",
      "pitch": 51,
      "pitchName": "D#3",
      "frequencyHz": 155.563492,
      "startTick": 31920,
      "durationTicks": 240,
      "endTick": 32160,
      "startSeconds": 28.913,
      "durationSeconds": 0.217,
      "endSeconds": 29.13,
      "velocity": 0.45,
      "bendActive": false,
      "instrument": 0
    },
    {
      "id": "id_hiwfkmvwqmnwl0o97",
      "pitch": 56,
      "pitchName": "G#3",
      "frequencyHz": 207.652349,
      "startTick": 31920,
      "durationTicks": 160,
      "endTick": 32080,
      "startSeconds": 28.913,
      "durationSeconds": 0.145,
      "endSeconds": 29.058,
      "velocity": 0.45,
      "bendActive": false,
      "instrument": 1
    },
    {
      "id": "id_9wrmp5vq8mnwl0o97",
      "pitch": 32,
      "pitchName": "G#1",
      "frequencyHz": 51.913087,
      "startTick": 32160,
      "durationTicks": 240,
      "endTick": 32400,
      "startSeconds": 29.13,
      "durationSeconds": 0.217,
      "endSeconds": 29.348,
      "velocity": 0.6,
      "bendActive": false,
      "instrument": 0
    },
    {
      "id": "id_mnqhbco5bmnwl0o97",
      "pitch": 51,
      "pitchName": "D#3",
      "frequencyHz": 155.563492,
      "startTick": 32160,
      "durationTicks": 240,
      "endTick": 32400,
      "startSeconds": 29.13,
      "durationSeconds": 0.217,
      "endSeconds": 29.348,
      "velocity": 0.6,
      "bendActive": false,
      "instrument": 0
    },
    {
      "id": "id_3acsgd2nfmnwl0o97",
      "pitch": 56,
      "pitchName": "G#3",
      "frequencyHz": 207.652349,
      "startTick": 32160,
      "durationTicks": 160,
      "endTick": 32320,
      "startSeconds": 29.13,
      "durationSeconds": 0.145,
      "endSeconds": 29.275,
      "velocity": 0.6,
      "bendActive": false,
      "instrument": 1
    },
    {
      "id": "id_67clxpya1mnwl0o97",
      "pitch": 32,
      "pitchName": "G#1",
      "frequencyHz": 51.913087,
      "startTick": 32400,
      "durationTicks": 240,
      "endTick": 32640,
      "startSeconds": 29.348,
      "durationSeconds": 0.217,
      "endSeconds": 29.565,
      "velocity": 0.8,
      "bendActive": false,
      "instrument": 0
    },
    {
      "id": "id_z0b0cp6htmnwl0o97",
      "pitch": 51,
      "pitchName": "D#3",
      "frequencyHz": 155.563492,
      "startTick": 32400,
      "durationTicks": 240,
      "endTick": 32640,
      "startSeconds": 29.348,
      "durationSeconds": 0.217,
      "endSeconds": 29.565,
      "velocity": 0.8,
      "bendActive": false,
      "instrument": 0
    },
    {
      "id": "id_b5tafssaomnwl0o97",
      "pitch": 56,
      "pitchName": "G#3",
      "frequencyHz": 207.652349,
      "startTick": 32400,
      "durationTicks": 160,
      "endTick": 32560,
      "startSeconds": 29.348,
      "durationSeconds": 0.145,
      "endSeconds": 29.493,
      "velocity": 0.8,
      "bendActive": false,
      "instrument": 1
    },
    {
      "id": "id_etdspzaqdmnwl0o97",
      "pitch": 32,
      "pitchName": "G#1",
      "frequencyHz": 51.913087,
      "startTick": 32640,
      "durationTicks": 240,
      "endTick": 32880,
      "startSeconds": 29.565,
      "durationSeconds": 0.217,
      "endSeconds": 29.783,
      "velocity": 0.5,
      "bendActive": false,
      "instrument": 0
    },
    {
      "id": "id_5wzbwo2c8mnwl0o97",
      "pitch": 51,
      "pitchName": "D#3",
      "frequencyHz": 155.563492,
      "startTick": 32640,
      "durationTicks": 240,
      "endTick": 32880,
      "startSeconds": 29.565,
      "durationSeconds": 0.217,
      "endSeconds": 29.783,
      "velocity": 0.5,
      "bendActive": false,
      "instrument": 0
    },
    {
      "id": "id_bmn3fgd4jmnwl0o97",
      "pitch": 56,
      "pitchName": "G#3",
      "frequencyHz": 207.652349,
      "startTick": 32640,
      "durationTicks": 160,
      "endTick": 32800,
      "startSeconds": 29.565,
      "durationSeconds": 0.145,
      "endSeconds": 29.71,
      "velocity": 0.5,
      "bendActive": false,
      "instrument": 1
    },
    {
      "id": "id_peeewgugemnwl0o97",
      "pitch": 32,
      "pitchName": "G#1",
      "frequencyHz": 51.913087,
      "startTick": 32880,
      "durationTicks": 240,
      "endTick": 33120,
      "startSeconds": 29.783,
      "durationSeconds": 0.217,
      "endSeconds": 30,
      "velocity": 0.6,
      "bendActive": false,
      "instrument": 0
    },
    {
      "id": "id_fa6i0g2t7mnwl0o97",
      "pitch": 51,
      "pitchName": "D#3",
      "frequencyHz": 155.563492,
      "startTick": 32880,
      "durationTicks": 240,
      "endTick": 33120,
      "startSeconds": 29.783,
      "durationSeconds": 0.217,
      "endSeconds": 30,
      "velocity": 0.6,
      "bendActive": false,
      "instrument": 0
    },
    {
      "id": "id_9pqtbcxnjmnwl0o97",
      "pitch": 56,
      "pitchName": "G#3",
      "frequencyHz": 207.652349,
      "startTick": 32880,
      "durationTicks": 160,
      "endTick": 33040,
      "startSeconds": 29.783,
      "durationSeconds": 0.145,
      "endSeconds": 29.928,
      "velocity": 0.6,
      "bendActive": false,
      "instrument": 1
    },
    {
      "id": "id_yqhp27g11mnwl0o97",
      "pitch": 32,
      "pitchName": "G#1",
      "frequencyHz": 51.913087,
      "startTick": 33120,
      "durationTicks": 240,
      "endTick": 33360,
      "startSeconds": 30,
      "durationSeconds": 0.217,
      "endSeconds": 30.217,
      "velocity": 0.8,
      "bendActive": false,
      "instrument": 0
    },
    {
      "id": "id_wzqx3fhxmmnwl0o97",
      "pitch": 51,
      "pitchName": "D#3",
      "frequencyHz": 155.563492,
      "startTick": 33120,
      "durationTicks": 240,
      "endTick": 33360,
      "startSeconds": 30,
      "durationSeconds": 0.217,
      "endSeconds": 30.217,
      "velocity": 0.7,
      "bendActive": false,
      "instrument": 0
    },
    {
      "id": "id_9yixlsnalmnwl0o97",
      "pitch": 56,
      "pitchName": "G#3",
      "frequencyHz": 207.652349,
      "startTick": 33120,
      "durationTicks": 160,
      "endTick": 33280,
      "startSeconds": 30,
      "durationSeconds": 0.145,
      "endSeconds": 30.145,
      "velocity": 0.7,
      "bendActive": false,
      "instrument": 1
    },
    {
      "id": "id_f6be5j1gzmnwl0o97",
      "pitch": 32,
      "pitchName": "G#1",
      "frequencyHz": 51.913087,
      "startTick": 33360,
      "durationTicks": 240,
      "endTick": 33600,
      "startSeconds": 30.217,
      "durationSeconds": 0.217,
      "endSeconds": 30.435,
      "velocity": 0.45,
      "bendActive": false,
      "instrument": 0
    },
    {
      "id": "id_wzcubzbncmnwl0o97",
      "pitch": 51,
      "pitchName": "D#3",
      "frequencyHz": 155.563492,
      "startTick": 33360,
      "durationTicks": 240,
      "endTick": 33600,
      "startSeconds": 30.217,
      "durationSeconds": 0.217,
      "endSeconds": 30.435,
      "velocity": 0.45,
      "bendActive": false,
      "instrument": 0
    },
    {
      "id": "id_mpjiukhbsmnwl0o97",
      "pitch": 56,
      "pitchName": "G#3",
      "frequencyHz": 207.652349,
      "startTick": 33360,
      "durationTicks": 160,
      "endTick": 33520,
      "startSeconds": 30.217,
      "durationSeconds": 0.145,
      "endSeconds": 30.362,
      "velocity": 0.45,
      "bendActive": false,
      "instrument": 1
    },
    {
      "id": "id_gj8uje6tgmnwl0o97",
      "pitch": 32,
      "pitchName": "G#1",
      "frequencyHz": 51.913087,
      "startTick": 33600,
      "durationTicks": 240,
      "endTick": 33840,
      "startSeconds": 30.435,
      "durationSeconds": 0.217,
      "endSeconds": 30.652,
      "velocity": 0.6,
      "bendActive": false,
      "instrument": 0
    },
    {
      "id": "id_wagp7ydxamnwl0o97",
      "pitch": 51,
      "pitchName": "D#3",
      "frequencyHz": 155.563492,
      "startTick": 33600,
      "durationTicks": 240,
      "endTick": 33840,
      "startSeconds": 30.435,
      "durationSeconds": 0.217,
      "endSeconds": 30.652,
      "velocity": 0.6,
      "bendActive": false,
      "instrument": 0
    },
    {
      "id": "id_j3v5wjj97mnwl0o97",
      "pitch": 56,
      "pitchName": "G#3",
      "frequencyHz": 207.652349,
      "startTick": 33600,
      "durationTicks": 160,
      "endTick": 33760,
      "startSeconds": 30.435,
      "durationSeconds": 0.145,
      "endSeconds": 30.58,
      "velocity": 0.6,
      "bendActive": false,
      "instrument": 1
    },
    {
      "id": "id_vhucb565bmnwl0o97",
      "pitch": 32,
      "pitchName": "G#1",
      "frequencyHz": 51.913087,
      "startTick": 33840,
      "durationTicks": 240,
      "endTick": 34080,
      "startSeconds": 30.652,
      "durationSeconds": 0.217,
      "endSeconds": 30.87,
      "velocity": 0.8,
      "bendActive": false,
      "instrument": 0
    },
    {
      "id": "id_fmtuqh78wmnwl0o97",
      "pitch": 51,
      "pitchName": "D#3",
      "frequencyHz": 155.563492,
      "startTick": 33840,
      "durationTicks": 240,
      "endTick": 34080,
      "startSeconds": 30.652,
      "durationSeconds": 0.217,
      "endSeconds": 30.87,
      "velocity": 0.8,
      "bendActive": false,
      "instrument": 0
    },
    {
      "id": "id_gnv4vu1nzmnwl0o97",
      "pitch": 56,
      "pitchName": "G#3",
      "frequencyHz": 207.652349,
      "startTick": 33840,
      "durationTicks": 160,
      "endTick": 34000,
      "startSeconds": 30.652,
      "durationSeconds": 0.145,
      "endSeconds": 30.797,
      "velocity": 0.8,
      "bendActive": false,
      "instrument": 1
    },
    {
      "id": "id_01qhcu1r3mnwl0o97",
      "pitch": 32,
      "pitchName": "G#1",
      "frequencyHz": 51.913087,
      "startTick": 34080,
      "durationTicks": 240,
      "endTick": 34320,
      "startSeconds": 30.87,
      "durationSeconds": 0.217,
      "endSeconds": 31.087,
      "velocity": 0.5,
      "bendActive": false,
      "instrument": 0
    },
    {
      "id": "id_eciqu97fgmnwl0o97",
      "pitch": 51,
      "pitchName": "D#3",
      "frequencyHz": 155.563492,
      "startTick": 34080,
      "durationTicks": 240,
      "endTick": 34320,
      "startSeconds": 30.87,
      "durationSeconds": 0.217,
      "endSeconds": 31.087,
      "velocity": 0.5,
      "bendActive": false,
      "instrument": 0
    },
    {
      "id": "id_xrc368lcamnwl0o97",
      "pitch": 56,
      "pitchName": "G#3",
      "frequencyHz": 207.652349,
      "startTick": 34080,
      "durationTicks": 160,
      "endTick": 34240,
      "startSeconds": 30.87,
      "durationSeconds": 0.145,
      "endSeconds": 31.014,
      "velocity": 0.5,
      "bendActive": false,
      "instrument": 1
    },
    {
      "id": "id_c90ntaw79mnwl0o97",
      "pitch": 32,
      "pitchName": "G#1",
      "frequencyHz": 51.913087,
      "startTick": 34320,
      "durationTicks": 240,
      "endTick": 34560,
      "startSeconds": 31.087,
      "durationSeconds": 0.217,
      "endSeconds": 31.304,
      "velocity": 0.6,
      "bendActive": false,
      "instrument": 0
    },
    {
      "id": "id_9z2k1fb7pmnwl0o97",
      "pitch": 51,
      "pitchName": "D#3",
      "frequencyHz": 155.563492,
      "startTick": 34320,
      "durationTicks": 240,
      "endTick": 34560,
      "startSeconds": 31.087,
      "durationSeconds": 0.217,
      "endSeconds": 31.304,
      "velocity": 0.6,
      "bendActive": false,
      "instrument": 0
    },
    {
      "id": "id_e2clmxiibmnwl0o97",
      "pitch": 56,
      "pitchName": "G#3",
      "frequencyHz": 207.652349,
      "startTick": 34320,
      "durationTicks": 160,
      "endTick": 34480,
      "startSeconds": 31.087,
      "durationSeconds": 0.145,
      "endSeconds": 31.232,
      "velocity": 0.6,
      "bendActive": false,
      "instrument": 1
    },
    {
      "id": "id_8279d8j6dmnwl0o97",
      "pitch": 25,
      "pitchName": "C#1",
      "frequencyHz": 34.647829,
      "startTick": 34560,
      "durationTicks": 240,
      "endTick": 34800,
      "startSeconds": 31.304,
      "durationSeconds": 0.217,
      "endSeconds": 31.522,
      "velocity": 0.95,
      "bendActive": false,
      "instrument": 0
    },
    {
      "id": "id_jx99zqsremnwl0o97",
      "pitch": 44,
      "pitchName": "G#2",
      "frequencyHz": 103.826174,
      "startTick": 34560,
      "durationTicks": 240,
      "endTick": 34800,
      "startSeconds": 31.304,
      "durationSeconds": 0.217,
      "endSeconds": 31.522,
      "velocity": 0.7,
      "bendActive": false,
      "instrument": 0
    },
    {
      "id": "id_l27y17i23mnwl0o97",
      "pitch": 56,
      "pitchName": "G#3",
      "frequencyHz": 207.652349,
      "startTick": 34560,
      "durationTicks": 160,
      "endTick": 34720,
      "startSeconds": 31.304,
      "durationSeconds": 0.145,
      "endSeconds": 31.449,
      "velocity": 0.7,
      "bendActive": false,
      "instrument": 1
    },
    {
      "id": "id_j6pebnc9dmnwl0o97",
      "pitch": 25,
      "pitchName": "C#1",
      "frequencyHz": 34.647829,
      "startTick": 34800,
      "durationTicks": 240,
      "endTick": 35040,
      "startSeconds": 31.522,
      "durationSeconds": 0.217,
      "endSeconds": 31.739,
      "velocity": 0.45,
      "bendActive": false,
      "instrument": 0
    },
    {
      "id": "id_a09vds4g7mnwl0o97",
      "pitch": 44,
      "pitchName": "G#2",
      "frequencyHz": 103.826174,
      "startTick": 34800,
      "durationTicks": 240,
      "endTick": 35040,
      "startSeconds": 31.522,
      "durationSeconds": 0.217,
      "endSeconds": 31.739,
      "velocity": 0.45,
      "bendActive": false,
      "instrument": 0
    },
    {
      "id": "id_3z1cpewc3mnwl0o97",
      "pitch": 56,
      "pitchName": "G#3",
      "frequencyHz": 207.652349,
      "startTick": 34800,
      "durationTicks": 160,
      "endTick": 34960,
      "startSeconds": 31.522,
      "durationSeconds": 0.145,
      "endSeconds": 31.667,
      "velocity": 0.45,
      "bendActive": false,
      "instrument": 1
    },
    {
      "id": "id_udjaneubcmnwl0o97",
      "pitch": 25,
      "pitchName": "C#1",
      "frequencyHz": 34.647829,
      "startTick": 35040,
      "durationTicks": 240,
      "endTick": 35280,
      "startSeconds": 31.739,
      "durationSeconds": 0.217,
      "endSeconds": 31.957,
      "velocity": 0.6,
      "bendActive": false,
      "instrument": 0
    },
    {
      "id": "id_wyr8lb45zmnwl0o97",
      "pitch": 44,
      "pitchName": "G#2",
      "frequencyHz": 103.826174,
      "startTick": 35040,
      "durationTicks": 240,
      "endTick": 35280,
      "startSeconds": 31.739,
      "durationSeconds": 0.217,
      "endSeconds": 31.957,
      "velocity": 0.6,
      "bendActive": false,
      "instrument": 0
    },
    {
      "id": "id_bzeec4dx7mnwl0o97",
      "pitch": 56,
      "pitchName": "G#3",
      "frequencyHz": 207.652349,
      "startTick": 35040,
      "durationTicks": 160,
      "endTick": 35200,
      "startSeconds": 31.739,
      "durationSeconds": 0.145,
      "endSeconds": 31.884,
      "velocity": 0.6,
      "bendActive": false,
      "instrument": 1
    },
    {
      "id": "id_dt03296u2mnwl0o97",
      "pitch": 25,
      "pitchName": "C#1",
      "frequencyHz": 34.647829,
      "startTick": 35280,
      "durationTicks": 240,
      "endTick": 35520,
      "startSeconds": 31.957,
      "durationSeconds": 0.217,
      "endSeconds": 32.174,
      "velocity": 0.8,
      "bendActive": false,
      "instrument": 0
    },
    {
      "id": "id_5jrwjs021mnwl0o97",
      "pitch": 44,
      "pitchName": "G#2",
      "frequencyHz": 103.826174,
      "startTick": 35280,
      "durationTicks": 240,
      "endTick": 35520,
      "startSeconds": 31.957,
      "durationSeconds": 0.217,
      "endSeconds": 32.174,
      "velocity": 0.8,
      "bendActive": false,
      "instrument": 0
    },
    {
      "id": "id_017asy8gomnwl0o97",
      "pitch": 56,
      "pitchName": "G#3",
      "frequencyHz": 207.652349,
      "startTick": 35280,
      "durationTicks": 160,
      "endTick": 35440,
      "startSeconds": 31.957,
      "durationSeconds": 0.145,
      "endSeconds": 32.101,
      "velocity": 0.8,
      "bendActive": false,
      "instrument": 1
    },
    {
      "id": "id_euzywrqfbmnwl0o97",
      "pitch": 25,
      "pitchName": "C#1",
      "frequencyHz": 34.647829,
      "startTick": 35520,
      "durationTicks": 240,
      "endTick": 35760,
      "startSeconds": 32.174,
      "durationSeconds": 0.217,
      "endSeconds": 32.391,
      "velocity": 0.5,
      "bendActive": false,
      "instrument": 0
    },
    {
      "id": "id_k29dkpt71mnwl0o97",
      "pitch": 44,
      "pitchName": "G#2",
      "frequencyHz": 103.826174,
      "startTick": 35520,
      "durationTicks": 240,
      "endTick": 35760,
      "startSeconds": 32.174,
      "durationSeconds": 0.217,
      "endSeconds": 32.391,
      "velocity": 0.5,
      "bendActive": false,
      "instrument": 0
    },
    {
      "id": "id_gyjp7oswemnwl0o97",
      "pitch": 56,
      "pitchName": "G#3",
      "frequencyHz": 207.652349,
      "startTick": 35520,
      "durationTicks": 160,
      "endTick": 35680,
      "startSeconds": 32.174,
      "durationSeconds": 0.145,
      "endSeconds": 32.319,
      "velocity": 0.5,
      "bendActive": false,
      "instrument": 1
    },
    {
      "id": "id_oxuzbe98wmnwl0o97",
      "pitch": 25,
      "pitchName": "C#1",
      "frequencyHz": 34.647829,
      "startTick": 35760,
      "durationTicks": 240,
      "endTick": 36000,
      "startSeconds": 32.391,
      "durationSeconds": 0.217,
      "endSeconds": 32.609,
      "velocity": 0.6,
      "bendActive": false,
      "instrument": 0
    },
    {
      "id": "id_vsw7udfoqmnwl0o97",
      "pitch": 44,
      "pitchName": "G#2",
      "frequencyHz": 103.826174,
      "startTick": 35760,
      "durationTicks": 240,
      "endTick": 36000,
      "startSeconds": 32.391,
      "durationSeconds": 0.217,
      "endSeconds": 32.609,
      "velocity": 0.6,
      "bendActive": false,
      "instrument": 0
    },
    {
      "id": "id_4lzjshak5mnwl0o97",
      "pitch": 56,
      "pitchName": "G#3",
      "frequencyHz": 207.652349,
      "startTick": 35760,
      "durationTicks": 160,
      "endTick": 35920,
      "startSeconds": 32.391,
      "durationSeconds": 0.145,
      "endSeconds": 32.536,
      "velocity": 0.6,
      "bendActive": false,
      "instrument": 1
    },
    {
      "id": "id_bgtu2tzvumnwl0o97",
      "pitch": 25,
      "pitchName": "C#1",
      "frequencyHz": 34.647829,
      "startTick": 36000,
      "durationTicks": 240,
      "endTick": 36240,
      "startSeconds": 32.609,
      "durationSeconds": 0.217,
      "endSeconds": 32.826,
      "velocity": 0.8,
      "bendActive": false,
      "instrument": 0
    },
    {
      "id": "id_u5cr80ajlmnwl0o97",
      "pitch": 44,
      "pitchName": "G#2",
      "frequencyHz": 103.826174,
      "startTick": 36000,
      "durationTicks": 240,
      "endTick": 36240,
      "startSeconds": 32.609,
      "durationSeconds": 0.217,
      "endSeconds": 32.826,
      "velocity": 0.7,
      "bendActive": false,
      "instrument": 0
    },
    {
      "id": "id_m262oedi7mnwl0o97",
      "pitch": 56,
      "pitchName": "G#3",
      "frequencyHz": 207.652349,
      "startTick": 36000,
      "durationTicks": 160,
      "endTick": 36160,
      "startSeconds": 32.609,
      "durationSeconds": 0.145,
      "endSeconds": 32.754,
      "velocity": 0.7,
      "bendActive": false,
      "instrument": 1
    },
    {
      "id": "id_zn6czyfktmnwl0o97",
      "pitch": 71,
      "pitchName": "B4",
      "frequencyHz": 493.883301,
      "startTick": 36000,
      "durationTicks": 480,
      "endTick": 36480,
      "startSeconds": 32.609,
      "durationSeconds": 0.435,
      "endSeconds": 33.043,
      "velocity": 0.25,
      "bendActive": true,
      "instrument": 1
    },
    {
      "id": "id_kodo8ufy2mnwl0o97",
      "pitch": 25,
      "pitchName": "C#1",
      "frequencyHz": 34.647829,
      "startTick": 36240,
      "durationTicks": 240,
      "endTick": 36480,
      "startSeconds": 32.826,
      "durationSeconds": 0.217,
      "endSeconds": 33.043,
      "velocity": 0.45,
      "bendActive": false,
      "instrument": 0
    },
    {
      "id": "id_yd89ml5ibmnwl0o97",
      "pitch": 44,
      "pitchName": "G#2",
      "frequencyHz": 103.826174,
      "startTick": 36240,
      "durationTicks": 240,
      "endTick": 36480,
      "startSeconds": 32.826,
      "durationSeconds": 0.217,
      "endSeconds": 33.043,
      "velocity": 0.45,
      "bendActive": false,
      "instrument": 0
    },
    {
      "id": "id_37yvuqstxmnwl0o97",
      "pitch": 56,
      "pitchName": "G#3",
      "frequencyHz": 207.652349,
      "startTick": 36240,
      "durationTicks": 160,
      "endTick": 36400,
      "startSeconds": 32.826,
      "durationSeconds": 0.145,
      "endSeconds": 32.971,
      "velocity": 0.45,
      "bendActive": false,
      "instrument": 1
    },
    {
      "id": "id_cs8fx2qwjmnwl0o97",
      "pitch": 25,
      "pitchName": "C#1",
      "frequencyHz": 34.647829,
      "startTick": 36480,
      "durationTicks": 240,
      "endTick": 36720,
      "startSeconds": 33.043,
      "durationSeconds": 0.217,
      "endSeconds": 33.261,
      "velocity": 0.6,
      "bendActive": false,
      "instrument": 0
    },
    {
      "id": "id_5vl305g2kmnwl0o97",
      "pitch": 44,
      "pitchName": "G#2",
      "frequencyHz": 103.826174,
      "startTick": 36480,
      "durationTicks": 240,
      "endTick": 36720,
      "startSeconds": 33.043,
      "durationSeconds": 0.217,
      "endSeconds": 33.261,
      "velocity": 0.6,
      "bendActive": false,
      "instrument": 0
    },
    {
      "id": "id_wuayehkxtmnwl0o97",
      "pitch": 56,
      "pitchName": "G#3",
      "frequencyHz": 207.652349,
      "startTick": 36480,
      "durationTicks": 160,
      "endTick": 36640,
      "startSeconds": 33.043,
      "durationSeconds": 0.145,
      "endSeconds": 33.188,
      "velocity": 0.6,
      "bendActive": false,
      "instrument": 1
    },
    {
      "id": "id_2h81gj7n0mnwl0o97",
      "pitch": 70,
      "pitchName": "A#4",
      "frequencyHz": 466.163762,
      "startTick": 36480,
      "durationTicks": 480,
      "endTick": 36960,
      "startSeconds": 33.043,
      "durationSeconds": 0.435,
      "endSeconds": 33.478,
      "velocity": 0.25,
      "bendActive": true,
      "instrument": 1
    },
    {
      "id": "id_jo65h4128mnwl0o97",
      "pitch": 25,
      "pitchName": "C#1",
      "frequencyHz": 34.647829,
      "startTick": 36720,
      "durationTicks": 240,
      "endTick": 36960,
      "startSeconds": 33.261,
      "durationSeconds": 0.217,
      "endSeconds": 33.478,
      "velocity": 0.8,
      "bendActive": false,
      "instrument": 0
    },
    {
      "id": "id_z97e4sjpcmnwl0o97",
      "pitch": 44,
      "pitchName": "G#2",
      "frequencyHz": 103.826174,
      "startTick": 36720,
      "durationTicks": 240,
      "endTick": 36960,
      "startSeconds": 33.261,
      "durationSeconds": 0.217,
      "endSeconds": 33.478,
      "velocity": 0.8,
      "bendActive": false,
      "instrument": 0
    },
    {
      "id": "id_b8np4k0rlmnwl0o97",
      "pitch": 56,
      "pitchName": "G#3",
      "frequencyHz": 207.652349,
      "startTick": 36720,
      "durationTicks": 160,
      "endTick": 36880,
      "startSeconds": 33.261,
      "durationSeconds": 0.145,
      "endSeconds": 33.406,
      "velocity": 0.8,
      "bendActive": false,
      "instrument": 1
    },
    {
      "id": "id_5domkpd7gmnwl0o97",
      "pitch": 25,
      "pitchName": "C#1",
      "frequencyHz": 34.647829,
      "startTick": 36960,
      "durationTicks": 240,
      "endTick": 37200,
      "startSeconds": 33.478,
      "durationSeconds": 0.217,
      "endSeconds": 33.696,
      "velocity": 0.5,
      "bendActive": false,
      "instrument": 0
    },
    {
      "id": "id_5aso6g7p5mnwl0o97",
      "pitch": 44,
      "pitchName": "G#2",
      "frequencyHz": 103.826174,
      "startTick": 36960,
      "durationTicks": 240,
      "endTick": 37200,
      "startSeconds": 33.478,
      "durationSeconds": 0.217,
      "endSeconds": 33.696,
      "velocity": 0.5,
      "bendActive": false,
      "instrument": 0
    },
    {
      "id": "id_qofy1y1xemnwl0o97",
      "pitch": 56,
      "pitchName": "G#3",
      "frequencyHz": 207.652349,
      "startTick": 36960,
      "durationTicks": 160,
      "endTick": 37120,
      "startSeconds": 33.478,
      "durationSeconds": 0.145,
      "endSeconds": 33.623,
      "velocity": 0.5,
      "bendActive": false,
      "instrument": 1
    },
    {
      "id": "id_2gdwpcnmdmnwl0o97",
      "pitch": 66,
      "pitchName": "F#4",
      "frequencyHz": 369.994423,
      "startTick": 36960,
      "durationTicks": 480,
      "endTick": 37440,
      "startSeconds": 33.478,
      "durationSeconds": 0.435,
      "endSeconds": 33.913,
      "velocity": 0.25,
      "bendActive": true,
      "instrument": 1
    },
    {
      "id": "id_wprc8461gmnwl0o97",
      "pitch": 25,
      "pitchName": "C#1",
      "frequencyHz": 34.647829,
      "startTick": 37200,
      "durationTicks": 240,
      "endTick": 37440,
      "startSeconds": 33.696,
      "durationSeconds": 0.217,
      "endSeconds": 33.913,
      "velocity": 0.6,
      "bendActive": false,
      "instrument": 0
    },
    {
      "id": "id_q19nb2wtxmnwl0o97",
      "pitch": 44,
      "pitchName": "G#2",
      "frequencyHz": 103.826174,
      "startTick": 37200,
      "durationTicks": 240,
      "endTick": 37440,
      "startSeconds": 33.696,
      "durationSeconds": 0.217,
      "endSeconds": 33.913,
      "velocity": 0.6,
      "bendActive": false,
      "instrument": 0
    },
    {
      "id": "id_8y52ti4k8mnwl0o97",
      "pitch": 56,
      "pitchName": "G#3",
      "frequencyHz": 207.652349,
      "startTick": 37200,
      "durationTicks": 160,
      "endTick": 37360,
      "startSeconds": 33.696,
      "durationSeconds": 0.145,
      "endSeconds": 33.841,
      "velocity": 0.6,
      "bendActive": false,
      "instrument": 1
    },
    {
      "id": "id_jkcp5zznemnwl0o97",
      "pitch": 27,
      "pitchName": "D#1",
      "frequencyHz": 38.890873,
      "startTick": 37440,
      "durationTicks": 240,
      "endTick": 37680,
      "startSeconds": 33.913,
      "durationSeconds": 0.217,
      "endSeconds": 34.13,
      "velocity": 0.95,
      "bendActive": false,
      "instrument": 0
    },
    {
      "id": "id_3nr68g4bsmnwl0o97",
      "pitch": 46,
      "pitchName": "A#2",
      "frequencyHz": 116.54094,
      "startTick": 37440,
      "durationTicks": 240,
      "endTick": 37680,
      "startSeconds": 33.913,
      "durationSeconds": 0.217,
      "endSeconds": 34.13,
      "velocity": 0.7,
      "bendActive": false,
      "instrument": 0
    },
    {
      "id": "id_0llyvpreymnwl0o97",
      "pitch": 54,
      "pitchName": "F#3",
      "frequencyHz": 184.997211,
      "startTick": 37440,
      "durationTicks": 160,
      "endTick": 37600,
      "startSeconds": 33.913,
      "durationSeconds": 0.145,
      "endSeconds": 34.058,
      "velocity": 0.7,
      "bendActive": false,
      "instrument": 1
    },
    {
      "id": "id_h55gzvcynmnwl0o97",
      "pitch": 61,
      "pitchName": "C#4",
      "frequencyHz": 277.182631,
      "startTick": 37440,
      "durationTicks": 480,
      "endTick": 37920,
      "startSeconds": 33.913,
      "durationSeconds": 0.435,
      "endSeconds": 34.348,
      "velocity": 0.3,
      "bendActive": true,
      "instrument": 1
    },
    {
      "id": "id_ylznst37fmnwl0o97",
      "pitch": 27,
      "pitchName": "D#1",
      "frequencyHz": 38.890873,
      "startTick": 37680,
      "durationTicks": 240,
      "endTick": 37920,
      "startSeconds": 34.13,
      "durationSeconds": 0.217,
      "endSeconds": 34.348,
      "velocity": 0.45,
      "bendActive": false,
      "instrument": 0
    },
    {
      "id": "id_99s2xbo3jmnwl0o97",
      "pitch": 46,
      "pitchName": "A#2",
      "frequencyHz": 116.54094,
      "startTick": 37680,
      "durationTicks": 240,
      "endTick": 37920,
      "startSeconds": 34.13,
      "durationSeconds": 0.217,
      "endSeconds": 34.348,
      "velocity": 0.45,
      "bendActive": false,
      "instrument": 0
    },
    {
      "id": "id_jjpfh3vr3mnwl0o97",
      "pitch": 54,
      "pitchName": "F#3",
      "frequencyHz": 184.997211,
      "startTick": 37680,
      "durationTicks": 160,
      "endTick": 37840,
      "startSeconds": 34.13,
      "durationSeconds": 0.145,
      "endSeconds": 34.275,
      "velocity": 0.45,
      "bendActive": false,
      "instrument": 1
    },
    {
      "id": "id_hda3ca9z3mnwl0o97",
      "pitch": 27,
      "pitchName": "D#1",
      "frequencyHz": 38.890873,
      "startTick": 37920,
      "durationTicks": 240,
      "endTick": 38160,
      "startSeconds": 34.348,
      "durationSeconds": 0.217,
      "endSeconds": 34.565,
      "velocity": 0.6,
      "bendActive": false,
      "instrument": 0
    },
    {
      "id": "id_b3bs158b7mnwl0o97",
      "pitch": 46,
      "pitchName": "A#2",
      "frequencyHz": 116.54094,
      "startTick": 37920,
      "durationTicks": 240,
      "endTick": 38160,
      "startSeconds": 34.348,
      "durationSeconds": 0.217,
      "endSeconds": 34.565,
      "velocity": 0.6,
      "bendActive": false,
      "instrument": 0
    },
    {
      "id": "id_zemmbujdomnwl0o97",
      "pitch": 54,
      "pitchName": "F#3",
      "frequencyHz": 184.997211,
      "startTick": 37920,
      "durationTicks": 160,
      "endTick": 38080,
      "startSeconds": 34.348,
      "durationSeconds": 0.145,
      "endSeconds": 34.493,
      "velocity": 0.6,
      "bendActive": false,
      "instrument": 1
    },
    {
      "id": "id_wx10u3mkxmnwl0o97",
      "pitch": 27,
      "pitchName": "D#1",
      "frequencyHz": 38.890873,
      "startTick": 38160,
      "durationTicks": 240,
      "endTick": 38400,
      "startSeconds": 34.565,
      "durationSeconds": 0.217,
      "endSeconds": 34.783,
      "velocity": 0.8,
      "bendActive": false,
      "instrument": 0
    },
    {
      "id": "id_fhde0yhq7mnwl0o97",
      "pitch": 46,
      "pitchName": "A#2",
      "frequencyHz": 116.54094,
      "startTick": 38160,
      "durationTicks": 240,
      "endTick": 38400,
      "startSeconds": 34.565,
      "durationSeconds": 0.217,
      "endSeconds": 34.783,
      "velocity": 0.8,
      "bendActive": false,
      "instrument": 0
    },
    {
      "id": "id_8oyiqs5hhmnwl0o97",
      "pitch": 54,
      "pitchName": "F#3",
      "frequencyHz": 184.997211,
      "startTick": 38160,
      "durationTicks": 160,
      "endTick": 38320,
      "startSeconds": 34.565,
      "durationSeconds": 0.145,
      "endSeconds": 34.71,
      "velocity": 0.8,
      "bendActive": false,
      "instrument": 1
    },
    {
      "id": "id_vht6b6o7amnwl0o97",
      "pitch": 27,
      "pitchName": "D#1",
      "frequencyHz": 38.890873,
      "startTick": 38400,
      "durationTicks": 240,
      "endTick": 38640,
      "startSeconds": 34.783,
      "durationSeconds": 0.217,
      "endSeconds": 35,
      "velocity": 0.5,
      "bendActive": false,
      "instrument": 0
    },
    {
      "id": "id_ytsidww4vmnwl0o97",
      "pitch": 46,
      "pitchName": "A#2",
      "frequencyHz": 116.54094,
      "startTick": 38400,
      "durationTicks": 240,
      "endTick": 38640,
      "startSeconds": 34.783,
      "durationSeconds": 0.217,
      "endSeconds": 35,
      "velocity": 0.5,
      "bendActive": false,
      "instrument": 0
    },
    {
      "id": "id_rzpl27hcvmnwl0o97",
      "pitch": 54,
      "pitchName": "F#3",
      "frequencyHz": 184.997211,
      "startTick": 38400,
      "durationTicks": 160,
      "endTick": 38560,
      "startSeconds": 34.783,
      "durationSeconds": 0.145,
      "endSeconds": 34.928,
      "velocity": 0.5,
      "bendActive": false,
      "instrument": 1
    },
    {
      "id": "id_8bbp0bazmmnwl0o97",
      "pitch": 27,
      "pitchName": "D#1",
      "frequencyHz": 38.890873,
      "startTick": 38640,
      "durationTicks": 240,
      "endTick": 38880,
      "startSeconds": 35,
      "durationSeconds": 0.217,
      "endSeconds": 35.217,
      "velocity": 0.6,
      "bendActive": false,
      "instrument": 0
    },
    {
      "id": "id_snv4f8s93mnwl0o97",
      "pitch": 46,
      "pitchName": "A#2",
      "frequencyHz": 116.54094,
      "startTick": 38640,
      "durationTicks": 240,
      "endTick": 38880,
      "startSeconds": 35,
      "durationSeconds": 0.217,
      "endSeconds": 35.217,
      "velocity": 0.6,
      "bendActive": false,
      "instrument": 0
    },
    {
      "id": "id_ac5ctt9kvmnwl0o97",
      "pitch": 54,
      "pitchName": "F#3",
      "frequencyHz": 184.997211,
      "startTick": 38640,
      "durationTicks": 160,
      "endTick": 38800,
      "startSeconds": 35,
      "durationSeconds": 0.145,
      "endSeconds": 35.145,
      "velocity": 0.6,
      "bendActive": false,
      "instrument": 1
    },
    {
      "id": "id_5bq5vt335mnwl0o97",
      "pitch": 27,
      "pitchName": "D#1",
      "frequencyHz": 38.890873,
      "startTick": 38880,
      "durationTicks": 240,
      "endTick": 39120,
      "startSeconds": 35.217,
      "durationSeconds": 0.217,
      "endSeconds": 35.435,
      "velocity": 0.8,
      "bendActive": false,
      "instrument": 0
    },
    {
      "id": "id_9apvcii9qmnwl0o97",
      "pitch": 46,
      "pitchName": "A#2",
      "frequencyHz": 116.54094,
      "startTick": 38880,
      "durationTicks": 240,
      "endTick": 39120,
      "startSeconds": 35.217,
      "durationSeconds": 0.217,
      "endSeconds": 35.435,
      "velocity": 0.7,
      "bendActive": false,
      "instrument": 0
    },
    {
      "id": "id_jqritxlhtmnwl0o97",
      "pitch": 54,
      "pitchName": "F#3",
      "frequencyHz": 184.997211,
      "startTick": 38880,
      "durationTicks": 160,
      "endTick": 39040,
      "startSeconds": 35.217,
      "durationSeconds": 0.145,
      "endSeconds": 35.362,
      "velocity": 0.7,
      "bendActive": false,
      "instrument": 1
    },
    {
      "id": "id_pr3t264qymnwl0o97",
      "pitch": 70,
      "pitchName": "A#4",
      "frequencyHz": 466.163762,
      "startTick": 38880,
      "durationTicks": 480,
      "endTick": 39360,
      "startSeconds": 35.217,
      "durationSeconds": 0.435,
      "endSeconds": 35.652,
      "velocity": 0.25,
      "bendActive": true,
      "instrument": 1
    },
    {
      "id": "id_bs2fax3drmnwl0o97",
      "pitch": 27,
      "pitchName": "D#1",
      "frequencyHz": 38.890873,
      "startTick": 39120,
      "durationTicks": 240,
      "endTick": 39360,
      "startSeconds": 35.435,
      "durationSeconds": 0.217,
      "endSeconds": 35.652,
      "velocity": 0.45,
      "bendActive": false,
      "instrument": 0
    },
    {
      "id": "id_dpy9obzz1mnwl0o97",
      "pitch": 46,
      "pitchName": "A#2",
      "frequencyHz": 116.54094,
      "startTick": 39120,
      "durationTicks": 240,
      "endTick": 39360,
      "startSeconds": 35.435,
      "durationSeconds": 0.217,
      "endSeconds": 35.652,
      "velocity": 0.45,
      "bendActive": false,
      "instrument": 0
    },
    {
      "id": "id_viwwix405mnwl0o97",
      "pitch": 54,
      "pitchName": "F#3",
      "frequencyHz": 184.997211,
      "startTick": 39120,
      "durationTicks": 160,
      "endTick": 39280,
      "startSeconds": 35.435,
      "durationSeconds": 0.145,
      "endSeconds": 35.58,
      "velocity": 0.45,
      "bendActive": false,
      "instrument": 1
    },
    {
      "id": "id_1xktqr8hqmnwl0o97",
      "pitch": 27,
      "pitchName": "D#1",
      "frequencyHz": 38.890873,
      "startTick": 39360,
      "durationTicks": 240,
      "endTick": 39600,
      "startSeconds": 35.652,
      "durationSeconds": 0.217,
      "endSeconds": 35.87,
      "velocity": 0.6,
      "bendActive": false,
      "instrument": 0
    },
    {
      "id": "id_vetf340ammnwl0o97",
      "pitch": 46,
      "pitchName": "A#2",
      "frequencyHz": 116.54094,
      "startTick": 39360,
      "durationTicks": 240,
      "endTick": 39600,
      "startSeconds": 35.652,
      "durationSeconds": 0.217,
      "endSeconds": 35.87,
      "velocity": 0.6,
      "bendActive": false,
      "instrument": 0
    },
    {
      "id": "id_264nydelymnwl0o97",
      "pitch": 54,
      "pitchName": "F#3",
      "frequencyHz": 184.997211,
      "startTick": 39360,
      "durationTicks": 160,
      "endTick": 39520,
      "startSeconds": 35.652,
      "durationSeconds": 0.145,
      "endSeconds": 35.797,
      "velocity": 0.6,
      "bendActive": false,
      "instrument": 1
    },
    {
      "id": "id_xoxmffvxymnwl0o97",
      "pitch": 68,
      "pitchName": "G#4",
      "frequencyHz": 415.304698,
      "startTick": 39360,
      "durationTicks": 480,
      "endTick": 39840,
      "startSeconds": 35.652,
      "durationSeconds": 0.435,
      "endSeconds": 36.087,
      "velocity": 0.35,
      "bendActive": true,
      "instrument": 1
    },
    {
      "id": "id_38ynlifk0mnwl0o97",
      "pitch": 27,
      "pitchName": "D#1",
      "frequencyHz": 38.890873,
      "startTick": 39600,
      "durationTicks": 240,
      "endTick": 39840,
      "startSeconds": 35.87,
      "durationSeconds": 0.217,
      "endSeconds": 36.087,
      "velocity": 0.8,
      "bendActive": false,
      "instrument": 0
    },
    {
      "id": "id_njehyyxqdmnwl0o97",
      "pitch": 46,
      "pitchName": "A#2",
      "frequencyHz": 116.54094,
      "startTick": 39600,
      "durationTicks": 240,
      "endTick": 39840,
      "startSeconds": 35.87,
      "durationSeconds": 0.217,
      "endSeconds": 36.087,
      "velocity": 0.8,
      "bendActive": false,
      "instrument": 0
    },
    {
      "id": "id_31sa6lu0imnwl0o97",
      "pitch": 54,
      "pitchName": "F#3",
      "frequencyHz": 184.997211,
      "startTick": 39600,
      "durationTicks": 160,
      "endTick": 39760,
      "startSeconds": 35.87,
      "durationSeconds": 0.145,
      "endSeconds": 36.014,
      "velocity": 0.8,
      "bendActive": false,
      "instrument": 1
    },
    {
      "id": "id_fa7h1o30pmnwl0o97",
      "pitch": 27,
      "pitchName": "D#1",
      "frequencyHz": 38.890873,
      "startTick": 39840,
      "durationTicks": 240,
      "endTick": 40080,
      "startSeconds": 36.087,
      "durationSeconds": 0.217,
      "endSeconds": 36.304,
      "velocity": 0.5,
      "bendActive": false,
      "instrument": 0
    },
    {
      "id": "id_yfgxe9xu3mnwl0o97",
      "pitch": 46,
      "pitchName": "A#2",
      "frequencyHz": 116.54094,
      "startTick": 39840,
      "durationTicks": 240,
      "endTick": 40080,
      "startSeconds": 36.087,
      "durationSeconds": 0.217,
      "endSeconds": 36.304,
      "velocity": 0.5,
      "bendActive": false,
      "instrument": 0
    },
    {
      "id": "id_o4f5xb1otmnwl0o97",
      "pitch": 54,
      "pitchName": "F#3",
      "frequencyHz": 184.997211,
      "startTick": 39840,
      "durationTicks": 160,
      "endTick": 40000,
      "startSeconds": 36.087,
      "durationSeconds": 0.145,
      "endSeconds": 36.232,
      "velocity": 0.5,
      "bendActive": false,
      "instrument": 1
    },
    {
      "id": "id_wvradamf9mnwl0o97",
      "pitch": 59,
      "pitchName": "B3",
      "frequencyHz": 246.941651,
      "startTick": 39840,
      "durationTicks": 1920,
      "endTick": 41760,
      "startSeconds": 36.087,
      "durationSeconds": 1.739,
      "endSeconds": 37.826,
      "velocity": 0.25,
      "bendActive": true,
      "instrument": 1
    },
    {
      "id": "id_pcn7qbgvwmnwl0o97",
      "pitch": 27,
      "pitchName": "D#1",
      "frequencyHz": 38.890873,
      "startTick": 40080,
      "durationTicks": 240,
      "endTick": 40320,
      "startSeconds": 36.304,
      "durationSeconds": 0.217,
      "endSeconds": 36.522,
      "velocity": 0.6,
      "bendActive": false,
      "instrument": 0
    },
    {
      "id": "id_nxxaq3kjgmnwl0o97",
      "pitch": 46,
      "pitchName": "A#2",
      "frequencyHz": 116.54094,
      "startTick": 40080,
      "durationTicks": 240,
      "endTick": 40320,
      "startSeconds": 36.304,
      "durationSeconds": 0.217,
      "endSeconds": 36.522,
      "velocity": 0.6,
      "bendActive": false,
      "instrument": 0
    },
    {
      "id": "id_0qqymuh9gmnwl0o97",
      "pitch": 54,
      "pitchName": "F#3",
      "frequencyHz": 184.997211,
      "startTick": 40080,
      "durationTicks": 160,
      "endTick": 40240,
      "startSeconds": 36.304,
      "durationSeconds": 0.145,
      "endSeconds": 36.449,
      "velocity": 0.6,
      "bendActive": false,
      "instrument": 1
    },
    {
      "id": "id_na7k4z2zimnwl0o97",
      "pitch": 32,
      "pitchName": "G#1",
      "frequencyHz": 51.913087,
      "startTick": 40320,
      "durationTicks": 240,
      "endTick": 40560,
      "startSeconds": 36.522,
      "durationSeconds": 0.217,
      "endSeconds": 36.739,
      "velocity": 0.95,
      "bendActive": false,
      "instrument": 0
    },
    {
      "id": "id_xe652z0kcmnwl0o97",
      "pitch": 51,
      "pitchName": "D#3",
      "frequencyHz": 155.563492,
      "startTick": 40320,
      "durationTicks": 240,
      "endTick": 40560,
      "startSeconds": 36.522,
      "durationSeconds": 0.217,
      "endSeconds": 36.739,
      "velocity": 0.7,
      "bendActive": false,
      "instrument": 0
    },
    {
      "id": "id_tgkjk77vfmnwl0o97",
      "pitch": 56,
      "pitchName": "G#3",
      "frequencyHz": 207.652349,
      "startTick": 40320,
      "durationTicks": 160,
      "endTick": 40480,
      "startSeconds": 36.522,
      "durationSeconds": 0.145,
      "endSeconds": 36.667,
      "velocity": 0.7,
      "bendActive": false,
      "instrument": 1
    },
    {
      "id": "id_ca6l35u0bmnwl0o97",
      "pitch": 32,
      "pitchName": "G#1",
      "frequencyHz": 51.913087,
      "startTick": 40560,
      "durationTicks": 240,
      "endTick": 40800,
      "startSeconds": 36.739,
      "durationSeconds": 0.217,
      "endSeconds": 36.957,
      "velocity": 0.45,
      "bendActive": false,
      "instrument": 0
    },
    {
      "id": "id_ltqs0ktkxmnwl0o97",
      "pitch": 51,
      "pitchName": "D#3",
      "frequencyHz": 155.563492,
      "startTick": 40560,
      "durationTicks": 240,
      "endTick": 40800,
      "startSeconds": 36.739,
      "durationSeconds": 0.217,
      "endSeconds": 36.957,
      "velocity": 0.45,
      "bendActive": false,
      "instrument": 0
    },
    {
      "id": "id_em7b6znb1mnwl0o97",
      "pitch": 56,
      "pitchName": "G#3",
      "frequencyHz": 207.652349,
      "startTick": 40560,
      "durationTicks": 160,
      "endTick": 40720,
      "startSeconds": 36.739,
      "durationSeconds": 0.145,
      "endSeconds": 36.884,
      "velocity": 0.45,
      "bendActive": false,
      "instrument": 1
    },
    {
      "id": "id_l23qeaq2zmnwl0o97",
      "pitch": 32,
      "pitchName": "G#1",
      "frequencyHz": 51.913087,
      "startTick": 40800,
      "durationTicks": 240,
      "endTick": 41040,
      "startSeconds": 36.957,
      "durationSeconds": 0.217,
      "endSeconds": 37.174,
      "velocity": 0.6,
      "bendActive": false,
      "instrument": 0
    },
    {
      "id": "id_q3uvtql8mmnwl0o97",
      "pitch": 51,
      "pitchName": "D#3",
      "frequencyHz": 155.563492,
      "startTick": 40800,
      "durationTicks": 240,
      "endTick": 41040,
      "startSeconds": 36.957,
      "durationSeconds": 0.217,
      "endSeconds": 37.174,
      "velocity": 0.6,
      "bendActive": false,
      "instrument": 0
    },
    {
      "id": "id_vv0we1ogbmnwl0o97",
      "pitch": 56,
      "pitchName": "G#3",
      "frequencyHz": 207.652349,
      "startTick": 40800,
      "durationTicks": 160,
      "endTick": 40960,
      "startSeconds": 36.957,
      "durationSeconds": 0.145,
      "endSeconds": 37.101,
      "velocity": 0.6,
      "bendActive": false,
      "instrument": 1
    },
    {
      "id": "id_ekqhsjctrmnwl0o97",
      "pitch": 32,
      "pitchName": "G#1",
      "frequencyHz": 51.913087,
      "startTick": 41040,
      "durationTicks": 240,
      "endTick": 41280,
      "startSeconds": 37.174,
      "durationSeconds": 0.217,
      "endSeconds": 37.391,
      "velocity": 0.8,
      "bendActive": false,
      "instrument": 0
    },
    {
      "id": "id_1fpswiqbimnwl0o97",
      "pitch": 51,
      "pitchName": "D#3",
      "frequencyHz": 155.563492,
      "startTick": 41040,
      "durationTicks": 240,
      "endTick": 41280,
      "startSeconds": 37.174,
      "durationSeconds": 0.217,
      "endSeconds": 37.391,
      "velocity": 0.8,
      "bendActive": false,
      "instrument": 0
    },
    {
      "id": "id_h32pproe7mnwl0o97",
      "pitch": 56,
      "pitchName": "G#3",
      "frequencyHz": 207.652349,
      "startTick": 41040,
      "durationTicks": 160,
      "endTick": 41200,
      "startSeconds": 37.174,
      "durationSeconds": 0.145,
      "endSeconds": 37.319,
      "velocity": 0.8,
      "bendActive": false,
      "instrument": 1
    },
    {
      "id": "id_oizyjneajmnwl0o97",
      "pitch": 32,
      "pitchName": "G#1",
      "frequencyHz": 51.913087,
      "startTick": 41280,
      "durationTicks": 240,
      "endTick": 41520,
      "startSeconds": 37.391,
      "durationSeconds": 0.217,
      "endSeconds": 37.609,
      "velocity": 0.5,
      "bendActive": false,
      "instrument": 0
    },
    {
      "id": "id_unqvb27bymnwl0o97",
      "pitch": 51,
      "pitchName": "D#3",
      "frequencyHz": 155.563492,
      "startTick": 41280,
      "durationTicks": 240,
      "endTick": 41520,
      "startSeconds": 37.391,
      "durationSeconds": 0.217,
      "endSeconds": 37.609,
      "velocity": 0.5,
      "bendActive": false,
      "instrument": 0
    },
    {
      "id": "id_tw1utu9iomnwl0o97",
      "pitch": 56,
      "pitchName": "G#3",
      "frequencyHz": 207.652349,
      "startTick": 41280,
      "durationTicks": 160,
      "endTick": 41440,
      "startSeconds": 37.391,
      "durationSeconds": 0.145,
      "endSeconds": 37.536,
      "velocity": 0.5,
      "bendActive": false,
      "instrument": 1
    },
    {
      "id": "id_oewk9caanmnwl0o97",
      "pitch": 32,
      "pitchName": "G#1",
      "frequencyHz": 51.913087,
      "startTick": 41520,
      "durationTicks": 240,
      "endTick": 41760,
      "startSeconds": 37.609,
      "durationSeconds": 0.217,
      "endSeconds": 37.826,
      "velocity": 0.6,
      "bendActive": false,
      "instrument": 0
    },
    {
      "id": "id_9r89w0brfmnwl0o97",
      "pitch": 51,
      "pitchName": "D#3",
      "frequencyHz": 155.563492,
      "startTick": 41520,
      "durationTicks": 240,
      "endTick": 41760,
      "startSeconds": 37.609,
      "durationSeconds": 0.217,
      "endSeconds": 37.826,
      "velocity": 0.6,
      "bendActive": false,
      "instrument": 0
    },
    {
      "id": "id_j7tmui4ovmnwl0o97",
      "pitch": 56,
      "pitchName": "G#3",
      "frequencyHz": 207.652349,
      "startTick": 41520,
      "durationTicks": 160,
      "endTick": 41680,
      "startSeconds": 37.609,
      "durationSeconds": 0.145,
      "endSeconds": 37.754,
      "velocity": 0.6,
      "bendActive": false,
      "instrument": 1
    },
    {
      "id": "id_gabavb6w3mnwl0o97",
      "pitch": 32,
      "pitchName": "G#1",
      "frequencyHz": 51.913087,
      "startTick": 41760,
      "durationTicks": 240,
      "endTick": 42000,
      "startSeconds": 37.826,
      "durationSeconds": 0.217,
      "endSeconds": 38.043,
      "velocity": 0.8,
      "bendActive": false,
      "instrument": 0
    },
    {
      "id": "id_r27c8woxnmnwl0o97",
      "pitch": 51,
      "pitchName": "D#3",
      "frequencyHz": 155.563492,
      "startTick": 41760,
      "durationTicks": 240,
      "endTick": 42000,
      "startSeconds": 37.826,
      "durationSeconds": 0.217,
      "endSeconds": 38.043,
      "velocity": 0.7,
      "bendActive": false,
      "instrument": 0
    },
    {
      "id": "id_lzh4uy821mnwl0o97",
      "pitch": 56,
      "pitchName": "G#3",
      "frequencyHz": 207.652349,
      "startTick": 41760,
      "durationTicks": 160,
      "endTick": 41920,
      "startSeconds": 37.826,
      "durationSeconds": 0.145,
      "endSeconds": 37.971,
      "velocity": 0.7,
      "bendActive": false,
      "instrument": 1
    },
    {
      "id": "id_5xw8cg6bzmnwl0o97",
      "pitch": 32,
      "pitchName": "G#1",
      "frequencyHz": 51.913087,
      "startTick": 42000,
      "durationTicks": 240,
      "endTick": 42240,
      "startSeconds": 38.043,
      "durationSeconds": 0.217,
      "endSeconds": 38.261,
      "velocity": 0.45,
      "bendActive": false,
      "instrument": 0
    },
    {
      "id": "id_x4zsr954dmnwl0o97",
      "pitch": 51,
      "pitchName": "D#3",
      "frequencyHz": 155.563492,
      "startTick": 42000,
      "durationTicks": 240,
      "endTick": 42240,
      "startSeconds": 38.043,
      "durationSeconds": 0.217,
      "endSeconds": 38.261,
      "velocity": 0.45,
      "bendActive": false,
      "instrument": 0
    },
    {
      "id": "id_cz7sm8n6amnwl0o97",
      "pitch": 56,
      "pitchName": "G#3",
      "frequencyHz": 207.652349,
      "startTick": 42000,
      "durationTicks": 160,
      "endTick": 42160,
      "startSeconds": 38.043,
      "durationSeconds": 0.145,
      "endSeconds": 38.188,
      "velocity": 0.45,
      "bendActive": false,
      "instrument": 1
    },
    {
      "id": "id_jcimccsyymnwl0o97",
      "pitch": 32,
      "pitchName": "G#1",
      "frequencyHz": 51.913087,
      "startTick": 42240,
      "durationTicks": 240,
      "endTick": 42480,
      "startSeconds": 38.261,
      "durationSeconds": 0.217,
      "endSeconds": 38.478,
      "velocity": 0.6,
      "bendActive": false,
      "instrument": 0
    },
    {
      "id": "id_38130wsv9mnwl0o97",
      "pitch": 51,
      "pitchName": "D#3",
      "frequencyHz": 155.563492,
      "startTick": 42240,
      "durationTicks": 240,
      "endTick": 42480,
      "startSeconds": 38.261,
      "durationSeconds": 0.217,
      "endSeconds": 38.478,
      "velocity": 0.6,
      "bendActive": false,
      "instrument": 0
    },
    {
      "id": "id_vv1r72ahomnwl0o97",
      "pitch": 56,
      "pitchName": "G#3",
      "frequencyHz": 207.652349,
      "startTick": 42240,
      "durationTicks": 160,
      "endTick": 42400,
      "startSeconds": 38.261,
      "durationSeconds": 0.145,
      "endSeconds": 38.406,
      "velocity": 0.6,
      "bendActive": false,
      "instrument": 1
    },
    {
      "id": "id_hf4hzt8tzmnwl0o97",
      "pitch": 32,
      "pitchName": "G#1",
      "frequencyHz": 51.913087,
      "startTick": 42480,
      "durationTicks": 240,
      "endTick": 42720,
      "startSeconds": 38.478,
      "durationSeconds": 0.217,
      "endSeconds": 38.696,
      "velocity": 0.8,
      "bendActive": false,
      "instrument": 0
    },
    {
      "id": "id_va41mf7fnmnwl0o97",
      "pitch": 51,
      "pitchName": "D#3",
      "frequencyHz": 155.563492,
      "startTick": 42480,
      "durationTicks": 240,
      "endTick": 42720,
      "startSeconds": 38.478,
      "durationSeconds": 0.217,
      "endSeconds": 38.696,
      "velocity": 0.8,
      "bendActive": false,
      "instrument": 0
    },
    {
      "id": "id_ltf4izsywmnwl0o97",
      "pitch": 56,
      "pitchName": "G#3",
      "frequencyHz": 207.652349,
      "startTick": 42480,
      "durationTicks": 160,
      "endTick": 42640,
      "startSeconds": 38.478,
      "durationSeconds": 0.145,
      "endSeconds": 38.623,
      "velocity": 0.8,
      "bendActive": false,
      "instrument": 1
    },
    {
      "id": "id_l48zjvsm9mnwl0o97",
      "pitch": 32,
      "pitchName": "G#1",
      "frequencyHz": 51.913087,
      "startTick": 42720,
      "durationTicks": 240,
      "endTick": 42960,
      "startSeconds": 38.696,
      "durationSeconds": 0.217,
      "endSeconds": 38.913,
      "velocity": 0.5,
      "bendActive": false,
      "instrument": 0
    },
    {
      "id": "id_jg788of60mnwl0o97",
      "pitch": 51,
      "pitchName": "D#3",
      "frequencyHz": 155.563492,
      "startTick": 42720,
      "durationTicks": 240,
      "endTick": 42960,
      "startSeconds": 38.696,
      "durationSeconds": 0.217,
      "endSeconds": 38.913,
      "velocity": 0.5,
      "bendActive": false,
      "instrument": 0
    },
    {
      "id": "id_j29x2afcpmnwl0o97",
      "pitch": 56,
      "pitchName": "G#3",
      "frequencyHz": 207.652349,
      "startTick": 42720,
      "durationTicks": 160,
      "endTick": 42880,
      "startSeconds": 38.696,
      "durationSeconds": 0.145,
      "endSeconds": 38.841,
      "velocity": 0.5,
      "bendActive": false,
      "instrument": 1
    },
    {
      "id": "id_029swnbkomnwl0o97",
      "pitch": 32,
      "pitchName": "G#1",
      "frequencyHz": 51.913087,
      "startTick": 42960,
      "durationTicks": 240,
      "endTick": 43200,
      "startSeconds": 38.913,
      "durationSeconds": 0.217,
      "endSeconds": 39.13,
      "velocity": 0.6,
      "bendActive": false,
      "instrument": 0
    },
    {
      "id": "id_qlc643yo6mnwl0o97",
      "pitch": 51,
      "pitchName": "D#3",
      "frequencyHz": 155.563492,
      "startTick": 42960,
      "durationTicks": 240,
      "endTick": 43200,
      "startSeconds": 38.913,
      "durationSeconds": 0.217,
      "endSeconds": 39.13,
      "velocity": 0.6,
      "bendActive": false,
      "instrument": 0
    },
    {
      "id": "id_yvgde3zstmnwl0o97",
      "pitch": 56,
      "pitchName": "G#3",
      "frequencyHz": 207.652349,
      "startTick": 42960,
      "durationTicks": 160,
      "endTick": 43120,
      "startSeconds": 38.913,
      "durationSeconds": 0.145,
      "endSeconds": 39.058,
      "velocity": 0.6,
      "bendActive": false,
      "instrument": 1
    },
    {
      "id": "id_bvn94b1fcmnwl0o97",
      "pitch": 28,
      "pitchName": "E1",
      "frequencyHz": 41.203445,
      "startTick": 43200,
      "durationTicks": 240,
      "endTick": 43440,
      "startSeconds": 39.13,
      "durationSeconds": 0.217,
      "endSeconds": 39.348,
      "velocity": 0.95,
      "bendActive": false,
      "instrument": 0
    },
    {
      "id": "id_nbnckvqpcmnwl0o97",
      "pitch": 47,
      "pitchName": "B2",
      "frequencyHz": 123.470825,
      "startTick": 43200,
      "durationTicks": 240,
      "endTick": 43440,
      "startSeconds": 39.13,
      "durationSeconds": 0.217,
      "endSeconds": 39.348,
      "velocity": 0.7,
      "bendActive": false,
      "instrument": 0
    },
    {
      "id": "id_52o7gf71tmnwl0o97",
      "pitch": 54,
      "pitchName": "F#3",
      "frequencyHz": 184.997211,
      "startTick": 43200,
      "durationTicks": 160,
      "endTick": 43360,
      "startSeconds": 39.13,
      "durationSeconds": 0.145,
      "endSeconds": 39.275,
      "velocity": 0.7,
      "bendActive": false,
      "instrument": 1
    },
    {
      "id": "id_t48cyu2gsmnwl0o97",
      "pitch": 28,
      "pitchName": "E1",
      "frequencyHz": 41.203445,
      "startTick": 43440,
      "durationTicks": 240,
      "endTick": 43680,
      "startSeconds": 39.348,
      "durationSeconds": 0.217,
      "endSeconds": 39.565,
      "velocity": 0.45,
      "bendActive": false,
      "instrument": 0
    },
    {
      "id": "id_l1e5f1uqwmnwl0o97",
      "pitch": 47,
      "pitchName": "B2",
      "frequencyHz": 123.470825,
      "startTick": 43440,
      "durationTicks": 240,
      "endTick": 43680,
      "startSeconds": 39.348,
      "durationSeconds": 0.217,
      "endSeconds": 39.565,
      "velocity": 0.45,
      "bendActive": false,
      "instrument": 0
    },
    {
      "id": "id_jv249ygfemnwl0o97",
      "pitch": 54,
      "pitchName": "F#3",
      "frequencyHz": 184.997211,
      "startTick": 43440,
      "durationTicks": 160,
      "endTick": 43600,
      "startSeconds": 39.348,
      "durationSeconds": 0.145,
      "endSeconds": 39.493,
      "velocity": 0.45,
      "bendActive": false,
      "instrument": 1
    },
    {
      "id": "id_o99bco70emnwl0o97",
      "pitch": 28,
      "pitchName": "E1",
      "frequencyHz": 41.203445,
      "startTick": 43680,
      "durationTicks": 240,
      "endTick": 43920,
      "startSeconds": 39.565,
      "durationSeconds": 0.217,
      "endSeconds": 39.783,
      "velocity": 0.6,
      "bendActive": false,
      "instrument": 0
    },
    {
      "id": "id_nncujv71emnwl0o97",
      "pitch": 47,
      "pitchName": "B2",
      "frequencyHz": 123.470825,
      "startTick": 43680,
      "durationTicks": 240,
      "endTick": 43920,
      "startSeconds": 39.565,
      "durationSeconds": 0.217,
      "endSeconds": 39.783,
      "velocity": 0.6,
      "bendActive": false,
      "instrument": 0
    },
    {
      "id": "id_6b17plrtcmnwl0o97",
      "pitch": 54,
      "pitchName": "F#3",
      "frequencyHz": 184.997211,
      "startTick": 43680,
      "durationTicks": 160,
      "endTick": 43840,
      "startSeconds": 39.565,
      "durationSeconds": 0.145,
      "endSeconds": 39.71,
      "velocity": 0.6,
      "bendActive": false,
      "instrument": 1
    },
    {
      "id": "id_809zd810wmnwl0o97",
      "pitch": 28,
      "pitchName": "E1",
      "frequencyHz": 41.203445,
      "startTick": 43920,
      "durationTicks": 240,
      "endTick": 44160,
      "startSeconds": 39.783,
      "durationSeconds": 0.217,
      "endSeconds": 40,
      "velocity": 0.8,
      "bendActive": false,
      "instrument": 0
    },
    {
      "id": "id_05qes8u34mnwl0o97",
      "pitch": 47,
      "pitchName": "B2",
      "frequencyHz": 123.470825,
      "startTick": 43920,
      "durationTicks": 240,
      "endTick": 44160,
      "startSeconds": 39.783,
      "durationSeconds": 0.217,
      "endSeconds": 40,
      "velocity": 0.8,
      "bendActive": false,
      "instrument": 0
    },
    {
      "id": "id_njvo6zv6dmnwl0o97",
      "pitch": 54,
      "pitchName": "F#3",
      "frequencyHz": 184.997211,
      "startTick": 43920,
      "durationTicks": 160,
      "endTick": 44080,
      "startSeconds": 39.783,
      "durationSeconds": 0.145,
      "endSeconds": 39.928,
      "velocity": 0.8,
      "bendActive": false,
      "instrument": 1
    },
    {
      "id": "id_rctu2wvv6mnwl0o97",
      "pitch": 28,
      "pitchName": "E1",
      "frequencyHz": 41.203445,
      "startTick": 44160,
      "durationTicks": 240,
      "endTick": 44400,
      "startSeconds": 40,
      "durationSeconds": 0.217,
      "endSeconds": 40.217,
      "velocity": 0.5,
      "bendActive": false,
      "instrument": 0
    },
    {
      "id": "id_cl7wj6d2vmnwl0o97",
      "pitch": 47,
      "pitchName": "B2",
      "frequencyHz": 123.470825,
      "startTick": 44160,
      "durationTicks": 240,
      "endTick": 44400,
      "startSeconds": 40,
      "durationSeconds": 0.217,
      "endSeconds": 40.217,
      "velocity": 0.5,
      "bendActive": false,
      "instrument": 0
    },
    {
      "id": "id_bhqaa0y2mmnwl0o97",
      "pitch": 54,
      "pitchName": "F#3",
      "frequencyHz": 184.997211,
      "startTick": 44160,
      "durationTicks": 160,
      "endTick": 44320,
      "startSeconds": 40,
      "durationSeconds": 0.145,
      "endSeconds": 40.145,
      "velocity": 0.5,
      "bendActive": false,
      "instrument": 1
    },
    {
      "id": "id_vh5ecn2j5mnwl0o97",
      "pitch": 28,
      "pitchName": "E1",
      "frequencyHz": 41.203445,
      "startTick": 44400,
      "durationTicks": 240,
      "endTick": 44640,
      "startSeconds": 40.217,
      "durationSeconds": 0.217,
      "endSeconds": 40.435,
      "velocity": 0.6,
      "bendActive": false,
      "instrument": 0
    },
    {
      "id": "id_xn3v6myqmmnwl0o97",
      "pitch": 47,
      "pitchName": "B2",
      "frequencyHz": 123.470825,
      "startTick": 44400,
      "durationTicks": 240,
      "endTick": 44640,
      "startSeconds": 40.217,
      "durationSeconds": 0.217,
      "endSeconds": 40.435,
      "velocity": 0.6,
      "bendActive": false,
      "instrument": 0
    },
    {
      "id": "id_w87vzfu38mnwl0o97",
      "pitch": 54,
      "pitchName": "F#3",
      "frequencyHz": 184.997211,
      "startTick": 44400,
      "durationTicks": 160,
      "endTick": 44560,
      "startSeconds": 40.217,
      "durationSeconds": 0.145,
      "endSeconds": 40.362,
      "velocity": 0.6,
      "bendActive": false,
      "instrument": 1
    },
    {
      "id": "id_3l4ikoolxmnwl0o97",
      "pitch": 30,
      "pitchName": "F#1",
      "frequencyHz": 46.249303,
      "startTick": 44640,
      "durationTicks": 240,
      "endTick": 44880,
      "startSeconds": 40.435,
      "durationSeconds": 0.217,
      "endSeconds": 40.652,
      "velocity": 0.95,
      "bendActive": false,
      "instrument": 0
    },
    {
      "id": "id_yu14wus55mnwl0o97",
      "pitch": 49,
      "pitchName": "C#3",
      "frequencyHz": 138.591315,
      "startTick": 44640,
      "durationTicks": 240,
      "endTick": 44880,
      "startSeconds": 40.435,
      "durationSeconds": 0.217,
      "endSeconds": 40.652,
      "velocity": 0.7,
      "bendActive": false,
      "instrument": 0
    },
    {
      "id": "id_3gpijmiplmnwl0o97",
      "pitch": 54,
      "pitchName": "F#3",
      "frequencyHz": 184.997211,
      "startTick": 44640,
      "durationTicks": 160,
      "endTick": 44800,
      "startSeconds": 40.435,
      "durationSeconds": 0.145,
      "endSeconds": 40.58,
      "velocity": 0.7,
      "bendActive": false,
      "instrument": 1
    },
    {
      "id": "id_j1gcxf2lumnwl0o97",
      "pitch": 30,
      "pitchName": "F#1",
      "frequencyHz": 46.249303,
      "startTick": 44880,
      "durationTicks": 240,
      "endTick": 45120,
      "startSeconds": 40.652,
      "durationSeconds": 0.217,
      "endSeconds": 40.87,
      "velocity": 0.45,
      "bendActive": false,
      "instrument": 0
    },
    {
      "id": "id_jvadzcwsimnwl0o97",
      "pitch": 49,
      "pitchName": "C#3",
      "frequencyHz": 138.591315,
      "startTick": 44880,
      "durationTicks": 240,
      "endTick": 45120,
      "startSeconds": 40.652,
      "durationSeconds": 0.217,
      "endSeconds": 40.87,
      "velocity": 0.45,
      "bendActive": false,
      "instrument": 0
    },
    {
      "id": "id_ltyfrry5xmnwl0o97",
      "pitch": 54,
      "pitchName": "F#3",
      "frequencyHz": 184.997211,
      "startTick": 44880,
      "durationTicks": 160,
      "endTick": 45040,
      "startSeconds": 40.652,
      "durationSeconds": 0.145,
      "endSeconds": 40.797,
      "velocity": 0.45,
      "bendActive": false,
      "instrument": 1
    },
    {
      "id": "id_09n13sbb2mnwl0o97",
      "pitch": 30,
      "pitchName": "F#1",
      "frequencyHz": 46.249303,
      "startTick": 45120,
      "durationTicks": 240,
      "endTick": 45360,
      "startSeconds": 40.87,
      "durationSeconds": 0.217,
      "endSeconds": 41.087,
      "velocity": 0.6,
      "bendActive": false,
      "instrument": 0
    },
    {
      "id": "id_12kr9ih9lmnwl0o97",
      "pitch": 49,
      "pitchName": "C#3",
      "frequencyHz": 138.591315,
      "startTick": 45120,
      "durationTicks": 240,
      "endTick": 45360,
      "startSeconds": 40.87,
      "durationSeconds": 0.217,
      "endSeconds": 41.087,
      "velocity": 0.6,
      "bendActive": false,
      "instrument": 0
    },
    {
      "id": "id_7ceo20zgymnwl0o97",
      "pitch": 54,
      "pitchName": "F#3",
      "frequencyHz": 184.997211,
      "startTick": 45120,
      "durationTicks": 160,
      "endTick": 45280,
      "startSeconds": 40.87,
      "durationSeconds": 0.145,
      "endSeconds": 41.014,
      "velocity": 0.6,
      "bendActive": false,
      "instrument": 1
    },
    {
      "id": "id_h81myxn9gmnwl0o97",
      "pitch": 30,
      "pitchName": "F#1",
      "frequencyHz": 46.249303,
      "startTick": 45360,
      "durationTicks": 240,
      "endTick": 45600,
      "startSeconds": 41.087,
      "durationSeconds": 0.217,
      "endSeconds": 41.304,
      "velocity": 0.8,
      "bendActive": false,
      "instrument": 0
    },
    {
      "id": "id_kojcpn1hrmnwl0o97",
      "pitch": 49,
      "pitchName": "C#3",
      "frequencyHz": 138.591315,
      "startTick": 45360,
      "durationTicks": 240,
      "endTick": 45600,
      "startSeconds": 41.087,
      "durationSeconds": 0.217,
      "endSeconds": 41.304,
      "velocity": 0.8,
      "bendActive": false,
      "instrument": 0
    },
    {
      "id": "id_ln6uv772nmnwl0o97",
      "pitch": 54,
      "pitchName": "F#3",
      "frequencyHz": 184.997211,
      "startTick": 45360,
      "durationTicks": 160,
      "endTick": 45520,
      "startSeconds": 41.087,
      "durationSeconds": 0.145,
      "endSeconds": 41.232,
      "velocity": 0.8,
      "bendActive": false,
      "instrument": 1
    },
    {
      "id": "id_2sinqty52mnwl0o97",
      "pitch": 30,
      "pitchName": "F#1",
      "frequencyHz": 46.249303,
      "startTick": 45600,
      "durationTicks": 240,
      "endTick": 45840,
      "startSeconds": 41.304,
      "durationSeconds": 0.217,
      "endSeconds": 41.522,
      "velocity": 0.5,
      "bendActive": false,
      "instrument": 0
    },
    {
      "id": "id_4agkgg4jamnwl0o97",
      "pitch": 49,
      "pitchName": "C#3",
      "frequencyHz": 138.591315,
      "startTick": 45600,
      "durationTicks": 240,
      "endTick": 45840,
      "startSeconds": 41.304,
      "durationSeconds": 0.217,
      "endSeconds": 41.522,
      "velocity": 0.5,
      "bendActive": false,
      "instrument": 0
    },
    {
      "id": "id_kpgzru6rhmnwl0o97",
      "pitch": 54,
      "pitchName": "F#3",
      "frequencyHz": 184.997211,
      "startTick": 45600,
      "durationTicks": 160,
      "endTick": 45760,
      "startSeconds": 41.304,
      "durationSeconds": 0.145,
      "endSeconds": 41.449,
      "velocity": 0.5,
      "bendActive": false,
      "instrument": 1
    },
    {
      "id": "id_6vci01m1bmnwl0o97",
      "pitch": 30,
      "pitchName": "F#1",
      "frequencyHz": 46.249303,
      "startTick": 45840,
      "durationTicks": 240,
      "endTick": 46080,
      "startSeconds": 41.522,
      "durationSeconds": 0.217,
      "endSeconds": 41.739,
      "velocity": 0.6,
      "bendActive": false,
      "instrument": 0
    },
    {
      "id": "id_fh08i6ukemnwl0o97",
      "pitch": 49,
      "pitchName": "C#3",
      "frequencyHz": 138.591315,
      "startTick": 45840,
      "durationTicks": 240,
      "endTick": 46080,
      "startSeconds": 41.522,
      "durationSeconds": 0.217,
      "endSeconds": 41.739,
      "velocity": 0.6,
      "bendActive": false,
      "instrument": 0
    },
    {
      "id": "id_m35f7wkozmnwl0o97",
      "pitch": 54,
      "pitchName": "F#3",
      "frequencyHz": 184.997211,
      "startTick": 45840,
      "durationTicks": 160,
      "endTick": 46000,
      "startSeconds": 41.522,
      "durationSeconds": 0.145,
      "endSeconds": 41.667,
      "velocity": 0.6,
      "bendActive": false,
      "instrument": 1
    },
    {
      "id": "id_h19jbhg0jmnwl0o97",
      "pitch": 32,
      "pitchName": "G#1",
      "frequencyHz": 51.913087,
      "startTick": 46080,
      "durationTicks": 240,
      "endTick": 46320,
      "startSeconds": 41.739,
      "durationSeconds": 0.217,
      "endSeconds": 41.957,
      "velocity": 0.8,
      "bendActive": true,
      "instrument": 0
    },
    {
      "id": "id_ehqt5k986mnwl0o97",
      "pitch": 51,
      "pitchName": "D#3",
      "frequencyHz": 155.563492,
      "startTick": 46080,
      "durationTicks": 240,
      "endTick": 46320,
      "startSeconds": 41.739,
      "durationSeconds": 0.217,
      "endSeconds": 41.957,
      "velocity": 0.8,
      "bendActive": true,
      "instrument": 0
    },
    {
      "id": "id_200vgmmxhmnwmwdhr",
      "pitch": 51,
      "pitchName": "D#3",
      "frequencyHz": 155.563492,
      "startTick": 46320,
      "durationTicks": 240,
      "endTick": 46560,
      "startSeconds": 41.957,
      "durationSeconds": 0.217,
      "endSeconds": 42.174,
      "velocity": 0.8,
      "bendActive": true,
      "instrument": 0
    },
    {
      "id": "id_cuqzdil54mnwl0o97",
      "pitch": 56,
      "pitchName": "G#3",
      "frequencyHz": 207.652349,
      "startTick": 46080,
      "durationTicks": 160,
      "endTick": 46240,
      "startSeconds": 41.739,
      "durationSeconds": 0.145,
      "endSeconds": 41.884,
      "velocity": 0.85,
      "bendActive": false,
      "instrument": 1
    },
    {
      "id": "id_v8657odmjmnwl0o97",
      "pitch": 32,
      "pitchName": "G#1",
      "frequencyHz": 51.913087,
      "startTick": 46320,
      "durationTicks": 240,
      "endTick": 46560,
      "startSeconds": 41.957,
      "durationSeconds": 0.217,
      "endSeconds": 42.174,
      "velocity": 0.5,
      "bendActive": true,
      "instrument": 0
    },
    {
      "id": "id_1cogsbdnymnwl0o97",
      "pitch": 56,
      "pitchName": "G#3",
      "frequencyHz": 207.652349,
      "startTick": 46320,
      "durationTicks": 160,
      "endTick": 46480,
      "startSeconds": 41.957,
      "durationSeconds": 0.145,
      "endSeconds": 42.101,
      "velocity": 0.55,
      "bendActive": false,
      "instrument": 1
    },
    {
      "id": "id_xkznno45wmnwl0o97",
      "pitch": 32,
      "pitchName": "G#1",
      "frequencyHz": 51.913087,
      "startTick": 46560,
      "durationTicks": 240,
      "endTick": 46800,
      "startSeconds": 42.174,
      "durationSeconds": 0.217,
      "endSeconds": 42.391,
      "velocity": 0.6,
      "bendActive": false,
      "instrument": 0
    },
    {
      "id": "id_rbmmf44zimnwl0o97",
      "pitch": 51,
      "pitchName": "D#3",
      "frequencyHz": 155.563492,
      "startTick": 46560,
      "durationTicks": 240,
      "endTick": 46800,
      "startSeconds": 42.174,
      "durationSeconds": 0.217,
      "endSeconds": 42.391,
      "velocity": 0.1,
      "bendActive": false,
      "instrument": 0
    },
    {
      "id": "id_6xcxinolbmnwl0o97",
      "pitch": 56,
      "pitchName": "G#3",
      "frequencyHz": 207.652349,
      "startTick": 46560,
      "durationTicks": 160,
      "endTick": 46720,
      "startSeconds": 42.174,
      "durationSeconds": 0.145,
      "endSeconds": 42.319,
      "velocity": 0.4,
      "bendActive": false,
      "instrument": 1
    },
    {
      "id": "id_32y0tbocdmnwl0o97",
      "pitch": 32,
      "pitchName": "G#1",
      "frequencyHz": 51.913087,
      "startTick": 46800,
      "durationTicks": 240,
      "endTick": 47040,
      "startSeconds": 42.391,
      "durationSeconds": 0.217,
      "endSeconds": 42.609,
      "velocity": 0.8,
      "bendActive": false,
      "instrument": 0
    },
    {
      "id": "id_3wbtjhspjmnwl0o97",
      "pitch": 51,
      "pitchName": "D#3",
      "frequencyHz": 155.563492,
      "startTick": 46800,
      "durationTicks": 240,
      "endTick": 47040,
      "startSeconds": 42.391,
      "durationSeconds": 0.217,
      "endSeconds": 42.609,
      "velocity": 0.25,
      "bendActive": false,
      "instrument": 0
    },
    {
      "id": "id_0c4sjc69smnwl0o97",
      "pitch": 56,
      "pitchName": "G#3",
      "frequencyHz": 207.652349,
      "startTick": 46800,
      "durationTicks": 160,
      "endTick": 46960,
      "startSeconds": 42.391,
      "durationSeconds": 0.145,
      "endSeconds": 42.536,
      "velocity": 0.25,
      "bendActive": false,
      "instrument": 1
    },
    {
      "id": "id_z4m9hvj1xmnwl0o97",
      "pitch": 32,
      "pitchName": "G#1",
      "frequencyHz": 51.913087,
      "startTick": 47040,
      "durationTicks": 240,
      "endTick": 47280,
      "startSeconds": 42.609,
      "durationSeconds": 0.217,
      "endSeconds": 42.826,
      "velocity": 0.5,
      "bendActive": false,
      "instrument": 0
    },
    {
      "id": "id_lupjtkrtdmnwl0o97",
      "pitch": 51,
      "pitchName": "D#3",
      "frequencyHz": 155.563492,
      "startTick": 47040,
      "durationTicks": 240,
      "endTick": 47280,
      "startSeconds": 42.609,
      "durationSeconds": 0.217,
      "endSeconds": 42.826,
      "velocity": 0.35,
      "bendActive": false,
      "instrument": 0
    },
    {
      "id": "id_71cnyg64imnwl0o97",
      "pitch": 56,
      "pitchName": "G#3",
      "frequencyHz": 207.652349,
      "startTick": 47040,
      "durationTicks": 160,
      "endTick": 47200,
      "startSeconds": 42.609,
      "durationSeconds": 0.145,
      "endSeconds": 42.754,
      "velocity": 0.35,
      "bendActive": false,
      "instrument": 1
    },
    {
      "id": "id_fjr94qk66mnwl0o97",
      "pitch": 32,
      "pitchName": "G#1",
      "frequencyHz": 51.913087,
      "startTick": 47280,
      "durationTicks": 240,
      "endTick": 47520,
      "startSeconds": 42.826,
      "durationSeconds": 0.217,
      "endSeconds": 43.043,
      "velocity": 0.6,
      "bendActive": false,
      "instrument": 0
    },
    {
      "id": "id_2nkbapc8gmnwl0o97",
      "pitch": 51,
      "pitchName": "D#3",
      "frequencyHz": 155.563492,
      "startTick": 47280,
      "durationTicks": 240,
      "endTick": 47520,
      "startSeconds": 42.826,
      "durationSeconds": 0.217,
      "endSeconds": 43.043,
      "velocity": 0.6,
      "bendActive": false,
      "instrument": 0
    },
    {
      "id": "id_tmc38altemnwl0o97",
      "pitch": 56,
      "pitchName": "G#3",
      "frequencyHz": 207.652349,
      "startTick": 47280,
      "durationTicks": 160,
      "endTick": 47440,
      "startSeconds": 42.826,
      "durationSeconds": 0.145,
      "endSeconds": 42.971,
      "velocity": 0.6,
      "bendActive": false,
      "instrument": 1
    },
    {
      "id": "id_3z55bgx2tmnwl0o97",
      "pitch": 32,
      "pitchName": "G#1",
      "frequencyHz": 51.913087,
      "startTick": 47520,
      "durationTicks": 240,
      "endTick": 47760,
      "startSeconds": 43.043,
      "durationSeconds": 0.217,
      "endSeconds": 43.261,
      "velocity": 0.8,
      "bendActive": false,
      "instrument": 0
    },
    {
      "id": "id_oyq0vbgormnwl0o97",
      "pitch": 51,
      "pitchName": "D#3",
      "frequencyHz": 155.563492,
      "startTick": 47520,
      "durationTicks": 240,
      "endTick": 47760,
      "startSeconds": 43.043,
      "durationSeconds": 0.217,
      "endSeconds": 43.261,
      "velocity": 0.7,
      "bendActive": false,
      "instrument": 0
    },
    {
      "id": "id_yxg2m6vthmnwl0o97",
      "pitch": 56,
      "pitchName": "G#3",
      "frequencyHz": 207.652349,
      "startTick": 47520,
      "durationTicks": 160,
      "endTick": 47680,
      "startSeconds": 43.043,
      "durationSeconds": 0.145,
      "endSeconds": 43.188,
      "velocity": 0.7,
      "bendActive": false,
      "instrument": 1
    },
    {
      "id": "id_ox6xbtwifmnwl0o97",
      "pitch": 32,
      "pitchName": "G#1",
      "frequencyHz": 51.913087,
      "startTick": 47760,
      "durationTicks": 240,
      "endTick": 48000,
      "startSeconds": 43.261,
      "durationSeconds": 0.217,
      "endSeconds": 43.478,
      "velocity": 0.45,
      "bendActive": false,
      "instrument": 0
    },
    {
      "id": "id_daidywwa0mnwl0o97",
      "pitch": 51,
      "pitchName": "D#3",
      "frequencyHz": 155.563492,
      "startTick": 47760,
      "durationTicks": 240,
      "endTick": 48000,
      "startSeconds": 43.261,
      "durationSeconds": 0.217,
      "endSeconds": 43.478,
      "velocity": 0.45,
      "bendActive": false,
      "instrument": 0
    },
    {
      "id": "id_v9hgyta9nmnwl0o97",
      "pitch": 56,
      "pitchName": "G#3",
      "frequencyHz": 207.652349,
      "startTick": 47760,
      "durationTicks": 160,
      "endTick": 47920,
      "startSeconds": 43.261,
      "durationSeconds": 0.145,
      "endSeconds": 43.406,
      "velocity": 0.45,
      "bendActive": false,
      "instrument": 1
    },
    {
      "id": "id_51wrf5r85mnwl0o97",
      "pitch": 32,
      "pitchName": "G#1",
      "frequencyHz": 51.913087,
      "startTick": 48000,
      "durationTicks": 240,
      "endTick": 48240,
      "startSeconds": 43.478,
      "durationSeconds": 0.217,
      "endSeconds": 43.696,
      "velocity": 0.6,
      "bendActive": false,
      "instrument": 0
    },
    {
      "id": "id_eg7omusqzmnwl0o97",
      "pitch": 51,
      "pitchName": "D#3",
      "frequencyHz": 155.563492,
      "startTick": 48000,
      "durationTicks": 240,
      "endTick": 48240,
      "startSeconds": 43.478,
      "durationSeconds": 0.217,
      "endSeconds": 43.696,
      "velocity": 0.6,
      "bendActive": false,
      "instrument": 0
    },
    {
      "id": "id_t2q8qyvm0mnwl0o97",
      "pitch": 56,
      "pitchName": "G#3",
      "frequencyHz": 207.652349,
      "startTick": 48000,
      "durationTicks": 160,
      "endTick": 48160,
      "startSeconds": 43.478,
      "durationSeconds": 0.145,
      "endSeconds": 43.623,
      "velocity": 0.6,
      "bendActive": false,
      "instrument": 1
    },
    {
      "id": "id_yn4egscl3mnwl0o97",
      "pitch": 32,
      "pitchName": "G#1",
      "frequencyHz": 51.913087,
      "startTick": 48240,
      "durationTicks": 240,
      "endTick": 48480,
      "startSeconds": 43.696,
      "durationSeconds": 0.217,
      "endSeconds": 43.913,
      "velocity": 0.8,
      "bendActive": false,
      "instrument": 0
    },
    {
      "id": "id_b41bz5rh2mnwl0o97",
      "pitch": 51,
      "pitchName": "D#3",
      "frequencyHz": 155.563492,
      "startTick": 48240,
      "durationTicks": 240,
      "endTick": 48480,
      "startSeconds": 43.696,
      "durationSeconds": 0.217,
      "endSeconds": 43.913,
      "velocity": 0.8,
      "bendActive": false,
      "instrument": 0
    },
    {
      "id": "id_u6pxsi5mtmnwl0o97",
      "pitch": 56,
      "pitchName": "G#3",
      "frequencyHz": 207.652349,
      "startTick": 48240,
      "durationTicks": 160,
      "endTick": 48400,
      "startSeconds": 43.696,
      "durationSeconds": 0.145,
      "endSeconds": 43.841,
      "velocity": 0.8,
      "bendActive": false,
      "instrument": 1
    },
    {
      "id": "id_ikqwhss3omnwl0o97",
      "pitch": 32,
      "pitchName": "G#1",
      "frequencyHz": 51.913087,
      "startTick": 48480,
      "durationTicks": 240,
      "endTick": 48720,
      "startSeconds": 43.913,
      "durationSeconds": 0.217,
      "endSeconds": 44.13,
      "velocity": 0.5,
      "bendActive": false,
      "instrument": 0
    },
    {
      "id": "id_d57uz8xremnwl0o97",
      "pitch": 51,
      "pitchName": "D#3",
      "frequencyHz": 155.563492,
      "startTick": 48480,
      "durationTicks": 240,
      "endTick": 48720,
      "startSeconds": 43.913,
      "durationSeconds": 0.217,
      "endSeconds": 44.13,
      "velocity": 0.5,
      "bendActive": false,
      "instrument": 0
    },
    {
      "id": "id_fy1l5y669mnwl0o97",
      "pitch": 56,
      "pitchName": "G#3",
      "frequencyHz": 207.652349,
      "startTick": 48480,
      "durationTicks": 160,
      "endTick": 48640,
      "startSeconds": 43.913,
      "durationSeconds": 0.145,
      "endSeconds": 44.058,
      "velocity": 0.5,
      "bendActive": false,
      "instrument": 1
    },
    {
      "id": "id_90d15ab0lmnwl0o97",
      "pitch": 32,
      "pitchName": "G#1",
      "frequencyHz": 51.913087,
      "startTick": 48720,
      "durationTicks": 240,
      "endTick": 48960,
      "startSeconds": 44.13,
      "durationSeconds": 0.217,
      "endSeconds": 44.348,
      "velocity": 0.6,
      "bendActive": false,
      "instrument": 0
    },
    {
      "id": "id_zn1zg1rbimnwl0o97",
      "pitch": 51,
      "pitchName": "D#3",
      "frequencyHz": 155.563492,
      "startTick": 48720,
      "durationTicks": 240,
      "endTick": 48960,
      "startSeconds": 44.13,
      "durationSeconds": 0.217,
      "endSeconds": 44.348,
      "velocity": 0.6,
      "bendActive": false,
      "instrument": 0
    },
    {
      "id": "id_zoor7sgr0mnwl0o97",
      "pitch": 56,
      "pitchName": "G#3",
      "frequencyHz": 207.652349,
      "startTick": 48720,
      "durationTicks": 160,
      "endTick": 48880,
      "startSeconds": 44.13,
      "durationSeconds": 0.145,
      "endSeconds": 44.275,
      "velocity": 0.6,
      "bendActive": false,
      "instrument": 1
    },
    {
      "id": "id_z6mt2i0axmnwl0o97",
      "pitch": 32,
      "pitchName": "G#1",
      "frequencyHz": 51.913087,
      "startTick": 48960,
      "durationTicks": 240,
      "endTick": 49200,
      "startSeconds": 44.348,
      "durationSeconds": 0.217,
      "endSeconds": 44.565,
      "velocity": 0.95,
      "bendActive": false,
      "instrument": 0
    },
    {
      "id": "id_1el5y8a7smnwl0o97",
      "pitch": 51,
      "pitchName": "D#3",
      "frequencyHz": 155.563492,
      "startTick": 48960,
      "durationTicks": 240,
      "endTick": 49200,
      "startSeconds": 44.348,
      "durationSeconds": 0.217,
      "endSeconds": 44.565,
      "velocity": 0.7,
      "bendActive": false,
      "instrument": 0
    },
    {
      "id": "id_uij6exq4cmnwl0o97",
      "pitch": 56,
      "pitchName": "G#3",
      "frequencyHz": 207.652349,
      "startTick": 48960,
      "durationTicks": 160,
      "endTick": 49120,
      "startSeconds": 44.348,
      "durationSeconds": 0.145,
      "endSeconds": 44.493,
      "velocity": 0.7,
      "bendActive": false,
      "instrument": 1
    },
    {
      "id": "id_i2dkeu9gkmnwl0o97",
      "pitch": 71,
      "pitchName": "B4",
      "frequencyHz": 493.883301,
      "startTick": 48960,
      "durationTicks": 2880,
      "endTick": 51840,
      "startSeconds": 44.348,
      "durationSeconds": 2.609,
      "endSeconds": 46.957,
      "velocity": 0.25,
      "bendActive": true,
      "instrument": 1
    },
    {
      "id": "id_k20u0qfjymnwl0o97",
      "pitch": 32,
      "pitchName": "G#1",
      "frequencyHz": 51.913087,
      "startTick": 49200,
      "durationTicks": 240,
      "endTick": 49440,
      "startSeconds": 44.565,
      "durationSeconds": 0.217,
      "endSeconds": 44.783,
      "velocity": 0.45,
      "bendActive": false,
      "instrument": 0
    },
    {
      "id": "id_heyq55infmnwl0o97",
      "pitch": 51,
      "pitchName": "D#3",
      "frequencyHz": 155.563492,
      "startTick": 49200,
      "durationTicks": 240,
      "endTick": 49440,
      "startSeconds": 44.565,
      "durationSeconds": 0.217,
      "endSeconds": 44.783,
      "velocity": 0.45,
      "bendActive": false,
      "instrument": 0
    },
    {
      "id": "id_zxh03hww4mnwl0o97",
      "pitch": 56,
      "pitchName": "G#3",
      "frequencyHz": 207.652349,
      "startTick": 49200,
      "durationTicks": 160,
      "endTick": 49360,
      "startSeconds": 44.565,
      "durationSeconds": 0.145,
      "endSeconds": 44.71,
      "velocity": 0.45,
      "bendActive": false,
      "instrument": 1
    },
    {
      "id": "id_ecffwi0ajmnwl0o97",
      "pitch": 32,
      "pitchName": "G#1",
      "frequencyHz": 51.913087,
      "startTick": 49440,
      "durationTicks": 240,
      "endTick": 49680,
      "startSeconds": 44.783,
      "durationSeconds": 0.217,
      "endSeconds": 45,
      "velocity": 0.6,
      "bendActive": false,
      "instrument": 0
    },
    {
      "id": "id_ci2iqs2nqmnwl0o97",
      "pitch": 51,
      "pitchName": "D#3",
      "frequencyHz": 155.563492,
      "startTick": 49440,
      "durationTicks": 240,
      "endTick": 49680,
      "startSeconds": 44.783,
      "durationSeconds": 0.217,
      "endSeconds": 45,
      "velocity": 0.6,
      "bendActive": false,
      "instrument": 0
    },
    {
      "id": "id_aju2j97l1mnwl0o97",
      "pitch": 56,
      "pitchName": "G#3",
      "frequencyHz": 207.652349,
      "startTick": 49440,
      "durationTicks": 160,
      "endTick": 49600,
      "startSeconds": 44.783,
      "durationSeconds": 0.145,
      "endSeconds": 44.928,
      "velocity": 0.6,
      "bendActive": false,
      "instrument": 1
    },
    {
      "id": "id_vif3to96xmnwl0o97",
      "pitch": 32,
      "pitchName": "G#1",
      "frequencyHz": 51.913087,
      "startTick": 49680,
      "durationTicks": 240,
      "endTick": 49920,
      "startSeconds": 45,
      "durationSeconds": 0.217,
      "endSeconds": 45.217,
      "velocity": 0.8,
      "bendActive": false,
      "instrument": 0
    },
    {
      "id": "id_wz45kn2sjmnwl0o97",
      "pitch": 51,
      "pitchName": "D#3",
      "frequencyHz": 155.563492,
      "startTick": 49680,
      "durationTicks": 240,
      "endTick": 49920,
      "startSeconds": 45,
      "durationSeconds": 0.217,
      "endSeconds": 45.217,
      "velocity": 0.8,
      "bendActive": false,
      "instrument": 0
    },
    {
      "id": "id_g6tyf74avmnwl0o97",
      "pitch": 56,
      "pitchName": "G#3",
      "frequencyHz": 207.652349,
      "startTick": 49680,
      "durationTicks": 160,
      "endTick": 49840,
      "startSeconds": 45,
      "durationSeconds": 0.145,
      "endSeconds": 45.145,
      "velocity": 0.8,
      "bendActive": false,
      "instrument": 1
    },
    {
      "id": "id_91cpmtnjbmnwl0o97",
      "pitch": 32,
      "pitchName": "G#1",
      "frequencyHz": 51.913087,
      "startTick": 49920,
      "durationTicks": 240,
      "endTick": 50160,
      "startSeconds": 45.217,
      "durationSeconds": 0.217,
      "endSeconds": 45.435,
      "velocity": 0.5,
      "bendActive": false,
      "instrument": 0
    },
    {
      "id": "id_3zlc4siz0mnwl0o97",
      "pitch": 51,
      "pitchName": "D#3",
      "frequencyHz": 155.563492,
      "startTick": 49920,
      "durationTicks": 240,
      "endTick": 50160,
      "startSeconds": 45.217,
      "durationSeconds": 0.217,
      "endSeconds": 45.435,
      "velocity": 0.5,
      "bendActive": false,
      "instrument": 0
    },
    {
      "id": "id_7na3pziilmnwl0o97",
      "pitch": 56,
      "pitchName": "G#3",
      "frequencyHz": 207.652349,
      "startTick": 49920,
      "durationTicks": 160,
      "endTick": 50080,
      "startSeconds": 45.217,
      "durationSeconds": 0.145,
      "endSeconds": 45.362,
      "velocity": 0.5,
      "bendActive": false,
      "instrument": 1
    },
    {
      "id": "id_9s4eg4gu0mnwl0o97",
      "pitch": 32,
      "pitchName": "G#1",
      "frequencyHz": 51.913087,
      "startTick": 50160,
      "durationTicks": 240,
      "endTick": 50400,
      "startSeconds": 45.435,
      "durationSeconds": 0.217,
      "endSeconds": 45.652,
      "velocity": 0.6,
      "bendActive": false,
      "instrument": 0
    },
    {
      "id": "id_fjg7zk4gomnwl0o97",
      "pitch": 51,
      "pitchName": "D#3",
      "frequencyHz": 155.563492,
      "startTick": 50160,
      "durationTicks": 240,
      "endTick": 50400,
      "startSeconds": 45.435,
      "durationSeconds": 0.217,
      "endSeconds": 45.652,
      "velocity": 0.6,
      "bendActive": false,
      "instrument": 0
    },
    {
      "id": "id_vfit9aaepmnwl0o97",
      "pitch": 56,
      "pitchName": "G#3",
      "frequencyHz": 207.652349,
      "startTick": 50160,
      "durationTicks": 160,
      "endTick": 50320,
      "startSeconds": 45.435,
      "durationSeconds": 0.145,
      "endSeconds": 45.58,
      "velocity": 0.6,
      "bendActive": false,
      "instrument": 1
    },
    {
      "id": "id_md9s1zxscmnwl0o97",
      "pitch": 32,
      "pitchName": "G#1",
      "frequencyHz": 51.913087,
      "startTick": 50400,
      "durationTicks": 240,
      "endTick": 50640,
      "startSeconds": 45.652,
      "durationSeconds": 0.217,
      "endSeconds": 45.87,
      "velocity": 0.8,
      "bendActive": false,
      "instrument": 0
    },
    {
      "id": "id_e8bry7l46mnwl0o97",
      "pitch": 51,
      "pitchName": "D#3",
      "frequencyHz": 155.563492,
      "startTick": 50400,
      "durationTicks": 240,
      "endTick": 50640,
      "startSeconds": 45.652,
      "durationSeconds": 0.217,
      "endSeconds": 45.87,
      "velocity": 0.7,
      "bendActive": false,
      "instrument": 0
    },
    {
      "id": "id_jsgpv4g8mmnwl0o97",
      "pitch": 56,
      "pitchName": "G#3",
      "frequencyHz": 207.652349,
      "startTick": 50400,
      "durationTicks": 160,
      "endTick": 50560,
      "startSeconds": 45.652,
      "durationSeconds": 0.145,
      "endSeconds": 45.797,
      "velocity": 0.7,
      "bendActive": false,
      "instrument": 1
    },
    {
      "id": "id_cx6x4800umnwl0o97",
      "pitch": 32,
      "pitchName": "G#1",
      "frequencyHz": 51.913087,
      "startTick": 50640,
      "durationTicks": 240,
      "endTick": 50880,
      "startSeconds": 45.87,
      "durationSeconds": 0.217,
      "endSeconds": 46.087,
      "velocity": 0.45,
      "bendActive": false,
      "instrument": 0
    },
    {
      "id": "id_xwaby1k1xmnwl0o97",
      "pitch": 51,
      "pitchName": "D#3",
      "frequencyHz": 155.563492,
      "startTick": 50640,
      "durationTicks": 240,
      "endTick": 50880,
      "startSeconds": 45.87,
      "durationSeconds": 0.217,
      "endSeconds": 46.087,
      "velocity": 0.45,
      "bendActive": false,
      "instrument": 0
    },
    {
      "id": "id_o7votite0mnwl0o97",
      "pitch": 56,
      "pitchName": "G#3",
      "frequencyHz": 207.652349,
      "startTick": 50640,
      "durationTicks": 160,
      "endTick": 50800,
      "startSeconds": 45.87,
      "durationSeconds": 0.145,
      "endSeconds": 46.014,
      "velocity": 0.45,
      "bendActive": false,
      "instrument": 1
    },
    {
      "id": "id_f868erwsmmnwl0o97",
      "pitch": 32,
      "pitchName": "G#1",
      "frequencyHz": 51.913087,
      "startTick": 50880,
      "durationTicks": 240,
      "endTick": 51120,
      "startSeconds": 46.087,
      "durationSeconds": 0.217,
      "endSeconds": 46.304,
      "velocity": 0.6,
      "bendActive": false,
      "instrument": 0
    },
    {
      "id": "id_ukappk25ymnwl0o97",
      "pitch": 51,
      "pitchName": "D#3",
      "frequencyHz": 155.563492,
      "startTick": 50880,
      "durationTicks": 240,
      "endTick": 51120,
      "startSeconds": 46.087,
      "durationSeconds": 0.217,
      "endSeconds": 46.304,
      "velocity": 0.6,
      "bendActive": false,
      "instrument": 0
    },
    {
      "id": "id_08um9kd03mnwl0o97",
      "pitch": 56,
      "pitchName": "G#3",
      "frequencyHz": 207.652349,
      "startTick": 50880,
      "durationTicks": 160,
      "endTick": 51040,
      "startSeconds": 46.087,
      "durationSeconds": 0.145,
      "endSeconds": 46.232,
      "velocity": 0.6,
      "bendActive": false,
      "instrument": 1
    },
    {
      "id": "id_2kzyisee6mnwl0o97",
      "pitch": 32,
      "pitchName": "G#1",
      "frequencyHz": 51.913087,
      "startTick": 51120,
      "durationTicks": 240,
      "endTick": 51360,
      "startSeconds": 46.304,
      "durationSeconds": 0.217,
      "endSeconds": 46.522,
      "velocity": 0.8,
      "bendActive": false,
      "instrument": 0
    },
    {
      "id": "id_q005e1sbqmnwl0o97",
      "pitch": 51,
      "pitchName": "D#3",
      "frequencyHz": 155.563492,
      "startTick": 51120,
      "durationTicks": 240,
      "endTick": 51360,
      "startSeconds": 46.304,
      "durationSeconds": 0.217,
      "endSeconds": 46.522,
      "velocity": 0.8,
      "bendActive": false,
      "instrument": 0
    },
    {
      "id": "id_qvotvaxpomnwl0o97",
      "pitch": 56,
      "pitchName": "G#3",
      "frequencyHz": 207.652349,
      "startTick": 51120,
      "durationTicks": 160,
      "endTick": 51280,
      "startSeconds": 46.304,
      "durationSeconds": 0.145,
      "endSeconds": 46.449,
      "velocity": 0.8,
      "bendActive": false,
      "instrument": 1
    },
    {
      "id": "id_iur01qwvemnwl0o97",
      "pitch": 32,
      "pitchName": "G#1",
      "frequencyHz": 51.913087,
      "startTick": 51360,
      "durationTicks": 240,
      "endTick": 51600,
      "startSeconds": 46.522,
      "durationSeconds": 0.217,
      "endSeconds": 46.739,
      "velocity": 0.5,
      "bendActive": false,
      "instrument": 0
    },
    {
      "id": "id_6pxjygk7nmnwl0o97",
      "pitch": 51,
      "pitchName": "D#3",
      "frequencyHz": 155.563492,
      "startTick": 51360,
      "durationTicks": 240,
      "endTick": 51600,
      "startSeconds": 46.522,
      "durationSeconds": 0.217,
      "endSeconds": 46.739,
      "velocity": 0.5,
      "bendActive": false,
      "instrument": 0
    },
    {
      "id": "id_nctknm95nmnwl0o97",
      "pitch": 56,
      "pitchName": "G#3",
      "frequencyHz": 207.652349,
      "startTick": 51360,
      "durationTicks": 160,
      "endTick": 51520,
      "startSeconds": 46.522,
      "durationSeconds": 0.145,
      "endSeconds": 46.667,
      "velocity": 0.5,
      "bendActive": false,
      "instrument": 1
    },
    {
      "id": "id_vw56yasxqmnwl0o97",
      "pitch": 32,
      "pitchName": "G#1",
      "frequencyHz": 51.913087,
      "startTick": 51600,
      "durationTicks": 240,
      "endTick": 51840,
      "startSeconds": 46.739,
      "durationSeconds": 0.217,
      "endSeconds": 46.957,
      "velocity": 0.6,
      "bendActive": false,
      "instrument": 0
    },
    {
      "id": "id_m6yaixe1emnwl0o97",
      "pitch": 51,
      "pitchName": "D#3",
      "frequencyHz": 155.563492,
      "startTick": 51600,
      "durationTicks": 240,
      "endTick": 51840,
      "startSeconds": 46.739,
      "durationSeconds": 0.217,
      "endSeconds": 46.957,
      "velocity": 0.6,
      "bendActive": false,
      "instrument": 0
    },
    {
      "id": "id_d0cjbs2eqmnwl0o97",
      "pitch": 56,
      "pitchName": "G#3",
      "frequencyHz": 207.652349,
      "startTick": 51600,
      "durationTicks": 160,
      "endTick": 51760,
      "startSeconds": 46.739,
      "durationSeconds": 0.145,
      "endSeconds": 46.884,
      "velocity": 0.6,
      "bendActive": false,
      "instrument": 1
    },
    {
      "id": "id_es9uoc0atmnwl0o97",
      "pitch": 32,
      "pitchName": "G#1",
      "frequencyHz": 51.913087,
      "startTick": 51840,
      "durationTicks": 240,
      "endTick": 52080,
      "startSeconds": 46.957,
      "durationSeconds": 0.217,
      "endSeconds": 47.174,
      "velocity": 0.95,
      "bendActive": false,
      "instrument": 0
    },
    {
      "id": "id_o818q6mmmmnwl0o97",
      "pitch": 51,
      "pitchName": "D#3",
      "frequencyHz": 155.563492,
      "startTick": 51840,
      "durationTicks": 240,
      "endTick": 52080,
      "startSeconds": 46.957,
      "durationSeconds": 0.217,
      "endSeconds": 47.174,
      "velocity": 0.7,
      "bendActive": false,
      "instrument": 0
    },
    {
      "id": "id_43alwilkcmnwl0o97",
      "pitch": 56,
      "pitchName": "G#3",
      "frequencyHz": 207.652349,
      "startTick": 51840,
      "durationTicks": 160,
      "endTick": 52000,
      "startSeconds": 46.957,
      "durationSeconds": 0.145,
      "endSeconds": 47.101,
      "velocity": 0.7,
      "bendActive": false,
      "instrument": 1
    },
    {
      "id": "id_f1hdaqt0imnwl0o97",
      "pitch": 32,
      "pitchName": "G#1",
      "frequencyHz": 51.913087,
      "startTick": 52080,
      "durationTicks": 240,
      "endTick": 52320,
      "startSeconds": 47.174,
      "durationSeconds": 0.217,
      "endSeconds": 47.391,
      "velocity": 0.45,
      "bendActive": false,
      "instrument": 0
    },
    {
      "id": "id_50jp3ps2wmnwl0o97",
      "pitch": 51,
      "pitchName": "D#3",
      "frequencyHz": 155.563492,
      "startTick": 52080,
      "durationTicks": 240,
      "endTick": 52320,
      "startSeconds": 47.174,
      "durationSeconds": 0.217,
      "endSeconds": 47.391,
      "velocity": 0.45,
      "bendActive": false,
      "instrument": 0
    },
    {
      "id": "id_81nswloaumnwl0o97",
      "pitch": 56,
      "pitchName": "G#3",
      "frequencyHz": 207.652349,
      "startTick": 52080,
      "durationTicks": 160,
      "endTick": 52240,
      "startSeconds": 47.174,
      "durationSeconds": 0.145,
      "endSeconds": 47.319,
      "velocity": 0.45,
      "bendActive": false,
      "instrument": 1
    },
    {
      "id": "id_wu37fe4pgmnwl0o97",
      "pitch": 32,
      "pitchName": "G#1",
      "frequencyHz": 51.913087,
      "startTick": 52320,
      "durationTicks": 240,
      "endTick": 52560,
      "startSeconds": 47.391,
      "durationSeconds": 0.217,
      "endSeconds": 47.609,
      "velocity": 0.6,
      "bendActive": false,
      "instrument": 0
    },
    {
      "id": "id_fy2q3f3ybmnwl0o97",
      "pitch": 51,
      "pitchName": "D#3",
      "frequencyHz": 155.563492,
      "startTick": 52320,
      "durationTicks": 240,
      "endTick": 52560,
      "startSeconds": 47.391,
      "durationSeconds": 0.217,
      "endSeconds": 47.609,
      "velocity": 0.6,
      "bendActive": false,
      "instrument": 0
    },
    {
      "id": "id_kfyisjflsmnwl0o97",
      "pitch": 56,
      "pitchName": "G#3",
      "frequencyHz": 207.652349,
      "startTick": 52320,
      "durationTicks": 160,
      "endTick": 52480,
      "startSeconds": 47.391,
      "durationSeconds": 0.145,
      "endSeconds": 47.536,
      "velocity": 0.6,
      "bendActive": false,
      "instrument": 1
    },
    {
      "id": "id_ap3pi8rbvmnwl0o97",
      "pitch": 32,
      "pitchName": "G#1",
      "frequencyHz": 51.913087,
      "startTick": 52560,
      "durationTicks": 240,
      "endTick": 52800,
      "startSeconds": 47.609,
      "durationSeconds": 0.217,
      "endSeconds": 47.826,
      "velocity": 0.8,
      "bendActive": false,
      "instrument": 0
    },
    {
      "id": "id_9rehcxez2mnwl0o97",
      "pitch": 51,
      "pitchName": "D#3",
      "frequencyHz": 155.563492,
      "startTick": 52560,
      "durationTicks": 240,
      "endTick": 52800,
      "startSeconds": 47.609,
      "durationSeconds": 0.217,
      "endSeconds": 47.826,
      "velocity": 0.8,
      "bendActive": false,
      "instrument": 0
    },
    {
      "id": "id_ikhn8w3dlmnwl0o97",
      "pitch": 56,
      "pitchName": "G#3",
      "frequencyHz": 207.652349,
      "startTick": 52560,
      "durationTicks": 160,
      "endTick": 52720,
      "startSeconds": 47.609,
      "durationSeconds": 0.145,
      "endSeconds": 47.754,
      "velocity": 0.8,
      "bendActive": false,
      "instrument": 1
    },
    {
      "id": "id_roe6coi52mnwl0o97",
      "pitch": 32,
      "pitchName": "G#1",
      "frequencyHz": 51.913087,
      "startTick": 52800,
      "durationTicks": 240,
      "endTick": 53040,
      "startSeconds": 47.826,
      "durationSeconds": 0.217,
      "endSeconds": 48.043,
      "velocity": 0.5,
      "bendActive": false,
      "instrument": 0
    },
    {
      "id": "id_93mnwlv8emnwl0o97",
      "pitch": 51,
      "pitchName": "D#3",
      "frequencyHz": 155.563492,
      "startTick": 52800,
      "durationTicks": 240,
      "endTick": 53040,
      "startSeconds": 47.826,
      "durationSeconds": 0.217,
      "endSeconds": 48.043,
      "velocity": 0.5,
      "bendActive": false,
      "instrument": 0
    },
    {
      "id": "id_pe8a78ttimnwl0o97",
      "pitch": 56,
      "pitchName": "G#3",
      "frequencyHz": 207.652349,
      "startTick": 52800,
      "durationTicks": 160,
      "endTick": 52960,
      "startSeconds": 47.826,
      "durationSeconds": 0.145,
      "endSeconds": 47.971,
      "velocity": 0.5,
      "bendActive": false,
      "instrument": 1
    },
    {
      "id": "id_f1ok6or8lmnwl0o97",
      "pitch": 32,
      "pitchName": "G#1",
      "frequencyHz": 51.913087,
      "startTick": 53040,
      "durationTicks": 240,
      "endTick": 53280,
      "startSeconds": 48.043,
      "durationSeconds": 0.217,
      "endSeconds": 48.261,
      "velocity": 0.6,
      "bendActive": false,
      "instrument": 0
    },
    {
      "id": "id_1353xkmagmnwl0o97",
      "pitch": 51,
      "pitchName": "D#3",
      "frequencyHz": 155.563492,
      "startTick": 53040,
      "durationTicks": 240,
      "endTick": 53280,
      "startSeconds": 48.043,
      "durationSeconds": 0.217,
      "endSeconds": 48.261,
      "velocity": 0.6,
      "bendActive": false,
      "instrument": 0
    },
    {
      "id": "id_fj2drindfmnwl0o97",
      "pitch": 56,
      "pitchName": "G#3",
      "frequencyHz": 207.652349,
      "startTick": 53040,
      "durationTicks": 160,
      "endTick": 53200,
      "startSeconds": 48.043,
      "durationSeconds": 0.145,
      "endSeconds": 48.188,
      "velocity": 0.6,
      "bendActive": false,
      "instrument": 1
    },
    {
      "id": "id_pi4rz09atmnwl0o97",
      "pitch": 32,
      "pitchName": "G#1",
      "frequencyHz": 51.913087,
      "startTick": 53280,
      "durationTicks": 240,
      "endTick": 53520,
      "startSeconds": 48.261,
      "durationSeconds": 0.217,
      "endSeconds": 48.478,
      "velocity": 0.8,
      "bendActive": false,
      "instrument": 0
    },
    {
      "id": "id_214rt0c8dmnwl0o97",
      "pitch": 51,
      "pitchName": "D#3",
      "frequencyHz": 155.563492,
      "startTick": 53280,
      "durationTicks": 240,
      "endTick": 53520,
      "startSeconds": 48.261,
      "durationSeconds": 0.217,
      "endSeconds": 48.478,
      "velocity": 0.7,
      "bendActive": false,
      "instrument": 0
    },
    {
      "id": "id_alerpcfowmnwl0o97",
      "pitch": 56,
      "pitchName": "G#3",
      "frequencyHz": 207.652349,
      "startTick": 53280,
      "durationTicks": 160,
      "endTick": 53440,
      "startSeconds": 48.261,
      "durationSeconds": 0.145,
      "endSeconds": 48.406,
      "velocity": 0.7,
      "bendActive": false,
      "instrument": 1
    },
    {
      "id": "id_wctaz7dwimnwl0o97",
      "pitch": 32,
      "pitchName": "G#1",
      "frequencyHz": 51.913087,
      "startTick": 53520,
      "durationTicks": 240,
      "endTick": 53760,
      "startSeconds": 48.478,
      "durationSeconds": 0.217,
      "endSeconds": 48.696,
      "velocity": 0.45,
      "bendActive": false,
      "instrument": 0
    },
    {
      "id": "id_93xn0vx7lmnwl0o97",
      "pitch": 51,
      "pitchName": "D#3",
      "frequencyHz": 155.563492,
      "startTick": 53520,
      "durationTicks": 240,
      "endTick": 53760,
      "startSeconds": 48.478,
      "durationSeconds": 0.217,
      "endSeconds": 48.696,
      "velocity": 0.45,
      "bendActive": false,
      "instrument": 0
    },
    {
      "id": "id_aor9tkmndmnwl0o97",
      "pitch": 56,
      "pitchName": "G#3",
      "frequencyHz": 207.652349,
      "startTick": 53520,
      "durationTicks": 160,
      "endTick": 53680,
      "startSeconds": 48.478,
      "durationSeconds": 0.145,
      "endSeconds": 48.623,
      "velocity": 0.45,
      "bendActive": false,
      "instrument": 1
    },
    {
      "id": "id_4tg6ele0vmnwl0o97",
      "pitch": 32,
      "pitchName": "G#1",
      "frequencyHz": 51.913087,
      "startTick": 53760,
      "durationTicks": 240,
      "endTick": 54000,
      "startSeconds": 48.696,
      "durationSeconds": 0.217,
      "endSeconds": 48.913,
      "velocity": 0.6,
      "bendActive": false,
      "instrument": 0
    },
    {
      "id": "id_zqjzm276amnwl0o97",
      "pitch": 51,
      "pitchName": "D#3",
      "frequencyHz": 155.563492,
      "startTick": 53760,
      "durationTicks": 240,
      "endTick": 54000,
      "startSeconds": 48.696,
      "durationSeconds": 0.217,
      "endSeconds": 48.913,
      "velocity": 0.6,
      "bendActive": false,
      "instrument": 0
    },
    {
      "id": "id_sfirx5ws4mnwl0o97",
      "pitch": 56,
      "pitchName": "G#3",
      "frequencyHz": 207.652349,
      "startTick": 53760,
      "durationTicks": 160,
      "endTick": 53920,
      "startSeconds": 48.696,
      "durationSeconds": 0.145,
      "endSeconds": 48.841,
      "velocity": 0.6,
      "bendActive": false,
      "instrument": 1
    },
    {
      "id": "id_g5cqitxf5mnwl0o97",
      "pitch": 32,
      "pitchName": "G#1",
      "frequencyHz": 51.913087,
      "startTick": 54000,
      "durationTicks": 240,
      "endTick": 54240,
      "startSeconds": 48.913,
      "durationSeconds": 0.217,
      "endSeconds": 49.13,
      "velocity": 0.8,
      "bendActive": false,
      "instrument": 0
    },
    {
      "id": "id_0j7t7nrhmmnwl0o97",
      "pitch": 51,
      "pitchName": "D#3",
      "frequencyHz": 155.563492,
      "startTick": 54000,
      "durationTicks": 240,
      "endTick": 54240,
      "startSeconds": 48.913,
      "durationSeconds": 0.217,
      "endSeconds": 49.13,
      "velocity": 0.8,
      "bendActive": false,
      "instrument": 0
    },
    {
      "id": "id_llbhl3mpxmnwl0o97",
      "pitch": 56,
      "pitchName": "G#3",
      "frequencyHz": 207.652349,
      "startTick": 54000,
      "durationTicks": 160,
      "endTick": 54160,
      "startSeconds": 48.913,
      "durationSeconds": 0.145,
      "endSeconds": 49.058,
      "velocity": 0.8,
      "bendActive": false,
      "instrument": 1
    },
    {
      "id": "id_6w21thhjxmnwl0o97",
      "pitch": 32,
      "pitchName": "G#1",
      "frequencyHz": 51.913087,
      "startTick": 54240,
      "durationTicks": 240,
      "endTick": 54480,
      "startSeconds": 49.13,
      "durationSeconds": 0.217,
      "endSeconds": 49.348,
      "velocity": 0.5,
      "bendActive": false,
      "instrument": 0
    },
    {
      "id": "id_zg2hwvk8cmnwl0o97",
      "pitch": 51,
      "pitchName": "D#3",
      "frequencyHz": 155.563492,
      "startTick": 54240,
      "durationTicks": 240,
      "endTick": 54480,
      "startSeconds": 49.13,
      "durationSeconds": 0.217,
      "endSeconds": 49.348,
      "velocity": 0.5,
      "bendActive": false,
      "instrument": 0
    },
    {
      "id": "id_wddugl8opmnwl0o97",
      "pitch": 56,
      "pitchName": "G#3",
      "frequencyHz": 207.652349,
      "startTick": 54240,
      "durationTicks": 160,
      "endTick": 54400,
      "startSeconds": 49.13,
      "durationSeconds": 0.145,
      "endSeconds": 49.275,
      "velocity": 0.5,
      "bendActive": false,
      "instrument": 1
    },
    {
      "id": "id_nbzme19komnwl0o97",
      "pitch": 32,
      "pitchName": "G#1",
      "frequencyHz": 51.913087,
      "startTick": 54480,
      "durationTicks": 240,
      "endTick": 54720,
      "startSeconds": 49.348,
      "durationSeconds": 0.217,
      "endSeconds": 49.565,
      "velocity": 0.6,
      "bendActive": false,
      "instrument": 0
    },
    {
      "id": "id_x8pj3s2bnmnwl0o97",
      "pitch": 51,
      "pitchName": "D#3",
      "frequencyHz": 155.563492,
      "startTick": 54480,
      "durationTicks": 240,
      "endTick": 54720,
      "startSeconds": 49.348,
      "durationSeconds": 0.217,
      "endSeconds": 49.565,
      "velocity": 0.6,
      "bendActive": false,
      "instrument": 0
    },
    {
      "id": "id_yd9n37q5qmnwl0o97",
      "pitch": 56,
      "pitchName": "G#3",
      "frequencyHz": 207.652349,
      "startTick": 54480,
      "durationTicks": 160,
      "endTick": 54640,
      "startSeconds": 49.348,
      "durationSeconds": 0.145,
      "endSeconds": 49.493,
      "velocity": 0.6,
      "bendActive": false,
      "instrument": 1
    },
    {
      "id": "id_hj0rgzncwmnwl0o97",
      "pitch": 32,
      "pitchName": "G#1",
      "frequencyHz": 51.913087,
      "startTick": 54720,
      "durationTicks": 240,
      "endTick": 54960,
      "startSeconds": 49.565,
      "durationSeconds": 0.217,
      "endSeconds": 49.783,
      "velocity": 0.95,
      "bendActive": false,
      "instrument": 0
    },
    {
      "id": "id_z8qjuz8x5mnwl0o97",
      "pitch": 51,
      "pitchName": "D#3",
      "frequencyHz": 155.563492,
      "startTick": 54720,
      "durationTicks": 240,
      "endTick": 54960,
      "startSeconds": 49.565,
      "durationSeconds": 0.217,
      "endSeconds": 49.783,
      "velocity": 0.7,
      "bendActive": false,
      "instrument": 0
    },
    {
      "id": "id_m8f9dl4b1mnwl0o97",
      "pitch": 56,
      "pitchName": "G#3",
      "frequencyHz": 207.652349,
      "startTick": 54720,
      "durationTicks": 160,
      "endTick": 54880,
      "startSeconds": 49.565,
      "durationSeconds": 0.145,
      "endSeconds": 49.71,
      "velocity": 0.7,
      "bendActive": false,
      "instrument": 1
    },
    {
      "id": "id_j8invn98bmnwl0o97",
      "pitch": 73,
      "pitchName": "C#5",
      "frequencyHz": 554.365262,
      "startTick": 54720,
      "durationTicks": 2880,
      "endTick": 57600,
      "startSeconds": 49.565,
      "durationSeconds": 2.609,
      "endSeconds": 52.174,
      "velocity": 0.25,
      "bendActive": true,
      "instrument": 1
    },
    {
      "id": "id_no2aj0hiymnwl0o97",
      "pitch": 32,
      "pitchName": "G#1",
      "frequencyHz": 51.913087,
      "startTick": 54960,
      "durationTicks": 240,
      "endTick": 55200,
      "startSeconds": 49.783,
      "durationSeconds": 0.217,
      "endSeconds": 50,
      "velocity": 0.45,
      "bendActive": false,
      "instrument": 0
    },
    {
      "id": "id_nq7na7sdhmnwl0o97",
      "pitch": 51,
      "pitchName": "D#3",
      "frequencyHz": 155.563492,
      "startTick": 54960,
      "durationTicks": 240,
      "endTick": 55200,
      "startSeconds": 49.783,
      "durationSeconds": 0.217,
      "endSeconds": 50,
      "velocity": 0.45,
      "bendActive": false,
      "instrument": 0
    },
    {
      "id": "id_3iuo6xlvmmnwl0o97",
      "pitch": 56,
      "pitchName": "G#3",
      "frequencyHz": 207.652349,
      "startTick": 54960,
      "durationTicks": 160,
      "endTick": 55120,
      "startSeconds": 49.783,
      "durationSeconds": 0.145,
      "endSeconds": 49.928,
      "velocity": 0.45,
      "bendActive": false,
      "instrument": 1
    },
    {
      "id": "id_jgdzhxixjmnwl0o97",
      "pitch": 32,
      "pitchName": "G#1",
      "frequencyHz": 51.913087,
      "startTick": 55200,
      "durationTicks": 240,
      "endTick": 55440,
      "startSeconds": 50,
      "durationSeconds": 0.217,
      "endSeconds": 50.217,
      "velocity": 0.6,
      "bendActive": false,
      "instrument": 0
    },
    {
      "id": "id_bva6k1ydgmnwl0o97",
      "pitch": 51,
      "pitchName": "D#3",
      "frequencyHz": 155.563492,
      "startTick": 55200,
      "durationTicks": 240,
      "endTick": 55440,
      "startSeconds": 50,
      "durationSeconds": 0.217,
      "endSeconds": 50.217,
      "velocity": 0.6,
      "bendActive": false,
      "instrument": 0
    },
    {
      "id": "id_wlfnv3jghmnwl0o97",
      "pitch": 56,
      "pitchName": "G#3",
      "frequencyHz": 207.652349,
      "startTick": 55200,
      "durationTicks": 160,
      "endTick": 55360,
      "startSeconds": 50,
      "durationSeconds": 0.145,
      "endSeconds": 50.145,
      "velocity": 0.6,
      "bendActive": false,
      "instrument": 1
    },
    {
      "id": "id_6r60p9lu4mnwl0o97",
      "pitch": 32,
      "pitchName": "G#1",
      "frequencyHz": 51.913087,
      "startTick": 55440,
      "durationTicks": 240,
      "endTick": 55680,
      "startSeconds": 50.217,
      "durationSeconds": 0.217,
      "endSeconds": 50.435,
      "velocity": 0.8,
      "bendActive": false,
      "instrument": 0
    },
    {
      "id": "id_1rz1r8wp6mnwl0o97",
      "pitch": 51,
      "pitchName": "D#3",
      "frequencyHz": 155.563492,
      "startTick": 55440,
      "durationTicks": 240,
      "endTick": 55680,
      "startSeconds": 50.217,
      "durationSeconds": 0.217,
      "endSeconds": 50.435,
      "velocity": 0.8,
      "bendActive": false,
      "instrument": 0
    },
    {
      "id": "id_f4502tkp9mnwl0o97",
      "pitch": 56,
      "pitchName": "G#3",
      "frequencyHz": 207.652349,
      "startTick": 55440,
      "durationTicks": 160,
      "endTick": 55600,
      "startSeconds": 50.217,
      "durationSeconds": 0.145,
      "endSeconds": 50.362,
      "velocity": 0.8,
      "bendActive": false,
      "instrument": 1
    },
    {
      "id": "id_nsv06rjxlmnwl0o97",
      "pitch": 32,
      "pitchName": "G#1",
      "frequencyHz": 51.913087,
      "startTick": 55680,
      "durationTicks": 240,
      "endTick": 55920,
      "startSeconds": 50.435,
      "durationSeconds": 0.217,
      "endSeconds": 50.652,
      "velocity": 0.5,
      "bendActive": false,
      "instrument": 0
    },
    {
      "id": "id_pki2fww30mnwl0o97",
      "pitch": 51,
      "pitchName": "D#3",
      "frequencyHz": 155.563492,
      "startTick": 55680,
      "durationTicks": 240,
      "endTick": 55920,
      "startSeconds": 50.435,
      "durationSeconds": 0.217,
      "endSeconds": 50.652,
      "velocity": 0.5,
      "bendActive": false,
      "instrument": 0
    },
    {
      "id": "id_oxiuwog07mnwl0o97",
      "pitch": 56,
      "pitchName": "G#3",
      "frequencyHz": 207.652349,
      "startTick": 55680,
      "durationTicks": 160,
      "endTick": 55840,
      "startSeconds": 50.435,
      "durationSeconds": 0.145,
      "endSeconds": 50.58,
      "velocity": 0.5,
      "bendActive": false,
      "instrument": 1
    },
    {
      "id": "id_hrst3qvqumnwl0o97",
      "pitch": 32,
      "pitchName": "G#1",
      "frequencyHz": 51.913087,
      "startTick": 55920,
      "durationTicks": 240,
      "endTick": 56160,
      "startSeconds": 50.652,
      "durationSeconds": 0.217,
      "endSeconds": 50.87,
      "velocity": 0.6,
      "bendActive": false,
      "instrument": 0
    },
    {
      "id": "id_79g3omr15mnwl0o97",
      "pitch": 51,
      "pitchName": "D#3",
      "frequencyHz": 155.563492,
      "startTick": 55920,
      "durationTicks": 240,
      "endTick": 56160,
      "startSeconds": 50.652,
      "durationSeconds": 0.217,
      "endSeconds": 50.87,
      "velocity": 0.6,
      "bendActive": false,
      "instrument": 0
    },
    {
      "id": "id_b0wa6ggrgmnwl0o97",
      "pitch": 56,
      "pitchName": "G#3",
      "frequencyHz": 207.652349,
      "startTick": 55920,
      "durationTicks": 160,
      "endTick": 56080,
      "startSeconds": 50.652,
      "durationSeconds": 0.145,
      "endSeconds": 50.797,
      "velocity": 0.6,
      "bendActive": false,
      "instrument": 1
    },
    {
      "id": "id_f0l8ghfe8mnwl0o97",
      "pitch": 32,
      "pitchName": "G#1",
      "frequencyHz": 51.913087,
      "startTick": 56160,
      "durationTicks": 240,
      "endTick": 56400,
      "startSeconds": 50.87,
      "durationSeconds": 0.217,
      "endSeconds": 51.087,
      "velocity": 0.8,
      "bendActive": false,
      "instrument": 0
    },
    {
      "id": "id_9iisi68sfmnwl0o97",
      "pitch": 51,
      "pitchName": "D#3",
      "frequencyHz": 155.563492,
      "startTick": 56160,
      "durationTicks": 240,
      "endTick": 56400,
      "startSeconds": 50.87,
      "durationSeconds": 0.217,
      "endSeconds": 51.087,
      "velocity": 0.7,
      "bendActive": false,
      "instrument": 0
    },
    {
      "id": "id_f2268jm0zmnwl0o97",
      "pitch": 56,
      "pitchName": "G#3",
      "frequencyHz": 207.652349,
      "startTick": 56160,
      "durationTicks": 160,
      "endTick": 56320,
      "startSeconds": 50.87,
      "durationSeconds": 0.145,
      "endSeconds": 51.014,
      "velocity": 0.7,
      "bendActive": false,
      "instrument": 1
    },
    {
      "id": "id_iwmyky4bsmnwl0o97",
      "pitch": 32,
      "pitchName": "G#1",
      "frequencyHz": 51.913087,
      "startTick": 56400,
      "durationTicks": 240,
      "endTick": 56640,
      "startSeconds": 51.087,
      "durationSeconds": 0.217,
      "endSeconds": 51.304,
      "velocity": 0.45,
      "bendActive": false,
      "instrument": 0
    },
    {
      "id": "id_7mxngus8wmnwl0o97",
      "pitch": 51,
      "pitchName": "D#3",
      "frequencyHz": 155.563492,
      "startTick": 56400,
      "durationTicks": 240,
      "endTick": 56640,
      "startSeconds": 51.087,
      "durationSeconds": 0.217,
      "endSeconds": 51.304,
      "velocity": 0.45,
      "bendActive": false,
      "instrument": 0
    },
    {
      "id": "id_na3nesb66mnwl0o97",
      "pitch": 56,
      "pitchName": "G#3",
      "frequencyHz": 207.652349,
      "startTick": 56400,
      "durationTicks": 160,
      "endTick": 56560,
      "startSeconds": 51.087,
      "durationSeconds": 0.145,
      "endSeconds": 51.232,
      "velocity": 0.45,
      "bendActive": false,
      "instrument": 1
    },
    {
      "id": "id_xka8oljktmnwl0o97",
      "pitch": 32,
      "pitchName": "G#1",
      "frequencyHz": 51.913087,
      "startTick": 56640,
      "durationTicks": 240,
      "endTick": 56880,
      "startSeconds": 51.304,
      "durationSeconds": 0.217,
      "endSeconds": 51.522,
      "velocity": 0.6,
      "bendActive": false,
      "instrument": 0
    },
    {
      "id": "id_fr5eujgvgmnwl0o97",
      "pitch": 51,
      "pitchName": "D#3",
      "frequencyHz": 155.563492,
      "startTick": 56640,
      "durationTicks": 240,
      "endTick": 56880,
      "startSeconds": 51.304,
      "durationSeconds": 0.217,
      "endSeconds": 51.522,
      "velocity": 0.6,
      "bendActive": false,
      "instrument": 0
    },
    {
      "id": "id_s96e2xgdpmnwl0o97",
      "pitch": 56,
      "pitchName": "G#3",
      "frequencyHz": 207.652349,
      "startTick": 56640,
      "durationTicks": 160,
      "endTick": 56800,
      "startSeconds": 51.304,
      "durationSeconds": 0.145,
      "endSeconds": 51.449,
      "velocity": 0.6,
      "bendActive": false,
      "instrument": 1
    },
    {
      "id": "id_126kgowc8mnwl0o97",
      "pitch": 32,
      "pitchName": "G#1",
      "frequencyHz": 51.913087,
      "startTick": 56880,
      "durationTicks": 240,
      "endTick": 57120,
      "startSeconds": 51.522,
      "durationSeconds": 0.217,
      "endSeconds": 51.739,
      "velocity": 0.8,
      "bendActive": false,
      "instrument": 0
    },
    {
      "id": "id_pr2n8i6vsmnwl0o97",
      "pitch": 51,
      "pitchName": "D#3",
      "frequencyHz": 155.563492,
      "startTick": 56880,
      "durationTicks": 240,
      "endTick": 57120,
      "startSeconds": 51.522,
      "durationSeconds": 0.217,
      "endSeconds": 51.739,
      "velocity": 0.8,
      "bendActive": false,
      "instrument": 0
    },
    {
      "id": "id_otjxbzsbemnwl0o97",
      "pitch": 56,
      "pitchName": "G#3",
      "frequencyHz": 207.652349,
      "startTick": 56880,
      "durationTicks": 160,
      "endTick": 57040,
      "startSeconds": 51.522,
      "durationSeconds": 0.145,
      "endSeconds": 51.667,
      "velocity": 0.8,
      "bendActive": false,
      "instrument": 1
    },
    {
      "id": "id_418mxb5ipmnwl0o97",
      "pitch": 32,
      "pitchName": "G#1",
      "frequencyHz": 51.913087,
      "startTick": 57120,
      "durationTicks": 240,
      "endTick": 57360,
      "startSeconds": 51.739,
      "durationSeconds": 0.217,
      "endSeconds": 51.957,
      "velocity": 0.5,
      "bendActive": false,
      "instrument": 0
    },
    {
      "id": "id_2tt0bx6b5mnwl0o97",
      "pitch": 51,
      "pitchName": "D#3",
      "frequencyHz": 155.563492,
      "startTick": 57120,
      "durationTicks": 240,
      "endTick": 57360,
      "startSeconds": 51.739,
      "durationSeconds": 0.217,
      "endSeconds": 51.957,
      "velocity": 0.5,
      "bendActive": false,
      "instrument": 0
    },
    {
      "id": "id_nphcamnjhmnwl0o97",
      "pitch": 56,
      "pitchName": "G#3",
      "frequencyHz": 207.652349,
      "startTick": 57120,
      "durationTicks": 160,
      "endTick": 57280,
      "startSeconds": 51.739,
      "durationSeconds": 0.145,
      "endSeconds": 51.884,
      "velocity": 0.5,
      "bendActive": false,
      "instrument": 1
    },
    {
      "id": "id_4t783zoy0mnwl0o97",
      "pitch": 32,
      "pitchName": "G#1",
      "frequencyHz": 51.913087,
      "startTick": 57360,
      "durationTicks": 240,
      "endTick": 57600,
      "startSeconds": 51.957,
      "durationSeconds": 0.217,
      "endSeconds": 52.174,
      "velocity": 0.6,
      "bendActive": false,
      "instrument": 0
    },
    {
      "id": "id_lciakmm54mnwl0o97",
      "pitch": 51,
      "pitchName": "D#3",
      "frequencyHz": 155.563492,
      "startTick": 57360,
      "durationTicks": 240,
      "endTick": 57600,
      "startSeconds": 51.957,
      "durationSeconds": 0.217,
      "endSeconds": 52.174,
      "velocity": 0.6,
      "bendActive": false,
      "instrument": 0
    },
    {
      "id": "id_z22w45xabmnwl0o97",
      "pitch": 56,
      "pitchName": "G#3",
      "frequencyHz": 207.652349,
      "startTick": 57360,
      "durationTicks": 160,
      "endTick": 57520,
      "startSeconds": 51.957,
      "durationSeconds": 0.145,
      "endSeconds": 52.101,
      "velocity": 0.6,
      "bendActive": false,
      "instrument": 1
    },
    {
      "id": "id_o5nbxfh78mnwl0o97",
      "pitch": 25,
      "pitchName": "C#1",
      "frequencyHz": 34.647829,
      "startTick": 57600,
      "durationTicks": 240,
      "endTick": 57840,
      "startSeconds": 52.174,
      "durationSeconds": 0.217,
      "endSeconds": 52.391,
      "velocity": 0.95,
      "bendActive": false,
      "instrument": 0
    },
    {
      "id": "id_d27x8cplumnwl0o97",
      "pitch": 44,
      "pitchName": "G#2",
      "frequencyHz": 103.826174,
      "startTick": 57600,
      "durationTicks": 240,
      "endTick": 57840,
      "startSeconds": 52.174,
      "durationSeconds": 0.217,
      "endSeconds": 52.391,
      "velocity": 0.7,
      "bendActive": false,
      "instrument": 0
    },
    {
      "id": "id_npwsspavrmnwl0o97",
      "pitch": 56,
      "pitchName": "G#3",
      "frequencyHz": 207.652349,
      "startTick": 57600,
      "durationTicks": 160,
      "endTick": 57760,
      "startSeconds": 52.174,
      "durationSeconds": 0.145,
      "endSeconds": 52.319,
      "velocity": 0.7,
      "bendActive": false,
      "instrument": 1
    },
    {
      "id": "id_hei1pn4x1mnwl0o97",
      "pitch": 25,
      "pitchName": "C#1",
      "frequencyHz": 34.647829,
      "startTick": 57840,
      "durationTicks": 240,
      "endTick": 58080,
      "startSeconds": 52.391,
      "durationSeconds": 0.217,
      "endSeconds": 52.609,
      "velocity": 0.45,
      "bendActive": false,
      "instrument": 0
    },
    {
      "id": "id_hl1aktc5pmnwl0o97",
      "pitch": 44,
      "pitchName": "G#2",
      "frequencyHz": 103.826174,
      "startTick": 57840,
      "durationTicks": 240,
      "endTick": 58080,
      "startSeconds": 52.391,
      "durationSeconds": 0.217,
      "endSeconds": 52.609,
      "velocity": 0.45,
      "bendActive": false,
      "instrument": 0
    },
    {
      "id": "id_wxkf6n3anmnwl0o97",
      "pitch": 56,
      "pitchName": "G#3",
      "frequencyHz": 207.652349,
      "startTick": 57840,
      "durationTicks": 160,
      "endTick": 58000,
      "startSeconds": 52.391,
      "durationSeconds": 0.145,
      "endSeconds": 52.536,
      "velocity": 0.45,
      "bendActive": false,
      "instrument": 1
    },
    {
      "id": "id_npn6ubryxmnwl0o97",
      "pitch": 25,
      "pitchName": "C#1",
      "frequencyHz": 34.647829,
      "startTick": 58080,
      "durationTicks": 240,
      "endTick": 58320,
      "startSeconds": 52.609,
      "durationSeconds": 0.217,
      "endSeconds": 52.826,
      "velocity": 0.6,
      "bendActive": false,
      "instrument": 0
    },
    {
      "id": "id_rjyrsjlf4mnwl0o97",
      "pitch": 44,
      "pitchName": "G#2",
      "frequencyHz": 103.826174,
      "startTick": 58080,
      "durationTicks": 240,
      "endTick": 58320,
      "startSeconds": 52.609,
      "durationSeconds": 0.217,
      "endSeconds": 52.826,
      "velocity": 0.6,
      "bendActive": false,
      "instrument": 0
    },
    {
      "id": "id_ddqi0quipmnwl0o97",
      "pitch": 56,
      "pitchName": "G#3",
      "frequencyHz": 207.652349,
      "startTick": 58080,
      "durationTicks": 160,
      "endTick": 58240,
      "startSeconds": 52.609,
      "durationSeconds": 0.145,
      "endSeconds": 52.754,
      "velocity": 0.6,
      "bendActive": false,
      "instrument": 1
    },
    {
      "id": "id_1p28f3eosmnwl0o97",
      "pitch": 25,
      "pitchName": "C#1",
      "frequencyHz": 34.647829,
      "startTick": 58320,
      "durationTicks": 240,
      "endTick": 58560,
      "startSeconds": 52.826,
      "durationSeconds": 0.217,
      "endSeconds": 53.043,
      "velocity": 0.8,
      "bendActive": false,
      "instrument": 0
    },
    {
      "id": "id_fpobw5ti2mnwl0o97",
      "pitch": 44,
      "pitchName": "G#2",
      "frequencyHz": 103.826174,
      "startTick": 58320,
      "durationTicks": 240,
      "endTick": 58560,
      "startSeconds": 52.826,
      "durationSeconds": 0.217,
      "endSeconds": 53.043,
      "velocity": 0.8,
      "bendActive": false,
      "instrument": 0
    },
    {
      "id": "id_q7azwx6z5mnwl0o97",
      "pitch": 56,
      "pitchName": "G#3",
      "frequencyHz": 207.652349,
      "startTick": 58320,
      "durationTicks": 160,
      "endTick": 58480,
      "startSeconds": 52.826,
      "durationSeconds": 0.145,
      "endSeconds": 52.971,
      "velocity": 0.8,
      "bendActive": false,
      "instrument": 1
    },
    {
      "id": "id_7bccgnqphmnwl0o97",
      "pitch": 25,
      "pitchName": "C#1",
      "frequencyHz": 34.647829,
      "startTick": 58560,
      "durationTicks": 240,
      "endTick": 58800,
      "startSeconds": 53.043,
      "durationSeconds": 0.217,
      "endSeconds": 53.261,
      "velocity": 0.5,
      "bendActive": false,
      "instrument": 0
    },
    {
      "id": "id_ohf51t3vvmnwl0o97",
      "pitch": 44,
      "pitchName": "G#2",
      "frequencyHz": 103.826174,
      "startTick": 58560,
      "durationTicks": 240,
      "endTick": 58800,
      "startSeconds": 53.043,
      "durationSeconds": 0.217,
      "endSeconds": 53.261,
      "velocity": 0.5,
      "bendActive": false,
      "instrument": 0
    },
    {
      "id": "id_2ucjzhobymnwl0o97",
      "pitch": 56,
      "pitchName": "G#3",
      "frequencyHz": 207.652349,
      "startTick": 58560,
      "durationTicks": 160,
      "endTick": 58720,
      "startSeconds": 53.043,
      "durationSeconds": 0.145,
      "endSeconds": 53.188,
      "velocity": 0.5,
      "bendActive": false,
      "instrument": 1
    },
    {
      "id": "id_ifacd9tfzmnwl0o97",
      "pitch": 25,
      "pitchName": "C#1",
      "frequencyHz": 34.647829,
      "startTick": 58800,
      "durationTicks": 240,
      "endTick": 59040,
      "startSeconds": 53.261,
      "durationSeconds": 0.217,
      "endSeconds": 53.478,
      "velocity": 0.6,
      "bendActive": false,
      "instrument": 0
    },
    {
      "id": "id_uumubtikumnwl0o97",
      "pitch": 44,
      "pitchName": "G#2",
      "frequencyHz": 103.826174,
      "startTick": 58800,
      "durationTicks": 240,
      "endTick": 59040,
      "startSeconds": 53.261,
      "durationSeconds": 0.217,
      "endSeconds": 53.478,
      "velocity": 0.6,
      "bendActive": false,
      "instrument": 0
    },
    {
      "id": "id_urs15sxztmnwl0o97",
      "pitch": 56,
      "pitchName": "G#3",
      "frequencyHz": 207.652349,
      "startTick": 58800,
      "durationTicks": 160,
      "endTick": 58960,
      "startSeconds": 53.261,
      "durationSeconds": 0.145,
      "endSeconds": 53.406,
      "velocity": 0.6,
      "bendActive": false,
      "instrument": 1
    },
    {
      "id": "id_i90q2rij3mnwl0o97",
      "pitch": 25,
      "pitchName": "C#1",
      "frequencyHz": 34.647829,
      "startTick": 59040,
      "durationTicks": 240,
      "endTick": 59280,
      "startSeconds": 53.478,
      "durationSeconds": 0.217,
      "endSeconds": 53.696,
      "velocity": 0.8,
      "bendActive": false,
      "instrument": 0
    },
    {
      "id": "id_om7isw2s4mnwl0o97",
      "pitch": 44,
      "pitchName": "G#2",
      "frequencyHz": 103.826174,
      "startTick": 59040,
      "durationTicks": 240,
      "endTick": 59280,
      "startSeconds": 53.478,
      "durationSeconds": 0.217,
      "endSeconds": 53.696,
      "velocity": 0.7,
      "bendActive": false,
      "instrument": 0
    },
    {
      "id": "id_raevr0axvmnwl0o97",
      "pitch": 56,
      "pitchName": "G#3",
      "frequencyHz": 207.652349,
      "startTick": 59040,
      "durationTicks": 160,
      "endTick": 59200,
      "startSeconds": 53.478,
      "durationSeconds": 0.145,
      "endSeconds": 53.623,
      "velocity": 0.7,
      "bendActive": false,
      "instrument": 1
    },
    {
      "id": "id_90baim80gmnwl0o97",
      "pitch": 71,
      "pitchName": "B4",
      "frequencyHz": 493.883301,
      "startTick": 59040,
      "durationTicks": 480,
      "endTick": 59520,
      "startSeconds": 53.478,
      "durationSeconds": 0.435,
      "endSeconds": 53.913,
      "velocity": 0.25,
      "bendActive": true,
      "instrument": 1
    },
    {
      "id": "id_tu1mzul2amnwl0o97",
      "pitch": 25,
      "pitchName": "C#1",
      "frequencyHz": 34.647829,
      "startTick": 59280,
      "durationTicks": 240,
      "endTick": 59520,
      "startSeconds": 53.696,
      "durationSeconds": 0.217,
      "endSeconds": 53.913,
      "velocity": 0.45,
      "bendActive": false,
      "instrument": 0
    },
    {
      "id": "id_l7bb5ti1amnwl0o97",
      "pitch": 44,
      "pitchName": "G#2",
      "frequencyHz": 103.826174,
      "startTick": 59280,
      "durationTicks": 240,
      "endTick": 59520,
      "startSeconds": 53.696,
      "durationSeconds": 0.217,
      "endSeconds": 53.913,
      "velocity": 0.45,
      "bendActive": false,
      "instrument": 0
    },
    {
      "id": "id_j235xmt98mnwl0o97",
      "pitch": 56,
      "pitchName": "G#3",
      "frequencyHz": 207.652349,
      "startTick": 59280,
      "durationTicks": 160,
      "endTick": 59440,
      "startSeconds": 53.696,
      "durationSeconds": 0.145,
      "endSeconds": 53.841,
      "velocity": 0.45,
      "bendActive": false,
      "instrument": 1
    },
    {
      "id": "id_1b2cl9qt9mnwl0o97",
      "pitch": 25,
      "pitchName": "C#1",
      "frequencyHz": 34.647829,
      "startTick": 59520,
      "durationTicks": 240,
      "endTick": 59760,
      "startSeconds": 53.913,
      "durationSeconds": 0.217,
      "endSeconds": 54.13,
      "velocity": 0.6,
      "bendActive": false,
      "instrument": 0
    },
    {
      "id": "id_h123qs5k5mnwl0o97",
      "pitch": 44,
      "pitchName": "G#2",
      "frequencyHz": 103.826174,
      "startTick": 59520,
      "durationTicks": 240,
      "endTick": 59760,
      "startSeconds": 53.913,
      "durationSeconds": 0.217,
      "endSeconds": 54.13,
      "velocity": 0.6,
      "bendActive": false,
      "instrument": 0
    },
    {
      "id": "id_1xartmu0pmnwl0o97",
      "pitch": 56,
      "pitchName": "G#3",
      "frequencyHz": 207.652349,
      "startTick": 59520,
      "durationTicks": 160,
      "endTick": 59680,
      "startSeconds": 53.913,
      "durationSeconds": 0.145,
      "endSeconds": 54.058,
      "velocity": 0.6,
      "bendActive": false,
      "instrument": 1
    },
    {
      "id": "id_ahcuvnwihmnwl0o97",
      "pitch": 70,
      "pitchName": "A#4",
      "frequencyHz": 466.163762,
      "startTick": 59520,
      "durationTicks": 480,
      "endTick": 60000,
      "startSeconds": 53.913,
      "durationSeconds": 0.435,
      "endSeconds": 54.348,
      "velocity": 0.25,
      "bendActive": true,
      "instrument": 1
    },
    {
      "id": "id_fdmbxiubfmnwl0o97",
      "pitch": 25,
      "pitchName": "C#1",
      "frequencyHz": 34.647829,
      "startTick": 59760,
      "durationTicks": 240,
      "endTick": 60000,
      "startSeconds": 54.13,
      "durationSeconds": 0.217,
      "endSeconds": 54.348,
      "velocity": 0.8,
      "bendActive": false,
      "instrument": 0
    },
    {
      "id": "id_4ybyvgrfjmnwl0o97",
      "pitch": 44,
      "pitchName": "G#2",
      "frequencyHz": 103.826174,
      "startTick": 59760,
      "durationTicks": 240,
      "endTick": 60000,
      "startSeconds": 54.13,
      "durationSeconds": 0.217,
      "endSeconds": 54.348,
      "velocity": 0.8,
      "bendActive": false,
      "instrument": 0
    },
    {
      "id": "id_jb7rr20s3mnwl0o97",
      "pitch": 56,
      "pitchName": "G#3",
      "frequencyHz": 207.652349,
      "startTick": 59760,
      "durationTicks": 160,
      "endTick": 59920,
      "startSeconds": 54.13,
      "durationSeconds": 0.145,
      "endSeconds": 54.275,
      "velocity": 0.8,
      "bendActive": false,
      "instrument": 1
    },
    {
      "id": "id_gnowrwuslmnwl0o97",
      "pitch": 25,
      "pitchName": "C#1",
      "frequencyHz": 34.647829,
      "startTick": 60000,
      "durationTicks": 240,
      "endTick": 60240,
      "startSeconds": 54.348,
      "durationSeconds": 0.217,
      "endSeconds": 54.565,
      "velocity": 0.5,
      "bendActive": false,
      "instrument": 0
    },
    {
      "id": "id_b03d21hfdmnwl0o97",
      "pitch": 44,
      "pitchName": "G#2",
      "frequencyHz": 103.826174,
      "startTick": 60000,
      "durationTicks": 240,
      "endTick": 60240,
      "startSeconds": 54.348,
      "durationSeconds": 0.217,
      "endSeconds": 54.565,
      "velocity": 0.5,
      "bendActive": false,
      "instrument": 0
    },
    {
      "id": "id_ut31djwvzmnwl0o97",
      "pitch": 56,
      "pitchName": "G#3",
      "frequencyHz": 207.652349,
      "startTick": 60000,
      "durationTicks": 160,
      "endTick": 60160,
      "startSeconds": 54.348,
      "durationSeconds": 0.145,
      "endSeconds": 54.493,
      "velocity": 0.5,
      "bendActive": false,
      "instrument": 1
    },
    {
      "id": "id_u72a4h3y9mnwl0o97",
      "pitch": 66,
      "pitchName": "F#4",
      "frequencyHz": 369.994423,
      "startTick": 60000,
      "durationTicks": 480,
      "endTick": 60480,
      "startSeconds": 54.348,
      "durationSeconds": 0.435,
      "endSeconds": 54.783,
      "velocity": 0.25,
      "bendActive": true,
      "instrument": 1
    },
    {
      "id": "id_n1miahy25mnwl0o97",
      "pitch": 25,
      "pitchName": "C#1",
      "frequencyHz": 34.647829,
      "startTick": 60240,
      "durationTicks": 240,
      "endTick": 60480,
      "startSeconds": 54.565,
      "durationSeconds": 0.217,
      "endSeconds": 54.783,
      "velocity": 0.6,
      "bendActive": false,
      "instrument": 0
    },
    {
      "id": "id_p7m0aqk7tmnwl0o97",
      "pitch": 44,
      "pitchName": "G#2",
      "frequencyHz": 103.826174,
      "startTick": 60240,
      "durationTicks": 240,
      "endTick": 60480,
      "startSeconds": 54.565,
      "durationSeconds": 0.217,
      "endSeconds": 54.783,
      "velocity": 0.6,
      "bendActive": false,
      "instrument": 0
    },
    {
      "id": "id_stt14ounimnwl0o97",
      "pitch": 56,
      "pitchName": "G#3",
      "frequencyHz": 207.652349,
      "startTick": 60240,
      "durationTicks": 160,
      "endTick": 60400,
      "startSeconds": 54.565,
      "durationSeconds": 0.145,
      "endSeconds": 54.71,
      "velocity": 0.6,
      "bendActive": false,
      "instrument": 1
    },
    {
      "id": "id_fyiyd6ahxmnwl0o97",
      "pitch": 27,
      "pitchName": "D#1",
      "frequencyHz": 38.890873,
      "startTick": 60480,
      "durationTicks": 240,
      "endTick": 60720,
      "startSeconds": 54.783,
      "durationSeconds": 0.217,
      "endSeconds": 55,
      "velocity": 0.95,
      "bendActive": false,
      "instrument": 0
    },
    {
      "id": "id_1iimlyco5mnwl0o97",
      "pitch": 46,
      "pitchName": "A#2",
      "frequencyHz": 116.54094,
      "startTick": 60480,
      "durationTicks": 240,
      "endTick": 60720,
      "startSeconds": 54.783,
      "durationSeconds": 0.217,
      "endSeconds": 55,
      "velocity": 0.7,
      "bendActive": false,
      "instrument": 0
    },
    {
      "id": "id_k9kqflqvdmnwl0o97",
      "pitch": 54,
      "pitchName": "F#3",
      "frequencyHz": 184.997211,
      "startTick": 60480,
      "durationTicks": 160,
      "endTick": 60640,
      "startSeconds": 54.783,
      "durationSeconds": 0.145,
      "endSeconds": 54.928,
      "velocity": 0.7,
      "bendActive": false,
      "instrument": 1
    },
    {
      "id": "id_j5yojciqamnwl0o97",
      "pitch": 61,
      "pitchName": "C#4",
      "frequencyHz": 277.182631,
      "startTick": 60480,
      "durationTicks": 480,
      "endTick": 60960,
      "startSeconds": 54.783,
      "durationSeconds": 0.435,
      "endSeconds": 55.217,
      "velocity": 0.3,
      "bendActive": true,
      "instrument": 1
    },
    {
      "id": "id_v1rpb5eslmnwl0o97",
      "pitch": 27,
      "pitchName": "D#1",
      "frequencyHz": 38.890873,
      "startTick": 60720,
      "durationTicks": 240,
      "endTick": 60960,
      "startSeconds": 55,
      "durationSeconds": 0.217,
      "endSeconds": 55.217,
      "velocity": 0.45,
      "bendActive": false,
      "instrument": 0
    },
    {
      "id": "id_8asata1tlmnwl0o97",
      "pitch": 46,
      "pitchName": "A#2",
      "frequencyHz": 116.54094,
      "startTick": 60720,
      "durationTicks": 240,
      "endTick": 60960,
      "startSeconds": 55,
      "durationSeconds": 0.217,
      "endSeconds": 55.217,
      "velocity": 0.45,
      "bendActive": false,
      "instrument": 0
    },
    {
      "id": "id_ngku6rulwmnwl0o97",
      "pitch": 54,
      "pitchName": "F#3",
      "frequencyHz": 184.997211,
      "startTick": 60720,
      "durationTicks": 160,
      "endTick": 60880,
      "startSeconds": 55,
      "durationSeconds": 0.145,
      "endSeconds": 55.145,
      "velocity": 0.45,
      "bendActive": false,
      "instrument": 1
    },
    {
      "id": "id_wx5h9oxhfmnwl0o97",
      "pitch": 27,
      "pitchName": "D#1",
      "frequencyHz": 38.890873,
      "startTick": 60960,
      "durationTicks": 240,
      "endTick": 61200,
      "startSeconds": 55.217,
      "durationSeconds": 0.217,
      "endSeconds": 55.435,
      "velocity": 0.6,
      "bendActive": false,
      "instrument": 0
    },
    {
      "id": "id_r497pwx4gmnwl0o97",
      "pitch": 46,
      "pitchName": "A#2",
      "frequencyHz": 116.54094,
      "startTick": 60960,
      "durationTicks": 240,
      "endTick": 61200,
      "startSeconds": 55.217,
      "durationSeconds": 0.217,
      "endSeconds": 55.435,
      "velocity": 0.6,
      "bendActive": false,
      "instrument": 0
    },
    {
      "id": "id_bkjoscbl2mnwl0o97",
      "pitch": 54,
      "pitchName": "F#3",
      "frequencyHz": 184.997211,
      "startTick": 60960,
      "durationTicks": 160,
      "endTick": 61120,
      "startSeconds": 55.217,
      "durationSeconds": 0.145,
      "endSeconds": 55.362,
      "velocity": 0.6,
      "bendActive": false,
      "instrument": 1
    },
    {
      "id": "id_zwirwgsl0mnwl0o97",
      "pitch": 27,
      "pitchName": "D#1",
      "frequencyHz": 38.890873,
      "startTick": 61200,
      "durationTicks": 240,
      "endTick": 61440,
      "startSeconds": 55.435,
      "durationSeconds": 0.217,
      "endSeconds": 55.652,
      "velocity": 0.8,
      "bendActive": false,
      "instrument": 0
    },
    {
      "id": "id_qs84ti710mnwl0o97",
      "pitch": 46,
      "pitchName": "A#2",
      "frequencyHz": 116.54094,
      "startTick": 61200,
      "durationTicks": 240,
      "endTick": 61440,
      "startSeconds": 55.435,
      "durationSeconds": 0.217,
      "endSeconds": 55.652,
      "velocity": 0.8,
      "bendActive": false,
      "instrument": 0
    },
    {
      "id": "id_ng0sqzcl1mnwl0o97",
      "pitch": 54,
      "pitchName": "F#3",
      "frequencyHz": 184.997211,
      "startTick": 61200,
      "durationTicks": 160,
      "endTick": 61360,
      "startSeconds": 55.435,
      "durationSeconds": 0.145,
      "endSeconds": 55.58,
      "velocity": 0.8,
      "bendActive": false,
      "instrument": 1
    },
    {
      "id": "id_xhhv42r8fmnwl0o97",
      "pitch": 27,
      "pitchName": "D#1",
      "frequencyHz": 38.890873,
      "startTick": 61440,
      "durationTicks": 240,
      "endTick": 61680,
      "startSeconds": 55.652,
      "durationSeconds": 0.217,
      "endSeconds": 55.87,
      "velocity": 0.5,
      "bendActive": false,
      "instrument": 0
    },
    {
      "id": "id_qobi8b9p8mnwl0o97",
      "pitch": 46,
      "pitchName": "A#2",
      "frequencyHz": 116.54094,
      "startTick": 61440,
      "durationTicks": 240,
      "endTick": 61680,
      "startSeconds": 55.652,
      "durationSeconds": 0.217,
      "endSeconds": 55.87,
      "velocity": 0.5,
      "bendActive": false,
      "instrument": 0
    },
    {
      "id": "id_mps5b2vftmnwl0o97",
      "pitch": 54,
      "pitchName": "F#3",
      "frequencyHz": 184.997211,
      "startTick": 61440,
      "durationTicks": 160,
      "endTick": 61600,
      "startSeconds": 55.652,
      "durationSeconds": 0.145,
      "endSeconds": 55.797,
      "velocity": 0.5,
      "bendActive": false,
      "instrument": 1
    },
    {
      "id": "id_nnlqv77jfmnwl0o97",
      "pitch": 27,
      "pitchName": "D#1",
      "frequencyHz": 38.890873,
      "startTick": 61680,
      "durationTicks": 240,
      "endTick": 61920,
      "startSeconds": 55.87,
      "durationSeconds": 0.217,
      "endSeconds": 56.087,
      "velocity": 0.6,
      "bendActive": false,
      "instrument": 0
    },
    {
      "id": "id_8mhd6os83mnwl0o97",
      "pitch": 46,
      "pitchName": "A#2",
      "frequencyHz": 116.54094,
      "startTick": 61680,
      "durationTicks": 240,
      "endTick": 61920,
      "startSeconds": 55.87,
      "durationSeconds": 0.217,
      "endSeconds": 56.087,
      "velocity": 0.6,
      "bendActive": false,
      "instrument": 0
    },
    {
      "id": "id_nnxn9fjpgmnwl0o97",
      "pitch": 54,
      "pitchName": "F#3",
      "frequencyHz": 184.997211,
      "startTick": 61680,
      "durationTicks": 160,
      "endTick": 61840,
      "startSeconds": 55.87,
      "durationSeconds": 0.145,
      "endSeconds": 56.014,
      "velocity": 0.6,
      "bendActive": false,
      "instrument": 1
    },
    {
      "id": "id_f9c8l1mwlmnwl0o97",
      "pitch": 27,
      "pitchName": "D#1",
      "frequencyHz": 38.890873,
      "startTick": 61920,
      "durationTicks": 240,
      "endTick": 62160,
      "startSeconds": 56.087,
      "durationSeconds": 0.217,
      "endSeconds": 56.304,
      "velocity": 0.8,
      "bendActive": false,
      "instrument": 0
    },
    {
      "id": "id_u5jn51cuymnwl0o97",
      "pitch": 46,
      "pitchName": "A#2",
      "frequencyHz": 116.54094,
      "startTick": 61920,
      "durationTicks": 240,
      "endTick": 62160,
      "startSeconds": 56.087,
      "durationSeconds": 0.217,
      "endSeconds": 56.304,
      "velocity": 0.7,
      "bendActive": false,
      "instrument": 0
    },
    {
      "id": "id_mtmzygdzxmnwl0o97",
      "pitch": 54,
      "pitchName": "F#3",
      "frequencyHz": 184.997211,
      "startTick": 61920,
      "durationTicks": 160,
      "endTick": 62080,
      "startSeconds": 56.087,
      "durationSeconds": 0.145,
      "endSeconds": 56.232,
      "velocity": 0.7,
      "bendActive": false,
      "instrument": 1
    },
    {
      "id": "id_i06yfp71cmnwl0o97",
      "pitch": 70,
      "pitchName": "A#4",
      "frequencyHz": 466.163762,
      "startTick": 61920,
      "durationTicks": 480,
      "endTick": 62400,
      "startSeconds": 56.087,
      "durationSeconds": 0.435,
      "endSeconds": 56.522,
      "velocity": 0.25,
      "bendActive": true,
      "instrument": 1
    },
    {
      "id": "id_yufcerk9tmnwl0o97",
      "pitch": 27,
      "pitchName": "D#1",
      "frequencyHz": 38.890873,
      "startTick": 62160,
      "durationTicks": 240,
      "endTick": 62400,
      "startSeconds": 56.304,
      "durationSeconds": 0.217,
      "endSeconds": 56.522,
      "velocity": 0.45,
      "bendActive": false,
      "instrument": 0
    },
    {
      "id": "id_a3sl8amqemnwl0o97",
      "pitch": 46,
      "pitchName": "A#2",
      "frequencyHz": 116.54094,
      "startTick": 62160,
      "durationTicks": 240,
      "endTick": 62400,
      "startSeconds": 56.304,
      "durationSeconds": 0.217,
      "endSeconds": 56.522,
      "velocity": 0.45,
      "bendActive": false,
      "instrument": 0
    },
    {
      "id": "id_ulgc4q9rrmnwl0o97",
      "pitch": 54,
      "pitchName": "F#3",
      "frequencyHz": 184.997211,
      "startTick": 62160,
      "durationTicks": 160,
      "endTick": 62320,
      "startSeconds": 56.304,
      "durationSeconds": 0.145,
      "endSeconds": 56.449,
      "velocity": 0.45,
      "bendActive": false,
      "instrument": 1
    },
    {
      "id": "id_9usd4zgo5mnwl0o97",
      "pitch": 27,
      "pitchName": "D#1",
      "frequencyHz": 38.890873,
      "startTick": 62400,
      "durationTicks": 240,
      "endTick": 62640,
      "startSeconds": 56.522,
      "durationSeconds": 0.217,
      "endSeconds": 56.739,
      "velocity": 0.6,
      "bendActive": false,
      "instrument": 0
    },
    {
      "id": "id_ggwuh1f0umnwl0o97",
      "pitch": 46,
      "pitchName": "A#2",
      "frequencyHz": 116.54094,
      "startTick": 62400,
      "durationTicks": 240,
      "endTick": 62640,
      "startSeconds": 56.522,
      "durationSeconds": 0.217,
      "endSeconds": 56.739,
      "velocity": 0.6,
      "bendActive": false,
      "instrument": 0
    },
    {
      "id": "id_st36njhdzmnwl0o97",
      "pitch": 54,
      "pitchName": "F#3",
      "frequencyHz": 184.997211,
      "startTick": 62400,
      "durationTicks": 160,
      "endTick": 62560,
      "startSeconds": 56.522,
      "durationSeconds": 0.145,
      "endSeconds": 56.667,
      "velocity": 0.6,
      "bendActive": false,
      "instrument": 1
    },
    {
      "id": "id_nj7wfxa6fmnwl0o97",
      "pitch": 68,
      "pitchName": "G#4",
      "frequencyHz": 415.304698,
      "startTick": 62400,
      "durationTicks": 480,
      "endTick": 62880,
      "startSeconds": 56.522,
      "durationSeconds": 0.435,
      "endSeconds": 56.957,
      "velocity": 0.35,
      "bendActive": true,
      "instrument": 1
    },
    {
      "id": "id_ssuum0dsnmnwl0o97",
      "pitch": 27,
      "pitchName": "D#1",
      "frequencyHz": 38.890873,
      "startTick": 62640,
      "durationTicks": 240,
      "endTick": 62880,
      "startSeconds": 56.739,
      "durationSeconds": 0.217,
      "endSeconds": 56.957,
      "velocity": 0.8,
      "bendActive": false,
      "instrument": 0
    },
    {
      "id": "id_8j157a71hmnwl0o97",
      "pitch": 46,
      "pitchName": "A#2",
      "frequencyHz": 116.54094,
      "startTick": 62640,
      "durationTicks": 240,
      "endTick": 62880,
      "startSeconds": 56.739,
      "durationSeconds": 0.217,
      "endSeconds": 56.957,
      "velocity": 0.8,
      "bendActive": false,
      "instrument": 0
    },
    {
      "id": "id_3ra8pp9v8mnwl0o97",
      "pitch": 54,
      "pitchName": "F#3",
      "frequencyHz": 184.997211,
      "startTick": 62640,
      "durationTicks": 160,
      "endTick": 62800,
      "startSeconds": 56.739,
      "durationSeconds": 0.145,
      "endSeconds": 56.884,
      "velocity": 0.8,
      "bendActive": false,
      "instrument": 1
    },
    {
      "id": "id_tey0pdi5bmnwl0o97",
      "pitch": 27,
      "pitchName": "D#1",
      "frequencyHz": 38.890873,
      "startTick": 62880,
      "durationTicks": 240,
      "endTick": 63120,
      "startSeconds": 56.957,
      "durationSeconds": 0.217,
      "endSeconds": 57.174,
      "velocity": 0.5,
      "bendActive": false,
      "instrument": 0
    },
    {
      "id": "id_bt8petq33mnwl0o97",
      "pitch": 46,
      "pitchName": "A#2",
      "frequencyHz": 116.54094,
      "startTick": 62880,
      "durationTicks": 240,
      "endTick": 63120,
      "startSeconds": 56.957,
      "durationSeconds": 0.217,
      "endSeconds": 57.174,
      "velocity": 0.5,
      "bendActive": false,
      "instrument": 0
    },
    {
      "id": "id_esvfwsuc8mnwl0o97",
      "pitch": 54,
      "pitchName": "F#3",
      "frequencyHz": 184.997211,
      "startTick": 62880,
      "durationTicks": 160,
      "endTick": 63040,
      "startSeconds": 56.957,
      "durationSeconds": 0.145,
      "endSeconds": 57.101,
      "velocity": 0.5,
      "bendActive": false,
      "instrument": 1
    },
    {
      "id": "id_nxgui0du2mnwl0o97",
      "pitch": 59,
      "pitchName": "B3",
      "frequencyHz": 246.941651,
      "startTick": 62880,
      "durationTicks": 1920,
      "endTick": 64800,
      "startSeconds": 56.957,
      "durationSeconds": 1.739,
      "endSeconds": 58.696,
      "velocity": 0.25,
      "bendActive": true,
      "instrument": 1
    },
    {
      "id": "id_o2jlqlp7rmnwl0o97",
      "pitch": 27,
      "pitchName": "D#1",
      "frequencyHz": 38.890873,
      "startTick": 63120,
      "durationTicks": 240,
      "endTick": 63360,
      "startSeconds": 57.174,
      "durationSeconds": 0.217,
      "endSeconds": 57.391,
      "velocity": 0.6,
      "bendActive": false,
      "instrument": 0
    },
    {
      "id": "id_3pw9w5v5ymnwl0o97",
      "pitch": 46,
      "pitchName": "A#2",
      "frequencyHz": 116.54094,
      "startTick": 63120,
      "durationTicks": 240,
      "endTick": 63360,
      "startSeconds": 57.174,
      "durationSeconds": 0.217,
      "endSeconds": 57.391,
      "velocity": 0.6,
      "bendActive": false,
      "instrument": 0
    },
    {
      "id": "id_jyaegubzumnwl0o97",
      "pitch": 54,
      "pitchName": "F#3",
      "frequencyHz": 184.997211,
      "startTick": 63120,
      "durationTicks": 160,
      "endTick": 63280,
      "startSeconds": 57.174,
      "durationSeconds": 0.145,
      "endSeconds": 57.319,
      "velocity": 0.6,
      "bendActive": false,
      "instrument": 1
    },
    {
      "id": "id_5hf40bie2mnwl0o97",
      "pitch": 32,
      "pitchName": "G#1",
      "frequencyHz": 51.913087,
      "startTick": 63360,
      "durationTicks": 240,
      "endTick": 63600,
      "startSeconds": 57.391,
      "durationSeconds": 0.217,
      "endSeconds": 57.609,
      "velocity": 0.95,
      "bendActive": false,
      "instrument": 0
    },
    {
      "id": "id_y2yiy7ijqmnwl0o97",
      "pitch": 51,
      "pitchName": "D#3",
      "frequencyHz": 155.563492,
      "startTick": 63360,
      "durationTicks": 240,
      "endTick": 63600,
      "startSeconds": 57.391,
      "durationSeconds": 0.217,
      "endSeconds": 57.609,
      "velocity": 0.7,
      "bendActive": false,
      "instrument": 0
    },
    {
      "id": "id_0u1fnwec3mnwl0o97",
      "pitch": 56,
      "pitchName": "G#3",
      "frequencyHz": 207.652349,
      "startTick": 63360,
      "durationTicks": 160,
      "endTick": 63520,
      "startSeconds": 57.391,
      "durationSeconds": 0.145,
      "endSeconds": 57.536,
      "velocity": 0.7,
      "bendActive": false,
      "instrument": 1
    },
    {
      "id": "id_ne82x4emnmnwl0o97",
      "pitch": 32,
      "pitchName": "G#1",
      "frequencyHz": 51.913087,
      "startTick": 63600,
      "durationTicks": 240,
      "endTick": 63840,
      "startSeconds": 57.609,
      "durationSeconds": 0.217,
      "endSeconds": 57.826,
      "velocity": 0.45,
      "bendActive": false,
      "instrument": 0
    },
    {
      "id": "id_flre20wstmnwl0o97",
      "pitch": 51,
      "pitchName": "D#3",
      "frequencyHz": 155.563492,
      "startTick": 63600,
      "durationTicks": 240,
      "endTick": 63840,
      "startSeconds": 57.609,
      "durationSeconds": 0.217,
      "endSeconds": 57.826,
      "velocity": 0.45,
      "bendActive": false,
      "instrument": 0
    },
    {
      "id": "id_t5lrszmpgmnwl0o97",
      "pitch": 56,
      "pitchName": "G#3",
      "frequencyHz": 207.652349,
      "startTick": 63600,
      "durationTicks": 160,
      "endTick": 63760,
      "startSeconds": 57.609,
      "durationSeconds": 0.145,
      "endSeconds": 57.754,
      "velocity": 0.45,
      "bendActive": false,
      "instrument": 1
    },
    {
      "id": "id_6d4g2v3jbmnwl0o97",
      "pitch": 32,
      "pitchName": "G#1",
      "frequencyHz": 51.913087,
      "startTick": 63840,
      "durationTicks": 240,
      "endTick": 64080,
      "startSeconds": 57.826,
      "durationSeconds": 0.217,
      "endSeconds": 58.043,
      "velocity": 0.6,
      "bendActive": false,
      "instrument": 0
    },
    {
      "id": "id_ad2z4w6lemnwl0o97",
      "pitch": 51,
      "pitchName": "D#3",
      "frequencyHz": 155.563492,
      "startTick": 63840,
      "durationTicks": 240,
      "endTick": 64080,
      "startSeconds": 57.826,
      "durationSeconds": 0.217,
      "endSeconds": 58.043,
      "velocity": 0.6,
      "bendActive": false,
      "instrument": 0
    },
    {
      "id": "id_pupbdbgzamnwl0o97",
      "pitch": 56,
      "pitchName": "G#3",
      "frequencyHz": 207.652349,
      "startTick": 63840,
      "durationTicks": 160,
      "endTick": 64000,
      "startSeconds": 57.826,
      "durationSeconds": 0.145,
      "endSeconds": 57.971,
      "velocity": 0.6,
      "bendActive": false,
      "instrument": 1
    },
    {
      "id": "id_z7ocseb37mnwl0o97",
      "pitch": 32,
      "pitchName": "G#1",
      "frequencyHz": 51.913087,
      "startTick": 64080,
      "durationTicks": 240,
      "endTick": 64320,
      "startSeconds": 58.043,
      "durationSeconds": 0.217,
      "endSeconds": 58.261,
      "velocity": 0.8,
      "bendActive": false,
      "instrument": 0
    },
    {
      "id": "id_ulp01lmk0mnwl0o97",
      "pitch": 51,
      "pitchName": "D#3",
      "frequencyHz": 155.563492,
      "startTick": 64080,
      "durationTicks": 240,
      "endTick": 64320,
      "startSeconds": 58.043,
      "durationSeconds": 0.217,
      "endSeconds": 58.261,
      "velocity": 0.8,
      "bendActive": false,
      "instrument": 0
    },
    {
      "id": "id_l1k2ngv1xmnwl0o97",
      "pitch": 56,
      "pitchName": "G#3",
      "frequencyHz": 207.652349,
      "startTick": 64080,
      "durationTicks": 160,
      "endTick": 64240,
      "startSeconds": 58.043,
      "durationSeconds": 0.145,
      "endSeconds": 58.188,
      "velocity": 0.8,
      "bendActive": false,
      "instrument": 1
    },
    {
      "id": "id_gl7vmjsdemnwl0o97",
      "pitch": 32,
      "pitchName": "G#1",
      "frequencyHz": 51.913087,
      "startTick": 64320,
      "durationTicks": 240,
      "endTick": 64560,
      "startSeconds": 58.261,
      "durationSeconds": 0.217,
      "endSeconds": 58.478,
      "velocity": 0.5,
      "bendActive": false,
      "instrument": 0
    },
    {
      "id": "id_gjb5an39wmnwl0o97",
      "pitch": 51,
      "pitchName": "D#3",
      "frequencyHz": 155.563492,
      "startTick": 64320,
      "durationTicks": 240,
      "endTick": 64560,
      "startSeconds": 58.261,
      "durationSeconds": 0.217,
      "endSeconds": 58.478,
      "velocity": 0.5,
      "bendActive": false,
      "instrument": 0
    },
    {
      "id": "id_zl5q39a7fmnwl0o97",
      "pitch": 56,
      "pitchName": "G#3",
      "frequencyHz": 207.652349,
      "startTick": 64320,
      "durationTicks": 160,
      "endTick": 64480,
      "startSeconds": 58.261,
      "durationSeconds": 0.145,
      "endSeconds": 58.406,
      "velocity": 0.5,
      "bendActive": false,
      "instrument": 1
    },
    {
      "id": "id_dthlrj8mimnwl0o97",
      "pitch": 32,
      "pitchName": "G#1",
      "frequencyHz": 51.913087,
      "startTick": 64560,
      "durationTicks": 240,
      "endTick": 64800,
      "startSeconds": 58.478,
      "durationSeconds": 0.217,
      "endSeconds": 58.696,
      "velocity": 0.6,
      "bendActive": false,
      "instrument": 0
    },
    {
      "id": "id_n1i6bj574mnwl0o97",
      "pitch": 51,
      "pitchName": "D#3",
      "frequencyHz": 155.563492,
      "startTick": 64560,
      "durationTicks": 240,
      "endTick": 64800,
      "startSeconds": 58.478,
      "durationSeconds": 0.217,
      "endSeconds": 58.696,
      "velocity": 0.6,
      "bendActive": false,
      "instrument": 0
    },
    {
      "id": "id_wh5rpz8xkmnwl0o97",
      "pitch": 56,
      "pitchName": "G#3",
      "frequencyHz": 207.652349,
      "startTick": 64560,
      "durationTicks": 160,
      "endTick": 64720,
      "startSeconds": 58.478,
      "durationSeconds": 0.145,
      "endSeconds": 58.623,
      "velocity": 0.6,
      "bendActive": false,
      "instrument": 1
    },
    {
      "id": "id_kwj1vrom2mnwl0o97",
      "pitch": 32,
      "pitchName": "G#1",
      "frequencyHz": 51.913087,
      "startTick": 64800,
      "durationTicks": 240,
      "endTick": 65040,
      "startSeconds": 58.696,
      "durationSeconds": 0.217,
      "endSeconds": 58.913,
      "velocity": 0.8,
      "bendActive": false,
      "instrument": 0
    },
    {
      "id": "id_avqjc70bdmnwl0o97",
      "pitch": 51,
      "pitchName": "D#3",
      "frequencyHz": 155.563492,
      "startTick": 64800,
      "durationTicks": 240,
      "endTick": 65040,
      "startSeconds": 58.696,
      "durationSeconds": 0.217,
      "endSeconds": 58.913,
      "velocity": 0.7,
      "bendActive": false,
      "instrument": 0
    },
    {
      "id": "id_ctzzg0iknmnwl0o97",
      "pitch": 56,
      "pitchName": "G#3",
      "frequencyHz": 207.652349,
      "startTick": 64800,
      "durationTicks": 160,
      "endTick": 64960,
      "startSeconds": 58.696,
      "durationSeconds": 0.145,
      "endSeconds": 58.841,
      "velocity": 0.7,
      "bendActive": false,
      "instrument": 1
    },
    {
      "id": "id_evqveep6qmnwl0o97",
      "pitch": 32,
      "pitchName": "G#1",
      "frequencyHz": 51.913087,
      "startTick": 65040,
      "durationTicks": 240,
      "endTick": 65280,
      "startSeconds": 58.913,
      "durationSeconds": 0.217,
      "endSeconds": 59.13,
      "velocity": 0.45,
      "bendActive": false,
      "instrument": 0
    },
    {
      "id": "id_j1row9pi5mnwl0o97",
      "pitch": 51,
      "pitchName": "D#3",
      "frequencyHz": 155.563492,
      "startTick": 65040,
      "durationTicks": 240,
      "endTick": 65280,
      "startSeconds": 58.913,
      "durationSeconds": 0.217,
      "endSeconds": 59.13,
      "velocity": 0.45,
      "bendActive": false,
      "instrument": 0
    },
    {
      "id": "id_w0v4zsb5fmnwl0o97",
      "pitch": 56,
      "pitchName": "G#3",
      "frequencyHz": 207.652349,
      "startTick": 65040,
      "durationTicks": 160,
      "endTick": 65200,
      "startSeconds": 58.913,
      "durationSeconds": 0.145,
      "endSeconds": 59.058,
      "velocity": 0.45,
      "bendActive": false,
      "instrument": 1
    },
    {
      "id": "id_27jf4pu8umnwl0o97",
      "pitch": 32,
      "pitchName": "G#1",
      "frequencyHz": 51.913087,
      "startTick": 65280,
      "durationTicks": 240,
      "endTick": 65520,
      "startSeconds": 59.13,
      "durationSeconds": 0.217,
      "endSeconds": 59.348,
      "velocity": 0.6,
      "bendActive": false,
      "instrument": 0
    },
    {
      "id": "id_13jte1ogimnwl0o97",
      "pitch": 51,
      "pitchName": "D#3",
      "frequencyHz": 155.563492,
      "startTick": 65280,
      "durationTicks": 240,
      "endTick": 65520,
      "startSeconds": 59.13,
      "durationSeconds": 0.217,
      "endSeconds": 59.348,
      "velocity": 0.6,
      "bendActive": false,
      "instrument": 0
    },
    {
      "id": "id_dl6ujl57umnwl0o97",
      "pitch": 56,
      "pitchName": "G#3",
      "frequencyHz": 207.652349,
      "startTick": 65280,
      "durationTicks": 160,
      "endTick": 65440,
      "startSeconds": 59.13,
      "durationSeconds": 0.145,
      "endSeconds": 59.275,
      "velocity": 0.6,
      "bendActive": false,
      "instrument": 1
    },
    {
      "id": "id_idrwi37usmnwl0o97",
      "pitch": 32,
      "pitchName": "G#1",
      "frequencyHz": 51.913087,
      "startTick": 65520,
      "durationTicks": 240,
      "endTick": 65760,
      "startSeconds": 59.348,
      "durationSeconds": 0.217,
      "endSeconds": 59.565,
      "velocity": 0.8,
      "bendActive": false,
      "instrument": 0
    },
    {
      "id": "id_ijkaptcxwmnwl0o97",
      "pitch": 51,
      "pitchName": "D#3",
      "frequencyHz": 155.563492,
      "startTick": 65520,
      "durationTicks": 240,
      "endTick": 65760,
      "startSeconds": 59.348,
      "durationSeconds": 0.217,
      "endSeconds": 59.565,
      "velocity": 0.8,
      "bendActive": false,
      "instrument": 0
    },
    {
      "id": "id_7k52jabfbmnwl0o97",
      "pitch": 56,
      "pitchName": "G#3",
      "frequencyHz": 207.652349,
      "startTick": 65520,
      "durationTicks": 160,
      "endTick": 65680,
      "startSeconds": 59.348,
      "durationSeconds": 0.145,
      "endSeconds": 59.493,
      "velocity": 0.8,
      "bendActive": false,
      "instrument": 1
    },
    {
      "id": "id_ycwqh4s4qmnwl0o97",
      "pitch": 32,
      "pitchName": "G#1",
      "frequencyHz": 51.913087,
      "startTick": 65760,
      "durationTicks": 240,
      "endTick": 66000,
      "startSeconds": 59.565,
      "durationSeconds": 0.217,
      "endSeconds": 59.783,
      "velocity": 0.5,
      "bendActive": false,
      "instrument": 0
    },
    {
      "id": "id_4x71palwqmnwl0o97",
      "pitch": 51,
      "pitchName": "D#3",
      "frequencyHz": 155.563492,
      "startTick": 65760,
      "durationTicks": 240,
      "endTick": 66000,
      "startSeconds": 59.565,
      "durationSeconds": 0.217,
      "endSeconds": 59.783,
      "velocity": 0.5,
      "bendActive": false,
      "instrument": 0
    },
    {
      "id": "id_pgbchwoeomnwl0o97",
      "pitch": 56,
      "pitchName": "G#3",
      "frequencyHz": 207.652349,
      "startTick": 65760,
      "durationTicks": 160,
      "endTick": 65920,
      "startSeconds": 59.565,
      "durationSeconds": 0.145,
      "endSeconds": 59.71,
      "velocity": 0.5,
      "bendActive": false,
      "instrument": 1
    },
    {
      "id": "id_nzjto64pqmnwl0o97",
      "pitch": 32,
      "pitchName": "G#1",
      "frequencyHz": 51.913087,
      "startTick": 66000,
      "durationTicks": 240,
      "endTick": 66240,
      "startSeconds": 59.783,
      "durationSeconds": 0.217,
      "endSeconds": 60,
      "velocity": 0.6,
      "bendActive": false,
      "instrument": 0
    },
    {
      "id": "id_3k98sxn8qmnwl0o97",
      "pitch": 51,
      "pitchName": "D#3",
      "frequencyHz": 155.563492,
      "startTick": 66000,
      "durationTicks": 240,
      "endTick": 66240,
      "startSeconds": 59.783,
      "durationSeconds": 0.217,
      "endSeconds": 60,
      "velocity": 0.6,
      "bendActive": false,
      "instrument": 0
    },
    {
      "id": "id_nj4ntfw9dmnwl0o97",
      "pitch": 56,
      "pitchName": "G#3",
      "frequencyHz": 207.652349,
      "startTick": 66000,
      "durationTicks": 160,
      "endTick": 66160,
      "startSeconds": 59.783,
      "durationSeconds": 0.145,
      "endSeconds": 59.928,
      "velocity": 0.6,
      "bendActive": false,
      "instrument": 1
    },
    {
      "id": "id_1h3px47d2mnwl0o97",
      "pitch": 28,
      "pitchName": "E1",
      "frequencyHz": 41.203445,
      "startTick": 66240,
      "durationTicks": 240,
      "endTick": 66480,
      "startSeconds": 60,
      "durationSeconds": 0.217,
      "endSeconds": 60.217,
      "velocity": 0.95,
      "bendActive": false,
      "instrument": 0
    },
    {
      "id": "id_fp6t5mvzomnwl0o97",
      "pitch": 47,
      "pitchName": "B2",
      "frequencyHz": 123.470825,
      "startTick": 66240,
      "durationTicks": 240,
      "endTick": 66480,
      "startSeconds": 60,
      "durationSeconds": 0.217,
      "endSeconds": 60.217,
      "velocity": 0.7,
      "bendActive": false,
      "instrument": 0
    },
    {
      "id": "id_t8vxxesn0mnwl0o97",
      "pitch": 54,
      "pitchName": "F#3",
      "frequencyHz": 184.997211,
      "startTick": 66240,
      "durationTicks": 160,
      "endTick": 66400,
      "startSeconds": 60,
      "durationSeconds": 0.145,
      "endSeconds": 60.145,
      "velocity": 0.7,
      "bendActive": false,
      "instrument": 1
    },
    {
      "id": "id_95fvq7caamnwl0o97",
      "pitch": 28,
      "pitchName": "E1",
      "frequencyHz": 41.203445,
      "startTick": 66480,
      "durationTicks": 240,
      "endTick": 66720,
      "startSeconds": 60.217,
      "durationSeconds": 0.217,
      "endSeconds": 60.435,
      "velocity": 0.45,
      "bendActive": false,
      "instrument": 0
    },
    {
      "id": "id_6ddnn58dwmnwl0o97",
      "pitch": 47,
      "pitchName": "B2",
      "frequencyHz": 123.470825,
      "startTick": 66480,
      "durationTicks": 240,
      "endTick": 66720,
      "startSeconds": 60.217,
      "durationSeconds": 0.217,
      "endSeconds": 60.435,
      "velocity": 0.45,
      "bendActive": false,
      "instrument": 0
    },
    {
      "id": "id_wycsbo15umnwl0o97",
      "pitch": 54,
      "pitchName": "F#3",
      "frequencyHz": 184.997211,
      "startTick": 66480,
      "durationTicks": 160,
      "endTick": 66640,
      "startSeconds": 60.217,
      "durationSeconds": 0.145,
      "endSeconds": 60.362,
      "velocity": 0.45,
      "bendActive": false,
      "instrument": 1
    },
    {
      "id": "id_wsi9ibluqmnwl0o97",
      "pitch": 28,
      "pitchName": "E1",
      "frequencyHz": 41.203445,
      "startTick": 66720,
      "durationTicks": 240,
      "endTick": 66960,
      "startSeconds": 60.435,
      "durationSeconds": 0.217,
      "endSeconds": 60.652,
      "velocity": 0.6,
      "bendActive": false,
      "instrument": 0
    },
    {
      "id": "id_fnmr6t4w9mnwl0o97",
      "pitch": 47,
      "pitchName": "B2",
      "frequencyHz": 123.470825,
      "startTick": 66720,
      "durationTicks": 240,
      "endTick": 66960,
      "startSeconds": 60.435,
      "durationSeconds": 0.217,
      "endSeconds": 60.652,
      "velocity": 0.6,
      "bendActive": false,
      "instrument": 0
    },
    {
      "id": "id_8e6263y9cmnwl0o97",
      "pitch": 54,
      "pitchName": "F#3",
      "frequencyHz": 184.997211,
      "startTick": 66720,
      "durationTicks": 160,
      "endTick": 66880,
      "startSeconds": 60.435,
      "durationSeconds": 0.145,
      "endSeconds": 60.58,
      "velocity": 0.6,
      "bendActive": false,
      "instrument": 1
    },
    {
      "id": "id_5lhw9nb9amnwl0o97",
      "pitch": 28,
      "pitchName": "E1",
      "frequencyHz": 41.203445,
      "startTick": 66960,
      "durationTicks": 240,
      "endTick": 67200,
      "startSeconds": 60.652,
      "durationSeconds": 0.217,
      "endSeconds": 60.87,
      "velocity": 0.8,
      "bendActive": false,
      "instrument": 0
    },
    {
      "id": "id_5nin52iinmnwl0o97",
      "pitch": 47,
      "pitchName": "B2",
      "frequencyHz": 123.470825,
      "startTick": 66960,
      "durationTicks": 240,
      "endTick": 67200,
      "startSeconds": 60.652,
      "durationSeconds": 0.217,
      "endSeconds": 60.87,
      "velocity": 0.8,
      "bendActive": false,
      "instrument": 0
    },
    {
      "id": "id_glv6sdcyqmnwl0o97",
      "pitch": 54,
      "pitchName": "F#3",
      "frequencyHz": 184.997211,
      "startTick": 66960,
      "durationTicks": 160,
      "endTick": 67120,
      "startSeconds": 60.652,
      "durationSeconds": 0.145,
      "endSeconds": 60.797,
      "velocity": 0.8,
      "bendActive": false,
      "instrument": 1
    },
    {
      "id": "id_cvzabo3mpmnwl0o97",
      "pitch": 58,
      "pitchName": "A#3",
      "frequencyHz": 233.081881,
      "startTick": 66960,
      "durationTicks": 720,
      "endTick": 67680,
      "startSeconds": 60.652,
      "durationSeconds": 0.652,
      "endSeconds": 61.304,
      "velocity": 0.8,
      "bendActive": true,
      "instrument": 1
    },
    {
      "id": "id_bjhwlqwxdmnwl0o97",
      "pitch": 28,
      "pitchName": "E1",
      "frequencyHz": 41.203445,
      "startTick": 67200,
      "durationTicks": 240,
      "endTick": 67440,
      "startSeconds": 60.87,
      "durationSeconds": 0.217,
      "endSeconds": 61.087,
      "velocity": 0.5,
      "bendActive": false,
      "instrument": 0
    },
    {
      "id": "id_2agoqg6iqmnwl0o97",
      "pitch": 47,
      "pitchName": "B2",
      "frequencyHz": 123.470825,
      "startTick": 67200,
      "durationTicks": 240,
      "endTick": 67440,
      "startSeconds": 60.87,
      "durationSeconds": 0.217,
      "endSeconds": 61.087,
      "velocity": 0.5,
      "bendActive": false,
      "instrument": 0
    },
    {
      "id": "id_wf1585re1mnwl0o97",
      "pitch": 54,
      "pitchName": "F#3",
      "frequencyHz": 184.997211,
      "startTick": 67200,
      "durationTicks": 160,
      "endTick": 67360,
      "startSeconds": 60.87,
      "durationSeconds": 0.145,
      "endSeconds": 61.014,
      "velocity": 0.5,
      "bendActive": false,
      "instrument": 1
    },
    {
      "id": "id_hq929oexhmnwl0o97",
      "pitch": 28,
      "pitchName": "E1",
      "frequencyHz": 41.203445,
      "startTick": 67440,
      "durationTicks": 240,
      "endTick": 67680,
      "startSeconds": 61.087,
      "durationSeconds": 0.217,
      "endSeconds": 61.304,
      "velocity": 0.6,
      "bendActive": false,
      "instrument": 0
    },
    {
      "id": "id_0gaf58ba4mnwl0o97",
      "pitch": 47,
      "pitchName": "B2",
      "frequencyHz": 123.470825,
      "startTick": 67440,
      "durationTicks": 240,
      "endTick": 67680,
      "startSeconds": 61.087,
      "durationSeconds": 0.217,
      "endSeconds": 61.304,
      "velocity": 0.6,
      "bendActive": false,
      "instrument": 0
    },
    {
      "id": "id_fb4depficmnwl0o97",
      "pitch": 54,
      "pitchName": "F#3",
      "frequencyHz": 184.997211,
      "startTick": 67440,
      "durationTicks": 160,
      "endTick": 67600,
      "startSeconds": 61.087,
      "durationSeconds": 0.145,
      "endSeconds": 61.232,
      "velocity": 0.6,
      "bendActive": false,
      "instrument": 1
    },
    {
      "id": "id_7oqjzc8icmnwl0o97",
      "pitch": 30,
      "pitchName": "F#1",
      "frequencyHz": 46.249303,
      "startTick": 67680,
      "durationTicks": 240,
      "endTick": 67920,
      "startSeconds": 61.304,
      "durationSeconds": 0.217,
      "endSeconds": 61.522,
      "velocity": 0.95,
      "bendActive": false,
      "instrument": 0
    },
    {
      "id": "id_im5tk7db1mnwl0o97",
      "pitch": 49,
      "pitchName": "C#3",
      "frequencyHz": 138.591315,
      "startTick": 67680,
      "durationTicks": 240,
      "endTick": 67920,
      "startSeconds": 61.304,
      "durationSeconds": 0.217,
      "endSeconds": 61.522,
      "velocity": 0.7,
      "bendActive": false,
      "instrument": 0
    },
    {
      "id": "id_0vd23bsc7mnwl0o97",
      "pitch": 54,
      "pitchName": "F#3",
      "frequencyHz": 184.997211,
      "startTick": 67680,
      "durationTicks": 160,
      "endTick": 67840,
      "startSeconds": 61.304,
      "durationSeconds": 0.145,
      "endSeconds": 61.449,
      "velocity": 0.7,
      "bendActive": false,
      "instrument": 1
    },
    {
      "id": "id_5mhz9sh49mnwl0o97",
      "pitch": 59,
      "pitchName": "B3",
      "frequencyHz": 246.941651,
      "startTick": 67680,
      "durationTicks": 720,
      "endTick": 68400,
      "startSeconds": 61.304,
      "durationSeconds": 0.652,
      "endSeconds": 61.957,
      "velocity": 0.8,
      "bendActive": true,
      "instrument": 1
    },
    {
      "id": "id_3nwo14ojxmnwl0o97",
      "pitch": 30,
      "pitchName": "F#1",
      "frequencyHz": 46.249303,
      "startTick": 67920,
      "durationTicks": 240,
      "endTick": 68160,
      "startSeconds": 61.522,
      "durationSeconds": 0.217,
      "endSeconds": 61.739,
      "velocity": 0.45,
      "bendActive": false,
      "instrument": 0
    },
    {
      "id": "id_aysso20bgmnwl0o97",
      "pitch": 49,
      "pitchName": "C#3",
      "frequencyHz": 138.591315,
      "startTick": 67920,
      "durationTicks": 240,
      "endTick": 68160,
      "startSeconds": 61.522,
      "durationSeconds": 0.217,
      "endSeconds": 61.739,
      "velocity": 0.45,
      "bendActive": false,
      "instrument": 0
    },
    {
      "id": "id_casauwdi1mnwl0o97",
      "pitch": 54,
      "pitchName": "F#3",
      "frequencyHz": 184.997211,
      "startTick": 67920,
      "durationTicks": 160,
      "endTick": 68080,
      "startSeconds": 61.522,
      "durationSeconds": 0.145,
      "endSeconds": 61.667,
      "velocity": 0.45,
      "bendActive": false,
      "instrument": 1
    },
    {
      "id": "id_nmfjf9exvmnwl0o97",
      "pitch": 30,
      "pitchName": "F#1",
      "frequencyHz": 46.249303,
      "startTick": 68160,
      "durationTicks": 240,
      "endTick": 68400,
      "startSeconds": 61.739,
      "durationSeconds": 0.217,
      "endSeconds": 61.957,
      "velocity": 0.6,
      "bendActive": false,
      "instrument": 0
    },
    {
      "id": "id_l7xx17d8emnwl0o97",
      "pitch": 49,
      "pitchName": "C#3",
      "frequencyHz": 138.591315,
      "startTick": 68160,
      "durationTicks": 240,
      "endTick": 68400,
      "startSeconds": 61.739,
      "durationSeconds": 0.217,
      "endSeconds": 61.957,
      "velocity": 0.6,
      "bendActive": false,
      "instrument": 0
    },
    {
      "id": "id_6xk0qc5xomnwl0o97",
      "pitch": 54,
      "pitchName": "F#3",
      "frequencyHz": 184.997211,
      "startTick": 68160,
      "durationTicks": 160,
      "endTick": 68320,
      "startSeconds": 61.739,
      "durationSeconds": 0.145,
      "endSeconds": 61.884,
      "velocity": 0.6,
      "bendActive": false,
      "instrument": 1
    },
    {
      "id": "id_futu4lgd5mnwl0o97",
      "pitch": 30,
      "pitchName": "F#1",
      "frequencyHz": 46.249303,
      "startTick": 68400,
      "durationTicks": 240,
      "endTick": 68640,
      "startSeconds": 61.957,
      "durationSeconds": 0.217,
      "endSeconds": 62.174,
      "velocity": 0.8,
      "bendActive": false,
      "instrument": 0
    },
    {
      "id": "id_murtke3bbmnwl0o97",
      "pitch": 49,
      "pitchName": "C#3",
      "frequencyHz": 138.591315,
      "startTick": 68400,
      "durationTicks": 240,
      "endTick": 68640,
      "startSeconds": 61.957,
      "durationSeconds": 0.217,
      "endSeconds": 62.174,
      "velocity": 0.8,
      "bendActive": false,
      "instrument": 0
    },
    {
      "id": "id_krkph34ixmnwl0o97",
      "pitch": 54,
      "pitchName": "F#3",
      "frequencyHz": 184.997211,
      "startTick": 68400,
      "durationTicks": 160,
      "endTick": 68560,
      "startSeconds": 61.957,
      "durationSeconds": 0.145,
      "endSeconds": 62.101,
      "velocity": 0.8,
      "bendActive": false,
      "instrument": 1
    },
    {
      "id": "id_3yq5oqx6mmnwl0o97",
      "pitch": 70,
      "pitchName": "A#4",
      "frequencyHz": 466.163762,
      "startTick": 68400,
      "durationTicks": 720,
      "endTick": 69120,
      "startSeconds": 61.957,
      "durationSeconds": 0.652,
      "endSeconds": 62.609,
      "velocity": 0.8,
      "bendActive": false,
      "instrument": 1
    },
    {
      "id": "id_qfdchyi9tmnwl0o97",
      "pitch": 30,
      "pitchName": "F#1",
      "frequencyHz": 46.249303,
      "startTick": 68640,
      "durationTicks": 240,
      "endTick": 68880,
      "startSeconds": 62.174,
      "durationSeconds": 0.217,
      "endSeconds": 62.391,
      "velocity": 0.5,
      "bendActive": false,
      "instrument": 0
    },
    {
      "id": "id_1wwpflqp6mnwl0o97",
      "pitch": 49,
      "pitchName": "C#3",
      "frequencyHz": 138.591315,
      "startTick": 68640,
      "durationTicks": 240,
      "endTick": 68880,
      "startSeconds": 62.174,
      "durationSeconds": 0.217,
      "endSeconds": 62.391,
      "velocity": 0.5,
      "bendActive": false,
      "instrument": 0
    },
    {
      "id": "id_xd4ads191mnwl0o97",
      "pitch": 54,
      "pitchName": "F#3",
      "frequencyHz": 184.997211,
      "startTick": 68640,
      "durationTicks": 160,
      "endTick": 68800,
      "startSeconds": 62.174,
      "durationSeconds": 0.145,
      "endSeconds": 62.319,
      "velocity": 0.5,
      "bendActive": false,
      "instrument": 1
    },
    {
      "id": "id_kkum27xs3mnwl0o97",
      "pitch": 30,
      "pitchName": "F#1",
      "frequencyHz": 46.249303,
      "startTick": 68880,
      "durationTicks": 240,
      "endTick": 69120,
      "startSeconds": 62.391,
      "durationSeconds": 0.217,
      "endSeconds": 62.609,
      "velocity": 0.6,
      "bendActive": false,
      "instrument": 0
    },
    {
      "id": "id_tjr6431rcmnwl0o97",
      "pitch": 49,
      "pitchName": "C#3",
      "frequencyHz": 138.591315,
      "startTick": 68880,
      "durationTicks": 240,
      "endTick": 69120,
      "startSeconds": 62.391,
      "durationSeconds": 0.217,
      "endSeconds": 62.609,
      "velocity": 0.6,
      "bendActive": false,
      "instrument": 0
    },
    {
      "id": "id_wfyr8qifdmnwl0o97",
      "pitch": 54,
      "pitchName": "F#3",
      "frequencyHz": 184.997211,
      "startTick": 68880,
      "durationTicks": 160,
      "endTick": 69040,
      "startSeconds": 62.391,
      "durationSeconds": 0.145,
      "endSeconds": 62.536,
      "velocity": 0.6,
      "bendActive": false,
      "instrument": 1
    },
    {
      "id": "id_y7lm4fgtkmnwlmn9j",
      "pitch": 40,
      "pitchName": "E2",
      "frequencyHz": 82.406889,
      "startTick": 69120,
      "durationTicks": 240,
      "endTick": 69360,
      "startSeconds": 62.609,
      "durationSeconds": 0.217,
      "endSeconds": 62.826,
      "velocity": 0.6,
      "bendActive": true,
      "instrument": 0
    },
    {
      "id": "id_63npk5tjbmnwlmfpk",
      "pitch": 40,
      "pitchName": "E2",
      "frequencyHz": 82.406889,
      "startTick": 69120,
      "durationTicks": 240,
      "endTick": 69360,
      "startSeconds": 62.609,
      "durationSeconds": 0.217,
      "endSeconds": 62.826,
      "velocity": 0.8,
      "bendActive": true,
      "instrument": 2
    },
    {
      "id": "id_2uq85ygbamnwlmdil",
      "pitch": 47,
      "pitchName": "B2",
      "frequencyHz": 123.470825,
      "startTick": 69120,
      "durationTicks": 240,
      "endTick": 69360,
      "startSeconds": 62.609,
      "durationSeconds": 0.217,
      "endSeconds": 62.826,
      "velocity": 0.8,
      "bendActive": true,
      "instrument": 1
    },
    {
      "id": "id_bwbaj25axmnwlmhti",
      "pitch": 52,
      "pitchName": "E3",
      "frequencyHz": 164.813778,
      "startTick": 69120,
      "durationTicks": 240,
      "endTick": 69360,
      "startSeconds": 62.609,
      "durationSeconds": 0.217,
      "endSeconds": 62.826,
      "velocity": 0.8,
      "bendActive": true,
      "instrument": 2
    },
    {
      "id": "id_gpy8vid7zmnwl0o97",
      "pitch": 56,
      "pitchName": "G#3",
      "frequencyHz": 207.652349,
      "startTick": 69120,
      "durationTicks": 240,
      "endTick": 69360,
      "startSeconds": 62.609,
      "durationSeconds": 0.217,
      "endSeconds": 62.826,
      "velocity": 0.8,
      "bendActive": false,
      "instrument": 1
    },
    {
      "id": "id_82nya8hvnmnwl0o97",
      "pitch": 71,
      "pitchName": "B4",
      "frequencyHz": 493.883301,
      "startTick": 69120,
      "durationTicks": 720,
      "endTick": 69840,
      "startSeconds": 62.609,
      "durationSeconds": 0.652,
      "endSeconds": 63.261,
      "velocity": 0.8,
      "bendActive": false,
      "instrument": 1
    },
    {
      "id": "id_h6jwkuua7mnwlmriz",
      "pitch": 40,
      "pitchName": "E2",
      "frequencyHz": 82.406889,
      "startTick": 69360,
      "durationTicks": 240,
      "endTick": 69600,
      "startSeconds": 62.826,
      "durationSeconds": 0.217,
      "endSeconds": 63.043,
      "velocity": 0.6,
      "bendActive": true,
      "instrument": 0
    },
    {
      "id": "id_mkyyqnmd9mnwl0o97",
      "pitch": 40,
      "pitchName": "E2",
      "frequencyHz": 82.406889,
      "startTick": 69360,
      "durationTicks": 240,
      "endTick": 69600,
      "startSeconds": 62.826,
      "durationSeconds": 0.217,
      "endSeconds": 63.043,
      "velocity": 0.8,
      "bendActive": true,
      "instrument": 2
    },
    {
      "id": "id_eg99u2hubmnwl0o97",
      "pitch": 47,
      "pitchName": "B2",
      "frequencyHz": 123.470825,
      "startTick": 69360,
      "durationTicks": 240,
      "endTick": 69600,
      "startSeconds": 62.826,
      "durationSeconds": 0.217,
      "endSeconds": 63.043,
      "velocity": 0.8,
      "bendActive": true,
      "instrument": 1
    },
    {
      "id": "id_108oah37rmnwl0o97",
      "pitch": 52,
      "pitchName": "E3",
      "frequencyHz": 164.813778,
      "startTick": 69360,
      "durationTicks": 240,
      "endTick": 69600,
      "startSeconds": 62.826,
      "durationSeconds": 0.217,
      "endSeconds": 63.043,
      "velocity": 0.8,
      "bendActive": true,
      "instrument": 2
    },
    {
      "id": "id_zgx182htsmnwlmtdh",
      "pitch": 40,
      "pitchName": "E2",
      "frequencyHz": 82.406889,
      "startTick": 69600,
      "durationTicks": 240,
      "endTick": 69840,
      "startSeconds": 63.043,
      "durationSeconds": 0.217,
      "endSeconds": 63.261,
      "velocity": 0.6,
      "bendActive": true,
      "instrument": 0
    },
    {
      "id": "id_59679a3llmnwl0o97",
      "pitch": 40,
      "pitchName": "E2",
      "frequencyHz": 82.406889,
      "startTick": 69600,
      "durationTicks": 240,
      "endTick": 69840,
      "startSeconds": 63.043,
      "durationSeconds": 0.217,
      "endSeconds": 63.261,
      "velocity": 0.8,
      "bendActive": true,
      "instrument": 2
    },
    {
      "id": "id_j2jaf7nxsmnwl0o97",
      "pitch": 47,
      "pitchName": "B2",
      "frequencyHz": 123.470825,
      "startTick": 69600,
      "durationTicks": 240,
      "endTick": 69840,
      "startSeconds": 63.043,
      "durationSeconds": 0.217,
      "endSeconds": 63.261,
      "velocity": 0.8,
      "bendActive": true,
      "instrument": 1
    },
    {
      "id": "id_7o3gbeskimnwl0o97",
      "pitch": 52,
      "pitchName": "E3",
      "frequencyHz": 164.813778,
      "startTick": 69600,
      "durationTicks": 240,
      "endTick": 69840,
      "startSeconds": 63.043,
      "durationSeconds": 0.217,
      "endSeconds": 63.261,
      "velocity": 0.8,
      "bendActive": true,
      "instrument": 2
    },
    {
      "id": "id_2dbutm31tmnwlmu9f",
      "pitch": 40,
      "pitchName": "E2",
      "frequencyHz": 82.406889,
      "startTick": 69840,
      "durationTicks": 240,
      "endTick": 70080,
      "startSeconds": 63.261,
      "durationSeconds": 0.217,
      "endSeconds": 63.478,
      "velocity": 0.6,
      "bendActive": true,
      "instrument": 0
    },
    {
      "id": "id_0nrkawwvmmnwl0o97",
      "pitch": 40,
      "pitchName": "E2",
      "frequencyHz": 82.406889,
      "startTick": 69840,
      "durationTicks": 240,
      "endTick": 70080,
      "startSeconds": 63.261,
      "durationSeconds": 0.217,
      "endSeconds": 63.478,
      "velocity": 0.8,
      "bendActive": true,
      "instrument": 2
    },
    {
      "id": "id_nhkzh2oxqmnwl0o97",
      "pitch": 47,
      "pitchName": "B2",
      "frequencyHz": 123.470825,
      "startTick": 69840,
      "durationTicks": 240,
      "endTick": 70080,
      "startSeconds": 63.261,
      "durationSeconds": 0.217,
      "endSeconds": 63.478,
      "velocity": 0.8,
      "bendActive": true,
      "instrument": 1
    },
    {
      "id": "id_45y41r9yomnwl0o97",
      "pitch": 52,
      "pitchName": "E3",
      "frequencyHz": 164.813778,
      "startTick": 69840,
      "durationTicks": 240,
      "endTick": 70080,
      "startSeconds": 63.261,
      "durationSeconds": 0.217,
      "endSeconds": 63.478,
      "velocity": 0.8,
      "bendActive": true,
      "instrument": 2
    },
    {
      "id": "id_0ydr4rkl0mnwl0o97",
      "pitch": 68,
      "pitchName": "G#4",
      "frequencyHz": 415.304698,
      "startTick": 69840,
      "durationTicks": 2160,
      "endTick": 72000,
      "startSeconds": 63.261,
      "durationSeconds": 1.957,
      "endSeconds": 65.217,
      "velocity": 0.8,
      "bendActive": true,
      "instrument": 2
    },
    {
      "id": "id_xnw5fr4fqmnwlmvaw",
      "pitch": 40,
      "pitchName": "E2",
      "frequencyHz": 82.406889,
      "startTick": 70080,
      "durationTicks": 240,
      "endTick": 70320,
      "startSeconds": 63.478,
      "durationSeconds": 0.217,
      "endSeconds": 63.696,
      "velocity": 0.6,
      "bendActive": true,
      "instrument": 0
    },
    {
      "id": "id_cidnejmw0mnwl0o97",
      "pitch": 40,
      "pitchName": "E2",
      "frequencyHz": 82.406889,
      "startTick": 70080,
      "durationTicks": 240,
      "endTick": 70320,
      "startSeconds": 63.478,
      "durationSeconds": 0.217,
      "endSeconds": 63.696,
      "velocity": 0.8,
      "bendActive": true,
      "instrument": 2
    },
    {
      "id": "id_dcqqt3q1wmnwl0o97",
      "pitch": 47,
      "pitchName": "B2",
      "frequencyHz": 123.470825,
      "startTick": 70080,
      "durationTicks": 240,
      "endTick": 70320,
      "startSeconds": 63.478,
      "durationSeconds": 0.217,
      "endSeconds": 63.696,
      "velocity": 0.8,
      "bendActive": true,
      "instrument": 1
    },
    {
      "id": "id_5zaef5lv7mnwl0o97",
      "pitch": 52,
      "pitchName": "E3",
      "frequencyHz": 164.813778,
      "startTick": 70080,
      "durationTicks": 240,
      "endTick": 70320,
      "startSeconds": 63.478,
      "durationSeconds": 0.217,
      "endSeconds": 63.696,
      "velocity": 0.8,
      "bendActive": true,
      "instrument": 2
    },
    {
      "id": "id_lhoyrwsnjmnwlmw2j",
      "pitch": 40,
      "pitchName": "E2",
      "frequencyHz": 82.406889,
      "startTick": 70320,
      "durationTicks": 240,
      "endTick": 70560,
      "startSeconds": 63.696,
      "durationSeconds": 0.217,
      "endSeconds": 63.913,
      "velocity": 0.6,
      "bendActive": true,
      "instrument": 0
    },
    {
      "id": "id_xokwz93znmnwl0o97",
      "pitch": 40,
      "pitchName": "E2",
      "frequencyHz": 82.406889,
      "startTick": 70320,
      "durationTicks": 240,
      "endTick": 70560,
      "startSeconds": 63.696,
      "durationSeconds": 0.217,
      "endSeconds": 63.913,
      "velocity": 0.8,
      "bendActive": true,
      "instrument": 2
    },
    {
      "id": "id_wohihvxyimnwl0o97",
      "pitch": 47,
      "pitchName": "B2",
      "frequencyHz": 123.470825,
      "startTick": 70320,
      "durationTicks": 240,
      "endTick": 70560,
      "startSeconds": 63.696,
      "durationSeconds": 0.217,
      "endSeconds": 63.913,
      "velocity": 0.8,
      "bendActive": true,
      "instrument": 1
    },
    {
      "id": "id_dalq3iu0amnwl0o97",
      "pitch": 52,
      "pitchName": "E3",
      "frequencyHz": 164.813778,
      "startTick": 70320,
      "durationTicks": 240,
      "endTick": 70560,
      "startSeconds": 63.696,
      "durationSeconds": 0.217,
      "endSeconds": 63.913,
      "velocity": 0.8,
      "bendActive": true,
      "instrument": 2
    },
    {
      "id": "id_d04vuk5cumnwlmxht",
      "pitch": 40,
      "pitchName": "E2",
      "frequencyHz": 82.406889,
      "startTick": 70560,
      "durationTicks": 240,
      "endTick": 70800,
      "startSeconds": 63.913,
      "durationSeconds": 0.217,
      "endSeconds": 64.13,
      "velocity": 0.6,
      "bendActive": true,
      "instrument": 0
    },
    {
      "id": "id_funxegp72mnwl0o97",
      "pitch": 40,
      "pitchName": "E2",
      "frequencyHz": 82.406889,
      "startTick": 70560,
      "durationTicks": 240,
      "endTick": 70800,
      "startSeconds": 63.913,
      "durationSeconds": 0.217,
      "endSeconds": 64.13,
      "velocity": 0.8,
      "bendActive": true,
      "instrument": 2
    },
    {
      "id": "id_d5aaizdh0mnwl0o97",
      "pitch": 47,
      "pitchName": "B2",
      "frequencyHz": 123.470825,
      "startTick": 70560,
      "durationTicks": 240,
      "endTick": 70800,
      "startSeconds": 63.913,
      "durationSeconds": 0.217,
      "endSeconds": 64.13,
      "velocity": 0.8,
      "bendActive": true,
      "instrument": 1
    },
    {
      "id": "id_llt4zrtt0mnwl0o97",
      "pitch": 52,
      "pitchName": "E3",
      "frequencyHz": 164.813778,
      "startTick": 70560,
      "durationTicks": 240,
      "endTick": 70800,
      "startSeconds": 63.913,
      "durationSeconds": 0.217,
      "endSeconds": 64.13,
      "velocity": 0.8,
      "bendActive": true,
      "instrument": 2
    },
    {
      "id": "id_k832uym75mnwlmyeh",
      "pitch": 40,
      "pitchName": "E2",
      "frequencyHz": 82.406889,
      "startTick": 70800,
      "durationTicks": 240,
      "endTick": 71040,
      "startSeconds": 64.13,
      "durationSeconds": 0.217,
      "endSeconds": 64.348,
      "velocity": 0.6,
      "bendActive": true,
      "instrument": 0
    },
    {
      "id": "id_hsbso5p3gmnwl0o97",
      "pitch": 40,
      "pitchName": "E2",
      "frequencyHz": 82.406889,
      "startTick": 70800,
      "durationTicks": 240,
      "endTick": 71040,
      "startSeconds": 64.13,
      "durationSeconds": 0.217,
      "endSeconds": 64.348,
      "velocity": 0.8,
      "bendActive": true,
      "instrument": 2
    },
    {
      "id": "id_ec8lgilfumnwl0o97",
      "pitch": 47,
      "pitchName": "B2",
      "frequencyHz": 123.470825,
      "startTick": 70800,
      "durationTicks": 240,
      "endTick": 71040,
      "startSeconds": 64.13,
      "durationSeconds": 0.217,
      "endSeconds": 64.348,
      "velocity": 0.8,
      "bendActive": true,
      "instrument": 1
    },
    {
      "id": "id_ixsinmbvcmnwl0o97",
      "pitch": 52,
      "pitchName": "E3",
      "frequencyHz": 164.813778,
      "startTick": 70800,
      "durationTicks": 240,
      "endTick": 71040,
      "startSeconds": 64.13,
      "durationSeconds": 0.217,
      "endSeconds": 64.348,
      "velocity": 0.8,
      "bendActive": true,
      "instrument": 2
    },
    {
      "id": "id_5ts31qe2lmnwlmz8s",
      "pitch": 40,
      "pitchName": "E2",
      "frequencyHz": 82.406889,
      "startTick": 71040,
      "durationTicks": 240,
      "endTick": 71280,
      "startSeconds": 64.348,
      "durationSeconds": 0.217,
      "endSeconds": 64.565,
      "velocity": 0.6,
      "bendActive": true,
      "instrument": 0
    },
    {
      "id": "id_7ccb5qxpumnwl0o97",
      "pitch": 40,
      "pitchName": "E2",
      "frequencyHz": 82.406889,
      "startTick": 71040,
      "durationTicks": 240,
      "endTick": 71280,
      "startSeconds": 64.348,
      "durationSeconds": 0.217,
      "endSeconds": 64.565,
      "velocity": 0.8,
      "bendActive": true,
      "instrument": 2
    },
    {
      "id": "id_rcx5x6jp2mnwl0o97",
      "pitch": 47,
      "pitchName": "B2",
      "frequencyHz": 123.470825,
      "startTick": 71040,
      "durationTicks": 240,
      "endTick": 71280,
      "startSeconds": 64.348,
      "durationSeconds": 0.217,
      "endSeconds": 64.565,
      "velocity": 0.8,
      "bendActive": true,
      "instrument": 1
    },
    {
      "id": "id_vqresw48tmnwl0o97",
      "pitch": 52,
      "pitchName": "E3",
      "frequencyHz": 164.813778,
      "startTick": 71040,
      "durationTicks": 240,
      "endTick": 71280,
      "startSeconds": 64.348,
      "durationSeconds": 0.217,
      "endSeconds": 64.565,
      "velocity": 0.8,
      "bendActive": true,
      "instrument": 2
    },
    {
      "id": "id_f0kcyzmb3mnwlmzyx",
      "pitch": 40,
      "pitchName": "E2",
      "frequencyHz": 82.406889,
      "startTick": 71280,
      "durationTicks": 240,
      "endTick": 71520,
      "startSeconds": 64.565,
      "durationSeconds": 0.217,
      "endSeconds": 64.783,
      "velocity": 0.6,
      "bendActive": true,
      "instrument": 0
    },
    {
      "id": "id_7mjl7sdvlmnwl0o97",
      "pitch": 40,
      "pitchName": "E2",
      "frequencyHz": 82.406889,
      "startTick": 71280,
      "durationTicks": 240,
      "endTick": 71520,
      "startSeconds": 64.565,
      "durationSeconds": 0.217,
      "endSeconds": 64.783,
      "velocity": 0.8,
      "bendActive": true,
      "instrument": 2
    },
    {
      "id": "id_5f1xxqursmnwl0o97",
      "pitch": 47,
      "pitchName": "B2",
      "frequencyHz": 123.470825,
      "startTick": 71280,
      "durationTicks": 240,
      "endTick": 71520,
      "startSeconds": 64.565,
      "durationSeconds": 0.217,
      "endSeconds": 64.783,
      "velocity": 0.8,
      "bendActive": true,
      "instrument": 1
    },
    {
      "id": "id_wjmjpfeaxmnwl0o97",
      "pitch": 52,
      "pitchName": "E3",
      "frequencyHz": 164.813778,
      "startTick": 71280,
      "durationTicks": 240,
      "endTick": 71520,
      "startSeconds": 64.565,
      "durationSeconds": 0.217,
      "endSeconds": 64.783,
      "velocity": 0.8,
      "bendActive": true,
      "instrument": 2
    },
    {
      "id": "id_tpm2ciqckmnwln0ov",
      "pitch": 40,
      "pitchName": "E2",
      "frequencyHz": 82.406889,
      "startTick": 71520,
      "durationTicks": 240,
      "endTick": 71760,
      "startSeconds": 64.783,
      "durationSeconds": 0.217,
      "endSeconds": 65,
      "velocity": 0.6,
      "bendActive": true,
      "instrument": 0
    },
    {
      "id": "id_6wuqzxpgrmnwl0o97",
      "pitch": 40,
      "pitchName": "E2",
      "frequencyHz": 82.406889,
      "startTick": 71520,
      "durationTicks": 240,
      "endTick": 71760,
      "startSeconds": 64.783,
      "durationSeconds": 0.217,
      "endSeconds": 65,
      "velocity": 0.8,
      "bendActive": true,
      "instrument": 2
    },
    {
      "id": "id_8oelt0lb3mnwl0o97",
      "pitch": 47,
      "pitchName": "B2",
      "frequencyHz": 123.470825,
      "startTick": 71520,
      "durationTicks": 240,
      "endTick": 71760,
      "startSeconds": 64.783,
      "durationSeconds": 0.217,
      "endSeconds": 65,
      "velocity": 0.8,
      "bendActive": true,
      "instrument": 1
    },
    {
      "id": "id_unmf4u8h3mnwl0o97",
      "pitch": 52,
      "pitchName": "E3",
      "frequencyHz": 164.813778,
      "startTick": 71520,
      "durationTicks": 240,
      "endTick": 71760,
      "startSeconds": 64.783,
      "durationSeconds": 0.217,
      "endSeconds": 65,
      "velocity": 0.8,
      "bendActive": true,
      "instrument": 2
    },
    {
      "id": "id_t2yk2aa5cmnwln1kt",
      "pitch": 40,
      "pitchName": "E2",
      "frequencyHz": 82.406889,
      "startTick": 71760,
      "durationTicks": 240,
      "endTick": 72000,
      "startSeconds": 65,
      "durationSeconds": 0.217,
      "endSeconds": 65.217,
      "velocity": 0.6,
      "bendActive": true,
      "instrument": 0
    },
    {
      "id": "id_h81gofufkmnwl0o97",
      "pitch": 40,
      "pitchName": "E2",
      "frequencyHz": 82.406889,
      "startTick": 71760,
      "durationTicks": 240,
      "endTick": 72000,
      "startSeconds": 65,
      "durationSeconds": 0.217,
      "endSeconds": 65.217,
      "velocity": 0.8,
      "bendActive": true,
      "instrument": 2
    },
    {
      "id": "id_sfeblslhimnwl0o97",
      "pitch": 47,
      "pitchName": "B2",
      "frequencyHz": 123.470825,
      "startTick": 71760,
      "durationTicks": 240,
      "endTick": 72000,
      "startSeconds": 65,
      "durationSeconds": 0.217,
      "endSeconds": 65.217,
      "velocity": 0.8,
      "bendActive": true,
      "instrument": 1
    },
    {
      "id": "id_3jrctfafxmnwl0o97",
      "pitch": 52,
      "pitchName": "E3",
      "frequencyHz": 164.813778,
      "startTick": 71760,
      "durationTicks": 240,
      "endTick": 72000,
      "startSeconds": 65,
      "durationSeconds": 0.217,
      "endSeconds": 65.217,
      "velocity": 0.8,
      "bendActive": true,
      "instrument": 2
    },
    {
      "id": "id_t9ck4e88imnwl0o97",
      "pitch": 42,
      "pitchName": "F#2",
      "frequencyHz": 92.498606,
      "startTick": 72000,
      "durationTicks": 240,
      "endTick": 72240,
      "startSeconds": 65.217,
      "durationSeconds": 0.217,
      "endSeconds": 65.435,
      "velocity": 0.6,
      "bendActive": true,
      "instrument": 0
    },
    {
      "id": "id_x3gb5i6r5mnwl0o97",
      "pitch": 46,
      "pitchName": "A#2",
      "frequencyHz": 116.54094,
      "startTick": 72000,
      "durationTicks": 240,
      "endTick": 72240,
      "startSeconds": 65.217,
      "durationSeconds": 0.217,
      "endSeconds": 65.435,
      "velocity": 0.8,
      "bendActive": true,
      "instrument": 1
    },
    {
      "id": "id_wd44a2cwrmnwl0o97",
      "pitch": 49,
      "pitchName": "C#3",
      "frequencyHz": 138.591315,
      "startTick": 72000,
      "durationTicks": 240,
      "endTick": 72240,
      "startSeconds": 65.217,
      "durationSeconds": 0.217,
      "endSeconds": 65.435,
      "velocity": 0.8,
      "bendActive": true,
      "instrument": 2
    },
    {
      "id": "id_is9ufvkudmnwl0o97",
      "pitch": 54,
      "pitchName": "F#3",
      "frequencyHz": 184.997211,
      "startTick": 72000,
      "durationTicks": 240,
      "endTick": 72240,
      "startSeconds": 65.217,
      "durationSeconds": 0.217,
      "endSeconds": 65.435,
      "velocity": 0.8,
      "bendActive": true,
      "instrument": 2
    },
    {
      "id": "id_c0nm3c3s0mnwl0o97",
      "pitch": 73,
      "pitchName": "C#5",
      "frequencyHz": 554.365262,
      "startTick": 72000,
      "durationTicks": 720,
      "endTick": 72720,
      "startSeconds": 65.217,
      "durationSeconds": 0.652,
      "endSeconds": 65.87,
      "velocity": 0.8,
      "bendActive": true,
      "instrument": 2
    },
    {
      "id": "id_n5fcjs32dmnwl0o97",
      "pitch": 42,
      "pitchName": "F#2",
      "frequencyHz": 92.498606,
      "startTick": 72240,
      "durationTicks": 240,
      "endTick": 72480,
      "startSeconds": 65.435,
      "durationSeconds": 0.217,
      "endSeconds": 65.652,
      "velocity": 0.6,
      "bendActive": true,
      "instrument": 0
    },
    {
      "id": "id_ibkm97968mnwl0o97",
      "pitch": 46,
      "pitchName": "A#2",
      "frequencyHz": 116.54094,
      "startTick": 72240,
      "durationTicks": 240,
      "endTick": 72480,
      "startSeconds": 65.435,
      "durationSeconds": 0.217,
      "endSeconds": 65.652,
      "velocity": 0.8,
      "bendActive": true,
      "instrument": 1
    },
    {
      "id": "id_0h6hvwce3mnwl0o97",
      "pitch": 49,
      "pitchName": "C#3",
      "frequencyHz": 138.591315,
      "startTick": 72240,
      "durationTicks": 240,
      "endTick": 72480,
      "startSeconds": 65.435,
      "durationSeconds": 0.217,
      "endSeconds": 65.652,
      "velocity": 0.8,
      "bendActive": true,
      "instrument": 2
    },
    {
      "id": "id_wffwzmjntmnwl0o97",
      "pitch": 54,
      "pitchName": "F#3",
      "frequencyHz": 184.997211,
      "startTick": 72240,
      "durationTicks": 240,
      "endTick": 72480,
      "startSeconds": 65.435,
      "durationSeconds": 0.217,
      "endSeconds": 65.652,
      "velocity": 0.8,
      "bendActive": true,
      "instrument": 2
    },
    {
      "id": "id_m0n8ffjcqmnwl0o97",
      "pitch": 42,
      "pitchName": "F#2",
      "frequencyHz": 92.498606,
      "startTick": 72480,
      "durationTicks": 240,
      "endTick": 72720,
      "startSeconds": 65.652,
      "durationSeconds": 0.217,
      "endSeconds": 65.87,
      "velocity": 0.6,
      "bendActive": true,
      "instrument": 0
    },
    {
      "id": "id_5dde1cbdlmnwl0o97",
      "pitch": 46,
      "pitchName": "A#2",
      "frequencyHz": 116.54094,
      "startTick": 72480,
      "durationTicks": 240,
      "endTick": 72720,
      "startSeconds": 65.652,
      "durationSeconds": 0.217,
      "endSeconds": 65.87,
      "velocity": 0.8,
      "bendActive": true,
      "instrument": 1
    },
    {
      "id": "id_e6vnydu2fmnwl0o97",
      "pitch": 49,
      "pitchName": "C#3",
      "frequencyHz": 138.591315,
      "startTick": 72480,
      "durationTicks": 240,
      "endTick": 72720,
      "startSeconds": 65.652,
      "durationSeconds": 0.217,
      "endSeconds": 65.87,
      "velocity": 0.8,
      "bendActive": true,
      "instrument": 2
    },
    {
      "id": "id_mtk452xf5mnwl0o97",
      "pitch": 54,
      "pitchName": "F#3",
      "frequencyHz": 184.997211,
      "startTick": 72480,
      "durationTicks": 240,
      "endTick": 72720,
      "startSeconds": 65.652,
      "durationSeconds": 0.217,
      "endSeconds": 65.87,
      "velocity": 0.8,
      "bendActive": true,
      "instrument": 2
    },
    {
      "id": "id_lyfionpvemnwl0o97",
      "pitch": 42,
      "pitchName": "F#2",
      "frequencyHz": 92.498606,
      "startTick": 72720,
      "durationTicks": 240,
      "endTick": 72960,
      "startSeconds": 65.87,
      "durationSeconds": 0.217,
      "endSeconds": 66.087,
      "velocity": 0.6,
      "bendActive": true,
      "instrument": 0
    },
    {
      "id": "id_lwwhtsv5emnwl0o97",
      "pitch": 46,
      "pitchName": "A#2",
      "frequencyHz": 116.54094,
      "startTick": 72720,
      "durationTicks": 240,
      "endTick": 72960,
      "startSeconds": 65.87,
      "durationSeconds": 0.217,
      "endSeconds": 66.087,
      "velocity": 0.8,
      "bendActive": true,
      "instrument": 1
    },
    {
      "id": "id_02cajjeacmnwl0o97",
      "pitch": 49,
      "pitchName": "C#3",
      "frequencyHz": 138.591315,
      "startTick": 72720,
      "durationTicks": 240,
      "endTick": 72960,
      "startSeconds": 65.87,
      "durationSeconds": 0.217,
      "endSeconds": 66.087,
      "velocity": 0.8,
      "bendActive": true,
      "instrument": 2
    },
    {
      "id": "id_68wl6zkagmnwl0o97",
      "pitch": 54,
      "pitchName": "F#3",
      "frequencyHz": 184.997211,
      "startTick": 72720,
      "durationTicks": 240,
      "endTick": 72960,
      "startSeconds": 65.87,
      "durationSeconds": 0.217,
      "endSeconds": 66.087,
      "velocity": 0.8,
      "bendActive": true,
      "instrument": 2
    },
    {
      "id": "id_ren6urtrkmnwlrv2i",
      "pitch": 66,
      "pitchName": "F#4",
      "frequencyHz": 369.994423,
      "startTick": 72720,
      "durationTicks": 720,
      "endTick": 73440,
      "startSeconds": 65.87,
      "durationSeconds": 0.652,
      "endSeconds": 66.522,
      "velocity": 0.8,
      "bendActive": true,
      "instrument": 2
    },
    {
      "id": "id_ybe37ayrsmnwl0o97",
      "pitch": 42,
      "pitchName": "F#2",
      "frequencyHz": 92.498606,
      "startTick": 72960,
      "durationTicks": 240,
      "endTick": 73200,
      "startSeconds": 66.087,
      "durationSeconds": 0.217,
      "endSeconds": 66.304,
      "velocity": 0.6,
      "bendActive": true,
      "instrument": 0
    },
    {
      "id": "id_gczlpgpbpmnwl0o97",
      "pitch": 46,
      "pitchName": "A#2",
      "frequencyHz": 116.54094,
      "startTick": 72960,
      "durationTicks": 240,
      "endTick": 73200,
      "startSeconds": 66.087,
      "durationSeconds": 0.217,
      "endSeconds": 66.304,
      "velocity": 0.8,
      "bendActive": true,
      "instrument": 1
    },
    {
      "id": "id_twkgrkaccmnwl0o97",
      "pitch": 49,
      "pitchName": "C#3",
      "frequencyHz": 138.591315,
      "startTick": 72960,
      "durationTicks": 240,
      "endTick": 73200,
      "startSeconds": 66.087,
      "durationSeconds": 0.217,
      "endSeconds": 66.304,
      "velocity": 0.8,
      "bendActive": true,
      "instrument": 2
    },
    {
      "id": "id_4arirwh19mnwl0o97",
      "pitch": 54,
      "pitchName": "F#3",
      "frequencyHz": 184.997211,
      "startTick": 72960,
      "durationTicks": 240,
      "endTick": 73200,
      "startSeconds": 66.087,
      "durationSeconds": 0.217,
      "endSeconds": 66.304,
      "velocity": 0.8,
      "bendActive": true,
      "instrument": 2
    },
    {
      "id": "id_821s0bgx5mnwl0o97",
      "pitch": 42,
      "pitchName": "F#2",
      "frequencyHz": 92.498606,
      "startTick": 73200,
      "durationTicks": 240,
      "endTick": 73440,
      "startSeconds": 66.304,
      "durationSeconds": 0.217,
      "endSeconds": 66.522,
      "velocity": 0.6,
      "bendActive": true,
      "instrument": 0
    },
    {
      "id": "id_jez36g76smnwl0o97",
      "pitch": 46,
      "pitchName": "A#2",
      "frequencyHz": 116.54094,
      "startTick": 73200,
      "durationTicks": 240,
      "endTick": 73440,
      "startSeconds": 66.304,
      "durationSeconds": 0.217,
      "endSeconds": 66.522,
      "velocity": 0.8,
      "bendActive": true,
      "instrument": 1
    },
    {
      "id": "id_ckpuwlyb2mnwl0o97",
      "pitch": 49,
      "pitchName": "C#3",
      "frequencyHz": 138.591315,
      "startTick": 73200,
      "durationTicks": 240,
      "endTick": 73440,
      "startSeconds": 66.304,
      "durationSeconds": 0.217,
      "endSeconds": 66.522,
      "velocity": 0.8,
      "bendActive": true,
      "instrument": 2
    },
    {
      "id": "id_pobmfvzcpmnwl0o97",
      "pitch": 54,
      "pitchName": "F#3",
      "frequencyHz": 184.997211,
      "startTick": 73200,
      "durationTicks": 240,
      "endTick": 73440,
      "startSeconds": 66.304,
      "durationSeconds": 0.217,
      "endSeconds": 66.522,
      "velocity": 0.8,
      "bendActive": true,
      "instrument": 2
    },
    {
      "id": "id_7e3z0j8srmnwl0o97",
      "pitch": 42,
      "pitchName": "F#2",
      "frequencyHz": 92.498606,
      "startTick": 73440,
      "durationTicks": 240,
      "endTick": 73680,
      "startSeconds": 66.522,
      "durationSeconds": 0.217,
      "endSeconds": 66.739,
      "velocity": 0.6,
      "bendActive": true,
      "instrument": 0
    },
    {
      "id": "id_sxz771hm2mnwl0o97",
      "pitch": 46,
      "pitchName": "A#2",
      "frequencyHz": 116.54094,
      "startTick": 73440,
      "durationTicks": 240,
      "endTick": 73680,
      "startSeconds": 66.522,
      "durationSeconds": 0.217,
      "endSeconds": 66.739,
      "velocity": 0.8,
      "bendActive": true,
      "instrument": 1
    },
    {
      "id": "id_xxvxzos4xmnwl0o97",
      "pitch": 49,
      "pitchName": "C#3",
      "frequencyHz": 138.591315,
      "startTick": 73440,
      "durationTicks": 240,
      "endTick": 73680,
      "startSeconds": 66.522,
      "durationSeconds": 0.217,
      "endSeconds": 66.739,
      "velocity": 0.8,
      "bendActive": true,
      "instrument": 2
    },
    {
      "id": "id_rdcxj5nuxmnwl0o97",
      "pitch": 54,
      "pitchName": "F#3",
      "frequencyHz": 184.997211,
      "startTick": 73440,
      "durationTicks": 240,
      "endTick": 73680,
      "startSeconds": 66.522,
      "durationSeconds": 0.217,
      "endSeconds": 66.739,
      "velocity": 0.8,
      "bendActive": true,
      "instrument": 2
    },
    {
      "id": "id_rxmulpmhkmnwl0o97",
      "pitch": 70,
      "pitchName": "A#4",
      "frequencyHz": 466.163762,
      "startTick": 73440,
      "durationTicks": 720,
      "endTick": 74160,
      "startSeconds": 66.522,
      "durationSeconds": 0.652,
      "endSeconds": 67.174,
      "velocity": 0.8,
      "bendActive": true,
      "instrument": 2
    },
    {
      "id": "id_3otvnz9smmnwl0o97",
      "pitch": 42,
      "pitchName": "F#2",
      "frequencyHz": 92.498606,
      "startTick": 73680,
      "durationTicks": 240,
      "endTick": 73920,
      "startSeconds": 66.739,
      "durationSeconds": 0.217,
      "endSeconds": 66.957,
      "velocity": 0.6,
      "bendActive": true,
      "instrument": 0
    },
    {
      "id": "id_vlxydyebhmnwl0o97",
      "pitch": 46,
      "pitchName": "A#2",
      "frequencyHz": 116.54094,
      "startTick": 73680,
      "durationTicks": 240,
      "endTick": 73920,
      "startSeconds": 66.739,
      "durationSeconds": 0.217,
      "endSeconds": 66.957,
      "velocity": 0.8,
      "bendActive": true,
      "instrument": 1
    },
    {
      "id": "id_4flpkqguimnwl0o97",
      "pitch": 49,
      "pitchName": "C#3",
      "frequencyHz": 138.591315,
      "startTick": 73680,
      "durationTicks": 240,
      "endTick": 73920,
      "startSeconds": 66.739,
      "durationSeconds": 0.217,
      "endSeconds": 66.957,
      "velocity": 0.8,
      "bendActive": true,
      "instrument": 2
    },
    {
      "id": "id_szive429hmnwl0o97",
      "pitch": 54,
      "pitchName": "F#3",
      "frequencyHz": 184.997211,
      "startTick": 73680,
      "durationTicks": 240,
      "endTick": 73920,
      "startSeconds": 66.739,
      "durationSeconds": 0.217,
      "endSeconds": 66.957,
      "velocity": 0.8,
      "bendActive": true,
      "instrument": 2
    },
    {
      "id": "id_ypq1iio6xmnwl0o97",
      "pitch": 42,
      "pitchName": "F#2",
      "frequencyHz": 92.498606,
      "startTick": 73920,
      "durationTicks": 240,
      "endTick": 74160,
      "startSeconds": 66.957,
      "durationSeconds": 0.217,
      "endSeconds": 67.174,
      "velocity": 0.6,
      "bendActive": true,
      "instrument": 0
    },
    {
      "id": "id_z8bzgsjwvmnwl0o97",
      "pitch": 46,
      "pitchName": "A#2",
      "frequencyHz": 116.54094,
      "startTick": 73920,
      "durationTicks": 240,
      "endTick": 74160,
      "startSeconds": 66.957,
      "durationSeconds": 0.217,
      "endSeconds": 67.174,
      "velocity": 0.8,
      "bendActive": true,
      "instrument": 1
    },
    {
      "id": "id_2dazo6hpmmnwl0o97",
      "pitch": 49,
      "pitchName": "C#3",
      "frequencyHz": 138.591315,
      "startTick": 73920,
      "durationTicks": 240,
      "endTick": 74160,
      "startSeconds": 66.957,
      "durationSeconds": 0.217,
      "endSeconds": 67.174,
      "velocity": 0.8,
      "bendActive": true,
      "instrument": 2
    },
    {
      "id": "id_uoahf9daymnwl0o97",
      "pitch": 54,
      "pitchName": "F#3",
      "frequencyHz": 184.997211,
      "startTick": 73920,
      "durationTicks": 240,
      "endTick": 74160,
      "startSeconds": 66.957,
      "durationSeconds": 0.217,
      "endSeconds": 67.174,
      "velocity": 0.8,
      "bendActive": true,
      "instrument": 2
    },
    {
      "id": "id_sqxjnu9blmnwl0o97",
      "pitch": 42,
      "pitchName": "F#2",
      "frequencyHz": 92.498606,
      "startTick": 74160,
      "durationTicks": 240,
      "endTick": 74400,
      "startSeconds": 67.174,
      "durationSeconds": 0.217,
      "endSeconds": 67.391,
      "velocity": 0.6,
      "bendActive": true,
      "instrument": 0
    },
    {
      "id": "id_px89xuwf1mnwl0o97",
      "pitch": 46,
      "pitchName": "A#2",
      "frequencyHz": 116.54094,
      "startTick": 74160,
      "durationTicks": 240,
      "endTick": 74400,
      "startSeconds": 67.174,
      "durationSeconds": 0.217,
      "endSeconds": 67.391,
      "velocity": 0.8,
      "bendActive": true,
      "instrument": 1
    },
    {
      "id": "id_4ewy9i2b2mnwl0o97",
      "pitch": 49,
      "pitchName": "C#3",
      "frequencyHz": 138.591315,
      "startTick": 74160,
      "durationTicks": 240,
      "endTick": 74400,
      "startSeconds": 67.174,
      "durationSeconds": 0.217,
      "endSeconds": 67.391,
      "velocity": 0.8,
      "bendActive": true,
      "instrument": 2
    },
    {
      "id": "id_2ygjgob4pmnwl0o97",
      "pitch": 54,
      "pitchName": "F#3",
      "frequencyHz": 184.997211,
      "startTick": 74160,
      "durationTicks": 240,
      "endTick": 74400,
      "startSeconds": 67.174,
      "durationSeconds": 0.217,
      "endSeconds": 67.391,
      "velocity": 0.8,
      "bendActive": true,
      "instrument": 2
    },
    {
      "id": "id_11falzkrmmnwl0o97",
      "pitch": 78,
      "pitchName": "F#5",
      "frequencyHz": 739.988845,
      "startTick": 74160,
      "durationTicks": 720,
      "endTick": 74880,
      "startSeconds": 67.174,
      "durationSeconds": 0.652,
      "endSeconds": 67.826,
      "velocity": 0.8,
      "bendActive": true,
      "instrument": 2
    },
    {
      "id": "id_i7ubkfq6imnwl0o97",
      "pitch": 42,
      "pitchName": "F#2",
      "frequencyHz": 92.498606,
      "startTick": 74400,
      "durationTicks": 240,
      "endTick": 74640,
      "startSeconds": 67.391,
      "durationSeconds": 0.217,
      "endSeconds": 67.609,
      "velocity": 0.6,
      "bendActive": true,
      "instrument": 0
    },
    {
      "id": "id_tihu1z3skmnwl0o97",
      "pitch": 46,
      "pitchName": "A#2",
      "frequencyHz": 116.54094,
      "startTick": 74400,
      "durationTicks": 240,
      "endTick": 74640,
      "startSeconds": 67.391,
      "durationSeconds": 0.217,
      "endSeconds": 67.609,
      "velocity": 0.8,
      "bendActive": true,
      "instrument": 1
    },
    {
      "id": "id_zl8kcz7z5mnwl0o97",
      "pitch": 49,
      "pitchName": "C#3",
      "frequencyHz": 138.591315,
      "startTick": 74400,
      "durationTicks": 240,
      "endTick": 74640,
      "startSeconds": 67.391,
      "durationSeconds": 0.217,
      "endSeconds": 67.609,
      "velocity": 0.8,
      "bendActive": true,
      "instrument": 2
    },
    {
      "id": "id_lg7hj454smnwl0o97",
      "pitch": 54,
      "pitchName": "F#3",
      "frequencyHz": 184.997211,
      "startTick": 74400,
      "durationTicks": 240,
      "endTick": 74640,
      "startSeconds": 67.391,
      "durationSeconds": 0.217,
      "endSeconds": 67.609,
      "velocity": 0.8,
      "bendActive": true,
      "instrument": 2
    },
    {
      "id": "id_7enhmty53mnwl0o97",
      "pitch": 42,
      "pitchName": "F#2",
      "frequencyHz": 92.498606,
      "startTick": 74640,
      "durationTicks": 240,
      "endTick": 74880,
      "startSeconds": 67.609,
      "durationSeconds": 0.217,
      "endSeconds": 67.826,
      "velocity": 0.6,
      "bendActive": true,
      "instrument": 0
    },
    {
      "id": "id_l9pkoyaxzmnwl0o97",
      "pitch": 46,
      "pitchName": "A#2",
      "frequencyHz": 116.54094,
      "startTick": 74640,
      "durationTicks": 240,
      "endTick": 74880,
      "startSeconds": 67.609,
      "durationSeconds": 0.217,
      "endSeconds": 67.826,
      "velocity": 0.8,
      "bendActive": true,
      "instrument": 1
    },
    {
      "id": "id_6yktkge5fmnwl0o97",
      "pitch": 49,
      "pitchName": "C#3",
      "frequencyHz": 138.591315,
      "startTick": 74640,
      "durationTicks": 240,
      "endTick": 74880,
      "startSeconds": 67.609,
      "durationSeconds": 0.217,
      "endSeconds": 67.826,
      "velocity": 0.8,
      "bendActive": true,
      "instrument": 2
    },
    {
      "id": "id_pzp3hkozbmnwl0o97",
      "pitch": 54,
      "pitchName": "F#3",
      "frequencyHz": 184.997211,
      "startTick": 74640,
      "durationTicks": 240,
      "endTick": 74880,
      "startSeconds": 67.609,
      "durationSeconds": 0.217,
      "endSeconds": 67.826,
      "velocity": 0.8,
      "bendActive": true,
      "instrument": 2
    },
    {
      "id": "id_pjmhprglimnwl0o97",
      "pitch": 39,
      "pitchName": "D#2",
      "frequencyHz": 77.781746,
      "startTick": 74880,
      "durationTicks": 240,
      "endTick": 75120,
      "startSeconds": 67.826,
      "durationSeconds": 0.217,
      "endSeconds": 68.043,
      "velocity": 0.8,
      "bendActive": true,
      "instrument": 1
    },
    {
      "id": "id_ce4m7c8efmnwl0o97",
      "pitch": 44,
      "pitchName": "G#2",
      "frequencyHz": 103.826174,
      "startTick": 74880,
      "durationTicks": 240,
      "endTick": 75120,
      "startSeconds": 67.826,
      "durationSeconds": 0.217,
      "endSeconds": 68.043,
      "velocity": 0.6,
      "bendActive": true,
      "instrument": 0
    },
    {
      "id": "id_alp1v6e3umnwl0o97",
      "pitch": 47,
      "pitchName": "B2",
      "frequencyHz": 123.470825,
      "startTick": 74880,
      "durationTicks": 240,
      "endTick": 75120,
      "startSeconds": 67.826,
      "durationSeconds": 0.217,
      "endSeconds": 68.043,
      "velocity": 0.8,
      "bendActive": true,
      "instrument": 2
    },
    {
      "id": "id_q3nshb3ycmnwl0o97",
      "pitch": 56,
      "pitchName": "G#3",
      "frequencyHz": 207.652349,
      "startTick": 74880,
      "durationTicks": 240,
      "endTick": 75120,
      "startSeconds": 67.826,
      "durationSeconds": 0.217,
      "endSeconds": 68.043,
      "velocity": 0.8,
      "bendActive": true,
      "instrument": 2
    },
    {
      "id": "id_s9xcs8dmhmnwl0o97",
      "pitch": 75,
      "pitchName": "D#5",
      "frequencyHz": 622.253967,
      "startTick": 74880,
      "durationTicks": 720,
      "endTick": 75600,
      "startSeconds": 67.826,
      "durationSeconds": 0.652,
      "endSeconds": 68.478,
      "velocity": 0.8,
      "bendActive": true,
      "instrument": 2
    },
    {
      "id": "id_3eojxqemvmnwl0o97",
      "pitch": 39,
      "pitchName": "D#2",
      "frequencyHz": 77.781746,
      "startTick": 75120,
      "durationTicks": 240,
      "endTick": 75360,
      "startSeconds": 68.043,
      "durationSeconds": 0.217,
      "endSeconds": 68.261,
      "velocity": 0.8,
      "bendActive": true,
      "instrument": 1
    },
    {
      "id": "id_2gdhr6iwcmnwl0o97",
      "pitch": 44,
      "pitchName": "G#2",
      "frequencyHz": 103.826174,
      "startTick": 75120,
      "durationTicks": 240,
      "endTick": 75360,
      "startSeconds": 68.043,
      "durationSeconds": 0.217,
      "endSeconds": 68.261,
      "velocity": 0.6,
      "bendActive": true,
      "instrument": 0
    },
    {
      "id": "id_y58xf8i5gmnwl0o97",
      "pitch": 47,
      "pitchName": "B2",
      "frequencyHz": 123.470825,
      "startTick": 75120,
      "durationTicks": 240,
      "endTick": 75360,
      "startSeconds": 68.043,
      "durationSeconds": 0.217,
      "endSeconds": 68.261,
      "velocity": 0.8,
      "bendActive": true,
      "instrument": 2
    },
    {
      "id": "id_c35xs93p0mnwl0o97",
      "pitch": 56,
      "pitchName": "G#3",
      "frequencyHz": 207.652349,
      "startTick": 75120,
      "durationTicks": 240,
      "endTick": 75360,
      "startSeconds": 68.043,
      "durationSeconds": 0.217,
      "endSeconds": 68.261,
      "velocity": 0.8,
      "bendActive": true,
      "instrument": 2
    },
    {
      "id": "id_d6914xhrfmnwl0o97",
      "pitch": 39,
      "pitchName": "D#2",
      "frequencyHz": 77.781746,
      "startTick": 75360,
      "durationTicks": 240,
      "endTick": 75600,
      "startSeconds": 68.261,
      "durationSeconds": 0.217,
      "endSeconds": 68.478,
      "velocity": 0.8,
      "bendActive": true,
      "instrument": 1
    },
    {
      "id": "id_859svw0mzmnwl0o97",
      "pitch": 44,
      "pitchName": "G#2",
      "frequencyHz": 103.826174,
      "startTick": 75360,
      "durationTicks": 240,
      "endTick": 75600,
      "startSeconds": 68.261,
      "durationSeconds": 0.217,
      "endSeconds": 68.478,
      "velocity": 0.6,
      "bendActive": true,
      "instrument": 0
    },
    {
      "id": "id_ozef03rfgmnwl0o97",
      "pitch": 47,
      "pitchName": "B2",
      "frequencyHz": 123.470825,
      "startTick": 75360,
      "durationTicks": 240,
      "endTick": 75600,
      "startSeconds": 68.261,
      "durationSeconds": 0.217,
      "endSeconds": 68.478,
      "velocity": 0.8,
      "bendActive": true,
      "instrument": 2
    },
    {
      "id": "id_z3a6vn04dmnwl0o97",
      "pitch": 56,
      "pitchName": "G#3",
      "frequencyHz": 207.652349,
      "startTick": 75360,
      "durationTicks": 240,
      "endTick": 75600,
      "startSeconds": 68.261,
      "durationSeconds": 0.217,
      "endSeconds": 68.478,
      "velocity": 0.8,
      "bendActive": true,
      "instrument": 2
    },
    {
      "id": "id_7ik8873cymnwl0o97",
      "pitch": 39,
      "pitchName": "D#2",
      "frequencyHz": 77.781746,
      "startTick": 75600,
      "durationTicks": 240,
      "endTick": 75840,
      "startSeconds": 68.478,
      "durationSeconds": 0.217,
      "endSeconds": 68.696,
      "velocity": 0.8,
      "bendActive": true,
      "instrument": 1
    },
    {
      "id": "id_cucqzq2u1mnwl0o97",
      "pitch": 44,
      "pitchName": "G#2",
      "frequencyHz": 103.826174,
      "startTick": 75600,
      "durationTicks": 240,
      "endTick": 75840,
      "startSeconds": 68.478,
      "durationSeconds": 0.217,
      "endSeconds": 68.696,
      "velocity": 0.6,
      "bendActive": true,
      "instrument": 0
    },
    {
      "id": "id_goyxjkffgmnwl0o97",
      "pitch": 47,
      "pitchName": "B2",
      "frequencyHz": 123.470825,
      "startTick": 75600,
      "durationTicks": 240,
      "endTick": 75840,
      "startSeconds": 68.478,
      "durationSeconds": 0.217,
      "endSeconds": 68.696,
      "velocity": 0.8,
      "bendActive": true,
      "instrument": 2
    },
    {
      "id": "id_nciw3vdnsmnwl0o97",
      "pitch": 56,
      "pitchName": "G#3",
      "frequencyHz": 207.652349,
      "startTick": 75600,
      "durationTicks": 240,
      "endTick": 75840,
      "startSeconds": 68.478,
      "durationSeconds": 0.217,
      "endSeconds": 68.696,
      "velocity": 0.8,
      "bendActive": true,
      "instrument": 2
    },
    {
      "id": "id_wbqiylzv5mnwl0o97",
      "pitch": 68,
      "pitchName": "G#4",
      "frequencyHz": 415.304698,
      "startTick": 75600,
      "durationTicks": 2640,
      "endTick": 78240,
      "startSeconds": 68.478,
      "durationSeconds": 2.391,
      "endSeconds": 70.87,
      "velocity": 0.8,
      "bendActive": true,
      "instrument": 2
    },
    {
      "id": "id_1h59r69ujmnwl0o97",
      "pitch": 39,
      "pitchName": "D#2",
      "frequencyHz": 77.781746,
      "startTick": 75840,
      "durationTicks": 240,
      "endTick": 76080,
      "startSeconds": 68.696,
      "durationSeconds": 0.217,
      "endSeconds": 68.913,
      "velocity": 0.8,
      "bendActive": true,
      "instrument": 1
    },
    {
      "id": "id_4uapz7odvmnwl0o97",
      "pitch": 44,
      "pitchName": "G#2",
      "frequencyHz": 103.826174,
      "startTick": 75840,
      "durationTicks": 240,
      "endTick": 76080,
      "startSeconds": 68.696,
      "durationSeconds": 0.217,
      "endSeconds": 68.913,
      "velocity": 0.6,
      "bendActive": true,
      "instrument": 0
    },
    {
      "id": "id_5xgecqc6amnwl0o97",
      "pitch": 47,
      "pitchName": "B2",
      "frequencyHz": 123.470825,
      "startTick": 75840,
      "durationTicks": 240,
      "endTick": 76080,
      "startSeconds": 68.696,
      "durationSeconds": 0.217,
      "endSeconds": 68.913,
      "velocity": 0.8,
      "bendActive": true,
      "instrument": 2
    },
    {
      "id": "id_gvsgv26z3mnwl0o97",
      "pitch": 56,
      "pitchName": "G#3",
      "frequencyHz": 207.652349,
      "startTick": 75840,
      "durationTicks": 240,
      "endTick": 76080,
      "startSeconds": 68.696,
      "durationSeconds": 0.217,
      "endSeconds": 68.913,
      "velocity": 0.8,
      "bendActive": true,
      "instrument": 2
    },
    {
      "id": "id_53lmwxw2imnwl0o97",
      "pitch": 39,
      "pitchName": "D#2",
      "frequencyHz": 77.781746,
      "startTick": 76080,
      "durationTicks": 240,
      "endTick": 76320,
      "startSeconds": 68.913,
      "durationSeconds": 0.217,
      "endSeconds": 69.13,
      "velocity": 0.8,
      "bendActive": true,
      "instrument": 1
    },
    {
      "id": "id_m3s1z3cvgmnwl0o97",
      "pitch": 44,
      "pitchName": "G#2",
      "frequencyHz": 103.826174,
      "startTick": 76080,
      "durationTicks": 240,
      "endTick": 76320,
      "startSeconds": 68.913,
      "durationSeconds": 0.217,
      "endSeconds": 69.13,
      "velocity": 0.6,
      "bendActive": true,
      "instrument": 0
    },
    {
      "id": "id_n3j93kvxfmnwl0o97",
      "pitch": 47,
      "pitchName": "B2",
      "frequencyHz": 123.470825,
      "startTick": 76080,
      "durationTicks": 240,
      "endTick": 76320,
      "startSeconds": 68.913,
      "durationSeconds": 0.217,
      "endSeconds": 69.13,
      "velocity": 0.8,
      "bendActive": true,
      "instrument": 2
    },
    {
      "id": "id_7lra4f7cqmnwl0o97",
      "pitch": 56,
      "pitchName": "G#3",
      "frequencyHz": 207.652349,
      "startTick": 76080,
      "durationTicks": 240,
      "endTick": 76320,
      "startSeconds": 68.913,
      "durationSeconds": 0.217,
      "endSeconds": 69.13,
      "velocity": 0.8,
      "bendActive": true,
      "instrument": 2
    },
    {
      "id": "id_n9v5vnqx9mnwl0o97",
      "pitch": 39,
      "pitchName": "D#2",
      "frequencyHz": 77.781746,
      "startTick": 76320,
      "durationTicks": 240,
      "endTick": 76560,
      "startSeconds": 69.13,
      "durationSeconds": 0.217,
      "endSeconds": 69.348,
      "velocity": 0.8,
      "bendActive": true,
      "instrument": 1
    },
    {
      "id": "id_o1nnrxfglmnwl0o97",
      "pitch": 44,
      "pitchName": "G#2",
      "frequencyHz": 103.826174,
      "startTick": 76320,
      "durationTicks": 240,
      "endTick": 76560,
      "startSeconds": 69.13,
      "durationSeconds": 0.217,
      "endSeconds": 69.348,
      "velocity": 0.6,
      "bendActive": true,
      "instrument": 0
    },
    {
      "id": "id_0q88qmvfomnwl0o97",
      "pitch": 47,
      "pitchName": "B2",
      "frequencyHz": 123.470825,
      "startTick": 76320,
      "durationTicks": 240,
      "endTick": 76560,
      "startSeconds": 69.13,
      "durationSeconds": 0.217,
      "endSeconds": 69.348,
      "velocity": 0.8,
      "bendActive": true,
      "instrument": 2
    },
    {
      "id": "id_jc359xut6mnwl0o97",
      "pitch": 56,
      "pitchName": "G#3",
      "frequencyHz": 207.652349,
      "startTick": 76320,
      "durationTicks": 240,
      "endTick": 76560,
      "startSeconds": 69.13,
      "durationSeconds": 0.217,
      "endSeconds": 69.348,
      "velocity": 0.8,
      "bendActive": true,
      "instrument": 2
    },
    {
      "id": "id_7pvb3ff9smnwl0o97",
      "pitch": 39,
      "pitchName": "D#2",
      "frequencyHz": 77.781746,
      "startTick": 76560,
      "durationTicks": 240,
      "endTick": 76800,
      "startSeconds": 69.348,
      "durationSeconds": 0.217,
      "endSeconds": 69.565,
      "velocity": 0.8,
      "bendActive": true,
      "instrument": 1
    },
    {
      "id": "id_6exofm4mzmnwl0o97",
      "pitch": 44,
      "pitchName": "G#2",
      "frequencyHz": 103.826174,
      "startTick": 76560,
      "durationTicks": 240,
      "endTick": 76800,
      "startSeconds": 69.348,
      "durationSeconds": 0.217,
      "endSeconds": 69.565,
      "velocity": 0.6,
      "bendActive": true,
      "instrument": 0
    },
    {
      "id": "id_72v9lkchkmnwl0o97",
      "pitch": 47,
      "pitchName": "B2",
      "frequencyHz": 123.470825,
      "startTick": 76560,
      "durationTicks": 240,
      "endTick": 76800,
      "startSeconds": 69.348,
      "durationSeconds": 0.217,
      "endSeconds": 69.565,
      "velocity": 0.8,
      "bendActive": true,
      "instrument": 2
    },
    {
      "id": "id_03vhoopsmmnwl0o97",
      "pitch": 56,
      "pitchName": "G#3",
      "frequencyHz": 207.652349,
      "startTick": 76560,
      "durationTicks": 240,
      "endTick": 76800,
      "startSeconds": 69.348,
      "durationSeconds": 0.217,
      "endSeconds": 69.565,
      "velocity": 0.8,
      "bendActive": true,
      "instrument": 2
    },
    {
      "id": "id_9i90mhfvtmnwl0o97",
      "pitch": 39,
      "pitchName": "D#2",
      "frequencyHz": 77.781746,
      "startTick": 76800,
      "durationTicks": 240,
      "endTick": 77040,
      "startSeconds": 69.565,
      "durationSeconds": 0.217,
      "endSeconds": 69.783,
      "velocity": 0.8,
      "bendActive": true,
      "instrument": 1
    },
    {
      "id": "id_zhoydumhomnwl0o97",
      "pitch": 44,
      "pitchName": "G#2",
      "frequencyHz": 103.826174,
      "startTick": 76800,
      "durationTicks": 240,
      "endTick": 77040,
      "startSeconds": 69.565,
      "durationSeconds": 0.217,
      "endSeconds": 69.783,
      "velocity": 0.6,
      "bendActive": true,
      "instrument": 0
    },
    {
      "id": "id_hhutiozvbmnwl0o97",
      "pitch": 47,
      "pitchName": "B2",
      "frequencyHz": 123.470825,
      "startTick": 76800,
      "durationTicks": 240,
      "endTick": 77040,
      "startSeconds": 69.565,
      "durationSeconds": 0.217,
      "endSeconds": 69.783,
      "velocity": 0.8,
      "bendActive": true,
      "instrument": 2
    },
    {
      "id": "id_o1p1dm035mnwl0o97",
      "pitch": 56,
      "pitchName": "G#3",
      "frequencyHz": 207.652349,
      "startTick": 76800,
      "durationTicks": 240,
      "endTick": 77040,
      "startSeconds": 69.565,
      "durationSeconds": 0.217,
      "endSeconds": 69.783,
      "velocity": 0.8,
      "bendActive": true,
      "instrument": 2
    },
    {
      "id": "id_61znpa2gemnwl0o97",
      "pitch": 39,
      "pitchName": "D#2",
      "frequencyHz": 77.781746,
      "startTick": 77040,
      "durationTicks": 240,
      "endTick": 77280,
      "startSeconds": 69.783,
      "durationSeconds": 0.217,
      "endSeconds": 70,
      "velocity": 0.8,
      "bendActive": true,
      "instrument": 1
    },
    {
      "id": "id_8xlpvxbh0mnwl0o97",
      "pitch": 44,
      "pitchName": "G#2",
      "frequencyHz": 103.826174,
      "startTick": 77040,
      "durationTicks": 240,
      "endTick": 77280,
      "startSeconds": 69.783,
      "durationSeconds": 0.217,
      "endSeconds": 70,
      "velocity": 0.6,
      "bendActive": true,
      "instrument": 0
    },
    {
      "id": "id_m59uhng01mnwl0o97",
      "pitch": 47,
      "pitchName": "B2",
      "frequencyHz": 123.470825,
      "startTick": 77040,
      "durationTicks": 240,
      "endTick": 77280,
      "startSeconds": 69.783,
      "durationSeconds": 0.217,
      "endSeconds": 70,
      "velocity": 0.8,
      "bendActive": true,
      "instrument": 2
    },
    {
      "id": "id_lvbwt8c65mnwl0o97",
      "pitch": 56,
      "pitchName": "G#3",
      "frequencyHz": 207.652349,
      "startTick": 77040,
      "durationTicks": 240,
      "endTick": 77280,
      "startSeconds": 69.783,
      "durationSeconds": 0.217,
      "endSeconds": 70,
      "velocity": 0.8,
      "bendActive": true,
      "instrument": 2
    },
    {
      "id": "id_f0boprsoemnwl0o97",
      "pitch": 39,
      "pitchName": "D#2",
      "frequencyHz": 77.781746,
      "startTick": 77280,
      "durationTicks": 240,
      "endTick": 77520,
      "startSeconds": 70,
      "durationSeconds": 0.217,
      "endSeconds": 70.217,
      "velocity": 0.8,
      "bendActive": true,
      "instrument": 1
    },
    {
      "id": "id_iavelgk53mnwl0o97",
      "pitch": 44,
      "pitchName": "G#2",
      "frequencyHz": 103.826174,
      "startTick": 77280,
      "durationTicks": 240,
      "endTick": 77520,
      "startSeconds": 70,
      "durationSeconds": 0.217,
      "endSeconds": 70.217,
      "velocity": 0.6,
      "bendActive": true,
      "instrument": 0
    },
    {
      "id": "id_p8s2v8473mnwl0o97",
      "pitch": 47,
      "pitchName": "B2",
      "frequencyHz": 123.470825,
      "startTick": 77280,
      "durationTicks": 240,
      "endTick": 77520,
      "startSeconds": 70,
      "durationSeconds": 0.217,
      "endSeconds": 70.217,
      "velocity": 0.8,
      "bendActive": true,
      "instrument": 2
    },
    {
      "id": "id_jvc9k8cmpmnwl0o97",
      "pitch": 56,
      "pitchName": "G#3",
      "frequencyHz": 207.652349,
      "startTick": 77280,
      "durationTicks": 240,
      "endTick": 77520,
      "startSeconds": 70,
      "durationSeconds": 0.217,
      "endSeconds": 70.217,
      "velocity": 0.8,
      "bendActive": true,
      "instrument": 2
    },
    {
      "id": "id_3okwtft9gmnwl0o97",
      "pitch": 39,
      "pitchName": "D#2",
      "frequencyHz": 77.781746,
      "startTick": 77520,
      "durationTicks": 240,
      "endTick": 77760,
      "startSeconds": 70.217,
      "durationSeconds": 0.217,
      "endSeconds": 70.435,
      "velocity": 0.8,
      "bendActive": true,
      "instrument": 1
    },
    {
      "id": "id_q1amjekt7mnwl0o97",
      "pitch": 44,
      "pitchName": "G#2",
      "frequencyHz": 103.826174,
      "startTick": 77520,
      "durationTicks": 240,
      "endTick": 77760,
      "startSeconds": 70.217,
      "durationSeconds": 0.217,
      "endSeconds": 70.435,
      "velocity": 0.6,
      "bendActive": true,
      "instrument": 0
    },
    {
      "id": "id_88a8v6rnomnwl0o97",
      "pitch": 47,
      "pitchName": "B2",
      "frequencyHz": 123.470825,
      "startTick": 77520,
      "durationTicks": 240,
      "endTick": 77760,
      "startSeconds": 70.217,
      "durationSeconds": 0.217,
      "endSeconds": 70.435,
      "velocity": 0.8,
      "bendActive": true,
      "instrument": 2
    },
    {
      "id": "id_p8ne8sy89mnwl0o97",
      "pitch": 56,
      "pitchName": "G#3",
      "frequencyHz": 207.652349,
      "startTick": 77520,
      "durationTicks": 240,
      "endTick": 77760,
      "startSeconds": 70.217,
      "durationSeconds": 0.217,
      "endSeconds": 70.435,
      "velocity": 0.8,
      "bendActive": true,
      "instrument": 2
    },
    {
      "id": "id_4e91r69b9mnwl0o97",
      "pitch": 39,
      "pitchName": "D#2",
      "frequencyHz": 77.781746,
      "startTick": 77760,
      "durationTicks": 240,
      "endTick": 78000,
      "startSeconds": 70.435,
      "durationSeconds": 0.217,
      "endSeconds": 70.652,
      "velocity": 0.8,
      "bendActive": true,
      "instrument": 1
    },
    {
      "id": "id_reqr4e480mnwl0o97",
      "pitch": 44,
      "pitchName": "G#2",
      "frequencyHz": 103.826174,
      "startTick": 77760,
      "durationTicks": 240,
      "endTick": 78000,
      "startSeconds": 70.435,
      "durationSeconds": 0.217,
      "endSeconds": 70.652,
      "velocity": 0.6,
      "bendActive": true,
      "instrument": 0
    },
    {
      "id": "id_h82i8p5vsmnwl0o97",
      "pitch": 47,
      "pitchName": "B2",
      "frequencyHz": 123.470825,
      "startTick": 77760,
      "durationTicks": 240,
      "endTick": 78000,
      "startSeconds": 70.435,
      "durationSeconds": 0.217,
      "endSeconds": 70.652,
      "velocity": 0.8,
      "bendActive": true,
      "instrument": 2
    },
    {
      "id": "id_9hahcxwn1mnwl0o97",
      "pitch": 56,
      "pitchName": "G#3",
      "frequencyHz": 207.652349,
      "startTick": 77760,
      "durationTicks": 240,
      "endTick": 78000,
      "startSeconds": 70.435,
      "durationSeconds": 0.217,
      "endSeconds": 70.652,
      "velocity": 0.8,
      "bendActive": true,
      "instrument": 2
    },
    {
      "id": "id_fb9z19volmnwl0o97",
      "pitch": 39,
      "pitchName": "D#2",
      "frequencyHz": 77.781746,
      "startTick": 78000,
      "durationTicks": 240,
      "endTick": 78240,
      "startSeconds": 70.652,
      "durationSeconds": 0.217,
      "endSeconds": 70.87,
      "velocity": 0.8,
      "bendActive": true,
      "instrument": 1
    },
    {
      "id": "id_14xtf44lhmnwl0o97",
      "pitch": 44,
      "pitchName": "G#2",
      "frequencyHz": 103.826174,
      "startTick": 78000,
      "durationTicks": 240,
      "endTick": 78240,
      "startSeconds": 70.652,
      "durationSeconds": 0.217,
      "endSeconds": 70.87,
      "velocity": 0.6,
      "bendActive": true,
      "instrument": 0
    },
    {
      "id": "id_try8hswc0mnwl0o97",
      "pitch": 47,
      "pitchName": "B2",
      "frequencyHz": 123.470825,
      "startTick": 78000,
      "durationTicks": 240,
      "endTick": 78240,
      "startSeconds": 70.652,
      "durationSeconds": 0.217,
      "endSeconds": 70.87,
      "velocity": 0.8,
      "bendActive": true,
      "instrument": 2
    },
    {
      "id": "id_5nej55ijgmnwl0o97",
      "pitch": 56,
      "pitchName": "G#3",
      "frequencyHz": 207.652349,
      "startTick": 78000,
      "durationTicks": 240,
      "endTick": 78240,
      "startSeconds": 70.652,
      "durationSeconds": 0.217,
      "endSeconds": 70.87,
      "velocity": 0.8,
      "bendActive": true,
      "instrument": 2
    },
    {
      "id": "id_98rg1t6i3mnwl0o97",
      "pitch": 39,
      "pitchName": "D#2",
      "frequencyHz": 77.781746,
      "startTick": 78240,
      "durationTicks": 240,
      "endTick": 78480,
      "startSeconds": 70.87,
      "durationSeconds": 0.217,
      "endSeconds": 71.087,
      "velocity": 0.8,
      "bendActive": true,
      "instrument": 1
    },
    {
      "id": "id_p493yje7rmnwl0o97",
      "pitch": 44,
      "pitchName": "G#2",
      "frequencyHz": 103.826174,
      "startTick": 78240,
      "durationTicks": 240,
      "endTick": 78480,
      "startSeconds": 70.87,
      "durationSeconds": 0.217,
      "endSeconds": 71.087,
      "velocity": 0.6,
      "bendActive": true,
      "instrument": 0
    },
    {
      "id": "id_rxg7bp1cpmnwl0o97",
      "pitch": 47,
      "pitchName": "B2",
      "frequencyHz": 123.470825,
      "startTick": 78240,
      "durationTicks": 240,
      "endTick": 78480,
      "startSeconds": 70.87,
      "durationSeconds": 0.217,
      "endSeconds": 71.087,
      "velocity": 0.8,
      "bendActive": true,
      "instrument": 2
    },
    {
      "id": "id_10pe8hv33mnwl0o97",
      "pitch": 56,
      "pitchName": "G#3",
      "frequencyHz": 207.652349,
      "startTick": 78240,
      "durationTicks": 240,
      "endTick": 78480,
      "startSeconds": 70.87,
      "durationSeconds": 0.217,
      "endSeconds": 71.087,
      "velocity": 0.8,
      "bendActive": true,
      "instrument": 2
    },
    {
      "id": "id_owvevm2nomnwl0o97",
      "pitch": 39,
      "pitchName": "D#2",
      "frequencyHz": 77.781746,
      "startTick": 78480,
      "durationTicks": 240,
      "endTick": 78720,
      "startSeconds": 71.087,
      "durationSeconds": 0.217,
      "endSeconds": 71.304,
      "velocity": 0.8,
      "bendActive": true,
      "instrument": 1
    },
    {
      "id": "id_9cxofl2ugmnwl0o97",
      "pitch": 44,
      "pitchName": "G#2",
      "frequencyHz": 103.826174,
      "startTick": 78480,
      "durationTicks": 240,
      "endTick": 78720,
      "startSeconds": 71.087,
      "durationSeconds": 0.217,
      "endSeconds": 71.304,
      "velocity": 0.6,
      "bendActive": true,
      "instrument": 0
    },
    {
      "id": "id_7f56rhrl6mnwl0o97",
      "pitch": 47,
      "pitchName": "B2",
      "frequencyHz": 123.470825,
      "startTick": 78480,
      "durationTicks": 240,
      "endTick": 78720,
      "startSeconds": 71.087,
      "durationSeconds": 0.217,
      "endSeconds": 71.304,
      "velocity": 0.8,
      "bendActive": true,
      "instrument": 2
    },
    {
      "id": "id_z6of8ux9pmnwl0o97",
      "pitch": 56,
      "pitchName": "G#3",
      "frequencyHz": 207.652349,
      "startTick": 78480,
      "durationTicks": 240,
      "endTick": 78720,
      "startSeconds": 71.087,
      "durationSeconds": 0.217,
      "endSeconds": 71.304,
      "velocity": 0.8,
      "bendActive": true,
      "instrument": 2
    },
    {
      "id": "id_bd941hclfmnwl0o97",
      "pitch": 39,
      "pitchName": "D#2",
      "frequencyHz": 77.781746,
      "startTick": 78720,
      "durationTicks": 240,
      "endTick": 78960,
      "startSeconds": 71.304,
      "durationSeconds": 0.217,
      "endSeconds": 71.522,
      "velocity": 0.8,
      "bendActive": true,
      "instrument": 1
    },
    {
      "id": "id_yspxaedv3mnwl0o97",
      "pitch": 44,
      "pitchName": "G#2",
      "frequencyHz": 103.826174,
      "startTick": 78720,
      "durationTicks": 240,
      "endTick": 78960,
      "startSeconds": 71.304,
      "durationSeconds": 0.217,
      "endSeconds": 71.522,
      "velocity": 0.6,
      "bendActive": true,
      "instrument": 0
    },
    {
      "id": "id_cbodo9de3mnwl0o97",
      "pitch": 47,
      "pitchName": "B2",
      "frequencyHz": 123.470825,
      "startTick": 78720,
      "durationTicks": 240,
      "endTick": 78960,
      "startSeconds": 71.304,
      "durationSeconds": 0.217,
      "endSeconds": 71.522,
      "velocity": 0.8,
      "bendActive": true,
      "instrument": 2
    },
    {
      "id": "id_z2augjsk8mnwl0o97",
      "pitch": 56,
      "pitchName": "G#3",
      "frequencyHz": 207.652349,
      "startTick": 78720,
      "durationTicks": 240,
      "endTick": 78960,
      "startSeconds": 71.304,
      "durationSeconds": 0.217,
      "endSeconds": 71.522,
      "velocity": 0.8,
      "bendActive": true,
      "instrument": 2
    },
    {
      "id": "id_25uvp2nccmnwl0o97",
      "pitch": 39,
      "pitchName": "D#2",
      "frequencyHz": 77.781746,
      "startTick": 78960,
      "durationTicks": 240,
      "endTick": 79200,
      "startSeconds": 71.522,
      "durationSeconds": 0.217,
      "endSeconds": 71.739,
      "velocity": 0.8,
      "bendActive": true,
      "instrument": 1
    },
    {
      "id": "id_94yxx0lzlmnwl0o97",
      "pitch": 44,
      "pitchName": "G#2",
      "frequencyHz": 103.826174,
      "startTick": 78960,
      "durationTicks": 240,
      "endTick": 79200,
      "startSeconds": 71.522,
      "durationSeconds": 0.217,
      "endSeconds": 71.739,
      "velocity": 0.6,
      "bendActive": true,
      "instrument": 0
    },
    {
      "id": "id_bjin5d14fmnwl0o97",
      "pitch": 47,
      "pitchName": "B2",
      "frequencyHz": 123.470825,
      "startTick": 78960,
      "durationTicks": 240,
      "endTick": 79200,
      "startSeconds": 71.522,
      "durationSeconds": 0.217,
      "endSeconds": 71.739,
      "velocity": 0.8,
      "bendActive": true,
      "instrument": 2
    },
    {
      "id": "id_3rm81kjzgmnwl0o97",
      "pitch": 56,
      "pitchName": "G#3",
      "frequencyHz": 207.652349,
      "startTick": 78960,
      "durationTicks": 240,
      "endTick": 79200,
      "startSeconds": 71.522,
      "durationSeconds": 0.217,
      "endSeconds": 71.739,
      "velocity": 0.8,
      "bendActive": true,
      "instrument": 2
    },
    {
      "id": "id_p1nnhlxicmnwl0o97",
      "pitch": 39,
      "pitchName": "D#2",
      "frequencyHz": 77.781746,
      "startTick": 79200,
      "durationTicks": 240,
      "endTick": 79440,
      "startSeconds": 71.739,
      "durationSeconds": 0.217,
      "endSeconds": 71.957,
      "velocity": 0.8,
      "bendActive": true,
      "instrument": 1
    },
    {
      "id": "id_kxe7po6s7mnwl0o97",
      "pitch": 44,
      "pitchName": "G#2",
      "frequencyHz": 103.826174,
      "startTick": 79200,
      "durationTicks": 240,
      "endTick": 79440,
      "startSeconds": 71.739,
      "durationSeconds": 0.217,
      "endSeconds": 71.957,
      "velocity": 0.6,
      "bendActive": true,
      "instrument": 0
    },
    {
      "id": "id_rt7a9ja0fmnwl0o97",
      "pitch": 47,
      "pitchName": "B2",
      "frequencyHz": 123.470825,
      "startTick": 79200,
      "durationTicks": 240,
      "endTick": 79440,
      "startSeconds": 71.739,
      "durationSeconds": 0.217,
      "endSeconds": 71.957,
      "velocity": 0.8,
      "bendActive": true,
      "instrument": 2
    },
    {
      "id": "id_s6rhwhk4mmnwl0o97",
      "pitch": 56,
      "pitchName": "G#3",
      "frequencyHz": 207.652349,
      "startTick": 79200,
      "durationTicks": 240,
      "endTick": 79440,
      "startSeconds": 71.739,
      "durationSeconds": 0.217,
      "endSeconds": 71.957,
      "velocity": 0.8,
      "bendActive": true,
      "instrument": 2
    },
    {
      "id": "id_b0fp8jayqmnwl0o97",
      "pitch": 39,
      "pitchName": "D#2",
      "frequencyHz": 77.781746,
      "startTick": 79440,
      "durationTicks": 240,
      "endTick": 79680,
      "startSeconds": 71.957,
      "durationSeconds": 0.217,
      "endSeconds": 72.174,
      "velocity": 0.8,
      "bendActive": true,
      "instrument": 1
    },
    {
      "id": "id_6eamfcb7bmnwl0o97",
      "pitch": 44,
      "pitchName": "G#2",
      "frequencyHz": 103.826174,
      "startTick": 79440,
      "durationTicks": 240,
      "endTick": 79680,
      "startSeconds": 71.957,
      "durationSeconds": 0.217,
      "endSeconds": 72.174,
      "velocity": 0.6,
      "bendActive": true,
      "instrument": 0
    },
    {
      "id": "id_ubszq8ggumnwl0o97",
      "pitch": 47,
      "pitchName": "B2",
      "frequencyHz": 123.470825,
      "startTick": 79440,
      "durationTicks": 240,
      "endTick": 79680,
      "startSeconds": 71.957,
      "durationSeconds": 0.217,
      "endSeconds": 72.174,
      "velocity": 0.8,
      "bendActive": true,
      "instrument": 2
    },
    {
      "id": "id_pd11e42sfmnwl0o97",
      "pitch": 56,
      "pitchName": "G#3",
      "frequencyHz": 207.652349,
      "startTick": 79440,
      "durationTicks": 240,
      "endTick": 79680,
      "startSeconds": 71.957,
      "durationSeconds": 0.217,
      "endSeconds": 72.174,
      "velocity": 0.8,
      "bendActive": true,
      "instrument": 2
    },
    {
      "id": "id_xqs5q248lmnwl0o97",
      "pitch": 39,
      "pitchName": "D#2",
      "frequencyHz": 77.781746,
      "startTick": 79680,
      "durationTicks": 240,
      "endTick": 79920,
      "startSeconds": 72.174,
      "durationSeconds": 0.217,
      "endSeconds": 72.391,
      "velocity": 0.8,
      "bendActive": true,
      "instrument": 1
    },
    {
      "id": "id_yiyscvckkmnwl0o97",
      "pitch": 44,
      "pitchName": "G#2",
      "frequencyHz": 103.826174,
      "startTick": 79680,
      "durationTicks": 240,
      "endTick": 79920,
      "startSeconds": 72.174,
      "durationSeconds": 0.217,
      "endSeconds": 72.391,
      "velocity": 0.6,
      "bendActive": true,
      "instrument": 0
    },
    {
      "id": "id_mlgrc4bhkmnwl0o97",
      "pitch": 47,
      "pitchName": "B2",
      "frequencyHz": 123.470825,
      "startTick": 79680,
      "durationTicks": 240,
      "endTick": 79920,
      "startSeconds": 72.174,
      "durationSeconds": 0.217,
      "endSeconds": 72.391,
      "velocity": 0.8,
      "bendActive": true,
      "instrument": 2
    },
    {
      "id": "id_mwwslo2d5mnwl0o97",
      "pitch": 56,
      "pitchName": "G#3",
      "frequencyHz": 207.652349,
      "startTick": 79680,
      "durationTicks": 240,
      "endTick": 79920,
      "startSeconds": 72.174,
      "durationSeconds": 0.217,
      "endSeconds": 72.391,
      "velocity": 0.8,
      "bendActive": true,
      "instrument": 2
    },
    {
      "id": "id_54xkpmvr4mnwl0o97",
      "pitch": 39,
      "pitchName": "D#2",
      "frequencyHz": 77.781746,
      "startTick": 79920,
      "durationTicks": 240,
      "endTick": 80160,
      "startSeconds": 72.391,
      "durationSeconds": 0.217,
      "endSeconds": 72.609,
      "velocity": 0.8,
      "bendActive": true,
      "instrument": 1
    },
    {
      "id": "id_hhfe9uc9wmnwl0o97",
      "pitch": 44,
      "pitchName": "G#2",
      "frequencyHz": 103.826174,
      "startTick": 79920,
      "durationTicks": 240,
      "endTick": 80160,
      "startSeconds": 72.391,
      "durationSeconds": 0.217,
      "endSeconds": 72.609,
      "velocity": 0.6,
      "bendActive": true,
      "instrument": 0
    },
    {
      "id": "id_vqj72sxiomnwl0o97",
      "pitch": 47,
      "pitchName": "B2",
      "frequencyHz": 123.470825,
      "startTick": 79920,
      "durationTicks": 240,
      "endTick": 80160,
      "startSeconds": 72.391,
      "durationSeconds": 0.217,
      "endSeconds": 72.609,
      "velocity": 0.8,
      "bendActive": true,
      "instrument": 2
    },
    {
      "id": "id_syb7fwuckmnwl0o97",
      "pitch": 56,
      "pitchName": "G#3",
      "frequencyHz": 207.652349,
      "startTick": 79920,
      "durationTicks": 240,
      "endTick": 80160,
      "startSeconds": 72.391,
      "durationSeconds": 0.217,
      "endSeconds": 72.609,
      "velocity": 0.8,
      "bendActive": true,
      "instrument": 2
    },
    {
      "id": "id_dzvogjosfmnwl0o97",
      "pitch": 71,
      "pitchName": "B4",
      "frequencyHz": 493.883301,
      "startTick": 79920,
      "durationTicks": 720,
      "endTick": 80640,
      "startSeconds": 72.391,
      "durationSeconds": 0.652,
      "endSeconds": 73.043,
      "velocity": 0.8,
      "bendActive": true,
      "instrument": 2
    },
    {
      "id": "id_50gljg9xpmnwl0o97",
      "pitch": 39,
      "pitchName": "D#2",
      "frequencyHz": 77.781746,
      "startTick": 80160,
      "durationTicks": 240,
      "endTick": 80400,
      "startSeconds": 72.609,
      "durationSeconds": 0.217,
      "endSeconds": 72.826,
      "velocity": 0.8,
      "bendActive": true,
      "instrument": 1
    },
    {
      "id": "id_1oej20q5nmnwl0o97",
      "pitch": 44,
      "pitchName": "G#2",
      "frequencyHz": 103.826174,
      "startTick": 80160,
      "durationTicks": 240,
      "endTick": 80400,
      "startSeconds": 72.609,
      "durationSeconds": 0.217,
      "endSeconds": 72.826,
      "velocity": 0.6,
      "bendActive": true,
      "instrument": 0
    },
    {
      "id": "id_8rrkqbu59mnwl0o97",
      "pitch": 47,
      "pitchName": "B2",
      "frequencyHz": 123.470825,
      "startTick": 80160,
      "durationTicks": 240,
      "endTick": 80400,
      "startSeconds": 72.609,
      "durationSeconds": 0.217,
      "endSeconds": 72.826,
      "velocity": 0.8,
      "bendActive": true,
      "instrument": 2
    },
    {
      "id": "id_x4696tt3qmnwl0o97",
      "pitch": 56,
      "pitchName": "G#3",
      "frequencyHz": 207.652349,
      "startTick": 80160,
      "durationTicks": 240,
      "endTick": 80400,
      "startSeconds": 72.609,
      "durationSeconds": 0.217,
      "endSeconds": 72.826,
      "velocity": 0.8,
      "bendActive": true,
      "instrument": 2
    },
    {
      "id": "id_zwbz1k8mkmnwl0o97",
      "pitch": 39,
      "pitchName": "D#2",
      "frequencyHz": 77.781746,
      "startTick": 80400,
      "durationTicks": 240,
      "endTick": 80640,
      "startSeconds": 72.826,
      "durationSeconds": 0.217,
      "endSeconds": 73.043,
      "velocity": 0.8,
      "bendActive": true,
      "instrument": 1
    },
    {
      "id": "id_wqrfuy3s0mnwl0o97",
      "pitch": 44,
      "pitchName": "G#2",
      "frequencyHz": 103.826174,
      "startTick": 80400,
      "durationTicks": 240,
      "endTick": 80640,
      "startSeconds": 72.826,
      "durationSeconds": 0.217,
      "endSeconds": 73.043,
      "velocity": 0.6,
      "bendActive": true,
      "instrument": 0
    },
    {
      "id": "id_xbswkxxzomnwl0o97",
      "pitch": 47,
      "pitchName": "B2",
      "frequencyHz": 123.470825,
      "startTick": 80400,
      "durationTicks": 240,
      "endTick": 80640,
      "startSeconds": 72.826,
      "durationSeconds": 0.217,
      "endSeconds": 73.043,
      "velocity": 0.8,
      "bendActive": true,
      "instrument": 2
    },
    {
      "id": "id_k9ismeueymnwl0o97",
      "pitch": 56,
      "pitchName": "G#3",
      "frequencyHz": 207.652349,
      "startTick": 80400,
      "durationTicks": 240,
      "endTick": 80640,
      "startSeconds": 72.826,
      "durationSeconds": 0.217,
      "endSeconds": 73.043,
      "velocity": 0.8,
      "bendActive": true,
      "instrument": 2
    },
    {
      "id": "id_w5e7egutsmnwl0o97",
      "pitch": 37,
      "pitchName": "C#2",
      "frequencyHz": 69.295658,
      "startTick": 80640,
      "durationTicks": 240,
      "endTick": 80880,
      "startSeconds": 73.043,
      "durationSeconds": 0.217,
      "endSeconds": 73.261,
      "velocity": 0.8,
      "bendActive": true,
      "instrument": 1
    },
    {
      "id": "id_mra5psijrmnwl0o97",
      "pitch": 40,
      "pitchName": "E2",
      "frequencyHz": 82.406889,
      "startTick": 80640,
      "durationTicks": 240,
      "endTick": 80880,
      "startSeconds": 73.043,
      "durationSeconds": 0.217,
      "endSeconds": 73.261,
      "velocity": 0.6,
      "bendActive": true,
      "instrument": 0
    },
    {
      "id": "id_q3d0adclbmnwl0o97",
      "pitch": 44,
      "pitchName": "G#2",
      "frequencyHz": 103.826174,
      "startTick": 80640,
      "durationTicks": 240,
      "endTick": 80880,
      "startSeconds": 73.043,
      "durationSeconds": 0.217,
      "endSeconds": 73.261,
      "velocity": 0.8,
      "bendActive": true,
      "instrument": 2
    },
    {
      "id": "id_z1m1jqgiemnwl0o97",
      "pitch": 52,
      "pitchName": "E3",
      "frequencyHz": 164.813778,
      "startTick": 80640,
      "durationTicks": 240,
      "endTick": 80880,
      "startSeconds": 73.043,
      "durationSeconds": 0.217,
      "endSeconds": 73.261,
      "velocity": 0.8,
      "bendActive": true,
      "instrument": 2
    },
    {
      "id": "id_nuknpjow0mnwl0o97",
      "pitch": 75,
      "pitchName": "D#5",
      "frequencyHz": 622.253967,
      "startTick": 80640,
      "durationTicks": 720,
      "endTick": 81360,
      "startSeconds": 73.043,
      "durationSeconds": 0.652,
      "endSeconds": 73.696,
      "velocity": 0.8,
      "bendActive": true,
      "instrument": 2
    },
    {
      "id": "id_iapn0ciuxmnwl0o97",
      "pitch": 37,
      "pitchName": "C#2",
      "frequencyHz": 69.295658,
      "startTick": 80880,
      "durationTicks": 240,
      "endTick": 81120,
      "startSeconds": 73.261,
      "durationSeconds": 0.217,
      "endSeconds": 73.478,
      "velocity": 0.8,
      "bendActive": true,
      "instrument": 1
    },
    {
      "id": "id_4h6aivqo7mnwl0o97",
      "pitch": 40,
      "pitchName": "E2",
      "frequencyHz": 82.406889,
      "startTick": 80880,
      "durationTicks": 240,
      "endTick": 81120,
      "startSeconds": 73.261,
      "durationSeconds": 0.217,
      "endSeconds": 73.478,
      "velocity": 0.6,
      "bendActive": true,
      "instrument": 0
    },
    {
      "id": "id_2p1xxa95omnwl0o97",
      "pitch": 44,
      "pitchName": "G#2",
      "frequencyHz": 103.826174,
      "startTick": 80880,
      "durationTicks": 240,
      "endTick": 81120,
      "startSeconds": 73.261,
      "durationSeconds": 0.217,
      "endSeconds": 73.478,
      "velocity": 0.8,
      "bendActive": true,
      "instrument": 2
    },
    {
      "id": "id_ot9xktobsmnwl0o97",
      "pitch": 52,
      "pitchName": "E3",
      "frequencyHz": 164.813778,
      "startTick": 80880,
      "durationTicks": 240,
      "endTick": 81120,
      "startSeconds": 73.261,
      "durationSeconds": 0.217,
      "endSeconds": 73.478,
      "velocity": 0.8,
      "bendActive": true,
      "instrument": 2
    },
    {
      "id": "id_2yu0qmv55mnwl0o97",
      "pitch": 37,
      "pitchName": "C#2",
      "frequencyHz": 69.295658,
      "startTick": 81120,
      "durationTicks": 240,
      "endTick": 81360,
      "startSeconds": 73.478,
      "durationSeconds": 0.217,
      "endSeconds": 73.696,
      "velocity": 0.8,
      "bendActive": true,
      "instrument": 1
    },
    {
      "id": "id_77q9nmltumnwl0o97",
      "pitch": 40,
      "pitchName": "E2",
      "frequencyHz": 82.406889,
      "startTick": 81120,
      "durationTicks": 240,
      "endTick": 81360,
      "startSeconds": 73.478,
      "durationSeconds": 0.217,
      "endSeconds": 73.696,
      "velocity": 0.6,
      "bendActive": true,
      "instrument": 0
    },
    {
      "id": "id_17llqyi4vmnwl0o97",
      "pitch": 44,
      "pitchName": "G#2",
      "frequencyHz": 103.826174,
      "startTick": 81120,
      "durationTicks": 240,
      "endTick": 81360,
      "startSeconds": 73.478,
      "durationSeconds": 0.217,
      "endSeconds": 73.696,
      "velocity": 0.8,
      "bendActive": true,
      "instrument": 2
    },
    {
      "id": "id_n770v5mthmnwl0o97",
      "pitch": 52,
      "pitchName": "E3",
      "frequencyHz": 164.813778,
      "startTick": 81120,
      "durationTicks": 240,
      "endTick": 81360,
      "startSeconds": 73.478,
      "durationSeconds": 0.217,
      "endSeconds": 73.696,
      "velocity": 0.8,
      "bendActive": true,
      "instrument": 2
    },
    {
      "id": "id_zjeki0hk5mnwl0o97",
      "pitch": 37,
      "pitchName": "C#2",
      "frequencyHz": 69.295658,
      "startTick": 81360,
      "durationTicks": 240,
      "endTick": 81600,
      "startSeconds": 73.696,
      "durationSeconds": 0.217,
      "endSeconds": 73.913,
      "velocity": 0.8,
      "bendActive": true,
      "instrument": 1
    },
    {
      "id": "id_xa2876ezomnwl0o97",
      "pitch": 40,
      "pitchName": "E2",
      "frequencyHz": 82.406889,
      "startTick": 81360,
      "durationTicks": 240,
      "endTick": 81600,
      "startSeconds": 73.696,
      "durationSeconds": 0.217,
      "endSeconds": 73.913,
      "velocity": 0.6,
      "bendActive": true,
      "instrument": 0
    },
    {
      "id": "id_nx85gal1smnwl0o97",
      "pitch": 44,
      "pitchName": "G#2",
      "frequencyHz": 103.826174,
      "startTick": 81360,
      "durationTicks": 240,
      "endTick": 81600,
      "startSeconds": 73.696,
      "durationSeconds": 0.217,
      "endSeconds": 73.913,
      "velocity": 0.8,
      "bendActive": true,
      "instrument": 2
    },
    {
      "id": "id_bi99vezcpmnwl0o97",
      "pitch": 52,
      "pitchName": "E3",
      "frequencyHz": 164.813778,
      "startTick": 81360,
      "durationTicks": 240,
      "endTick": 81600,
      "startSeconds": 73.696,
      "durationSeconds": 0.217,
      "endSeconds": 73.913,
      "velocity": 0.8,
      "bendActive": true,
      "instrument": 2
    },
    {
      "id": "id_lywzmx7m8mnwl0o97",
      "pitch": 68,
      "pitchName": "G#4",
      "frequencyHz": 415.304698,
      "startTick": 81360,
      "durationTicks": 2160,
      "endTick": 83520,
      "startSeconds": 73.696,
      "durationSeconds": 1.957,
      "endSeconds": 75.652,
      "velocity": 0.8,
      "bendActive": true,
      "instrument": 2
    },
    {
      "id": "id_nn9psb556mnwl0o97",
      "pitch": 37,
      "pitchName": "C#2",
      "frequencyHz": 69.295658,
      "startTick": 81600,
      "durationTicks": 240,
      "endTick": 81840,
      "startSeconds": 73.913,
      "durationSeconds": 0.217,
      "endSeconds": 74.13,
      "velocity": 0.8,
      "bendActive": true,
      "instrument": 1
    },
    {
      "id": "id_upvp5woqhmnwl0o97",
      "pitch": 40,
      "pitchName": "E2",
      "frequencyHz": 82.406889,
      "startTick": 81600,
      "durationTicks": 240,
      "endTick": 81840,
      "startSeconds": 73.913,
      "durationSeconds": 0.217,
      "endSeconds": 74.13,
      "velocity": 0.6,
      "bendActive": true,
      "instrument": 0
    },
    {
      "id": "id_wsgx2i40cmnwl0o97",
      "pitch": 44,
      "pitchName": "G#2",
      "frequencyHz": 103.826174,
      "startTick": 81600,
      "durationTicks": 240,
      "endTick": 81840,
      "startSeconds": 73.913,
      "durationSeconds": 0.217,
      "endSeconds": 74.13,
      "velocity": 0.8,
      "bendActive": true,
      "instrument": 2
    },
    {
      "id": "id_c2lix1vzimnwl0o97",
      "pitch": 52,
      "pitchName": "E3",
      "frequencyHz": 164.813778,
      "startTick": 81600,
      "durationTicks": 240,
      "endTick": 81840,
      "startSeconds": 73.913,
      "durationSeconds": 0.217,
      "endSeconds": 74.13,
      "velocity": 0.8,
      "bendActive": true,
      "instrument": 2
    },
    {
      "id": "id_fjkiwfd9emnwl0o97",
      "pitch": 37,
      "pitchName": "C#2",
      "frequencyHz": 69.295658,
      "startTick": 81840,
      "durationTicks": 240,
      "endTick": 82080,
      "startSeconds": 74.13,
      "durationSeconds": 0.217,
      "endSeconds": 74.348,
      "velocity": 0.8,
      "bendActive": true,
      "instrument": 1
    },
    {
      "id": "id_uft3toypcmnwl0o97",
      "pitch": 40,
      "pitchName": "E2",
      "frequencyHz": 82.406889,
      "startTick": 81840,
      "durationTicks": 240,
      "endTick": 82080,
      "startSeconds": 74.13,
      "durationSeconds": 0.217,
      "endSeconds": 74.348,
      "velocity": 0.6,
      "bendActive": true,
      "instrument": 0
    },
    {
      "id": "id_wyr5m2bbmmnwl0o97",
      "pitch": 44,
      "pitchName": "G#2",
      "frequencyHz": 103.826174,
      "startTick": 81840,
      "durationTicks": 240,
      "endTick": 82080,
      "startSeconds": 74.13,
      "durationSeconds": 0.217,
      "endSeconds": 74.348,
      "velocity": 0.8,
      "bendActive": true,
      "instrument": 2
    },
    {
      "id": "id_6o4z21okfmnwl0o97",
      "pitch": 52,
      "pitchName": "E3",
      "frequencyHz": 164.813778,
      "startTick": 81840,
      "durationTicks": 240,
      "endTick": 82080,
      "startSeconds": 74.13,
      "durationSeconds": 0.217,
      "endSeconds": 74.348,
      "velocity": 0.8,
      "bendActive": true,
      "instrument": 2
    },
    {
      "id": "id_yk3gb5f05mnwl0o97",
      "pitch": 37,
      "pitchName": "C#2",
      "frequencyHz": 69.295658,
      "startTick": 82080,
      "durationTicks": 240,
      "endTick": 82320,
      "startSeconds": 74.348,
      "durationSeconds": 0.217,
      "endSeconds": 74.565,
      "velocity": 0.8,
      "bendActive": true,
      "instrument": 1
    },
    {
      "id": "id_qtrh2mxcumnwl0o97",
      "pitch": 40,
      "pitchName": "E2",
      "frequencyHz": 82.406889,
      "startTick": 82080,
      "durationTicks": 240,
      "endTick": 82320,
      "startSeconds": 74.348,
      "durationSeconds": 0.217,
      "endSeconds": 74.565,
      "velocity": 0.6,
      "bendActive": true,
      "instrument": 0
    },
    {
      "id": "id_b1iuri01cmnwl0o97",
      "pitch": 44,
      "pitchName": "G#2",
      "frequencyHz": 103.826174,
      "startTick": 82080,
      "durationTicks": 240,
      "endTick": 82320,
      "startSeconds": 74.348,
      "durationSeconds": 0.217,
      "endSeconds": 74.565,
      "velocity": 0.8,
      "bendActive": true,
      "instrument": 2
    },
    {
      "id": "id_me3oiiyxwmnwl0o97",
      "pitch": 52,
      "pitchName": "E3",
      "frequencyHz": 164.813778,
      "startTick": 82080,
      "durationTicks": 240,
      "endTick": 82320,
      "startSeconds": 74.348,
      "durationSeconds": 0.217,
      "endSeconds": 74.565,
      "velocity": 0.8,
      "bendActive": true,
      "instrument": 2
    },
    {
      "id": "id_8iawy0qtfmnwl0o97",
      "pitch": 37,
      "pitchName": "C#2",
      "frequencyHz": 69.295658,
      "startTick": 82320,
      "durationTicks": 240,
      "endTick": 82560,
      "startSeconds": 74.565,
      "durationSeconds": 0.217,
      "endSeconds": 74.783,
      "velocity": 0.8,
      "bendActive": true,
      "instrument": 1
    },
    {
      "id": "id_c2tyz6mqtmnwl0o97",
      "pitch": 40,
      "pitchName": "E2",
      "frequencyHz": 82.406889,
      "startTick": 82320,
      "durationTicks": 240,
      "endTick": 82560,
      "startSeconds": 74.565,
      "durationSeconds": 0.217,
      "endSeconds": 74.783,
      "velocity": 0.6,
      "bendActive": true,
      "instrument": 0
    },
    {
      "id": "id_npz6mcqbzmnwl0o97",
      "pitch": 44,
      "pitchName": "G#2",
      "frequencyHz": 103.826174,
      "startTick": 82320,
      "durationTicks": 240,
      "endTick": 82560,
      "startSeconds": 74.565,
      "durationSeconds": 0.217,
      "endSeconds": 74.783,
      "velocity": 0.8,
      "bendActive": true,
      "instrument": 2
    },
    {
      "id": "id_sk60704c3mnwl0o97",
      "pitch": 52,
      "pitchName": "E3",
      "frequencyHz": 164.813778,
      "startTick": 82320,
      "durationTicks": 240,
      "endTick": 82560,
      "startSeconds": 74.565,
      "durationSeconds": 0.217,
      "endSeconds": 74.783,
      "velocity": 0.8,
      "bendActive": true,
      "instrument": 2
    },
    {
      "id": "id_7hxpxe30ymnwl0o97",
      "pitch": 37,
      "pitchName": "C#2",
      "frequencyHz": 69.295658,
      "startTick": 82560,
      "durationTicks": 240,
      "endTick": 82800,
      "startSeconds": 74.783,
      "durationSeconds": 0.217,
      "endSeconds": 75,
      "velocity": 0.8,
      "bendActive": true,
      "instrument": 1
    },
    {
      "id": "id_m6rn144oumnwl0o97",
      "pitch": 40,
      "pitchName": "E2",
      "frequencyHz": 82.406889,
      "startTick": 82560,
      "durationTicks": 240,
      "endTick": 82800,
      "startSeconds": 74.783,
      "durationSeconds": 0.217,
      "endSeconds": 75,
      "velocity": 0.6,
      "bendActive": true,
      "instrument": 0
    },
    {
      "id": "id_edm70hea4mnwl0o97",
      "pitch": 44,
      "pitchName": "G#2",
      "frequencyHz": 103.826174,
      "startTick": 82560,
      "durationTicks": 240,
      "endTick": 82800,
      "startSeconds": 74.783,
      "durationSeconds": 0.217,
      "endSeconds": 75,
      "velocity": 0.8,
      "bendActive": true,
      "instrument": 2
    },
    {
      "id": "id_m6lf3ha2imnwl0o97",
      "pitch": 52,
      "pitchName": "E3",
      "frequencyHz": 164.813778,
      "startTick": 82560,
      "durationTicks": 240,
      "endTick": 82800,
      "startSeconds": 74.783,
      "durationSeconds": 0.217,
      "endSeconds": 75,
      "velocity": 0.8,
      "bendActive": true,
      "instrument": 2
    },
    {
      "id": "id_32yobdyxemnwl0o97",
      "pitch": 37,
      "pitchName": "C#2",
      "frequencyHz": 69.295658,
      "startTick": 82800,
      "durationTicks": 240,
      "endTick": 83040,
      "startSeconds": 75,
      "durationSeconds": 0.217,
      "endSeconds": 75.217,
      "velocity": 0.8,
      "bendActive": true,
      "instrument": 1
    },
    {
      "id": "id_qf14w1373mnwl0o97",
      "pitch": 40,
      "pitchName": "E2",
      "frequencyHz": 82.406889,
      "startTick": 82800,
      "durationTicks": 240,
      "endTick": 83040,
      "startSeconds": 75,
      "durationSeconds": 0.217,
      "endSeconds": 75.217,
      "velocity": 0.6,
      "bendActive": true,
      "instrument": 0
    },
    {
      "id": "id_40ue0n5famnwl0o97",
      "pitch": 44,
      "pitchName": "G#2",
      "frequencyHz": 103.826174,
      "startTick": 82800,
      "durationTicks": 240,
      "endTick": 83040,
      "startSeconds": 75,
      "durationSeconds": 0.217,
      "endSeconds": 75.217,
      "velocity": 0.8,
      "bendActive": true,
      "instrument": 2
    },
    {
      "id": "id_ek2knlyr4mnwl0o97",
      "pitch": 52,
      "pitchName": "E3",
      "frequencyHz": 164.813778,
      "startTick": 82800,
      "durationTicks": 240,
      "endTick": 83040,
      "startSeconds": 75,
      "durationSeconds": 0.217,
      "endSeconds": 75.217,
      "velocity": 0.8,
      "bendActive": true,
      "instrument": 2
    },
    {
      "id": "id_9f931hqcrmnwl0o97",
      "pitch": 37,
      "pitchName": "C#2",
      "frequencyHz": 69.295658,
      "startTick": 83040,
      "durationTicks": 240,
      "endTick": 83280,
      "startSeconds": 75.217,
      "durationSeconds": 0.217,
      "endSeconds": 75.435,
      "velocity": 0.8,
      "bendActive": true,
      "instrument": 1
    },
    {
      "id": "id_7jxmmj5ummnwl0o97",
      "pitch": 40,
      "pitchName": "E2",
      "frequencyHz": 82.406889,
      "startTick": 83040,
      "durationTicks": 240,
      "endTick": 83280,
      "startSeconds": 75.217,
      "durationSeconds": 0.217,
      "endSeconds": 75.435,
      "velocity": 0.6,
      "bendActive": true,
      "instrument": 0
    },
    {
      "id": "id_2i4yu1zg6mnwl0o97",
      "pitch": 44,
      "pitchName": "G#2",
      "frequencyHz": 103.826174,
      "startTick": 83040,
      "durationTicks": 240,
      "endTick": 83280,
      "startSeconds": 75.217,
      "durationSeconds": 0.217,
      "endSeconds": 75.435,
      "velocity": 0.8,
      "bendActive": true,
      "instrument": 2
    },
    {
      "id": "id_0d30kjiqlmnwl0o97",
      "pitch": 52,
      "pitchName": "E3",
      "frequencyHz": 164.813778,
      "startTick": 83040,
      "durationTicks": 240,
      "endTick": 83280,
      "startSeconds": 75.217,
      "durationSeconds": 0.217,
      "endSeconds": 75.435,
      "velocity": 0.8,
      "bendActive": true,
      "instrument": 2
    },
    {
      "id": "id_fvc249dt2mnwl0o97",
      "pitch": 37,
      "pitchName": "C#2",
      "frequencyHz": 69.295658,
      "startTick": 83280,
      "durationTicks": 240,
      "endTick": 83520,
      "startSeconds": 75.435,
      "durationSeconds": 0.217,
      "endSeconds": 75.652,
      "velocity": 0.8,
      "bendActive": true,
      "instrument": 1
    },
    {
      "id": "id_43k9d65memnwl0o97",
      "pitch": 40,
      "pitchName": "E2",
      "frequencyHz": 82.406889,
      "startTick": 83280,
      "durationTicks": 240,
      "endTick": 83520,
      "startSeconds": 75.435,
      "durationSeconds": 0.217,
      "endSeconds": 75.652,
      "velocity": 0.6,
      "bendActive": true,
      "instrument": 0
    },
    {
      "id": "id_uhd6gl5xpmnwl0o97",
      "pitch": 44,
      "pitchName": "G#2",
      "frequencyHz": 103.826174,
      "startTick": 83280,
      "durationTicks": 240,
      "endTick": 83520,
      "startSeconds": 75.435,
      "durationSeconds": 0.217,
      "endSeconds": 75.652,
      "velocity": 0.8,
      "bendActive": true,
      "instrument": 2
    },
    {
      "id": "id_2pfs3hs8ymnwl0o97",
      "pitch": 52,
      "pitchName": "E3",
      "frequencyHz": 164.813778,
      "startTick": 83280,
      "durationTicks": 240,
      "endTick": 83520,
      "startSeconds": 75.435,
      "durationSeconds": 0.217,
      "endSeconds": 75.652,
      "velocity": 0.8,
      "bendActive": true,
      "instrument": 2
    },
    {
      "id": "id_d1kdjj01nmnwl0o97",
      "pitch": 39,
      "pitchName": "D#2",
      "frequencyHz": 77.781746,
      "startTick": 83520,
      "durationTicks": 240,
      "endTick": 83760,
      "startSeconds": 75.652,
      "durationSeconds": 0.217,
      "endSeconds": 75.87,
      "velocity": 0.8,
      "bendActive": true,
      "instrument": 1
    },
    {
      "id": "id_gy0o9u7v5mnwl0o97",
      "pitch": 42,
      "pitchName": "F#2",
      "frequencyHz": 92.498606,
      "startTick": 83520,
      "durationTicks": 240,
      "endTick": 83760,
      "startSeconds": 75.652,
      "durationSeconds": 0.217,
      "endSeconds": 75.87,
      "velocity": 0.6,
      "bendActive": true,
      "instrument": 0
    },
    {
      "id": "id_9bf6l2jhrmnwl0o97",
      "pitch": 51,
      "pitchName": "D#3",
      "frequencyHz": 155.563492,
      "startTick": 83520,
      "durationTicks": 240,
      "endTick": 83760,
      "startSeconds": 75.652,
      "durationSeconds": 0.217,
      "endSeconds": 75.87,
      "velocity": 0.8,
      "bendActive": true,
      "instrument": 2
    },
    {
      "id": "id_u4dzqx4sgmnwl0o97",
      "pitch": 54,
      "pitchName": "F#3",
      "frequencyHz": 184.997211,
      "startTick": 83520,
      "durationTicks": 240,
      "endTick": 83760,
      "startSeconds": 75.652,
      "durationSeconds": 0.217,
      "endSeconds": 75.87,
      "velocity": 0.8,
      "bendActive": true,
      "instrument": 2
    },
    {
      "id": "id_oe6ms129ymnwl0o97",
      "pitch": 73,
      "pitchName": "C#5",
      "frequencyHz": 554.365262,
      "startTick": 83520,
      "durationTicks": 720,
      "endTick": 84240,
      "startSeconds": 75.652,
      "durationSeconds": 0.652,
      "endSeconds": 76.304,
      "velocity": 0.8,
      "bendActive": true,
      "instrument": 2
    },
    {
      "id": "id_k79cxkijomnwl0o97",
      "pitch": 39,
      "pitchName": "D#2",
      "frequencyHz": 77.781746,
      "startTick": 83760,
      "durationTicks": 240,
      "endTick": 84000,
      "startSeconds": 75.87,
      "durationSeconds": 0.217,
      "endSeconds": 76.087,
      "velocity": 0.8,
      "bendActive": true,
      "instrument": 1
    },
    {
      "id": "id_75unx6flhmnwl0o97",
      "pitch": 42,
      "pitchName": "F#2",
      "frequencyHz": 92.498606,
      "startTick": 83760,
      "durationTicks": 240,
      "endTick": 84000,
      "startSeconds": 75.87,
      "durationSeconds": 0.217,
      "endSeconds": 76.087,
      "velocity": 0.6,
      "bendActive": true,
      "instrument": 0
    },
    {
      "id": "id_jwxilbmtmmnwl0o97",
      "pitch": 51,
      "pitchName": "D#3",
      "frequencyHz": 155.563492,
      "startTick": 83760,
      "durationTicks": 240,
      "endTick": 84000,
      "startSeconds": 75.87,
      "durationSeconds": 0.217,
      "endSeconds": 76.087,
      "velocity": 0.8,
      "bendActive": true,
      "instrument": 2
    },
    {
      "id": "id_n1svjo3x9mnwl0o97",
      "pitch": 54,
      "pitchName": "F#3",
      "frequencyHz": 184.997211,
      "startTick": 83760,
      "durationTicks": 240,
      "endTick": 84000,
      "startSeconds": 75.87,
      "durationSeconds": 0.217,
      "endSeconds": 76.087,
      "velocity": 0.8,
      "bendActive": true,
      "instrument": 2
    },
    {
      "id": "id_j27vngnaqmnwl0o97",
      "pitch": 39,
      "pitchName": "D#2",
      "frequencyHz": 77.781746,
      "startTick": 84000,
      "durationTicks": 240,
      "endTick": 84240,
      "startSeconds": 76.087,
      "durationSeconds": 0.217,
      "endSeconds": 76.304,
      "velocity": 0.8,
      "bendActive": true,
      "instrument": 1
    },
    {
      "id": "id_9vwbvil5nmnwl0o97",
      "pitch": 42,
      "pitchName": "F#2",
      "frequencyHz": 92.498606,
      "startTick": 84000,
      "durationTicks": 240,
      "endTick": 84240,
      "startSeconds": 76.087,
      "durationSeconds": 0.217,
      "endSeconds": 76.304,
      "velocity": 0.6,
      "bendActive": true,
      "instrument": 0
    },
    {
      "id": "id_c5e0tlydrmnwl0o97",
      "pitch": 51,
      "pitchName": "D#3",
      "frequencyHz": 155.563492,
      "startTick": 84000,
      "durationTicks": 240,
      "endTick": 84240,
      "startSeconds": 76.087,
      "durationSeconds": 0.217,
      "endSeconds": 76.304,
      "velocity": 0.8,
      "bendActive": true,
      "instrument": 2
    },
    {
      "id": "id_00viqclvlmnwl0o97",
      "pitch": 54,
      "pitchName": "F#3",
      "frequencyHz": 184.997211,
      "startTick": 84000,
      "durationTicks": 240,
      "endTick": 84240,
      "startSeconds": 76.087,
      "durationSeconds": 0.217,
      "endSeconds": 76.304,
      "velocity": 0.8,
      "bendActive": true,
      "instrument": 2
    },
    {
      "id": "id_hnc6w3bswmnwl0o97",
      "pitch": 39,
      "pitchName": "D#2",
      "frequencyHz": 77.781746,
      "startTick": 84240,
      "durationTicks": 240,
      "endTick": 84480,
      "startSeconds": 76.304,
      "durationSeconds": 0.217,
      "endSeconds": 76.522,
      "velocity": 0.8,
      "bendActive": true,
      "instrument": 1
    },
    {
      "id": "id_damq2wp0vmnwl0o97",
      "pitch": 42,
      "pitchName": "F#2",
      "frequencyHz": 92.498606,
      "startTick": 84240,
      "durationTicks": 240,
      "endTick": 84480,
      "startSeconds": 76.304,
      "durationSeconds": 0.217,
      "endSeconds": 76.522,
      "velocity": 0.6,
      "bendActive": true,
      "instrument": 0
    },
    {
      "id": "id_49v1pv5wfmnwl0o97",
      "pitch": 51,
      "pitchName": "D#3",
      "frequencyHz": 155.563492,
      "startTick": 84240,
      "durationTicks": 240,
      "endTick": 84480,
      "startSeconds": 76.304,
      "durationSeconds": 0.217,
      "endSeconds": 76.522,
      "velocity": 0.8,
      "bendActive": true,
      "instrument": 2
    },
    {
      "id": "id_fq8vmunfjmnwl0o97",
      "pitch": 54,
      "pitchName": "F#3",
      "frequencyHz": 184.997211,
      "startTick": 84240,
      "durationTicks": 240,
      "endTick": 84480,
      "startSeconds": 76.304,
      "durationSeconds": 0.217,
      "endSeconds": 76.522,
      "velocity": 0.8,
      "bendActive": true,
      "instrument": 2
    },
    {
      "id": "id_f8k11g65jmnwl0o97",
      "pitch": 70,
      "pitchName": "A#4",
      "frequencyHz": 466.163762,
      "startTick": 84240,
      "durationTicks": 720,
      "endTick": 84960,
      "startSeconds": 76.304,
      "durationSeconds": 0.652,
      "endSeconds": 76.957,
      "velocity": 0.8,
      "bendActive": true,
      "instrument": 2
    },
    {
      "id": "id_qjz0kdqjimnwl0o97",
      "pitch": 39,
      "pitchName": "D#2",
      "frequencyHz": 77.781746,
      "startTick": 84480,
      "durationTicks": 240,
      "endTick": 84720,
      "startSeconds": 76.522,
      "durationSeconds": 0.217,
      "endSeconds": 76.739,
      "velocity": 0.8,
      "bendActive": true,
      "instrument": 1
    },
    {
      "id": "id_1rm58nkvumnwl0o97",
      "pitch": 42,
      "pitchName": "F#2",
      "frequencyHz": 92.498606,
      "startTick": 84480,
      "durationTicks": 240,
      "endTick": 84720,
      "startSeconds": 76.522,
      "durationSeconds": 0.217,
      "endSeconds": 76.739,
      "velocity": 0.6,
      "bendActive": true,
      "instrument": 0
    },
    {
      "id": "id_acl666abmmnwl0o97",
      "pitch": 51,
      "pitchName": "D#3",
      "frequencyHz": 155.563492,
      "startTick": 84480,
      "durationTicks": 240,
      "endTick": 84720,
      "startSeconds": 76.522,
      "durationSeconds": 0.217,
      "endSeconds": 76.739,
      "velocity": 0.8,
      "bendActive": true,
      "instrument": 2
    },
    {
      "id": "id_2rx24a9w5mnwl0o97",
      "pitch": 54,
      "pitchName": "F#3",
      "frequencyHz": 184.997211,
      "startTick": 84480,
      "durationTicks": 240,
      "endTick": 84720,
      "startSeconds": 76.522,
      "durationSeconds": 0.217,
      "endSeconds": 76.739,
      "velocity": 0.8,
      "bendActive": true,
      "instrument": 2
    },
    {
      "id": "id_5rtj24hyemnwl0o97",
      "pitch": 39,
      "pitchName": "D#2",
      "frequencyHz": 77.781746,
      "startTick": 84720,
      "durationTicks": 240,
      "endTick": 84960,
      "startSeconds": 76.739,
      "durationSeconds": 0.217,
      "endSeconds": 76.957,
      "velocity": 0.8,
      "bendActive": true,
      "instrument": 1
    },
    {
      "id": "id_ohd8z32ozmnwl0o97",
      "pitch": 42,
      "pitchName": "F#2",
      "frequencyHz": 92.498606,
      "startTick": 84720,
      "durationTicks": 240,
      "endTick": 84960,
      "startSeconds": 76.739,
      "durationSeconds": 0.217,
      "endSeconds": 76.957,
      "velocity": 0.6,
      "bendActive": true,
      "instrument": 0
    },
    {
      "id": "id_7kq703zfhmnwl0o97",
      "pitch": 51,
      "pitchName": "D#3",
      "frequencyHz": 155.563492,
      "startTick": 84720,
      "durationTicks": 240,
      "endTick": 84960,
      "startSeconds": 76.739,
      "durationSeconds": 0.217,
      "endSeconds": 76.957,
      "velocity": 0.8,
      "bendActive": true,
      "instrument": 2
    },
    {
      "id": "id_568s5vl7xmnwl0o97",
      "pitch": 54,
      "pitchName": "F#3",
      "frequencyHz": 184.997211,
      "startTick": 84720,
      "durationTicks": 240,
      "endTick": 84960,
      "startSeconds": 76.739,
      "durationSeconds": 0.217,
      "endSeconds": 76.957,
      "velocity": 0.8,
      "bendActive": true,
      "instrument": 2
    },
    {
      "id": "id_zcqfiytwhmnwl0o97",
      "pitch": 39,
      "pitchName": "D#2",
      "frequencyHz": 77.781746,
      "startTick": 84960,
      "durationTicks": 240,
      "endTick": 85200,
      "startSeconds": 76.957,
      "durationSeconds": 0.217,
      "endSeconds": 77.174,
      "velocity": 0.8,
      "bendActive": true,
      "instrument": 1
    },
    {
      "id": "id_xkgl3u8h5mnwl0o97",
      "pitch": 42,
      "pitchName": "F#2",
      "frequencyHz": 92.498606,
      "startTick": 84960,
      "durationTicks": 240,
      "endTick": 85200,
      "startSeconds": 76.957,
      "durationSeconds": 0.217,
      "endSeconds": 77.174,
      "velocity": 0.6,
      "bendActive": true,
      "instrument": 0
    },
    {
      "id": "id_q2a6fz2tsmnwl0o97",
      "pitch": 51,
      "pitchName": "D#3",
      "frequencyHz": 155.563492,
      "startTick": 84960,
      "durationTicks": 240,
      "endTick": 85200,
      "startSeconds": 76.957,
      "durationSeconds": 0.217,
      "endSeconds": 77.174,
      "velocity": 0.8,
      "bendActive": true,
      "instrument": 2
    },
    {
      "id": "id_6kfdcbjm8mnwl0o97",
      "pitch": 54,
      "pitchName": "F#3",
      "frequencyHz": 184.997211,
      "startTick": 84960,
      "durationTicks": 240,
      "endTick": 85200,
      "startSeconds": 76.957,
      "durationSeconds": 0.217,
      "endSeconds": 77.174,
      "velocity": 0.8,
      "bendActive": true,
      "instrument": 2
    },
    {
      "id": "id_a9316n6z5mnwl0o97",
      "pitch": 78,
      "pitchName": "F#5",
      "frequencyHz": 739.988845,
      "startTick": 84960,
      "durationTicks": 720,
      "endTick": 85680,
      "startSeconds": 76.957,
      "durationSeconds": 0.652,
      "endSeconds": 77.609,
      "velocity": 0.8,
      "bendActive": true,
      "instrument": 2
    },
    {
      "id": "id_kovho5nvbmnwl0o97",
      "pitch": 39,
      "pitchName": "D#2",
      "frequencyHz": 77.781746,
      "startTick": 85200,
      "durationTicks": 240,
      "endTick": 85440,
      "startSeconds": 77.174,
      "durationSeconds": 0.217,
      "endSeconds": 77.391,
      "velocity": 0.8,
      "bendActive": true,
      "instrument": 1
    },
    {
      "id": "id_5su1o2rw2mnwl0o97",
      "pitch": 42,
      "pitchName": "F#2",
      "frequencyHz": 92.498606,
      "startTick": 85200,
      "durationTicks": 240,
      "endTick": 85440,
      "startSeconds": 77.174,
      "durationSeconds": 0.217,
      "endSeconds": 77.391,
      "velocity": 0.6,
      "bendActive": true,
      "instrument": 0
    },
    {
      "id": "id_add6r8tw4mnwl0o97",
      "pitch": 51,
      "pitchName": "D#3",
      "frequencyHz": 155.563492,
      "startTick": 85200,
      "durationTicks": 240,
      "endTick": 85440,
      "startSeconds": 77.174,
      "durationSeconds": 0.217,
      "endSeconds": 77.391,
      "velocity": 0.8,
      "bendActive": true,
      "instrument": 2
    },
    {
      "id": "id_gmtdvr2e7mnwl0o97",
      "pitch": 54,
      "pitchName": "F#3",
      "frequencyHz": 184.997211,
      "startTick": 85200,
      "durationTicks": 240,
      "endTick": 85440,
      "startSeconds": 77.174,
      "durationSeconds": 0.217,
      "endSeconds": 77.391,
      "velocity": 0.8,
      "bendActive": true,
      "instrument": 2
    },
    {
      "id": "id_qdt5egk3emnwl0o97",
      "pitch": 39,
      "pitchName": "D#2",
      "frequencyHz": 77.781746,
      "startTick": 85440,
      "durationTicks": 240,
      "endTick": 85680,
      "startSeconds": 77.391,
      "durationSeconds": 0.217,
      "endSeconds": 77.609,
      "velocity": 0.8,
      "bendActive": true,
      "instrument": 1
    },
    {
      "id": "id_r2auanglzmnwl0o97",
      "pitch": 42,
      "pitchName": "F#2",
      "frequencyHz": 92.498606,
      "startTick": 85440,
      "durationTicks": 240,
      "endTick": 85680,
      "startSeconds": 77.391,
      "durationSeconds": 0.217,
      "endSeconds": 77.609,
      "velocity": 0.6,
      "bendActive": true,
      "instrument": 0
    },
    {
      "id": "id_nnpqxiyimmnwl0o97",
      "pitch": 51,
      "pitchName": "D#3",
      "frequencyHz": 155.563492,
      "startTick": 85440,
      "durationTicks": 240,
      "endTick": 85680,
      "startSeconds": 77.391,
      "durationSeconds": 0.217,
      "endSeconds": 77.609,
      "velocity": 0.8,
      "bendActive": true,
      "instrument": 2
    },
    {
      "id": "id_om0thlazamnwl0o97",
      "pitch": 54,
      "pitchName": "F#3",
      "frequencyHz": 184.997211,
      "startTick": 85440,
      "durationTicks": 240,
      "endTick": 85680,
      "startSeconds": 77.391,
      "durationSeconds": 0.217,
      "endSeconds": 77.609,
      "velocity": 0.8,
      "bendActive": true,
      "instrument": 2
    },
    {
      "id": "id_b522eyk74mnwl0o97",
      "pitch": 39,
      "pitchName": "D#2",
      "frequencyHz": 77.781746,
      "startTick": 85680,
      "durationTicks": 240,
      "endTick": 85920,
      "startSeconds": 77.609,
      "durationSeconds": 0.217,
      "endSeconds": 77.826,
      "velocity": 0.8,
      "bendActive": true,
      "instrument": 1
    },
    {
      "id": "id_m9bxni1r2mnwl0o97",
      "pitch": 42,
      "pitchName": "F#2",
      "frequencyHz": 92.498606,
      "startTick": 85680,
      "durationTicks": 240,
      "endTick": 85920,
      "startSeconds": 77.609,
      "durationSeconds": 0.217,
      "endSeconds": 77.826,
      "velocity": 0.6,
      "bendActive": true,
      "instrument": 0
    },
    {
      "id": "id_vh5cvw1dgmnwl0o97",
      "pitch": 51,
      "pitchName": "D#3",
      "frequencyHz": 155.563492,
      "startTick": 85680,
      "durationTicks": 240,
      "endTick": 85920,
      "startSeconds": 77.609,
      "durationSeconds": 0.217,
      "endSeconds": 77.826,
      "velocity": 0.8,
      "bendActive": true,
      "instrument": 2
    },
    {
      "id": "id_ng0hfq6hcmnwl0o97",
      "pitch": 54,
      "pitchName": "F#3",
      "frequencyHz": 184.997211,
      "startTick": 85680,
      "durationTicks": 240,
      "endTick": 85920,
      "startSeconds": 77.609,
      "durationSeconds": 0.217,
      "endSeconds": 77.826,
      "velocity": 0.8,
      "bendActive": true,
      "instrument": 2
    },
    {
      "id": "id_2t7cm0u2rmnwl0o97",
      "pitch": 80,
      "pitchName": "G#5",
      "frequencyHz": 830.609395,
      "startTick": 85680,
      "durationTicks": 720,
      "endTick": 86400,
      "startSeconds": 77.609,
      "durationSeconds": 0.652,
      "endSeconds": 78.261,
      "velocity": 0.8,
      "bendActive": true,
      "instrument": 2
    },
    {
      "id": "id_w4oj0q2o8mnwl0o97",
      "pitch": 39,
      "pitchName": "D#2",
      "frequencyHz": 77.781746,
      "startTick": 85920,
      "durationTicks": 240,
      "endTick": 86160,
      "startSeconds": 77.826,
      "durationSeconds": 0.217,
      "endSeconds": 78.043,
      "velocity": 0.8,
      "bendActive": true,
      "instrument": 1
    },
    {
      "id": "id_wu9ptoq96mnwl0o97",
      "pitch": 42,
      "pitchName": "F#2",
      "frequencyHz": 92.498606,
      "startTick": 85920,
      "durationTicks": 240,
      "endTick": 86160,
      "startSeconds": 77.826,
      "durationSeconds": 0.217,
      "endSeconds": 78.043,
      "velocity": 0.6,
      "bendActive": true,
      "instrument": 0
    },
    {
      "id": "id_qte46j22jmnwl0o97",
      "pitch": 51,
      "pitchName": "D#3",
      "frequencyHz": 155.563492,
      "startTick": 85920,
      "durationTicks": 240,
      "endTick": 86160,
      "startSeconds": 77.826,
      "durationSeconds": 0.217,
      "endSeconds": 78.043,
      "velocity": 0.8,
      "bendActive": true,
      "instrument": 2
    },
    {
      "id": "id_zf5navxyemnwl0o97",
      "pitch": 54,
      "pitchName": "F#3",
      "frequencyHz": 184.997211,
      "startTick": 85920,
      "durationTicks": 240,
      "endTick": 86160,
      "startSeconds": 77.826,
      "durationSeconds": 0.217,
      "endSeconds": 78.043,
      "velocity": 0.8,
      "bendActive": true,
      "instrument": 2
    },
    {
      "id": "id_acw8j0jubmnwl0o97",
      "pitch": 39,
      "pitchName": "D#2",
      "frequencyHz": 77.781746,
      "startTick": 86160,
      "durationTicks": 240,
      "endTick": 86400,
      "startSeconds": 78.043,
      "durationSeconds": 0.217,
      "endSeconds": 78.261,
      "velocity": 0.8,
      "bendActive": true,
      "instrument": 1
    },
    {
      "id": "id_1yl8i1f7vmnwl0o97",
      "pitch": 42,
      "pitchName": "F#2",
      "frequencyHz": 92.498606,
      "startTick": 86160,
      "durationTicks": 240,
      "endTick": 86400,
      "startSeconds": 78.043,
      "durationSeconds": 0.217,
      "endSeconds": 78.261,
      "velocity": 0.6,
      "bendActive": true,
      "instrument": 0
    },
    {
      "id": "id_5nglrpibrmnwl0o97",
      "pitch": 51,
      "pitchName": "D#3",
      "frequencyHz": 155.563492,
      "startTick": 86160,
      "durationTicks": 240,
      "endTick": 86400,
      "startSeconds": 78.043,
      "durationSeconds": 0.217,
      "endSeconds": 78.261,
      "velocity": 0.8,
      "bendActive": true,
      "instrument": 2
    },
    {
      "id": "id_5hwiz8xaumnwl0o97",
      "pitch": 54,
      "pitchName": "F#3",
      "frequencyHz": 184.997211,
      "startTick": 86160,
      "durationTicks": 240,
      "endTick": 86400,
      "startSeconds": 78.043,
      "durationSeconds": 0.217,
      "endSeconds": 78.261,
      "velocity": 0.8,
      "bendActive": true,
      "instrument": 2
    },
    {
      "id": "id_cdpmhxm8umnwl0o97",
      "pitch": 37,
      "pitchName": "C#2",
      "frequencyHz": 69.295658,
      "startTick": 86400,
      "durationTicks": 240,
      "endTick": 86640,
      "startSeconds": 78.261,
      "durationSeconds": 0.217,
      "endSeconds": 78.478,
      "velocity": 0.6,
      "bendActive": true,
      "instrument": 0
    },
    {
      "id": "id_onchcd554mnwl0o97",
      "pitch": 47,
      "pitchName": "B2",
      "frequencyHz": 123.470825,
      "startTick": 86400,
      "durationTicks": 240,
      "endTick": 86640,
      "startSeconds": 78.261,
      "durationSeconds": 0.217,
      "endSeconds": 78.478,
      "velocity": 0.8,
      "bendActive": true,
      "instrument": 2
    },
    {
      "id": "id_1xlzijyg7mnwl0o97",
      "pitch": 49,
      "pitchName": "C#3",
      "frequencyHz": 138.591315,
      "startTick": 86400,
      "durationTicks": 240,
      "endTick": 86640,
      "startSeconds": 78.261,
      "durationSeconds": 0.217,
      "endSeconds": 78.478,
      "velocity": 0.8,
      "bendActive": true,
      "instrument": 1
    },
    {
      "id": "id_b6ge9eiuwmnwl0o97",
      "pitch": 52,
      "pitchName": "E3",
      "frequencyHz": 164.813778,
      "startTick": 86400,
      "durationTicks": 240,
      "endTick": 86640,
      "startSeconds": 78.261,
      "durationSeconds": 0.217,
      "endSeconds": 78.478,
      "velocity": 0.8,
      "bendActive": true,
      "instrument": 2
    },
    {
      "id": "id_fvxv4lzvomnwl0o97",
      "pitch": 75,
      "pitchName": "D#5",
      "frequencyHz": 622.253967,
      "startTick": 86400,
      "durationTicks": 720,
      "endTick": 87120,
      "startSeconds": 78.261,
      "durationSeconds": 0.652,
      "endSeconds": 78.913,
      "velocity": 0.8,
      "bendActive": true,
      "instrument": 2
    },
    {
      "id": "id_hkmnseh92mnwl0o97",
      "pitch": 37,
      "pitchName": "C#2",
      "frequencyHz": 69.295658,
      "startTick": 86640,
      "durationTicks": 240,
      "endTick": 86880,
      "startSeconds": 78.478,
      "durationSeconds": 0.217,
      "endSeconds": 78.696,
      "velocity": 0.6,
      "bendActive": true,
      "instrument": 0
    },
    {
      "id": "id_7dx8xxr3xmnwl0o97",
      "pitch": 47,
      "pitchName": "B2",
      "frequencyHz": 123.470825,
      "startTick": 86640,
      "durationTicks": 240,
      "endTick": 86880,
      "startSeconds": 78.478,
      "durationSeconds": 0.217,
      "endSeconds": 78.696,
      "velocity": 0.8,
      "bendActive": true,
      "instrument": 2
    },
    {
      "id": "id_3mv3pupi4mnwl0o97",
      "pitch": 49,
      "pitchName": "C#3",
      "frequencyHz": 138.591315,
      "startTick": 86640,
      "durationTicks": 240,
      "endTick": 86880,
      "startSeconds": 78.478,
      "durationSeconds": 0.217,
      "endSeconds": 78.696,
      "velocity": 0.8,
      "bendActive": true,
      "instrument": 1
    },
    {
      "id": "id_43h8sta8nmnwl0o97",
      "pitch": 52,
      "pitchName": "E3",
      "frequencyHz": 164.813778,
      "startTick": 86640,
      "durationTicks": 240,
      "endTick": 86880,
      "startSeconds": 78.478,
      "durationSeconds": 0.217,
      "endSeconds": 78.696,
      "velocity": 0.8,
      "bendActive": true,
      "instrument": 2
    },
    {
      "id": "id_a395vvav0mnwl0o97",
      "pitch": 37,
      "pitchName": "C#2",
      "frequencyHz": 69.295658,
      "startTick": 86880,
      "durationTicks": 240,
      "endTick": 87120,
      "startSeconds": 78.696,
      "durationSeconds": 0.217,
      "endSeconds": 78.913,
      "velocity": 0.6,
      "bendActive": true,
      "instrument": 0
    },
    {
      "id": "id_45ycu7tj5mnwl0o97",
      "pitch": 47,
      "pitchName": "B2",
      "frequencyHz": 123.470825,
      "startTick": 86880,
      "durationTicks": 240,
      "endTick": 87120,
      "startSeconds": 78.696,
      "durationSeconds": 0.217,
      "endSeconds": 78.913,
      "velocity": 0.8,
      "bendActive": true,
      "instrument": 2
    },
    {
      "id": "id_fhuvdoyw3mnwl0o97",
      "pitch": 49,
      "pitchName": "C#3",
      "frequencyHz": 138.591315,
      "startTick": 86880,
      "durationTicks": 240,
      "endTick": 87120,
      "startSeconds": 78.696,
      "durationSeconds": 0.217,
      "endSeconds": 78.913,
      "velocity": 0.8,
      "bendActive": true,
      "instrument": 1
    },
    {
      "id": "id_6xm6c8ddcmnwl0o97",
      "pitch": 52,
      "pitchName": "E3",
      "frequencyHz": 164.813778,
      "startTick": 86880,
      "durationTicks": 240,
      "endTick": 87120,
      "startSeconds": 78.696,
      "durationSeconds": 0.217,
      "endSeconds": 78.913,
      "velocity": 0.8,
      "bendActive": true,
      "instrument": 2
    },
    {
      "id": "id_ejtob026qmnwl0o97",
      "pitch": 37,
      "pitchName": "C#2",
      "frequencyHz": 69.295658,
      "startTick": 87120,
      "durationTicks": 240,
      "endTick": 87360,
      "startSeconds": 78.913,
      "durationSeconds": 0.217,
      "endSeconds": 79.13,
      "velocity": 0.6,
      "bendActive": true,
      "instrument": 0
    },
    {
      "id": "id_qktvpjr8zmnwl0o97",
      "pitch": 47,
      "pitchName": "B2",
      "frequencyHz": 123.470825,
      "startTick": 87120,
      "durationTicks": 240,
      "endTick": 87360,
      "startSeconds": 78.913,
      "durationSeconds": 0.217,
      "endSeconds": 79.13,
      "velocity": 0.8,
      "bendActive": true,
      "instrument": 2
    },
    {
      "id": "id_azf9nw1fmmnwl0o97",
      "pitch": 49,
      "pitchName": "C#3",
      "frequencyHz": 138.591315,
      "startTick": 87120,
      "durationTicks": 240,
      "endTick": 87360,
      "startSeconds": 78.913,
      "durationSeconds": 0.217,
      "endSeconds": 79.13,
      "velocity": 0.8,
      "bendActive": true,
      "instrument": 1
    },
    {
      "id": "id_v1desd7g9mnwl0o97",
      "pitch": 52,
      "pitchName": "E3",
      "frequencyHz": 164.813778,
      "startTick": 87120,
      "durationTicks": 240,
      "endTick": 87360,
      "startSeconds": 78.913,
      "durationSeconds": 0.217,
      "endSeconds": 79.13,
      "velocity": 0.8,
      "bendActive": true,
      "instrument": 2
    },
    {
      "id": "id_r2u7jvoc8mnwl0o97",
      "pitch": 68,
      "pitchName": "G#4",
      "frequencyHz": 415.304698,
      "startTick": 87120,
      "durationTicks": 720,
      "endTick": 87840,
      "startSeconds": 78.913,
      "durationSeconds": 0.652,
      "endSeconds": 79.565,
      "velocity": 0.8,
      "bendActive": true,
      "instrument": 2
    },
    {
      "id": "id_eahj97y0tmnwl0o97",
      "pitch": 37,
      "pitchName": "C#2",
      "frequencyHz": 69.295658,
      "startTick": 87360,
      "durationTicks": 240,
      "endTick": 87600,
      "startSeconds": 79.13,
      "durationSeconds": 0.217,
      "endSeconds": 79.348,
      "velocity": 0.6,
      "bendActive": true,
      "instrument": 0
    },
    {
      "id": "id_hwi465octmnwl0o97",
      "pitch": 47,
      "pitchName": "B2",
      "frequencyHz": 123.470825,
      "startTick": 87360,
      "durationTicks": 240,
      "endTick": 87600,
      "startSeconds": 79.13,
      "durationSeconds": 0.217,
      "endSeconds": 79.348,
      "velocity": 0.8,
      "bendActive": true,
      "instrument": 2
    },
    {
      "id": "id_ranvgey9emnwl0o97",
      "pitch": 49,
      "pitchName": "C#3",
      "frequencyHz": 138.591315,
      "startTick": 87360,
      "durationTicks": 240,
      "endTick": 87600,
      "startSeconds": 79.13,
      "durationSeconds": 0.217,
      "endSeconds": 79.348,
      "velocity": 0.8,
      "bendActive": true,
      "instrument": 1
    },
    {
      "id": "id_075lag38hmnwl0o97",
      "pitch": 52,
      "pitchName": "E3",
      "frequencyHz": 164.813778,
      "startTick": 87360,
      "durationTicks": 240,
      "endTick": 87600,
      "startSeconds": 79.13,
      "durationSeconds": 0.217,
      "endSeconds": 79.348,
      "velocity": 0.8,
      "bendActive": true,
      "instrument": 2
    },
    {
      "id": "id_3s3g2mappmnwl0o97",
      "pitch": 37,
      "pitchName": "C#2",
      "frequencyHz": 69.295658,
      "startTick": 87600,
      "durationTicks": 240,
      "endTick": 87840,
      "startSeconds": 79.348,
      "durationSeconds": 0.217,
      "endSeconds": 79.565,
      "velocity": 0.6,
      "bendActive": true,
      "instrument": 0
    },
    {
      "id": "id_04touojgamnwl0o97",
      "pitch": 47,
      "pitchName": "B2",
      "frequencyHz": 123.470825,
      "startTick": 87600,
      "durationTicks": 240,
      "endTick": 87840,
      "startSeconds": 79.348,
      "durationSeconds": 0.217,
      "endSeconds": 79.565,
      "velocity": 0.8,
      "bendActive": true,
      "instrument": 2
    },
    {
      "id": "id_3ony8kzbtmnwl0o97",
      "pitch": 49,
      "pitchName": "C#3",
      "frequencyHz": 138.591315,
      "startTick": 87600,
      "durationTicks": 240,
      "endTick": 87840,
      "startSeconds": 79.348,
      "durationSeconds": 0.217,
      "endSeconds": 79.565,
      "velocity": 0.8,
      "bendActive": true,
      "instrument": 1
    },
    {
      "id": "id_rgzk9daxsmnwl0o97",
      "pitch": 52,
      "pitchName": "E3",
      "frequencyHz": 164.813778,
      "startTick": 87600,
      "durationTicks": 240,
      "endTick": 87840,
      "startSeconds": 79.348,
      "durationSeconds": 0.217,
      "endSeconds": 79.565,
      "velocity": 0.8,
      "bendActive": true,
      "instrument": 2
    },
    {
      "id": "id_6yvk9kgezmnwl0o97",
      "pitch": 37,
      "pitchName": "C#2",
      "frequencyHz": 69.295658,
      "startTick": 87840,
      "durationTicks": 240,
      "endTick": 88080,
      "startSeconds": 79.565,
      "durationSeconds": 0.217,
      "endSeconds": 79.783,
      "velocity": 0.6,
      "bendActive": true,
      "instrument": 0
    },
    {
      "id": "id_oboe0ocwmmnwl0o97",
      "pitch": 47,
      "pitchName": "B2",
      "frequencyHz": 123.470825,
      "startTick": 87840,
      "durationTicks": 240,
      "endTick": 88080,
      "startSeconds": 79.565,
      "durationSeconds": 0.217,
      "endSeconds": 79.783,
      "velocity": 0.8,
      "bendActive": true,
      "instrument": 2
    },
    {
      "id": "id_lxx7cnmfimnwl0o97",
      "pitch": 49,
      "pitchName": "C#3",
      "frequencyHz": 138.591315,
      "startTick": 87840,
      "durationTicks": 240,
      "endTick": 88080,
      "startSeconds": 79.565,
      "durationSeconds": 0.217,
      "endSeconds": 79.783,
      "velocity": 0.8,
      "bendActive": true,
      "instrument": 1
    },
    {
      "id": "id_c24h8qdigmnwl0o97",
      "pitch": 52,
      "pitchName": "E3",
      "frequencyHz": 164.813778,
      "startTick": 87840,
      "durationTicks": 240,
      "endTick": 88080,
      "startSeconds": 79.565,
      "durationSeconds": 0.217,
      "endSeconds": 79.783,
      "velocity": 0.8,
      "bendActive": true,
      "instrument": 2
    },
    {
      "id": "id_8igw9jx2emnwl0o97",
      "pitch": 71,
      "pitchName": "B4",
      "frequencyHz": 493.883301,
      "startTick": 87840,
      "durationTicks": 720,
      "endTick": 88560,
      "startSeconds": 79.565,
      "durationSeconds": 0.652,
      "endSeconds": 80.217,
      "velocity": 0.8,
      "bendActive": true,
      "instrument": 2
    },
    {
      "id": "id_b0vei469smnwl0o97",
      "pitch": 37,
      "pitchName": "C#2",
      "frequencyHz": 69.295658,
      "startTick": 88080,
      "durationTicks": 240,
      "endTick": 88320,
      "startSeconds": 79.783,
      "durationSeconds": 0.217,
      "endSeconds": 80,
      "velocity": 0.6,
      "bendActive": true,
      "instrument": 0
    },
    {
      "id": "id_kfh4lz6egmnwl0o97",
      "pitch": 47,
      "pitchName": "B2",
      "frequencyHz": 123.470825,
      "startTick": 88080,
      "durationTicks": 240,
      "endTick": 88320,
      "startSeconds": 79.783,
      "durationSeconds": 0.217,
      "endSeconds": 80,
      "velocity": 0.8,
      "bendActive": true,
      "instrument": 2
    },
    {
      "id": "id_dk20po141mnwl0o97",
      "pitch": 49,
      "pitchName": "C#3",
      "frequencyHz": 138.591315,
      "startTick": 88080,
      "durationTicks": 240,
      "endTick": 88320,
      "startSeconds": 79.783,
      "durationSeconds": 0.217,
      "endSeconds": 80,
      "velocity": 0.8,
      "bendActive": true,
      "instrument": 1
    },
    {
      "id": "id_oao40sek4mnwl0o97",
      "pitch": 52,
      "pitchName": "E3",
      "frequencyHz": 164.813778,
      "startTick": 88080,
      "durationTicks": 240,
      "endTick": 88320,
      "startSeconds": 79.783,
      "durationSeconds": 0.217,
      "endSeconds": 80,
      "velocity": 0.8,
      "bendActive": true,
      "instrument": 2
    },
    {
      "id": "id_sqml43i9emnwl0o97",
      "pitch": 37,
      "pitchName": "C#2",
      "frequencyHz": 69.295658,
      "startTick": 88320,
      "durationTicks": 240,
      "endTick": 88560,
      "startSeconds": 80,
      "durationSeconds": 0.217,
      "endSeconds": 80.217,
      "velocity": 0.6,
      "bendActive": true,
      "instrument": 0
    },
    {
      "id": "id_agd1xybdjmnwl0o97",
      "pitch": 47,
      "pitchName": "B2",
      "frequencyHz": 123.470825,
      "startTick": 88320,
      "durationTicks": 240,
      "endTick": 88560,
      "startSeconds": 80,
      "durationSeconds": 0.217,
      "endSeconds": 80.217,
      "velocity": 0.8,
      "bendActive": true,
      "instrument": 2
    },
    {
      "id": "id_gm26dedz1mnwl0o97",
      "pitch": 49,
      "pitchName": "C#3",
      "frequencyHz": 138.591315,
      "startTick": 88320,
      "durationTicks": 240,
      "endTick": 88560,
      "startSeconds": 80,
      "durationSeconds": 0.217,
      "endSeconds": 80.217,
      "velocity": 0.8,
      "bendActive": true,
      "instrument": 1
    },
    {
      "id": "id_4sj2okcjqmnwl0o97",
      "pitch": 52,
      "pitchName": "E3",
      "frequencyHz": 164.813778,
      "startTick": 88320,
      "durationTicks": 240,
      "endTick": 88560,
      "startSeconds": 80,
      "durationSeconds": 0.217,
      "endSeconds": 80.217,
      "velocity": 0.8,
      "bendActive": true,
      "instrument": 2
    },
    {
      "id": "id_w9au546vxmnwl0o97",
      "pitch": 37,
      "pitchName": "C#2",
      "frequencyHz": 69.295658,
      "startTick": 88560,
      "durationTicks": 240,
      "endTick": 88800,
      "startSeconds": 80.217,
      "durationSeconds": 0.217,
      "endSeconds": 80.435,
      "velocity": 0.6,
      "bendActive": true,
      "instrument": 0
    },
    {
      "id": "id_rhtft9uw2mnwl0o97",
      "pitch": 47,
      "pitchName": "B2",
      "frequencyHz": 123.470825,
      "startTick": 88560,
      "durationTicks": 240,
      "endTick": 88800,
      "startSeconds": 80.217,
      "durationSeconds": 0.217,
      "endSeconds": 80.435,
      "velocity": 0.8,
      "bendActive": true,
      "instrument": 2
    },
    {
      "id": "id_h2zg6ono2mnwl0o97",
      "pitch": 49,
      "pitchName": "C#3",
      "frequencyHz": 138.591315,
      "startTick": 88560,
      "durationTicks": 240,
      "endTick": 88800,
      "startSeconds": 80.217,
      "durationSeconds": 0.217,
      "endSeconds": 80.435,
      "velocity": 0.8,
      "bendActive": true,
      "instrument": 1
    },
    {
      "id": "id_i5a6osi6qmnwl0o97",
      "pitch": 52,
      "pitchName": "E3",
      "frequencyHz": 164.813778,
      "startTick": 88560,
      "durationTicks": 240,
      "endTick": 88800,
      "startSeconds": 80.217,
      "durationSeconds": 0.217,
      "endSeconds": 80.435,
      "velocity": 0.8,
      "bendActive": true,
      "instrument": 2
    },
    {
      "id": "id_1ksiqusa1mnwl0o97",
      "pitch": 73,
      "pitchName": "C#5",
      "frequencyHz": 554.365262,
      "startTick": 88560,
      "durationTicks": 720,
      "endTick": 89280,
      "startSeconds": 80.217,
      "durationSeconds": 0.652,
      "endSeconds": 80.87,
      "velocity": 0.8,
      "bendActive": true,
      "instrument": 2
    },
    {
      "id": "id_godl9wszymnwl0o97",
      "pitch": 37,
      "pitchName": "C#2",
      "frequencyHz": 69.295658,
      "startTick": 88800,
      "durationTicks": 240,
      "endTick": 89040,
      "startSeconds": 80.435,
      "durationSeconds": 0.217,
      "endSeconds": 80.652,
      "velocity": 0.6,
      "bendActive": true,
      "instrument": 0
    },
    {
      "id": "id_a2spxu3sfmnwl0o97",
      "pitch": 47,
      "pitchName": "B2",
      "frequencyHz": 123.470825,
      "startTick": 88800,
      "durationTicks": 240,
      "endTick": 89040,
      "startSeconds": 80.435,
      "durationSeconds": 0.217,
      "endSeconds": 80.652,
      "velocity": 0.8,
      "bendActive": true,
      "instrument": 2
    },
    {
      "id": "id_1isx6tb1zmnwl0o97",
      "pitch": 49,
      "pitchName": "C#3",
      "frequencyHz": 138.591315,
      "startTick": 88800,
      "durationTicks": 240,
      "endTick": 89040,
      "startSeconds": 80.435,
      "durationSeconds": 0.217,
      "endSeconds": 80.652,
      "velocity": 0.8,
      "bendActive": true,
      "instrument": 1
    },
    {
      "id": "id_382y35us4mnwl0o97",
      "pitch": 52,
      "pitchName": "E3",
      "frequencyHz": 164.813778,
      "startTick": 88800,
      "durationTicks": 240,
      "endTick": 89040,
      "startSeconds": 80.435,
      "durationSeconds": 0.217,
      "endSeconds": 80.652,
      "velocity": 0.8,
      "bendActive": true,
      "instrument": 2
    },
    {
      "id": "id_mew9wrq26mnwl0o97",
      "pitch": 37,
      "pitchName": "C#2",
      "frequencyHz": 69.295658,
      "startTick": 89040,
      "durationTicks": 240,
      "endTick": 89280,
      "startSeconds": 80.652,
      "durationSeconds": 0.217,
      "endSeconds": 80.87,
      "velocity": 0.6,
      "bendActive": true,
      "instrument": 0
    },
    {
      "id": "id_cmeal1z3umnwl0o97",
      "pitch": 47,
      "pitchName": "B2",
      "frequencyHz": 123.470825,
      "startTick": 89040,
      "durationTicks": 240,
      "endTick": 89280,
      "startSeconds": 80.652,
      "durationSeconds": 0.217,
      "endSeconds": 80.87,
      "velocity": 0.8,
      "bendActive": true,
      "instrument": 2
    },
    {
      "id": "id_dgsgfod7omnwl0o97",
      "pitch": 49,
      "pitchName": "C#3",
      "frequencyHz": 138.591315,
      "startTick": 89040,
      "durationTicks": 240,
      "endTick": 89280,
      "startSeconds": 80.652,
      "durationSeconds": 0.217,
      "endSeconds": 80.87,
      "velocity": 0.8,
      "bendActive": true,
      "instrument": 1
    },
    {
      "id": "id_8xiyqnbnimnwl0o97",
      "pitch": 52,
      "pitchName": "E3",
      "frequencyHz": 164.813778,
      "startTick": 89040,
      "durationTicks": 240,
      "endTick": 89280,
      "startSeconds": 80.652,
      "durationSeconds": 0.217,
      "endSeconds": 80.87,
      "velocity": 0.8,
      "bendActive": true,
      "instrument": 2
    },
    {
      "id": "id_vy5yjll7smnwl0o97",
      "pitch": 39,
      "pitchName": "D#2",
      "frequencyHz": 77.781746,
      "startTick": 89280,
      "durationTicks": 240,
      "endTick": 89520,
      "startSeconds": 80.87,
      "durationSeconds": 0.217,
      "endSeconds": 81.087,
      "velocity": 0.6,
      "bendActive": true,
      "instrument": 0
    },
    {
      "id": "id_dfqkrqxf4mnwl0o97",
      "pitch": 46,
      "pitchName": "A#2",
      "frequencyHz": 116.54094,
      "startTick": 89280,
      "durationTicks": 240,
      "endTick": 89520,
      "startSeconds": 80.87,
      "durationSeconds": 0.217,
      "endSeconds": 81.087,
      "velocity": 0.8,
      "bendActive": true,
      "instrument": 2
    },
    {
      "id": "id_uns6f7ianmnwl0o97",
      "pitch": 51,
      "pitchName": "D#3",
      "frequencyHz": 155.563492,
      "startTick": 89280,
      "durationTicks": 240,
      "endTick": 89520,
      "startSeconds": 80.87,
      "durationSeconds": 0.217,
      "endSeconds": 81.087,
      "velocity": 0.8,
      "bendActive": true,
      "instrument": 1
    },
    {
      "id": "id_991v2qujwmnwl0o97",
      "pitch": 54,
      "pitchName": "F#3",
      "frequencyHz": 184.997211,
      "startTick": 89280,
      "durationTicks": 240,
      "endTick": 89520,
      "startSeconds": 80.87,
      "durationSeconds": 0.217,
      "endSeconds": 81.087,
      "velocity": 0.8,
      "bendActive": true,
      "instrument": 2
    },
    {
      "id": "id_tq36i4dr7mnwm6rs1",
      "pitch": 75,
      "pitchName": "D#5",
      "frequencyHz": 622.253967,
      "startTick": 89280,
      "durationTicks": 720,
      "endTick": 90000,
      "startSeconds": 80.87,
      "durationSeconds": 0.652,
      "endSeconds": 81.522,
      "velocity": 0.8,
      "bendActive": true,
      "instrument": 2
    },
    {
      "id": "id_c44n0i8comnwl0o97",
      "pitch": 39,
      "pitchName": "D#2",
      "frequencyHz": 77.781746,
      "startTick": 89520,
      "durationTicks": 240,
      "endTick": 89760,
      "startSeconds": 81.087,
      "durationSeconds": 0.217,
      "endSeconds": 81.304,
      "velocity": 0.6,
      "bendActive": true,
      "instrument": 0
    },
    {
      "id": "id_innlbgizomnwl0o97",
      "pitch": 46,
      "pitchName": "A#2",
      "frequencyHz": 116.54094,
      "startTick": 89520,
      "durationTicks": 240,
      "endTick": 89760,
      "startSeconds": 81.087,
      "durationSeconds": 0.217,
      "endSeconds": 81.304,
      "velocity": 0.8,
      "bendActive": true,
      "instrument": 2
    },
    {
      "id": "id_hn8ooiy97mnwl0o97",
      "pitch": 51,
      "pitchName": "D#3",
      "frequencyHz": 155.563492,
      "startTick": 89520,
      "durationTicks": 240,
      "endTick": 89760,
      "startSeconds": 81.087,
      "durationSeconds": 0.217,
      "endSeconds": 81.304,
      "velocity": 0.8,
      "bendActive": true,
      "instrument": 1
    },
    {
      "id": "id_hpfphu2rkmnwl0o97",
      "pitch": 54,
      "pitchName": "F#3",
      "frequencyHz": 184.997211,
      "startTick": 89520,
      "durationTicks": 240,
      "endTick": 89760,
      "startSeconds": 81.087,
      "durationSeconds": 0.217,
      "endSeconds": 81.304,
      "velocity": 0.8,
      "bendActive": true,
      "instrument": 2
    },
    {
      "id": "id_qi5fulgf9mnwl0o97",
      "pitch": 39,
      "pitchName": "D#2",
      "frequencyHz": 77.781746,
      "startTick": 89760,
      "durationTicks": 240,
      "endTick": 90000,
      "startSeconds": 81.304,
      "durationSeconds": 0.217,
      "endSeconds": 81.522,
      "velocity": 0.6,
      "bendActive": true,
      "instrument": 0
    },
    {
      "id": "id_suavx5lasmnwl0o97",
      "pitch": 46,
      "pitchName": "A#2",
      "frequencyHz": 116.54094,
      "startTick": 89760,
      "durationTicks": 240,
      "endTick": 90000,
      "startSeconds": 81.304,
      "durationSeconds": 0.217,
      "endSeconds": 81.522,
      "velocity": 0.8,
      "bendActive": true,
      "instrument": 2
    },
    {
      "id": "id_ylx2i3u4vmnwl0o97",
      "pitch": 51,
      "pitchName": "D#3",
      "frequencyHz": 155.563492,
      "startTick": 89760,
      "durationTicks": 240,
      "endTick": 90000,
      "startSeconds": 81.304,
      "durationSeconds": 0.217,
      "endSeconds": 81.522,
      "velocity": 0.8,
      "bendActive": true,
      "instrument": 1
    },
    {
      "id": "id_i2973xhazmnwl0o97",
      "pitch": 54,
      "pitchName": "F#3",
      "frequencyHz": 184.997211,
      "startTick": 89760,
      "durationTicks": 240,
      "endTick": 90000,
      "startSeconds": 81.304,
      "durationSeconds": 0.217,
      "endSeconds": 81.522,
      "velocity": 0.8,
      "bendActive": true,
      "instrument": 2
    },
    {
      "id": "id_lgcn8wqygmnwl0o97",
      "pitch": 39,
      "pitchName": "D#2",
      "frequencyHz": 77.781746,
      "startTick": 90000,
      "durationTicks": 240,
      "endTick": 90240,
      "startSeconds": 81.522,
      "durationSeconds": 0.217,
      "endSeconds": 81.739,
      "velocity": 0.6,
      "bendActive": true,
      "instrument": 0
    },
    {
      "id": "id_dt2q16jlbmnwl0o97",
      "pitch": 46,
      "pitchName": "A#2",
      "frequencyHz": 116.54094,
      "startTick": 90000,
      "durationTicks": 240,
      "endTick": 90240,
      "startSeconds": 81.522,
      "durationSeconds": 0.217,
      "endSeconds": 81.739,
      "velocity": 0.8,
      "bendActive": true,
      "instrument": 2
    },
    {
      "id": "id_1xpveu3wzmnwl0o97",
      "pitch": 51,
      "pitchName": "D#3",
      "frequencyHz": 155.563492,
      "startTick": 90000,
      "durationTicks": 240,
      "endTick": 90240,
      "startSeconds": 81.522,
      "durationSeconds": 0.217,
      "endSeconds": 81.739,
      "velocity": 0.8,
      "bendActive": true,
      "instrument": 1
    },
    {
      "id": "id_9ntf4h3tvmnwl0o97",
      "pitch": 54,
      "pitchName": "F#3",
      "frequencyHz": 184.997211,
      "startTick": 90000,
      "durationTicks": 240,
      "endTick": 90240,
      "startSeconds": 81.522,
      "durationSeconds": 0.217,
      "endSeconds": 81.739,
      "velocity": 0.8,
      "bendActive": true,
      "instrument": 2
    },
    {
      "id": "id_7qm1xikmsmnwl0o97",
      "pitch": 70,
      "pitchName": "A#4",
      "frequencyHz": 466.163762,
      "startTick": 90000,
      "durationTicks": 720,
      "endTick": 90720,
      "startSeconds": 81.522,
      "durationSeconds": 0.652,
      "endSeconds": 82.174,
      "velocity": 0.8,
      "bendActive": true,
      "instrument": 2
    },
    {
      "id": "id_loiwnr1fqmnwm95hx",
      "pitch": 73,
      "pitchName": "C#5",
      "frequencyHz": 554.365262,
      "startTick": 90000,
      "durationTicks": 720,
      "endTick": 90720,
      "startSeconds": 81.522,
      "durationSeconds": 0.652,
      "endSeconds": 82.174,
      "velocity": 0.8,
      "bendActive": true,
      "instrument": 2
    },
    {
      "id": "id_rnahiw1kmmnwl0o97",
      "pitch": 39,
      "pitchName": "D#2",
      "frequencyHz": 77.781746,
      "startTick": 90240,
      "durationTicks": 240,
      "endTick": 90480,
      "startSeconds": 81.739,
      "durationSeconds": 0.217,
      "endSeconds": 81.957,
      "velocity": 0.6,
      "bendActive": true,
      "instrument": 0
    },
    {
      "id": "id_iqn4ptnbcmnwl0o97",
      "pitch": 46,
      "pitchName": "A#2",
      "frequencyHz": 116.54094,
      "startTick": 90240,
      "durationTicks": 240,
      "endTick": 90480,
      "startSeconds": 81.739,
      "durationSeconds": 0.217,
      "endSeconds": 81.957,
      "velocity": 0.8,
      "bendActive": true,
      "instrument": 2
    },
    {
      "id": "id_wrryai7lomnwl0o97",
      "pitch": 51,
      "pitchName": "D#3",
      "frequencyHz": 155.563492,
      "startTick": 90240,
      "durationTicks": 240,
      "endTick": 90480,
      "startSeconds": 81.739,
      "durationSeconds": 0.217,
      "endSeconds": 81.957,
      "velocity": 0.8,
      "bendActive": true,
      "instrument": 1
    },
    {
      "id": "id_czkijkhprmnwl0o97",
      "pitch": 54,
      "pitchName": "F#3",
      "frequencyHz": 184.997211,
      "startTick": 90240,
      "durationTicks": 240,
      "endTick": 90480,
      "startSeconds": 81.739,
      "durationSeconds": 0.217,
      "endSeconds": 81.957,
      "velocity": 0.8,
      "bendActive": true,
      "instrument": 2
    },
    {
      "id": "id_yq3k080sfmnwl0o97",
      "pitch": 39,
      "pitchName": "D#2",
      "frequencyHz": 77.781746,
      "startTick": 90480,
      "durationTicks": 240,
      "endTick": 90720,
      "startSeconds": 81.957,
      "durationSeconds": 0.217,
      "endSeconds": 82.174,
      "velocity": 0.6,
      "bendActive": true,
      "instrument": 0
    },
    {
      "id": "id_trgf8spvsmnwl0o97",
      "pitch": 46,
      "pitchName": "A#2",
      "frequencyHz": 116.54094,
      "startTick": 90480,
      "durationTicks": 240,
      "endTick": 90720,
      "startSeconds": 81.957,
      "durationSeconds": 0.217,
      "endSeconds": 82.174,
      "velocity": 0.8,
      "bendActive": true,
      "instrument": 2
    },
    {
      "id": "id_o85c6hom5mnwl0o97",
      "pitch": 51,
      "pitchName": "D#3",
      "frequencyHz": 155.563492,
      "startTick": 90480,
      "durationTicks": 240,
      "endTick": 90720,
      "startSeconds": 81.957,
      "durationSeconds": 0.217,
      "endSeconds": 82.174,
      "velocity": 0.8,
      "bendActive": true,
      "instrument": 1
    },
    {
      "id": "id_v5628wmrkmnwl0o97",
      "pitch": 54,
      "pitchName": "F#3",
      "frequencyHz": 184.997211,
      "startTick": 90480,
      "durationTicks": 240,
      "endTick": 90720,
      "startSeconds": 81.957,
      "durationSeconds": 0.217,
      "endSeconds": 82.174,
      "velocity": 0.8,
      "bendActive": true,
      "instrument": 2
    },
    {
      "id": "id_8r3sbd8lvmnwl0o97",
      "pitch": 39,
      "pitchName": "D#2",
      "frequencyHz": 77.781746,
      "startTick": 90720,
      "durationTicks": 240,
      "endTick": 90960,
      "startSeconds": 82.174,
      "durationSeconds": 0.217,
      "endSeconds": 82.391,
      "velocity": 0.6,
      "bendActive": true,
      "instrument": 0
    },
    {
      "id": "id_9fb1v0jp2mnwl0o97",
      "pitch": 46,
      "pitchName": "A#2",
      "frequencyHz": 116.54094,
      "startTick": 90720,
      "durationTicks": 240,
      "endTick": 90960,
      "startSeconds": 82.174,
      "durationSeconds": 0.217,
      "endSeconds": 82.391,
      "velocity": 0.8,
      "bendActive": true,
      "instrument": 2
    },
    {
      "id": "id_1mcxjqyf8mnwl0o97",
      "pitch": 51,
      "pitchName": "D#3",
      "frequencyHz": 155.563492,
      "startTick": 90720,
      "durationTicks": 240,
      "endTick": 90960,
      "startSeconds": 82.174,
      "durationSeconds": 0.217,
      "endSeconds": 82.391,
      "velocity": 0.8,
      "bendActive": true,
      "instrument": 1
    },
    {
      "id": "id_xu2jwcg2imnwl0o97",
      "pitch": 54,
      "pitchName": "F#3",
      "frequencyHz": 184.997211,
      "startTick": 90720,
      "durationTicks": 240,
      "endTick": 90960,
      "startSeconds": 82.174,
      "durationSeconds": 0.217,
      "endSeconds": 82.391,
      "velocity": 0.8,
      "bendActive": true,
      "instrument": 2
    },
    {
      "id": "id_dgxuxqp7fmnwl0o97",
      "pitch": 73,
      "pitchName": "C#5",
      "frequencyHz": 554.365262,
      "startTick": 90720,
      "durationTicks": 720,
      "endTick": 91440,
      "startSeconds": 82.174,
      "durationSeconds": 0.652,
      "endSeconds": 82.826,
      "velocity": 0.8,
      "bendActive": true,
      "instrument": 2
    },
    {
      "id": "id_sssbx0higmnwm8lcx",
      "pitch": 78,
      "pitchName": "F#5",
      "frequencyHz": 739.988845,
      "startTick": 90720,
      "durationTicks": 720,
      "endTick": 91440,
      "startSeconds": 82.174,
      "durationSeconds": 0.652,
      "endSeconds": 82.826,
      "velocity": 0.8,
      "bendActive": true,
      "instrument": 2
    },
    {
      "id": "id_en3gouerymnwl0o97",
      "pitch": 39,
      "pitchName": "D#2",
      "frequencyHz": 77.781746,
      "startTick": 90960,
      "durationTicks": 240,
      "endTick": 91200,
      "startSeconds": 82.391,
      "durationSeconds": 0.217,
      "endSeconds": 82.609,
      "velocity": 0.6,
      "bendActive": true,
      "instrument": 0
    },
    {
      "id": "id_mhnjmg31amnwl0o97",
      "pitch": 46,
      "pitchName": "A#2",
      "frequencyHz": 116.54094,
      "startTick": 90960,
      "durationTicks": 240,
      "endTick": 91200,
      "startSeconds": 82.391,
      "durationSeconds": 0.217,
      "endSeconds": 82.609,
      "velocity": 0.8,
      "bendActive": true,
      "instrument": 2
    },
    {
      "id": "id_blktx9y8pmnwl0o97",
      "pitch": 51,
      "pitchName": "D#3",
      "frequencyHz": 155.563492,
      "startTick": 90960,
      "durationTicks": 240,
      "endTick": 91200,
      "startSeconds": 82.391,
      "durationSeconds": 0.217,
      "endSeconds": 82.609,
      "velocity": 0.8,
      "bendActive": true,
      "instrument": 1
    },
    {
      "id": "id_qhithk4dnmnwl0o97",
      "pitch": 54,
      "pitchName": "F#3",
      "frequencyHz": 184.997211,
      "startTick": 90960,
      "durationTicks": 240,
      "endTick": 91200,
      "startSeconds": 82.391,
      "durationSeconds": 0.217,
      "endSeconds": 82.609,
      "velocity": 0.8,
      "bendActive": true,
      "instrument": 2
    },
    {
      "id": "id_pn586sqejmnwl0o97",
      "pitch": 39,
      "pitchName": "D#2",
      "frequencyHz": 77.781746,
      "startTick": 91200,
      "durationTicks": 240,
      "endTick": 91440,
      "startSeconds": 82.609,
      "durationSeconds": 0.217,
      "endSeconds": 82.826,
      "velocity": 0.6,
      "bendActive": true,
      "instrument": 0
    },
    {
      "id": "id_d5kpt5leumnwl0o97",
      "pitch": 46,
      "pitchName": "A#2",
      "frequencyHz": 116.54094,
      "startTick": 91200,
      "durationTicks": 240,
      "endTick": 91440,
      "startSeconds": 82.609,
      "durationSeconds": 0.217,
      "endSeconds": 82.826,
      "velocity": 0.8,
      "bendActive": true,
      "instrument": 2
    },
    {
      "id": "id_y1tu6hea4mnwl0o97",
      "pitch": 51,
      "pitchName": "D#3",
      "frequencyHz": 155.563492,
      "startTick": 91200,
      "durationTicks": 240,
      "endTick": 91440,
      "startSeconds": 82.609,
      "durationSeconds": 0.217,
      "endSeconds": 82.826,
      "velocity": 0.8,
      "bendActive": true,
      "instrument": 1
    },
    {
      "id": "id_tmewtv0inmnwl0o97",
      "pitch": 54,
      "pitchName": "F#3",
      "frequencyHz": 184.997211,
      "startTick": 91200,
      "durationTicks": 240,
      "endTick": 91440,
      "startSeconds": 82.609,
      "durationSeconds": 0.217,
      "endSeconds": 82.826,
      "velocity": 0.8,
      "bendActive": true,
      "instrument": 2
    },
    {
      "id": "id_sq0vsa4mmmnwl0o97",
      "pitch": 39,
      "pitchName": "D#2",
      "frequencyHz": 77.781746,
      "startTick": 91440,
      "durationTicks": 240,
      "endTick": 91680,
      "startSeconds": 82.826,
      "durationSeconds": 0.217,
      "endSeconds": 83.043,
      "velocity": 0.6,
      "bendActive": true,
      "instrument": 0
    },
    {
      "id": "id_4hx0alwtmmnwl0o97",
      "pitch": 46,
      "pitchName": "A#2",
      "frequencyHz": 116.54094,
      "startTick": 91440,
      "durationTicks": 240,
      "endTick": 91680,
      "startSeconds": 82.826,
      "durationSeconds": 0.217,
      "endSeconds": 83.043,
      "velocity": 0.8,
      "bendActive": true,
      "instrument": 2
    },
    {
      "id": "id_qvbcp0v2xmnwl0o97",
      "pitch": 51,
      "pitchName": "D#3",
      "frequencyHz": 155.563492,
      "startTick": 91440,
      "durationTicks": 240,
      "endTick": 91680,
      "startSeconds": 82.826,
      "durationSeconds": 0.217,
      "endSeconds": 83.043,
      "velocity": 0.8,
      "bendActive": true,
      "instrument": 1
    },
    {
      "id": "id_y9vqxb2x5mnwl0o97",
      "pitch": 54,
      "pitchName": "F#3",
      "frequencyHz": 184.997211,
      "startTick": 91440,
      "durationTicks": 240,
      "endTick": 91680,
      "startSeconds": 82.826,
      "durationSeconds": 0.217,
      "endSeconds": 83.043,
      "velocity": 0.8,
      "bendActive": true,
      "instrument": 2
    },
    {
      "id": "id_2lkvplv3jmnwl0o97",
      "pitch": 78,
      "pitchName": "F#5",
      "frequencyHz": 739.988845,
      "startTick": 91440,
      "durationTicks": 720,
      "endTick": 92160,
      "startSeconds": 82.826,
      "durationSeconds": 0.652,
      "endSeconds": 83.478,
      "velocity": 0.8,
      "bendActive": true,
      "instrument": 2
    },
    {
      "id": "id_4d8e0jxu5mnwm8pfw",
      "pitch": 82,
      "pitchName": "A#5",
      "frequencyHz": 932.327523,
      "startTick": 91440,
      "durationTicks": 720,
      "endTick": 92160,
      "startSeconds": 82.826,
      "durationSeconds": 0.652,
      "endSeconds": 83.478,
      "velocity": 0.8,
      "bendActive": true,
      "instrument": 2
    },
    {
      "id": "id_a9u05bppbmnwl0o97",
      "pitch": 39,
      "pitchName": "D#2",
      "frequencyHz": 77.781746,
      "startTick": 91680,
      "durationTicks": 240,
      "endTick": 91920,
      "startSeconds": 83.043,
      "durationSeconds": 0.217,
      "endSeconds": 83.261,
      "velocity": 0.6,
      "bendActive": true,
      "instrument": 0
    },
    {
      "id": "id_xf53h6crcmnwl0o97",
      "pitch": 46,
      "pitchName": "A#2",
      "frequencyHz": 116.54094,
      "startTick": 91680,
      "durationTicks": 240,
      "endTick": 91920,
      "startSeconds": 83.043,
      "durationSeconds": 0.217,
      "endSeconds": 83.261,
      "velocity": 0.8,
      "bendActive": true,
      "instrument": 2
    },
    {
      "id": "id_d4qsmdzjamnwl0o97",
      "pitch": 51,
      "pitchName": "D#3",
      "frequencyHz": 155.563492,
      "startTick": 91680,
      "durationTicks": 240,
      "endTick": 91920,
      "startSeconds": 83.043,
      "durationSeconds": 0.217,
      "endSeconds": 83.261,
      "velocity": 0.8,
      "bendActive": true,
      "instrument": 1
    },
    {
      "id": "id_dfpy4iltnmnwl0o97",
      "pitch": 54,
      "pitchName": "F#3",
      "frequencyHz": 184.997211,
      "startTick": 91680,
      "durationTicks": 240,
      "endTick": 91920,
      "startSeconds": 83.043,
      "durationSeconds": 0.217,
      "endSeconds": 83.261,
      "velocity": 0.8,
      "bendActive": true,
      "instrument": 2
    },
    {
      "id": "id_7v31w808cmnwl0o97",
      "pitch": 39,
      "pitchName": "D#2",
      "frequencyHz": 77.781746,
      "startTick": 91920,
      "durationTicks": 240,
      "endTick": 92160,
      "startSeconds": 83.261,
      "durationSeconds": 0.217,
      "endSeconds": 83.478,
      "velocity": 0.6,
      "bendActive": true,
      "instrument": 0
    },
    {
      "id": "id_1cschwlsamnwl0o97",
      "pitch": 46,
      "pitchName": "A#2",
      "frequencyHz": 116.54094,
      "startTick": 91920,
      "durationTicks": 240,
      "endTick": 92160,
      "startSeconds": 83.261,
      "durationSeconds": 0.217,
      "endSeconds": 83.478,
      "velocity": 0.8,
      "bendActive": true,
      "instrument": 2
    },
    {
      "id": "id_bqpo4ie6nmnwl0o97",
      "pitch": 51,
      "pitchName": "D#3",
      "frequencyHz": 155.563492,
      "startTick": 91920,
      "durationTicks": 240,
      "endTick": 92160,
      "startSeconds": 83.261,
      "durationSeconds": 0.217,
      "endSeconds": 83.478,
      "velocity": 0.8,
      "bendActive": true,
      "instrument": 1
    },
    {
      "id": "id_z3p6ytc84mnwl0o97",
      "pitch": 54,
      "pitchName": "F#3",
      "frequencyHz": 184.997211,
      "startTick": 91920,
      "durationTicks": 240,
      "endTick": 92160,
      "startSeconds": 83.261,
      "durationSeconds": 0.217,
      "endSeconds": 83.478,
      "velocity": 0.8,
      "bendActive": true,
      "instrument": 2
    },
    {
      "id": "id_g6rg6478cmnwm9rqz",
      "pitch": 37,
      "pitchName": "C#2",
      "frequencyHz": 69.295658,
      "startTick": 92160,
      "durationTicks": 1440,
      "endTick": 93600,
      "startSeconds": 83.478,
      "durationSeconds": 1.304,
      "endSeconds": 84.783,
      "velocity": 0.7,
      "bendActive": true,
      "instrument": 0
    },
    {
      "id": "id_p2eeh015tmnwmand2",
      "pitch": 44,
      "pitchName": "G#2",
      "frequencyHz": 103.826174,
      "startTick": 92160,
      "durationTicks": 1440,
      "endTick": 93600,
      "startSeconds": 83.478,
      "durationSeconds": 1.304,
      "endSeconds": 84.783,
      "velocity": 0.8,
      "bendActive": true,
      "instrument": 2
    },
    {
      "id": "id_d2lbfwfagmnwmaybv",
      "pitch": 49,
      "pitchName": "C#3",
      "frequencyHz": 138.591315,
      "startTick": 92160,
      "durationTicks": 1440,
      "endTick": 93600,
      "startSeconds": 83.478,
      "durationSeconds": 1.304,
      "endSeconds": 84.783,
      "velocity": 0.8,
      "bendActive": true,
      "instrument": 2
    },
    {
      "id": "id_5ftyfq93cmnwmafjc",
      "pitch": 52,
      "pitchName": "E3",
      "frequencyHz": 164.813778,
      "startTick": 92160,
      "durationTicks": 1440,
      "endTick": 93600,
      "startSeconds": 83.478,
      "durationSeconds": 1.304,
      "endSeconds": 84.783,
      "velocity": 0.8,
      "bendActive": true,
      "instrument": 1
    },
    {
      "id": "id_mlawy9tdhmnwm8d85",
      "pitch": 80,
      "pitchName": "G#5",
      "frequencyHz": 830.609395,
      "startTick": 92160,
      "durationTicks": 1440,
      "endTick": 93600,
      "startSeconds": 83.478,
      "durationSeconds": 1.304,
      "endSeconds": 84.783,
      "velocity": 0.8,
      "bendActive": true,
      "instrument": 2
    },
    {
      "id": "id_pxhokt04vmnwm82ik",
      "pitch": 83,
      "pitchName": "B5",
      "frequencyHz": 987.766603,
      "startTick": 92160,
      "durationTicks": 1440,
      "endTick": 93600,
      "startSeconds": 83.478,
      "durationSeconds": 1.304,
      "endSeconds": 84.783,
      "velocity": 0.8,
      "bendActive": true,
      "instrument": 2
    },
    {
      "id": "id_xy1v517hamnwmcoan",
      "pitch": 88,
      "pitchName": "E6",
      "frequencyHz": 1318.510228,
      "startTick": 93600,
      "durationTicks": 480,
      "endTick": 94080,
      "startSeconds": 84.783,
      "durationSeconds": 0.435,
      "endSeconds": 85.217,
      "velocity": 0.8,
      "bendActive": true,
      "instrument": 3
    },
    {
      "id": "id_dtmszkqpvmnwmd48k",
      "pitch": 87,
      "pitchName": "D#6",
      "frequencyHz": 1244.507935,
      "startTick": 94080,
      "durationTicks": 480,
      "endTick": 94560,
      "startSeconds": 85.217,
      "durationSeconds": 0.435,
      "endSeconds": 85.652,
      "velocity": 0.8,
      "bendActive": true,
      "instrument": 3
    },
    {
      "id": "id_n9f6ab5fqmnwmd7z7",
      "pitch": 83,
      "pitchName": "B5",
      "frequencyHz": 987.766603,
      "startTick": 94560,
      "durationTicks": 480,
      "endTick": 95040,
      "startSeconds": 85.652,
      "durationSeconds": 0.435,
      "endSeconds": 86.087,
      "velocity": 0.8,
      "bendActive": true,
      "instrument": 3
    },
    {
      "id": "id_ea7rcyytemnwmi0uh",
      "pitch": 35,
      "pitchName": "B1",
      "frequencyHz": 61.735413,
      "startTick": 95040,
      "durationTicks": 1440,
      "endTick": 96480,
      "startSeconds": 86.087,
      "durationSeconds": 1.304,
      "endSeconds": 87.391,
      "velocity": 0.7,
      "bendActive": true,
      "instrument": 0
    },
    {
      "id": "id_nk7rrayc5mnwmi0uh",
      "pitch": 42,
      "pitchName": "F#2",
      "frequencyHz": 92.498606,
      "startTick": 95040,
      "durationTicks": 1440,
      "endTick": 96480,
      "startSeconds": 86.087,
      "durationSeconds": 1.304,
      "endSeconds": 87.391,
      "velocity": 0.8,
      "bendActive": true,
      "instrument": 2
    },
    {
      "id": "id_9r2wld7bxmnwmi0uh",
      "pitch": 51,
      "pitchName": "D#3",
      "frequencyHz": 155.563492,
      "startTick": 95040,
      "durationTicks": 1440,
      "endTick": 96480,
      "startSeconds": 86.087,
      "durationSeconds": 1.304,
      "endSeconds": 87.391,
      "velocity": 0.8,
      "bendActive": true,
      "instrument": 2
    },
    {
      "id": "id_gmqon54gzmnwmi0uh",
      "pitch": 54,
      "pitchName": "F#3",
      "frequencyHz": 184.997211,
      "startTick": 95040,
      "durationTicks": 1440,
      "endTick": 96480,
      "startSeconds": 86.087,
      "durationSeconds": 1.304,
      "endSeconds": 87.391,
      "velocity": 0.8,
      "bendActive": true,
      "instrument": 1
    },
    {
      "id": "id_6r1txeyx3mnwmde3p",
      "pitch": 78,
      "pitchName": "F#5",
      "frequencyHz": 739.988845,
      "startTick": 95040,
      "durationTicks": 960,
      "endTick": 96000,
      "startSeconds": 86.087,
      "durationSeconds": 0.87,
      "endSeconds": 86.957,
      "velocity": 0.8,
      "bendActive": true,
      "instrument": 3
    },
    {
      "id": "id_a38y80vogmnwme1lu",
      "pitch": 83,
      "pitchName": "B5",
      "frequencyHz": 987.766603,
      "startTick": 95760,
      "durationTicks": 720,
      "endTick": 96480,
      "startSeconds": 86.739,
      "durationSeconds": 0.652,
      "endSeconds": 87.391,
      "velocity": 0.8,
      "bendActive": true,
      "instrument": 3
    },
    {
      "id": "id_miref2d2omnwmekf6",
      "pitch": 87,
      "pitchName": "D#6",
      "frequencyHz": 1244.507935,
      "startTick": 96480,
      "durationTicks": 480,
      "endTick": 96960,
      "startSeconds": 87.391,
      "durationSeconds": 0.435,
      "endSeconds": 87.826,
      "velocity": 0.8,
      "bendActive": true,
      "instrument": 3
    },
    {
      "id": "id_yyxqqxoi5mnwmeqos",
      "pitch": 85,
      "pitchName": "C#6",
      "frequencyHz": 1108.730524,
      "startTick": 96960,
      "durationTicks": 480,
      "endTick": 97440,
      "startSeconds": 87.826,
      "durationSeconds": 0.435,
      "endSeconds": 88.261,
      "velocity": 0.8,
      "bendActive": true,
      "instrument": 3
    },
    {
      "id": "id_1fxkk5cb7mnwmesd4",
      "pitch": 83,
      "pitchName": "B5",
      "frequencyHz": 987.766603,
      "startTick": 97440,
      "durationTicks": 480,
      "endTick": 97920,
      "startSeconds": 88.261,
      "durationSeconds": 0.435,
      "endSeconds": 88.696,
      "velocity": 0.8,
      "bendActive": true,
      "instrument": 3
    },
    {
      "id": "id_a081le7vmmnwmik7p",
      "pitch": 33,
      "pitchName": "A1",
      "frequencyHz": 55,
      "startTick": 97920,
      "durationTicks": 1440,
      "endTick": 99360,
      "startSeconds": 88.696,
      "durationSeconds": 1.304,
      "endSeconds": 90,
      "velocity": 0.7,
      "bendActive": true,
      "instrument": 0
    },
    {
      "id": "id_xnbwtn9btmnwmik7q",
      "pitch": 45,
      "pitchName": "A2",
      "frequencyHz": 110,
      "startTick": 97920,
      "durationTicks": 1440,
      "endTick": 99360,
      "startSeconds": 88.696,
      "durationSeconds": 1.304,
      "endSeconds": 90,
      "velocity": 0.8,
      "bendActive": true,
      "instrument": 2
    },
    {
      "id": "id_5khbjzg8dmnwmik7q",
      "pitch": 52,
      "pitchName": "E3",
      "frequencyHz": 164.813778,
      "startTick": 97920,
      "durationTicks": 1440,
      "endTick": 99360,
      "startSeconds": 88.696,
      "durationSeconds": 1.304,
      "endSeconds": 90,
      "velocity": 0.8,
      "bendActive": true,
      "instrument": 2
    },
    {
      "id": "id_j27klpsmzmnwmik7q",
      "pitch": 61,
      "pitchName": "C#4",
      "frequencyHz": 277.182631,
      "startTick": 97920,
      "durationTicks": 1440,
      "endTick": 99360,
      "startSeconds": 88.696,
      "durationSeconds": 1.304,
      "endSeconds": 90,
      "velocity": 0.8,
      "bendActive": true,
      "instrument": 1
    },
    {
      "id": "id_kouta12fhmnwmf3fs",
      "pitch": 80,
      "pitchName": "G#5",
      "frequencyHz": 830.609395,
      "startTick": 97920,
      "durationTicks": 720,
      "endTick": 98640,
      "startSeconds": 88.696,
      "durationSeconds": 0.652,
      "endSeconds": 89.348,
      "velocity": 0.8,
      "bendActive": true,
      "instrument": 3
    },
    {
      "id": "id_pk5ie2i8imnwmlttd",
      "pitch": 73,
      "pitchName": "C#5",
      "frequencyHz": 554.365262,
      "startTick": 98640,
      "durationTicks": 720,
      "endTick": 99360,
      "startSeconds": 89.348,
      "durationSeconds": 0.652,
      "endSeconds": 90,
      "velocity": 0.8,
      "bendActive": true,
      "instrument": 3
    },
    {
      "id": "id_wrbkmf6z1mnwmfx4m",
      "pitch": 85,
      "pitchName": "C#6",
      "frequencyHz": 1108.730524,
      "startTick": 99360,
      "durationTicks": 480,
      "endTick": 99840,
      "startSeconds": 90,
      "durationSeconds": 0.435,
      "endSeconds": 90.435,
      "velocity": 0.8,
      "bendActive": true,
      "instrument": 3
    },
    {
      "id": "id_cotwkmn09mnwmg1cv",
      "pitch": 83,
      "pitchName": "B5",
      "frequencyHz": 987.766603,
      "startTick": 99840,
      "durationTicks": 480,
      "endTick": 100320,
      "startSeconds": 90.435,
      "durationSeconds": 0.435,
      "endSeconds": 90.87,
      "velocity": 0.8,
      "bendActive": true,
      "instrument": 3
    },
    {
      "id": "id_0xcz35ovomnwmg4ht",
      "pitch": 80,
      "pitchName": "G#5",
      "frequencyHz": 830.609395,
      "startTick": 100320,
      "durationTicks": 480,
      "endTick": 100800,
      "startSeconds": 90.87,
      "durationSeconds": 0.435,
      "endSeconds": 91.304,
      "velocity": 0.8,
      "bendActive": true,
      "instrument": 3
    },
    {
      "id": "id_kl0irqx1gmnwmm2vj",
      "pitch": 30,
      "pitchName": "F#1",
      "frequencyHz": 46.249303,
      "startTick": 100800,
      "durationTicks": 1440,
      "endTick": 102240,
      "startSeconds": 91.304,
      "durationSeconds": 1.304,
      "endSeconds": 92.609,
      "velocity": 0.7,
      "bendActive": true,
      "instrument": 0
    },
    {
      "id": "id_9nfib068kmnwmm2vj",
      "pitch": 30,
      "pitchName": "F#1",
      "frequencyHz": 46.249303,
      "startTick": 100800,
      "durationTicks": 2400,
      "endTick": 103200,
      "startSeconds": 91.304,
      "durationSeconds": 2.174,
      "endSeconds": 93.478,
      "velocity": 0.8,
      "bendActive": true,
      "instrument": 2
    },
    {
      "id": "id_98x8b1l3bmnwmm2vj",
      "pitch": 49,
      "pitchName": "C#3",
      "frequencyHz": 138.591315,
      "startTick": 100800,
      "durationTicks": 2400,
      "endTick": 103200,
      "startSeconds": 91.304,
      "durationSeconds": 2.174,
      "endSeconds": 93.478,
      "velocity": 0.8,
      "bendActive": true,
      "instrument": 2
    },
    {
      "id": "id_frxlvfk6vmnwmm2vj",
      "pitch": 57,
      "pitchName": "A3",
      "frequencyHz": 220,
      "startTick": 100800,
      "durationTicks": 2400,
      "endTick": 103200,
      "startSeconds": 91.304,
      "durationSeconds": 2.174,
      "endSeconds": 93.478,
      "velocity": 0.8,
      "bendActive": true,
      "instrument": 1
    },
    {
      "id": "id_kndyplr7fmnwmg767",
      "pitch": 76,
      "pitchName": "E5",
      "frequencyHz": 659.255114,
      "startTick": 100800,
      "durationTicks": 2880,
      "endTick": 103680,
      "startSeconds": 91.304,
      "durationSeconds": 2.609,
      "endSeconds": 93.913,
      "velocity": 0.8,
      "bendActive": true,
      "instrument": 3
    },
    {
      "id": "id_n6aoci8w3mnwmgbmo",
      "pitch": 81,
      "pitchName": "A5",
      "frequencyHz": 880,
      "startTick": 100800,
      "durationTicks": 2880,
      "endTick": 103680,
      "startSeconds": 91.304,
      "durationSeconds": 2.609,
      "endSeconds": 93.913,
      "velocity": 0.8,
      "bendActive": true,
      "instrument": 3
    },
    {
      "id": "id_5tvldys43mnwmns9g",
      "pitch": 33,
      "pitchName": "A1",
      "frequencyHz": 55,
      "startTick": 103680,
      "durationTicks": 1440,
      "endTick": 105120,
      "startSeconds": 93.913,
      "durationSeconds": 1.304,
      "endSeconds": 95.217,
      "velocity": 0.7,
      "bendActive": true,
      "instrument": 0
    },
    {
      "id": "id_3r7g9sijmmnwmns9g",
      "pitch": 40,
      "pitchName": "E2",
      "frequencyHz": 82.406889,
      "startTick": 103680,
      "durationTicks": 1440,
      "endTick": 105120,
      "startSeconds": 93.913,
      "durationSeconds": 1.304,
      "endSeconds": 95.217,
      "velocity": 0.8,
      "bendActive": true,
      "instrument": 2
    },
    {
      "id": "id_kqk2z8bx7mnwmns9g",
      "pitch": 45,
      "pitchName": "A2",
      "frequencyHz": 110,
      "startTick": 103680,
      "durationTicks": 1440,
      "endTick": 105120,
      "startSeconds": 93.913,
      "durationSeconds": 1.304,
      "endSeconds": 95.217,
      "velocity": 0.8,
      "bendActive": true,
      "instrument": 2
    },
    {
      "id": "id_uj3ec6pp4mnwmns9g",
      "pitch": 52,
      "pitchName": "E3",
      "frequencyHz": 164.813778,
      "startTick": 103680,
      "durationTicks": 1440,
      "endTick": 105120,
      "startSeconds": 93.913,
      "durationSeconds": 1.304,
      "endSeconds": 95.217,
      "velocity": 0.8,
      "bendActive": true,
      "instrument": 1
    },
    {
      "id": "id_vm35zuyzgmnwmoiqv",
      "pitch": 80,
      "pitchName": "G#5",
      "frequencyHz": 830.609395,
      "startTick": 105120,
      "durationTicks": 360,
      "endTick": 105480,
      "startSeconds": 95.217,
      "durationSeconds": 0.326,
      "endSeconds": 95.543,
      "velocity": 0.8,
      "bendActive": true,
      "instrument": 3
    },
    {
      "id": "id_ulvy0i9i0mnwmon6k",
      "pitch": 81,
      "pitchName": "A5",
      "frequencyHz": 880,
      "startTick": 105480,
      "durationTicks": 360,
      "endTick": 105840,
      "startSeconds": 95.543,
      "durationSeconds": 0.326,
      "endSeconds": 95.87,
      "velocity": 0.8,
      "bendActive": true,
      "instrument": 3
    },
    {
      "id": "id_hqhrado2jmnwmoob2",
      "pitch": 87,
      "pitchName": "D#6",
      "frequencyHz": 1244.507935,
      "startTick": 105840,
      "durationTicks": 360,
      "endTick": 106200,
      "startSeconds": 95.87,
      "durationSeconds": 0.326,
      "endSeconds": 96.196,
      "velocity": 0.8,
      "bendActive": true,
      "instrument": 3
    },
    {
      "id": "id_xy3sq6xi9mnwmp1e1",
      "pitch": 88,
      "pitchName": "E6",
      "frequencyHz": 1318.510228,
      "startTick": 106200,
      "durationTicks": 360,
      "endTick": 106560,
      "startSeconds": 96.196,
      "durationSeconds": 0.326,
      "endSeconds": 96.522,
      "velocity": 0.8,
      "bendActive": true,
      "instrument": 3
    },
    {
      "id": "id_y91tiy7ismnwmrmps",
      "pitch": 35,
      "pitchName": "B1",
      "frequencyHz": 61.735413,
      "startTick": 106560,
      "durationTicks": 480,
      "endTick": 107040,
      "startSeconds": 96.522,
      "durationSeconds": 0.435,
      "endSeconds": 96.957,
      "velocity": 0.7,
      "bendActive": true,
      "instrument": 0
    },
    {
      "id": "id_77k5cd779mnwmrmps",
      "pitch": 47,
      "pitchName": "B2",
      "frequencyHz": 123.470825,
      "startTick": 106560,
      "durationTicks": 480,
      "endTick": 107040,
      "startSeconds": 96.522,
      "durationSeconds": 0.435,
      "endSeconds": 96.957,
      "velocity": 0.8,
      "bendActive": true,
      "instrument": 2
    },
    {
      "id": "id_2bnbtw2c9mnwmrmps",
      "pitch": 54,
      "pitchName": "F#3",
      "frequencyHz": 184.997211,
      "startTick": 106560,
      "durationTicks": 480,
      "endTick": 107040,
      "startSeconds": 96.522,
      "durationSeconds": 0.435,
      "endSeconds": 96.957,
      "velocity": 0.8,
      "bendActive": true,
      "instrument": 1
    },
    {
      "id": "id_gqq69chbmmnwmrmps",
      "pitch": 63,
      "pitchName": "D#4",
      "frequencyHz": 311.126984,
      "startTick": 106560,
      "durationTicks": 480,
      "endTick": 107040,
      "startSeconds": 96.522,
      "durationSeconds": 0.435,
      "endSeconds": 96.957,
      "velocity": 0.8,
      "bendActive": true,
      "instrument": 2
    },
    {
      "id": "id_hwshbpbnvmnwmp7dt",
      "pitch": 78,
      "pitchName": "F#5",
      "frequencyHz": 739.988845,
      "startTick": 106560,
      "durationTicks": 480,
      "endTick": 107040,
      "startSeconds": 96.522,
      "durationSeconds": 0.435,
      "endSeconds": 96.957,
      "velocity": 0.8,
      "bendActive": true,
      "instrument": 3
    },
    {
      "id": "id_bkw98r5a2mnwmph32",
      "pitch": 75,
      "pitchName": "D#5",
      "frequencyHz": 622.253967,
      "startTick": 107040,
      "durationTicks": 480,
      "endTick": 107520,
      "startSeconds": 96.957,
      "durationSeconds": 0.435,
      "endSeconds": 97.391,
      "velocity": 0.8,
      "bendActive": true,
      "instrument": 3
    },
    {
      "id": "id_uylofsxjfmnwmpjdy",
      "pitch": 76,
      "pitchName": "E5",
      "frequencyHz": 659.255114,
      "startTick": 107520,
      "durationTicks": 480,
      "endTick": 108000,
      "startSeconds": 97.391,
      "durationSeconds": 0.435,
      "endSeconds": 97.826,
      "velocity": 0.8,
      "bendActive": true,
      "instrument": 3
    },
    {
      "id": "id_t7f8qwyh5mnwmpkaj",
      "pitch": 85,
      "pitchName": "C#6",
      "frequencyHz": 1108.730524,
      "startTick": 108000,
      "durationTicks": 480,
      "endTick": 108480,
      "startSeconds": 97.826,
      "durationSeconds": 0.435,
      "endSeconds": 98.261,
      "velocity": 0.8,
      "bendActive": true,
      "instrument": 3
    },
    {
      "id": "id_eq288pg5kmnwmpqrk",
      "pitch": 76,
      "pitchName": "E5",
      "frequencyHz": 659.255114,
      "startTick": 108480,
      "durationTicks": 840,
      "endTick": 109320,
      "startSeconds": 98.261,
      "durationSeconds": 0.761,
      "endSeconds": 99.022,
      "velocity": 0.8,
      "bendActive": true,
      "instrument": 3
    }
  ],
  "pitchBend": [
    {
      "id": "id_vyl7kzy32mnwl0o97",
      "tick": 0,
      "seconds": 0,
      "cents": 0
    },
    {
      "id": "id_dkiazgkiimnwl0o97",
      "tick": 120,
      "seconds": 0.109,
      "cents": 1200
    },
    {
      "id": "id_vwnh38z4zmnwl0o97",
      "tick": 240,
      "seconds": 0.217,
      "cents": 1200
    },
    {
      "id": "id_vqpdljfrcmnwl0o97",
      "tick": 360,
      "seconds": 0.326,
      "cents": 1000
    },
    {
      "id": "id_1721buhagmnwl0o97",
      "tick": 480,
      "seconds": 0.435,
      "cents": 0
    },
    {
      "id": "id_0n7m5ms7omnwl0o97",
      "tick": 1440,
      "seconds": 1.304,
      "cents": 0
    },
    {
      "id": "id_w0hgupaa1mnwl0o97",
      "tick": 1560,
      "seconds": 1.413,
      "cents": 1200
    },
    {
      "id": "id_y7dzkl4sjmnwl0o97",
      "tick": 1680,
      "seconds": 1.522,
      "cents": 1200
    },
    {
      "id": "id_7x2yvbhzqmnwl0o97",
      "tick": 1800,
      "seconds": 1.63,
      "cents": 1000
    },
    {
      "id": "id_qvu90vk18mnwl0o97",
      "tick": 1920,
      "seconds": 1.739,
      "cents": 0
    },
    {
      "id": "id_vk2uyvuelmnwl0o97",
      "tick": 2880,
      "seconds": 2.609,
      "cents": 0
    },
    {
      "id": "id_hozw36urlmnwl0o97",
      "tick": 2880,
      "seconds": 2.609,
      "cents": 0
    },
    {
      "id": "id_3ykspl9yhmnwl0o97",
      "tick": 3000,
      "seconds": 2.717,
      "cents": 1200
    },
    {
      "id": "id_nk8bo3yhymnwl0o97",
      "tick": 3120,
      "seconds": 2.826,
      "cents": 1200
    },
    {
      "id": "id_wfjkebgr9mnwl0o97",
      "tick": 3240,
      "seconds": 2.935,
      "cents": 800
    },
    {
      "id": "id_8minhgzmfmnwl0o97",
      "tick": 3360,
      "seconds": 3.043,
      "cents": 0
    },
    {
      "id": "id_c572gnt93mnwl0o97",
      "tick": 4200,
      "seconds": 3.804,
      "cents": 0
    },
    {
      "id": "id_t8twlusaomnwl0o97",
      "tick": 4320,
      "seconds": 3.913,
      "cents": 0
    },
    {
      "id": "id_67okll18rmnwl0o97",
      "tick": 4440,
      "seconds": 4.022,
      "cents": 1200
    },
    {
      "id": "id_dmqwjincomnwl0o97",
      "tick": 4560,
      "seconds": 4.13,
      "cents": 1200
    },
    {
      "id": "id_h7ympii2zmnwl0o97",
      "tick": 4680,
      "seconds": 4.239,
      "cents": 1200
    },
    {
      "id": "id_hevk1ovhlmnwl0o97",
      "tick": 4800,
      "seconds": 4.348,
      "cents": 0
    },
    {
      "id": "id_i33jmoa4ymnwl0o97",
      "tick": 5760,
      "seconds": 5.217,
      "cents": 0
    },
    {
      "id": "id_bcvbspyqamnwl0o97",
      "tick": 5880,
      "seconds": 5.326,
      "cents": 1200
    },
    {
      "id": "id_aoh5wizp6mnwl0o97",
      "tick": 6000,
      "seconds": 5.435,
      "cents": 1200
    },
    {
      "id": "id_ebo1uodj9mnwl0o97",
      "tick": 6120,
      "seconds": 5.543,
      "cents": 900
    },
    {
      "id": "id_iaz4bovo2mnwl0o97",
      "tick": 6240,
      "seconds": 5.652,
      "cents": 0
    },
    {
      "id": "id_u56vp78vmmnwl0o97",
      "tick": 7200,
      "seconds": 6.522,
      "cents": 0
    },
    {
      "id": "id_9qewme0o8mnwl0o97",
      "tick": 7320,
      "seconds": 6.63,
      "cents": 1200
    },
    {
      "id": "id_urpzaqmy5mnwl0o97",
      "tick": 7440,
      "seconds": 6.739,
      "cents": 1200
    },
    {
      "id": "id_2l051cqlhmnwl0o97",
      "tick": 7560,
      "seconds": 6.848,
      "cents": 800
    },
    {
      "id": "id_uey9namc5mnwl0o97",
      "tick": 7680,
      "seconds": 6.957,
      "cents": 0
    },
    {
      "id": "id_qg7eab060mnwl0o97",
      "tick": 8640,
      "seconds": 7.826,
      "cents": 0
    },
    {
      "id": "id_3g3po4l1pmnwl0o97",
      "tick": 8760,
      "seconds": 7.935,
      "cents": 1200
    },
    {
      "id": "id_c8xjq4x21mnwl0o97",
      "tick": 8880,
      "seconds": 8.043,
      "cents": 1200
    },
    {
      "id": "id_yh7h21904mnwl0o97",
      "tick": 9000,
      "seconds": 8.152,
      "cents": 800
    },
    {
      "id": "id_k0xn747ozmnwl0o97",
      "tick": 9120,
      "seconds": 8.261,
      "cents": 0
    },
    {
      "id": "id_qyuij4xl5mnwl0o97",
      "tick": 10320,
      "seconds": 9.348,
      "cents": 0
    },
    {
      "id": "id_s9jajjb3umnwl0o97",
      "tick": 10440,
      "seconds": 9.457,
      "cents": 800
    },
    {
      "id": "id_91ocaivwrmnwl0o97",
      "tick": 10560,
      "seconds": 9.565,
      "cents": 0
    },
    {
      "id": "id_ym9v0iyvpmnwl0o97",
      "tick": 11520,
      "seconds": 10.435,
      "cents": 0
    },
    {
      "id": "id_otk45spulmnwl0o97",
      "tick": 11640,
      "seconds": 10.543,
      "cents": 1200
    },
    {
      "id": "id_av8dsb50umnwl0o97",
      "tick": 11760,
      "seconds": 10.652,
      "cents": 1200
    },
    {
      "id": "id_iz8tbq0jimnwl0o97",
      "tick": 11880,
      "seconds": 10.761,
      "cents": 1000
    },
    {
      "id": "id_y958wn2ohmnwl0o97",
      "tick": 12000,
      "seconds": 10.87,
      "cents": 0
    },
    {
      "id": "id_3s7nfk635mnwl0o97",
      "tick": 12960,
      "seconds": 11.739,
      "cents": 0
    },
    {
      "id": "id_5narroq7gmnwl0o97",
      "tick": 13080,
      "seconds": 11.848,
      "cents": 1200
    },
    {
      "id": "id_gzp0tm290mnwl0o97",
      "tick": 13200,
      "seconds": 11.957,
      "cents": 1200
    },
    {
      "id": "id_iptzi9fa7mnwl0o97",
      "tick": 13320,
      "seconds": 12.065,
      "cents": 800
    },
    {
      "id": "id_xyijd3ksrmnwl0o97",
      "tick": 13440,
      "seconds": 12.174,
      "cents": 0
    },
    {
      "id": "id_t8i2dd8t4mnwl0o97",
      "tick": 14400,
      "seconds": 13.043,
      "cents": 0
    },
    {
      "id": "id_mnm2uuzqtmnwl0o97",
      "tick": 14520,
      "seconds": 13.152,
      "cents": 1200
    },
    {
      "id": "id_e7s985vwsmnwl0o97",
      "tick": 14640,
      "seconds": 13.261,
      "cents": 1200
    },
    {
      "id": "id_40ffe9iibmnwl0o97",
      "tick": 14760,
      "seconds": 13.37,
      "cents": 1000
    },
    {
      "id": "id_sg1vgyt8rmnwl0o97",
      "tick": 14880,
      "seconds": 13.478,
      "cents": 0
    },
    {
      "id": "id_x1ek85fb6mnwl0o97",
      "tick": 15840,
      "seconds": 14.348,
      "cents": 0
    },
    {
      "id": "id_c8nsd1502mnwl0o97",
      "tick": 15960,
      "seconds": 14.457,
      "cents": 1200
    },
    {
      "id": "id_42eowaimrmnwl0o97",
      "tick": 16200,
      "seconds": 14.674,
      "cents": 1200
    },
    {
      "id": "id_vm4eskxjcmnwl0o97",
      "tick": 16320,
      "seconds": 14.783,
      "cents": 0
    },
    {
      "id": "id_jlbciwbpgmnwl0o97",
      "tick": 17280,
      "seconds": 15.652,
      "cents": 0
    },
    {
      "id": "id_o2pa30lg5mnwl0o97",
      "tick": 17400,
      "seconds": 15.761,
      "cents": 1200
    },
    {
      "id": "id_wzgrnseuemnwl0o97",
      "tick": 17520,
      "seconds": 15.87,
      "cents": 1200
    },
    {
      "id": "id_x70e7kbacmnwl0o97",
      "tick": 17640,
      "seconds": 15.978,
      "cents": 800
    },
    {
      "id": "id_ul9x6n6wbmnwl0o97",
      "tick": 17760,
      "seconds": 16.087,
      "cents": 0
    },
    {
      "id": "id_rs6n2degdmnwl0o97",
      "tick": 18720,
      "seconds": 16.957,
      "cents": 0
    },
    {
      "id": "id_fmcuwrmrumnwl0o97",
      "tick": 18840,
      "seconds": 17.065,
      "cents": 1200
    },
    {
      "id": "id_csya4euyhmnwl0o97",
      "tick": 18960,
      "seconds": 17.174,
      "cents": 1200
    },
    {
      "id": "id_927b18twwmnwl0o97",
      "tick": 19080,
      "seconds": 17.283,
      "cents": 800
    },
    {
      "id": "id_359xqlo9kmnwl0o97",
      "tick": 19200,
      "seconds": 17.391,
      "cents": 0
    },
    {
      "id": "id_8lrkh3hkymnwl0o97",
      "tick": 20160,
      "seconds": 18.261,
      "cents": 0
    },
    {
      "id": "id_f0c2v49ezmnwl0o97",
      "tick": 20280,
      "seconds": 18.37,
      "cents": 1200
    },
    {
      "id": "id_2ug4e0oaomnwl0o97",
      "tick": 20400,
      "seconds": 18.478,
      "cents": 1200
    },
    {
      "id": "id_qqh3m6unwmnwl0o97",
      "tick": 20520,
      "seconds": 18.587,
      "cents": 400
    },
    {
      "id": "id_0z5elqr2kmnwl0o97",
      "tick": 20640,
      "seconds": 18.696,
      "cents": 0
    },
    {
      "id": "id_t6suvby0qmnwl0o97",
      "tick": 21120,
      "seconds": 19.13,
      "cents": 0
    },
    {
      "id": "id_lae9vl43amnwl0o97",
      "tick": 21840,
      "seconds": 19.783,
      "cents": 0
    },
    {
      "id": "id_elgesr5qlmnwl0o97",
      "tick": 21960,
      "seconds": 19.891,
      "cents": 800
    },
    {
      "id": "id_8o1uh0m4fmnwl0o97",
      "tick": 22080,
      "seconds": 20,
      "cents": 0
    },
    {
      "id": "id_z9vb9tglgmnwl0o97",
      "tick": 23040,
      "seconds": 20.87,
      "cents": 0
    },
    {
      "id": "id_59r0oknurmnwl0o97",
      "tick": 23040,
      "seconds": 20.87,
      "cents": 0
    },
    {
      "id": "id_dznopemuomnwl0o97",
      "tick": 23160,
      "seconds": 20.978,
      "cents": 1200
    },
    {
      "id": "id_qvagggp78mnwl0o97",
      "tick": 23160,
      "seconds": 20.978,
      "cents": 1200
    },
    {
      "id": "id_vub0s4e1hmnwl0o97",
      "tick": 23400,
      "seconds": 21.196,
      "cents": 1200
    },
    {
      "id": "id_pgz1odui9mnwl0o97",
      "tick": 23400,
      "seconds": 21.196,
      "cents": 1200
    },
    {
      "id": "id_1whurq0m3mnwl0o97",
      "tick": 23520,
      "seconds": 21.304,
      "cents": 0
    },
    {
      "id": "id_d45ujhkrgmnwl0o97",
      "tick": 23520,
      "seconds": 21.304,
      "cents": 0
    },
    {
      "id": "id_riuxgxckymnwl0o97",
      "tick": 23760,
      "seconds": 21.522,
      "cents": 0
    },
    {
      "id": "id_zc9g7r7mwmnwl0o97",
      "tick": 23760,
      "seconds": 21.522,
      "cents": 0
    },
    {
      "id": "id_up8ofol6xmnwl0o97",
      "tick": 24120,
      "seconds": 21.848,
      "cents": 0
    },
    {
      "id": "id_fk369cwl0mnwl0o97",
      "tick": 24120,
      "seconds": 21.848,
      "cents": 0
    },
    {
      "id": "id_4a8cjwqpumnwl0o97",
      "tick": 24480,
      "seconds": 22.174,
      "cents": 0
    },
    {
      "id": "id_z09o84uo1mnwl0o97",
      "tick": 24480,
      "seconds": 22.174,
      "cents": 0
    },
    {
      "id": "id_nlr4rc4ufmnwl0o97",
      "tick": 25200,
      "seconds": 22.826,
      "cents": 0
    },
    {
      "id": "id_gyixoey2tmnwl0o97",
      "tick": 25200,
      "seconds": 22.826,
      "cents": 0
    },
    {
      "id": "id_df1ie03jhmnwl0o97",
      "tick": 25560,
      "seconds": 23.152,
      "cents": 0
    },
    {
      "id": "id_z3epqs0pxmnwl0o97",
      "tick": 25560,
      "seconds": 23.152,
      "cents": 0
    },
    {
      "id": "id_a9khvd0lamnwl0o97",
      "tick": 25920,
      "seconds": 23.478,
      "cents": 0
    },
    {
      "id": "id_j6j60jylymnwl0o97",
      "tick": 25920,
      "seconds": 23.478,
      "cents": 0
    },
    {
      "id": "id_en5fj5j1kmnwl0o97",
      "tick": 26040,
      "seconds": 23.587,
      "cents": 0
    },
    {
      "id": "id_a3f7ltp5tmnwl0o97",
      "tick": 26040,
      "seconds": 23.587,
      "cents": 0
    },
    {
      "id": "id_960jwze1hmnwl0o97",
      "tick": 26400,
      "seconds": 23.913,
      "cents": 200
    },
    {
      "id": "id_8wux9160gmnwl0o97",
      "tick": 26400,
      "seconds": 23.913,
      "cents": 200
    },
    {
      "id": "id_yoqgbds4kmnwl0o97",
      "tick": 27360,
      "seconds": 24.783,
      "cents": 200
    },
    {
      "id": "id_w7fdqwg0wmnwl0o97",
      "tick": 27360,
      "seconds": 24.783,
      "cents": 200
    },
    {
      "id": "id_ahr3qrvp8mnwl0o97",
      "tick": 28320,
      "seconds": 25.652,
      "cents": 200
    },
    {
      "id": "id_i7pyya5hcmnwl0o97",
      "tick": 28320,
      "seconds": 25.652,
      "cents": 200
    },
    {
      "id": "id_1zn0cr65gmnwl0o97",
      "tick": 28560,
      "seconds": 25.87,
      "cents": 0
    },
    {
      "id": "id_8pek5h1fimnwl0o97",
      "tick": 28560,
      "seconds": 25.87,
      "cents": 0
    },
    {
      "id": "id_ba6kwbkm7mnwl0o97",
      "tick": 29520,
      "seconds": 26.739,
      "cents": 0
    },
    {
      "id": "id_t35cytd5emnwl0o97",
      "tick": 29520,
      "seconds": 26.739,
      "cents": 0
    },
    {
      "id": "id_c77sy37fmmnwl0o97",
      "tick": 29880,
      "seconds": 27.065,
      "cents": 0
    },
    {
      "id": "id_azywy272fmnwl0o97",
      "tick": 29880,
      "seconds": 27.065,
      "cents": 0
    },
    {
      "id": "id_0ig9dpqhamnwl0o97",
      "tick": 30240,
      "seconds": 27.391,
      "cents": 0
    },
    {
      "id": "id_06fejb50gmnwl0o97",
      "tick": 30240,
      "seconds": 27.391,
      "cents": 0
    },
    {
      "id": "id_brae9kun3mnwl0o97",
      "tick": 30960,
      "seconds": 28.043,
      "cents": 0
    },
    {
      "id": "id_xds6dtgo9mnwl0o97",
      "tick": 30960,
      "seconds": 28.043,
      "cents": 0
    },
    {
      "id": "id_zvdqbr93rmnwl0o97",
      "tick": 31320,
      "seconds": 28.37,
      "cents": 0
    },
    {
      "id": "id_kjypxexvlmnwl0o97",
      "tick": 31320,
      "seconds": 28.37,
      "cents": 0
    },
    {
      "id": "id_3h5683c1ymnwl0o97",
      "tick": 31680,
      "seconds": 28.696,
      "cents": 0
    },
    {
      "id": "id_1t00pmfvsmnwl0o97",
      "tick": 31680,
      "seconds": 28.696,
      "cents": 0
    },
    {
      "id": "id_ihawsyqhcmnwl0o97",
      "tick": 31800,
      "seconds": 28.804,
      "cents": 0
    },
    {
      "id": "id_cufidi32kmnwl0o97",
      "tick": 31800,
      "seconds": 28.804,
      "cents": 0
    },
    {
      "id": "id_lmpn7ppusmnwl0o97",
      "tick": 32160,
      "seconds": 29.13,
      "cents": 200
    },
    {
      "id": "id_o2zm138lrmnwl0o97",
      "tick": 32160,
      "seconds": 29.13,
      "cents": 200
    },
    {
      "id": "id_heeybqtpqmnwl0o97",
      "tick": 33120,
      "seconds": 30,
      "cents": 200
    },
    {
      "id": "id_n4c94d46vmnwl0o97",
      "tick": 33120,
      "seconds": 30,
      "cents": 200
    },
    {
      "id": "id_waii8v9v2mnwl0o97",
      "tick": 34080,
      "seconds": 30.87,
      "cents": 200
    },
    {
      "id": "id_miafp6evwmnwl0o97",
      "tick": 34080,
      "seconds": 30.87,
      "cents": 200
    },
    {
      "id": "id_1raqk6m6bmnwl0o97",
      "tick": 34440,
      "seconds": 31.196,
      "cents": 0
    },
    {
      "id": "id_5djgc83rnmnwl0o97",
      "tick": 34440,
      "seconds": 31.196,
      "cents": 0
    },
    {
      "id": "id_0nycs4an8mnwl0o97",
      "tick": 35280,
      "seconds": 31.957,
      "cents": 0
    },
    {
      "id": "id_2d8v6cs35mnwl0o97",
      "tick": 35280,
      "seconds": 31.957,
      "cents": 0
    },
    {
      "id": "id_9gepq6q5cmnwl0o97",
      "tick": 35640,
      "seconds": 32.283,
      "cents": 0
    },
    {
      "id": "id_ev8mfy2aomnwl0o97",
      "tick": 35640,
      "seconds": 32.283,
      "cents": 0
    },
    {
      "id": "id_pfwkotwl4mnwl0o97",
      "tick": 36000,
      "seconds": 32.609,
      "cents": 0
    },
    {
      "id": "id_ykj5i288jmnwl0o97",
      "tick": 36000,
      "seconds": 32.609,
      "cents": 0
    },
    {
      "id": "id_v5mzmd8ybmnwl0o97",
      "tick": 36720,
      "seconds": 33.261,
      "cents": 0
    },
    {
      "id": "id_cas02xdjtmnwl0o97",
      "tick": 36720,
      "seconds": 33.261,
      "cents": 0
    },
    {
      "id": "id_i9a6iwl5vmnwl0o97",
      "tick": 37080,
      "seconds": 33.587,
      "cents": 0
    },
    {
      "id": "id_50bfkyz2ymnwl0o97",
      "tick": 37080,
      "seconds": 33.587,
      "cents": 0
    },
    {
      "id": "id_frxelbz5dmnwl0o97",
      "tick": 38160,
      "seconds": 34.565,
      "cents": 0
    },
    {
      "id": "id_l0fn64v1xmnwl0o97",
      "tick": 38160,
      "seconds": 34.565,
      "cents": 0
    },
    {
      "id": "id_6my735m8mmnwl0o97",
      "tick": 38520,
      "seconds": 34.891,
      "cents": 0
    },
    {
      "id": "id_nvx36i9m4mnwl0o97",
      "tick": 38520,
      "seconds": 34.891,
      "cents": 0
    },
    {
      "id": "id_lw8w27tx3mnwl0o97",
      "tick": 38880,
      "seconds": 35.217,
      "cents": 0
    },
    {
      "id": "id_zv35td8pxmnwl0o97",
      "tick": 38880,
      "seconds": 35.217,
      "cents": 0
    },
    {
      "id": "id_dz9dmoncgmnwl0o97",
      "tick": 38880,
      "seconds": 35.217,
      "cents": 0
    },
    {
      "id": "id_dg1yyc012mnwl0o97",
      "tick": 39600,
      "seconds": 35.87,
      "cents": 0
    },
    {
      "id": "id_9gp5948nfmnwl0o97",
      "tick": 39600,
      "seconds": 35.87,
      "cents": 0
    },
    {
      "id": "id_s8yabewzymnwl0o97",
      "tick": 39600,
      "seconds": 35.87,
      "cents": 0
    },
    {
      "id": "id_14hzavon2mnwl0o97",
      "tick": 39960,
      "seconds": 36.196,
      "cents": 0
    },
    {
      "id": "id_mahiw5ls9mnwl0o97",
      "tick": 39960,
      "seconds": 36.196,
      "cents": 0
    },
    {
      "id": "id_rjuv347edmnwl0o97",
      "tick": 39960,
      "seconds": 36.196,
      "cents": 0
    },
    {
      "id": "id_h83r5wf8pmnwl0o97",
      "tick": 40200,
      "seconds": 36.413,
      "cents": 0
    },
    {
      "id": "id_en8jd6hrcmnwl0o97",
      "tick": 40440,
      "seconds": 36.63,
      "cents": 400
    },
    {
      "id": "id_e7e3u26dbmnwl0o97",
      "tick": 40440,
      "seconds": 36.63,
      "cents": 400
    },
    {
      "id": "id_shflkbq2tmnwl0o97",
      "tick": 41040,
      "seconds": 37.174,
      "cents": 400
    },
    {
      "id": "id_h9mtuxo1wmnwl0o97",
      "tick": 41040,
      "seconds": 37.174,
      "cents": 400
    },
    {
      "id": "id_4ffcxdau2mnwl0o97",
      "tick": 41400,
      "seconds": 37.5,
      "cents": 400
    },
    {
      "id": "id_gq8ixxd2bmnwl0o97",
      "tick": 41400,
      "seconds": 37.5,
      "cents": 400
    },
    {
      "id": "id_5j9wbl4mqmnwl0o97",
      "tick": 41760,
      "seconds": 37.826,
      "cents": -1100
    },
    {
      "id": "id_9kclnlas5mnwl0o97",
      "tick": 41760,
      "seconds": 37.826,
      "cents": -1100
    },
    {
      "id": "id_qlvbbivk5mnwl0o97",
      "tick": 42120,
      "seconds": 38.152,
      "cents": 0
    },
    {
      "id": "id_yg8fl0p12mnwl0o97",
      "tick": 42120,
      "seconds": 38.152,
      "cents": 0
    },
    {
      "id": "id_tys6jrgwvmnwl0o97",
      "tick": 42480,
      "seconds": 38.478,
      "cents": 0
    },
    {
      "id": "id_h381eb7gqmnwl0o97",
      "tick": 42480,
      "seconds": 38.478,
      "cents": 0
    },
    {
      "id": "id_1gf2y1scnmnwl0o97",
      "tick": 42840,
      "seconds": 38.804,
      "cents": 0
    },
    {
      "id": "id_3whw9rnd0mnwl0o97",
      "tick": 42840,
      "seconds": 38.804,
      "cents": 0
    },
    {
      "id": "id_9wvyta816mnwl0o97",
      "tick": 43920,
      "seconds": 39.783,
      "cents": 0
    },
    {
      "id": "id_aagt42jjemnwl0o97",
      "tick": 43920,
      "seconds": 39.783,
      "cents": 0
    },
    {
      "id": "id_xd8bi3v83mnwl0o97",
      "tick": 44280,
      "seconds": 40.109,
      "cents": 0
    },
    {
      "id": "id_7sx4yzw3qmnwl0o97",
      "tick": 44280,
      "seconds": 40.109,
      "cents": 0
    },
    {
      "id": "id_ew3gn865gmnwl0o97",
      "tick": 45360,
      "seconds": 41.087,
      "cents": 0
    },
    {
      "id": "id_g728ex2a5mnwl0o97",
      "tick": 45360,
      "seconds": 41.087,
      "cents": 0
    },
    {
      "id": "id_ga9v9tz55mnwl0o97",
      "tick": 45720,
      "seconds": 41.413,
      "cents": 0
    },
    {
      "id": "id_uaqhcc2wnmnwl0o97",
      "tick": 45720,
      "seconds": 41.413,
      "cents": 0
    },
    {
      "id": "id_pahbppdblmnwl0o97",
      "tick": 46080,
      "seconds": 41.739,
      "cents": 0
    },
    {
      "id": "id_udwgs7y1hmnwl0o97",
      "tick": 46080,
      "seconds": 41.739,
      "cents": 0
    },
    {
      "id": "id_owhvdh7ktmnwl0o97",
      "tick": 46200,
      "seconds": 41.848,
      "cents": 1200
    },
    {
      "id": "id_a2c6ry0ycmnwl0o97",
      "tick": 46200,
      "seconds": 41.848,
      "cents": 1200
    },
    {
      "id": "id_w61g9z229mnwl0o97",
      "tick": 46440,
      "seconds": 42.065,
      "cents": 1200
    },
    {
      "id": "id_2238t93bqmnwl0o97",
      "tick": 46440,
      "seconds": 42.065,
      "cents": 1200
    },
    {
      "id": "id_vw2zpq04pmnwl0o97",
      "tick": 46560,
      "seconds": 42.174,
      "cents": 0
    },
    {
      "id": "id_n2t80b4fkmnwl0o97",
      "tick": 46560,
      "seconds": 42.174,
      "cents": 0
    },
    {
      "id": "id_i358jqouymnwl0o97",
      "tick": 46800,
      "seconds": 42.391,
      "cents": 0
    },
    {
      "id": "id_bghq9dqehmnwl0o97",
      "tick": 46800,
      "seconds": 42.391,
      "cents": 0
    },
    {
      "id": "id_x6zkf2rvvmnwl0o97",
      "tick": 47160,
      "seconds": 42.717,
      "cents": 0
    },
    {
      "id": "id_w4wng09tjmnwl0o97",
      "tick": 47160,
      "seconds": 42.717,
      "cents": 0
    },
    {
      "id": "id_zqvgo0zh5mnwl0o97",
      "tick": 47520,
      "seconds": 43.043,
      "cents": 0
    },
    {
      "id": "id_n23xw0m1bmnwl0o97",
      "tick": 47520,
      "seconds": 43.043,
      "cents": 0
    },
    {
      "id": "id_5nabubevbmnwl0o97",
      "tick": 48240,
      "seconds": 43.696,
      "cents": 0
    },
    {
      "id": "id_7cgjt0dlcmnwl0o97",
      "tick": 48240,
      "seconds": 43.696,
      "cents": 0
    },
    {
      "id": "id_wfntx7ofkmnwl0o97",
      "tick": 48600,
      "seconds": 44.022,
      "cents": 0
    },
    {
      "id": "id_x6tvnuuc0mnwl0o97",
      "tick": 48600,
      "seconds": 44.022,
      "cents": 0
    },
    {
      "id": "id_ya23u9s84mnwl0o97",
      "tick": 48960,
      "seconds": 44.348,
      "cents": 0
    },
    {
      "id": "id_f5jpbiwn7mnwl0o97",
      "tick": 48960,
      "seconds": 44.348,
      "cents": 0
    },
    {
      "id": "id_l769btqg6mnwl0o97",
      "tick": 49080,
      "seconds": 44.457,
      "cents": 0
    },
    {
      "id": "id_637sfo7sgmnwl0o97",
      "tick": 49080,
      "seconds": 44.457,
      "cents": 0
    },
    {
      "id": "id_2gl7e7y96mnwl0o97",
      "tick": 49440,
      "seconds": 44.783,
      "cents": 200
    },
    {
      "id": "id_jp2ykcs2omnwl0o97",
      "tick": 49440,
      "seconds": 44.783,
      "cents": 200
    },
    {
      "id": "id_x50drwxjdmnwl0o97",
      "tick": 50400,
      "seconds": 45.652,
      "cents": 200
    },
    {
      "id": "id_6396jugb4mnwl0o97",
      "tick": 50400,
      "seconds": 45.652,
      "cents": 200
    },
    {
      "id": "id_uzcpaeja0mnwl0o97",
      "tick": 51360,
      "seconds": 46.522,
      "cents": 200
    },
    {
      "id": "id_9py2uge54mnwl0o97",
      "tick": 51360,
      "seconds": 46.522,
      "cents": 200
    },
    {
      "id": "id_y7bzzbvinmnwl0o97",
      "tick": 51600,
      "seconds": 46.739,
      "cents": 0
    },
    {
      "id": "id_lxkh4gz4xmnwl0o97",
      "tick": 51600,
      "seconds": 46.739,
      "cents": 0
    },
    {
      "id": "id_ecvw75su8mnwl0o97",
      "tick": 52560,
      "seconds": 47.609,
      "cents": 0
    },
    {
      "id": "id_2ye9a1nj7mnwl0o97",
      "tick": 52560,
      "seconds": 47.609,
      "cents": 0
    },
    {
      "id": "id_51rbsf4h5mnwl0o97",
      "tick": 52920,
      "seconds": 47.935,
      "cents": 0
    },
    {
      "id": "id_rvecuqj5cmnwl0o97",
      "tick": 52920,
      "seconds": 47.935,
      "cents": 0
    },
    {
      "id": "id_0vgtx39qbmnwl0o97",
      "tick": 53280,
      "seconds": 48.261,
      "cents": 0
    },
    {
      "id": "id_0optl32tbmnwl0o97",
      "tick": 53280,
      "seconds": 48.261,
      "cents": 0
    },
    {
      "id": "id_a5w1dzbvamnwl0o97",
      "tick": 54000,
      "seconds": 48.913,
      "cents": 0
    },
    {
      "id": "id_a9z2epx5fmnwl0o97",
      "tick": 54000,
      "seconds": 48.913,
      "cents": 0
    },
    {
      "id": "id_ksiqek4hjmnwl0o97",
      "tick": 54360,
      "seconds": 49.239,
      "cents": 0
    },
    {
      "id": "id_slldhittpmnwl0o97",
      "tick": 54360,
      "seconds": 49.239,
      "cents": 0
    },
    {
      "id": "id_yt1gye7i3mnwl0o97",
      "tick": 54720,
      "seconds": 49.565,
      "cents": 0
    },
    {
      "id": "id_b4feuml7cmnwl0o97",
      "tick": 54720,
      "seconds": 49.565,
      "cents": 0
    },
    {
      "id": "id_ifnsmrhkdmnwl0o97",
      "tick": 54840,
      "seconds": 49.674,
      "cents": 0
    },
    {
      "id": "id_c5ex069o7mnwl0o97",
      "tick": 54840,
      "seconds": 49.674,
      "cents": 0
    },
    {
      "id": "id_45l9jlirmmnwl0o97",
      "tick": 55200,
      "seconds": 50,
      "cents": 200
    },
    {
      "id": "id_i516b70uamnwl0o97",
      "tick": 55200,
      "seconds": 50,
      "cents": 200
    },
    {
      "id": "id_3vuc2g7qvmnwl0o97",
      "tick": 56160,
      "seconds": 50.87,
      "cents": 200
    },
    {
      "id": "id_2sxinh51kmnwl0o97",
      "tick": 56160,
      "seconds": 50.87,
      "cents": 200
    },
    {
      "id": "id_h8yxsdrofmnwl0o97",
      "tick": 57120,
      "seconds": 51.739,
      "cents": 200
    },
    {
      "id": "id_fhuidm3s2mnwl0o97",
      "tick": 57120,
      "seconds": 51.739,
      "cents": 200
    },
    {
      "id": "id_s7ufb0kv1mnwl0o97",
      "tick": 57480,
      "seconds": 52.065,
      "cents": 0
    },
    {
      "id": "id_r7h07f7tvmnwl0o97",
      "tick": 57480,
      "seconds": 52.065,
      "cents": 0
    },
    {
      "id": "id_s7fgf3bppmnwl0o97",
      "tick": 58320,
      "seconds": 52.826,
      "cents": 0
    },
    {
      "id": "id_9d4rfqdq1mnwl0o97",
      "tick": 58320,
      "seconds": 52.826,
      "cents": 0
    },
    {
      "id": "id_wgqnagbfsmnwl0o97",
      "tick": 58680,
      "seconds": 53.152,
      "cents": 0
    },
    {
      "id": "id_cp2hr4b90mnwl0o97",
      "tick": 58680,
      "seconds": 53.152,
      "cents": 0
    },
    {
      "id": "id_b07v59pu4mnwl0o97",
      "tick": 59040,
      "seconds": 53.478,
      "cents": 0
    },
    {
      "id": "id_qqinejzpzmnwl0o97",
      "tick": 59040,
      "seconds": 53.478,
      "cents": 0
    },
    {
      "id": "id_29d5wr0pkmnwl0o97",
      "tick": 59760,
      "seconds": 54.13,
      "cents": 0
    },
    {
      "id": "id_16zghmqlgmnwl0o97",
      "tick": 59760,
      "seconds": 54.13,
      "cents": 0
    },
    {
      "id": "id_pe5ccnsfzmnwl0o97",
      "tick": 60120,
      "seconds": 54.457,
      "cents": 0
    },
    {
      "id": "id_ofhpmsktjmnwl0o97",
      "tick": 60120,
      "seconds": 54.457,
      "cents": 0
    },
    {
      "id": "id_ssabenyilmnwl0o97",
      "tick": 61200,
      "seconds": 55.435,
      "cents": 0
    },
    {
      "id": "id_vq1tipuypmnwl0o97",
      "tick": 61200,
      "seconds": 55.435,
      "cents": 0
    },
    {
      "id": "id_i2whm483cmnwl0o97",
      "tick": 61560,
      "seconds": 55.761,
      "cents": 0
    },
    {
      "id": "id_qc7s0nnzymnwl0o97",
      "tick": 61560,
      "seconds": 55.761,
      "cents": 0
    },
    {
      "id": "id_pojgx9ziomnwl0o97",
      "tick": 61920,
      "seconds": 56.087,
      "cents": 0
    },
    {
      "id": "id_t9jy9jwnjmnwl0o97",
      "tick": 61920,
      "seconds": 56.087,
      "cents": 0
    },
    {
      "id": "id_qjfa8rtnomnwl0o97",
      "tick": 61920,
      "seconds": 56.087,
      "cents": 0
    },
    {
      "id": "id_gmzo98r2omnwl0o97",
      "tick": 62640,
      "seconds": 56.739,
      "cents": 0
    },
    {
      "id": "id_6pml3zi28mnwl0o97",
      "tick": 62640,
      "seconds": 56.739,
      "cents": 0
    },
    {
      "id": "id_8i7gacnhomnwl0o97",
      "tick": 62640,
      "seconds": 56.739,
      "cents": 0
    },
    {
      "id": "id_1gpwuwen4mnwl0o97",
      "tick": 63000,
      "seconds": 57.065,
      "cents": 0
    },
    {
      "id": "id_hcg9nn3tomnwl0o97",
      "tick": 63000,
      "seconds": 57.065,
      "cents": 0
    },
    {
      "id": "id_3bv5w3lncmnwl0o97",
      "tick": 63000,
      "seconds": 57.065,
      "cents": 0
    },
    {
      "id": "id_e08z8dv4ymnwl0o97",
      "tick": 63240,
      "seconds": 57.283,
      "cents": 0
    },
    {
      "id": "id_0fjaru77nmnwl0o97",
      "tick": 63480,
      "seconds": 57.5,
      "cents": 400
    },
    {
      "id": "id_653u302ptmnwl0o97",
      "tick": 63480,
      "seconds": 57.5,
      "cents": 400
    },
    {
      "id": "id_ktdhiemcnmnwl0o97",
      "tick": 64080,
      "seconds": 58.043,
      "cents": 400
    },
    {
      "id": "id_udfueer19mnwl0o97",
      "tick": 64080,
      "seconds": 58.043,
      "cents": 400
    },
    {
      "id": "id_d9630az2amnwl0o97",
      "tick": 64440,
      "seconds": 58.37,
      "cents": 400
    },
    {
      "id": "id_saknfd8q2mnwl0o97",
      "tick": 64440,
      "seconds": 58.37,
      "cents": 400
    },
    {
      "id": "id_q2ju0o40tmnwl0o97",
      "tick": 64800,
      "seconds": 58.696,
      "cents": -1100
    },
    {
      "id": "id_opmtcpvjemnwl0o97",
      "tick": 64800,
      "seconds": 58.696,
      "cents": -1100
    },
    {
      "id": "id_icvqqtsezmnwl0o97",
      "tick": 65160,
      "seconds": 59.022,
      "cents": 0
    },
    {
      "id": "id_5ewpudmzqmnwl0o97",
      "tick": 65160,
      "seconds": 59.022,
      "cents": 0
    },
    {
      "id": "id_04dzhrx5tmnwl0o97",
      "tick": 65520,
      "seconds": 59.348,
      "cents": 0
    },
    {
      "id": "id_o6kvl5liqmnwl0o97",
      "tick": 65520,
      "seconds": 59.348,
      "cents": 0
    },
    {
      "id": "id_gsyyy7l4vmnwl0o97",
      "tick": 65880,
      "seconds": 59.674,
      "cents": 0
    },
    {
      "id": "id_utep9lft5mnwl0o97",
      "tick": 65880,
      "seconds": 59.674,
      "cents": 0
    },
    {
      "id": "id_6mepuj52hmnwl0o97",
      "tick": 66960,
      "seconds": 60.652,
      "cents": 0
    },
    {
      "id": "id_0s6ij10sumnwl0o97",
      "tick": 66960,
      "seconds": 60.652,
      "cents": 0
    },
    {
      "id": "id_b9reuwn6emnwl0o97",
      "tick": 67320,
      "seconds": 60.978,
      "cents": 0
    },
    {
      "id": "id_rhl8f0bbtmnwl0o97",
      "tick": 67320,
      "seconds": 60.978,
      "cents": 0
    },
    {
      "id": "id_kl5wydy5zmnwl0o97",
      "tick": 68280,
      "seconds": 61.848,
      "cents": 0
    },
    {
      "id": "id_v7e2wi7cvmnwl0o97",
      "tick": 68520,
      "seconds": 62.065,
      "cents": 200
    },
    {
      "id": "id_68fctp1e8mnwl0o97",
      "tick": 68760,
      "seconds": 62.283,
      "cents": 1100
    },
    {
      "id": "id_58dm7oqapmnwl0o97",
      "tick": 68880,
      "seconds": 62.391,
      "cents": 1100
    },
    {
      "id": "id_am9blnnzlmnwlma1e",
      "tick": 69120,
      "seconds": 62.609,
      "cents": 0
    },
    {
      "id": "id_60gl1rsuymnwllv4k",
      "tick": 69360,
      "seconds": 62.826,
      "cents": 0
    }
  ]
}